<?xml version="1.0" encoding="utf-8"?>
<!-- Generator: Adobe Illustrator 27.8.0, SVG Export Plug-In . SVG Version: 6.00 Build 0)  -->
<svg version="1.1" id="Layer_1" xmlns="http://www.w3.org/2000/svg" xmlns:xlink="http://www.w3.org/1999/xlink" x="0px" y="0px"
	 viewBox="0 0 1000 1000" style="enable-background:new 0 0 1000 1000;" xml:space="preserve">
<style type="text/css">
	.st0{fill:none;stroke:#E8E8E9;stroke-width:2.7443;stroke-miterlimit:10;}
	.st1{opacity:0.35;}
	.st2{fill:#BCBEC0;}
	.st3{fill:#F65A27;}
	.st4{fill:#FFBD35;}
	.st5{fill:#7DD882;}
	.st6{fill:#4D91FE;}
</style>
<g>
	<line class="st0" x1="423.6" y1="532.4" x2="570" y2="674.5"/>
	<g>
		<g class="st1">
			
				<rect x="58.5" y="262.7" transform="matrix(0.9672 -0.2541 0.2541 0.9672 -80.8435 25.9059)" class="st2" width="2.7" height="126.5"/>
		</g>
		<g class="st1">
			
				<rect x="71.4" y="352.2" transform="matrix(0.1475 -0.9891 0.9891 0.1475 -260.0217 405.5652)" class="st2" width="67.8" height="2.7"/>
		</g>
		<g>
			
				<rect x="123.6" y="372.6" transform="matrix(0.7711 -0.6367 0.6367 0.7711 -201.8336 186.4972)" class="st2" width="69.7" height="2.7"/>
		</g>
		<g class="st1">
			<polygon class="st2" points="48.5,562 45.9,561.2 63.9,502.8 66.5,503.6 			"/>
		</g>
		<g class="st1">
			
				<rect x="131" y="498.7" transform="matrix(0.8989 -0.4381 0.4381 0.8989 -223.6028 112.6761)" class="st2" width="2.7" height="84.4"/>
		</g>
		<g>
			
				<rect x="204.1" y="403.6" transform="matrix(0.1316 -0.9913 0.9913 0.1316 -275.1979 601.0979)" class="st2" width="2.7" height="108.2"/>
		</g>
		<g>
			
				<rect x="261.9" y="416" transform="matrix(0.5907 -0.8069 0.8069 0.5907 -347.696 443.4712)" class="st2" width="2.7" height="296.9"/>
		</g>
		<g class="st1">
			
				<rect x="189.4" y="598.1" transform="matrix(0.7859 -0.6183 0.6183 0.7859 -352.5538 254.1474)" class="st2" width="2.7" height="76.3"/>
		</g>
		<g>
			
				<rect x="241.3" y="604.9" transform="matrix(0.3265 -0.9452 0.9452 0.3265 -377.8352 682.3137)" class="st2" width="97" height="2.7"/>
		</g>
		<g class="st1">
			
				<rect x="99.3" y="648.2" transform="matrix(0.7825 -0.6226 0.6226 0.7825 -396.5786 208.8493)" class="st2" width="2.7" height="47.8"/>
		</g>
		<g class="st1">
			
				<rect x="105.2" y="648.9" transform="matrix(0.1914 -0.9815 0.9815 0.1914 -519.7639 669.671)" class="st2" width="82.6" height="2.7"/>
		</g>
		<g class="st1">
			<polygon class="st2" points="66.2,753.1 65,750.7 104.2,730.1 105.4,732.6 			"/>
		</g>
		<g>
			
				<rect x="158.4" y="708.3" transform="matrix(0.9993 -3.678291e-02 3.678291e-02 0.9993 -25.9832 6.9792)" class="st2" width="36.5" height="2.7"/>
		</g>
		<g>
			
				<rect x="199.6" y="795.1" transform="matrix(0.1676 -0.9859 0.9859 0.1676 -596.0521 886.9227)" class="st2" width="55.3" height="2.7"/>
		</g>
		<g class="st1">
			
				<rect x="219.9" y="861.7" transform="matrix(0.888 -0.4598 0.4598 0.888 -382.0474 200.8214)" class="st2" width="2.7" height="46"/>
		</g>
		<g class="st1">
			
				<rect x="140.7" y="869.6" transform="matrix(0.7976 -0.6032 0.6032 0.7976 -491.8405 276.2778)" class="st2" width="50" height="2.7"/>
		</g>
		<g>
			
				<rect x="311.9" y="679.8" transform="matrix(0.9673 -0.2535 0.2535 0.9673 -161.2694 111.0186)" class="st2" width="76.4" height="2.7"/>
		</g>
		<g class="st1">
			
				<rect x="358.3" y="752.3" transform="matrix(0.2793 -0.9602 0.9602 0.2793 -428.6458 936.2898)" class="st2" width="102.2" height="2.7"/>
		</g>
		<g class="st1">
			
				<rect x="492.9" y="673.4" transform="matrix(0.5905 -0.8071 0.8071 0.5905 -356.3874 682.4326)" class="st2" width="2.7" height="38"/>
		</g>
		<g>
			
				<rect x="579.4" y="786.7" transform="matrix(0.1865 -0.9824 0.9824 0.1865 -284.4787 1232.5559)" class="st2" width="45.3" height="2.7"/>
		</g>
		<g class="st1">
			<polygon class="st2" points="545.7,884.7 543.6,882.8 571.1,852 573.1,853.9 			"/>
		</g>
		<g>
			
				<rect x="580.9" y="605.7" transform="matrix(0.8929 -0.4503 0.4503 0.8929 -221.4201 329.697)" class="st2" width="2.7" height="49"/>
		</g>
		<g class="st1">
			
				<rect x="694.2" y="735" transform="matrix(0.578 -0.816 0.816 0.578 -330.0148 890.0389)" class="st2" width="2.7" height="58.2"/>
		</g>
		<g>
			
				<rect x="722.5" y="689.8" transform="matrix(0.2388 -0.9711 0.9711 0.2388 -155.7992 1256.9949)" class="st2" width="2.7" height="76.2"/>
		</g>
		<g>
			
				<rect x="781.2" y="709" transform="matrix(0.6843 -0.7292 0.7292 0.6843 -263.8026 811.4542)" class="st2" width="48" height="2.7"/>
		</g>
		<g>
			
				<rect x="681.6" y="673.2" transform="matrix(0.9539 -0.3002 0.3002 0.9539 -168.2172 254.0629)" class="st2" width="122.4" height="2.7"/>
		</g>
		<g>
			
				<rect x="603.4" y="583.5" transform="matrix(0.3708 -0.9287 0.9287 0.3708 -117.955 995.6532)" class="st2" width="144.8" height="2.7"/>
		</g>
		<g>
			
				<rect x="750.9" y="515.5" transform="matrix(0.9799 -0.1996 0.1996 0.9799 -108.7282 162.6296)" class="st2" width="2.7" height="210.1"/>
		</g>
		<g>
			
				<rect x="784.8" y="487.9" transform="matrix(0.6954 -0.7186 0.7186 0.6954 -146.6717 728.6247)" class="st2" width="2.7" height="98.8"/>
		</g>
		<g>
			
				<rect x="631.8" y="359.7" transform="matrix(0.4352 -0.9003 0.9003 0.4352 43.458 791.3327)" class="st2" width="41.4" height="2.7"/>
		</g>
		<g>
			<polygon class="st2" points="579.1,562.8 576.4,562 628.8,407 631.4,408 			"/>
		</g>
		<g>
			
				<rect x="588.6" y="239.8" transform="matrix(7.163480e-02 -0.9974 0.9974 7.163480e-02 271.718 845.2691)" class="st2" width="2.7" height="73.7"/>
		</g>
		<g class="st1">
			<polygon class="st2" points="787.9,310.4 744.8,295.9 745.7,293.3 788.8,307.8 			"/>
		</g>
		<g>
			
				<rect x="722.5" y="218.8" transform="matrix(0.7936 -0.6084 0.6084 0.7936 23.9094 510.899)" class="st2" width="85.1" height="2.7"/>
		</g>
		<g class="st1">
			
				<rect x="669" y="191.4" transform="matrix(0.1709 -0.9853 0.9853 0.1709 393.6389 853.3521)" class="st2" width="69.8" height="2.7"/>
		</g>
		<g>
			
				<rect x="435.9" y="446.8" transform="matrix(0.9729 -0.2311 0.2311 0.9729 -90.6511 122.3779)" class="st2" width="82.3" height="2.7"/>
		</g>
		<g>
			
				<rect x="390.9" y="381.6" transform="matrix(0.6394 -0.7689 0.7689 0.6394 -145.1205 456.541)" class="st2" width="46.4" height="2.7"/>
		</g>
		<g>
			
				<rect x="336.2" y="340.4" transform="matrix(0.2516 -0.9678 0.9678 0.2516 -44.1263 626.4783)" class="st2" width="93.7" height="2.7"/>
		</g>
		<g>
			
				<rect x="294.4" y="269.7" transform="matrix(0.9551 -0.2963 0.2963 0.9551 -85.4093 102.6123)" class="st2" width="2.7" height="126.7"/>
		</g>
		<g>
			
				<rect x="213" y="282.9" transform="matrix(0.5231 -0.8523 0.8523 0.5231 -130.7319 334.8911)" class="st2" width="41.8" height="2.7"/>
		</g>
		<g class="st1">
			
				<rect x="210.8" y="161" transform="matrix(0.602 -0.7985 0.7985 0.602 -65.8441 244.3246)" class="st2" width="2.7" height="54.4"/>
		</g>
		<g>
			
				<rect x="352.2" y="134.1" transform="matrix(0.8118 -0.584 0.584 0.8118 -45.3494 242.5239)" class="st2" width="2.7" height="115"/>
		</g>
		<g class="st1">
			<polygon class="st2" points="324,118.2 321.8,116.5 340.9,93.7 343,95.4 			"/>
		</g>
		<g class="st1">
			
				<rect x="387.7" y="197.8" transform="matrix(0.3736 -0.9276 0.9276 0.3736 84.5103 523.5017)" class="st2" width="84.4" height="2.7"/>
		</g>
		<g class="st1">
			
				<rect x="416.9" y="213.1" transform="matrix(0.7302 -0.6833 0.6833 0.7302 -22.03 373.1915)" class="st2" width="89.1" height="2.7"/>
		</g>
	</g>
	<g>
		<g>
			<path class="st2" d="M437,367.4c-8.6,0-15.6-7-15.6-15.6s7-15.6,15.6-15.6c8.6,0,15.6,7,15.6,15.6S445.6,367.4,437,367.4z
				 M437,338.4c-7.4,0-13.4,6-13.4,13.4s6,13.4,13.4,13.4c7.4,0,13.4-6,13.4-13.4S444.4,338.4,437,338.4z"/>
		</g>
	</g>
	<g>
		<g>
			<path class="st3" d="M348.9,576.4c-53.6,0-97.1-43.6-97.1-97.1s43.6-97.1,97.1-97.1c53.6,0,97.1,43.6,97.1,97.1
				S402.5,576.4,348.9,576.4z M348.9,396.2c-45.8,0-83.1,37.3-83.1,83.1s37.3,83.1,83.1,83.1c45.8,0,83.1-37.3,83.1-83.1
				S394.8,396.2,348.9,396.2z"/>
		</g>
	</g>
	<g>
		<g>
			<path class="st2" d="M436.3,709.5c-30.3,0-54.9-24.6-54.9-54.9c0-30.3,24.6-54.9,54.9-54.9c30.3,0,54.9,24.6,54.9,54.9
				C491.3,684.9,466.6,709.5,436.3,709.5z M436.3,607.5c-25.9,0-47,21.1-47,47c0,25.9,21.1,47,47,47c25.9,0,47-21.1,47-47
				C483.3,628.6,462.2,607.5,436.3,607.5z"/>
		</g>
	</g>
	<g>
		<g>
			<path class="st4" d="M625.3,775.3c-36.2,0-65.7-29.5-65.7-65.7c0-36.2,29.5-65.7,65.7-65.7c36.2,0,65.7,29.5,65.7,65.7
				C691,745.8,661.6,775.3,625.3,775.3z M625.3,653.3c-31,0-56.3,25.2-56.3,56.3s25.2,56.3,56.3,56.3c31,0,56.3-25.2,56.3-56.3
				S656.3,653.3,625.3,653.3z"/>
		</g>
	</g>
	<g>
		<g>
			<g>
				<path class="st5" d="M883.4,723.5c-50.5,0-91.6-41.1-91.6-91.6s41.1-91.6,91.6-91.6c50.5,0,91.6,41.1,91.6,91.6
					S933.9,723.5,883.4,723.5z M883.4,553.5c-43.2,0-78.4,35.2-78.4,78.4s35.2,78.4,78.4,78.4c43.2,0,78.4-35.2,78.4-78.4
					S926.6,553.5,883.4,553.5z"/>
			</g>
		</g>
	</g>
	<g class="st1">
		<g>
			<path class="st2" d="M731.3,806.2c-8.5,0-15.5-6.9-15.5-15.5c0-8.5,6.9-15.5,15.5-15.5c8.5,0,15.5,6.9,15.5,15.5
				C746.7,799.2,739.8,806.2,731.3,806.2z M731.3,777.5c-7.3,0-13.2,5.9-13.2,13.2c0,7.3,5.9,13.2,13.2,13.2
				c7.3,0,13.2-5.9,13.2-13.2C744.5,783.4,738.6,777.5,731.3,777.5z"/>
		</g>
	</g>
	<g>
		<g>
			<path class="st2" d="M776.3,752.4c-8.5,0-15.5-6.9-15.5-15.5c0-8.5,6.9-15.5,15.5-15.5c8.5,0,15.5,6.9,15.5,15.5
				C791.8,745.5,784.8,752.4,776.3,752.4z M776.3,723.7c-7.3,0-13.2,5.9-13.2,13.2s5.9,13.2,13.2,13.2c7.3,0,13.2-5.9,13.2-13.2
				S783.6,723.7,776.3,723.7z"/>
		</g>
	</g>
	<g>
		<g>
			<path class="st2" d="M717.8,520.2c-25.4,0-46-20.6-46-46c0-25.4,20.6-46,46-46c25.4,0,46,20.6,46,46
				C763.8,499.6,743.2,520.2,717.8,520.2z M717.8,434.9c-21.7,0-39.4,17.7-39.4,39.4c0,21.7,17.7,39.4,39.4,39.4
				c21.7,0,39.4-17.7,39.4-39.4C757.2,452.5,739.5,434.9,717.8,434.9z"/>
		</g>
	</g>
	<g>
		<g>
			<path class="st2" d="M635,409.8c-9,0-16.3-7.3-16.3-16.3c0-9,7.3-16.3,16.3-16.3c9,0,16.3,7.3,16.3,16.3
				C651.3,402.5,644,409.8,635,409.8z M635,379.6c-7.7,0-13.9,6.2-13.9,13.9s6.2,13.9,13.9,13.9c7.7,0,13.9-6.2,13.9-13.9
				S642.7,379.6,635,379.6z"/>
		</g>
	</g>
	<g>
		<g>
			<path class="st2" d="M526.1,300.3c-14.9,0-27.1-12.2-27.1-27.1c0-14.9,12.2-27.1,27.1-27.1c14.9,0,27.1,12.2,27.1,27.1
				C553.2,288.2,541,300.3,526.1,300.3z M526.1,250c-12.8,0-23.2,10.4-23.2,23.2s10.4,23.2,23.2,23.2c12.8,0,23.2-10.4,23.2-23.2
				S538.9,250,526.1,250z"/>
		</g>
	</g>
	<g class="st1">
		<g>
			<path class="st2" d="M714.1,159c-8.9,0-16.2-7.3-16.2-16.2c0-8.9,7.3-16.2,16.2-16.2c8.9,0,16.2,7.3,16.2,16.2
				C730.4,151.7,723.1,159,714.1,159z M714.1,128.9c-7.7,0-13.9,6.2-13.9,13.9c0,7.7,6.2,13.9,13.9,13.9c7.7,0,13.9-6.2,13.9-13.9
				C728,135.1,721.8,128.9,714.1,128.9z"/>
		</g>
	</g>
	<g>
		<g>
			<path class="st2" d="M822.6,204.6c-18.1,0-32.8-14.7-32.8-32.8s14.7-32.8,32.8-32.8c18.1,0,32.8,14.7,32.8,32.8
				S840.7,204.6,822.6,204.6z M822.6,143.8c-15.5,0-28,12.6-28,28s12.6,28,28,28c15.5,0,28-12.6,28-28S838.1,143.8,822.6,143.8z"/>
		</g>
	</g>
	<g>
		<g>
			<path class="st6" d="M685.7,351.8c-35.8,0-65-29.1-65-65s29.1-65,65-65c35.8,0,65,29.1,65,65S721.5,351.8,685.7,351.8z
				 M685.7,231.2c-30.7,0-55.6,24.9-55.6,55.6s24.9,55.6,55.6,55.6c30.7,0,55.6-24.9,55.6-55.6S716.3,231.2,685.7,231.2z"/>
		</g>
	</g>
	<g>
		<g>
			<path class="st2" d="M559.6,615.5c-16.4,0-29.7-13.3-29.7-29.7c0-16.4,13.3-29.7,29.7-29.7c16.4,0,29.7,13.3,29.7,29.7
				C589.2,602.2,575.9,615.5,559.6,615.5z M559.6,560.4c-14,0-25.4,11.4-25.4,25.4c0,14,11.4,25.4,25.4,25.4
				c14,0,25.4-11.4,25.4-25.4C585,571.8,573.6,560.4,559.6,560.4z"/>
		</g>
	</g>
	<g>
		<g>
			<path class="st2" d="M585,856.5c-13.7,0-24.9-11.2-24.9-24.9s11.2-24.9,24.9-24.9c13.7,0,24.9,11.2,24.9,24.9
				S598.7,856.5,585,856.5z M585,810.3c-11.8,0-21.3,9.6-21.3,21.3s9.6,21.3,21.3,21.3c11.8,0,21.3-9.6,21.3-21.3
				S596.7,810.3,585,810.3z"/>
		</g>
	</g>
	<g>
		<g>
			<path class="st2" d="M251.8,775.4c-36.6,0-66.4-29.8-66.4-66.4c0-36.6,29.8-66.4,66.4-66.4c36.6,0,66.4,29.8,66.4,66.4
				C318.2,745.6,288.4,775.4,251.8,775.4z M251.8,652.1c-31.4,0-56.9,25.5-56.9,56.9c0,31.4,25.5,56.9,56.9,56.9
				c31.4,0,56.9-25.5,56.9-56.9C308.7,677.6,283.2,652.1,251.8,652.1z"/>
		</g>
	</g>
	<g class="st1">
		<g>
			<path class="st2" d="M157.2,609.7c-8.9,0-16.1-7.2-16.1-16.1c0-8.9,7.2-16.1,16.1-16.1c8.9,0,16.1,7.2,16.1,16.1
				C173.3,602.5,166.1,609.7,157.2,609.7z M157.2,579.9c-7.6,0-13.8,6.2-13.8,13.8c0,7.6,6.2,13.8,13.8,13.8
				c7.6,0,13.8-6.2,13.8-13.8C171,586.1,164.8,579.9,157.2,579.9z"/>
		</g>
	</g>
	<g>
		<g>
			<path class="st2" d="M131.6,749c-17.3,0-31.4-14.1-31.4-31.4s14.1-31.4,31.4-31.4c17.3,0,31.4,14.1,31.4,31.4
				S148.9,749,131.6,749z M131.6,690.9c-14.8,0-26.8,12-26.8,26.8s12,26.8,26.8,26.8c14.8,0,26.8-12,26.8-26.8
				S146.4,690.9,131.6,690.9z"/>
		</g>
	</g>
	<g>
		<g>
			<path class="st2" d="M207,867.9c-13.7,0-24.9-11.2-24.9-24.9s11.2-24.9,24.9-24.9c13.7,0,24.9,11.2,24.9,24.9
				S220.7,867.9,207,867.9z M207,821.7c-11.7,0-21.3,9.6-21.3,21.3s9.6,21.3,21.3,21.3c11.7,0,21.3-9.6,21.3-21.3
				S218.7,821.7,207,821.7z"/>
		</g>
	</g>
	<g class="st1">
		<g>
			<path class="st2" d="M131.9,910.7c-9,0-16.3-7.3-16.3-16.3c0-9,7.3-16.3,16.3-16.3c9,0,16.3,7.3,16.3,16.3
				C148.1,903.4,140.8,910.7,131.9,910.7z M131.9,880.5c-7.7,0-13.9,6.2-13.9,13.9c0,7.7,6.2,13.9,13.9,13.9
				c7.7,0,13.9-6.2,13.9-13.9C145.8,886.8,139.5,880.5,131.9,880.5z"/>
		</g>
	</g>
	<g class="st1">
		<g>
			<path class="st2" d="M389.3,834.4c-9,0-16.3-7.3-16.3-16.3s7.3-16.3,16.3-16.3c9,0,16.3,7.3,16.3,16.3S398.3,834.4,389.3,834.4z
				 M389.3,804.2c-7.7,0-13.9,6.2-13.9,13.9s6.2,13.9,13.9,13.9c7.7,0,13.9-6.2,13.9-13.9S397,804.2,389.3,804.2z"/>
		</g>
	</g>
	<g class="st1">
		<g>
			<path class="st2" d="M78.2,656.2c-7.1,0-12.9-5.8-12.9-12.9s5.8-12.9,12.9-12.9c7.1,0,12.9,5.8,12.9,12.9S85.3,656.2,78.2,656.2z
				 M78.2,632.1c-6.1,0-11.1,5-11.1,11.1c0,6.1,5,11.1,11.1,11.1c6.1,0,11.1-5,11.1-11.1C89.2,637.1,84.3,632.1,78.2,632.1z"/>
		</g>
	</g>
	<g class="st1">
		<g>
			<g>
				<path class="st2" d="M56.4,767.2c-5.9,0-10.6-4.8-10.6-10.6c0-5.9,4.8-10.6,10.6-10.6S67,750.7,67,756.6
					C67,762.4,62.2,767.2,56.4,767.2z M56.4,748.7c-4.4,0-7.9,3.5-7.9,7.9c0,4.4,3.5,7.9,7.9,7.9s7.9-3.5,7.9-7.9
					C64.2,752.2,60.7,748.7,56.4,748.7z"/>
			</g>
		</g>
	</g>
	<g class="st1">
		<g>
			<g>
				<path class="st2" d="M43.8,582.3c-5.9,0-10.6-4.8-10.6-10.6c0-5.9,4.8-10.6,10.6-10.6c5.9,0,10.6,4.8,10.6,10.6
					C54.4,577.6,49.7,582.3,43.8,582.3z M43.8,563.8c-4.4,0-7.9,3.5-7.9,7.9c0,4.4,3.5,7.9,7.9,7.9c4.4,0,7.9-3.5,7.9-7.9
					C51.7,567.3,48.2,563.8,43.8,563.8z"/>
			</g>
		</g>
	</g>
	<g class="st1">
		<g>
			<g>
				<path class="st2" d="M41.2,265.2c-5.9,0-10.6-4.8-10.6-10.6s4.8-10.6,10.6-10.6s10.6,4.8,10.6,10.6S47,265.2,41.2,265.2z
					 M41.2,246.6c-4.4,0-7.9,3.5-7.9,7.9c0,4.4,3.5,7.9,7.9,7.9s7.9-3.5,7.9-7.9C49.1,250.2,45.5,246.6,41.2,246.6z"/>
			</g>
		</g>
	</g>
	<g class="st1">
		<g>
			<g>
				<path class="st2" d="M348.9,97.3c-5.9,0-10.6-4.8-10.6-10.6c0-5.9,4.8-10.6,10.6-10.6s10.6,4.8,10.6,10.6
					C359.6,92.5,354.8,97.3,348.9,97.3z M348.9,78.8c-4.4,0-7.9,3.5-7.9,7.9c0,4.4,3.5,7.9,7.9,7.9s7.9-3.5,7.9-7.9
					C356.8,82.3,353.3,78.8,348.9,78.8z"/>
			</g>
		</g>
	</g>
	<g class="st1">
		<g>
			<g>
				<path class="st2" d="M501.7,187.4c-5.9,0-10.6-4.8-10.6-10.6s4.8-10.6,10.6-10.6c5.9,0,10.6,4.8,10.6,10.6
					S507.5,187.4,501.7,187.4z M501.7,168.9c-4.4,0-7.9,3.5-7.9,7.9c0,4.4,3.5,7.9,7.9,7.9c4.4,0,7.9-3.5,7.9-7.9
					C509.6,172.4,506,168.9,501.7,168.9z"/>
			</g>
		</g>
	</g>
	<g class="st1">
		<g>
			<g>
				<path class="st2" d="M518.2,720.2c-5.9,0-10.6-4.8-10.6-10.6s4.8-10.6,10.6-10.6c5.9,0,10.6,4.8,10.6,10.6
					S524.1,720.2,518.2,720.2z M518.2,701.6c-4.4,0-7.9,3.5-7.9,7.9s3.5,7.9,7.9,7.9c4.4,0,7.9-3.5,7.9-7.9S522.6,701.6,518.2,701.6
					z"/>
			</g>
		</g>
	</g>
	<g class="st1">
		<g>
			<g>
				<path class="st2" d="M798.3,323c-5.9,0-10.6-4.8-10.6-10.6c0-5.9,4.8-10.6,10.6-10.6s10.6,4.8,10.6,10.6
					C808.9,318.2,804.1,323,798.3,323z M798.3,304.4c-4.4,0-7.9,3.5-7.9,7.9c0,4.4,3.5,7.9,7.9,7.9s7.9-3.5,7.9-7.9
					C806.2,308,802.6,304.4,798.3,304.4z"/>
			</g>
		</g>
	</g>
	<g class="st1">
		<g>
			<g>
				<path class="st2" d="M537.4,902.3c-5.9,0-10.6-4.8-10.6-10.6s4.8-10.6,10.6-10.6c5.9,0,10.6,4.8,10.6,10.6
					S543.3,902.3,537.4,902.3z M537.4,883.7c-4.4,0-7.9,3.5-7.9,7.9s3.5,7.9,7.9,7.9c4.4,0,7.9-3.5,7.9-7.9S541.8,883.7,537.4,883.7
					z"/>
			</g>
		</g>
	</g>
	<g class="st1">
		<g>
			<g>
				<path class="st2" d="M235.9,924c-5.9,0-10.6-4.8-10.6-10.6c0-5.9,4.8-10.6,10.6-10.6s10.6,4.8,10.6,10.6
					C246.5,919.2,241.8,924,235.9,924z M235.9,905.4c-4.4,0-7.9,3.5-7.9,7.9c0,4.4,3.5,7.9,7.9,7.9s7.9-3.5,7.9-7.9
					C243.8,909,240.3,905.4,235.9,905.4z"/>
			</g>
		</g>
	</g>
	<g class="st1">
		<g>
			<path class="st2" d="M113.9,320.5c-8.9,0-16.1-7.2-16.1-16.1c0-8.9,7.2-16.1,16.1-16.1c8.9,0,16.1,7.2,16.1,16.1
				C130,313.3,122.8,320.5,113.9,320.5z M113.9,290.6c-7.6,0-13.8,6.2-13.8,13.8s6.2,13.8,13.8,13.8c7.6,0,13.8-6.2,13.8-13.8
				S121.5,290.6,113.9,290.6z"/>
		</g>
	</g>
	<g class="st1">
		<g>
			<path class="st2" d="M178.8,176.8c-8.9,0-16.1-7.2-16.1-16.1s7.2-16.1,16.1-16.1c8.9,0,16.1,7.2,16.1,16.1
				S187.7,176.8,178.8,176.8z M178.8,146.9c-7.6,0-13.8,6.2-13.8,13.8c0,7.6,6.2,13.8,13.8,13.8c7.6,0,13.8-6.2,13.8-13.8
				C192.6,153.1,186.4,146.9,178.8,146.9z"/>
		</g>
	</g>
	<g>
		<g>
			<path class="st2" d="M314.6,147.2c-8.9,0-16.1-7.2-16.1-16.1c0-8.9,7.2-16.1,16.1-16.1c8.9,0,16.1,7.2,16.1,16.1
				C330.7,140,323.4,147.2,314.6,147.2z M314.6,117.4c-7.6,0-13.8,6.2-13.8,13.8c0,7.6,6.2,13.8,13.8,13.8c7.6,0,13.8-6.2,13.8-13.8
				C328.3,123.6,322.2,117.4,314.6,117.4z"/>
		</g>
	</g>
	<g>
		<g>
			<path class="st2" d="M91.1,512.5c-36.5,0-66.1-29.7-66.1-66.1s29.7-66.1,66.1-66.1c36.5,0,66.1,29.7,66.1,66.1
				S127.6,512.5,91.1,512.5z M91.1,389.8c-31.2,0-56.6,25.4-56.6,56.6S59.9,503,91.1,503c31.2,0,56.6-25.4,56.6-56.6
				S122.3,389.8,91.1,389.8z"/>
		</g>
	</g>
	<g>
		<g>
			<path class="st2" d="M265.8,274c-23.6,0-42.9-19.2-42.9-42.9s19.2-42.9,42.9-42.9c23.6,0,42.9,19.2,42.9,42.9
				S289.4,274,265.8,274z M265.8,194.5c-20.2,0-36.7,16.5-36.7,36.7s16.5,36.7,36.7,36.7c20.2,0,36.7-16.5,36.7-36.7
				S286,194.5,265.8,194.5z"/>
		</g>
	</g>
	<g class="st1">
		<g>
			<path class="st2" d="M450.2,160.7c-8.8,0-15.9-7.1-15.9-15.9s7.1-15.9,15.9-15.9c8.8,0,15.9,7.1,15.9,15.9
				S458.9,160.7,450.2,160.7z M450.2,131.1c-7.5,0-13.6,6.1-13.6,13.6s6.1,13.6,13.6,13.6c7.5,0,13.6-6.1,13.6-13.6
				S457.7,131.1,450.2,131.1z"/>
		</g>
	</g>
	<g>
		<g>
			<path class="st2" d="M404.1,299.3c-18.1,0-32.9-14.8-32.9-32.9c0-18.1,14.8-32.9,32.9-32.9c18.1,0,32.9,14.8,32.9,32.9
				C437,284.6,422.3,299.3,404.1,299.3z M404.1,238.3c-15.5,0-28.1,12.6-28.1,28.1s12.6,28.1,28.1,28.1c15.5,0,28.1-12.6,28.1-28.1
				S419.6,238.3,404.1,238.3z"/>
		</g>
	</g>
	<g>
		<g>
			<path class="st2" d="M207,360.4c-18.1,0-32.9-14.8-32.9-32.9c0-18.1,14.8-32.9,32.9-32.9c18.1,0,32.9,14.8,32.9,32.9
				C239.8,345.6,225.1,360.4,207,360.4z M207,299.3c-15.5,0-28.1,12.6-28.1,28.1c0,15.5,12.6,28.1,28.1,28.1
				c15.5,0,28.1-12.6,28.1-28.1C235.1,312,222.5,299.3,207,299.3z"/>
		</g>
	</g>
	<g>
		<g>
			<path class="st2" d="M550.5,464.7c-19,0-34.5-15.5-34.5-34.5s15.5-34.5,34.5-34.5c19,0,34.5,15.5,34.5,34.5
				S569.5,464.7,550.5,464.7z M550.5,400.8c-16.3,0-29.5,13.2-29.5,29.5s13.2,29.5,29.5,29.5c16.3,0,29.5-13.2,29.5-29.5
				S566.8,400.8,550.5,400.8z"/>
		</g>
	</g>
</g>
</svg>
