<?xml version="1.0" encoding="utf-8"?>
<!-- Generator: Adobe Illustrator 27.8.0, SVG Export Plug-In . SVG Version: 6.00 Build 0)  -->
<svg version="1.1" id="Layer_1" xmlns="http://www.w3.org/2000/svg" xmlns:xlink="http://www.w3.org/1999/xlink" x="0px" y="0px"
	 viewBox="0 0 1000 1000" style="enable-background:new 0 0 1000 1000;" xml:space="preserve">
<style type="text/css">
	.st0{fill:#F1F2F2;}
	.st1{fill:#4D91FE;}
	.st2{fill:#939598;}
	.st3{fill:#FFBD35;}
	.st4{fill:#F65A27;}
	.st5{fill:#7DD882;}
	.st6{fill:#FFFFFF;}
</style>
<g>
	<g>
		<path class="st0" d="M499.5,914.3c-55.6,0-109.5-10.9-160.2-32.3c-49-20.7-93-50.4-130.8-88.2c-37.8-37.8-67.5-81.8-88.2-130.8
			c-21.5-50.8-32.4-104.7-32.4-160.2s10.9-109.5,32.4-160.2c20.7-49,50.4-93,88.2-130.8s81.8-67.5,130.8-88.2
			C390,101.9,443.9,91,499.5,91c55.6,0,109.5,10.9,160.2,32.4c49,20.7,93,50.4,130.8,88.2c37.8,37.8,67.5,81.8,88.2,130.8
			c21.5,50.8,32.3,104.7,32.3,160.2s-10.9,109.5-32.3,160.2c-20.7,49-50.4,93-88.2,130.8c-37.8,37.8-81.8,67.5-130.8,88.2
			C609,903.4,555.1,914.3,499.5,914.3z M499.5,105c-219.3,0-397.6,178.4-397.6,397.6s178.4,397.6,397.6,397.6
			s397.6-178.4,397.6-397.6S718.8,105,499.5,105z"/>
	</g>
	<g>
		<path class="st0" d="M499.5,709.9c-55.4,0-107.4-21.6-146.5-60.7c-39.1-39.1-60.7-91.2-60.7-146.5c0-55.4,21.6-107.4,60.7-146.5
			s91.2-60.7,146.5-60.7S606.9,317,646,356.1s60.7,91.2,60.7,146.5c0,55.4-21.6,107.4-60.7,146.5
			C606.9,688.3,554.9,709.9,499.5,709.9z M499.5,306.5c-108.2,0-196.2,88-196.2,196.2s88,196.2,196.2,196.2s196.2-88,196.2-196.2
			S607.7,306.5,499.5,306.5z"/>
	</g>
	<g>
		<circle class="st1" cx="499.5" cy="92.7" r="70.9"/>
	</g>
	<g>
		<path class="st2" d="M366.4,276.8l-15-27.5l16.9-9.2l2.7,4.9l-11.9,6.5l3.2,5.9l9.2-5l2.7,4.9l-9.2,5l6.5,11.9L366.4,276.8z"/>
		<path class="st2" d="M385.8,266.4l-12.5-28.8l10.5-4.6c2-0.9,3.9-1.3,5.6-1.3c1.8,0,3.3,0.4,4.7,1.4c1.4,0.9,2.5,2.4,3.3,4.4
			c0.9,2.1,1.2,4,0.8,5.6c-0.4,1.6-1.1,3.1-2.3,4.5l11.7,9.3l-5.9,2.5l-10.2-8.3c0,0-0.1,0-0.1,0c0,0-0.1,0-0.1,0l-5.1,2.2l4.6,10.7
			L385.8,266.4z M384.6,249l3.9-1.7c2.2-0.9,3.5-2,3.9-3.3c0.5-1.3,0.4-2.6-0.2-3.9c-0.6-1.4-1.5-2.4-2.7-2.8
			c-1.2-0.5-2.8-0.2-4.9,0.7l-4.1,1.8L384.6,249z"/>
		<path class="st2" d="M411.7,228.6l1.4-0.4l-0.8,27.3l-5.3,1.7l1.1-33.2l5.2-1.6l20.1,26.5l-5.3,1.7L411.7,228.6z M424.3,243.8
			l-12.5,4l-1.5-4.8l12.5-4L424.3,243.8z"/>
		<path class="st2" d="M433.7,248.5l-1.7-31.6l4.6-0.9l10.2,12.6l4.8-15.5l4.6-0.9l10.2,30l-5.8,1.1l-7.4-22.6l1.6,0l-5.9,18.1
			l-12.3-14.5l1.5-0.6l1.5,23.7L433.7,248.5z"/>
		<path class="st2" d="M469.9,242.1l-2.4-31.2l20-1.6l0.4,5.5l-14.2,1.1l0.5,6.7l11-0.9l0.4,5.5l-11,0.9l0.6,8L490,235l0.4,5.5
			L469.9,242.1z"/>
		<path class="st2" d="M499.2,240.3l-7.3-31.7l5.9,0.3l5.2,22.5l8-21.9l4,0.2l6.2,22l7-21.4l5.9,0.3l-10.6,30.9l-5.1-0.2l-6-21.2
			l-7.9,20.6L499.2,240.3z"/>
		<path class="st2" d="M547.2,245.7c-2.9-0.5-5.4-1.7-7.5-3.5c-2-1.8-3.5-4-4.3-6.6c-0.9-2.6-1-5.6-0.4-8.8c0.6-3.2,1.8-5.9,3.5-8.1
			c1.8-2.2,3.9-3.7,6.4-4.6c2.5-0.9,5.3-1.1,8.2-0.5c2.9,0.5,5.4,1.7,7.5,3.5c2,1.8,3.5,4,4.3,6.6c0.9,2.6,1,5.6,0.4,8.8
			c-0.6,3.2-1.8,5.9-3.5,8.1c-1.8,2.2-3.9,3.7-6.4,4.6C552.9,246,550.1,246.2,547.2,245.7z M548.2,240.2c2.1,0.4,3.9,0.2,5.4-0.4
			c1.5-0.7,2.8-1.7,3.8-3.2c1-1.5,1.7-3.2,2.1-5.3c0.4-2,0.4-3.9,0-5.6c-0.4-1.7-1.2-3.2-2.4-4.3c-1.2-1.2-2.8-1.9-4.9-2.3
			c-2.1-0.4-3.9-0.2-5.4,0.4c-1.5,0.7-2.8,1.7-3.8,3.2c-1,1.5-1.7,3.2-2.1,5.3c-0.4,2-0.4,3.9,0,5.6c0.4,1.7,1.2,3.2,2.4,4.3
			C544.5,239,546.2,239.8,548.2,240.2z"/>
		<path class="st2" d="M565.6,248.9l9.1-30l11,3.3c2.1,0.6,3.8,1.5,5.1,2.6c1.3,1.1,2.2,2.5,2.7,4.1c0.4,1.6,0.4,3.4-0.3,5.5
			c-0.7,2.2-1.7,3.8-3,4.8c-1.3,1-2.9,1.7-4.6,1.9l2.9,14.7l-6.1-1.9l-2.4-12.9c0,0-0.1,0-0.1,0s-0.1,0-0.1,0l-5.4-1.6l-3.4,11.1
			L565.6,248.9z M575.9,234.9l4,1.2c2.3,0.7,4,0.7,5.1,0.1s2-1.7,2.4-3.1c0.5-1.5,0.4-2.8-0.2-3.9c-0.6-1.1-2-2-4.1-2.7l-4.2-1.3
			L575.9,234.9z"/>
		<path class="st2" d="M590.9,256.9L603,228l5.3,2.2l-12.1,28.9L590.9,256.9z M607.3,263.7L603,244l16.4-9.2l6.2,2.6l-16.5,9.1
			l4.4,19.8L607.3,263.7z"/>
		<path class="st2" d="M622.8,272.2c-1.1-0.6-2.2-1.3-3.3-2.2c-1.1-0.9-2-1.7-2.9-2.6c-0.8-0.9-1.5-1.6-1.9-2.2l3.5-5
			c0.7,0.9,1.4,1.9,2.2,2.8c0.8,0.9,1.7,1.8,2.6,2.6c0.9,0.8,1.9,1.5,3,2.1c1.3,0.7,2.6,1,3.7,0.9c1.1-0.1,1.9-0.7,2.5-1.8
			c0.4-0.8,0.6-1.6,0.4-2.4c-0.2-0.8-0.6-1.6-1.4-2.5c-0.7-0.9-1.7-2-2.9-3.3c-1.2-1.3-2.2-2.6-3-3.9c-0.8-1.3-1.3-2.6-1.5-4
			c-0.1-1.4,0.2-2.8,1-4.4c0.8-1.5,1.9-2.7,3.3-3.5c1.4-0.8,3-1.1,4.9-1c1.9,0.1,3.9,0.8,6.1,2c1.7,0.9,3.2,2,4.5,3.1
			c1.3,1.2,2.4,2.3,3.3,3.3l-3.3,4.9c-1.2-1.5-2.4-2.8-3.5-3.9c-1.2-1.1-2.5-2-3.9-2.8c-1.5-0.8-2.7-1.2-3.8-1.1
			c-1.1,0.1-1.9,0.6-2.4,1.5c-0.4,0.8-0.5,1.5-0.3,2.2c0.2,0.7,0.6,1.5,1.3,2.2c0.6,0.8,1.5,1.7,2.4,2.7c1.7,1.7,3,3.3,3.9,4.8
			c1,1.5,1.5,2.9,1.6,4.4c0.1,1.4-0.2,3-1.1,4.5c-0.4,0.8-1,1.6-1.8,2.4c-0.7,0.8-1.7,1.4-2.9,1.8c-1.2,0.4-2.6,0.5-4.3,0.3
			C627.1,274.2,625.1,273.4,622.8,272.2z"/>
	</g>
	<g>
		<circle class="st3" cx="904.1" cy="502.7" r="70.9"/>
	</g>
	<g>
		<circle class="st4" cx="95.9" cy="501.9" r="70.9"/>
	</g>
	<g>
		<circle class="st5" cx="499.5" cy="907.3" r="70.9"/>
	</g>
	<g>
		<g>
			<g>
				<path class="st1" d="M486.1,336.3c-17.9-7.4-26.4-28-19-45.8c7.4-17.9,28-26.4,45.8-19c17.9,7.4,26.4,28,19,45.8
					C524.5,335.2,504,343.7,486.1,336.3z"/>
			</g>
		</g>
		<g>
			<path class="st6" d="M509.2,306c-0.2-0.5-0.5-1-0.8-1.5v-8.4c0-1.2-0.2-2.3-0.7-3.4c-0.4-1.1-1.1-2.1-1.9-2.9
				c-0.8-0.8-1.8-1.5-2.9-1.9c-1.1-0.4-2.2-0.7-3.4-0.7c-1.2,0-2.3,0.2-3.4,0.7s-2.1,1.1-2.9,1.9c-0.8,0.8-1.5,1.8-1.9,2.9
				c-0.4,1.1-0.7,2.2-0.7,3.4v1.2l3.6,0v-1.2c0-1.4,0.6-2.8,1.6-3.8c0.5-0.5,1.1-0.9,1.7-1.2c0.6-0.3,1.3-0.4,2-0.4
				c1.4,0,2.8,0.6,3.8,1.6c1,1,1.6,2.4,1.6,3.8v4.9c-1.6-1-3.5-1.5-5.4-1.5c-1.4,0-2.8,0.3-4,0.8c-1.3,0.5-2.4,1.3-3.4,2.3
				c-1,1-1.8,2.1-2.3,3.4c-0.5,1.3-0.8,2.6-0.8,4c0,1.4,0.3,2.8,0.8,4c0.5,1.3,1.3,2.4,2.3,3.4c1,1,2.1,1.8,3.4,2.3
				c1.3,0.5,2.6,0.8,4,0.8c1.4,0,2.8-0.3,4-0.8c1.3-0.5,2.4-1.3,3.4-2.3c1-1,1.8-2.1,2.3-3.4c0.5-1.3,0.8-2.6,0.8-4
				C510,308.7,509.8,307.3,509.2,306L509.2,306z M499.5,317c-3.8,0-7-3.1-7-7s3.1-7,7-7c1.8,0,3.6,0.7,4.9,2c1.3,1.3,2,3.1,2,4.9
				c0,1.8-0.7,3.6-2,4.9C503.1,316.3,501.3,317,499.5,317z M502.5,310.1c0,3.9-5.9,3.9-5.9,0C496.6,306.2,502.5,306.2,502.5,310.1z"
				/>
		</g>
	</g>
	<g>
		<g>
			<g>
				<path class="st3" d="M664.4,422.8c-19.3,0-35.1-15.7-35.1-35.1c0-19.3,15.7-35.1,35.1-35.1c19.3,0,35.1,15.7,35.1,35.1
					C699.5,407,683.8,422.8,664.4,422.8z"/>
			</g>
		</g>
		<g>
			<g>
				<g>
					<path class="st6" d="M677.1,402.1h-4.5c-1,0-1.9-0.8-1.9-1.9v-4.5c0-1,0.8-1.9,1.9-1.9s1.9,0.8,1.9,1.9v2.6h2.6
						c1,0,1.9,0.8,1.9,1.9S678.1,402.1,677.1,402.1z M651.8,402.1c-1,0-1.9-0.8-1.9-1.9v-4.5c0-1,0.8-1.9,1.9-1.9h4.5
						c1,0,1.9,0.8,1.9,1.9s-0.8,1.9-1.9,1.9h-2.6v2.6C653.7,401.3,652.8,402.1,651.8,402.1z M677.1,381.4h-4.5c-1,0-1.9-0.8-1.9-1.9
						c0-1,0.8-1.9,1.9-1.9h2.6v-2.6c0-1,0.8-1.9,1.9-1.9s1.9,0.8,1.9,1.9v4.5C678.9,380.5,678.1,381.4,677.1,381.4z M656.3,381.4
						c-1,0-1.9-0.8-1.9-1.9v-2.6h-2.6c-1,0-1.9-0.8-1.9-1.9c0-1,0.8-1.9,1.9-1.9h4.5c1,0,1.9,0.8,1.9,1.9v4.5
						C658.1,380.5,657.3,381.4,656.3,381.4z"/>
				</g>
			</g>
			<g>
				<g>
					<path class="st6" d="M664.4,404.4c-5.6,0-10.8-2.8-13.9-7.5c-0.6-0.9-0.3-2,0.5-2.6c0.9-0.6,2-0.3,2.6,0.5
						c2.8,4.2,7.8,6.5,12.8,5.7c1-0.1,2,0.5,2.1,1.6c0.2,1-0.5,2-1.6,2.1C666.1,404.3,665.3,404.4,664.4,404.4z M672.6,401.9
						c-0.6,0-1.2-0.3-1.6-0.8c-0.6-0.9-0.3-2,0.5-2.6c3.7-2.4,5.8-6.5,5.8-10.9c0-0.7,0-1.3-0.1-1.9c-0.2-1,0.5-2,1.6-2.1
						c1-0.2,2,0.5,2.1,1.6c0.1,0.8,0.2,1.7,0.2,2.5c0,5.6-2.8,10.8-7.5,14C673.3,401.8,673,401.9,672.6,401.9z M649.8,391.8
						c-0.9,0-1.7-0.7-1.8-1.6c-0.1-0.8-0.2-1.7-0.2-2.5c0-5.6,2.8-10.8,7.5-13.9c0.9-0.6,2-0.3,2.6,0.5c0.6,0.9,0.3,2-0.5,2.6
						c-3.7,2.4-5.8,6.5-5.8,10.9c0,0.7,0,1.3,0.1,1.9c0.2,1-0.5,2-1.6,2.1C649.9,391.7,649.8,391.8,649.8,391.8z M676.8,381.4
						c-0.6,0-1.2-0.3-1.6-0.8c-2.4-3.7-6.5-5.8-10.9-5.8c-0.7,0-1.3,0-2,0.1c-1,0.2-2-0.5-2.1-1.6c-0.2-1,0.5-2,1.6-2.1
						c0.8-0.1,1.7-0.2,2.5-0.2c5.6,0,10.8,2.8,14,7.5c0.6,0.9,0.3,2-0.5,2.6C677.5,381.3,677.2,381.4,676.8,381.4z"/>
				</g>
			</g>
		</g>
	</g>
	<g>
		<path class="st2" d="M389,486.8l3.3-23.5h3.5l5.7,10.7l5.7-10.7h3.5l3.3,23.5h-4.5l-2.3-17.7l1.2,0.2l-7,12.5l-7-12.5l1.2-0.2
			l-2.3,17.6H389z"/>
		<path class="st2" d="M425.5,467.5h1.1l-6.8,19.3h-4.2l8.4-23.5h4.1l8.4,23.5h-4.2L425.5,467.5z M430.9,481.2h-9.8v-3.8h9.8V481.2z
			"/>
		<path class="st2" d="M439.1,486.8v-23.5h4.2l10,15.2v-15.2h4.3v23.5h-3.5l-10.7-16.1v16.1H439.1z"/>
		<path class="st2" d="M470.2,467.5h1.1l-6.8,19.3h-4.2l8.4-23.5h4.1l8.4,23.5H477L470.2,467.5z M475.7,481.2h-9.8v-3.8h9.8V481.2z"
			/>
		<path class="st2" d="M493.9,487.3c-2.5,0-4.6-0.5-6.4-1.5c-1.8-1-3.1-2.4-4.1-4.3s-1.4-4-1.4-6.5c0-2.5,0.5-4.6,1.6-6.4
			s2.5-3.2,4.3-4.3c1.8-1,4-1.5,6.4-1.5c1.2,0,2.4,0.1,3.6,0.4c1.1,0.3,2.1,0.6,2.9,1l-0.5,4.1c-0.8-0.4-1.8-0.7-2.8-1
			c-1-0.3-2.1-0.4-3.2-0.4c-1.7,0-3.2,0.3-4.3,1s-1.9,1.7-2.5,2.9c-0.5,1.2-0.8,2.6-0.8,4.1c0,1.6,0.3,3,0.8,4.2
			c0.5,1.2,1.4,2.2,2.4,2.9c1.1,0.7,2.4,1,4.1,1c0.5,0,1,0,1.6-0.1c0.5-0.1,1.1-0.2,1.7-0.3v-4.2h-3.2V475h7.5v10.5
			c-0.8,0.5-1.9,0.9-3.2,1.3C497,487.1,495.5,487.3,493.9,487.3z"/>
		<path class="st2" d="M505.7,486.8v-23.5h15v4.2h-10.6v5h8.3v4.2h-8.3v6h11v4.2H505.7z"/>
		<path class="st2" d="M523.7,486.8l3.3-23.5h3.5l5.7,10.7l5.7-10.7h3.5l3.3,23.5h-4.5l-2.3-17.7l1.2,0.2l-7,12.5l-7-12.5l1.2-0.2
			l-2.3,17.6H523.7z"/>
		<path class="st2" d="M552.6,486.8v-23.5h15v4.2H557v5h8.3v4.2H557v6h11v4.2H552.6z"/>
		<path class="st2" d="M571.7,486.8v-23.5h4.2l10,15.2v-15.2h4.3v23.5h-3.5L576,470.7v16.1H571.7z"/>
		<path class="st2" d="M600,486.8v-19.3h-6.6v-4.2H611v4.2h-6.6v19.3H600z"/>
		<path class="st2" d="M435.7,527.1v-23.5h4.3v23.5H435.7z"/>
		<path class="st2" d="M445.2,527.1v-23.5h4.2l10,15.2v-15.2h4.3v23.5h-3.5L449.5,511v16.1H445.2z"/>
		<path class="st2" d="M473.5,527.1v-19.3h-6.6v-4.2h17.6v4.2h-6.6v19.3H473.5z"/>
		<path class="st2" d="M487.5,527.1v-23.5h15v4.2h-10.6v5h8.3v4.2h-8.3v6h11v4.2H487.5z"/>
		<path class="st2" d="M506.6,527.1v-23.5h4.2l10,15.2v-15.2h4.3v23.5h-3.5L510.9,511v16.1H506.6z"/>
		<path class="st2" d="M534.9,527.1v-19.3h-6.6v-4.2h17.6v4.2h-6.6v19.3H534.9z"/>
		<path class="st2" d="M555.8,527.6c-1,0-1.9-0.1-2.9-0.3c-1-0.2-1.9-0.4-2.8-0.7c-0.9-0.3-1.5-0.5-2-0.8l0.5-4.6
			c0.8,0.4,1.6,0.7,2.5,1.1c0.9,0.3,1.7,0.6,2.6,0.8c0.9,0.2,1.8,0.3,2.7,0.3c1.1,0,2.1-0.2,2.8-0.7c0.7-0.4,1-1.1,1-2
			c0-0.7-0.2-1.3-0.6-1.7c-0.4-0.4-1-0.8-1.8-1.2c-0.8-0.3-1.8-0.7-3.1-1.2s-2.4-0.9-3.4-1.5c-1-0.6-1.8-1.3-2.4-2.1
			c-0.6-0.8-0.9-1.9-0.9-3.3c0-1.3,0.3-2.5,1-3.5c0.6-1,1.6-1.8,2.9-2.4c1.3-0.6,2.9-0.9,4.7-0.9c1.4,0,2.8,0.2,4.1,0.5
			c1.3,0.3,2.4,0.7,3.3,1l-0.4,4.4c-1.3-0.6-2.6-1-3.7-1.4c-1.2-0.3-2.3-0.5-3.5-0.5c-1.3,0-2.2,0.2-2.9,0.6c-0.7,0.4-1,1-1,1.9
			c0,0.7,0.2,1.2,0.6,1.6c0.4,0.4,0.9,0.7,1.6,1c0.7,0.3,1.6,0.6,2.5,0.9c1.7,0.5,3.1,1.1,4.3,1.8c1.2,0.6,2,1.4,2.6,2.3
			c0.6,0.9,0.9,2,0.9,3.4c0,0.7-0.1,1.4-0.3,2.2c-0.2,0.8-0.6,1.5-1.3,2.2c-0.6,0.7-1.5,1.3-2.7,1.7
			C559.4,527.3,557.8,527.6,555.8,527.6z"/>
	</g>
	<g>
		<g>
			<g>
				<g>
					<path class="st4" d="M716.9,579.8c-13,14.3-35.3,15.4-49.6,2.4c-14.3-13-15.4-35.3-2.4-49.6c13-14.3,35.3-15.4,49.6-2.4
						C728.9,543.2,729.9,565.5,716.9,579.8z"/>
				</g>
			</g>
		</g>
		<g>
			<path class="st6" d="M704.8,547.3c-0.5,0-0.9,0.1-1.3,0.3c-0.4,0.2-0.7,0.5-1,0.9s-0.4,0.8-0.5,1.3c-0.1,0.5,0,0.9,0.2,1.3
				l-5.9,5.9c-0.7-0.3-1.4-0.3-2,0l-4.2-4.2c0.2-0.4,0.2-0.9,0.2-1.3c-0.1-0.5-0.2-0.9-0.5-1.3c-0.3-0.4-0.6-0.7-1-0.9
				c-0.4-0.2-0.8-0.3-1.3-0.3c-0.5,0-0.9,0.1-1.3,0.3c-0.4,0.2-0.7,0.5-1,0.9c-0.3,0.4-0.4,0.8-0.5,1.3c-0.1,0.5,0,0.9,0.2,1.3l-7,7
				c-0.6-0.2-1.3-0.3-1.9-0.1c-0.6,0.2-1.1,0.6-1.5,1.1c-0.4,0.5-0.5,1.2-0.4,1.8c0.1,0.6,0.3,1.2,0.8,1.7c0.5,0.5,1,0.7,1.7,0.8
				s1.3-0.1,1.8-0.4c0.5-0.4,0.9-0.9,1.1-1.5s0.2-1.3-0.1-1.9l7-7c0.7,0.3,1.4,0.3,2,0l4.2,4.2c-0.2,0.4-0.2,0.9-0.2,1.3
				c0.1,0.5,0.2,0.9,0.5,1.3c0.3,0.4,0.6,0.7,1,0.9c0.4,0.2,0.8,0.3,1.3,0.3c0.5,0,0.9-0.1,1.3-0.3c0.4-0.2,0.7-0.5,1-0.9
				c0.3-0.4,0.4-0.8,0.5-1.3c0.1-0.5,0-0.9-0.2-1.3l5.9-5.9c0.4,0.1,0.8,0.2,1.2,0.2c0.4,0,0.8-0.1,1.2-0.3c0.4-0.2,0.7-0.5,0.9-0.8
				c0.2-0.3,0.4-0.7,0.5-1.1c0.1-0.4,0.1-0.8,0-1.2c-0.1-0.4-0.3-0.8-0.6-1.1c-0.3-0.3-0.6-0.6-1-0.7
				C705.7,547.3,705.3,547.3,704.8,547.3z"/>
		</g>
	</g>
	<g>
		<g>
			<g>
				<g>
					<path class="st5" d="M601.8,717.5c-18.2,6.5-38.3-3-44.8-21.2c-6.5-18.2,3-38.3,21.2-44.8c18.2-6.5,38.3,3,44.8,21.2
						C629.5,690.9,620,711,601.8,717.5z"/>
				</g>
			</g>
		</g>
		<g>
			<g>
				<path class="st6" d="M585,684.5c-0.5,0-0.9-0.2-1.2-0.5c-0.3-0.3-0.5-0.7-0.5-1.2c0-0.5,0.2-0.9,0.5-1.2
					c0.3-0.3,0.7-0.5,1.2-0.5h10c0.5,0,0.9,0.2,1.2,0.5c0.3,0.3,0.5,0.7,0.5,1.2c0,0.5-0.2,0.9-0.5,1.2c-0.3,0.3-0.7,0.5-1.2,0.5
					H585z M585,677.8c-0.5,0-0.9-0.2-1.2-0.5c-0.3-0.3-0.5-0.7-0.5-1.2c0-0.5,0.2-0.9,0.5-1.2c0.3-0.3,0.7-0.5,1.2-0.5h10
					c0.5,0,0.9,0.2,1.2,0.5c0.3,0.3,0.5,0.7,0.5,1.2c0,0.5-0.2,0.9-0.5,1.2c-0.3,0.3-0.7,0.5-1.2,0.5H585z M580,687.8h12.5
					c0.8,0,1.6,0.2,2.3,0.5c0.7,0.3,1.3,0.8,1.8,1.5l3.5,4.6v-23.3l-20,0V687.8z M580,697.8h18.4l-4.5-6c-0.2-0.2-0.4-0.4-0.6-0.5
					c-0.2-0.1-0.5-0.2-0.8-0.2H580V697.8z M600,701.2h-20c-0.9,0-1.7-0.3-2.4-1c-0.7-0.7-1-1.4-1-2.4v-26.7c0-0.9,0.3-1.7,1-2.4
					c0.7-0.7,1.4-1,2.4-1h20c0.9,0,1.7,0.3,2.4,1c0.7,0.7,1,1.4,1,2.4v26.7c0,0.9-0.3,1.7-1,2.4C601.7,700.9,600.9,701.2,600,701.2z
					"/>
			</g>
		</g>
	</g>
	<g>
		<g>
			<g>
				<path class="st1" d="M401.9,719.4c-19.3,0-34.9-15.7-34.9-34.9c0-19.3,15.7-34.9,34.9-34.9c19.3,0,34.9,15.7,34.9,34.9
					C436.8,703.8,421.1,719.4,401.9,719.4z"/>
			</g>
		</g>
		<g>
			<g>
				<path class="st6" d="M409.7,678.1l6-6c0.3-0.3,0.7-0.5,1.2-0.5c0.4,0,0.8,0.2,1.2,0.5c0.3,0.3,0.5,0.7,0.5,1.2
					c0,0.4-0.2,0.8-0.5,1.2l-7.1,7.2c-0.3,0.3-0.7,0.5-1.2,0.5s-0.8-0.2-1.2-0.5l-3.6-3.6c-0.3-0.3-0.5-0.7-0.5-1.2
					c0-0.5,0.2-0.9,0.5-1.2s0.7-0.5,1.2-0.5c0.5,0,0.9,0.2,1.2,0.5L409.7,678.1z M386.9,679.5c-0.5,0-0.9-0.2-1.2-0.5
					c-0.3-0.3-0.5-0.7-0.5-1.2c0-0.5,0.2-0.9,0.5-1.2c0.3-0.3,0.7-0.5,1.2-0.5h11.8c0.5,0,0.9,0.2,1.2,0.5c0.3,0.3,0.5,0.7,0.5,1.2
					c0,0.5-0.2,0.9-0.5,1.2c-0.3,0.3-0.7,0.5-1.2,0.5H386.9z M410.5,693.7l-3.2,3.2c-0.3,0.3-0.7,0.5-1.2,0.5
					c-0.5,0-0.9-0.2-1.2-0.5c-0.3-0.3-0.5-0.7-0.5-1.2s0.2-0.9,0.5-1.2l3.2-3.2l-3.2-3.2c-0.3-0.3-0.5-0.7-0.5-1.2
					c0-0.5,0.2-0.9,0.5-1.2s0.7-0.5,1.2-0.5c0.5,0,0.9,0.2,1.2,0.5l3.2,3.2l3.2-3.2c0.3-0.3,0.7-0.5,1.2-0.5s0.9,0.2,1.2,0.5
					c0.3,0.3,0.5,0.7,0.5,1.2c0,0.5-0.2,0.9-0.5,1.2l-3.2,3.2l3.2,3.2c0.3,0.3,0.5,0.7,0.5,1.2s-0.2,0.9-0.5,1.2
					c-0.3,0.3-0.7,0.5-1.2,0.5s-0.9-0.2-1.2-0.5L410.5,693.7z M386.9,693c-0.5,0-0.9-0.2-1.2-0.5c-0.3-0.3-0.5-0.7-0.5-1.2
					c0-0.5,0.2-0.9,0.5-1.2c0.3-0.3,0.7-0.5,1.2-0.5h11.8c0.5,0,0.9,0.2,1.2,0.5c0.3,0.3,0.5,0.7,0.5,1.2c0,0.5-0.2,0.9-0.5,1.2
					c-0.3,0.3-0.7,0.5-1.2,0.5H386.9z"/>
			</g>
		</g>
	</g>
	<g>
		<g>
			<g>
				<path class="st3" d="M288,588.5c-17.8-7.3-26.3-27.8-19-45.6c7.3-17.8,27.8-26.3,45.6-19s26.3,27.8,19,45.6
					C326.2,587.3,305.8,595.8,288,588.5z"/>
			</g>
		</g>
		<g>
			<g>
				<path class="st6" d="M301.3,572.8c-0.3,0-0.6,0-0.9-0.1c-0.3,0-0.5-0.1-0.7-0.2c-3.5-1.3-6.3-3.6-8.6-6.9s-3.3-7-3.3-11v-8
					c0-0.7,0.2-1.3,0.6-1.9c0.4-0.6,0.9-1,1.6-1.2l10.1-3.8c0.4-0.1,0.8-0.2,1.2-0.2s0.8,0.1,1.2,0.2l10.1,3.8
					c0.6,0.3,1.2,0.7,1.6,1.2c0.4,0.6,0.6,1.2,0.6,1.9v8c0,4-1.1,7.7-3.3,11s-5.1,5.6-8.6,6.9c-0.2,0.1-0.5,0.1-0.7,0.2
					C301.9,572.8,301.6,572.8,301.3,572.8z M301.3,569.5c2.7-0.8,5-2.5,6.8-5c1.8-2.5,2.9-5.3,3.2-8.3h-10v-13.3l-10.1,3.8v8.7
					c0,0.2,0,0.5,0.1,0.8h10L301.3,569.5z"/>
			</g>
		</g>
	</g>
	<g>
		<g>
			<g>
				<g>
					<path class="st4" d="M309.8,412.6c-13.7-13.5-13.9-35.7-0.4-49.4c13.5-13.7,35.7-13.9,49.4-0.4c13.7,13.5,13.9,35.7,0.4,49.4
						C345.7,425.9,323.6,426.1,309.8,412.6z"/>
				</g>
			</g>
		</g>
		<g>
			<g>
				<path class="st6" d="M344.3,404.3c-1.4,0-2.6-0.5-3.5-1.5c-1-1-1.5-2.1-1.5-3.5c0-0.2,0-0.4,0-0.6c0-0.2,0.1-0.4,0.1-0.6
					l-11.7-6.8c-0.5,0.4-1,0.7-1.6,1c-0.6,0.2-1.2,0.4-1.8,0.4c-1.4,0-2.6-0.5-3.5-1.5c-1-1-1.5-2.1-1.5-3.5c0-1.4,0.5-2.6,1.5-3.5
					s2.1-1.5,3.5-1.5c0.6,0,1.2,0.1,1.8,0.4c0.6,0.2,1.1,0.6,1.6,1l11.7-6.8c-0.1-0.2-0.1-0.4-0.1-0.6c0-0.2,0-0.4,0-0.6
					c0-1.4,0.5-2.6,1.5-3.5s2.1-1.5,3.5-1.5c1.4,0,2.6,0.5,3.5,1.5c1,1,1.5,2.1,1.5,3.5c0,1.4-0.5,2.6-1.5,3.5c-1,1-2.1,1.5-3.5,1.5
					c-0.6,0-1.2-0.1-1.8-0.4c-0.6-0.2-1.1-0.6-1.6-1l-11.7,6.8c0.1,0.2,0.1,0.4,0.1,0.6s0,0.4,0,0.6c0,0.2,0,0.4,0,0.6
					s-0.1,0.4-0.1,0.6l11.7,6.8c0.5-0.4,1-0.7,1.6-1s1.2-0.4,1.8-0.4c1.4,0,2.6,0.5,3.5,1.5s1.5,2.1,1.5,3.5c0,1.4-0.5,2.6-1.5,3.5
					C346.9,403.8,345.7,404.3,344.3,404.3z"/>
			</g>
		</g>
	</g>
	<g>
		<path class="st6" d="M469.5,101.5c2.9,0,5.3-1.2,7.2-3.5l3.8,3.9c-3,3.4-6.6,5.1-10.7,5.1c-4.1,0-7.5-1.3-10.1-3.9
			c-2.7-2.6-4-5.9-4-9.8c0-3.9,1.4-7.2,4.1-9.9c2.7-2.6,6-4,9.9-4c4.4,0,8,1.7,11,5l-3.7,4.2c-1.9-2.3-4.2-3.5-7-3.5
			c-2.2,0-4.1,0.7-5.7,2.2c-1.6,1.5-2.4,3.4-2.4,5.9c0,2.5,0.7,4.5,2.2,6C465.6,100.7,467.4,101.5,469.5,101.5z"/>
		<path class="st6" d="M505.1,83.6c2.8,2.3,4.2,5.5,4.2,9.7c0,4.1-1.4,7.4-4.1,9.8c-2.7,2.4-6.9,3.6-12.4,3.6h-10V80.1h10.3
			C498.3,80.1,502.3,81.3,505.1,83.6z M500.3,99.4c1.7-1.4,2.5-3.4,2.5-6c0-2.6-0.8-4.6-2.5-6c-1.7-1.4-4.2-2.1-7.6-2.1h-3.8v16.2
			h4.3C496.3,101.5,498.7,100.8,500.3,99.4z"/>
		<path class="st6" d="M535.8,90l-7.2,14.5h-3.5L517.9,90v16.7H512V80.1h8l6.8,14.6l6.9-14.6h8v26.6h-5.9V90z"/>
		<path class="st6" d="M557.8,101.5c2.9,0,5.3-1.2,7.2-3.5l3.8,3.9c-3,3.4-6.6,5.1-10.7,5.1c-4.1,0-7.5-1.3-10.1-3.9
			c-2.7-2.6-4-5.9-4-9.8c0-3.9,1.4-7.2,4.1-9.9c2.7-2.6,6-4,9.9-4c4.4,0,8,1.7,11,5l-3.7,4.2c-1.9-2.3-4.2-3.5-7-3.5
			c-2.2,0-4.1,0.7-5.7,2.2c-1.6,1.5-2.4,3.4-2.4,5.9c0,2.5,0.7,4.5,2.2,6C553.9,100.7,555.7,101.5,557.8,101.5z"/>
		<g>
			<path class="st6" d="M512.1,118.5c-0.3-0.2-0.7-0.3-1.1-0.3c-0.4,0-0.8,0.1-1.1,0.3c-0.3,0.2-0.6,0.4-0.7,0.8
				c-0.2,0.3-0.3,0.7-0.3,1.2c0,0.4,0.1,0.8,0.3,1.2c0.2,0.3,0.4,0.6,0.7,0.8c0.6,0.4,1.5,0.3,2.1,0c0.3-0.2,0.6-0.4,0.7-0.8
				c0.2-0.3,0.3-0.7,0.3-1.2c0-0.4-0.1-0.8-0.3-1.2C512.7,119,512.4,118.7,512.1,118.5z"/>
			<path class="st6" d="M482.7,116.9h-1.1v5.2h1.2c0.9,0,1.5-0.2,2-0.7c0.5-0.4,0.7-1.1,0.7-1.9s-0.2-1.5-0.7-1.9
				C484.4,117.1,483.7,116.9,482.7,116.9z"/>
			<path class="st6" d="M542.2,109.3c-4,0-79.8,0-79.8,0h-15c0,0-12.1,0.4-12.1-12.2c0-12.6,15.5-11.2,15.5-11.2s-3.9-12.2,5.8-19.7
				c3.1-2.4,6.8-3.6,10.6-3.7c5.8-0.1,14.6,2.1,18.3,15.1c0,0,8.3-14.6,28.2-0.6c0,0-7.4-18.4-26-9.3c0,0-9.3-17-29.4-9.4
				c-15.6,6.7-14.1,21.8-14.1,21.8s-14.7,3.5-14.7,17.2s10.1,18,18.1,18c8.1,0,15.6,0.1,15.6,0.1h2.2c0,0,1,0.2,1,1.4
				c0,1.2,0,6.9,0,6.9s-0.2,4.8,5.8,4.8s70.5,0,70.5,0s4.2-0.2,4.2-5c0-4.8,0-9.6,0-9.6S546.2,109.3,542.2,109.3z M478,123.8h-6.3
				v-8.6h6.2v1.7h-4.3v1.8h3.8v1.6h-3.8v1.8h4.4V123.8z M486.3,122.6c-0.8,0.8-2,1.2-3.7,1.2h-2.9v-8.6h3c1.5,0,2.7,0.4,3.5,1.1
				c0.8,0.7,1.2,1.8,1.2,3.1C487.5,120.8,487.1,121.8,486.3,122.6z M498.7,123.8h-1.9v-5.4l-2.3,4.7h-1.1l-2.3-4.7v5.4h-1.9v-8.6
				h2.6l2.2,4.7l2.2-4.7h2.6V123.8z M507.5,122.6c-0.4,0.4-0.9,0.8-1.5,1c-0.6,0.2-1.2,0.3-1.8,0.3c-0.7,0-1.3-0.1-1.9-0.3
				c-0.6-0.2-1.1-0.5-1.5-1c-0.4-0.4-0.8-0.9-1-1.5c-0.2-0.6-0.4-1.2-0.4-1.8c0-0.7,0.1-1.3,0.4-1.8c0.2-0.6,0.6-1,1-1.5
				c0.4-0.4,0.9-0.7,1.5-1c1.1-0.4,2.5-0.5,3.7,0c0.6,0.2,1.1,0.6,1.5,1l0.2,0.2l-1,1l-0.2-0.2c-0.3-0.3-0.7-0.6-1-0.7
				c-0.8-0.3-1.8-0.3-2.6,0c-0.4,0.2-0.7,0.4-1,0.7c-0.3,0.3-0.5,0.6-0.7,1c-0.2,0.4-0.2,0.8-0.2,1.3c0,0.5,0.1,0.9,0.2,1.3
				c0.2,0.4,0.4,0.7,0.7,1c0.3,0.3,0.6,0.5,1,0.7c0.8,0.3,1.8,0.3,2.6,0c0.4-0.1,0.7-0.4,1-0.7l0.2-0.2l1,1L507.5,122.6z
				 M514.1,122.3c-0.3,0.5-0.7,1-1.3,1.3c-0.5,0.3-1.1,0.5-1.8,0.5c-0.7,0-1.3-0.2-1.8-0.5c-0.5-0.3-1-0.7-1.3-1.3
				c-0.3-0.5-0.5-1.1-0.5-1.8c0-0.7,0.2-1.3,0.5-1.8c0.3-0.5,0.7-0.9,1.3-1.2c0.5-0.3,1.1-0.4,1.8-0.4c0.7,0,1.3,0.2,1.8,0.4
				c0.5,0.3,1,0.7,1.3,1.2c0.3,0.5,0.5,1.1,0.5,1.8C514.6,121.1,514.4,121.7,514.1,122.3z M521.8,123.9h-1.4v-0.6
				c-0.1,0.1-0.2,0.2-0.4,0.3c-0.5,0.3-1,0.4-1.6,0.4c-0.6,0-1.1-0.1-1.5-0.3c-0.5-0.2-0.8-0.6-1.1-1c-0.2-0.4-0.4-1-0.4-1.6v-4h1.4
				v3.9c0,0.6,0.1,1,0.4,1.3c0.3,0.3,0.7,0.4,1.2,0.4c0.4,0,0.7-0.1,1-0.2c0.3-0.2,0.5-0.4,0.6-0.7c0.2-0.3,0.2-0.7,0.2-1.1V117h1.4
				V123.9z M529.8,123.9h-1.4V120c0-0.6-0.1-1-0.4-1.3c-0.3-0.3-0.7-0.4-1.2-0.4c-0.4,0-0.7,0.1-1,0.2c-0.3,0.2-0.5,0.4-0.7,0.7
				c-0.2,0.3-0.2,0.7-0.2,1.1v3.6h-1.4V117h1.4v0.7c0.1-0.1,0.3-0.2,0.4-0.3c0.5-0.3,1.1-0.4,1.7-0.4c0.6,0,1.1,0.1,1.5,0.3
				c0.4,0.2,0.8,0.6,1,1c0.2,0.4,0.4,1,0.4,1.7V123.9z M536.9,122.6c-0.3,0.5-0.7,0.8-1.1,1c-0.5,0.2-1,0.3-1.6,0.3
				c-0.7,0-1.3-0.2-1.8-0.5c-0.5-0.3-1-0.7-1.3-1.3c-0.3-0.5-0.5-1.1-0.5-1.8c0-0.7,0.2-1.3,0.5-1.8c0.3-0.5,0.7-0.9,1.3-1.2
				c0.5-0.3,1.1-0.4,1.8-0.4c0.6,0,1.1,0.1,1.6,0.3c0.5,0.2,0.9,0.6,1.1,1.1l0.1,0.2l-1.1,0.7l-0.2-0.2c-0.2-0.3-0.4-0.5-0.7-0.6
				c-0.6-0.3-1.4-0.3-2,0.1l0,0c-0.3,0.2-0.6,0.4-0.7,0.8c-0.2,0.3-0.3,0.7-0.3,1.2c0,0.4,0.1,0.8,0.3,1.2c0.2,0.3,0.4,0.6,0.7,0.8
				c0.6,0.3,1.4,0.4,2,0.1c0.3-0.1,0.5-0.3,0.7-0.6l0.2-0.2l1.1,0.7L536.9,122.6z M539.2,123.9h-1.4V117h1.4V123.9z M539.1,115.9
				c-0.2,0.2-0.4,0.3-0.7,0.3c-0.3,0-0.5-0.1-0.6-0.3c-0.2-0.2-0.3-0.4-0.3-0.6c0-0.2,0.1-0.5,0.3-0.6c0.4-0.3,0.9-0.3,1.3,0
				c0.2,0.2,0.3,0.4,0.3,0.6C539.4,115.5,539.3,115.7,539.1,115.9z M542.2,123.9h-1.4v-9.5h1.4V123.9z"/>
		</g>
	</g>
	<g>
		<polygon class="st6" points="904.1,436.9 906.1,442 911.6,442.4 907.8,446.1 908.9,452.1 904.1,448.5 899.3,451.8 900.3,446.1 
			896.5,442.4 902.1,442 		"/>
		<polygon class="st6" points="933.5,444.5 935.5,449.6 941,450 937.2,453.7 938.2,459.6 933.5,456 928.7,459.4 929.7,453.7 
			925.9,450 931.5,449.6 		"/>
		<polygon class="st6" points="954.4,466.3 956.4,471.3 961.9,471.8 958.1,475.4 959.2,481.4 954.4,477.8 949.6,481.2 950.6,475.4 
			946.8,471.8 952.4,471.4 		"/>
		<polygon class="st6" points="962.8,495.7 964.8,500.8 970.4,501.2 966.6,504.9 967.6,510.8 962.8,507.2 958.1,510.6 959.1,504.9 
			955.3,501.2 960.9,500.8 		"/>
		<polygon class="st6" points="845.4,495.7 847.4,500.8 852.9,501.2 849.2,504.9 850.2,510.8 845.4,507.2 840.7,510.6 841.6,504.9 
			837.9,501.2 843.5,500.8 		"/>
		<polygon class="st6" points="853.7,466.3 855.7,471.3 861.3,471.8 857.5,475.4 858.5,481.4 853.7,477.8 849,481.2 849.9,475.4 
			846.2,471.8 851.8,471.4 		"/>
		<polygon class="st6" points="954.4,525.1 956.4,530.2 961.9,530.6 958.2,534.3 959.2,540.2 954.4,536.6 949.7,540 950.6,534.3 
			946.9,530.6 952.5,530.2 		"/>
		<polygon class="st6" points="853.7,525.1 855.7,530.2 861.3,530.6 857.5,534.3 858.5,540.2 853.7,536.6 849,540 850,534.3 
			846.2,530.6 851.8,530.2 		"/>
		<polygon class="st6" points="874.6,444.5 876.6,449.6 882.1,450 878.3,453.7 879.4,459.6 874.6,456 869.8,459.4 870.8,453.7 
			867,450 872.6,449.6 		"/>
		<polygon class="st6" points="904.1,553.2 906.1,558.3 911.6,558.7 907.8,562.4 908.9,568.4 904.1,564.8 899.3,568.1 900.3,562.4 
			896.5,558.7 902.1,558.3 		"/>
		<polygon class="st6" points="933.5,545.4 935.5,550.4 941,550.8 937.2,554.5 938.2,560.5 933.5,556.9 928.7,560.2 929.7,554.5 
			925.9,550.8 931.5,550.4 		"/>
		<polygon class="st6" points="874.6,545.4 876.6,550.4 882.1,550.8 878.3,554.5 879.4,560.5 874.6,556.9 869.8,560.2 870.8,554.5 
			867,550.8 872.6,550.4 		"/>
		<g>
			<path class="st6" d="M880.1,499.3v-1.7c0-1.3-1.1-2-2.7-2c-1.6,0-2.7,0.7-2.7,2v11.2c0,1.3,1.1,2,2.7,2c1.6,0,2.7-0.7,2.7-2v-3.7
				h-2.7v-2.9h7.2v6.6c0,3-2.9,5-7.2,5c-4.3,0-7.2-2-7.2-5v-11.2c0-3,2.9-5,7.2-5c4.3,0,7.2,2,7.2,5v1.7H880.1z"/>
			<path class="st6" d="M888.9,492.8h7c4.3,0,7,1.9,7,4.9v10.8c0,3-2.7,4.9-7,4.9h-7V492.8z M895.6,510.5c1.7,0,2.7-0.7,2.7-1.9
				v-10.9c0-1.2-1-1.9-2.7-1.9h-2.3v14.7H895.6z"/>
			<path class="st6" d="M907.3,492.8h7c4.3,0,7,1.9,7,4.9v2.4c0,3-2.7,4.9-7,4.9h-2.5v8.4h-4.5V492.8z M914.1,502.2
				c1.7,0,2.7-0.7,2.7-1.9v-2.5c0-1.2-1-1.9-2.7-1.9h-2.3v6.4H914.1z"/>
			<path class="st6" d="M935,513.5l-3.2-8.5h-2.3v8.5H925v-20.6h7c4.3,0,7,1.9,7,4.9v2.3c0,1.9-1.1,3.4-3.1,4.2l3.7,9.2H935z
				 M929.5,502h2.3c1.7,0,2.7-0.7,2.7-1.9v-2.4c0-1.2-1-1.9-2.7-1.9h-2.3V502z"/>
		</g>
	</g>
	<g>
		<g>
			<path class="st6" d="M507.8,943.2c-0.4-0.1-1.1-0.2-2.3-0.2h-1.4v4.2h1.5c1,0,1.7-0.1,2.1-0.2c0.4-0.1,0.7-0.4,0.9-0.7
				c0.2-0.3,0.4-0.7,0.4-1.2c0-0.5-0.1-0.9-0.4-1.2C508.5,943.6,508.2,943.3,507.8,943.2z"/>
			<polygon class="st6" points="516.4,949.5 520.2,949.5 518.3,944 			"/>
			<path class="st6" d="M499.5,848.5c-32.5,0-58.8,26.3-58.8,58.8c0,32.5,26.3,58.8,58.8,58.8c32.5,0,58.8-26.3,58.8-58.8
				C558.3,874.8,532,848.5,499.5,848.5z M483,954.4c-1,0.8-2.2,1.1-3.6,1.1c-1.8,0-3.3-0.6-4.4-1.8c-1.3-1.4-1.9-3.3-1.9-5.7
				c0-2.5,0.6-4.5,1.9-5.9c1.1-1.2,2.6-1.8,4.5-1.8c1.5,0,2.8,0.5,3.9,1.4c0.7,0.7,1.3,1.6,1.6,2.9l-2.8,0.7
				c-0.2-0.8-0.5-1.4-1.1-1.8c-0.5-0.4-1.1-0.6-1.9-0.6c-1,0-1.9,0.4-2.5,1.2c-0.6,0.8-1,2.1-1,3.8c0,1.9,0.3,3.2,0.9,4
				c0.6,0.8,1.4,1.2,2.4,1.2c0.7,0,1.4-0.2,1.9-0.7c0.5-0.5,0.9-1.3,1.2-2.4l2.7,0.9C484.7,952.4,484,953.6,483,954.4z M496.9,954.4
				c-1,0.8-2.2,1.1-3.6,1.1c-1.8,0-3.3-0.6-4.4-1.8c-1.3-1.4-1.9-3.3-1.9-5.7c0-2.5,0.6-4.5,1.9-5.9c1.1-1.2,2.6-1.8,4.5-1.8
				c1.5,0,2.8,0.5,3.9,1.4c0.7,0.7,1.3,1.6,1.6,2.9l-2.8,0.7c-0.2-0.8-0.5-1.4-1.1-1.8c-0.5-0.4-1.1-0.6-1.9-0.6
				c-1,0-1.9,0.4-2.5,1.2c-0.6,0.8-1,2.1-1,3.8c0,1.9,0.3,3.2,0.9,4c0.6,0.8,1.4,1.2,2.4,1.2c0.7,0,1.4-0.2,1.9-0.7
				c0.5-0.5,0.9-1.3,1.2-2.4l2.7,0.9C498.6,952.4,497.9,953.6,496.9,954.4z M509.6,949.3c-0.7,0.3-1.9,0.4-3.6,0.4h-1.8v5.6h-2.8
				v-14.7h4.5c1.7,0,2.8,0.1,3.3,0.2c0.8,0.2,1.5,0.7,2,1.5c0.5,0.7,0.8,1.7,0.8,2.9c0,1.1-0.2,2-0.7,2.7
				C510.8,948.5,510.3,949,509.6,949.3z M522.3,955.3l-1.2-3.3h-5.5l-1.1,3.3h-3l5.4-14.7h3l5.5,14.7H522.3z"/>
		</g>
		<g>
			<g>
				<path class="st6" d="M499.5,848.5c-32.5,0-58.8,26.3-58.8,58.8c0,32.5,26.3,58.8,58.8,58.8c32.5,0,58.8-26.3,58.8-58.8
					C558.3,874.8,532,848.5,499.5,848.5z M483,954.4c-1,0.8-2.2,1.1-3.6,1.1c-1.8,0-3.3-0.6-4.4-1.8c-1.3-1.4-1.9-3.3-1.9-5.7
					c0-2.5,0.6-4.5,1.9-5.9c1.1-1.2,2.6-1.8,4.5-1.8c1.5,0,2.8,0.5,3.9,1.4c0.7,0.7,1.3,1.6,1.6,2.9l-2.8,0.7
					c-0.2-0.8-0.5-1.4-1.1-1.8c-0.5-0.4-1.1-0.6-1.9-0.6c-1,0-1.9,0.4-2.5,1.2c-0.6,0.8-1,2.1-1,3.8c0,1.9,0.3,3.2,0.9,4
					c0.6,0.8,1.4,1.2,2.4,1.2c0.7,0,1.4-0.2,1.9-0.7c0.5-0.5,0.9-1.3,1.2-2.4l2.7,0.9C484.7,952.4,484,953.6,483,954.4z
					 M496.9,954.4c-1,0.8-2.2,1.1-3.6,1.1c-1.8,0-3.3-0.6-4.4-1.8c-1.3-1.4-1.9-3.3-1.9-5.7c0-2.5,0.6-4.5,1.9-5.9
					c1.1-1.2,2.6-1.8,4.5-1.8c1.5,0,2.8,0.5,3.9,1.4c0.7,0.7,1.3,1.6,1.6,2.9l-2.8,0.7c-0.2-0.8-0.5-1.4-1.1-1.8
					c-0.5-0.4-1.1-0.6-1.9-0.6c-1,0-1.9,0.4-2.5,1.2c-0.6,0.8-1,2.1-1,3.8c0,1.9,0.3,3.2,0.9,4c0.6,0.8,1.4,1.2,2.4,1.2
					c0.7,0,1.4-0.2,1.9-0.7c0.5-0.5,0.9-1.3,1.2-2.4l2.7,0.9C498.6,952.4,497.9,953.6,496.9,954.4z M509.6,949.3
					c-0.7,0.3-1.9,0.4-3.6,0.4h-1.8v5.6h-2.8v-14.7h4.5c1.7,0,2.8,0.1,3.3,0.2c0.8,0.2,1.5,0.7,2,1.5s0.8,1.7,0.8,2.9
					c0,1.1-0.2,2-0.7,2.7C510.8,948.5,510.3,949,509.6,949.3z M522.3,955.3l-1.2-3.3h-5.5l-1.1,3.3h-3l5.4-14.7h3l5.5,14.7H522.3z
					 M516.4,949.5h3.8l-1.9-5.5L516.4,949.5z"/>
				<path class="st6" d="M507.8,943.2c-0.4-0.1-1.1-0.2-2.3-0.2h-1.4v4.2h1.5c1,0,1.7-0.1,2.1-0.2c0.4-0.1,0.7-0.4,0.9-0.7
					c0.2-0.3,0.4-0.7,0.4-1.2c0-0.5-0.1-0.9-0.4-1.2C508.5,943.6,508.2,943.3,507.8,943.2z"/>
			</g>
		</g>
		<path class="st5" d="M518.9,896.3v-20.8c0,0-1.7-17.8-19.4-17.8c-17.7,0-19.9,16.8-19.9,16.8v21.8c-4.3,6.8-6,15.2,0.1,25.6
			c3.3,6,11.4,10.9,19.7,10.5c9.1,0,14.9-4.1,19.5-10.5C528.6,908.4,518.9,896.3,518.9,896.3z M507.6,922.5l-0.2,0.6h-3.2l-0.1-1.4
			l-3.5-2.7l-1.4,0.1l-0.5-1.1l-2.5-0.2l-0.3-2.6l-2.5-2.6v-1.6l-1.3-1l-0.1-1.8l-2.7-3v-3.4l-1.1-1c0,0,0.2-1.5,0.5-2.7L488,896
			h9.8v8.8l12.8,12.1c0,0,0.8,1-0.2,3.2c-1,2.1,0.5,2.4,0.5,2.4H507.6z M513.4,890.4c0,0-10.2-10-27.5,0v-15.2
			c0,0,2.8-12.4,13.6-12.4c10.8,0,13.8,10.8,13.8,13.8S513.4,890.4,513.4,890.4z"/>
	</g>
	<g>
		<path class="st6" d="M49.7,499.5h0.8c0.7,0,1.3,0.1,1.7,0.3c0.4,0.2,0.7,0.5,0.9,0.8c0.1,0.3,0.2-0.2,0.2,1v6.7h-9.2v-6.7
			c0-1.2,0.1-0.7,0.2-1c0.2-0.4,0.5-0.7,0.8-0.8c0.5-0.2,1.1-0.4,1.8-0.4h0.9v-1.9H34.3v1.9h0.9c0.7,0,1.3,0.1,1.7,0.3
			c0.4,0.2,0.7,0.5,0.9,0.8c0.1,0.3,0.2-0.2,0.2,1v14.9c0,1.2-0.1,1.9-0.2,2.2c-0.2,0.4-0.4,0.7-0.8,0.8c-0.5,0.2-1.1,0.4-1.8,0.4
			h-0.9v1.7h13.6v-1.7H47c-0.7,0-1.3-0.1-1.7-0.3c-0.4-0.2-0.7-0.5-0.9-0.8c-0.1-0.3-0.2-1.1-0.2-2.3v-6.3h9.2v6.3
			c0,1.2-0.1,1.9-0.2,2.2c-0.2,0.4-0.5,0.7-0.8,0.8c-0.4,0.2-1.1,0.4-1.8,0.4h-0.8v1.7h13.9v-1.7h-0.8c-0.7,0-1.3-0.1-1.7-0.3
			c-0.4-0.2-0.7-0.5-0.9-0.8c-0.1-0.3-0.2-1.1-0.2-2.3v-14.9c0-1.2,0.1-0.7,0.2-1c0.2-0.4,0.5-0.7,0.8-0.8c0.4-0.2,1.1-0.4,1.8-0.4
			h0.8v-1.9H49.7V499.5z"/>
		<path class="st6" d="M102.3,499.4c-1.8-1.3-5.1-1.5-8.7-1.5h-11v1.6c1.1,0,1.9,0.1,2.4,0.3c0.4,0.2,0.7,0.5,0.9,0.8
			c0.2,0.3,0.3,1.1,0.3,2.4v13.4c0,1.3-0.1,2.1-0.3,2.4c-0.2,0.3-0.5,0.6-0.9,0.8s-1.2,0.3-2.4,0.3v1.6h12.8v-1.6
			c-1.1,0-1.9-0.1-2.3-0.3c-0.4-0.2-0.7-0.5-0.9-0.8c-0.2-0.3-0.3-1.1-0.3-2.4v-5.3c2.9,0,5,0,6.2-0.3c1.8-0.4,3.6-0.8,5-2.4
			c1.3-1.4,1.5-3.3,1.5-4.8C104.5,501.9,103.9,500.7,102.3,499.4z M97.1,508.3c-0.8,0.8-2.8,1.2-4.3,1.2c-0.2,0-0.5,0-0.9,0v-10.2
			h0.8c1.6,0,3.6,0.4,4.5,1.2s1.2,2.1,1.2,3.8C98.3,506.1,97.9,507.4,97.1,508.3z"/>
		<path class="st6" d="M157,519.8c-0.6-0.1-2.7-1.4-3.4-3.1l-7.7-19.3h-3.6l-8.4,18.7l-0.1,0.3c-0.7,1.5-0.9,2-1.4,2.5
			c-0.3,0.3-0.8,0.6-1.3,0.7c-0.8-0.4-2.4-1.6-3-3l-7.7-19.3h-3.6l-8.4,18.7l-0.1,0.3c-0.7,1.5-0.9,2-1.4,2.5
			c-0.5,0.5-1.6,0.9-2.4,1l-0.2,0v1.7h9.9V520l-0.2,0c-0.9-0.1-2.5-0.8-2.9-1.5c-0.1-0.2-0.2-0.4-0.1-0.5c0.1-0.4,1.3-3.3,1.6-4
			l7.4-0.1l1.6,3.9c0.2,0.5,0.2,1.3-0.1,1.8c-0.1,0.2-0.2,0.3-0.4,0.3h-2v1.9h10.7h1.9h8V520l-0.2,0c-0.9-0.1-2.5-0.8-2.9-1.5
			c-0.1-0.2-0.2-0.4-0.1-0.5c0.1-0.4,1.3-3.3,1.6-4l7.4-0.1l1.6,3.9c0.2,0.5,0.2,1.3-0.1,1.8c-0.1,0.2-0.2,0.3-0.4,0.3h-2v1.9h13
			v-1.9L157,519.8z M112.4,512.3l3.8-8.9l3.9,8.9L112.4,512.3z M137.9,512.3l3.8-8.9l3.9,8.9L137.9,512.3z"/>
		<ellipse transform="matrix(0.9732 -0.2298 0.2298 0.9732 -107.1011 29.2387)" class="st6" cx="72" cy="474.5" rx="2.3" ry="2.3"/>
		<path class="st6" d="M71.1,488.4c0.8,0.8,1.6,0,1.6,0v-11.3h-1.6L71.1,488.4z"/>
		<path class="st6" d="M72.7,496.6v-4.9h-1.6l0.1,4.9C71.9,497,72.7,496.6,72.7,496.6z"/>
		<path class="st6" d="M72.7,504.1v-4.6h-1.6l0.1,4.6C71.9,504.4,72.7,504.1,72.7,504.1z"/>
		<path class="st6" d="M72.7,511v-4.1h-1.6l0.1,4.1C71.9,511.3,72.7,511,72.7,511z"/>
		<path class="st6" d="M72.7,516.5v-2.8c0,0,0-0.6-0.8-0.6c-0.6,0-0.8,0.6-0.8,0.6v2.8C72,517.5,72.7,516.5,72.7,516.5z"/>
		<path class="st6" d="M71.8,522.2c0.6,0,0.8-0.4,0.8-0.4v-2.1c-0.2-0.8-1.7-0.8-1.7-0.8l0.1,2.8C71.1,521.7,71.2,522.2,71.8,522.2z
			"/>
		<path class="st6" d="M72.7,524.7c0-0.5-0.7-0.6-1.1-0.6c-0.5,0-0.5,0.4-0.5,0.4v6.4c0,0-0.1,0.6,0.8,0.6c0.9,0,0.8-0.8,0.8-0.8
			S72.7,525.2,72.7,524.7z"/>
		<path class="st6" d="M68.9,524.2c-0.3,0.5-0.4,1-0.3,1.6c0.3,1.4,1.5,1.5,1.5,1.5s-0.3-1.3-0.3-2c0-0.7,1.1-1.4,1.1-1.4l-1.1-0.6
			C69.6,523.4,69.2,523.7,68.9,524.2z"/>
		<path class="st6" d="M73.6,523c-0.8-0.4-3.3-0.6-3.9-1.7c-0.6-1.2,0.8-2.4,0.8-2.4l-1.2-0.5c0,0-1.6,1.5-0.7,3.4
			c0.9,1.9,3.4,1.7,4.9,2.5c1.5,0.8,0,3.1,0,3.1s1.3-0.2,1.6-1.7C75.3,524.1,74.4,523.4,73.6,523z"/>
		<path class="st6" d="M72.2,517.5c-0.9-0.2-3.2-0.7-3-2.5s1.8-1.9,1.8-1.9l-1.8-0.6c0,0-1.9,0.9-1.5,2.9c0.4,2,1.4,2.6,3,3.1
			c1.6,0.5,3.3,0.7,3.4,1.8c0,1.1-0.3,1.6-1.5,2.2l1.3,0.5c0,0,2-0.9,1.5-3S73.1,517.8,72.2,517.5z"/>
		<path class="st6" d="M73.2,511.7c-1.1-0.3-4.1-0.4-4-2.8c0-1.4,1.7-2.4,1.7-2.4l-2.2-0.8c0,0-1.8,1-1.4,3.3
			c0.4,2.3,1.5,2.9,3.2,3.4c1.7,0.5,4.2,0.6,4.2,2.3c0,1.7-2,2.4-2,2.4s1.4,0.2,1.9,0.7c0,0,1.9-0.5,1.6-3
			C75.8,512.3,74.3,512,73.2,511.7z"/>
		<path class="st6" d="M73.1,504.9c-3.3-0.8-4.1-1.4-4.1-3.1c0-1.3,1.7-2.5,1.7-2.5s-1.6-0.5-2-0.9c0,0-2.3,1.1-1.6,4
			c0.8,2.9,2.1,3.1,3.5,3.8c1.4,0.6,3.7,0.3,4.1,2.3c0.4,2-1.6,2.7-1.6,2.7s1.4,0.3,1.6,0.7c0,0,2-0.9,2-2.6
			C76.7,507.4,76.4,505.7,73.1,504.9z"/>
		<path class="st6" d="M72.8,497.4c-2.8-0.7-4-1-4-3.1c0-2.1,2.1-2.7,2.1-2.7l-2.9-0.6c0,0-1.9,1.3-1.5,4.2c0.4,2.9,3.1,3.4,4.3,3.7
			c1.1,0.3,3.9,0.6,4.2,2.3c0.3,1.7-0.3,2.5-2,3.3c0,0,1.7,0,2.4,0.5c0,0,1.8-1.1,1.7-3.3C76.9,499.3,75.6,498.1,72.8,497.4z"/>
		<path class="st6" d="M73,489.3c-1.2-0.3-5.9-1.1-6.9-1.3c-1-0.2-3.5-0.8-2.8-2s1.9,0.1,2.7,0.3c0.8,0.3,3.7,0.6,4.1-0.5
			c0.5-1.1-1.3-2.7-2.7-2.9c-1.4-0.2-6-0.4-6.7,2.6c-0.7,3,2.1,3.9,4.3,4.4c2.1,0.5,7.8,1.5,8.7,1.7c0.9,0.2,1.9,1.7,1.4,2.9
			c-0.5,1.3-2,2.4-2,2.4l2.4,0.7c0,0,2.2-1.2,2.1-4C77.4,490.9,74.1,489.6,73,489.3z"/>
		<path class="st6" d="M82.2,488.7c2.1-1.4,0.8-3.7,0.2-4.4c-0.6-0.7-2.4-2-5.8-1.3c-2,0.6-2.7,1.5-2.9,2.1c-0.1,0.5,0,1,0.4,1.2
			c0.5,0.3,1.3,0.5,2.9,0.3c1.4-0.2,2.2-1.1,2.2-1.1s1.5-0.2,1.4,0.9c0,1.1-3.1,1.7-7.4,2.5c0,0,1.8,0.7,2.9,1.5
			C76.3,490.4,80.1,490.1,82.2,488.7z"/>
		<path class="st6" d="M73,486.3v2c0,0.1,0.1,0.2,0.3,0.2l2.3-0.3c0.1,0,0.2-0.2,0.1-0.3C75.1,487.3,73.5,485.7,73,486.3z"/>
		<path class="st6" d="M76.6,487.9c0.9,0,0.8-0.9,0.8-0.9h-2.2C75.3,487,75.7,487.9,76.6,487.9z"/>
		<path class="st6" d="M77.7,487c0,0,0.2,0.6,1.3,0.5c1.1-0.2-0.5-0.8-0.5-0.8C77.8,486.5,77.7,487,77.7,487z"/>
		<path class="st6" d="M80.1,486.7c0.4-0.2,0-0.6-0.4-0.8c-0.5-0.1-0.9,0.5-0.9,0.5C79.1,486.8,79.7,487,80.1,486.7z"/>
		<path class="st6" d="M84,489.5c0.2-0.7-0.5-1.4-0.5-1.4l-1.7,1.7C81.8,489.8,83.7,490.3,84,489.5z"/>
		<path class="st6" d="M87.9,488.5c2.5-0.5-5-4.9-5-4.9s1.1,2,0.6,3.9C83.5,487.5,85.4,489,87.9,488.5z"/>
		<path class="st6" d="M91.3,484.7c-1.1-0.7-5-2.6-5-2.6s1.4,1,0.9,1.9c-0.5,0.9-1.8,0.7-1.8,0.7s2.6,2.1,5.2,2.3
			C93,487.2,92.4,485.4,91.3,484.7z"/>
		<path class="st6" d="M86.5,481.7c0,0,2.6,1.4,5,2.2c5.4,1.4,6.4-1.7,6.4-1.7s-1.9-0.4-3.6-0.9c-1.8-0.5-3.5-1-3.8-0.7
			C89.1,482.1,86.5,481.7,86.5,481.7z"/>
		<path class="st6" d="M73,483.7v2.2l0.4-0.1c0-1.1,0.4-1.6,1-1.9c1.7-1,1.9-1.1,2.2-1.5c0.2-0.2,0.3-0.5,0.3-0.8
			c0-1-0.1-4.1,0.2-5.1c0.3-1.3,2.5-1.4,2.5-1.4c-0.3-0.5-2.1-1.2-2.9,0.1c-0.9,1.3-0.8,2.2-0.7,5.4C75.4,483.7,73,483.7,73,483.7z"
			/>
		<path class="st6" d="M77,477.5c0,0.4,0.1,5,0.1,5H78l-0.1-0.9c0,0,0.5,0.9,1,0.9c2.3,0.1,4,1.9,4,1.9c-0.1-0.2-0.3-1.4-2.7-3.2
			c-2.4-1.7-1.7-1.8-1.7-1.8l5.3,4.3c3.2,1.6,3.4-0.2,2.8-0.9c-0.7-0.7-1.6-1.7-5-3.6c-3.5-1.9-2.9-2.1-2.9-2.1l7.5,4.3
			c4.7,0.2,4.5-1.8,4.5-1.8s-0.8,0.2-4.7-1s-4.8-2.7-5.7-3C77.4,475,77,477.1,77,477.5z"/>
		<path class="st6" d="M68.2,488.2l2.3,0.3c0.1,0,0.3-0.1,0.3-0.2v-2c-0.4-0.6-2.1,1-2.7,1.6C68,488,68.1,488.2,68.2,488.2z"/>
		<path class="st6" d="M68.5,487h-2.2c0,0-0.1,1,0.8,0.9C68.1,487.9,68.5,487,68.5,487z"/>
		<path class="st6" d="M64.8,487.5c1.1,0.2,1.3-0.5,1.3-0.5s-0.1-0.5-0.8-0.3C65.3,486.7,63.7,487.3,64.8,487.5z"/>
		<path class="st6" d="M64.2,486c-0.5,0.1-0.8,0.6-0.4,0.8c0.4,0.2,1,0,1.3-0.3C65,486.4,64.7,485.8,64.2,486z"/>
		<path class="st6" d="M59.9,489.5c0.2,0.7,2.2,0.2,2.2,0.2l-1.7-1.7C60.3,488.1,59.6,488.8,59.9,489.5z"/>
		<path class="st6" d="M55.9,488.5c2.5,0.5,4.4-1,4.4-1c-0.5-1.9,0.6-3.9,0.6-3.9S53.3,488,55.9,488.5z"/>
		<path class="st6" d="M57.5,482.1c0,0-3.9,1.9-5,2.6c-1.1,0.7-1.7,2.6,0.8,2.3c2.5-0.2,5.2-2.3,5.2-2.3s-1.4,0.2-1.8-0.7
			C56.2,483.1,57.5,482.1,57.5,482.1z"/>
		<path class="st6" d="M52.3,483.9c2.4-0.8,5-2.2,5-2.2s-2.6,0.4-3.9-1c-0.3-0.3-2,0.2-3.8,0.7c-1.8,0.5-3.6,0.9-3.6,0.9
			S47,485.4,52.3,483.9z"/>
		<path class="st6" d="M66.8,476.5c0.2,1,0.2,4.1,0.2,5.1c0,0.3,0.1,0.6,0.3,0.8c0.3,0.4,0.5,0.5,2.2,1.5c0.5,0.2,1,0.8,1,1.9
			l0.4,0.1v-2.2c0,0-2.4,0-2.9-3.1c0.1-3.2,0.2-4.1-0.7-5.4c-0.9-1.3-2.7-0.6-2.9-0.1C64.3,475.1,66.5,475.2,66.8,476.5z"/>
		<path class="st6" d="M57.6,481.4l7.5-4.3c0,0,0.6,0.2-2.9,2.1c-3.5,1.9-4.4,2.9-5,3.6c-0.7,0.7-0.4,2.5,2.8,0.9l5.3-4.3
			c0,0,0.7,0-1.7,1.8c-2.4,1.7-2.6,3-2.7,3.2c0,0,1.7-1.8,4-1.9c0.5,0,1-0.9,1-0.9l-0.1,0.9h0.9c0,0,0.1-4.6,0.1-5s-0.4-2.5-3.2-1.8
			c-0.9,0.2-1.8,1.8-5.7,3s-4.7,1-4.7,1S52.9,481.6,57.6,481.4z"/>
	</g>
</g>
</svg>
