<?xml version="1.0" encoding="utf-8"?>
<!-- Generator: Adobe Illustrator 27.8.0, SVG Export Plug-In . SVG Version: 6.00 Build 0)  -->
<svg version="1.1" id="Layer_1" xmlns="http://www.w3.org/2000/svg" xmlns:xlink="http://www.w3.org/1999/xlink" x="0px" y="0px"
	 viewBox="0 0 488 309" style="enable-background:new 0 0 488 309;" xml:space="preserve">
<style type="text/css">
	.st0{fill:#F1F2F2;}
	.st1{fill:#4D91FE;}
	.st2{fill:#939598;}
	.st3{fill:#FFBD35;}
	.st4{fill:#F65A27;}
	.st5{fill:#7DD882;}
	.st6{fill:#FFFFFF;}
</style>
<g>
	<path class="st0" d="M241.8,287.5c-17.8,0-35.1-3.5-51.4-10.4c-15.7-6.7-29.9-16.2-42-28.3c-12.1-12.1-21.7-26.3-28.3-42
		c-6.9-16.3-10.4-33.6-10.4-51.4s3.5-35.1,10.4-51.4c6.7-15.7,16.2-29.9,28.3-42c12.1-12.1,26.3-21.7,42-28.3
		c16.3-6.9,33.6-10.4,51.4-10.4s35.1,3.5,51.4,10.4c15.7,6.7,29.9,16.2,42,28.3c12.1,12.1,21.7,26.3,28.3,42
		c6.9,16.3,10.4,33.6,10.4,51.4s-3.5,35.1-10.4,51.4c-6.7,15.7-16.2,29.9-28.3,42c-12.1,12.1-26.3,21.7-42,28.3
		C276.9,284,259.6,287.5,241.8,287.5z M241.8,27.7c-70.4,0-127.6,57.3-127.6,127.6S171.4,283,241.8,283s127.6-57.3,127.6-127.6
		S312.1,27.7,241.8,27.7z"/>
</g>
<g>
	<path class="st0" d="M241.8,221.9c-17.8,0-34.5-6.9-47-19.5s-19.5-29.3-19.5-47s6.9-34.5,19.5-47s29.3-19.5,47-19.5
		s34.5,6.9,47,19.5s19.5,29.3,19.5,47s-6.9,34.5-19.5,47S259.5,221.9,241.8,221.9z M241.8,92.4c-34.7,0-63,28.3-63,63s28.3,63,63,63
		s63-28.3,63-63S276.5,92.4,241.8,92.4z"/>
</g>
<g>
	<circle class="st1" cx="241.8" cy="23.8" r="22.8"/>
</g>
<g>
	<path class="st2" d="M199,82.9l-4.8-8.8l5.4-3l0.9,1.6l-3.8,2.1l1,1.9l3-1.6l0.9,1.6l-3,1.6l2.1,3.8L199,82.9z"/>
	<path class="st2" d="M205.3,79.5l-4-9.2l3.4-1.5c0.6-0.3,1.2-0.4,1.8-0.4c0.6,0,1.1,0.1,1.5,0.4c0.4,0.3,0.8,0.8,1.1,1.4
		c0.3,0.7,0.4,1.3,0.3,1.8c-0.1,0.5-0.4,1-0.7,1.4l3.8,3l-1.9,0.8l-3.3-2.7c0,0,0,0,0,0s0,0,0,0l-1.6,0.7l1.5,3.4L205.3,79.5z
		 M204.9,73.9l1.2-0.5c0.7-0.3,1.1-0.7,1.3-1.1c0.1-0.4,0.1-0.8-0.1-1.3c-0.2-0.5-0.5-0.8-0.9-0.9c-0.4-0.1-0.9-0.1-1.6,0.2
		l-1.3,0.6L204.9,73.9z"/>
	<path class="st2" d="M213.6,67.4l0.5-0.1l-0.3,8.8l-1.7,0.5l0.4-10.7l1.7-0.5l6.5,8.5l-1.7,0.5L213.6,67.4z M217.6,72.3l-4,1.3
		l-0.5-1.5l4-1.3L217.6,72.3z"/>
	<path class="st2" d="M220.6,73.7l-0.5-10.1l1.5-0.3l3.3,4l1.5-5l1.5-0.3l3.3,9.6l-1.9,0.4l-2.4-7.2l0.5,0l-1.9,5.8l-3.9-4.7
		l0.5-0.2l0.5,7.6L220.6,73.7z"/>
	<path class="st2" d="M232.3,71.7l-0.8-10l6.4-0.5L238,63l-4.5,0.4l0.2,2.1l3.5-0.3l0.1,1.8l-3.5,0.3l0.2,2.6l4.7-0.4l0.1,1.8
		L232.3,71.7z"/>
	<path class="st2" d="M241.7,71.1l-2.4-10.2l1.9,0.1l1.7,7.2l2.6-7l1.3,0.1l2,7.1l2.2-6.9l1.9,0.1l-3.4,9.9l-1.6-0.1l-1.9-6.8
		l-2.5,6.6L241.7,71.1z"/>
	<path class="st2" d="M257.1,72.8c-0.9-0.2-1.7-0.5-2.4-1.1c-0.7-0.6-1.1-1.3-1.4-2.1c-0.3-0.8-0.3-1.8-0.1-2.8
		c0.2-1,0.6-1.9,1.1-2.6c0.6-0.7,1.3-1.2,2.1-1.5c0.8-0.3,1.7-0.3,2.6-0.2c0.9,0.2,1.7,0.5,2.4,1.1c0.7,0.6,1.1,1.3,1.4,2.1
		c0.3,0.8,0.3,1.8,0.1,2.8c-0.2,1-0.6,1.9-1.1,2.6c-0.6,0.7-1.3,1.2-2.1,1.5C258.9,73,258,73,257.1,72.8z M257.4,71.1
		c0.7,0.1,1.2,0.1,1.7-0.1c0.5-0.2,0.9-0.5,1.2-1c0.3-0.5,0.5-1,0.7-1.7c0.1-0.7,0.1-1.3,0-1.8c-0.1-0.6-0.4-1-0.8-1.4
		c-0.4-0.4-0.9-0.6-1.6-0.7c-0.7-0.1-1.2-0.1-1.7,0.1c-0.5,0.2-0.9,0.5-1.2,1c-0.3,0.5-0.5,1-0.7,1.7c-0.1,0.7-0.1,1.3,0,1.8
		c0.1,0.6,0.4,1,0.8,1.4C256.2,70.7,256.7,71,257.4,71.1z"/>
	<path class="st2" d="M263,73.9l2.9-9.6l3.5,1.1c0.7,0.2,1.2,0.5,1.6,0.8c0.4,0.4,0.7,0.8,0.9,1.3c0.1,0.5,0.1,1.1-0.1,1.8
		c-0.2,0.7-0.5,1.2-1,1.5c-0.4,0.3-0.9,0.5-1.5,0.6l0.9,4.7l-2-0.6l-0.8-4.1c0,0,0,0,0,0s0,0,0,0l-1.7-0.5l-1.1,3.6L263,73.9z
		 M266.3,69.4l1.3,0.4c0.7,0.2,1.3,0.2,1.6,0c0.4-0.2,0.6-0.5,0.8-1c0.1-0.5,0.1-0.9-0.1-1.3c-0.2-0.4-0.6-0.6-1.3-0.9l-1.4-0.4
		L266.3,69.4z"/>
	<path class="st2" d="M271.1,76.5l3.9-9.3l1.7,0.7l-3.9,9.3L271.1,76.5z M276.3,78.7l-1.4-6.3l5.3-2.9l2,0.8l-5.3,2.9l1.4,6.4
		L276.3,78.7z"/>
	<path class="st2" d="M281.3,81.4c-0.4-0.2-0.7-0.4-1.1-0.7s-0.7-0.5-0.9-0.8c-0.3-0.3-0.5-0.5-0.6-0.7l1.1-1.6
		c0.2,0.3,0.5,0.6,0.7,0.9c0.3,0.3,0.5,0.6,0.8,0.8c0.3,0.3,0.6,0.5,1,0.7c0.4,0.2,0.8,0.3,1.2,0.3c0.4,0,0.6-0.2,0.8-0.6
		c0.1-0.3,0.2-0.5,0.1-0.8c-0.1-0.2-0.2-0.5-0.4-0.8c-0.2-0.3-0.5-0.6-0.9-1.1c-0.4-0.4-0.7-0.8-1-1.2c-0.3-0.4-0.4-0.8-0.5-1.3
		c0-0.4,0.1-0.9,0.3-1.4c0.3-0.5,0.6-0.9,1.1-1.1c0.4-0.3,1-0.4,1.6-0.3c0.6,0,1.3,0.3,2,0.6c0.5,0.3,1,0.6,1.4,1
		c0.4,0.4,0.8,0.7,1,1.1l-1.1,1.6c-0.4-0.5-0.8-0.9-1.1-1.3c-0.4-0.4-0.8-0.6-1.2-0.9c-0.5-0.3-0.9-0.4-1.2-0.4
		c-0.3,0-0.6,0.2-0.8,0.5c-0.1,0.2-0.2,0.5-0.1,0.7c0.1,0.2,0.2,0.5,0.4,0.7c0.2,0.3,0.5,0.5,0.8,0.9c0.5,0.5,1,1.1,1.3,1.5
		c0.3,0.5,0.5,0.9,0.5,1.4c0,0.5-0.1,0.9-0.4,1.5c-0.1,0.3-0.3,0.5-0.6,0.8s-0.5,0.5-0.9,0.6c-0.4,0.1-0.8,0.2-1.4,0.1
		C282.7,82,282.1,81.8,281.3,81.4z"/>
</g>
<g>
	<circle class="st3" cx="371.6" cy="155.4" r="22.8"/>
</g>
<g>
	<circle class="st4" cx="112.2" cy="155.1" r="22.8"/>
</g>
<g>
	<circle class="st5" cx="241.8" cy="285.2" r="22.8"/>
</g>
<g>
	<g>
		<g>
			<path class="st1" d="M237.4,102c-5.7-2.4-8.5-9-6.1-14.7c2.4-5.7,9-8.5,14.7-6.1c5.7,2.4,8.5,9,6.1,14.7
				C249.8,101.6,243.2,104.3,237.4,102z"/>
		</g>
	</g>
	<g>
		<path class="st6" d="M244.9,92.2c-0.1-0.2-0.1-0.3-0.2-0.5v-2.7c0-0.4-0.1-0.7-0.2-1.1c-0.1-0.3-0.4-0.7-0.6-0.9
			c-0.3-0.3-0.6-0.5-0.9-0.6c-0.3-0.1-0.7-0.2-1.1-0.2c-0.4,0-0.7,0.1-1.1,0.2c-0.3,0.1-0.7,0.4-0.9,0.6c-0.3,0.3-0.5,0.6-0.6,0.9
			s-0.2,0.7-0.2,1.1v0.4h1.1v-0.4c0-0.5,0.2-0.9,0.5-1.2c0.2-0.2,0.3-0.3,0.6-0.4s0.4-0.1,0.7-0.1c0.5,0,0.9,0.2,1.2,0.5
			c0.3,0.3,0.5,0.8,0.5,1.2v1.6c-0.5-0.3-1.1-0.5-1.7-0.5c-0.4,0-0.9,0.1-1.3,0.3c-0.4,0.2-0.8,0.4-1.1,0.7
			c-0.3,0.3-0.6,0.7-0.7,1.1c-0.2,0.4-0.3,0.9-0.3,1.3c0,0.4,0.1,0.9,0.3,1.3c0.2,0.4,0.4,0.8,0.7,1.1c0.3,0.3,0.7,0.6,1.1,0.7
			c0.4,0.2,0.8,0.3,1.3,0.3c0.4,0,0.9-0.1,1.3-0.3c0.4-0.2,0.8-0.4,1.1-0.7c0.3-0.3,0.6-0.7,0.7-1.1c0.2-0.4,0.3-0.9,0.3-1.3
			C245.1,93.1,245,92.6,244.9,92.2L244.9,92.2z M241.8,95.8c-1.2,0-2.2-1-2.2-2.2c0-1.2,1-2.2,2.2-2.2c0.6,0,1.2,0.2,1.6,0.7
			c0.4,0.4,0.7,1,0.7,1.6c0,0.6-0.2,1.2-0.7,1.6C242.9,95.5,242.3,95.8,241.8,95.8z M242.7,93.5c0,1.3-1.9,1.3-1.9,0
			C240.8,92.3,242.7,92.3,242.7,93.5z"/>
	</g>
</g>
<g>
	<g>
		<g>
			<path class="st3" d="M294.7,129.7c-6.2,0-11.3-5.1-11.3-11.3c0-6.2,5.1-11.3,11.3-11.3c6.2,0,11.3,5.1,11.3,11.3
				C306,124.7,300.9,129.7,294.7,129.7z"/>
		</g>
	</g>
	<g>
		<g>
			<g>
				<path class="st6" d="M298.7,123.1h-1.4c-0.3,0-0.6-0.3-0.6-0.6v-1.4c0-0.3,0.3-0.6,0.6-0.6c0.3,0,0.6,0.3,0.6,0.6v0.8h0.8
					c0.3,0,0.6,0.3,0.6,0.6C299.3,122.8,299.1,123.1,298.7,123.1z M290.6,123.1c-0.3,0-0.6-0.3-0.6-0.6v-1.4c0-0.3,0.3-0.6,0.6-0.6
					h1.4c0.3,0,0.6,0.3,0.6,0.6c0,0.3-0.3,0.6-0.6,0.6h-0.8v0.8C291.2,122.8,291,123.1,290.6,123.1z M298.7,116.4h-1.4
					c-0.3,0-0.6-0.3-0.6-0.6c0-0.3,0.3-0.6,0.6-0.6h0.8v-0.8c0-0.3,0.3-0.6,0.6-0.6c0.3,0,0.6,0.3,0.6,0.6v1.4
					C299.3,116.1,299.1,116.4,298.7,116.4z M292.1,116.4c-0.3,0-0.6-0.3-0.6-0.6V115h-0.8c-0.3,0-0.6-0.3-0.6-0.6
					c0-0.3,0.3-0.6,0.6-0.6h1.4c0.3,0,0.6,0.3,0.6,0.6v1.4C292.7,116.1,292.4,116.4,292.1,116.4z"/>
			</g>
		</g>
		<g>
			<g>
				<path class="st6" d="M294.7,123.8c-1.8,0-3.5-0.9-4.5-2.4c-0.2-0.3-0.1-0.6,0.2-0.8c0.3-0.2,0.6-0.1,0.8,0.2
					c0.9,1.3,2.5,2.1,4.1,1.8c0.3,0,0.6,0.2,0.7,0.5c0,0.3-0.2,0.6-0.5,0.7C295.2,123.8,295,123.8,294.7,123.8z M297.3,123
					c-0.2,0-0.4-0.1-0.5-0.3c-0.2-0.3-0.1-0.6,0.2-0.8c1.2-0.8,1.9-2.1,1.9-3.5c0-0.2,0-0.4,0-0.6c0-0.3,0.2-0.6,0.5-0.7
					c0.3-0.1,0.6,0.2,0.7,0.5c0,0.3,0.1,0.5,0.1,0.8c0,1.8-0.9,3.5-2.4,4.5C297.5,123,297.4,123,297.3,123z M290,119.8
					c-0.3,0-0.5-0.2-0.6-0.5c0-0.3-0.1-0.5-0.1-0.8c0-1.8,0.9-3.5,2.4-4.5c0.3-0.2,0.6-0.1,0.8,0.2c0.2,0.3,0.1,0.6-0.2,0.8
					c-1.2,0.8-1.9,2.1-1.9,3.5c0,0.2,0,0.4,0,0.6C290.6,119.4,290.4,119.7,290,119.8C290,119.7,290,119.8,290,119.8z M298.7,116.4
					c-0.2,0-0.4-0.1-0.5-0.3c-0.8-1.2-2.1-1.9-3.5-1.9c-0.2,0-0.4,0-0.6,0c-0.3,0.1-0.6-0.2-0.7-0.5c0-0.3,0.2-0.6,0.5-0.7
					c0.3,0,0.5-0.1,0.8-0.1c1.8,0,3.5,0.9,4.5,2.4c0.2,0.3,0.1,0.6-0.2,0.8C298.9,116.4,298.8,116.4,298.7,116.4z"/>
			</g>
		</g>
	</g>
</g>
<g>
	<path class="st2" d="M206.3,150.3l1-7.5h1.1l1.8,3.4l1.8-3.4h1.1l1,7.5h-1.4l-0.7-5.7l0.4,0.1l-2.2,4l-2.2-4l0.4-0.1l-0.7,5.7
		H206.3z"/>
	<path class="st2" d="M218,144.1h0.4l-2.2,6.2h-1.3l2.7-7.5h1.3l2.7,7.5h-1.3L218,144.1z M219.7,148.5h-3.2v-1.2h3.2V148.5z"/>
	<path class="st2" d="M222.4,150.3v-7.5h1.4l3.2,4.9v-4.9h1.4v7.5h-1.1l-3.4-5.2v5.2H222.4z"/>
	<path class="st2" d="M232.3,144.1h0.4l-2.2,6.2h-1.3l2.7-7.5h1.3l2.7,7.5h-1.3L232.3,144.1z M234.1,148.5h-3.2v-1.2h3.2V148.5z"/>
	<path class="st2" d="M240,150.4c-0.8,0-1.5-0.2-2-0.5c-0.6-0.3-1-0.8-1.3-1.4s-0.5-1.3-0.5-2.1c0-0.8,0.2-1.5,0.5-2.1
		s0.8-1,1.4-1.4c0.6-0.3,1.3-0.5,2-0.5c0.4,0,0.8,0,1.1,0.1c0.4,0.1,0.7,0.2,0.9,0.3l-0.2,1.3c-0.3-0.1-0.6-0.2-0.9-0.3
		c-0.3-0.1-0.7-0.1-1-0.1c-0.6,0-1,0.1-1.4,0.3s-0.6,0.5-0.8,0.9c-0.2,0.4-0.3,0.8-0.3,1.3c0,0.5,0.1,1,0.3,1.4
		c0.2,0.4,0.4,0.7,0.8,0.9s0.8,0.3,1.3,0.3c0.2,0,0.3,0,0.5,0c0.2,0,0.4-0.1,0.5-0.1v-1.3h-1v-1.1h2.4v3.4c-0.3,0.2-0.6,0.3-1,0.4
		C240.9,150.4,240.5,150.4,240,150.4z"/>
	<path class="st2" d="M243.8,150.3v-7.5h4.8v1.3h-3.4v1.6h2.7v1.3h-2.7v1.9h3.5v1.3H243.8z"/>
	<path class="st2" d="M249.5,150.3l1-7.5h1.1l1.8,3.4l1.8-3.4h1.1l1,7.5h-1.4l-0.7-5.7l0.4,0.1l-2.2,4l-2.2-4l0.4-0.1l-0.7,5.7
		H249.5z"/>
	<path class="st2" d="M258.8,150.3v-7.5h4.8v1.3h-3.4v1.6h2.7v1.3h-2.7v1.9h3.5v1.3H258.8z"/>
	<path class="st2" d="M264.9,150.3v-7.5h1.4l3.2,4.9v-4.9h1.4v7.5h-1.1l-3.4-5.2v5.2H264.9z"/>
	<path class="st2" d="M274,150.3v-6.2h-2.1v-1.3h5.6v1.3h-2.1v6.2H274z"/>
	<path class="st2" d="M221.3,163.2v-7.5h1.4v7.5H221.3z"/>
	<path class="st2" d="M224.3,163.2v-7.5h1.4l3.2,4.9v-4.9h1.4v7.5h-1.1l-3.4-5.2v5.2H224.3z"/>
	<path class="st2" d="M233.4,163.2V157h-2.1v-1.3h5.6v1.3h-2.1v6.2H233.4z"/>
	<path class="st2" d="M237.9,163.2v-7.5h4.8v1.3h-3.4v1.6h2.7v1.3h-2.7v1.9h3.5v1.3H237.9z"/>
	<path class="st2" d="M244,163.2v-7.5h1.4l3.2,4.9v-4.9h1.4v7.5h-1.1l-3.4-5.2v5.2H244z"/>
	<path class="st2" d="M253.1,163.2V157H251v-1.3h5.6v1.3h-2.1v6.2H253.1z"/>
	<path class="st2" d="M259.8,163.3c-0.3,0-0.6,0-0.9-0.1c-0.3-0.1-0.6-0.1-0.9-0.2c-0.3-0.1-0.5-0.2-0.7-0.2l0.2-1.5
		c0.3,0.1,0.5,0.2,0.8,0.3c0.3,0.1,0.6,0.2,0.8,0.3c0.3,0.1,0.6,0.1,0.9,0.1c0.4,0,0.7-0.1,0.9-0.2c0.2-0.1,0.3-0.4,0.3-0.7
		c0-0.2-0.1-0.4-0.2-0.5c-0.1-0.1-0.3-0.3-0.6-0.4c-0.3-0.1-0.6-0.2-1-0.4c-0.4-0.1-0.8-0.3-1.1-0.5c-0.3-0.2-0.6-0.4-0.8-0.7
		c-0.2-0.3-0.3-0.6-0.3-1c0-0.4,0.1-0.8,0.3-1.1c0.2-0.3,0.5-0.6,0.9-0.8c0.4-0.2,0.9-0.3,1.5-0.3c0.5,0,0.9,0.1,1.3,0.2
		c0.4,0.1,0.8,0.2,1.1,0.3l-0.1,1.4c-0.4-0.2-0.8-0.3-1.2-0.4c-0.4-0.1-0.8-0.1-1.1-0.1c-0.4,0-0.7,0.1-0.9,0.2
		c-0.2,0.1-0.3,0.3-0.3,0.6c0,0.2,0.1,0.4,0.2,0.5c0.1,0.1,0.3,0.2,0.5,0.3c0.2,0.1,0.5,0.2,0.8,0.3c0.5,0.2,1,0.4,1.4,0.6
		c0.4,0.2,0.7,0.5,0.8,0.7c0.2,0.3,0.3,0.7,0.3,1.1c0,0.2,0,0.5-0.1,0.7c-0.1,0.3-0.2,0.5-0.4,0.7c-0.2,0.2-0.5,0.4-0.9,0.6
		C261,163.3,260.5,163.3,259.8,163.3z"/>
</g>
<g>
	<g>
		<g>
			<g>
				<path class="st4" d="M311.5,180.1c-4.2,4.6-11.3,4.9-15.9,0.8c-4.6-4.2-4.9-11.3-0.8-15.9c4.2-4.6,11.3-4.9,15.9-0.8
					C315.4,168.4,315.7,175.5,311.5,180.1z"/>
			</g>
		</g>
	</g>
	<g>
		<path class="st6" d="M307.7,169.7c-0.1,0-0.3,0-0.4,0.1c-0.1,0.1-0.2,0.2-0.3,0.3c-0.1,0.1-0.1,0.3-0.1,0.4s0,0.3,0.1,0.4
			l-1.9,1.9c-0.2-0.1-0.4-0.1-0.7,0l-1.3-1.3c0.1-0.1,0.1-0.3,0.1-0.4c0-0.1-0.1-0.3-0.1-0.4c-0.1-0.1-0.2-0.2-0.3-0.3
			s-0.3-0.1-0.4-0.1c-0.1,0-0.3,0-0.4,0.1c-0.1,0.1-0.2,0.2-0.3,0.3c-0.1,0.1-0.1,0.3-0.1,0.4c0,0.1,0,0.3,0.1,0.4l-2.2,2.2
			c-0.2-0.1-0.4-0.1-0.6,0s-0.4,0.2-0.5,0.4c-0.1,0.2-0.2,0.4-0.1,0.6c0,0.2,0.1,0.4,0.3,0.5c0.1,0.1,0.3,0.2,0.5,0.3s0.4,0,0.6-0.1
			c0.2-0.1,0.3-0.3,0.4-0.5c0.1-0.2,0.1-0.4,0-0.6l2.2-2.2c0.2,0.1,0.4,0.1,0.7,0l1.3,1.3c-0.1,0.1-0.1,0.3-0.1,0.4
			c0,0.1,0.1,0.3,0.1,0.4c0.1,0.1,0.2,0.2,0.3,0.3c0.1,0.1,0.3,0.1,0.4,0.1s0.3,0,0.4-0.1c0.1-0.1,0.2-0.2,0.3-0.3
			c0.1-0.1,0.1-0.3,0.1-0.4c0-0.1,0-0.3-0.1-0.4l1.9-1.9c0.1,0,0.3,0.1,0.4,0.1c0.1,0,0.3,0,0.4-0.1c0.1-0.1,0.2-0.2,0.3-0.3
			c0.1-0.1,0.1-0.2,0.2-0.4c0-0.1,0-0.3,0-0.4s-0.1-0.2-0.2-0.3c-0.1-0.1-0.2-0.2-0.3-0.2C307.9,169.7,307.8,169.7,307.7,169.7z"/>
	</g>
</g>
<g>
	<g>
		<g>
			<g>
				<path class="st5" d="M274.6,224.3c-5.8,2.1-12.3-1-14.4-6.8c-2.1-5.8,1-12.3,6.8-14.4c5.8-2.1,12.3,1,14.4,6.8
					C283.5,215.8,280.4,222.2,274.6,224.3z"/>
			</g>
		</g>
	</g>
	<g>
		<g>
			<path class="st6" d="M269.2,213.7c-0.2,0-0.3-0.1-0.4-0.2s-0.2-0.2-0.2-0.4c0-0.2,0.1-0.3,0.2-0.4c0.1-0.1,0.2-0.2,0.4-0.2h3.2
				c0.2,0,0.3,0.1,0.4,0.2c0.1,0.1,0.2,0.2,0.2,0.4c0,0.2-0.1,0.3-0.2,0.4c-0.1,0.1-0.2,0.2-0.4,0.2H269.2z M269.2,211.6
				c-0.2,0-0.3-0.1-0.4-0.2c-0.1-0.1-0.2-0.2-0.2-0.4c0-0.2,0.1-0.3,0.2-0.4c0.1-0.1,0.2-0.2,0.4-0.2h3.2c0.2,0,0.3,0.1,0.4,0.2
				c0.1,0.1,0.2,0.2,0.2,0.4c0,0.2-0.1,0.3-0.2,0.4c-0.1,0.1-0.2,0.2-0.4,0.2H269.2z M267.6,214.8h4c0.3,0,0.5,0.1,0.7,0.2
				c0.2,0.1,0.4,0.3,0.6,0.5l1.1,1.5v-7.5h-6.4V214.8z M267.6,218l5.9,0l-1.5-1.9c-0.1-0.1-0.1-0.1-0.2-0.2c-0.1,0-0.2-0.1-0.2-0.1
				h-4V218z M274,219.1h-6.4c-0.3,0-0.5-0.1-0.8-0.3s-0.3-0.5-0.3-0.8v-8.6c0-0.3,0.1-0.5,0.3-0.8c0.2-0.2,0.5-0.3,0.8-0.3l6.4,0
				c0.3,0,0.5,0.1,0.8,0.3s0.3,0.5,0.3,0.8v8.6c0,0.3-0.1,0.5-0.3,0.8S274.3,219.1,274,219.1z"/>
		</g>
	</g>
</g>
<g>
	<g>
		<g>
			<path class="st1" d="M210.4,224.9c-6.2,0-11.2-5-11.2-11.2c0-6.2,5-11.2,11.2-11.2s11.2,5,11.2,11.2
				C221.6,219.9,216.6,224.9,210.4,224.9z"/>
		</g>
	</g>
	<g>
		<g>
			<path class="st6" d="M212.9,211.7l1.9-1.9c0.1-0.1,0.2-0.2,0.4-0.2c0.1,0,0.3,0.1,0.4,0.2c0.1,0.1,0.1,0.2,0.1,0.4
				c0,0.1,0,0.3-0.1,0.4l-2.3,2.3c-0.1,0.1-0.2,0.2-0.4,0.2s-0.3-0.1-0.4-0.2l-1.2-1.2c-0.1-0.1-0.1-0.2-0.1-0.4
				c0-0.2,0-0.3,0.1-0.4c0.1-0.1,0.2-0.1,0.4-0.1c0.2,0,0.3,0,0.4,0.1L212.9,211.7z M205.6,212.1c-0.2,0-0.3-0.1-0.4-0.2
				s-0.2-0.2-0.2-0.4c0-0.2,0.1-0.3,0.2-0.4c0.1-0.1,0.2-0.2,0.4-0.2h3.8c0.2,0,0.3,0.1,0.4,0.2c0.1,0.1,0.2,0.2,0.2,0.4
				c0,0.2-0.1,0.3-0.2,0.4c-0.1,0.1-0.2,0.2-0.4,0.2H205.6z M213.2,216.7l-1,1c-0.1,0.1-0.2,0.1-0.4,0.1c-0.2,0-0.3,0-0.4-0.1
				c-0.1-0.1-0.1-0.2-0.1-0.4s0-0.3,0.1-0.4l1-1l-1-1c-0.1-0.1-0.1-0.2-0.1-0.4c0-0.2,0-0.3,0.1-0.4c0.1-0.1,0.2-0.1,0.4-0.1
				c0.2,0,0.3,0,0.4,0.1l1,1l1-1c0.1-0.1,0.2-0.1,0.4-0.1c0.2,0,0.3,0,0.4,0.1c0.1,0.1,0.1,0.2,0.1,0.4c0,0.2,0,0.3-0.1,0.4l-1,1
				l1,1c0.1,0.1,0.1,0.2,0.1,0.4s0,0.3-0.1,0.4c-0.1,0.1-0.2,0.1-0.4,0.1c-0.2,0-0.3,0-0.4-0.1L213.2,216.7z M205.6,216.5
				c-0.2,0-0.3-0.1-0.4-0.2s-0.2-0.2-0.2-0.4c0-0.2,0.1-0.3,0.2-0.4c0.1-0.1,0.2-0.2,0.4-0.2h3.8c0.2,0,0.3,0.1,0.4,0.2
				s0.2,0.2,0.2,0.4c0,0.2-0.1,0.3-0.2,0.4s-0.2,0.2-0.4,0.2H205.6z"/>
		</g>
	</g>
</g>
<g>
	<g>
		<g>
			<path class="st3" d="M173.8,182.9c-5.7-2.4-8.5-8.9-6.1-14.6c2.4-5.7,8.9-8.5,14.6-6.1c5.7,2.4,8.5,8.9,6.1,14.6
				C186.1,182.5,179.6,185.3,173.8,182.9z"/>
		</g>
	</g>
	<g>
		<g>
			<path class="st6" d="M178.1,177.9c-0.1,0-0.2,0-0.3,0s-0.2,0-0.2-0.1c-1.1-0.4-2-1.2-2.7-2.2c-0.7-1.1-1.1-2.2-1.1-3.5v-2.6
				c0-0.2,0.1-0.4,0.2-0.6c0.1-0.2,0.3-0.3,0.5-0.4l3.3-1.2c0.1,0,0.3-0.1,0.4-0.1c0.1,0,0.3,0,0.4,0.1l3.3,1.2
				c0.2,0.1,0.4,0.2,0.5,0.4c0.1,0.2,0.2,0.4,0.2,0.6v2.6c0,1.3-0.4,2.5-1.1,3.5s-1.6,1.8-2.7,2.2c-0.1,0-0.2,0-0.2,0.1
				C178.3,177.9,178.2,177.9,178.1,177.9z M178.1,176.8c0.9-0.3,1.6-0.8,2.2-1.6c0.6-0.8,0.9-1.7,1-2.7h-3.2v-4.3l-3.3,1.2v2.8
				c0,0.1,0,0.1,0,0.2h3.2V176.8z"/>
		</g>
	</g>
</g>
<g>
	<g>
		<g>
			<g>
				<path class="st4" d="M180.9,126.4c-4.4-4.3-4.5-11.4-0.1-15.9c4.3-4.4,11.4-4.5,15.9-0.1c4.4,4.3,4.5,11.4,0.1,15.9
					C192.4,130.7,185.3,130.8,180.9,126.4z"/>
			</g>
		</g>
	</g>
	<g>
		<g>
			<path class="st6" d="M191.9,123.8c-0.4,0-0.8-0.2-1.1-0.5c-0.3-0.3-0.5-0.7-0.5-1.1c0-0.1,0-0.1,0-0.2c0-0.1,0-0.1,0-0.2
				l-3.8-2.2c-0.2,0.1-0.3,0.2-0.5,0.3c-0.2,0.1-0.4,0.1-0.6,0.1c-0.4,0-0.8-0.2-1.1-0.5c-0.3-0.3-0.5-0.7-0.5-1.1
				c0-0.4,0.2-0.8,0.5-1.1s0.7-0.5,1.1-0.5c0.2,0,0.4,0,0.6,0.1c0.2,0.1,0.4,0.2,0.5,0.3l3.8-2.2c0-0.1,0-0.1,0-0.2s0-0.1,0-0.2
				c0-0.4,0.2-0.8,0.5-1.1c0.3-0.3,0.7-0.5,1.1-0.5s0.8,0.2,1.1,0.5c0.3,0.3,0.5,0.7,0.5,1.1c0,0.4-0.2,0.8-0.5,1.1
				c-0.3,0.3-0.7,0.5-1.1,0.5c-0.2,0-0.4,0-0.6-0.1c-0.2-0.1-0.4-0.2-0.5-0.3l-3.8,2.2c0,0.1,0,0.1,0,0.2c0,0.1,0,0.1,0,0.2
				c0,0.1,0,0.1,0,0.2c0,0.1,0,0.1,0,0.2l3.8,2.2c0.2-0.1,0.3-0.2,0.5-0.3c0.2-0.1,0.4-0.1,0.6-0.1c0.4,0,0.8,0.2,1.1,0.5
				c0.3,0.3,0.5,0.7,0.5,1.1c0,0.4-0.2,0.8-0.5,1.1C192.8,123.6,192.4,123.8,191.9,123.8z"/>
		</g>
	</g>
</g>
<g>
	<path class="st6" d="M232.1,26.6c0.9,0,1.7-0.4,2.3-1.1l1.2,1.3c-1,1.1-2.1,1.6-3.4,1.6c-1.3,0-2.4-0.4-3.2-1.2
		c-0.9-0.8-1.3-1.9-1.3-3.1c0-1.3,0.4-2.3,1.3-3.2c0.9-0.8,1.9-1.3,3.2-1.3c1.4,0,2.6,0.5,3.5,1.6l-1.2,1.3
		c-0.6-0.7-1.4-1.1-2.2-1.1c-0.7,0-1.3,0.2-1.8,0.7c-0.5,0.5-0.8,1.1-0.8,1.9c0,0.8,0.2,1.4,0.7,1.9
		C230.9,26.3,231.4,26.6,232.1,26.6z"/>
	<path class="st6" d="M243.5,20.8c0.9,0.7,1.3,1.8,1.3,3.1c0,1.3-0.4,2.4-1.3,3.2c-0.9,0.8-2.2,1.2-4,1.2h-3.2v-8.5h3.3
		C241.4,19.7,242.6,20.1,243.5,20.8z M242,25.9c0.5-0.4,0.8-1.1,0.8-1.9c0-0.8-0.3-1.5-0.8-1.9c-0.5-0.5-1.4-0.7-2.5-0.7h-1.2v5.2
		h1.4C240.7,26.6,241.5,26.3,242,25.9z"/>
	<path class="st6" d="M253.4,22.9l-2.3,4.7H250l-2.3-4.7v5.4h-1.9v-8.5h2.6l2.2,4.7l2.2-4.7h2.6v8.5h-1.9V22.9z"/>
	<path class="st6" d="M260.5,26.6c0.9,0,1.7-0.4,2.3-1.1l1.2,1.3c-1,1.1-2.1,1.6-3.4,1.6c-1.3,0-2.4-0.4-3.2-1.2
		c-0.9-0.8-1.3-1.9-1.3-3.1c0-1.3,0.4-2.3,1.3-3.2c0.9-0.8,1.9-1.3,3.2-1.3c1.4,0,2.6,0.5,3.5,1.6l-1.2,1.3
		c-0.6-0.7-1.4-1.1-2.2-1.1c-0.7,0-1.3,0.2-1.8,0.7c-0.5,0.5-0.8,1.1-0.8,1.9c0,0.8,0.2,1.4,0.7,1.9
		C259.2,26.3,259.8,26.6,260.5,26.6z"/>
	<g>
		<path class="st6" d="M245.8,32c-0.1-0.1-0.2-0.1-0.3-0.1c-0.1,0-0.2,0-0.3,0.1c-0.1,0.1-0.2,0.1-0.2,0.2c-0.1,0.1-0.1,0.2-0.1,0.4
			c0,0.1,0,0.3,0.1,0.4c0.1,0.1,0.1,0.2,0.2,0.2c0.2,0.1,0.5,0.1,0.7,0c0.1-0.1,0.2-0.1,0.2-0.2c0.1-0.1,0.1-0.2,0.1-0.4
			c0-0.1,0-0.3-0.1-0.4C246,32.2,245.9,32.1,245.8,32z"/>
		<path class="st6" d="M236.3,31.5H236v1.7h0.4c0.3,0,0.5-0.1,0.6-0.2c0.2-0.1,0.2-0.3,0.2-0.6s-0.1-0.5-0.2-0.6
			C236.9,31.6,236.7,31.5,236.3,31.5z"/>
		<path class="st6" d="M255.5,29.1c-1.3,0-25.6,0-25.6,0H225c0,0-3.9,0.1-3.9-3.9c0-4,5-3.6,5-3.6s-1.2-3.9,1.9-6.3
			c1-0.8,2.2-1.2,3.4-1.2c1.9,0,4.7,0.7,5.9,4.9c0,0,2.7-4.7,9-0.2c0,0-2.4-5.9-8.4-3c0,0-3-5.5-9.4-3c-5,2.1-4.5,7-4.5,7
			s-4.7,1.1-4.7,5.5s3.2,5.8,5.8,5.8c2.6,0,5,0,5,0h0.7c0,0,0.3,0.1,0.3,0.5c0,0.4,0,2.2,0,2.2s-0.1,1.5,1.8,1.5s22.6,0,22.6,0
			s1.3-0.1,1.3-1.6c0-1.5,0-3.1,0-3.1S256.8,29.1,255.5,29.1z M234.8,33.7h-2V31h2v0.5h-1.4v0.6h1.2v0.5h-1.2v0.6h1.4V33.7z
			 M237.5,33.3c-0.3,0.2-0.6,0.4-1.2,0.4h-0.9V31h1c0.5,0,0.9,0.1,1.1,0.4c0.3,0.2,0.4,0.6,0.4,1C237.9,32.8,237.8,33.1,237.5,33.3z
			 M241.5,33.7h-0.6V32l-0.7,1.5h-0.4L239,32v1.7h-0.6V31h0.8l0.7,1.5l0.7-1.5h0.8V33.7z M244.3,33.4c-0.1,0.1-0.3,0.2-0.5,0.3
			c-0.2,0.1-0.4,0.1-0.6,0.1c-0.2,0-0.4,0-0.6-0.1c-0.2-0.1-0.3-0.2-0.5-0.3c-0.1-0.1-0.2-0.3-0.3-0.5c-0.1-0.2-0.1-0.4-0.1-0.6
			s0-0.4,0.1-0.6c0.1-0.2,0.2-0.3,0.3-0.5c0.1-0.1,0.3-0.2,0.5-0.3c0.4-0.1,0.8-0.1,1.2,0c0.2,0.1,0.3,0.2,0.5,0.3l0.1,0.1l-0.3,0.3
			l-0.1-0.1c-0.1-0.1-0.2-0.2-0.3-0.2c-0.3-0.1-0.6-0.1-0.8,0c-0.1,0.1-0.2,0.1-0.3,0.2c-0.1,0.1-0.2,0.2-0.2,0.3
			c-0.1,0.1-0.1,0.3-0.1,0.4c0,0.1,0,0.3,0.1,0.4c0.1,0.1,0.1,0.2,0.2,0.3c0.1,0.1,0.2,0.2,0.3,0.2c0.2,0.1,0.6,0.1,0.8,0
			c0.1,0,0.2-0.1,0.3-0.2l0.1-0.1L244.3,33.4L244.3,33.4z M246.4,33.2c-0.1,0.2-0.2,0.3-0.4,0.4c-0.2,0.1-0.4,0.1-0.6,0.1
			c-0.2,0-0.4,0-0.6-0.1c-0.2-0.1-0.3-0.2-0.4-0.4c-0.1-0.2-0.1-0.4-0.1-0.6c0-0.2,0-0.4,0.1-0.6c0.1-0.2,0.2-0.3,0.4-0.4
			c0.2-0.1,0.4-0.1,0.6-0.1c0.2,0,0.4,0,0.6,0.1c0.2,0.1,0.3,0.2,0.4,0.4c0.1,0.2,0.1,0.4,0.1,0.6C246.6,32.9,246.5,33.1,246.4,33.2
			z M248.9,33.8h-0.4v-0.2c0,0-0.1,0.1-0.1,0.1c-0.1,0.1-0.3,0.1-0.5,0.1c-0.2,0-0.4,0-0.5-0.1c-0.1-0.1-0.3-0.2-0.3-0.3
			c-0.1-0.1-0.1-0.3-0.1-0.5v-1.3h0.5v1.2c0,0.2,0,0.3,0.1,0.4c0.1,0.1,0.2,0.1,0.4,0.1c0.1,0,0.2,0,0.3-0.1c0.1,0,0.2-0.1,0.2-0.2
			c0-0.1,0.1-0.2,0.1-0.4v-1.2h0.5V33.8z M251.5,33.8H251v-1.2c0-0.2,0-0.3-0.1-0.4c-0.1-0.1-0.2-0.1-0.4-0.1c-0.1,0-0.2,0-0.3,0.1
			c-0.1,0-0.2,0.1-0.2,0.2c-0.1,0.1-0.1,0.2-0.1,0.4v1.2h-0.5v-2.2h0.4v0.2c0,0,0.1-0.1,0.1-0.1c0.2-0.1,0.3-0.1,0.6-0.1
			c0.2,0,0.3,0,0.5,0.1c0.1,0.1,0.3,0.2,0.3,0.3c0.1,0.1,0.1,0.3,0.1,0.5V33.8z M253.8,33.3c-0.1,0.1-0.2,0.3-0.4,0.3
			c-0.2,0.1-0.3,0.1-0.5,0.1c-0.2,0-0.4,0-0.6-0.1c-0.2-0.1-0.3-0.2-0.4-0.4c-0.1-0.2-0.1-0.4-0.1-0.6c0-0.2,0-0.4,0.1-0.6
			c0.1-0.2,0.2-0.3,0.4-0.4c0.2-0.1,0.4-0.1,0.6-0.1c0.2,0,0.4,0,0.5,0.1c0.2,0.1,0.3,0.2,0.4,0.3l0,0.1l-0.4,0.2l-0.1-0.1
			c-0.1-0.1-0.1-0.2-0.2-0.2c-0.2-0.1-0.5-0.1-0.6,0l0,0c-0.1,0.1-0.2,0.1-0.2,0.2c-0.1,0.1-0.1,0.2-0.1,0.4c0,0.1,0,0.3,0.1,0.4
			c0.1,0.1,0.1,0.2,0.2,0.2c0.2,0.1,0.4,0.1,0.6,0c0.1,0,0.2-0.1,0.2-0.2l0.1-0.1L253.8,33.3L253.8,33.3z M254.5,33.8H254v-2.2h0.5
			V33.8z M254.5,31.2c-0.1,0.1-0.1,0.1-0.2,0.1c-0.1,0-0.2,0-0.2-0.1c-0.1-0.1-0.1-0.1-0.1-0.2c0-0.1,0-0.1,0.1-0.2
			c0.1-0.1,0.3-0.1,0.4,0c0.1,0.1,0.1,0.1,0.1,0.2C254.5,31.1,254.5,31.1,254.5,31.2z M255.4,33.8H255v-3.1h0.5V33.8z"/>
	</g>
</g>
<g>
	<polygon class="st6" points="371.6,134.3 372.3,135.9 374,136 372.8,137.2 373.2,139.1 371.6,138 370.1,139 370.4,137.2 369.2,136 
		371,135.9 	"/>
	<polygon class="st6" points="381.1,136.7 381.7,138.3 383.5,138.4 382.3,139.6 382.6,141.5 381.1,140.4 379.5,141.5 379.8,139.6 
		378.6,138.4 380.4,138.3 	"/>
	<polygon class="st6" points="387.8,143.7 388.4,145.3 390.2,145.4 389,146.6 389.3,148.5 387.8,147.4 386.3,148.5 386.6,146.6 
		385.4,145.4 387.1,145.3 	"/>
	<polygon class="st6" points="390.5,153.1 391.1,154.7 392.9,154.9 391.7,156.1 392,158 390.5,156.8 389,157.9 389.3,156.1 
		388.1,154.9 389.9,154.8 	"/>
	<polygon class="st6" points="352.8,153.1 353.4,154.7 355.2,154.9 354,156.1 354.3,158 352.8,156.8 351.3,157.9 351.6,156.1 
		350.4,154.9 352.2,154.8 	"/>
	<polygon class="st6" points="355.5,143.7 356.1,145.3 357.9,145.4 356.7,146.6 357,148.5 355.5,147.4 353.9,148.5 354.3,146.6 
		353,145.4 354.8,145.3 	"/>
	<polygon class="st6" points="387.8,162.6 388.4,164.2 390.2,164.3 389,165.5 389.3,167.4 387.8,166.3 386.3,167.3 386.6,165.5 
		385.4,164.3 387.2,164.2 	"/>
	<polygon class="st6" points="355.5,162.6 356.1,164.2 357.9,164.3 356.7,165.5 357,167.4 355.5,166.3 353.9,167.3 354.3,165.5 
		353,164.3 354.8,164.2 	"/>
	<polygon class="st6" points="362.2,136.7 362.8,138.3 364.6,138.4 363.4,139.6 363.7,141.5 362.2,140.4 360.6,141.5 360.9,139.6 
		359.7,138.4 361.5,138.3 	"/>
	<polygon class="st6" points="371.6,171.6 372.3,173.2 374,173.4 372.8,174.5 373.2,176.5 371.6,175.3 370.1,176.4 370.4,174.5 
		369.2,173.4 371,173.2 	"/>
	<polygon class="st6" points="381.1,169.1 381.7,170.7 383.5,170.8 382.3,172 382.6,173.9 381.1,172.8 379.5,173.8 379.8,172 
		378.6,170.8 380.4,170.7 	"/>
	<polygon class="st6" points="362.2,169.1 362.8,170.7 364.6,170.8 363.4,172 363.7,173.9 362.2,172.8 360.6,173.8 360.9,172 
		359.7,170.8 361.5,170.7 	"/>
	<g>
		<path class="st6" d="M363.9,154.3v-0.6c0-0.4-0.3-0.7-0.9-0.7s-0.9,0.2-0.9,0.7v3.6c0,0.4,0.3,0.7,0.9,0.7s0.9-0.2,0.9-0.7v-1.2
			h-0.9v-0.9h2.3v2.1c0,1-0.9,1.6-2.3,1.6s-2.3-0.6-2.3-1.6v-3.6c0-1,0.9-1.6,2.3-1.6s2.3,0.6,2.3,1.6v0.6H363.9z"/>
		<path class="st6" d="M366.7,152.2h2.2c1.4,0,2.2,0.6,2.2,1.6v3.5c0,1-0.9,1.6-2.2,1.6h-2.2V152.2z M368.9,157.9
			c0.6,0,0.9-0.2,0.9-0.6v-3.5c0-0.4-0.3-0.6-0.9-0.6h-0.7v4.7H368.9z"/>
		<path class="st6" d="M372.7,152.2h2.2c1.4,0,2.2,0.6,2.2,1.6v0.8c0,1-0.9,1.6-2.2,1.6h-0.8v2.7h-1.4V152.2z M374.8,155.2
			c0.6,0,0.9-0.2,0.9-0.6v-0.8c0-0.4-0.3-0.6-0.9-0.6h-0.7v2H374.8z"/>
		<path class="st6" d="M381.6,158.8l-1-2.7h-0.7v2.7h-1.4v-6.6h2.2c1.4,0,2.2,0.6,2.2,1.6v0.7c0,0.6-0.4,1.1-1,1.4l1.2,3H381.6z
			 M379.8,155.1h0.7c0.6,0,0.9-0.2,0.9-0.6v-0.8c0-0.4-0.3-0.6-0.9-0.6h-0.7V155.1z"/>
	</g>
</g>
<g>
	<g>
		<path class="st6" d="M244.4,296.8c-0.1,0-0.4-0.1-0.7-0.1h-0.4v1.3h0.5c0.3,0,0.6,0,0.7-0.1c0.1,0,0.2-0.1,0.3-0.2
			c0.1-0.1,0.1-0.2,0.1-0.4c0-0.2,0-0.3-0.1-0.4C244.6,296.9,244.5,296.8,244.4,296.8z"/>
		<polygon class="st6" points="247.2,298.8 248.4,298.8 247.8,297 		"/>
		<path class="st6" d="M241.8,266.4c-10.4,0-18.9,8.5-18.9,18.9s8.5,18.9,18.9,18.9s18.9-8.5,18.9-18.9S252.2,266.4,241.8,266.4z
			 M236.5,300.4c-0.3,0.2-0.7,0.4-1.2,0.4c-0.6,0-1-0.2-1.4-0.6c-0.4-0.4-0.6-1.1-0.6-1.8c0-0.8,0.2-1.4,0.6-1.9
			c0.4-0.4,0.8-0.6,1.5-0.6c0.5,0,0.9,0.1,1.2,0.4c0.2,0.2,0.4,0.5,0.5,0.9l-0.9,0.2c-0.1-0.3-0.2-0.5-0.3-0.6
			c-0.2-0.1-0.4-0.2-0.6-0.2c-0.3,0-0.6,0.1-0.8,0.4c-0.2,0.2-0.3,0.7-0.3,1.2c0,0.6,0.1,1,0.3,1.3c0.2,0.3,0.5,0.4,0.8,0.4
			c0.2,0,0.4-0.1,0.6-0.2s0.3-0.4,0.4-0.8l0.9,0.3C237,299.7,236.8,300.1,236.5,300.4z M240.9,300.4c-0.3,0.2-0.7,0.4-1.2,0.4
			c-0.6,0-1-0.2-1.4-0.6c-0.4-0.4-0.6-1.1-0.6-1.8c0-0.8,0.2-1.4,0.6-1.9c0.4-0.4,0.8-0.6,1.5-0.6c0.5,0,0.9,0.1,1.2,0.4
			c0.2,0.2,0.4,0.5,0.5,0.9l-0.9,0.2c-0.1-0.3-0.2-0.5-0.3-0.6c-0.2-0.1-0.4-0.2-0.6-0.2c-0.3,0-0.6,0.1-0.8,0.4
			c-0.2,0.2-0.3,0.7-0.3,1.2c0,0.6,0.1,1,0.3,1.3c0.2,0.3,0.5,0.4,0.8,0.4c0.2,0,0.4-0.1,0.6-0.2c0.2-0.2,0.3-0.4,0.4-0.8l0.9,0.3
			C241.5,299.7,241.2,300.1,240.9,300.4z M245,298.7c-0.2,0.1-0.6,0.1-1.1,0.1h-0.6v1.8h-0.9v-4.7h1.4c0.5,0,0.9,0,1.1,0.1
			c0.3,0.1,0.5,0.2,0.7,0.5c0.2,0.2,0.3,0.5,0.3,0.9c0,0.3-0.1,0.6-0.2,0.9C245.4,298.5,245.2,298.6,245,298.7z M249.1,300.7
			l-0.4-1.1h-1.8l-0.4,1.1h-1l1.7-4.7h0.9l1.8,4.7H249.1z"/>
	</g>
	<g>
		<g>
			<path class="st6" d="M241.8,266.4c-10.4,0-18.9,8.5-18.9,18.9s8.5,18.9,18.9,18.9s18.9-8.5,18.9-18.9S252.2,266.4,241.8,266.4z
				 M236.5,300.4c-0.3,0.2-0.7,0.4-1.2,0.4c-0.6,0-1-0.2-1.4-0.6c-0.4-0.4-0.6-1.1-0.6-1.8c0-0.8,0.2-1.4,0.6-1.9
				c0.4-0.4,0.8-0.6,1.5-0.6c0.5,0,0.9,0.1,1.2,0.4c0.2,0.2,0.4,0.5,0.5,0.9l-0.9,0.2c-0.1-0.3-0.2-0.5-0.3-0.6
				c-0.2-0.1-0.4-0.2-0.6-0.2c-0.3,0-0.6,0.1-0.8,0.4c-0.2,0.2-0.3,0.7-0.3,1.2c0,0.6,0.1,1,0.3,1.3c0.2,0.3,0.5,0.4,0.8,0.4
				c0.2,0,0.4-0.1,0.6-0.2c0.2-0.2,0.3-0.4,0.4-0.8l0.9,0.3C237,299.7,236.8,300.1,236.5,300.4z M240.9,300.4
				c-0.3,0.2-0.7,0.4-1.2,0.4c-0.6,0-1-0.2-1.4-0.6c-0.4-0.4-0.6-1.1-0.6-1.8c0-0.8,0.2-1.4,0.6-1.9c0.4-0.4,0.8-0.6,1.5-0.6
				c0.5,0,0.9,0.1,1.2,0.4c0.2,0.2,0.4,0.5,0.5,0.9l-0.9,0.2c-0.1-0.3-0.2-0.5-0.3-0.6c-0.2-0.1-0.4-0.2-0.6-0.2
				c-0.3,0-0.6,0.1-0.8,0.4c-0.2,0.2-0.3,0.7-0.3,1.2c0,0.6,0.1,1,0.3,1.3c0.2,0.3,0.5,0.4,0.8,0.4c0.2,0,0.4-0.1,0.6-0.2
				s0.3-0.4,0.4-0.8l0.9,0.3C241.5,299.7,241.2,300.1,240.9,300.4z M245,298.7c-0.2,0.1-0.6,0.1-1.1,0.1h-0.6v1.8h-0.9v-4.7h1.4
				c0.5,0,0.9,0,1.1,0.1c0.3,0.1,0.5,0.2,0.7,0.5c0.2,0.2,0.3,0.5,0.3,0.9c0,0.3-0.1,0.6-0.2,0.9C245.4,298.5,245.2,298.6,245,298.7
				z M249.1,300.7l-0.4-1.1h-1.8l-0.4,1.1h-1l1.7-4.7h0.9l1.8,4.7H249.1z M247.2,298.8h1.2l-0.6-1.8L247.2,298.8z"/>
			<path class="st6" d="M244.4,296.8c-0.1,0-0.4-0.1-0.7-0.1h-0.4v1.3h0.5c0.3,0,0.6,0,0.7-0.1c0.1,0,0.2-0.1,0.3-0.2
				c0.1-0.1,0.1-0.2,0.1-0.4c0-0.2,0-0.3-0.1-0.4C244.6,296.9,244.5,296.8,244.4,296.8z"/>
		</g>
	</g>
	<path class="st5" d="M248,281.7v-6.7c0,0-0.5-5.7-6.2-5.7c-5.7,0-6.4,5.4-6.4,5.4v7c-1.4,2.2-1.9,4.9,0,8.2
		c1.1,1.9,3.7,3.5,6.3,3.4c2.9,0,4.8-1.3,6.3-3.4C251.1,285.6,248,281.7,248,281.7z M244.3,290.1l-0.1,0.2h-1l0-0.5l-1.1-0.9l-0.5,0
		l-0.2-0.4l-0.8-0.1l-0.1-0.8l-0.8-0.8v-0.5l-0.4-0.3l0-0.6l-0.9-1v-1.1l-0.4-0.3c0,0,0.1-0.5,0.2-0.9l-0.2-0.7h3.1v2.8l4.1,3.9
		c0,0,0.3,0.3-0.1,1c-0.3,0.7,0.2,0.8,0.2,0.8H244.3z M246.2,279.8c0,0-3.3-3.2-8.8,0v-4.9c0,0,0.9-4,4.4-4c3.5,0,4.4,3.5,4.4,4.4
		C246.2,276.3,246.2,279.8,246.2,279.8z"/>
</g>
<g>
	<path class="st6" d="M97.4,154.3h0.3c0.2,0,0.4,0,0.6,0.1c0.1,0.1,0.2,0.2,0.3,0.3c0,0.1,0.1-0.1,0.1,0.3v2.1h-3V155
		c0-0.4,0-0.2,0.1-0.3c0.1-0.1,0.1-0.2,0.3-0.3c0.1-0.1,0.3-0.1,0.6-0.1h0.3v-0.6h-4.4v0.6h0.3c0.2,0,0.4,0,0.6,0.1
		c0.1,0.1,0.2,0.2,0.3,0.3c0,0.1,0.1-0.1,0.1,0.3v4.8c0,0.4,0,0.6-0.1,0.7c-0.1,0.1-0.1,0.2-0.2,0.3c-0.1,0.1-0.3,0.1-0.6,0.1h-0.3
		v0.5h4.4v-0.5h-0.3c-0.2,0-0.4,0-0.6-0.1c-0.1-0.1-0.2-0.2-0.3-0.3c0-0.1-0.1-0.3-0.1-0.7v-2h3v2c0,0.4,0,0.6-0.1,0.7
		c-0.1,0.1-0.1,0.2-0.3,0.3c-0.1,0.1-0.3,0.1-0.6,0.1h-0.3v0.5h4.4v-0.5h-0.3c-0.2,0-0.4,0-0.6-0.1c-0.1-0.1-0.2-0.2-0.3-0.3
		c0-0.1-0.1-0.3-0.1-0.7V155c0-0.4,0-0.2,0.1-0.3c0.1-0.1,0.1-0.2,0.3-0.3c0.1-0.1,0.3-0.1,0.6-0.1h0.3v-0.6h-4.4V154.3z"/>
	<path class="st6" d="M114.2,154.3c-0.6-0.4-1.6-0.5-2.8-0.5h-3.5v0.5c0.4,0,0.6,0,0.8,0.1c0.1,0.1,0.2,0.1,0.3,0.3
		c0.1,0.1,0.1,0.4,0.1,0.8v4.3c0,0.4,0,0.7-0.1,0.8c-0.1,0.1-0.1,0.2-0.3,0.3c-0.1,0.1-0.4,0.1-0.8,0.1v0.5h4.1v-0.5
		c-0.4,0-0.6,0-0.8-0.1c-0.1-0.1-0.2-0.1-0.3-0.3c-0.1-0.1-0.1-0.4-0.1-0.8v-1.7c0.9,0,1.6,0,2-0.1c0.6-0.1,1.2-0.3,1.6-0.8
		c0.4-0.5,0.5-1.1,0.5-1.5C114.9,155.1,114.8,154.7,114.2,154.3z M112.6,157.2c-0.3,0.3-0.9,0.4-1.4,0.4c-0.1,0-0.2,0-0.3,0v-3.3
		h0.2c0.5,0,1.2,0.1,1.4,0.4c0.3,0.3,0.4,0.7,0.4,1.2C113,156.5,112.8,156.9,112.6,157.2z"/>
	<path class="st6" d="M131.8,160.9c-0.2,0-0.9-0.5-1.1-1l-2.5-6.2h-1.2l-2.7,6l0,0.1c-0.2,0.5-0.3,0.6-0.4,0.8
		c-0.1,0.1-0.2,0.2-0.4,0.2c-0.3-0.1-0.8-0.5-1-1l-2.5-6.2h-1.2l-2.7,6l0,0.1c-0.2,0.5-0.3,0.6-0.4,0.8c-0.2,0.2-0.5,0.3-0.8,0.3
		l-0.1,0v0.5h3.2v-0.6l-0.1,0c-0.3,0-0.8-0.2-0.9-0.5c0-0.1-0.1-0.1,0-0.2c0-0.1,0.4-1.1,0.5-1.3l2.4,0l0.5,1.3
		c0.1,0.1,0.1,0.4,0,0.6c0,0.1-0.1,0.1-0.1,0.1h-0.7v0.6h3.4h0.6h2.6v-0.6l-0.1,0c-0.3,0-0.8-0.2-0.9-0.5c0-0.1-0.1-0.1,0-0.2
		c0-0.1,0.4-1.1,0.5-1.3l2.4,0l0.5,1.3c0.1,0.1,0.1,0.4,0,0.6c0,0.1-0.1,0.1-0.1,0.1h-0.7v0.6h4.2v-0.6L131.8,160.9z M117.5,158.4
		l1.2-2.9l1.2,2.9L117.5,158.4z M125.7,158.4l1.2-2.9l1.2,2.9L125.7,158.4z"/>
	<circle class="st6" cx="104.5" cy="146.3" r="0.7"/>
	<path class="st6" d="M104.2,150.8c0.2,0.2,0.5,0,0.5,0v-3.6h-0.5L104.2,150.8z"/>
	<path class="st6" d="M104.7,153.4v-1.6h-0.5l0,1.6C104.5,153.5,104.7,153.4,104.7,153.4z"/>
	<path class="st6" d="M104.7,155.8v-1.5h-0.5l0,1.5C104.5,155.9,104.7,155.8,104.7,155.8z"/>
	<path class="st6" d="M104.7,158v-1.3h-0.5l0,1.3C104.5,158.1,104.7,158,104.7,158z"/>
	<path class="st6" d="M104.7,159.8v-0.9c0,0,0-0.2-0.3-0.2c-0.2,0-0.3,0.2-0.3,0.2v0.9C104.5,160.1,104.7,159.8,104.7,159.8z"/>
	<path class="st6" d="M104.5,161.6c0.2,0,0.3-0.1,0.3-0.1v-0.7c-0.1-0.2-0.5-0.2-0.5-0.2l0,0.9C104.2,161.5,104.3,161.6,104.5,161.6
		z"/>
	<path class="st6" d="M104.7,162.4c0-0.2-0.2-0.2-0.4-0.2c-0.2,0-0.2,0.1-0.2,0.1v2c0,0,0,0.2,0.3,0.2c0.3,0,0.3-0.3,0.3-0.3
		S104.7,162.6,104.7,162.4z"/>
	<path class="st6" d="M103.5,162.3c-0.1,0.1-0.1,0.3-0.1,0.5c0.1,0.5,0.5,0.5,0.5,0.5s-0.1-0.4-0.1-0.6c0-0.2,0.3-0.4,0.3-0.4
		l-0.4-0.2C103.8,162,103.6,162.1,103.5,162.3z"/>
	<path class="st6" d="M105,161.9c-0.3-0.1-1.1-0.2-1.3-0.6c-0.2-0.4,0.3-0.8,0.3-0.8l-0.4-0.2c0,0-0.5,0.5-0.2,1.1
		c0.3,0.6,1.1,0.5,1.6,0.8c0.5,0.3,0,1,0,1s0.4,0,0.5-0.5C105.6,162.2,105.3,162,105,161.9z"/>
	<path class="st6" d="M104.6,160.1c-0.3-0.1-1-0.2-1-0.8c0-0.6,0.6-0.6,0.6-0.6l-0.6-0.2c0,0-0.6,0.3-0.5,0.9c0.1,0.6,0.5,0.8,1,1
		c0.5,0.2,1.1,0.2,1.1,0.6c0,0.3-0.1,0.5-0.5,0.7l0.4,0.2c0,0,0.7-0.3,0.5-1C105.4,160.2,104.9,160.2,104.6,160.1z"/>
	<path class="st6" d="M104.9,158.3c-0.4-0.1-1.3-0.1-1.3-0.9c0-0.4,0.5-0.8,0.5-0.8l-0.7-0.3c0,0-0.6,0.3-0.5,1s0.5,0.9,1,1.1
		c0.5,0.2,1.3,0.2,1.4,0.7s-0.6,0.8-0.6,0.8s0.5,0.1,0.6,0.2c0,0,0.6-0.2,0.5-1C105.7,158.4,105.2,158.3,104.9,158.3z"/>
	<path class="st6" d="M104.9,156.1c-1.1-0.3-1.3-0.4-1.3-1c0-0.4,0.5-0.8,0.5-0.8s-0.5-0.2-0.6-0.3c0,0-0.7,0.4-0.5,1.3
		c0.2,0.9,0.7,1,1.1,1.2c0.5,0.2,1.2,0.1,1.3,0.7c0.1,0.6-0.5,0.9-0.5,0.9s0.4,0.1,0.5,0.2c0,0,0.6-0.3,0.6-0.8
		S105.9,156.3,104.9,156.1z"/>
	<path class="st6" d="M104.8,153.7c-0.9-0.2-1.3-0.3-1.3-1c0-0.7,0.7-0.9,0.7-0.9l-0.9-0.2c0,0-0.6,0.4-0.5,1.3
		c0.1,0.9,1,1.1,1.4,1.2c0.4,0.1,1.3,0.2,1.3,0.7c0.1,0.5-0.1,0.8-0.6,1.1c0,0,0.5,0,0.8,0.2c0,0,0.6-0.4,0.5-1.1
		S105.7,153.9,104.8,153.7z"/>
	<path class="st6" d="M104.8,151.1c-0.4-0.1-1.9-0.4-2.2-0.4c-0.3,0-1.1-0.2-0.9-0.6s0.6,0,0.9,0.1c0.3,0.1,1.2,0.2,1.3-0.2
		c0.2-0.4-0.4-0.9-0.9-0.9c-0.4-0.1-1.9-0.1-2.2,0.8s0.7,1.3,1.4,1.4s2.5,0.5,2.8,0.6c0.3,0.1,0.6,0.5,0.5,0.9s-0.7,0.8-0.7,0.8
		l0.8,0.2c0,0,0.7-0.4,0.7-1.3S105.2,151.2,104.8,151.1z"/>
	<path class="st6" d="M107.8,150.9c0.7-0.5,0.3-1.2,0.1-1.4c-0.2-0.2-0.8-0.6-1.9-0.4c-0.6,0.2-0.9,0.5-0.9,0.7c0,0.1,0,0.3,0.1,0.4
		c0.1,0.1,0.4,0.2,0.9,0.1c0.5-0.1,0.7-0.3,0.7-0.3s0.5-0.1,0.5,0.3c0,0.4-1,0.6-2.4,0.8c0,0,0.6,0.2,0.9,0.5
		C105.9,151.4,107.1,151.3,107.8,150.9z"/>
	<path class="st6" d="M104.8,150.1v0.6c0,0,0,0.1,0.1,0.1l0.7-0.1c0,0,0.1-0.1,0-0.1C105.5,150.4,105,149.9,104.8,150.1z"/>
	<path class="st6" d="M106,150.6c0.3,0,0.3-0.3,0.3-0.3h-0.7C105.6,150.3,105.7,150.6,106,150.6z"/>
	<path class="st6" d="M106.3,150.3c0,0,0.1,0.2,0.4,0.2s-0.2-0.3-0.2-0.3C106.4,150.2,106.3,150.3,106.3,150.3z"/>
	<path class="st6" d="M107.1,150.2c0.1-0.1,0-0.2-0.1-0.2c-0.2,0-0.3,0.2-0.3,0.2C106.8,150.3,107,150.3,107.1,150.2z"/>
	<path class="st6" d="M108.3,151.1c0.1-0.2-0.2-0.5-0.2-0.5l-0.5,0.5C107.7,151.2,108.3,151.4,108.3,151.1z"/>
	<path class="st6" d="M109.6,150.8c0.8-0.2-1.6-1.6-1.6-1.6s0.4,0.6,0.2,1.2C108.2,150.5,108.8,151,109.6,150.8z"/>
	<path class="st6" d="M110.7,149.6c-0.4-0.2-1.6-0.8-1.6-0.8s0.4,0.3,0.3,0.6c-0.2,0.3-0.6,0.2-0.6,0.2s0.8,0.7,1.7,0.8
		C111.3,150.4,111.1,149.8,110.7,149.6z"/>
	<path class="st6" d="M109.2,148.6c0,0,0.8,0.5,1.6,0.7c1.7,0.5,2-0.5,2-0.5s-0.6-0.1-1.2-0.3c-0.6-0.2-1.1-0.3-1.2-0.2
		C110,148.7,109.2,148.6,109.2,148.6z"/>
	<path class="st6" d="M104.8,149.3v0.7l0.1,0c0-0.3,0.1-0.5,0.3-0.6c0.5-0.3,0.6-0.4,0.7-0.5c0.1-0.1,0.1-0.2,0.1-0.3
		c0-0.3,0-1.3,0.1-1.6c0.1-0.4,0.8-0.4,0.8-0.4c-0.1-0.2-0.7-0.4-0.9,0c-0.3,0.4-0.2,0.7-0.2,1.7
		C105.6,149.3,104.8,149.3,104.8,149.3z"/>
	<path class="st6" d="M106.1,147.3c0,0.1,0,1.6,0,1.6h0.3l0-0.3c0,0,0.2,0.3,0.3,0.3c0.7,0,1.3,0.6,1.3,0.6c0-0.1-0.1-0.5-0.9-1
		c-0.8-0.6-0.5-0.6-0.5-0.6l1.7,1.4c1,0.5,1.1-0.1,0.9-0.3c-0.2-0.2-0.5-0.5-1.6-1.2c-1.1-0.6-0.9-0.7-0.9-0.7l2.4,1.4
		c1.5,0.1,1.4-0.6,1.4-0.6s-0.3,0.1-1.5-0.3c-1.3-0.4-1.5-0.9-1.8-1C106.3,146.5,106.1,147.1,106.1,147.3z"/>
	<path class="st6" d="M103.3,150.7l0.7,0.1c0,0,0.1,0,0.1-0.1v-0.6C104,149.9,103.5,150.4,103.3,150.7
		C103.2,150.6,103.2,150.7,103.3,150.7z"/>
	<path class="st6" d="M103.4,150.3h-0.7c0,0,0,0.3,0.3,0.3C103.3,150.6,103.4,150.3,103.4,150.3z"/>
	<path class="st6" d="M102.2,150.5c0.4,0.1,0.4-0.2,0.4-0.2s0-0.1-0.2-0.1C102.4,150.2,101.9,150.4,102.2,150.5z"/>
	<path class="st6" d="M102,150c-0.2,0-0.3,0.2-0.1,0.2c0.1,0.1,0.3,0,0.4-0.1C102.3,150.1,102.2,149.9,102,150z"/>
	<path class="st6" d="M100.6,151.1c0.1,0.2,0.7,0.1,0.7,0.1l-0.5-0.5C100.8,150.7,100.5,150.9,100.6,151.1z"/>
	<path class="st6" d="M99.3,150.8c0.8,0.2,1.4-0.3,1.4-0.3c-0.2-0.6,0.2-1.2,0.2-1.2S98.5,150.6,99.3,150.8z"/>
	<path class="st6" d="M99.9,148.7c0,0-1.3,0.6-1.6,0.8c-0.4,0.2-0.6,0.8,0.3,0.8c0.8-0.1,1.7-0.8,1.7-0.8s-0.4,0.1-0.6-0.2
		C99.4,149.1,99.9,148.7,99.9,148.7z"/>
	<path class="st6" d="M98.2,149.3c0.8-0.3,1.6-0.7,1.6-0.7s-0.8,0.1-1.2-0.3c-0.1-0.1-0.7,0.1-1.2,0.2c-0.6,0.2-1.2,0.3-1.2,0.3
		S96.5,149.8,98.2,149.3z"/>
	<path class="st6" d="M102.8,146.9c0.1,0.3,0.1,1.3,0.1,1.6c0,0.1,0,0.2,0.1,0.3c0.1,0.1,0.2,0.2,0.7,0.5c0.2,0.1,0.3,0.3,0.3,0.6
		l0.1,0v-0.7c0,0-0.8,0-0.9-1c0-1,0.1-1.3-0.2-1.7c-0.3-0.4-0.9-0.2-0.9,0C102,146.5,102.8,146.5,102.8,146.9z"/>
	<path class="st6" d="M99.9,148.5l2.4-1.4c0,0,0.2,0.1-0.9,0.7c-1.1,0.6-1.4,0.9-1.6,1.2c-0.2,0.2-0.1,0.8,0.9,0.3l1.7-1.4
		c0,0,0.2,0-0.5,0.6c-0.8,0.6-0.8,1-0.9,1c0,0,0.5-0.6,1.3-0.6c0.2,0,0.3-0.3,0.3-0.3l0,0.3h0.3c0,0,0-1.5,0-1.6
		c0-0.1-0.1-0.8-1-0.6c-0.3,0.1-0.6,0.6-1.8,1c-1.3,0.4-1.5,0.3-1.5,0.3S98.4,148.6,99.9,148.5z"/>
</g>
</svg>
