<?xml version="1.0" encoding="utf-8"?>
<!-- Generator: Adobe Illustrator 27.8.0, SVG Export Plug-In . SVG Version: 6.00 Build 0)  -->
<svg version="1.1" id="Layer_1" xmlns="http://www.w3.org/2000/svg" xmlns:xlink="http://www.w3.org/1999/xlink" x="0px" y="0px"
	 viewBox="0 0 1000 1000" style="enable-background:new 0 0 1000 1000;" xml:space="preserve">
<style type="text/css">
	.st0{fill:#4D91FE;}
	.st1{fill:#BCBEC0;}
</style>
<g>
	<g>
		<path class="st0" d="M574.7,478.4c-9.3,0-16.9-7.4-17.1-16.7c-0.6-27.1-8.5-47.7-23.3-61.4c-23.2-21.3-57.2-19.8-57.5-19.8
			c-9.5,0.6-17.6-6.6-18.2-16c-0.6-9.5,6.6-17.6,16-18.2c2-0.1,48.6-2.7,82.9,28.8c22,20.2,33.6,49.1,34.4,85.8
			c0.2,9.5-7.3,17.3-16.7,17.5C575,478.4,574.9,478.4,574.7,478.4z"/>
	</g>
	<g>
		<path class="st0" d="M489.9,612.1c-88.6,0-160.7-72.1-160.7-160.7c0-88.6,72.1-160.7,160.7-160.7c88.6,0,160.7,72.1,160.7,160.7
			C650.6,540,578.5,612.1,489.9,612.1z M489.9,325c-69.7,0-126.4,56.7-126.4,126.4c0,69.7,56.7,126.4,126.4,126.4
			c69.7,0,126.4-56.7,126.4-126.4C616.3,381.7,559.6,325,489.9,325z"/>
	</g>
	<g>
		<path class="st0" d="M164.7,793.4c-4.4,0-8.8-1.7-12.1-5c-6.7-6.7-6.7-17.6,0-24.3L342.7,574c6.7-6.7,17.6-6.7,24.3,0
			c6.7,6.7,6.7,17.6,0,24.3L176.8,788.4C173.4,791.7,169.1,793.4,164.7,793.4z"/>
	</g>
	<g>
		<path class="st1" d="M497.1,690.8c-45.2,0-86.1-11.1-122.3-33.1l17.9-29.3c101.4,61.9,232.7,8.9,325-46.5
			c77.8-46.7,141.9-103,168.8-128c-24.4-19.8-76.6-61-137.4-101.8C639.9,279,552.8,240.3,497.2,240.3
			c-55.5,0-141.1,38.6-247.5,111.7c-57.7,39.6-107.2,79.7-131.6,100.1l169.6,126l-20.5,27.5l-204-151.5l16-14
			c10.9-9.6,268.7-234,417.9-234c149,0,415,224.3,426.3,233.9l14.2,12l-13.1,13.2C921.2,468.4,842.3,547,736,611
			c-63.1,38-122.8,62.7-177.3,73.5C537.4,688.7,516.8,690.8,497.1,690.8z"/>
	</g>
</g>
</svg>
