<?xml version="1.0" encoding="utf-8"?>
<!-- Generator: Adobe Illustrator 27.8.0, SVG Export Plug-In . SVG Version: 6.00 Build 0)  -->
<svg version="1.1" id="Layer_1" xmlns="http://www.w3.org/2000/svg" xmlns:xlink="http://www.w3.org/1999/xlink" x="0px" y="0px"
	 viewBox="0 0 1000 1000" style="enable-background:new 0 0 1000 1000;" xml:space="preserve">
<style type="text/css">
	.st0{fill:#FFBD35;}
	.st1{fill:#6D6E71;}
	.st2{fill:#F65A27;}
	.st3{fill:#4D91FE;}
	.st4{fill:#FFFFFF;}
	.st5{opacity:0.7;}
	.st6{opacity:0.9;}
	.st7{opacity:0.5;}
	.st8{fill:#A7A9AC;}
	.st9{fill:#BCBEC0;}
</style>
<g>
	<g>
		<g>
			<path class="st0" d="M168.1,527.5c-72,6.6-136-46.7-142.5-118.7s46.7-136,118.7-142.5c72-6.6,136,46.7,142.5,118.7
				C293.4,457,240.1,520.9,168.1,527.5z M145.5,279.7c-64.6,5.9-112.3,63.2-106.4,127.8S102.3,519.9,166.9,514
				c64.6-5.9,112.3-63.2,106.4-127.8C267.4,321.6,210.1,273.8,145.5,279.7z"/>
		</g>
	</g>
	<g>
		<g>
			<path class="st1" d="M103.5,411.4c-1,0-2.1-0.1-3.2-0.3c-1.1-0.2-2.1-0.4-3-0.7c-0.9-0.3-1.7-0.6-2.2-0.8l0.5-4.9
				c0.8,0.4,1.7,0.8,2.6,1.1c0.9,0.4,1.9,0.6,2.8,0.9c1,0.2,1.9,0.3,2.9,0.3c1.2,0,2.2-0.2,3-0.7c0.7-0.5,1.1-1.2,1.1-2.2
				c0-0.8-0.2-1.4-0.6-1.8s-1.1-0.9-1.9-1.2c-0.9-0.4-2-0.8-3.3-1.3c-1.4-0.5-2.6-1-3.6-1.6c-1.1-0.6-1.9-1.4-2.6-2.3
				c-0.6-0.9-0.9-2.1-0.9-3.5c0-1.4,0.3-2.6,1-3.7c0.7-1.1,1.7-1.9,3.1-2.6c1.4-0.6,3.1-0.9,5.1-0.9c1.5,0,3,0.2,4.4,0.5
				c1.4,0.3,2.6,0.7,3.6,1.1l-0.5,4.7c-1.4-0.6-2.8-1.1-4-1.5s-2.5-0.5-3.8-0.5c-1.4,0-2.4,0.2-3.1,0.7c-0.7,0.4-1.1,1.1-1.1,2
				c0,0.7,0.2,1.3,0.6,1.7s1,0.8,1.8,1.1c0.8,0.3,1.7,0.6,2.7,1c1.8,0.6,3.4,1.2,4.6,1.9c1.2,0.7,2.2,1.5,2.8,2.5
				c0.6,1,0.9,2.2,0.9,3.6c0,0.7-0.1,1.5-0.3,2.4c-0.2,0.9-0.7,1.7-1.4,2.4c-0.7,0.8-1.7,1.4-3,1.9
				C107.3,411.2,105.6,411.4,103.5,411.4z"/>
			<path class="st1" d="M127.3,411.4c-2.4,0-4.3-0.5-5.9-1.4c-1.5-0.9-2.7-2.3-3.5-4c-0.8-1.7-1.1-3.7-1.1-6v-14.5h4.6v13.3
				c0,1.2,0.1,2.3,0.2,3.3c0.2,1,0.4,1.9,0.9,2.6c0.4,0.7,1,1.3,1.8,1.7c0.8,0.4,1.8,0.6,3,0.6c1.2,0,2.2-0.2,3-0.6
				c0.8-0.4,1.4-0.9,1.8-1.7c0.4-0.7,0.7-1.6,0.9-2.6c0.2-1,0.2-2.1,0.2-3.3v-13.3h4.6v14.5c0,2.3-0.4,4.3-1.1,6
				c-0.8,1.7-1.9,3-3.5,4C131.6,410.9,129.7,411.4,127.3,411.4z"/>
			<path class="st1" d="M143.1,410.9v-25.3h9c1.9,0,3.6,0.3,4.9,0.9c1.3,0.6,2.4,1.5,3,2.7c0.7,1.2,1,2.7,1,4.6c0,1.9-0.3,3.5-1,4.7
				c-0.7,1.2-1.7,2.2-3,2.7c-1.3,0.6-2.9,0.9-4.8,0.9h-4.5v8.8H143.1z M147.7,398.2h3.9c1.6,0,2.8-0.4,3.6-1.1
				c0.8-0.7,1.2-1.8,1.2-3.3c0-1.5-0.4-2.6-1.2-3.3c-0.8-0.7-2-1-3.6-1h-3.8V398.2z"/>
			<path class="st1" d="M164.6,410.9v-25.3h9c1.9,0,3.6,0.3,4.9,0.9c1.3,0.6,2.4,1.5,3,2.7c0.7,1.2,1,2.7,1,4.6c0,1.9-0.3,3.5-1,4.7
				c-0.7,1.2-1.7,2.2-3,2.7c-1.3,0.6-2.9,0.9-4.8,0.9h-4.5v8.8H164.6z M169.3,398.2h3.9c1.6,0,2.8-0.4,3.6-1.1
				c0.8-0.7,1.2-1.8,1.2-3.3c0-1.5-0.4-2.6-1.2-3.3c-0.8-0.7-2-1-3.6-1h-3.8V398.2z"/>
			<path class="st1" d="M186.2,410.9v-25.3h4.6v21.2h10.4v4.1H186.2z"/>
			<path class="st1" d="M206.5,410.9v-10.2l-8.9-15.1h5.1l7.2,12.8h-2.2l7.2-12.8h5.1l-8.9,15.1v10.2H206.5z"/>
		</g>
	</g>
	<g>
		<g>
			<g>
				<path class="st2" d="M855.7,464.8c-72,6.6-136-46.7-142.5-118.7s46.7-136,118.7-142.5c72-6.6,136,46.7,142.5,118.7
					C981,394.3,927.8,458.2,855.7,464.8z M833.1,217c-64.6,5.9-112.3,63.2-106.4,127.8s63.2,112.3,127.8,106.4
					c64.6-5.9,112.3-63.2,106.4-127.8S897.7,211.1,833.1,217z"/>
			</g>
		</g>
	</g>
	<g>
		<g>
			<path class="st1" d="M774.3,354.3v-24.5h9.2c2.3,0,4.4,0.5,6.2,1.5c1.8,1,3.3,2.4,4.3,4.2c1,1.8,1.6,4,1.6,6.6s-0.5,4.8-1.6,6.6
				c-1,1.8-2.5,3.2-4.3,4.2c-1.8,1-3.9,1.5-6.2,1.5H774.3z M778.8,350.3h4.7c1.6,0,2.9-0.3,4-1c1.1-0.7,1.9-1.6,2.4-2.9
				c0.5-1.2,0.8-2.7,0.8-4.4s-0.3-3.2-0.8-4.4c-0.5-1.2-1.3-2.2-2.4-2.9c-1.1-0.7-2.4-1-4-1h-4.7V350.3z"/>
			<path class="st1" d="M799.6,354.3v-24.5h15.7v4.3h-11.1v5.2h8.6v4.3h-8.6v6.3h11.5v4.3H799.6z"/>
			<path class="st1" d="M818.3,354.3l3.4-24.5h3.7l6,11.2l6-11.2h3.7l3.4,24.5h-4.7l-2.3-18.4l1.2,0.2l-7.3,13l-7.3-13l1.2-0.2
				l-2.3,18.4H818.3z"/>
			<path class="st1" d="M856.4,334.2h1.2l-7.1,20.2h-4.3l8.7-24.5h4.2l8.7,24.5h-4.3L856.4,334.2z M862.1,348.5h-10.3v-3.9h10.3
				V348.5z"/>
			<path class="st1" d="M870.6,354.3v-24.5h4.4l10.5,15.8v-15.8h4.5v24.5h-3.7l-11.2-16.8v16.8H870.6z"/>
			<path class="st1" d="M895.4,354.3v-24.5h9.2c2.3,0,4.4,0.5,6.2,1.5c1.8,1,3.3,2.4,4.3,4.2c1,1.8,1.6,4,1.6,6.6s-0.5,4.8-1.6,6.6
				c-1,1.8-2.5,3.2-4.3,4.2c-1.8,1-3.9,1.5-6.2,1.5H895.4z M899.9,350.3h4.7c1.6,0,2.9-0.3,4-1c1.1-0.7,1.9-1.6,2.4-2.9
				c0.5-1.2,0.8-2.7,0.8-4.4s-0.3-3.2-0.8-4.4c-0.5-1.2-1.3-2.2-2.4-2.9c-1.1-0.7-2.4-1-4-1h-4.7V350.3z"/>
		</g>
	</g>
	<g>
		
			<rect x="165.8" y="504.6" transform="matrix(0.9959 -9.080032e-02 9.080032e-02 0.9959 -46.9856 17.4119)" class="st1" width="4.2" height="41.1"/>
	</g>
	<circle class="st1" cx="166" cy="504.6" r="10"/>
	<g>
		
			<rect x="853.4" y="441.9" transform="matrix(0.9959 -9.080032e-02 9.080032e-02 0.9959 -38.4521 79.5913)" class="st1" width="4.2" height="41.1"/>
	</g>
	
		<ellipse transform="matrix(0.9959 -9.079999e-02 9.079999e-02 0.9959 -36.602 79.3371)" class="st1" cx="853.7" cy="441.9" rx="10" ry="10"/>
	<g>
		<g>
			<path class="st3" d="M712,797H305.2c-8,0-14.6-4.4-14.6-9.9v-58.8c0-5.4,6.5-9.9,14.6-9.9H712c8,0,14.6,4.4,14.6,9.9v58.8
				C726.6,792.6,720.1,797,712,797z"/>
		</g>
		<g>
			<path class="st4" d="M362.8,770v-24.5h9.2c2.3,0,4.4,0.5,6.2,1.5c1.8,1,3.3,2.4,4.3,4.2c1,1.8,1.6,4,1.6,6.6
				c0,2.6-0.5,4.8-1.6,6.6c-1,1.8-2.5,3.2-4.3,4.2c-1.8,1-3.9,1.5-6.2,1.5H362.8z M367.3,766h4.7c1.6,0,2.9-0.3,4-1
				c1.1-0.7,1.9-1.6,2.4-2.9c0.5-1.2,0.8-2.7,0.8-4.4c0-1.7-0.3-3.2-0.8-4.4c-0.5-1.2-1.3-2.2-2.4-2.9c-1.1-0.7-2.4-1-4-1h-4.7V766z
				"/>
			<path class="st4" d="M395.3,749.9h1.2l-7.1,20.2h-4.3l8.7-24.5h4.2l8.7,24.5h-4.3L395.3,749.9z M401.1,764.2h-10.3v-3.9h10.3
				V764.2z"/>
			<path class="st4" d="M412.5,770v-20.2h-6.9v-4.3h18.4v4.3H417V770H412.5z"/>
			<path class="st4" d="M433,749.9h1.2L427,770h-4.3l8.7-24.5h4.2l8.7,24.5h-4.3L433,749.9z M438.7,764.2h-10.3v-3.9h10.3V764.2z"/>
			<path class="st4" d="M455.1,770v-24.5h8.7c1.9,0,3.5,0.3,4.8,0.8c1.3,0.6,2.3,1.4,3,2.6c0.7,1.2,1,2.7,1,4.5c0,1.8-0.3,3.4-1,4.6
				c-0.7,1.2-1.6,2.1-2.9,2.7c-1.3,0.6-2.9,0.9-4.7,0.9h-4.3v8.5H455.1z M459.6,757.8h3.8c1.5,0,2.7-0.3,3.4-1
				c0.8-0.7,1.1-1.8,1.1-3.2c0-1.5-0.4-2.5-1.2-3.2c-0.8-0.7-2-1-3.5-1h-3.7V757.8z"/>
			<path class="st4" d="M476,770v-24.5h9c1.7,0,3.2,0.3,4.4,0.8c1.3,0.5,2.3,1.4,3,2.5c0.7,1.1,1.1,2.5,1.1,4.2
				c0,1.8-0.4,3.2-1.1,4.3c-0.8,1.1-1.8,1.9-3,2.5l5.5,10.3h-5l-4.7-9.1c0,0-0.1,0-0.1,0c0,0-0.1,0-0.1,0h-4.4v9.1H476z
				 M480.5,757.2h3.3c1.8,0,3.1-0.4,3.9-1.1c0.7-0.8,1.1-1.7,1.1-2.9c0-1.2-0.4-2.2-1.1-2.9c-0.7-0.7-1.9-1-3.7-1h-3.5V757.2z"/>
			<path class="st4" d="M508.6,770.5c-2.3,0-4.4-0.5-6.2-1.6c-1.8-1.1-3.3-2.5-4.3-4.5c-1-1.9-1.6-4.2-1.6-6.7
				c0-2.6,0.5-4.8,1.6-6.7c1-1.9,2.5-3.4,4.3-4.5c1.8-1.1,3.9-1.6,6.2-1.6c2.3,0,4.4,0.5,6.2,1.6c1.8,1.1,3.3,2.5,4.3,4.5
				s1.6,4.2,1.6,6.7c0,2.6-0.5,4.8-1.6,6.7s-2.5,3.4-4.3,4.5C513,770,510.9,770.5,508.6,770.5z M508.6,766.2c1.6,0,3-0.4,4.1-1.1
				c1.1-0.7,1.9-1.7,2.5-3c0.5-1.3,0.8-2.7,0.8-4.3c0-1.6-0.3-3.1-0.8-4.3c-0.6-1.3-1.4-2.3-2.5-3c-1.1-0.7-2.5-1.1-4.1-1.1
				c-1.6,0-3,0.4-4.1,1.1c-1.1,0.7-1.9,1.7-2.5,3c-0.6,1.3-0.8,2.7-0.8,4.3c0,1.6,0.3,3.1,0.8,4.3c0.5,1.3,1.4,2.3,2.5,3
				S506.9,766.2,508.6,766.2z"/>
			<path class="st4" d="M524.6,770v-24.5h9.2c2.3,0,4.4,0.5,6.2,1.5c1.8,1,3.3,2.4,4.3,4.2c1,1.8,1.6,4,1.6,6.6
				c0,2.6-0.5,4.8-1.6,6.6c-1,1.8-2.5,3.2-4.3,4.2c-1.8,1-3.9,1.5-6.2,1.5H524.6z M529.1,766h4.7c1.6,0,2.9-0.3,4-1
				c1.1-0.7,1.9-1.6,2.4-2.9c0.5-1.2,0.8-2.7,0.8-4.4c0-1.7-0.3-3.2-0.8-4.4c-0.5-1.2-1.3-2.2-2.4-2.9c-1.1-0.7-2.4-1-4-1h-4.7V766z
				"/>
			<path class="st4" d="M559.7,770.5c-2.3,0-4.2-0.5-5.7-1.4c-1.5-0.9-2.6-2.2-3.4-3.8c-0.7-1.6-1.1-3.6-1.1-5.8v-14h4.5v12.9
				c0,1.2,0.1,2.2,0.2,3.2c0.2,1,0.4,1.8,0.8,2.5c0.4,0.7,1,1.2,1.7,1.6c0.7,0.4,1.7,0.6,2.9,0.6c1.2,0,2.1-0.2,2.9-0.6
				c0.7-0.4,1.3-0.9,1.7-1.6c0.4-0.7,0.7-1.5,0.8-2.5c0.2-1,0.2-2,0.2-3.2v-12.9h4.5v14c0,2.2-0.4,4.2-1.1,5.8
				c-0.7,1.6-1.9,2.9-3.4,3.8C563.9,770.1,562,770.5,559.7,770.5z"/>
			<path class="st4" d="M586.1,770.5c-2.5,0-4.7-0.5-6.6-1.6c-1.9-1.1-3.4-2.5-4.4-4.5c-1.1-1.9-1.6-4.2-1.6-6.7
				c0-2.6,0.5-4.8,1.6-6.7s2.6-3.4,4.5-4.5c1.9-1.1,4.1-1.6,6.6-1.6c1.3,0,2.5,0.1,3.6,0.4c1.1,0.3,2,0.6,2.8,1l-0.5,4.3
				c-0.9-0.4-1.8-0.7-2.7-1c-0.9-0.3-2-0.4-3.1-0.4c-1.7,0-3.2,0.4-4.3,1.1c-1.2,0.7-2,1.7-2.6,3c-0.6,1.3-0.9,2.7-0.9,4.4
				s0.3,3.1,0.9,4.4c0.6,1.3,1.4,2.3,2.6,3c1.1,0.7,2.6,1.1,4.3,1.1c1.2,0,2.2-0.1,3.2-0.4c0.9-0.3,1.9-0.6,2.8-1l0.5,4.3
				c-0.9,0.4-1.9,0.8-3,1C588.5,770.4,587.3,770.5,586.1,770.5z"/>
			<path class="st4" d="M601.1,770v-20.2h-6.9v-4.3h18.4v4.3h-6.9V770H601.1z"/>
		</g>
		<g class="st5">
			<g>
				<path class="st3" d="M889.8,795.6h-71.9v-49.2h71.9c6.9,0,12.5,3.8,12.5,8.5v32.3C902.3,791.8,896.6,795.6,889.8,795.6z"/>
			</g>
		</g>
		<g class="st6">
			<g>
				<path class="st3" d="M800.9,795.6h-65.7v-64.1h65.7c6.9,0,12.5,3.8,12.5,8.5v47.2C813.4,791.8,807.8,795.6,800.9,795.6z"/>
			</g>
		</g>
		<g class="st7">
			<g>
				<path class="st3" d="M938.1,795.6h-31.4v-38.1h31.4c6.9,0,12.5,3.8,12.5,8.5v21.2C950.6,791.8,945,795.6,938.1,795.6z"/>
			</g>
		</g>
		<g>
			<polygon class="st8" points="508.6,528 508.6,718.5 431.4,718.5 			"/>
			<polygon class="st9" points="508.6,528 508.6,718.5 585.8,718.5 			"/>
		</g>
		<rect x="397.3" y="718.5" class="st3" width="222.6" height="14.4"/>
		<g>
			<g class="st5">
				<g>
					<path class="st3" d="M114.9,787.2v-32.3c0-4.7,5.6-8.5,12.5-8.5h71.9v49.2h-71.9C120.5,795.6,114.9,791.8,114.9,787.2z"/>
				</g>
			</g>
			<g class="st6">
				<g>
					<path class="st3" d="M203.8,787.2V740c0-4.7,5.6-8.5,12.5-8.5H282v64.1h-65.7C209.4,795.6,203.8,791.8,203.8,787.2z"/>
				</g>
			</g>
			<g class="st7">
				<g>
					<path class="st3" d="M66.6,787.2V766c0-4.7,5.6-8.5,12.5-8.5h31.4v38.1H79.1C72.2,795.6,66.6,791.8,66.6,787.2z"/>
				</g>
			</g>
		</g>
	</g>
	<path class="st9" d="M938.6,471.3L76.9,549.9c-5.2,0.5-9,5-8.5,10.2l0,0c0.5,5.2,5,9,10.2,8.5L940.3,490c5.2-0.5,9-5,8.5-10.2l0,0
		C948.3,474.6,943.7,470.8,938.6,471.3z"/>
</g>
</svg>
