<?xml version="1.0" encoding="utf-8"?>
<!-- Generator: Adobe Illustrator 27.8.0, SVG Export Plug-In . SVG Version: 6.00 Build 0)  -->
<svg version="1.1" id="Layer_1" xmlns="http://www.w3.org/2000/svg" xmlns:xlink="http://www.w3.org/1999/xlink" x="0px" y="0px"
	 viewBox="0 0 1000 1000" style="enable-background:new 0 0 1000 1000;" xml:space="preserve">
<style type="text/css">
	.st0{fill:#F1F2F2;}
	.st1{fill:#4D91FE;}
	.st2{fill:#FFBD35;}
	.st3{fill:#FFFFFF;}
	.st4{fill:#F65A27;}
	.st5{fill:#7DD882;}
	.st6{fill:#656565;}
</style>
<g>
	<circle class="st0" cx="497.7" cy="483.8" r="248.5"/>
	<path class="st1" d="M242,323.6c0,0,14-21.8,25.6-34.7c5.3-5.8,20.1-23.1,37.8-37.2c21.4-17.2,46.4-31.6,58.7-38.1
		c0,0-5.2-6.3-5.3-13.9c0,0-28.6,14-46.4,27.9s-30.5,24.5-38.8,33.1c-8.3,8.6-30.5,32-45.3,57c0,0,5.8,1.1,11.7,7.8"/>
	<path class="st2" d="M404.9,181.6c0,0,4.5,9.2,4.5,14c0,0,31.7-10.7,78.1-13c4.3-0.2,8.8-0.2,13.4-0.2c18,0.2,37.1,2.3,52.4,5.1
		c22.4,4.1,37.5,9.5,37.5,9.5s-2.1-3.9,4.2-14.1c0,0-21.7-8.2-56.4-12.5c-8.4-1.1-17.5-1.9-27.3-2.3c-3.5-0.1-7.1-0.2-10.8-0.3
		c-2.3,0-4.6,0-7,0c-26,0-45.9,3.6-60.4,6.5C414.3,178.2,404.9,181.6,404.9,181.6z"/>
	<g>
		<circle class="st3" cx="385.1" cy="197.7" r="24.3"/>
		<path class="st1" d="M385.1,224.3c-14.7,0-26.6-11.9-26.6-26.6c0-14.7,11.9-26.6,26.6-26.6s26.6,11.9,26.6,26.6
			C411.7,212.3,399.8,224.3,385.1,224.3z M385.1,175.6c-12.2,0-22.1,9.9-22.1,22.1c0,12.2,9.9,22.1,22.1,22.1
			c12.2,0,22.1-9.9,22.1-22.1C407.2,185.5,397.3,175.6,385.1,175.6z"/>
	</g>
	<path class="st2" d="M221.5,640.4l13.6-6.1c0,0,17.2,28.4,28.6,41.6c5.4,6.2,15.5,18.2,28.9,30.7c14.9,14,35.7,28.8,48.9,36.9
		c0,0,21.6,12.1,35,18.2c3.2,1.4,5.8,2.5,7.8,3.3c9.1,3.5,31,11.3,49.7,15.3c2.8,0.6,5.7,1.2,8.4,1.7c20.1,3,32.5,4.2,32.5,4.2
		l-0.5,14.6c0,0-16.4-1.3-25.5-2.9c-3.8-0.6-12.1-2-22.3-4.3c-14.5-3.3-32.6-8.3-46.2-14.4c-4.1-1.9-8.6-3.5-13.2-5.6
		c-6.4-2.9-13.2-6.3-19.8-9.8c-15.3-8.1-30-17.7-39.5-25.3c-1.8-1.4-3.6-2.8-5.5-4.2c-3.3-2.6-6.7-5.4-10.1-8.3
		c-12.4-10.6-24.7-22.2-31.3-30.7c-1.6-1.9-3.3-3.7-5-5.7c-2.9-3.5-6-7.3-9-11.1c-6.4-8.2-12.2-16.5-15.7-22.2
		c-2.4-3.9-4.5-7.1-6-9.7C222.8,642.7,221.5,640.4,221.5,640.4z"/>
	<path class="st1" d="M518.4,786.4c0,0,43.1-1.9,84.5-18.2c21.8-8.6,40-17.6,56.3-27.9c7.2-4.6,14.2-9.3,20.8-14.4
		c6.8-5.2,13.2-10.8,19.8-16.3c0,0,17.6-16.9,22.6-22.5s17.1-20,20.4-25.1c3.3-5.2,13.4-20.1,13.4-20.1l13,7.2
		c0,0-10.7,17-16.7,24.8c-6,7.8-23.1,29.5-35.2,39.8c-9.3,8.6-29.1,25.9-43,34.7c-13.9,8.8-35.4,23-67.6,34.4
		c-16.7,6-28.5,9.1-37.8,11.2c-8.5,2-14.9,3.2-21.2,4c-13.2,1.8-19.7,2.7-28,3.1L518.4,786.4z"/>
	<g>
		<circle class="st3" cx="497.8" cy="794.4" r="24.3"/>
		<path class="st1" d="M497.8,821c-14.7,0-26.6-11.9-26.6-26.6c0-14.7,11.9-26.6,26.6-26.6s26.6,11.9,26.6,26.6
			C524.4,809.1,512.4,821,497.8,821z M497.8,772.3c-12.2,0-22.1,9.9-22.1,22.1c0,12.2,9.9,22.1,22.1,22.1c12.2,0,22.1-9.9,22.1-22.1
			C519.8,782.2,509.9,772.3,497.8,772.3z"/>
	</g>
	<path class="st4" d="M776.7,368.1c0,0,5.1,12.3,7.5,19.9c2.5,7.6,10.3,32.6,12.6,52.2c2.3,19.5,4.9,42.2,2.7,64.1
		c-2.2,21.9-5.7,46.1-10.4,61.4c-4.7,15.3-11.5,34.1-15.1,41.9l13.5,6c0,0,5.9-13.3,7.1-17.4c1.6-4.4,8.1-22.9,9.5-29.8
		c0.4-1.4,1.7-6.5,2.9-12c1.6-7.6,3.1-16.1,3.1-16.1l1.5-9.5c0,0,0.7-5.2,1-7.7c0.3-2.4,1.3-13.3,1.5-17.7c0.2-4.4,0.7-16,0.5-23.1
		c-0.2-7.1,0-8.3-1.4-25.7c-2.1-17.6-2.6-20.5-3.1-23.8c-0.6-3.2-3.3-16.9-3.9-19.3c-0.6-2.4-4-15.3-4.6-17.3
		c-0.6-2-4.9-15.2-6.2-18.6c-1.2-3.3-3.5-9.1-4.3-11.1L776.7,368.1z"/>
	<g>
		<circle class="st3" cx="773.4" cy="628.3" r="24.3"/>
		<path class="st5" d="M773.4,654.9c-14.7,0-26.6-11.9-26.6-26.6s11.9-26.6,26.6-26.6c14.7,0,26.6,11.9,26.6,26.6
			S788.1,654.9,773.4,654.9z M773.4,606.2c-12.2,0-22.1,9.9-22.1,22.1s9.9,22.1,22.1,22.1s22.1-9.9,22.1-22.1
			S785.6,606.2,773.4,606.2z"/>
	</g>
	<path class="st4" d="M217.8,598.8c0,0-9.3-23.3-12.8-38.6c-1.7-7.2-5.3-22.7-7.4-39.6c-2.3-19-2.9-39.8-1.6-52.9
		c0,0,2.5-28.3,4.9-39.7s6-27.8,10.9-41.1c4.9-13.3,11-27.7,11-27.7l-13.7-5.5c0,0-3.2,6.4-6.7,15.8c-3.5,9.4-10.4,28.3-13.7,45.1
		s-5.9,33.4-6.6,42.9s-1.4,32.4-0.8,42.7c0.7,10.3,3.1,37,7,53c0,0,5.2,20.8,6.7,25.3c1.4,4.5,8,22.9,9.3,26L217.8,598.8z"/>
	<g>
		<circle class="st3" cx="221.3" cy="340.9" r="24.3"/>
		<path class="st4" d="M221.3,367.5c-14.7,0-26.6-11.9-26.6-26.6c0-14.7,11.9-26.6,26.6-26.6c14.7,0,26.6,11.9,26.6,26.6
			C247.9,355.6,236,367.5,221.3,367.5z M221.3,318.9c-12.2,0-22.1,9.9-22.1,22.1s9.9,22.1,22.1,22.1c12.2,0,22.1-9.9,22.1-22.1
			S233.5,318.9,221.3,318.9z"/>
	</g>
	<g>
		<circle class="st3" cx="219.9" cy="620.5" r="24.3"/>
		<path class="st2" d="M219.9,647.1c-14.7,0-26.6-11.9-26.6-26.6s11.9-26.6,26.6-26.6s26.6,11.9,26.6,26.6S234.5,647.1,219.9,647.1z
			 M219.9,598.4c-12.2,0-22.1,9.9-22.1,22.1c0,12.2,9.9,22.1,22.1,22.1s22.1-9.9,22.1-22.1C241.9,608.3,232,598.4,219.9,598.4z"/>
	</g>
	<path class="st5" d="M627.8,211.9c0,0,9.8,4.7,16.3,8.4c6.4,3.7,26.9,16.5,33.8,21.8c6.9,5.3,27.7,22.8,34.9,30.3
		c3.5,3.6,11.4,12.1,18.2,20.1c7.1,8.4,13,16.4,17.1,22.8c0,0,11.2,17.6,13.4,21.6l13.2-6.6c0,0-10.9-18.4-15.4-24.7
		c-2.2-3.1-7.6-10.9-14.3-19.2c-6.9-8.5-15.1-17.7-19.8-22.4c0,0-23.5-23.3-38.4-33.7c-14.9-10.5-38.9-25.4-50.6-30.8L627.8,211.9z"
		/>
	<g>
		<circle class="st3" cx="614.3" cy="197.7" r="24.3"/>
		<path class="st2" d="M614.3,224.3c-14.7,0-26.6-11.9-26.6-26.6s11.9-26.6,26.6-26.6c14.7,0,26.6,11.9,26.6,26.6
			S629,224.3,614.3,224.3z M614.3,175.6c-12.2,0-22.1,9.9-22.1,22.1c0,12.2,9.9,22.1,22.1,22.1c12.2,0,22.1-9.9,22.1-22.1
			C636.4,185.5,626.5,175.6,614.3,175.6z"/>
	</g>
	<g>
		<circle class="st3" cx="779" cy="348.4" r="24.3"/>
		<path class="st4" d="M779,375c-14.7,0-26.6-11.9-26.6-26.6c0-14.7,11.9-26.6,26.6-26.6c14.7,0,26.6,11.9,26.6,26.6
			C805.6,363.1,793.7,375,779,375z M779,326.3c-12.2,0-22.1,9.9-22.1,22.1s9.9,22.1,22.1,22.1c12.2,0,22.1-9.9,22.1-22.1
			S791.2,326.3,779,326.3z"/>
	</g>
	<g>
		<g>
			<path class="st1" d="M337.9,162.4c-37.3,0-67.6-30.3-67.6-67.6c0-37.3,30.3-67.6,67.6-67.6s67.6,30.3,67.6,67.6
				C405.4,132.1,375.1,162.4,337.9,162.4z"/>
		</g>
		<path class="st3" d="M356.7,91.3c-0.7-0.7-1.6-1.4-2.4-2l-6.2-14.9c-0.9-2.1-2.1-4-3.7-5.6c-1.6-1.6-3.5-2.9-5.6-3.7
			c-2.1-0.9-4.3-1.3-6.6-1.3c-2.3,0-4.5,0.4-6.6,1.3c-2.1,0.9-4,2.1-5.6,3.7c-1.6,1.6-2.9,3.5-3.7,5.6c-0.9,2.1-1.3,4.3-1.3,6.6
			c0,2.3,0.4,4.5,1.3,6.6l0.9,2.2l6.4-2.6l-0.9-2.2c-1-2.5-1.1-5.3,0-7.9c0.5-1.3,1.3-2.4,2.2-3.3c1-1,2.1-1.7,3.3-2.2
			c2.5-1,5.4-1,7.9,0c2.5,1,4.5,3,5.6,5.6l3.6,8.7c-3.6-0.5-7.3-0.1-10.6,1.3c-2.5,1-4.7,2.5-6.6,4.4c-1.9,1.9-3.4,4.1-4.4,6.6
			c-1,2.5-1.5,5.1-1.5,7.8c0,2.7,0.5,5.3,1.6,7.8c1,2.5,2.5,4.7,4.4,6.6c1.9,1.9,4.1,3.4,6.6,4.4c2.5,1,5.1,1.6,7.8,1.6
			c2.7,0,5.3-0.5,7.8-1.5s4.7-2.5,6.6-4.4c1.9-1.9,3.4-4.1,4.4-6.6c1-2.5,1.5-5.1,1.5-7.8c0-2.7-0.5-5.3-1.6-7.8
			C360.1,95.5,358.6,93.2,356.7,91.3L356.7,91.3z M347.6,118.1c-6.8,2.8-14.7-0.4-17.5-7.2c-2.8-6.8,0.4-14.7,7.2-17.5
			c3.3-1.4,7-1.4,10.2,0c3.3,1.4,5.9,4,7.2,7.2c1.4,3.3,1.3,7,0,10.2C353.4,114.2,350.8,116.8,347.6,118.1z M347.8,103.6
			c2.9,7-7.6,11.3-10.5,4.3C334.4,101,344.9,96.6,347.8,103.6z"/>
	</g>
	<g>
		<g>
			<path class="st2" d="M659.8,160.1c-37.3,0-67.6-30.3-67.6-67.6c0-37.3,30.3-67.6,67.6-67.6c37.3,0,67.6,30.3,67.6,67.6
				C727.4,129.8,697.1,160.1,659.8,160.1z"/>
		</g>
		<g>
			<g>
				<path class="st3" d="M684.1,120.4h-8.6c-2,0-3.6-1.6-3.6-3.6v-8.6c0-2,1.6-3.6,3.6-3.6c2,0,3.6,1.6,3.6,3.6v5h5
					c2,0,3.6,1.6,3.6,3.6S686.1,120.4,684.1,120.4z M635.5,120.4c-2,0-3.6-1.6-3.6-3.6v-8.6c0-2,1.6-3.6,3.6-3.6h8.6
					c2,0,3.6,1.6,3.6,3.6c0,2-1.6,3.6-3.6,3.6h-5v5C639.1,118.8,637.5,120.4,635.5,120.4z M684.1,80.4h-8.6c-2,0-3.6-1.6-3.6-3.6
					s1.6-3.6,3.6-3.6h5v-5c0-2,1.6-3.6,3.6-3.6c2,0,3.6,1.6,3.6,3.6v8.6C687.7,78.8,686.1,80.4,684.1,80.4z M644.1,80.4
					c-2,0-3.6-1.6-3.6-3.6v-5h-5c-2,0-3.6-1.6-3.6-3.6s1.6-3.6,3.6-3.6h8.6c2,0,3.6,1.6,3.6,3.6v8.6
					C647.7,78.8,646.1,80.4,644.1,80.4z"/>
			</g>
			<g>
				<path class="st3" d="M659.8,124.7c-10.8,0-20.9-5.4-26.9-14.5c-1.1-1.6-0.6-3.9,1-5c1.6-1.1,3.9-0.6,4.9,1
					c5.3,8.1,15,12.4,24.7,11c2-0.3,3.8,1.1,4.1,3c0.3,2-1.1,3.8-3,4.1C663,124.6,661.4,124.7,659.8,124.7z M675.5,120
					c-1.2,0-2.3-0.6-3-1.6c-1.1-1.6-0.6-3.9,1-5c7-4.7,11.3-12.5,11.3-20.9c0-1.3-0.1-2.5-0.3-3.8c-0.3-2,1-3.8,3-4.1
					c2-0.3,3.8,1,4.1,3c0.2,1.6,0.4,3.2,0.4,4.8c0,10.8-5.4,20.9-14.5,26.9C676.9,119.8,676.2,120,675.5,120z M631.5,100.4
					c-1.7,0-3.3-1.3-3.5-3c-0.2-1.6-0.4-3.2-0.4-4.8c0-10.8,5.4-20.9,14.5-26.9c1.6-1.1,3.9-0.6,4.9,1c1.1,1.6,0.6,3.9-1,4.9
					c-7,4.7-11.3,12.5-11.3,20.9c0,1.3,0.1,2.5,0.3,3.8c0.3,2-1,3.8-3,4.1C631.9,100.4,631.7,100.4,631.5,100.4z M683.7,80.4
					c-1.2,0-2.3-0.6-3-1.6c-4.6-7-12.5-11.3-20.9-11.3c-1.3,0-2.5,0.1-3.8,0.3c-2,0.3-3.8-1.1-4.1-3c-0.3-2,1.1-3.8,3-4.1
					c1.6-0.2,3.2-0.4,4.8-0.4c10.8,0,20.9,5.4,26.9,14.5c1.1,1.6,0.6,3.9-1,5C685,80.2,684.4,80.4,683.7,80.4z"/>
			</g>
		</g>
	</g>
	<g>
		<g>
			<path class="st4" d="M882.3,371.6c-37.3,0-67.6-30.3-67.6-67.6c0-37.3,30.3-67.6,67.6-67.6s67.6,30.3,67.6,67.6
				C949.8,341.3,919.5,371.6,882.3,371.6z"/>
		</g>
		<path class="st3" d="M913,312.3c-0.6-0.6-1.3-1.1-2.1-1.4c-0.8-0.3-1.7-0.4-2.6-0.3s-1.7,0.5-2.4,1c-0.7,0.5-1.3,1.2-1.7,2
			l-15.9-0.8c-0.5-1.3-1.4-2.3-2.6-2.9l0.5-11.4c0.8-0.3,1.5-0.8,2.1-1.5c0.6-0.7,1-1.4,1.2-2.3c0.2-0.8,0.2-1.7,0-2.6
			s-0.6-1.6-1.2-2.3c-0.6-0.6-1.3-1.1-2.1-1.4c-0.8-0.3-1.7-0.4-2.6-0.3c-0.9,0.1-1.7,0.5-2.4,1c-0.7,0.5-1.3,1.2-1.7,2l-19-0.9
			c-0.4-1.2-1.3-2.1-2.3-2.7s-2.3-0.8-3.5-0.7c-1.2,0.2-2.3,0.8-3.1,1.7c-0.8,0.9-1.3,2.1-1.4,3.3c-0.1,1.2,0.3,2.4,1,3.4
			c0.7,1,1.8,1.7,3,2c1.2,0.3,2.5,0.2,3.6-0.3c1.1-0.5,2-1.4,2.6-2.5l19,0.9c0.5,1.3,1.4,2.3,2.6,2.9l-0.5,11.4
			c-0.8,0.3-1.5,0.8-2.1,1.5s-1,1.4-1.2,2.3c-0.2,0.8-0.2,1.7,0,2.6c0.2,0.8,0.6,1.6,1.2,2.3c0.6,0.6,1.3,1.1,2.1,1.4
			c0.8,0.3,1.7,0.4,2.6,0.3c0.9-0.1,1.7-0.5,2.4-1s1.3-1.2,1.7-2l15.9,0.8c0.3,0.7,0.7,1.4,1.3,2c0.6,0.5,1.2,1,2,1.2
			c0.7,0.3,1.5,0.3,2.3,0.3c0.8-0.1,1.5-0.3,2.2-0.8c0.7-0.4,1.2-1,1.7-1.6c0.4-0.7,0.7-1.4,0.8-2.2c0.1-0.8,0-1.6-0.2-2.3
			C913.9,313.6,913.5,312.9,913,312.3z"/>
	</g>
	<g>
		<g>
			<path class="st5" d="M870.1,754.1c-37.3,0-67.6-30.3-67.6-67.6c0-37.3,30.3-67.6,67.6-67.6s67.6,30.3,67.6,67.6
				C937.7,723.8,907.4,754.1,870.1,754.1z"/>
		</g>
		<g>
			<path class="st3" d="M861,683.3c-0.9-0.3-1.5-0.9-1.8-1.6c-0.4-0.8-0.4-1.6-0.1-2.5c0.3-0.9,0.9-1.5,1.6-1.8
				c0.8-0.4,1.6-0.4,2.5-0.1l18.2,6.5c0.9,0.3,1.5,0.9,1.8,1.6c0.4,0.8,0.4,1.6,0.1,2.5c-0.3,0.9-0.9,1.5-1.6,1.8
				c-0.8,0.4-1.6,0.4-2.5,0.1L861,683.3z M865.4,671.1c-0.9-0.3-1.5-0.9-1.8-1.6c-0.4-0.8-0.4-1.6-0.1-2.5c0.3-0.9,0.9-1.5,1.6-1.8
				c0.8-0.4,1.6-0.4,2.5-0.1l18.2,6.5c0.9,0.3,1.5,0.9,1.8,1.6c0.4,0.8,0.4,1.6,0.1,2.5c-0.3,0.9-0.9,1.5-1.6,1.8
				c-0.8,0.4-1.6,0.4-2.5,0.1L865.4,671.1z M849.8,686.1l22.7,8.1c1.5,0.5,2.7,1.3,3.7,2.4c1,1.1,1.8,2.4,2.2,3.8l3.4,10.6
				l15.1-42.2l-36.3-13L849.8,686.1z M843.3,704.2l33.5,12l-4.4-13.8c-0.2-0.5-0.4-1-0.8-1.3c-0.3-0.4-0.8-0.7-1.3-0.8l-22.7-8.1
				L843.3,704.2z M877.4,723.3l-36.3-13c-1.7-0.6-2.9-1.7-3.6-3.3c-0.8-1.6-0.8-3.2-0.2-4.9l17.3-48.4c0.6-1.7,1.7-2.9,3.3-3.6
				s3.2-0.8,4.9-0.2l36.3,13c1.7,0.6,2.9,1.7,3.6,3.3c0.8,1.6,0.8,3.2,0.2,4.9l-17.3,48.4c-0.6,1.7-1.7,2.9-3.3,3.6
				C880.7,723.8,879.1,723.9,877.4,723.3z"/>
		</g>
	</g>
	<g>
		<g>
			<path class="st1" d="M497.7,975c-37.3,0-67.6-30.3-67.6-67.6c0-37.3,30.3-67.6,67.6-67.6s67.6,30.3,67.6,67.6
				C565.3,944.7,535,975,497.7,975z"/>
		</g>
		<g>
			<path class="st3" d="M512.9,895.1l11.6-11.6c0.7-0.7,1.4-1,2.3-0.9c0.9,0,1.6,0.4,2.3,1c0.6,0.7,0.9,1.4,0.9,2.3
				c0,0.9-0.3,1.6-0.9,2.3L515.2,902c-0.7,0.7-1.4,1-2.3,1c-0.9,0-1.6-0.3-2.3-1l-7-7c-0.6-0.6-0.9-1.4-0.9-2.3s0.3-1.7,0.9-2.3
				s1.4-0.9,2.3-0.9c0.9,0,1.7,0.3,2.3,0.9L512.9,895.1z M468.8,897.8c-0.9,0-1.7-0.3-2.3-0.9c-0.6-0.6-0.9-1.4-0.9-2.3
				c0-0.9,0.3-1.7,0.9-2.3c0.6-0.6,1.4-0.9,2.3-0.9h22.8c0.9,0,1.7,0.3,2.3,0.9c0.6,0.6,0.9,1.4,0.9,2.3c0,0.9-0.3,1.7-0.9,2.3
				c-0.6,0.6-1.4,0.9-2.3,0.9H468.8z M514.4,925.2l-6.2,6.2c-0.6,0.6-1.4,0.9-2.3,0.9c-0.9,0-1.7-0.3-2.3-0.9
				c-0.6-0.6-0.9-1.4-0.9-2.3s0.3-1.7,0.9-2.3l6.2-6.2l-6.2-6.2c-0.6-0.6-0.9-1.4-0.9-2.3c0-0.9,0.3-1.7,0.9-2.3
				c0.6-0.6,1.4-0.9,2.3-0.9c0.9,0,1.7,0.3,2.3,0.9l6.2,6.2l6.2-6.2c0.6-0.6,1.4-0.9,2.3-0.9s1.7,0.3,2.3,0.9
				c0.6,0.6,0.9,1.4,0.9,2.3c0,0.9-0.3,1.7-0.9,2.3l-6.2,6.2l6.2,6.2c0.6,0.6,0.9,1.4,0.9,2.3s-0.3,1.7-0.9,2.3
				c-0.6,0.6-1.4,0.9-2.3,0.9s-1.7-0.3-2.3-0.9L514.4,925.2z M468.8,923.9c-0.9,0-1.7-0.3-2.3-0.9c-0.6-0.6-0.9-1.4-0.9-2.3
				c0-0.9,0.3-1.7,0.9-2.3s1.4-0.9,2.3-0.9h22.8c0.9,0,1.7,0.3,2.3,0.9c0.6,0.6,0.9,1.4,0.9,2.3c0,0.9-0.3,1.7-0.9,2.3
				c-0.6,0.6-1.4,0.9-2.3,0.9H468.8z"/>
		</g>
	</g>
	<g>
		<g>
			<path class="st2" d="M122.4,745.7c-37.3,0-67.6-30.3-67.6-67.6c0-37.3,30.3-67.6,67.6-67.6s67.6,30.3,67.6,67.6
				C189.9,715.3,159.6,745.7,122.4,745.7z"/>
		</g>
		<g>
			<path class="st3" d="M134.6,707.8c-0.6,0.2-1.1,0.4-1.6,0.5c-0.5,0.1-1,0.2-1.5,0.2c-7.2,0.3-14-1.8-20.4-6.1
				c-6.4-4.3-11.1-10-14-17.2l-5.9-14.3c-0.5-1.3-0.6-2.5-0.3-3.8c0.3-1.3,1-2.4,1.9-3.4l15.3-14.3c0.6-0.5,1.3-1,2-1.2
				c0.7-0.3,1.5-0.5,2.3-0.5l20.9-0.7c1.3,0,2.6,0.3,3.7,1s2,1.7,2.5,2.9l5.9,14.3c2.9,7.1,3.7,14.5,2.1,22.1s-4.9,13.8-10.2,18.7
				c-0.3,0.3-0.7,0.6-1.2,0.9C135.7,707.3,135.2,707.6,134.6,707.8z M132.2,701.9c4.3-3.5,7.1-8.2,8.5-14c1.4-5.8,1.3-11.6-0.4-17.3
				l-18,7.4l-9.8-23.8l-15.3,14.3l6.4,15.6c0.1,0.4,0.4,0.8,0.7,1.3l18-7.4L132.2,701.9z"/>
		</g>
	</g>
	<g>
		<g>
			<path class="st4" d="M117.7,363c-37.3,0-67.6-30.3-67.6-67.6c0-37.3,30.3-67.6,67.6-67.6s67.6,30.3,67.6,67.6
				C185.3,332.7,155,363,117.7,363z"/>
		</g>
		<g>
			<path class="st3" d="M154,304.8c-1.9,1.9-4.2,2.8-6.8,2.8s-4.9-1-6.8-2.9c-0.3-0.3-0.5-0.6-0.8-0.9c-0.2-0.3-0.4-0.6-0.6-0.9
				l-25.4,6.5c-0.1,1.2-0.4,2.4-0.9,3.5s-1.2,2.1-2,3c-1.9,1.9-4.2,2.8-6.8,2.8c-2.7,0-4.9-1-6.8-2.9c-1.9-1.9-2.8-4.2-2.8-6.8
				c0-2.7,1-4.9,2.9-6.8c0.9-0.9,1.9-1.5,3-2c1.1-0.5,2.3-0.7,3.5-0.8l6.9-25.3c-0.3-0.2-0.6-0.4-0.9-0.6c-0.3-0.2-0.6-0.5-0.9-0.8
				c-1.9-1.9-2.8-4.2-2.8-6.8c0-2.7,1-4.9,2.9-6.8c1.9-1.9,4.2-2.8,6.8-2.8c2.7,0,4.9,1,6.8,2.9c1.9,1.9,2.8,4.2,2.8,6.8
				c0,2.7-1,4.9-2.9,6.8c-0.9,0.9-1.9,1.5-3,2s-2.3,0.7-3.5,0.8l-6.9,25.3c0.3,0.2,0.6,0.4,0.9,0.6c0.3,0.2,0.6,0.5,0.9,0.8
				c0.3,0.3,0.5,0.6,0.8,0.9c0.2,0.3,0.4,0.6,0.6,0.9l25.4-6.5c0.1-1.2,0.4-2.4,0.9-3.5c0.5-1.1,1.2-2.1,2-3
				c1.9-1.9,4.2-2.8,6.8-2.8c2.7,0,4.9,1,6.8,2.9c1.9,1.9,2.8,4.2,2.8,6.8C156.9,300.7,155.9,302.9,154,304.8z"/>
		</g>
	</g>
	<g>
		<g>
			<g>
				<path class="st6" d="M360.5,423c-8.9,0-16.1-7.2-16.1-16.1c0-8.9,7.2-16.1,16.1-16.1c8.9,0,16.1,7.2,16.1,16.1
					C376.6,415.7,369.4,423,360.5,423z M360.5,395.1c-6.5,0-11.7,5.3-11.7,11.7s5.3,11.7,11.7,11.7s11.7-5.3,11.7-11.7
					S366.9,395.1,360.5,395.1z"/>
			</g>
		</g>
		<g>
			<g>
				<path class="st6" d="M382.3,469.9h-43.5c-9.6,0-17.4-7.8-17.4-17.4c0-9.6,7.8-17.4,17.4-17.4h43.5c9.6,0,17.4,7.8,17.4,17.4
					C399.7,462.1,391.9,469.9,382.3,469.9z M338.8,442.3c-5.7,0-10.3,4.6-10.3,10.3c0,5.7,4.6,10.3,10.3,10.3h43.5
					c5.7,0,10.3-4.6,10.3-10.3c0-5.7-4.6-10.3-10.3-10.3H338.8z"/>
			</g>
		</g>
	</g>
	<g>
		<g>
			<g>
				<path class="st6" d="M634.8,423c-8.9,0-16.1-7.2-16.1-16.1c0-8.9,7.2-16.1,16.1-16.1c8.9,0,16.1,7.2,16.1,16.1
					C651,415.7,643.7,423,634.8,423z M634.8,395.1c-6.5,0-11.7,5.3-11.7,11.7s5.3,11.7,11.7,11.7c6.5,0,11.7-5.3,11.7-11.7
					S641.3,395.1,634.8,395.1z"/>
			</g>
		</g>
		<g>
			<g>
				<path class="st6" d="M656.7,469.9h-43.5c-9.6,0-17.4-7.8-17.4-17.4c0-9.6,7.8-17.4,17.4-17.4h43.5c9.6,0,17.4,7.8,17.4,17.4
					C674,462.1,666.2,469.9,656.7,469.9z M613.2,442.3c-5.7,0-10.3,4.6-10.3,10.3c0,5.7,4.6,10.3,10.3,10.3h43.5
					c5.7,0,10.3-4.6,10.3-10.3c0-5.7-4.6-10.3-10.3-10.3H613.2z"/>
			</g>
		</g>
	</g>
	<g>
		<g>
			<g>
				<path class="st6" d="M496.3,585.7c-8.9,0-16.1-7.2-16.1-16.1c0-8.9,7.2-16.1,16.1-16.1c8.9,0,16.1,7.2,16.1,16.1
					C512.4,578.5,505.2,585.7,496.3,585.7z M496.3,557.9c-6.5,0-11.7,5.3-11.7,11.7c0,6.5,5.3,11.7,11.7,11.7
					c6.5,0,11.7-5.3,11.7-11.7C508,563.1,502.7,557.9,496.3,557.9z"/>
			</g>
		</g>
		<g>
			<g>
				<path class="st6" d="M518.1,632.7h-43.5c-9.6,0-17.4-7.8-17.4-17.4c0-9.6,7.8-17.4,17.4-17.4h43.5c9.6,0,17.4,7.8,17.4,17.4
					C535.5,624.9,527.7,632.7,518.1,632.7z M474.6,605.1c-5.7,0-10.3,4.6-10.3,10.3c0,5.7,4.6,10.3,10.3,10.3h43.5
					c5.7,0,10.3-4.6,10.3-10.3c0-5.7-4.6-10.3-10.3-10.3H474.6z"/>
			</g>
		</g>
	</g>
	<g>
		<path class="st6" d="M410,372.3c0.8,0,1.6-0.3,2.3-0.8c23.1-18.3,52.3-29.3,84-29.3s60.9,11,84,29.3c0.7,0.5,1.5,0.8,2.3,0.8l0,0
			c3.5,0,5-4.4,2.3-6.5c-24.4-19.4-55.2-30.9-88.6-30.9c-33.5,0-64.3,11.6-88.6,30.9C405,367.9,406.6,372.3,410,372.3L410,372.3z"/>
		<path class="st6" d="M582.7,372.9c-0.9,0-1.9-0.3-2.6-0.9c-24.1-19.1-53-29.2-83.7-29.2s-59.6,10.1-83.7,29.2
			c-0.7,0.6-1.7,0.9-2.6,0.9c-1.8,0-3.4-1.1-4-2.8c-0.6-1.7-0.1-3.5,1.3-4.7c25.6-20.3,56.3-31,89-31c32.6,0,63.4,10.7,89,31
			c1.4,1.1,1.9,3,1.3,4.7C586.1,371.8,584.5,372.9,582.7,372.9z M496.4,341.7c30.9,0,60.1,10.2,84.4,29.4c0.6,0.4,1.3,0.7,2,0.7
			c1.6,0,2.6-1.1,3-2.1c0.4-1,0.3-2.5-1-3.5c-25.4-20.2-55.9-30.8-88.3-30.8s-62.9,10.7-88.3,30.8c-1.3,1-1.4,2.5-1,3.5
			c0.4,1,1.3,2.1,3,2.1c0.7,0,1.4-0.2,2-0.7C436.2,351.9,465.4,341.7,496.4,341.7z"/>
	</g>
	<g>
		<g>
			<path class="st6" d="M446,603.4c-43.7-17.6-76.2-57.3-83.5-105.2c-0.3-1.8-1.8-3.1-3.6-3.1h0c-2.2,0-4,2-3.6,4.2
				c7.7,50.5,42,92.4,88,110.9c2.4,1,5.1-0.8,5.1-3.4v0C448.3,605.3,447.4,603.9,446,603.4z"/>
			<path class="st6" d="M444.7,611c-0.5,0-1.1-0.1-1.6-0.3c-46.9-18.9-80.8-61.5-88.4-111.3c-0.2-1.2,0.2-2.4,1-3.4
				c0.8-0.9,2-1.5,3.2-1.5c2.1,0,3.8,1.5,4.2,3.5c7.2,46.9,39,87,83.2,104.8l0,0c1.6,0.7,2.7,2.2,2.7,3.9c0,1.4-0.7,2.7-1.8,3.5
				C446.3,610.8,445.5,611,444.7,611z M358.9,495.6c-0.9,0-1.8,0.4-2.4,1.1c-0.6,0.7-0.9,1.6-0.7,2.5c7.6,49.4,41.2,91.7,87.7,110.5
				c1,0.4,2.1,0.3,3-0.3c0.9-0.6,1.4-1.5,1.4-2.6c0-1.3-0.8-2.4-2-2.9l0,0c-44.5-17.9-76.6-58.3-83.8-105.6
				C361.7,496.8,360.4,495.6,358.9,495.6z"/>
		</g>
		<g>
			<path class="st6" d="M630.2,498.2c-7.1,46.2-37.5,84.8-78.9,103.2c-1.3,0.6-2.2,1.9-2.2,3.4v0c0,2.7,2.8,4.4,5.2,3.3
				c43.6-19.4,75.7-60.1,83.2-108.8c0.3-2.2-1.4-4.2-3.6-4.2l0,0C632.1,495.1,630.5,496.4,630.2,498.2z"/>
			<path class="st6" d="M552.8,609c-0.8,0-1.6-0.2-2.3-0.7c-1.2-0.8-1.9-2.1-1.9-3.5c0-1.7,1-3.2,2.5-3.9
				c42.2-18.8,71.6-57.3,78.6-102.8l0,0c0.3-2.1,2.1-3.6,4.2-3.6c1.2,0,2.4,0.5,3.2,1.5c0.8,0.9,1.2,2.2,1,3.4
				c-3.6,23.8-13.4,46.5-28.1,65.6c-14.5,18.9-33.7,33.9-55.3,43.6C554,608.9,553.4,609,552.8,609z M633.9,495.6
				c-1.5,0-2.9,1.1-3.1,2.6v0c-3.5,22.6-12.7,44.1-26.7,62.2c-13.8,17.9-32,32.2-52.5,41.4c-1.1,0.5-1.9,1.6-1.9,2.9
				c0,1.1,0.5,2,1.4,2.6c0.9,0.6,2,0.7,3,0.2c44.5-19.9,75.5-60.4,82.8-108.4c0.1-0.9-0.1-1.8-0.7-2.5
				C635.7,496,634.8,495.6,633.9,495.6z"/>
		</g>
	</g>
</g>
</svg>
