<?xml version="1.0" encoding="utf-8"?>
<!-- Generator: Adobe Illustrator 27.7.0, SVG Export Plug-In . SVG Version: 6.00 Build 0)  -->
<svg version="1.1" id="Layer_1" xmlns="http://www.w3.org/2000/svg" xmlns:xlink="http://www.w3.org/1999/xlink" x="0px" y="0px"
	 viewBox="0 0 512 512" style="enable-background:new 0 0 512 512;" xml:space="preserve">
<style type="text/css">
	.st0{fill:#4D91FE;}
	.st1{fill:#BCBEC0;}
</style>
<g>
	<g>
		<path class="st0" d="M290,246.2c-4.2,0-7.7-3.4-7.8-7.7c-0.3-12.4-3.9-21.8-10.7-28.1c-10.6-9.8-26.2-9.1-26.3-9.1
			c-4.3,0.3-8-3-8.3-7.3c-0.3-4.3,3-8,7.3-8.3c0.9-0.1,22.2-1.2,37.9,13.2c10.1,9.2,15.4,22.4,15.8,39.3c0.1,4.3-3.3,7.9-7.7,8
			C290.1,246.2,290.1,246.2,290,246.2z"/>
	</g>
	<g>
		<path class="st0" d="M251.2,307.4c-40.5,0-73.5-33-73.5-73.5c0-40.5,33-73.5,73.5-73.5c40.5,0,73.5,33,73.5,73.5
			C324.7,274.4,291.7,307.4,251.2,307.4z M251.2,176c-31.9,0-57.8,26-57.8,57.8c0,31.9,26,57.8,57.8,57.8c31.9,0,57.8-26,57.8-57.8
			C309,202,283.1,176,251.2,176z"/>
	</g>
	<g>
		<path class="st0" d="M102.4,390.4c-2,0-4-0.8-5.5-2.3c-3.1-3.1-3.1-8,0-11.1l87-87c3.1-3.1,8-3.1,11.1,0c3.1,3.1,3.1,8,0,11.1
			l-87,87C106.4,389.6,104.4,390.4,102.4,390.4z"/>
	</g>
	<g>
		<path class="st1" d="M254.5,343.4c-20.7,0-39.4-5.1-55.9-15.2l8.2-13.4c46.4,28.3,106.5,4.1,148.7-21.3
			c35.6-21.4,64.9-47.1,77.2-58.6c-11.2-9.1-35-27.9-62.9-46.6c-50-33.5-89.8-51.2-115.3-51.2c-25.4,0-64.6,17.7-113.2,51.1
			c-26.4,18.1-49,36.4-60.2,45.8l77.6,57.6l-9.4,12.6L56,235.1l7.3-6.4c5-4.4,123-107.1,191.2-107.1c68.2,0,189.9,102.6,195,107
			l6.5,5.5l-6,6c-1.5,1.5-37.6,37.5-86.3,66.7c-28.9,17.4-56.2,28.7-81.1,33.6C272.9,342.4,263.5,343.4,254.5,343.4z"/>
	</g>
</g>
</svg>
