<?xml version="1.0" encoding="utf-8"?>
<!-- Generator: Adobe Illustrator 27.8.0, SVG Export Plug-In . SVG Version: 6.00 Build 0)  -->
<svg version="1.1" id="Layer_1" xmlns="http://www.w3.org/2000/svg" xmlns:xlink="http://www.w3.org/1999/xlink" x="0px" y="0px"
	 viewBox="0 0 1000 1000" style="enable-background:new 0 0 1000 1000;" xml:space="preserve">
<style type="text/css">
	.st0{fill:#4D91FE;}
	.st1{fill:#7DD882;}
	.st2{fill:#FFBD35;}
	.st3{fill:#F65A27;}
	.st4{fill:#6D6E71;}
	.st5{fill:#FFFFFF;}
</style>
<g>
	<g>
		<path class="st0" d="M25,470.8c0,0,30.8-161.7,152.3-278.4c158.1-151.9,479.1-222.8,692,2.5l-85.2,61.4c0,0-122-188.4-389.8-136.8
			S25,470.8,25,470.8z"/>
		<polygon class="st0" points="807.9,298 904.6,234.9 938.1,306.1 834.1,347.9 		"/>
		<path class="st1" d="M844,395.4l113-45c0,0,15.6,63.9,15.6,77.8l-123.7,19.7C848.9,447.8,849.7,422.4,844,395.4z"/>
		<path class="st1" d="M847.2,501.1L975,482.2c0,0-4.1,71.2-8.2,80.3L838.2,551C838.2,551,847.2,507.6,847.2,501.1z"/>
		<path class="st2" d="M800.6,647.7c0,0,18.8-33.6,21.3-45.9l133.5,14.7c0,0-26.2,74.5-32.8,80.3L800.6,647.7z"/>
		<path class="st2" d="M737.5,731.2c0,0,27.8-29.5,33.6-40.1l126.1,53.2c0,0-38.5,61.4-51.6,71.2L737.5,731.2z"/>
		<path class="st3" d="M660.5,799.2c0,0,38.5-26.2,40.9-31.9l108.9,87.6c0,0-59.8,54.9-68.8,58.1L660.5,799.2z"/>
		<path class="st4" d="M658.9,949L479.7,560c6-8.3,9.6-18.4,9.6-29.5c0-27.6-22.4-50-50-50s-50,22.4-50,50c0,27.6,22.4,50,50,50
			c2.3,0,4.5-0.2,6.7-0.5L658.9,949z"/>
	</g>
	<circle class="st5" cx="439.7" cy="530.2" r="35.1"/>
</g>
</svg>
