<svg width="1920" height="215" viewBox="0 0 1920 215" fill="none" xmlns="http://www.w3.org/2000/svg">
<path d="M-10.8385 16C-10.8385 17.4728 -9.64463 18.6667 -8.17188 18.6667C-6.69912 18.6667 -5.50521 17.4728 -5.50521 16C-5.50521 14.5272 -6.69912 13.3333 -8.17188 13.3333C-9.64463 13.3333 -10.8385 14.5272 -10.8385 16ZM254.8 104.292L254.641 104.766L254.759 104.806L254.882 104.786L254.8 104.292ZM571.926 51.1321L572.099 50.6629L571.974 50.617L571.844 50.639L571.926 51.1321ZM840.405 150.057L840.232 150.526L840.394 150.585L840.558 150.533L840.405 150.057ZM1148.81 51.1321L1148.97 50.6586L1148.82 50.6056L1148.66 50.656L1148.81 51.1321ZM1471.45 160.689L1471.28 161.162L1471.5 161.234L1471.69 161.124L1471.45 160.689ZM1666.04 51.1321L1666.3 50.7098L1666.05 50.5497L1665.79 50.6964L1666.04 51.1321ZM1917.16 212C1917.16 213.473 1918.36 214.667 1919.83 214.667C1921.3 214.667 1922.49 213.473 1922.49 212C1922.49 210.527 1921.3 209.333 1919.83 209.333C1918.36 209.333 1917.16 210.527 1917.16 212ZM4.81756 20.8886L5.29156 21.0478L5.60985 20.0998L5.13585 19.9406L4.81756 20.8886ZM31.433 28.7699L30.959 28.6107L30.6407 29.5587L31.1147 29.7179L31.433 28.7699ZM57.4119 38.5471L57.8859 38.7063L58.2042 37.7583L57.7302 37.5991L57.4119 38.5471ZM84.0274 46.4284L83.5534 46.2692L83.2351 47.2172L83.7091 47.3764L84.0274 46.4284ZM110.006 56.2056L110.48 56.3647L110.799 55.4167L110.325 55.2576L110.006 56.2056ZM136.622 64.0869L136.148 63.9277L135.829 64.8757L136.303 65.0348L136.622 64.0869ZM162.601 73.8641L163.075 74.0232L163.393 73.0752L162.919 72.9161L162.601 73.8641ZM189.216 81.7453L188.742 81.5862L188.424 82.5342L188.898 82.6933L189.216 81.7453ZM215.195 91.5226L215.669 91.6817L215.987 90.7337L215.513 90.5746L215.195 91.5226ZM241.81 99.4038L241.336 99.2447L241.018 100.193L241.492 100.352L241.81 99.4038ZM268.096 102.571L268.589 102.488L268.424 101.502L267.931 101.584L268.096 102.571ZM294.358 97.1543L293.865 97.2369L294.03 98.2232L294.523 98.1405L294.358 97.1543ZM320.95 93.7105L321.444 93.6278L321.278 92.6416L320.785 92.7243L320.95 93.7105ZM347.212 88.2942L346.719 88.3769L346.885 89.3631L347.378 89.2805L347.212 88.2942ZM373.805 84.8504L374.298 84.7678L374.133 83.7815L373.64 83.8642L373.805 84.8504ZM400.067 79.4342L399.574 79.5168L399.739 80.5031L400.232 80.4204L400.067 79.4342ZM426.659 75.9904L427.152 75.9077L426.987 74.9215L426.494 75.0041L426.659 75.9904ZM452.921 70.5741L452.428 70.6568L452.593 71.643L453.086 71.5603L452.921 70.5741ZM479.514 67.1303L480.007 67.0476L479.841 66.0614L479.348 66.1441L479.514 67.1303ZM505.776 61.714L505.282 61.7967L505.448 62.7829L505.941 62.7003L505.776 61.714ZM532.368 58.2702L532.861 58.1876L532.696 57.2013L532.203 57.284L532.368 58.2702ZM558.63 52.854L558.137 52.9366L558.302 53.9229L558.795 53.8402L558.63 52.854ZM585.177 56.5475L585.646 56.7203L585.992 55.782L585.523 55.6091L585.177 56.5475ZM612.371 65.5016L611.902 65.3287L611.556 66.2671L612.025 66.4399L612.371 65.5016ZM638.873 76.3324L639.342 76.5052L639.688 75.5669L639.219 75.394L638.873 76.3324ZM666.067 85.2865L665.598 85.1136L665.252 86.052L665.721 86.2248L666.067 85.2865ZM692.569 96.1173L693.038 96.2902L693.384 95.3518L692.915 95.1789L692.569 96.1173ZM719.763 105.071L719.293 104.899L718.948 105.837L719.417 106.01L719.763 105.071ZM746.265 115.902L746.734 116.075L747.08 115.137L746.61 114.964L746.265 115.902ZM773.458 124.856L772.989 124.683L772.643 125.622L773.113 125.795L773.458 124.856ZM799.96 135.687L800.43 135.86L800.775 134.922L800.306 134.749L799.96 135.687ZM827.154 144.641L826.685 144.468L826.339 145.407L826.808 145.58L827.154 144.641ZM853.408 146.411L853.884 146.258L853.579 145.306L853.103 145.459L853.408 146.411ZM878.803 137.215L878.327 137.368L878.633 138.32L879.109 138.167L878.803 137.215ZM904.809 129.923L905.285 129.771L904.98 128.819L904.504 128.971L904.809 129.923ZM930.204 120.728L929.728 120.88L930.034 121.832L930.51 121.68L930.204 120.728ZM956.21 113.436L956.686 113.283L956.381 112.331L955.905 112.484L956.21 113.436ZM981.605 104.24L981.129 104.393L981.435 105.345L981.911 105.192L981.605 104.24ZM1007.61 96.9486L1008.09 96.7959L1007.78 95.8437L1007.31 95.9964L1007.61 96.9486ZM1033.01 87.7527L1032.53 87.9054L1032.84 88.8576L1033.31 88.7049L1033.01 87.7527ZM1059.01 80.4612L1059.49 80.3085L1059.18 79.3562L1058.71 79.509L1059.01 80.4612ZM1084.41 71.2652L1083.93 71.418L1084.24 72.3702L1084.71 72.2175L1084.41 71.2652ZM1110.41 63.9737L1110.89 63.821L1110.58 62.8688L1110.11 63.0215L1110.41 63.9737ZM1135.81 54.7778L1135.33 54.9305L1135.64 55.8828L1136.11 55.73L1135.81 54.7778ZM1162.09 56.1704L1162.57 56.3312L1162.89 55.3843L1162.42 55.2235L1162.09 56.1704ZM1189.3 64.3532L1188.83 64.1924L1188.51 65.1393L1188.98 65.3001L1189.3 64.3532ZM1215.87 74.4298L1216.34 74.5906L1216.66 73.6437L1216.19 73.4829L1215.87 74.4298ZM1243.07 82.6126L1242.6 82.4519L1242.28 83.3988L1242.75 83.5595L1243.07 82.6126ZM1269.64 92.6892L1270.11 92.85L1270.43 91.9031L1269.96 91.7423L1269.64 92.6892ZM1296.85 100.872L1296.37 100.711L1296.05 101.658L1296.52 101.819L1296.85 100.872ZM1323.41 110.949L1323.88 111.109L1324.21 110.163L1323.73 110.002L1323.41 110.949ZM1350.62 119.132L1350.15 118.971L1349.82 119.918L1350.3 120.078L1350.62 119.132ZM1377.18 129.208L1377.66 129.369L1377.98 128.422L1377.5 128.261L1377.18 129.208ZM1404.39 137.391L1403.92 137.23L1403.6 138.177L1404.07 138.338L1404.39 137.391ZM1430.96 147.468L1431.43 147.628L1431.75 146.681L1431.28 146.521L1430.96 147.468ZM1458.16 155.65L1457.69 155.49L1457.37 156.437L1457.84 156.597L1458.16 155.65ZM1483.85 154.277L1484.29 154.032L1483.8 153.16L1483.36 153.406L1483.85 154.277ZM1507.69 139.711L1507.25 139.956L1507.74 140.828L1508.18 140.583L1507.69 139.711ZM1532.5 126.888L1532.94 126.643L1532.45 125.771L1532.01 126.017L1532.5 126.888ZM1556.33 112.322L1555.9 112.567L1556.39 113.439L1556.82 113.193L1556.33 112.322ZM1581.15 99.4988L1581.58 99.2535L1581.09 98.3821L1580.66 98.6274L1581.15 99.4988ZM1604.98 84.9328L1604.54 85.1781L1605.04 86.0495L1605.47 85.8042L1604.98 84.9328ZM1629.79 72.1096L1630.23 71.8643L1629.74 70.9929L1629.3 71.2382L1629.79 72.1096ZM1653.63 57.5437L1653.19 57.789L1653.68 58.6604L1654.12 58.4151L1653.63 57.5437ZM1678.46 59.5978L1678.88 59.8655L1679.41 59.0208L1678.99 58.7532L1678.46 59.5978ZM1704.37 74.84L1703.95 74.5723L1703.41 75.4169L1703.84 75.6846L1704.37 74.84ZM1729.22 91.7714L1729.64 92.039L1730.17 91.1944L1729.75 90.9267L1729.22 91.7714ZM1755.13 107.014L1754.71 106.746L1754.17 107.59L1754.6 107.858L1755.13 107.014ZM1779.97 123.945L1780.4 124.213L1780.93 123.368L1780.51 123.1L1779.97 123.945ZM1805.89 139.187L1805.47 138.919L1804.93 139.764L1805.35 140.032L1805.89 139.187ZM1830.73 156.119L1831.16 156.386L1831.69 155.542L1831.27 155.274L1830.73 156.119ZM1856.65 171.361L1856.23 171.093L1855.69 171.938L1856.11 172.205L1856.65 171.361ZM1881.49 188.292L1881.91 188.56L1882.45 187.715L1882.03 187.448L1881.49 188.292ZM1907.41 203.534L1906.98 203.267L1906.45 204.111L1906.87 204.379L1907.41 203.534ZM-8.33102 16.474L4.81756 20.8886L5.13585 19.9406L-8.01273 15.526L-8.33102 16.474ZM31.1147 29.7179L57.4119 38.5471L57.7302 37.5991L31.433 28.7699L31.1147 29.7179ZM83.7091 47.3764L110.006 56.2056L110.325 55.2576L84.0274 46.4284L83.7091 47.3764ZM136.303 65.0348L162.601 73.8641L162.919 72.9161L136.622 64.0869L136.303 65.0348ZM188.898 82.6933L215.195 91.5226L215.513 90.5746L189.216 81.7453L188.898 82.6933ZM241.492 100.352L254.641 104.766L254.959 103.818L241.81 99.4038L241.492 100.352ZM254.882 104.786L268.096 102.571L267.931 101.584L254.717 103.799L254.882 104.786ZM294.523 98.1405L320.95 93.7105L320.785 92.7243L294.358 97.1543L294.523 98.1405ZM347.378 89.2805L373.805 84.8504L373.64 83.8642L347.212 88.2942L347.378 89.2805ZM400.232 80.4204L426.659 75.9904L426.494 75.0041L400.067 79.4342L400.232 80.4204ZM453.086 71.5603L479.514 67.1303L479.348 66.1441L452.921 70.5741L453.086 71.5603ZM505.941 62.7003L532.368 58.2702L532.203 57.284L505.776 61.714L505.941 62.7003ZM558.795 53.8402L572.009 51.6252L571.844 50.639L558.63 52.854L558.795 53.8402ZM571.753 51.6012L585.177 56.5475L585.523 55.6091L572.099 50.6629L571.753 51.6012ZM612.025 66.4399L638.873 76.3324L639.219 75.394L612.371 65.5016L612.025 66.4399ZM665.721 86.2248L692.569 96.1173L692.915 95.1789L666.067 85.2865L665.721 86.2248ZM719.417 106.01L746.265 115.902L746.61 114.964L719.763 105.071L719.417 106.01ZM773.113 125.795L799.96 135.687L800.306 134.749L773.458 124.856L773.113 125.795ZM826.808 145.58L840.232 150.526L840.578 149.587L827.154 144.641L826.808 145.58ZM840.558 150.533L853.408 146.411L853.103 145.459L840.252 149.58L840.558 150.533ZM879.109 138.167L904.809 129.923L904.504 128.971L878.803 137.215L879.109 138.167ZM930.51 121.68L956.21 113.436L955.905 112.484L930.204 120.728L930.51 121.68ZM981.911 105.192L1007.61 96.9486L1007.31 95.9964L981.605 104.24L981.911 105.192ZM1033.31 88.7049L1059.01 80.4612L1058.71 79.509L1033.01 87.7527L1033.31 88.7049ZM1084.71 72.2175L1110.41 63.9737L1110.11 63.0215L1084.41 71.2652L1084.71 72.2175ZM1136.11 55.73L1148.96 51.6082L1148.66 50.656L1135.81 54.7778L1136.11 55.73ZM1148.65 51.6055L1162.09 56.1704L1162.42 55.2235L1148.97 50.6586L1148.65 51.6055ZM1188.98 65.3001L1215.87 74.4298L1216.19 73.4829L1189.3 64.3532L1188.98 65.3001ZM1242.75 83.5595L1269.64 92.6892L1269.96 91.7423L1243.07 82.6126L1242.75 83.5595ZM1296.52 101.819L1323.41 110.949L1323.73 110.002L1296.85 100.872L1296.52 101.819ZM1350.3 120.078L1377.18 129.208L1377.5 128.261L1350.62 119.132L1350.3 120.078ZM1404.07 138.338L1430.96 147.468L1431.28 146.521L1404.39 137.391L1404.07 138.338ZM1457.84 156.597L1471.28 161.162L1471.61 160.215L1458.16 155.65L1457.84 156.597ZM1471.69 161.124L1483.85 154.277L1483.36 153.406L1471.2 160.253L1471.69 161.124ZM1508.18 140.583L1532.5 126.888L1532.01 126.017L1507.69 139.711L1508.18 140.583ZM1556.82 113.193L1581.15 99.4988L1580.66 98.6274L1556.33 112.322L1556.82 113.193ZM1605.47 85.8042L1629.79 72.1096L1629.3 71.2382L1604.98 84.9328L1605.47 85.8042ZM1654.12 58.4151L1666.28 51.5678L1665.79 50.6964L1653.63 57.5437L1654.12 58.4151ZM1665.77 51.5544L1678.46 59.5978L1678.99 58.7532L1666.3 50.7098L1665.77 51.5544ZM1703.84 75.6846L1729.22 91.7714L1729.75 90.9267L1704.37 74.84L1703.84 75.6846ZM1754.6 107.858L1779.97 123.945L1780.51 123.1L1755.13 107.014L1754.6 107.858ZM1805.35 140.032L1830.73 156.119L1831.27 155.274L1805.89 139.187L1805.35 140.032ZM1856.11 172.205L1881.49 188.292L1882.03 187.448L1856.65 171.361L1856.11 172.205ZM1906.87 204.379L1919.56 212.422L1920.1 211.578L1907.41 203.534L1906.87 204.379Z" fill="#ACACAC"/>
<path d="M-2.83854 84.2249C-2.83854 85.6977 -1.64463 86.8916 -0.171875 86.8916C1.30088 86.8916 2.49479 85.6977 2.49479 84.2249C2.49479 82.7522 1.30088 81.5583 -0.171875 81.5583C-1.64463 81.5583 -2.83854 82.7522 -2.83854 84.2249ZM291.085 28.0732L291.302 27.6223L291.153 27.551L290.991 27.5822L291.085 28.0732ZM460.526 109.293L460.31 109.744L460.476 109.823L460.655 109.776L460.526 109.293ZM765.82 28.0732L766.037 27.6228L765.87 27.5424L765.691 27.59L765.82 28.0732ZM1093.17 186L1092.95 186.45L1093.24 186.589L1093.49 186.387L1093.17 186ZM1319.26 1L1319.52 0.57411L1319.22 0.387654L1318.94 0.613037L1319.26 1ZM1620.04 186L1619.78 186.426L1619.96 186.537L1620.16 186.485L1620.04 186ZM1925.63 108.584L1922.12 106.494L1920.03 110.002L1923.54 112.091L1925.63 108.584ZM-0.0772225 84.7159L14.4856 81.9083L14.2963 80.9264L-0.266527 83.734L-0.0772225 84.7159ZM43.6114 76.2931L72.7371 70.6779L72.5478 69.696L43.4221 75.3112L43.6114 76.2931ZM101.863 65.0628L130.989 59.4476L130.799 58.4657L101.674 64.0809L101.863 65.0628ZM160.114 53.8324L189.24 48.2173L189.051 47.2353L159.925 52.8505L160.114 53.8324ZM218.366 42.6021L247.491 36.9869L247.302 36.005L218.176 41.6202L218.366 42.6021ZM276.617 31.3717L291.18 28.5641L290.991 27.5822L276.428 30.3898L276.617 31.3717ZM290.869 28.524L304.989 35.2923L305.422 34.3906L291.302 27.6223L290.869 28.524ZM333.229 48.8289L361.47 62.3655L361.902 61.4638L333.662 47.9272L333.229 48.8289ZM389.71 75.9021L417.95 89.4387L418.382 88.5369L390.142 75.0003L389.71 75.9021ZM446.19 102.975L460.31 109.744L460.742 108.842L446.622 102.074L446.19 102.975ZM460.655 109.776L475.919 105.715L475.662 104.749L460.397 108.809L460.655 109.776ZM506.449 97.5929L536.978 89.471L536.721 88.5046L506.191 96.6266L506.449 97.5929ZM567.507 81.349L598.037 73.2271L597.78 72.2607L567.25 80.3827L567.507 81.349ZM628.566 65.1051L659.095 56.9832L658.838 56.0168L628.309 64.1388L628.566 65.1051ZM689.625 48.8612L720.154 40.7393L719.897 39.7729L689.368 47.8949L689.625 48.8612ZM750.684 32.6173L765.948 28.5564L765.691 27.59L750.427 31.651L750.684 32.6173ZM765.603 28.5235L779.242 35.1038L779.677 34.2031L766.037 27.6228L765.603 28.5235ZM806.521 48.2644L833.801 61.4249L834.235 60.5243L806.956 47.3637L806.521 48.2644ZM861.08 74.5855L888.359 87.7461L888.794 86.8454L861.514 73.6848L861.08 74.5855ZM915.638 100.907L942.918 114.067L943.352 113.167L916.073 100.006L915.638 100.907ZM970.197 127.228L997.476 140.388L997.911 139.488L970.631 126.327L970.197 127.228ZM1024.76 153.549L1052.03 166.709L1052.47 165.809L1025.19 152.648L1024.76 153.549ZM1079.31 179.87L1092.95 186.45L1093.39 185.55L1079.75 178.969L1079.31 179.87ZM1093.49 186.387L1104.79 177.137L1104.16 176.363L1092.85 185.613L1093.49 186.387ZM1127.4 158.637L1150.01 140.137L1149.38 139.363L1126.77 157.863L1127.4 158.637ZM1172.62 121.637L1195.23 103.137L1194.59 102.363L1171.98 120.863L1172.62 121.637ZM1217.84 84.637L1240.44 66.137L1239.81 65.363L1217.2 83.863L1217.84 84.637ZM1263.05 47.637L1285.66 29.137L1285.03 28.363L1262.42 46.863L1263.05 47.637ZM1308.27 10.637L1319.58 1.38696L1318.94 0.613037L1307.64 9.86304L1308.27 10.637ZM1319 1.42589L1331.53 9.13422L1332.05 8.28244L1319.52 0.57411L1319 1.42589ZM1356.59 24.5509L1381.66 39.9676L1382.18 39.1158L1357.12 23.6991L1356.59 24.5509ZM1406.72 55.3842L1431.79 70.8009L1432.31 69.9491L1407.25 54.5324L1406.72 55.3842ZM1456.86 86.2176L1481.92 101.634L1482.44 100.782L1457.38 85.3658L1456.86 86.2176ZM1506.99 117.051L1532.05 132.468L1532.57 131.616L1507.51 116.199L1506.99 117.051ZM1557.12 147.884L1582.18 163.301L1582.7 162.449L1557.64 147.032L1557.12 147.884ZM1607.25 178.718L1619.78 186.426L1620.3 185.574L1607.77 177.866L1607.25 178.718ZM1620.16 186.485L1635.3 182.649L1635.06 181.68L1619.92 185.515L1620.16 186.485ZM1665.58 174.979L1695.86 167.308L1695.61 166.338L1665.34 174.009L1665.58 174.979ZM1726.14 159.637L1756.42 151.966L1756.17 150.997L1725.89 158.668L1726.14 159.637ZM1786.7 144.296L1816.98 136.625L1816.73 135.656L1786.45 143.326L1786.7 144.296ZM1847.25 128.954L1877.53 121.283L1877.29 120.314L1847.01 127.985L1847.25 128.954ZM1907.81 113.613L1922.95 109.777L1922.71 108.808L1907.57 112.643L1907.81 113.613Z" fill="#ACACAC"/>
</svg>
