<svg width="35" height="36" viewBox="0 0 35 36" fill="none" xmlns="http://www.w3.org/2000/svg">
<path d="M29.6483 6.18118C27.3827 5.12115 24.9602 4.35077 22.4276 3.91211C22.1165 4.47446 21.7531 5.23083 21.5026 5.83252C18.8103 5.42764 16.1428 5.42764 13.5 5.83252C13.2495 5.23083 12.8779 4.47446 12.5641 3.91211C10.0287 4.35077 7.60339 5.12398 5.33778 6.18679C0.768021 13.0923 -0.470766 19.8263 0.148628 26.4646C3.17953 28.7281 6.11685 30.103 9.00459 31.0027C9.71759 30.0214 10.3535 28.9783 10.9013 27.8789C9.85797 27.4825 8.85869 26.9933 7.91448 26.4253C8.16498 26.2397 8.41 26.0457 8.64672 25.8461C14.4057 28.5397 20.663 28.5397 26.3532 25.8461C26.5927 26.0457 26.8376 26.2397 27.0854 26.4253C26.1384 26.9961 25.1364 27.4853 24.0931 27.8818C24.6409 28.9783 25.274 30.0243 25.9898 31.0055C28.8803 30.1058 31.8203 28.7309 34.8512 26.4646C35.578 18.7691 33.6097 12.0969 29.6483 6.18118ZM11.6859 22.3821C9.95709 22.3821 8.53935 20.7682 8.53935 18.8028C8.53935 16.8375 9.92682 15.2207 11.6859 15.2207C13.445 15.2207 14.8627 16.8346 14.8324 18.8028C14.8351 20.7682 13.445 22.3821 11.6859 22.3821ZM23.314 22.3821C21.5852 22.3821 20.1675 20.7682 20.1675 18.8028C20.1675 16.8375 21.5549 15.2207 23.314 15.2207C25.0731 15.2207 26.4908 16.8346 26.4605 18.8028C26.4605 20.7682 25.0731 22.3821 23.314 22.3821Z" fill="white"/>
</svg>
