<svg width="29" height="29" viewBox="0 0 29 29" fill="none" xmlns="http://www.w3.org/2000/svg">
<path id="Vector" d="M25.467 0.5C26.2921 0.5 27.0835 0.827777 27.6669 1.41122C28.2503 1.99467 28.5781 2.78599 28.5781 3.61111V25.3889C28.5781 26.214 28.2503 27.0053 27.6669 27.5888C27.0835 28.1722 26.2921 28.5 25.467 28.5H3.68924C2.86412 28.5 2.07279 28.1722 1.48935 27.5888C0.905902 27.0053 0.578125 26.214 0.578125 25.3889V3.61111C0.578125 2.78599 0.905902 1.99467 1.48935 1.41122C2.07279 0.827777 2.86412 0.5 3.68924 0.5H25.467ZM24.6892 24.6111V16.3667C24.6892 15.0217 24.155 13.7319 23.2039 12.7808C22.2529 11.8298 20.9631 11.2956 19.6181 11.2956C18.2959 11.2956 16.7559 12.1044 16.0092 13.3178V11.5911H11.6692V24.6111H16.0092V16.9422C16.0092 15.7444 16.9737 14.7644 18.1715 14.7644C18.749 14.7644 19.303 14.9939 19.7114 15.4023C20.1198 15.8107 20.3492 16.3646 20.3492 16.9422V24.6111H24.6892ZM6.61368 9.14889C7.30678 9.14889 7.97149 8.87356 8.46159 8.38346C8.95168 7.89337 9.22701 7.22865 9.22701 6.53556C9.22701 5.08889 8.06035 3.90667 6.61368 3.90667C5.91646 3.90667 5.24779 4.18364 4.75478 4.67665C4.26176 5.16966 3.98479 5.83833 3.98479 6.53556C3.98479 7.98222 5.16701 9.14889 6.61368 9.14889ZM8.7759 24.6111V11.5911H4.46701V24.6111H8.7759Z" fill="white"/>
</svg>
