<svg width="17" height="21" viewBox="0 0 17 21" fill="none" xmlns="http://www.w3.org/2000/svg">
<path id="Vector" d="M8.37109 10.5C8.92109 10.5 9.39209 10.304 9.78409 9.912C10.1754 9.52067 10.3711 9.05 10.3711 8.5C10.3711 7.95 10.1754 7.479 9.78409 7.087C9.39209 6.69567 8.92109 6.5 8.37109 6.5C7.82109 6.5 7.35043 6.69567 6.95909 7.087C6.56709 7.479 6.37109 7.95 6.37109 8.5C6.37109 9.05 6.56709 9.52067 6.95909 9.912C7.35043 10.304 7.82109 10.5 8.37109 10.5ZM8.37109 20.5C5.68776 18.2167 3.68376 16.0957 2.35909 14.137C1.03376 12.179 0.371094 10.3667 0.371094 8.7C0.371094 6.2 1.17543 4.20833 2.78409 2.725C4.39209 1.24167 6.25443 0.5 8.37109 0.5C10.4878 0.5 12.3501 1.24167 13.9581 2.725C15.5668 4.20833 16.3711 6.2 16.3711 8.7C16.3711 10.3667 15.7088 12.179 14.3841 14.137C13.0588 16.0957 11.0544 18.2167 8.37109 20.5Z" fill="white"/>
</svg>
