<svg width="19" height="15" viewBox="0 0 19 15" fill="none" xmlns="http://www.w3.org/2000/svg">
<path id="Vector" d="M0.265458 1.52549L8.40088 9.66183C8.64155 9.90266 8.96301 10.0456 9.30305 10.0631C9.64308 10.0805 9.97749 9.97119 10.2415 9.75624L10.346 9.66183L18.476 1.53099C18.5025 1.63183 18.52 1.73449 18.5291 1.83991L18.5365 2.00033V13.0003C18.5366 13.4629 18.3619 13.9083 18.0474 14.2475C17.7329 14.5866 17.3019 14.7944 16.8406 14.8291L16.7031 14.8337H2.03646C1.57393 14.8338 1.12844 14.6591 0.789289 14.3446C0.45014 14.0301 0.242398 13.5991 0.207708 13.1378L0.203125 13.0003V2.00033C0.203125 1.89033 0.212292 1.78399 0.230625 1.67949L0.265458 1.52549ZM16.7031 0.166992C16.814 0.166992 16.9231 0.176159 17.0285 0.195409L17.1844 0.231159L9.37438 8.04116L1.56163 0.229325C1.66246 0.201825 1.76696 0.183492 1.87329 0.174325L2.03646 0.166992H16.7031Z" fill="white"/>
</svg>
