<?xml version="1.0" encoding="utf-8"?>
<!-- Generator: Adobe Illustrator 27.8.0, SVG Export Plug-In . SVG Version: 6.00 Build 0)  -->
<svg version="1.1" id="Layer_1" xmlns="http://www.w3.org/2000/svg" xmlns:xlink="http://www.w3.org/1999/xlink" x="0px" y="0px"
	 viewBox="0 0 1000 1000" style="enable-background:new 0 0 1000 1000;" xml:space="preserve">
<style type="text/css">
	.st0{fill:#F65A27;}
	.st1{fill:#0D3063;}
	.st2{fill:none;stroke:#0D3063;stroke-width:0.9586;stroke-miterlimit:10;}
	.st3{fill:#F5F5F5;}
	.st4{fill:#4D91FE;}
	.st5{fill:#A0EDA7;}
	.st6{fill:#FFC332;}
	.st7{fill:none;}
	.st8{fill:#DD471F;}
	.st9{fill:#FFFFFF;}
	.st10{fill:#EAAD24;}
	.st11{fill:#6CBC6F;}
	.st12{fill:#2F72D3;}
</style>
<g>
	<g>
		<path class="st0" d="M875.3,152.9c-2.2,0-4.1-0.5-5.8-1.4c-1.7-0.9-2.9-2.2-3.9-3.9c-0.9-1.7-1.4-3.6-1.4-5.9
			c0-2.2,0.5-4.2,1.4-5.9c1-1.7,2.3-3,3.9-3.9c1.7-0.9,3.6-1.4,5.8-1.4c1.1,0,2.2,0.1,3.1,0.4c0.9,0.2,1.8,0.5,2.4,0.9l-0.4,3.7
			c-0.8-0.4-1.6-0.7-2.4-0.9c-0.8-0.2-1.7-0.3-2.8-0.3c-1.5,0-2.8,0.3-3.8,1c-1,0.6-1.8,1.5-2.3,2.6c-0.5,1.1-0.8,2.4-0.8,3.8
			c0,1.4,0.3,2.7,0.8,3.8c0.5,1.1,1.3,2,2.2,2.6c1,0.6,2.2,1,3.7,1c1,0,2-0.1,2.8-0.3c0.8-0.2,1.6-0.5,2.5-0.9l0.4,3.7
			c-0.8,0.4-1.7,0.7-2.7,0.9C877.4,152.8,876.4,152.9,875.3,152.9z"/>
		<path class="st0" d="M884.3,152.5V131h7.9c1.5,0,2.8,0.2,3.9,0.7c1.1,0.5,2,1.2,2.6,2.1c0.6,1,0.9,2.2,0.9,3.7
			c0,1.6-0.3,2.8-1,3.8c-0.7,0.9-1.6,1.7-2.6,2.2l4.8,9h-4.4l-4.1-8c0,0-0.1,0-0.1,0c0,0,0,0-0.1,0h-3.8v8H884.3z M888.2,141.2h2.9
			c1.6,0,2.7-0.3,3.4-1s1-1.5,1-2.5c0-1.1-0.3-1.9-0.9-2.5c-0.6-0.6-1.7-0.9-3.2-0.9h-3V141.2z"/>
		<path class="st0" d="M903.5,152.5V131h3.9v21.5H903.5z"/>
		<path class="st0" d="M916.3,152.5v-17.7h-6.1V131h16.1v3.8h-6.1v17.7H916.3z"/>
		<path class="st0" d="M929.1,152.5V131h3.9v21.5H929.1z"/>
		<path class="st0" d="M947.5,152.9c-2.2,0-4.1-0.5-5.8-1.4c-1.7-0.9-2.9-2.2-3.9-3.9c-0.9-1.7-1.4-3.6-1.4-5.9
			c0-2.2,0.5-4.2,1.4-5.9c1-1.7,2.3-3,3.9-3.9c1.7-0.9,3.6-1.4,5.8-1.4c1.1,0,2.2,0.1,3.1,0.4c0.9,0.2,1.8,0.5,2.4,0.9l-0.4,3.7
			c-0.8-0.4-1.6-0.7-2.4-0.9c-0.8-0.2-1.7-0.3-2.8-0.3c-1.5,0-2.8,0.3-3.8,1c-1,0.6-1.8,1.5-2.3,2.6c-0.5,1.1-0.8,2.4-0.8,3.8
			c0,1.4,0.3,2.7,0.8,3.8c0.5,1.1,1.3,2,2.2,2.6c1,0.6,2.2,1,3.7,1c1,0,2-0.1,2.8-0.3c0.8-0.2,1.6-0.5,2.5-0.9l0.4,3.7
			c-0.8,0.4-1.7,0.7-2.7,0.9C949.6,152.8,948.5,152.9,947.5,152.9z"/>
		<path class="st0" d="M963.2,134.9h1l-6.2,17.6h-3.8l7.6-21.5h3.7l7.6,21.5h-3.8L963.2,134.9z M968.2,147.4h-9V144h9V147.4z"/>
		<path class="st0" d="M975.6,152.5V131h3.9v18h8.8v3.5H975.6z"/>
	</g>
	<g>
		<circle class="st1" cx="832.2" cy="143.3" r="9.6"/>
		<line class="st2" x1="726.7" y1="143.3" x2="832.2" y2="143.3"/>
	</g>
	<g>
		<path class="st3" d="M159.5,764.2V84.4c0-24.2-19.6-43.8-43.8-43.8S72,60.3,72,84.4v678.8c-35.6,16.2-60.4,52.1-60.4,93.8
			c0,56.9,46.1,103,103,103c56.9,0,103-46.1,103-103C217.7,816.2,193.9,780.9,159.5,764.2z"/>
		<g>
			<g>
				<g>
					
						<ellipse transform="matrix(0.7071 -0.7071 0.7071 0.7071 -572.4159 332.0759)" class="st4" cx="114.6" cy="857" rx="66.9" ry="66.9"/>
				</g>
			</g>
			<g>
				<rect x="99.2" y="583.6" class="st5" width="33" height="143.9"/>
			</g>
			<g>
				<rect x="99.2" y="431.4" class="st6" width="33" height="143.9"/>
			</g>
			<g>
				<rect x="99.2" y="735.8" class="st4" width="33" height="61.4"/>
			</g>
			<path class="st0" d="M132.2,93.3v25.4h-33V93.3c0-8.9,7.2-16.1,16.1-16.1h0.7C125,77.2,132.2,84.4,132.2,93.3z"/>
			<g>
				<rect x="99.2" y="279.2" class="st6" width="33" height="143.9"/>
			</g>
			<rect x="99.2" y="127" class="st0" width="33" height="143.9"/>
			<g>
				<line class="st7" x1="132.2" y1="279.2" x2="99.2" y2="279.2"/>
				<line class="st7" x1="132.2" y1="127" x2="99.2" y2="127"/>
			</g>
		</g>
	</g>
	<path class="st0" d="M772.4,204.5c0,4.8-3.9,8.7-8.7,8.7H425.5c-4.8,0-8.7-3.9-8.7-8.7V81.4c0-4.8,3.9-8.7,8.7-8.7h338.2
		c4.8,0,8.7,3.9,8.7,8.7V204.5z"/>
	<path class="st8" d="M290.7,195L290.7,195c-18.6-32.2-18.6-71.8,0-104l0,0c18.6-32.2,52.9-52,90.1-52h0c37.2,0,71.5,19.8,90.1,52
		l0,0c18.6,32.2,18.6,71.8,0,104l0,0c-18.6,32.2-52.9,52-90.1,52h0C343.7,247,309.3,227.2,290.7,195z"/>
	<path class="st0" d="M293.2,193.6L293.2,193.6c-18.1-31.3-18.1-69.9,0-101.2l0,0c18.1-31.3,51.5-50.6,87.6-50.6h0
		c36.1,0,69.5,19.3,87.6,50.6l0,0c18.1,31.3,18.1,69.9,0,101.2l0,0c-18.1,31.3-51.5,50.6-87.6,50.6h0
		C344.7,244.1,311.3,224.9,293.2,193.6z"/>
	<path class="st8" d="M313.9,181.6L313.9,181.6c-13.8-23.9-13.8-53.4,0-77.3l0,0c13.8-23.9,39.3-38.6,66.9-38.6h0
		c27.6,0,53.1,14.7,66.9,38.6l0,0c13.8,23.9,13.8,53.4,0,77.3l0,0c-13.8,23.9-39.3,38.6-66.9,38.6h0
		C353.2,220.3,327.7,205.6,313.9,181.6z"/>
	<g>
		<path class="st9" d="M569,151.7v-18.4h-6.3v-4h16.7v4h-6.3v18.4H569z"/>
		<path class="st9" d="M582.3,151.7v-22.3h4.1v22.3H582.3z"/>
		<path class="st9" d="M591.3,151.7v-22.3h14.3v4h-10.1v4.7h7.8v4h-7.8v5.7h10.4v4H591.3z"/>
		<path class="st9" d="M609.4,151.7v-22.3h8.2c1.5,0,2.9,0.2,4,0.7c1.2,0.5,2,1.2,2.7,2.2c0.6,1,1,2.3,1,3.8c0,1.6-0.3,2.9-1,3.9
			c-0.7,1-1.6,1.7-2.7,2.3l5,9.4h-4.6l-4.3-8.3c0,0-0.1,0-0.1,0c0,0,0,0-0.1,0h-4v8.3H609.4z M613.5,140h3c1.7,0,2.8-0.3,3.5-1
			c0.7-0.7,1-1.6,1-2.6c0-1.1-0.3-2-1-2.6s-1.8-0.9-3.4-0.9h-3.2V140z"/>
	</g>
	<g>
		<path class="st9" d="M368.7,169.8c-4.3,0-8.1-1.1-11.4-3.4c-3.2-2.3-5.8-5.4-7.6-9.5c-1.8-4.1-2.7-8.8-2.7-14.3
			c0-5.2,0.9-9.8,2.7-13.7c1.8-4,4.3-7,7.6-9.3c3.2-2.2,7-3.3,11.4-3.3c4.4,0,8.2,1.1,11.4,3.3c3.2,2.2,5.8,5.3,7.6,9.3
			c1.8,4,2.7,8.5,2.7,13.7c0,5.4-0.9,10.2-2.7,14.3c-1.8,4.1-4.3,7.3-7.6,9.5C376.9,168.6,373.1,169.8,368.7,169.8z M368.7,161.3
			c2.3,0,4.4-0.6,6.3-1.9c1.8-1.3,3.3-3.3,4.4-6c1.1-2.8,1.6-6.4,1.6-10.8c0-6.1-1.2-10.6-3.5-13.6c-2.3-3-5.3-4.4-8.8-4.4
			c-3.5,0-6.4,1.5-8.8,4.4c-2.4,2.9-3.5,7.5-3.5,13.6c0,4.4,0.5,8,1.6,10.7c1.1,2.8,2.5,4.8,4.4,6.1
			C364.3,160.7,366.4,161.3,368.7,161.3z"/>
		<path class="st9" d="M405.2,168.7v-38.2c-1,0.6-2,1.2-3,1.6c-1.1,0.5-2.2,0.8-3.4,1l-0.8-7.9c1.1-0.2,2.2-0.7,3.5-1.6
			c1.3-0.8,2.5-1.8,3.6-3c1.1-1.1,1.9-2.3,2.4-3.5h7.2v51.5H405.2z"/>
	</g>
	<path class="st6" d="M772.4,444.7c0,4.8-3.9,8.7-8.7,8.7H425.5c-4.8,0-8.7-3.9-8.7-8.7V321.6c0-4.8,3.9-8.7,8.7-8.7h338.2
		c4.8,0,8.7,3.9,8.7,8.7V444.7z"/>
	<path class="st10" d="M290.7,435.2L290.7,435.2c-18.6-32.2-18.6-71.8,0-104l0,0c18.6-32.2,52.9-52,90.1-52h0
		c37.2,0,71.5,19.8,90.1,52l0,0c18.6,32.2,18.6,71.8,0,104l0,0c-18.6,32.2-52.9,52-90.1,52h0C343.7,487.2,309.3,467.4,290.7,435.2z"
		/>
	<path class="st6" d="M293.2,433.7L293.2,433.7c-18.1-31.3-18.1-69.9,0-101.2l0,0c18.1-31.3,51.5-50.6,87.6-50.6h0
		c36.1,0,69.5,19.3,87.6,50.6l0,0c18.1,31.3,18.1,69.9,0,101.2l0,0c-18.1,31.3-51.5,50.6-87.6,50.6h0
		C344.7,484.3,311.3,465,293.2,433.7z"/>
	<path class="st10" d="M313.9,421.8L313.9,421.8c-13.8-23.9-13.8-53.4,0-77.3l0,0c13.8-23.9,39.3-38.6,66.9-38.6h0
		c27.6,0,53.1,14.7,66.9,38.6l0,0c13.8,23.9,13.8,53.4,0,77.3l0,0c-13.8,23.9-39.3,38.6-66.9,38.6h0
		C353.2,460.5,327.7,445.7,313.9,421.8z"/>
	<g>
		<path class="st9" d="M569,391.9v-18.4h-6.3v-4h16.7v4h-6.3v18.4H569z"/>
		<path class="st9" d="M582.3,391.9v-22.3h4.1v22.3H582.3z"/>
		<path class="st9" d="M591.3,391.9v-22.3h14.3v4h-10.1v4.7h7.8v4h-7.8v5.7h10.4v4H591.3z"/>
		<path class="st9" d="M609.4,391.9v-22.3h8.2c1.5,0,2.9,0.2,4,0.7c1.2,0.5,2,1.2,2.7,2.2c0.6,1,1,2.3,1,3.8c0,1.6-0.3,2.9-1,3.9
			c-0.7,1-1.6,1.7-2.7,2.3l5,9.4h-4.6l-4.3-8.3c0,0-0.1,0-0.1,0c0,0,0,0-0.1,0h-4v8.3H609.4z M613.5,380.2h3c1.7,0,2.8-0.3,3.5-1
			c0.7-0.7,1-1.6,1-2.6c0-1.1-0.3-2-1-2.6c-0.6-0.6-1.8-0.9-3.4-0.9h-3.2V380.2z"/>
	</g>
	<g>
		<path class="st9" d="M361.1,409.9c-4.3,0-8.1-1.1-11.4-3.4c-3.2-2.3-5.8-5.4-7.6-9.5c-1.8-4.1-2.7-8.8-2.7-14.3
			c0-5.2,0.9-9.8,2.7-13.7c1.8-4,4.3-7,7.6-9.3c3.2-2.2,7-3.3,11.4-3.3c4.4,0,8.2,1.1,11.4,3.3c3.2,2.2,5.8,5.3,7.6,9.3
			c1.8,4,2.7,8.5,2.7,13.7c0,5.4-0.9,10.2-2.7,14.3c-1.8,4.1-4.3,7.3-7.6,9.5C369.3,408.8,365.5,409.9,361.1,409.9z M361.1,401.5
			c2.3,0,4.4-0.6,6.3-1.9c1.8-1.3,3.3-3.3,4.4-6c1.1-2.8,1.6-6.4,1.6-10.8c0-6.1-1.2-10.6-3.5-13.6c-2.3-3-5.3-4.4-8.8-4.4
			c-3.5,0-6.4,1.5-8.8,4.4c-2.4,2.9-3.5,7.5-3.5,13.6c0,4.4,0.5,8,1.6,10.7c1.1,2.8,2.5,4.8,4.4,6.1
			C356.7,400.8,358.8,401.5,361.1,401.5z"/>
		<path class="st9" d="M390.3,408.9l13.5-20.8c1.8-2.7,3.2-5.1,4.3-6.9c1.1-1.9,1.9-3.5,2.4-5c0.5-1.4,0.7-2.8,0.7-4.2
			c0-2.1-0.6-3.8-1.8-5c-1.2-1.2-2.8-1.8-5-1.8c-2.6,0-4.9,0.6-6.9,1.9c-2,1.3-3.9,2.7-5.5,4.3l-1.2-9.5c2.2-1.8,4.6-3.1,7-4.1
			c2.5-1,5.3-1.5,8.5-1.5c3.1,0,5.7,0.6,7.8,1.9c2.1,1.3,3.6,3,4.6,5.1c1,2.1,1.5,4.4,1.5,6.9c0,1.9-0.3,3.9-0.8,5.8
			c-0.5,1.9-1.4,4.1-2.7,6.5c-1.2,2.4-2.9,5.1-5,8.3l-6,9.2h16.3v8.8H390.3z"/>
	</g>
	<path class="st5" d="M772.4,679.7c0,4.8-3.9,8.7-8.7,8.7H425.5c-4.8,0-8.7-3.9-8.7-8.7V556.6c0-4.8,3.9-8.7,8.7-8.7h338.2
		c4.8,0,8.7,3.9,8.7,8.7V679.7z"/>
	<path class="st11" d="M290.7,670.1L290.7,670.1c-18.6-32.2-18.6-71.8,0-104l0,0c18.6-32.2,52.9-52,90.1-52h0
		c37.2,0,71.5,19.8,90.1,52l0,0c18.6,32.2,18.6,71.8,0,104l0,0c-18.6,32.2-52.9,52-90.1,52h0C343.7,722.2,309.3,702.3,290.7,670.1z"
		/>
	<path class="st5" d="M293.2,668.7L293.2,668.7c-18.1-31.3-18.1-69.9,0-101.2l0,0c18.1-31.3,51.5-50.6,87.6-50.6h0
		c36.1,0,69.5,19.3,87.6,50.6l0,0c18.1,31.3,18.1,69.9,0,101.2l0,0c-18.1,31.3-51.5,50.6-87.6,50.6h0
		C344.7,719.3,311.3,700,293.2,668.7z"/>
	<path class="st11" d="M313.9,656.8L313.9,656.8c-13.8-23.9-13.8-53.4,0-77.3l0,0c13.8-23.9,39.3-38.6,66.9-38.6h0
		c27.6,0,53.1,14.7,66.9,38.6l0,0c13.8,23.9,13.8,53.4,0,77.3l0,0c-13.8,23.9-39.3,38.6-66.9,38.6h0
		C353.2,695.4,327.7,680.7,313.9,656.8z"/>
	<g>
		<path class="st9" d="M569,626.8v-18.4h-6.3v-4h16.7v4h-6.3v18.4H569z"/>
		<path class="st9" d="M582.3,626.8v-22.3h4.1v22.3H582.3z"/>
		<path class="st9" d="M591.3,626.8v-22.3h14.3v4h-10.1v4.7h7.8v4h-7.8v5.7h10.4v4H591.3z"/>
		<path class="st9" d="M609.4,626.8v-22.3h8.2c1.5,0,2.9,0.2,4,0.7c1.2,0.5,2,1.2,2.7,2.2c0.6,1,1,2.3,1,3.8c0,1.6-0.3,2.9-1,3.9
			c-0.7,1-1.6,1.7-2.7,2.3l5,9.4h-4.6l-4.3-8.3c0,0-0.1,0-0.1,0c0,0,0,0-0.1,0h-4v8.3H609.4z M613.5,615.1h3c1.7,0,2.8-0.3,3.5-1
			c0.7-0.7,1-1.6,1-2.6c0-1.1-0.3-2-1-2.6s-1.8-0.9-3.4-0.9h-3.2V615.1z"/>
	</g>
	<g>
		<path class="st9" d="M361,644.9c-4.3,0-8.1-1.1-11.4-3.4c-3.2-2.3-5.8-5.4-7.6-9.5c-1.8-4.1-2.7-8.8-2.7-14.3
			c0-5.2,0.9-9.8,2.7-13.7c1.8-4,4.3-7,7.6-9.3c3.2-2.2,7-3.3,11.4-3.3c4.4,0,8.2,1.1,11.4,3.3c3.2,2.2,5.8,5.3,7.6,9.3
			c1.8,4,2.7,8.5,2.7,13.7c0,5.4-0.9,10.2-2.7,14.3c-1.8,4.1-4.3,7.3-7.6,9.5C369.2,643.8,365.4,644.9,361,644.9z M361,636.4
			c2.3,0,4.4-0.6,6.3-1.9c1.8-1.3,3.3-3.3,4.4-6c1.1-2.8,1.6-6.4,1.6-10.8c0-6.1-1.2-10.6-3.5-13.6c-2.3-3-5.3-4.4-8.8-4.4
			c-3.5,0-6.4,1.5-8.8,4.4c-2.4,2.9-3.5,7.5-3.5,13.6c0,4.4,0.5,8,1.6,10.7c1.1,2.8,2.5,4.8,4.4,6.1
			C356.6,635.8,358.7,636.4,361,636.4z"/>
		<path class="st9" d="M404,644.9c-3.1,0-5.9-0.4-8.4-1.1c-2.5-0.7-4.5-1.5-6.1-2.2l2.3-7.9c1.6,0.8,3.5,1.5,5.6,2.2
			c2.1,0.6,4.3,1,6.6,1c2.7,0,4.9-0.6,6.5-1.9c1.6-1.2,2.4-3.1,2.4-5.7c0-2.6-0.8-4.5-2.4-5.8c-1.6-1.3-4-2-7.1-2h-5.2v-8.8h5.1
			c2.6,0,4.7-0.6,6.1-1.8c1.4-1.2,2.1-2.9,2.1-5.1c0-1.9-0.6-3.4-1.9-4.5c-1.3-1.1-3.1-1.7-5.6-1.7c-2.1,0-4.1,0.3-5.9,1
			c-1.9,0.6-3.7,1.5-5.5,2.5l-1.4-8.3c1.7-0.9,3.7-1.6,6-2.3c2.3-0.6,4.9-1,7.7-1c3.4,0,6.2,0.6,8.5,1.7c2.3,1.1,4,2.7,5.2,4.7
			c1.2,2,1.8,4.2,1.8,6.8c0,3.3-0.9,6.1-2.6,8.4c-1.8,2.3-4.3,3.9-7.5,4.7l-0.1-1.7c3.6,0.6,6.5,2,8.7,4.3c2.2,2.3,3.3,5.3,3.3,9
			c0,3.4-0.8,6.2-2.3,8.5c-1.5,2.3-3.7,4.1-6.4,5.3C410.8,644.3,407.6,644.9,404,644.9z"/>
	</g>
	<path class="st4" d="M772.4,918.6c0,4.8-3.9,8.7-8.7,8.7H425.5c-4.8,0-8.7-3.9-8.7-8.7V795.5c0-4.8,3.9-8.7,8.7-8.7h338.2
		c4.8,0,8.7,3.9,8.7,8.7V918.6z"/>
	<path class="st12" d="M290.7,909L290.7,909c-18.6-32.2-18.6-71.8,0-104l0,0c18.6-32.2,52.9-52,90.1-52h0c37.2,0,71.5,19.8,90.1,52
		l0,0c18.6,32.2,18.6,71.8,0,104l0,0c-18.6,32.2-52.9,52-90.1,52h0C343.7,961,309.3,941.2,290.7,909z"/>
	<path class="st4" d="M293.2,907.6L293.2,907.6c-18.1-31.3-18.1-69.9,0-101.2l0,0c18.1-31.3,51.5-50.6,87.6-50.6h0
		c36.1,0,69.5,19.3,87.6,50.6l0,0c18.1,31.3,18.1,69.9,0,101.2l0,0c-18.1,31.3-51.5,50.6-87.6,50.6h0
		C344.7,958.2,311.3,938.9,293.2,907.6z"/>
	<path class="st12" d="M313.9,895.7L313.9,895.7c-13.8-23.9-13.8-53.4,0-77.3l0,0c13.8-23.9,39.3-38.6,66.9-38.6h0
		c27.6,0,53.1,14.7,66.9,38.6l0,0c13.8,23.9,13.8,53.4,0,77.3l0,0c-13.8,23.9-39.3,38.6-66.9,38.6h0
		C353.2,934.3,327.7,919.6,313.9,895.7z"/>
	<g>
		<path class="st9" d="M569,865.7v-18.4h-6.3v-4h16.7v4h-6.3v18.4H569z"/>
		<path class="st9" d="M582.3,865.7v-22.3h4.1v22.3H582.3z"/>
		<path class="st9" d="M591.3,865.7v-22.3h14.3v4h-10.1v4.7h7.8v4h-7.8v5.7h10.4v4H591.3z"/>
		<path class="st9" d="M609.4,865.7v-22.3h8.2c1.5,0,2.9,0.2,4,0.7c1.2,0.5,2,1.2,2.7,2.2c0.6,1,1,2.3,1,3.8c0,1.6-0.3,2.9-1,3.9
			c-0.7,1-1.6,1.7-2.7,2.3l5,9.4h-4.6l-4.3-8.3c0,0-0.1,0-0.1,0c0,0,0,0-0.1,0h-4v8.3H609.4z M613.5,854h3c1.7,0,2.8-0.3,3.5-1
			c0.7-0.7,1-1.6,1-2.6c0-1.1-0.3-2-1-2.6s-1.8-0.9-3.4-0.9h-3.2V854z"/>
	</g>
	<g>
		<path class="st9" d="M357.8,883.8c-4.3,0-8.1-1.1-11.4-3.4c-3.2-2.3-5.8-5.4-7.6-9.5c-1.8-4.1-2.7-8.8-2.7-14.3
			c0-5.2,0.9-9.8,2.7-13.7c1.8-4,4.3-7,7.6-9.3c3.2-2.2,7-3.3,11.4-3.3c4.4,0,8.2,1.1,11.4,3.3c3.2,2.2,5.8,5.3,7.6,9.3
			c1.8,4,2.7,8.5,2.7,13.7c0,5.4-0.9,10.2-2.7,14.3c-1.8,4.1-4.3,7.3-7.6,9.5C365.9,882.6,362.1,883.8,357.8,883.8z M357.8,875.3
			c2.3,0,4.4-0.6,6.3-1.9c1.8-1.3,3.3-3.3,4.4-6c1.1-2.8,1.6-6.4,1.6-10.8c0-6.1-1.2-10.6-3.5-13.6c-2.3-3-5.3-4.4-8.8-4.4
			c-3.5,0-6.4,1.5-8.8,4.4c-2.4,2.9-3.5,7.5-3.5,13.6c0,4.4,0.5,8,1.6,10.7c1.1,2.8,2.5,4.8,4.4,6.1
			C353.4,874.7,355.4,875.3,357.8,875.3z"/>
		<path class="st9" d="M409.9,882.7V871h-25.7l28.3-39.7h6.4v32.1h6.6v7.6h-6.6v11.8H409.9z M396.6,866.4l-1.8-3.1h15.1v-21.9
			l2.4,2.6L396.6,866.4z"/>
	</g>
</g>
</svg>
