<?xml version="1.0" encoding="utf-8"?>
<!-- Generator: Adobe Illustrator 27.8.0, SVG Export Plug-In . SVG Version: 6.00 Build 0)  -->
<svg version="1.1" id="Layer_1" xmlns="http://www.w3.org/2000/svg" xmlns:xlink="http://www.w3.org/1999/xlink" x="0px" y="0px"
	 viewBox="0 0 1000 1000" style="enable-background:new 0 0 1000 1000;" xml:space="preserve">
<style type="text/css">
	.st0{fill:#F65A27;}
	.st1{fill:#4D91FE;}
	.st2{fill:#DD471F;}
	.st3{fill:#2F72D3;}
	.st4{fill:#FFFFFF;}
	.st5{fill:#0D3063;}
	.st6{fill:#FFC332;}
	.st7{fill:#A0EDA7;}
	.st8{fill:#EAAD24;}
	.st9{fill:#6CBC6F;}
</style>
<path class="st0" d="M153.2,292.8c0-4.6,3.7-8.3,8.3-8.3h302.8c4.6,0,8.3,3.7,8.3,8.3l19.3,58.6l-19.3,58.6c0,4.6-3.7,8.3-8.3,8.3
	H161.4c-4.6,0-8.3-3.7-8.3-8.3V292.8z"/>
<path class="st1" d="M153.2,521c0-4.6,3.7-8.3,8.3-8.3h302.8c4.6,0,8.3,3.7,8.3,8.3l19.3,58.6l-19.3,58.6c0,4.6-3.7,8.3-8.3,8.3
	H161.4c-4.6,0-8.3-3.7-8.3-8.3V521z"/>
<path class="st2" d="M20.9,406.3L20.9,406.3c-17.9-30.9-17.9-69.1,0-100l0,0c17.9-30.9,50.9-50,86.6-50h0c35.7,0,68.7,19.1,86.6,50
	l0,0c17.9,30.9,17.9,69.1,0,100l0,0c-17.9,30.9-50.9,50-86.6,50h0C71.8,456.3,38.8,437.3,20.9,406.3z"/>
<path class="st0" d="M24.1,404.5L24.1,404.5c-17.2-29.8-17.2-66.5,0-96.3l0,0c17.2-29.8,49-48.2,83.4-48.2h0
	c34.4,0,66.2,18.4,83.4,48.2l0,0c17.2,29.8,17.2,66.5,0,96.3l0,0c-17.2,29.8-49,48.2-83.4,48.2h0C73.1,452.7,41.3,434.3,24.1,404.5z
	"/>
<path class="st2" d="M43.8,393.1L43.8,393.1c-13.2-22.8-13.2-50.8,0-73.6l0,0c13.2-22.8,37.5-36.8,63.8-36.8h0
	c26.3,0,50.6,14,63.8,36.8l0,0c13.2,22.8,13.2,50.8,0,73.6l0,0c-13.2,22.8-37.5,36.8-63.8,36.8h0C81.2,429.9,56.9,415.9,43.8,393.1z
	"/>
<path class="st3" d="M20.9,629.6L20.9,629.6c-17.9-30.9-17.9-69.1,0-100l0,0c17.9-30.9,50.9-50,86.6-50h0c35.7,0,68.7,19.1,86.6,50
	l0,0c17.9,30.9,17.9,69.1,0,100l0,0c-17.9,30.9-50.9,50-86.6,50h0C71.8,679.6,38.8,660.6,20.9,629.6z"/>
<path class="st1" d="M24.1,627.8L24.1,627.8c-17.2-29.8-17.2-66.5,0-96.3l0,0c17.2-29.8,49-48.2,83.4-48.2h0
	c34.4,0,66.2,18.4,83.4,48.2l0,0c17.2,29.8,17.2,66.5,0,96.3l0,0c-17.2,29.8-49,48.2-83.4,48.2h0C73.1,676,41.3,657.6,24.1,627.8z"
	/>
<path class="st3" d="M43.8,616.4L43.8,616.4c-13.2-22.8-13.2-50.8,0-73.6l0,0c13.2-22.8,37.5-36.8,63.8-36.8h0
	c26.3,0,50.6,14,63.8,36.8l0,0c13.2,22.8,13.2,50.8,0,73.6l0,0c-13.2,22.8-37.5,36.8-63.8,36.8h0C81.2,653.3,56.9,639.2,43.8,616.4z
	"/>
<g>
	<path class="st4" d="M54.1,362.2v-13.5H59c0.9,0,1.7,0.1,2.4,0.4c0.7,0.3,1.2,0.7,1.6,1.4c0.4,0.6,0.6,1.4,0.6,2.3
		c0,1-0.2,1.8-0.6,2.4c-0.4,0.6-1,1-1.7,1.4l3,5.7h-2.8l-2.6-5c0,0,0,0,0,0s0,0,0,0h-2.4v5H54.1z M56.6,355.1h1.8
		c1,0,1.7-0.2,2.1-0.6c0.4-0.4,0.6-0.9,0.6-1.6c0-0.7-0.2-1.2-0.6-1.6s-1.1-0.6-2-0.6h-1.9V355.1z"/>
	<path class="st4" d="M66.2,362.2v-13.5h8.6v2.4h-6.1v2.9h4.7v2.4h-4.7v3.5H75v2.4H66.2z"/>
	<path class="st4" d="M81.1,362.5c-0.5,0-1.1-0.1-1.7-0.2c-0.6-0.1-1.1-0.2-1.6-0.4c-0.5-0.2-0.9-0.3-1.2-0.4l0.3-2.6
		c0.5,0.2,0.9,0.4,1.4,0.6c0.5,0.2,1,0.3,1.5,0.5c0.5,0.1,1,0.2,1.6,0.2c0.7,0,1.2-0.1,1.6-0.4c0.4-0.3,0.6-0.6,0.6-1.2
		c0-0.4-0.1-0.7-0.3-1c-0.2-0.2-0.6-0.5-1-0.7c-0.5-0.2-1.1-0.4-1.8-0.7c-0.7-0.3-1.4-0.5-1.9-0.9c-0.6-0.3-1-0.7-1.4-1.2
		s-0.5-1.1-0.5-1.9c0-0.7,0.2-1.4,0.6-2c0.4-0.6,0.9-1,1.6-1.4c0.7-0.3,1.6-0.5,2.7-0.5c0.8,0,1.6,0.1,2.4,0.3
		c0.7,0.2,1.4,0.4,1.9,0.6l-0.3,2.5c-0.8-0.3-1.5-0.6-2.1-0.8c-0.7-0.2-1.3-0.3-2-0.3c-0.7,0-1.3,0.1-1.7,0.4
		c-0.4,0.2-0.6,0.6-0.6,1.1c0,0.4,0.1,0.7,0.3,0.9c0.2,0.2,0.5,0.4,0.9,0.6c0.4,0.2,0.9,0.3,1.5,0.5c1,0.3,1.8,0.6,2.5,1
		c0.7,0.4,1.2,0.8,1.5,1.3c0.3,0.5,0.5,1.2,0.5,1.9c0,0.4-0.1,0.8-0.2,1.3c-0.1,0.5-0.4,0.9-0.7,1.3c-0.4,0.4-0.9,0.7-1.6,1
		C83.1,362.3,82.2,362.5,81.1,362.5z"/>
	<path class="st4" d="M91,362.2v-11.1h-3.8v-2.4h10.1v2.4h-3.8v11.1H91z"/>
	<path class="st4" d="M99,362.2v-13.5h4.9c0.9,0,1.7,0.1,2.4,0.4c0.7,0.3,1.2,0.7,1.6,1.4c0.4,0.6,0.6,1.4,0.6,2.3
		c0,1-0.2,1.8-0.6,2.4c-0.4,0.6-1,1-1.7,1.4l3,5.7h-2.8l-2.6-5c0,0,0,0,0,0s0,0,0,0h-2.4v5H99z M101.5,355.1h1.8
		c1,0,1.7-0.2,2.1-0.6c0.4-0.4,0.6-0.9,0.6-1.6c0-0.7-0.2-1.2-0.6-1.6c-0.4-0.4-1.1-0.6-2-0.6h-1.9V355.1z"/>
	<path class="st4" d="M111.1,362.2v-13.5h2.5v13.5H111.1z"/>
	<path class="st4" d="M122.7,362.5c-1.4,0-2.6-0.3-3.6-0.9s-1.9-1.4-2.4-2.5s-0.9-2.3-0.9-3.7c0-1.4,0.3-2.6,0.9-3.7
		c0.6-1.1,1.4-1.9,2.5-2.5c1.1-0.6,2.3-0.9,3.6-0.9c0.7,0,1.4,0.1,2,0.2c0.6,0.2,1.1,0.3,1.5,0.6l-0.3,2.4c-0.5-0.2-1-0.4-1.5-0.6
		c-0.5-0.1-1.1-0.2-1.7-0.2c-0.9,0-1.7,0.2-2.4,0.6c-0.6,0.4-1.1,0.9-1.4,1.7c-0.3,0.7-0.5,1.5-0.5,2.4c0,0.9,0.2,1.7,0.5,2.4
		c0.3,0.7,0.8,1.3,1.4,1.7c0.6,0.4,1.4,0.6,2.3,0.6c0.6,0,1.2-0.1,1.7-0.2c0.5-0.1,1-0.3,1.6-0.6l0.3,2.4c-0.5,0.2-1.1,0.4-1.7,0.6
		C124,362.4,123.3,362.5,122.7,362.5z"/>
	<path class="st4" d="M131,362.2v-11.1h-3.8v-2.4h10.1v2.4h-3.8v11.1H131z"/>
	<path class="st4" d="M139,362.2v-13.5h8.6v2.4h-6.1v2.9h4.7v2.4h-4.7v3.5h6.3v2.4H139z"/>
	<path class="st4" d="M150,362.2v-13.5h5.1c1.3,0,2.4,0.3,3.4,0.8c1,0.5,1.8,1.3,2.4,2.3c0.6,1,0.9,2.2,0.9,3.6
		c0,1.4-0.3,2.6-0.9,3.6c-0.6,1-1.4,1.8-2.4,2.3c-1,0.5-2.1,0.8-3.4,0.8H150z M152.5,360h2.6c0.9,0,1.6-0.2,2.2-0.5
		c0.6-0.4,1-0.9,1.3-1.6c0.3-0.7,0.4-1.5,0.4-2.4c0-0.9-0.1-1.8-0.4-2.4c-0.3-0.7-0.7-1.2-1.3-1.6c-0.6-0.4-1.3-0.5-2.2-0.5h-2.6
		V360z"/>
</g>
<g>
	<path class="st5" d="M228.4,356.2V344h1.7v5h6.2v-5h1.7v12.2h-1.7v-5.6h-6.2v5.6H228.4z"/>
	<path class="st5" d="M240.2,345.8V344h1.6v1.7H240.2z M240.2,356.2v-8.5h1.6v8.5H240.2z"/>
	<path class="st5" d="M247.3,360.5c-0.8,0-1.5-0.1-2.1-0.3c-0.6-0.2-1.1-0.5-1.4-0.9c-0.4-0.4-0.5-0.8-0.5-1.4
		c0-0.5,0.1-0.9,0.4-1.2c0.3-0.3,0.6-0.6,1.1-0.8c-0.3-0.1-0.5-0.3-0.6-0.5c-0.1-0.2-0.2-0.4-0.2-0.6c0-0.3,0.1-0.5,0.2-0.7
		c0.2-0.2,0.4-0.4,0.8-0.5c-0.5-0.3-0.8-0.7-1.1-1.2c-0.3-0.5-0.4-1.1-0.4-1.7c0-0.6,0.1-1.2,0.4-1.7c0.3-0.5,0.7-0.9,1.2-1.2
		c0.5-0.3,1.2-0.4,1.9-0.4c0.4,0,0.8,0.1,1.1,0.2c0.4,0.1,0.7,0.3,1,0.5c0.3-0.1,0.6-0.3,0.9-0.4c0.4-0.1,0.8-0.1,1.2-0.1
		c0,0,0.1,0,0.1,0s0,0,0.1,0l-0.2,1c-0.1,0-0.1,0-0.2,0s-0.1,0-0.2,0c-0.1,0-0.2,0-0.4,0c-0.2,0-0.4,0-0.6,0.1
		c0.2,0.3,0.4,0.6,0.6,0.9c0.1,0.3,0.2,0.7,0.2,1.1c0,0.6-0.1,1.2-0.4,1.7c-0.3,0.5-0.7,0.9-1.2,1.2c-0.5,0.3-1.2,0.4-1.9,0.4
		c-0.2,0-0.4,0-0.6,0c-0.2,0-0.4-0.1-0.5-0.1c-0.3,0.1-0.4,0.2-0.4,0.5c0,0.1,0.1,0.2,0.2,0.3c0.2,0.1,0.4,0.2,0.7,0.2l2.3,0.4
		c0.9,0.1,1.6,0.4,2.1,0.8c0.5,0.4,0.8,0.9,0.8,1.7c0,0.6-0.2,1.1-0.5,1.5c-0.3,0.4-0.8,0.7-1.5,0.9
		C248.9,360.4,248.2,360.5,247.3,360.5z M247.4,359.2c0.8,0,1.4-0.1,1.8-0.3c0.4-0.2,0.6-0.5,0.6-0.9c0-0.3-0.1-0.6-0.4-0.7
		c-0.3-0.2-0.7-0.3-1.2-0.4l-2.4-0.4c-0.3,0.1-0.6,0.3-0.8,0.6c-0.2,0.2-0.4,0.5-0.4,0.8c0,0.5,0.2,0.8,0.7,1.1
		C246,359,246.6,359.2,247.4,359.2z M246.9,353c0.7,0,1.2-0.2,1.5-0.6s0.5-0.9,0.5-1.5c0-0.6-0.2-1.1-0.5-1.5s-0.9-0.6-1.5-0.6
		c-0.7,0-1.2,0.2-1.5,0.6c-0.3,0.4-0.5,0.9-0.5,1.5c0,0.6,0.2,1.1,0.5,1.5C245.8,352.8,246.3,353,246.9,353z"/>
	<path class="st5" d="M252.5,356.2v-13h1.6v6l-0.6,0c0.4-0.5,0.8-0.9,1.3-1.2c0.5-0.3,1-0.4,1.8-0.4c0.7,0,1.3,0.2,1.8,0.5
		c0.5,0.3,0.9,0.8,1.1,1.4c0.2,0.6,0.4,1.3,0.4,2.1v4.7h-1.6v-4.6c0-0.9-0.2-1.6-0.5-2.1c-0.3-0.4-0.9-0.7-1.6-0.7
		c-0.5,0-1,0.1-1.4,0.4c-0.4,0.3-0.7,0.7-1,1.2l0.3-1v6.7H252.5z"/>
	<path class="st5" d="M264.1,356.4c-0.6,0-1-0.1-1.3-0.3c-0.3-0.2-0.6-0.5-0.7-0.8c-0.1-0.3-0.2-0.6-0.2-1v-11.2h1.6v10.3
		c0,0.5,0,0.9,0.1,1.1s0.2,0.4,0.4,0.5c0.2,0.1,0.5,0.1,0.9,0.1l-0.2,1.3H264.1z"/>
	<path class="st5" d="M266.6,360.4l2-4.6l-3.5-8.1h1.7l2.7,6.3l2.4-6.3h1.7l-5.2,12.7H266.6z"/>
	<path class="st5" d="M274.6,351.5V350h5.4v1.5H274.6z"/>
	<path class="st5" d="M285.6,356.4c-0.5,0-1,0-1.5-0.1c-0.5-0.1-1-0.2-1.4-0.3s-0.8-0.2-1.1-0.4l0.2-1.8c0.3,0.2,0.7,0.3,1.1,0.5
		s0.9,0.3,1.4,0.4s1,0.2,1.6,0.2c0.8,0,1.4-0.1,1.9-0.4c0.5-0.3,0.7-0.7,0.7-1.3c0-0.5-0.1-0.8-0.3-1.1c-0.2-0.3-0.6-0.5-1-0.8
		c-0.5-0.2-1.1-0.4-1.8-0.6c-0.7-0.2-1.3-0.4-1.8-0.7c-0.6-0.3-1-0.6-1.4-1.1c-0.3-0.5-0.5-1.1-0.5-1.8c0-0.6,0.2-1.2,0.5-1.7
		c0.3-0.5,0.8-0.9,1.5-1.2c0.6-0.3,1.4-0.4,2.4-0.4c0.8,0,1.5,0.1,2.2,0.3c0.7,0.2,1.2,0.4,1.7,0.6l-0.2,1.8
		c-0.7-0.4-1.3-0.7-1.9-0.8c-0.6-0.2-1.2-0.3-1.9-0.3c-0.7,0-1.3,0.1-1.8,0.4c-0.5,0.3-0.7,0.7-0.7,1.3c0,0.4,0.1,0.7,0.3,1
		c0.2,0.3,0.5,0.5,0.9,0.7c0.4,0.2,0.9,0.4,1.5,0.6c0.8,0.3,1.6,0.5,2.2,0.9s1.1,0.7,1.4,1.2c0.3,0.5,0.5,1.1,0.5,1.8
		c0,0.5-0.1,1-0.3,1.4c-0.2,0.4-0.5,0.8-0.9,1.1c-0.4,0.3-0.9,0.5-1.5,0.7C287.1,356.4,286.4,356.4,285.6,356.4z"/>
	<path class="st5" d="M296.1,356.4c-1,0-1.8-0.2-2.5-0.6c-0.7-0.4-1.2-1-1.6-1.6c-0.4-0.7-0.5-1.4-0.5-2.2c0-0.8,0.2-1.5,0.5-2.2
		c0.3-0.7,0.8-1.2,1.4-1.6c0.6-0.4,1.4-0.6,2.3-0.6c0.7,0,1.3,0.1,1.9,0.4c0.6,0.3,1,0.7,1.3,1.2c0.3,0.5,0.5,1.2,0.5,2
		c0,0.1,0,0.3,0,0.4c0,0.1,0,0.3-0.1,0.4h-6.2c0.1,0.8,0.3,1.4,0.6,1.8s0.7,0.8,1.1,0.9c0.5,0.2,1,0.3,1.5,0.3c0.4,0,0.8,0,1.2-0.1
		c0.4-0.1,0.8-0.2,1.2-0.4l0.2,1.2c-0.3,0.1-0.7,0.3-1.2,0.4C297.2,356.3,296.7,356.4,296.1,356.4z M293.2,350.9h4.5
		c0-0.4-0.1-0.7-0.2-1c-0.2-0.3-0.4-0.5-0.7-0.7c-0.3-0.2-0.7-0.2-1.2-0.2c-0.7,0-1.2,0.2-1.6,0.5
		C293.6,349.8,293.3,350.2,293.2,350.9z"/>
	<path class="st5" d="M300.9,356.2v-8.5h1.2l0.3,1.6l-0.6-0.3c0.6-0.6,1.1-1.1,1.7-1.3c0.5-0.2,1.1-0.3,1.6-0.3
		c1.2,0,2.1,0.4,2.7,1.1c0.5,0.7,0.8,1.7,0.8,2.9v4.7H307v-4.7c0-0.9-0.2-1.6-0.5-2c-0.3-0.4-0.9-0.6-1.7-0.6
		c-0.6,0-1.1,0.1-1.6,0.4c-0.5,0.3-0.8,0.7-0.9,1.2l0.2-1v6.7H300.9z"/>
	<path class="st5" d="M313,356.4c-0.8,0-1.4-0.1-1.9-0.3c-0.5-0.2-0.8-0.3-1-0.5l0.2-1.5c0.2,0.2,0.5,0.3,1,0.6
		c0.5,0.2,1,0.3,1.7,0.3c0.6,0,1-0.1,1.3-0.3c0.3-0.2,0.4-0.4,0.4-0.8c0-0.3-0.1-0.5-0.3-0.7c-0.2-0.2-0.4-0.3-0.7-0.4
		c-0.3-0.1-0.5-0.2-0.7-0.3c-0.4-0.1-0.8-0.2-1.2-0.4c-0.4-0.2-0.8-0.4-1-0.7c-0.3-0.3-0.4-0.8-0.4-1.3c0-0.4,0.1-0.8,0.3-1.2
		c0.2-0.4,0.5-0.7,1-1c0.5-0.2,1.1-0.4,1.9-0.4c0.6,0,1,0.1,1.4,0.2s0.7,0.2,0.9,0.4l-0.2,1.4c-0.2-0.2-0.5-0.4-0.9-0.5
		c-0.3-0.1-0.7-0.2-1.2-0.2c-0.5,0-0.9,0.1-1.2,0.3c-0.3,0.2-0.5,0.5-0.5,0.9s0.2,0.7,0.5,0.9c0.3,0.2,0.8,0.4,1.5,0.6
		c0.2,0.1,0.5,0.1,0.7,0.3c0.3,0.1,0.5,0.3,0.8,0.4c0.3,0.2,0.5,0.4,0.6,0.7c0.2,0.3,0.3,0.7,0.3,1.1c0,0.4-0.1,0.8-0.3,1.2
		c-0.2,0.4-0.5,0.7-1,1C314.5,356.2,313.9,356.4,313,356.4z"/>
	<path class="st5" d="M317.8,345.8V344h1.6v1.7H317.8z M317.8,356.2v-8.5h1.6v8.5H317.8z"/>
	<path class="st5" d="M324.4,356.4c-0.5,0-1-0.1-1.3-0.3c-0.3-0.2-0.6-0.5-0.7-0.8c-0.1-0.3-0.2-0.6-0.2-1v-5.4h-1.5l0.1-1.2h1.3
		v-2.1l1.6-0.2v2.3h2.2v1.2h-2.2v4.5c0,0.5,0,0.9,0.1,1.2c0.1,0.2,0.2,0.4,0.5,0.5c0.3,0.1,0.7,0.1,1.2,0.1h0.4l-0.1,1.3H324.4z"/>
	<path class="st5" d="M327.3,345.8V344h1.6v1.7H327.3z M327.3,356.2v-8.5h1.6v8.5H327.3z"/>
	<path class="st5" d="M333.3,356.2l-3.2-8.5h1.7l2.4,6.8l2.4-6.8h1.8l-3.2,8.5H333.3z"/>
	<path class="st5" d="M343.5,356.4c-1,0-1.8-0.2-2.5-0.6c-0.7-0.4-1.2-1-1.6-1.6c-0.4-0.7-0.5-1.4-0.5-2.2c0-0.8,0.2-1.5,0.5-2.2
		c0.3-0.7,0.8-1.2,1.4-1.6c0.6-0.4,1.4-0.6,2.3-0.6c0.7,0,1.3,0.1,1.9,0.4c0.6,0.3,1,0.7,1.3,1.2c0.3,0.5,0.5,1.2,0.5,2
		c0,0.1,0,0.3,0,0.4c0,0.1,0,0.3-0.1,0.4h-6.2c0.1,0.8,0.3,1.4,0.6,1.8s0.7,0.8,1.1,0.9c0.5,0.2,1,0.3,1.5,0.3c0.4,0,0.8,0,1.2-0.1
		c0.4-0.1,0.8-0.2,1.2-0.4l0.2,1.2c-0.3,0.1-0.7,0.3-1.2,0.4C344.6,356.3,344.1,356.4,343.5,356.4z M340.6,350.9h4.5
		c0-0.4-0.1-0.7-0.2-1c-0.2-0.3-0.4-0.5-0.7-0.7c-0.3-0.2-0.7-0.2-1.2-0.2c-0.7,0-1.2,0.2-1.6,0.5
		C341,349.8,340.8,350.2,340.6,350.9z"/>
	<path class="st5" d="M352.5,356.2V344h1.7v12.2H352.5z"/>
	<path class="st5" d="M356.5,356.2v-8.5h1.2l0.3,1.6l-0.6-0.3c0.6-0.6,1.1-1.1,1.7-1.3c0.5-0.2,1.1-0.3,1.6-0.3
		c1.2,0,2.1,0.4,2.7,1.1c0.5,0.7,0.8,1.7,0.8,2.9v4.7h-1.6v-4.7c0-0.9-0.2-1.6-0.5-2c-0.3-0.4-0.9-0.6-1.7-0.6
		c-0.6,0-1.1,0.1-1.6,0.4c-0.5,0.3-0.8,0.7-0.9,1.2l0.2-1v6.7H356.5z"/>
	<path class="st5" d="M366.7,356.2v-7.3h-1.5l0.2-1.2h1.3v-2c0-0.8,0.2-1.4,0.6-1.8c0.4-0.5,1-0.7,1.8-0.7c0.3,0,0.5,0,0.8,0.1
		c0.2,0,0.4,0.1,0.6,0.2l-0.2,1.3c-0.1-0.1-0.3-0.1-0.4-0.1s-0.3,0-0.5,0c-0.3,0-0.6,0.1-0.8,0.3c-0.2,0.2-0.3,0.5-0.3,0.9v1.9h2.3
		v1.2h-2.3v7.3H366.7z"/>
	<path class="st5" d="M375.4,356.4c-0.9,0-1.7-0.2-2.3-0.6c-0.6-0.4-1.1-0.9-1.4-1.6c-0.3-0.7-0.5-1.4-0.5-2.2
		c0-0.8,0.2-1.6,0.5-2.2c0.3-0.7,0.8-1.2,1.4-1.6c0.6-0.4,1.4-0.6,2.3-0.6c0.9,0,1.6,0.2,2.3,0.6c0.6,0.4,1.1,0.9,1.4,1.6
		c0.3,0.7,0.5,1.4,0.5,2.2c0,0.8-0.2,1.6-0.5,2.2c-0.3,0.7-0.8,1.2-1.4,1.6C377,356.2,376.3,356.4,375.4,356.4z M375.4,355
		c0.8,0,1.5-0.3,1.9-0.8c0.5-0.5,0.7-1.3,0.7-2.2s-0.2-1.7-0.7-2.2c-0.5-0.5-1.1-0.8-1.9-0.8c-0.8,0-1.5,0.3-1.9,0.8
		c-0.5,0.5-0.7,1.3-0.7,2.2s0.2,1.7,0.7,2.2C373.9,354.7,374.6,355,375.4,355z"/>
	<path class="st5" d="M381.2,356.2v-8.5h1.3l0.2,1.4c0.4-0.5,0.8-0.9,1.2-1.2c0.4-0.3,0.8-0.4,1.3-0.4c0.1,0,0.3,0,0.4,0.1l-0.2,1.7
		c-0.1,0-0.2,0-0.2,0c-0.1,0-0.2,0-0.3,0c-0.5,0-0.9,0.1-1.2,0.3c-0.4,0.2-0.6,0.4-0.8,0.7v6H381.2z"/>
	<path class="st5" d="M386.7,356.2v-8.5h1.2l0.3,1.6l-0.6-0.3c0.5-0.6,1.1-1,1.6-1.2c0.5-0.2,1-0.3,1.6-0.3c0.4,0,0.8,0.1,1.2,0.2
		c0.4,0.1,0.7,0.4,1,0.7c0.3,0.3,0.6,0.8,0.7,1.4l-0.4-0.2c0.3-0.7,0.6-1.2,1.2-1.6c0.5-0.4,1.2-0.6,2.1-0.6c0.7,0,1.3,0.1,1.8,0.4
		c0.5,0.3,0.9,0.7,1.1,1.2c0.2,0.5,0.4,1.2,0.4,2.1v5h-1.6v-5c0-0.8-0.2-1.4-0.5-1.7c-0.3-0.4-0.8-0.5-1.5-0.5
		c-0.5,0-0.9,0.1-1.2,0.2c-0.3,0.2-0.5,0.4-0.7,0.6c-0.2,0.2-0.3,0.5-0.3,0.8c0,0.3-0.1,0.5-0.1,0.8v4.9h-1.6v-4.7
		c0-0.7-0.1-1.2-0.3-1.6c-0.2-0.4-0.4-0.6-0.7-0.8c-0.3-0.1-0.6-0.2-1-0.2c-0.6,0-1.1,0.1-1.5,0.4c-0.5,0.3-0.8,0.7-0.9,1.2l0.2-0.9
		v6.6H386.7z"/>
	<path class="st5" d="M403.9,356.4c-0.5,0-1-0.1-1.4-0.3c-0.4-0.2-0.7-0.5-0.9-0.9c-0.2-0.4-0.3-0.8-0.3-1.3c0-0.5,0.1-0.9,0.3-1.2
		c0.2-0.3,0.5-0.6,0.9-0.9c0.4-0.2,0.8-0.4,1.2-0.5c0.4-0.1,0.9-0.2,1.4-0.3c0.5-0.1,0.9-0.1,1.4-0.1c0-0.8-0.2-1.3-0.5-1.6
		c-0.3-0.2-0.8-0.4-1.4-0.4c-0.3,0-0.7,0-1,0.1c-0.4,0.1-0.8,0.3-1.2,0.6l-0.2-1.3c0.3-0.3,0.8-0.5,1.3-0.6c0.5-0.2,1-0.2,1.6-0.2
		c0.7,0,1.3,0.1,1.7,0.4c0.4,0.3,0.8,0.7,1,1.3c0.2,0.6,0.3,1.4,0.3,2.4v1.7c0,0.4,0,0.7,0.1,1c0,0.3,0.1,0.5,0.3,0.6
		c0.1,0.1,0.4,0.2,0.7,0.2h0.2l-0.2,1.3h-0.1c-0.5,0-0.9,0-1.2-0.1c-0.3-0.1-0.5-0.2-0.6-0.4c-0.1-0.2-0.3-0.4-0.4-0.7
		c-0.3,0.4-0.7,0.7-1.1,0.9C405,356.3,404.5,356.4,403.9,356.4z M404.2,355.1c0.4,0,0.8-0.1,1.2-0.3c0.4-0.2,0.7-0.5,1-0.8v-2
		c-0.8,0-1.5,0.1-2,0.2c-0.5,0.1-0.9,0.3-1.1,0.6c-0.2,0.3-0.4,0.6-0.4,1c0,0.5,0.1,0.8,0.4,1C403.5,355,403.8,355.1,404.2,355.1z"
		/>
	<path class="st5" d="M413.1,356.4c-0.5,0-1-0.1-1.3-0.3c-0.3-0.2-0.6-0.5-0.7-0.8c-0.1-0.3-0.2-0.6-0.2-1v-5.4h-1.5l0.1-1.2h1.3
		v-2.1l1.6-0.2v2.3h2.2v1.2h-2.2v4.5c0,0.5,0,0.9,0.1,1.2c0.1,0.2,0.2,0.4,0.5,0.5c0.3,0.1,0.7,0.1,1.2,0.1h0.4l-0.1,1.3H413.1z"/>
	<path class="st5" d="M416,345.8V344h1.6v1.7H416z M416,356.2v-8.5h1.6v8.5H416z"/>
	<path class="st5" d="M423.4,356.4c-0.9,0-1.7-0.2-2.3-0.6c-0.6-0.4-1.1-0.9-1.4-1.6c-0.3-0.7-0.5-1.4-0.5-2.2
		c0-0.8,0.2-1.6,0.5-2.2c0.3-0.7,0.8-1.2,1.4-1.6c0.6-0.4,1.4-0.6,2.3-0.6c0.9,0,1.6,0.2,2.3,0.6c0.6,0.4,1.1,0.9,1.4,1.6
		c0.3,0.7,0.5,1.4,0.5,2.2c0,0.8-0.2,1.6-0.5,2.2c-0.3,0.7-0.8,1.2-1.4,1.6C425,356.2,424.3,356.4,423.4,356.4z M423.4,355
		c0.8,0,1.5-0.3,1.9-0.8c0.5-0.5,0.7-1.3,0.7-2.2s-0.2-1.7-0.7-2.2c-0.5-0.5-1.1-0.8-1.9-0.8c-0.8,0-1.5,0.3-1.9,0.8
		c-0.5,0.5-0.7,1.3-0.7,2.2s0.2,1.7,0.7,2.2C421.9,354.7,422.5,355,423.4,355z"/>
	<path class="st5" d="M429.2,356.2v-8.5h1.2l0.3,1.6l-0.6-0.3c0.6-0.6,1.1-1.1,1.7-1.3c0.5-0.2,1.1-0.3,1.6-0.3
		c1.2,0,2.1,0.4,2.7,1.1c0.5,0.7,0.8,1.7,0.8,2.9v4.7h-1.6v-4.7c0-0.9-0.2-1.6-0.5-2c-0.3-0.4-0.9-0.6-1.7-0.6
		c-0.6,0-1.1,0.1-1.6,0.4c-0.5,0.3-0.8,0.7-0.9,1.2l0.2-1v6.7H429.2z"/>
</g>
<g>
	<path class="st5" d="M231.9,584.6c-0.5,0-1,0-1.5-0.1c-0.5-0.1-1-0.2-1.4-0.3s-0.8-0.2-1.1-0.4l0.2-1.8c0.3,0.2,0.7,0.3,1.1,0.5
		c0.4,0.2,0.9,0.3,1.4,0.4c0.5,0.1,1,0.2,1.6,0.2c0.8,0,1.4-0.1,1.9-0.4c0.5-0.3,0.7-0.7,0.7-1.3c0-0.5-0.1-0.8-0.3-1.1
		c-0.2-0.3-0.6-0.5-1-0.8c-0.5-0.2-1.1-0.4-1.8-0.6c-0.7-0.2-1.3-0.4-1.8-0.7c-0.6-0.3-1-0.6-1.4-1.1c-0.3-0.5-0.5-1.1-0.5-1.8
		c0-0.6,0.2-1.2,0.5-1.7c0.3-0.5,0.8-0.9,1.5-1.2c0.6-0.3,1.4-0.4,2.4-0.4c0.8,0,1.5,0.1,2.2,0.3s1.2,0.4,1.7,0.6l-0.2,1.8
		c-0.7-0.4-1.3-0.7-1.9-0.8c-0.6-0.2-1.2-0.3-1.9-0.3c-0.7,0-1.3,0.1-1.8,0.4c-0.5,0.3-0.7,0.7-0.7,1.3c0,0.4,0.1,0.7,0.3,1
		c0.2,0.3,0.5,0.5,0.9,0.7c0.4,0.2,0.9,0.4,1.5,0.6c0.8,0.3,1.6,0.5,2.2,0.9c0.6,0.3,1.1,0.7,1.4,1.2c0.3,0.5,0.5,1.1,0.5,1.8
		c0,0.5-0.1,1-0.3,1.4c-0.2,0.4-0.5,0.8-0.9,1.1c-0.4,0.3-0.9,0.5-1.5,0.7C233.4,584.5,232.7,584.6,231.9,584.6z"/>
	<path class="st5" d="M242.3,584.6c-1,0-1.8-0.2-2.5-0.6c-0.7-0.4-1.2-1-1.6-1.6c-0.4-0.7-0.5-1.4-0.5-2.2c0-0.8,0.2-1.5,0.5-2.2
		c0.3-0.7,0.8-1.2,1.4-1.6c0.6-0.4,1.4-0.6,2.3-0.6c0.7,0,1.3,0.1,1.9,0.4c0.6,0.3,1,0.7,1.3,1.2c0.3,0.5,0.5,1.2,0.5,2
		c0,0.1,0,0.3,0,0.4c0,0.1,0,0.3-0.1,0.4h-6.2c0.1,0.8,0.3,1.4,0.6,1.8c0.3,0.4,0.7,0.8,1.1,0.9c0.5,0.2,1,0.3,1.5,0.3
		c0.4,0,0.8,0,1.2-0.1c0.4-0.1,0.8-0.2,1.2-0.4l0.2,1.2c-0.3,0.1-0.7,0.3-1.2,0.4C243.5,584.5,242.9,584.6,242.3,584.6z M239.4,579
		h4.5c0-0.4-0.1-0.7-0.2-1c-0.2-0.3-0.4-0.5-0.7-0.7c-0.3-0.2-0.7-0.2-1.2-0.2c-0.7,0-1.2,0.2-1.6,0.5
		C239.9,577.9,239.6,578.4,239.4,579z"/>
	<path class="st5" d="M247.1,584.4v-8.5h1.2l0.3,1.6l-0.6-0.3c0.6-0.6,1.1-1.1,1.7-1.3c0.5-0.2,1.1-0.3,1.6-0.3
		c1.2,0,2.1,0.4,2.7,1.1c0.5,0.7,0.8,1.7,0.8,2.9v4.7h-1.6v-4.7c0-0.9-0.2-1.6-0.5-2c-0.3-0.4-0.9-0.6-1.7-0.6
		c-0.6,0-1.1,0.1-1.6,0.4c-0.5,0.3-0.8,0.7-0.9,1.2l0.2-1v6.7H247.1z"/>
	<path class="st5" d="M259.2,584.6c-0.8,0-1.4-0.1-1.9-0.3c-0.5-0.2-0.8-0.3-1-0.5l0.2-1.5c0.2,0.2,0.5,0.3,1,0.6
		c0.5,0.2,1,0.3,1.7,0.3c0.6,0,1-0.1,1.3-0.3c0.3-0.2,0.4-0.4,0.4-0.8c0-0.3-0.1-0.5-0.3-0.7c-0.2-0.2-0.4-0.3-0.7-0.4
		c-0.3-0.1-0.5-0.2-0.7-0.3c-0.4-0.1-0.8-0.2-1.2-0.4c-0.4-0.2-0.8-0.4-1-0.7c-0.3-0.3-0.4-0.8-0.4-1.3c0-0.4,0.1-0.8,0.3-1.2
		c0.2-0.4,0.5-0.7,1-1c0.5-0.2,1.1-0.4,1.9-0.4c0.6,0,1,0.1,1.4,0.2c0.4,0.1,0.7,0.2,0.9,0.4l-0.2,1.4c-0.2-0.2-0.5-0.4-0.9-0.5
		c-0.3-0.1-0.7-0.2-1.2-0.2c-0.5,0-0.9,0.1-1.2,0.3c-0.3,0.2-0.5,0.5-0.5,0.9c0,0.4,0.2,0.7,0.5,0.9c0.3,0.2,0.8,0.4,1.5,0.6
		c0.2,0.1,0.5,0.1,0.7,0.3c0.3,0.1,0.5,0.3,0.8,0.4c0.3,0.2,0.5,0.4,0.6,0.7c0.2,0.3,0.3,0.7,0.3,1.1c0,0.4-0.1,0.8-0.3,1.2
		c-0.2,0.4-0.5,0.7-1,1C260.8,584.4,260.1,584.6,259.2,584.6z"/>
	<path class="st5" d="M264,574v-1.7h1.6v1.7H264z M264,584.4v-8.5h1.6v8.5H264z"/>
	<path class="st5" d="M270.6,584.6c-0.5,0-1-0.1-1.3-0.3c-0.3-0.2-0.6-0.5-0.7-0.8c-0.1-0.3-0.2-0.6-0.2-1v-5.4H267l0.1-1.2h1.3
		v-2.1l1.6-0.2v2.3h2.2v1.2H270v4.5c0,0.5,0,0.9,0.1,1.2c0.1,0.2,0.2,0.4,0.5,0.5c0.3,0.1,0.7,0.1,1.2,0.1h0.4l-0.1,1.3H270.6z"/>
	<path class="st5" d="M273.6,574v-1.7h1.6v1.7H273.6z M273.6,584.4v-8.5h1.6v8.5H273.6z"/>
	<path class="st5" d="M279.6,584.4l-3.2-8.5h1.7l2.4,6.8l2.4-6.8h1.8l-3.2,8.5H279.6z"/>
	<path class="st5" d="M289.7,584.6c-1,0-1.8-0.2-2.5-0.6c-0.7-0.4-1.2-1-1.6-1.6c-0.4-0.7-0.5-1.4-0.5-2.2c0-0.8,0.2-1.5,0.5-2.2
		c0.3-0.7,0.8-1.2,1.4-1.6c0.6-0.4,1.4-0.6,2.3-0.6c0.7,0,1.3,0.1,1.9,0.4c0.6,0.3,1,0.7,1.3,1.2c0.3,0.5,0.5,1.2,0.5,2
		c0,0.1,0,0.3,0,0.4c0,0.1,0,0.3-0.1,0.4h-6.2c0.1,0.8,0.3,1.4,0.6,1.8c0.3,0.4,0.7,0.8,1.1,0.9c0.5,0.2,1,0.3,1.5,0.3
		c0.4,0,0.8,0,1.2-0.1c0.4-0.1,0.8-0.2,1.2-0.4l0.2,1.2c-0.3,0.1-0.7,0.3-1.2,0.4C290.9,584.5,290.3,584.6,289.7,584.6z M286.8,579
		h4.5c0-0.4-0.1-0.7-0.2-1c-0.2-0.3-0.4-0.5-0.7-0.7c-0.3-0.2-0.7-0.2-1.2-0.2c-0.7,0-1.2,0.2-1.6,0.5
		C287.3,577.9,287,578.4,286.8,579z"/>
	<path class="st5" d="M298.8,584.4v-12.2h1.7v12.2H298.8z"/>
	<path class="st5" d="M302.7,584.4v-8.5h1.2l0.3,1.6l-0.6-0.3c0.6-0.6,1.1-1.1,1.7-1.3c0.5-0.2,1.1-0.3,1.6-0.3
		c1.2,0,2.1,0.4,2.7,1.1c0.5,0.7,0.8,1.7,0.8,2.9v4.7h-1.6v-4.7c0-0.9-0.2-1.6-0.5-2c-0.3-0.4-0.9-0.6-1.7-0.6
		c-0.6,0-1.1,0.1-1.6,0.4c-0.5,0.3-0.8,0.7-0.9,1.2l0.2-1v6.7H302.7z"/>
	<path class="st5" d="M312.9,584.4v-7.3h-1.5l0.2-1.2h1.3v-2c0-0.8,0.2-1.4,0.6-1.8c0.4-0.5,1-0.7,1.8-0.7c0.3,0,0.5,0,0.8,0.1
		c0.2,0,0.4,0.1,0.6,0.2l-0.2,1.3c-0.1-0.1-0.3-0.1-0.4-0.1c-0.1,0-0.3,0-0.5,0c-0.3,0-0.6,0.1-0.8,0.3c-0.2,0.2-0.3,0.5-0.3,0.9
		v1.9h2.3v1.2h-2.3v7.3H312.9z"/>
	<path class="st5" d="M321.6,584.6c-0.9,0-1.7-0.2-2.3-0.6c-0.6-0.4-1.1-0.9-1.4-1.6c-0.3-0.7-0.5-1.4-0.5-2.2
		c0-0.8,0.2-1.6,0.5-2.2c0.3-0.7,0.8-1.2,1.4-1.6c0.6-0.4,1.4-0.6,2.3-0.6c0.9,0,1.6,0.2,2.3,0.6c0.6,0.4,1.1,0.9,1.4,1.6
		c0.3,0.7,0.5,1.4,0.5,2.2c0,0.8-0.2,1.6-0.5,2.2c-0.3,0.7-0.8,1.2-1.4,1.6C323.3,584.4,322.5,584.6,321.6,584.6z M321.6,583.2
		c0.8,0,1.5-0.3,1.9-0.8c0.5-0.5,0.7-1.3,0.7-2.2c0-1-0.2-1.7-0.7-2.2c-0.5-0.5-1.1-0.8-1.9-0.8c-0.8,0-1.5,0.3-1.9,0.8
		c-0.5,0.5-0.7,1.3-0.7,2.2c0,1,0.2,1.7,0.7,2.2C320.1,582.9,320.8,583.2,321.6,583.2z"/>
	<path class="st5" d="M327.5,584.4v-8.5h1.3l0.2,1.4c0.4-0.5,0.8-0.9,1.2-1.2c0.4-0.3,0.8-0.4,1.3-0.4c0.1,0,0.3,0,0.4,0.1l-0.2,1.7
		c-0.1,0-0.2,0-0.2,0c-0.1,0-0.2,0-0.3,0c-0.5,0-0.9,0.1-1.2,0.3c-0.4,0.2-0.6,0.4-0.8,0.7v6H327.5z"/>
	<path class="st5" d="M333,584.4v-8.5h1.2l0.3,1.6l-0.6-0.3c0.5-0.6,1.1-1,1.6-1.2c0.5-0.2,1-0.3,1.6-0.3c0.4,0,0.8,0.1,1.2,0.2
		c0.4,0.1,0.7,0.4,1,0.7c0.3,0.3,0.6,0.8,0.7,1.4l-0.4-0.2c0.3-0.7,0.6-1.2,1.2-1.6c0.5-0.4,1.2-0.6,2.1-0.6c0.7,0,1.3,0.1,1.8,0.4
		c0.5,0.3,0.9,0.7,1.1,1.2c0.2,0.5,0.4,1.2,0.4,2.1v5h-1.6v-5c0-0.8-0.2-1.4-0.5-1.7c-0.3-0.4-0.8-0.5-1.5-0.5
		c-0.5,0-0.9,0.1-1.2,0.2c-0.3,0.2-0.5,0.4-0.7,0.6c-0.2,0.2-0.3,0.5-0.3,0.8c0,0.3-0.1,0.5-0.1,0.8v4.9h-1.6v-4.7
		c0-0.7-0.1-1.2-0.3-1.6c-0.2-0.4-0.4-0.6-0.7-0.8c-0.3-0.1-0.6-0.2-1-0.2c-0.6,0-1.1,0.1-1.5,0.4c-0.5,0.3-0.8,0.7-0.9,1.2l0.2-0.9
		v6.6H333z"/>
	<path class="st5" d="M350.2,584.6c-0.5,0-1-0.1-1.4-0.3c-0.4-0.2-0.7-0.5-0.9-0.9c-0.2-0.4-0.3-0.8-0.3-1.3c0-0.5,0.1-0.9,0.3-1.2
		c0.2-0.3,0.5-0.6,0.9-0.9c0.4-0.2,0.8-0.4,1.2-0.5c0.4-0.1,0.9-0.2,1.4-0.3c0.5-0.1,0.9-0.1,1.4-0.1c0-0.8-0.2-1.3-0.5-1.6
		c-0.3-0.2-0.8-0.4-1.4-0.4c-0.3,0-0.7,0-1,0.1c-0.4,0.1-0.8,0.3-1.2,0.6l-0.2-1.3c0.3-0.3,0.8-0.5,1.3-0.6c0.5-0.2,1-0.2,1.6-0.2
		c0.7,0,1.3,0.1,1.7,0.4c0.4,0.3,0.8,0.7,1,1.3c0.2,0.6,0.3,1.4,0.3,2.4v1.7c0,0.4,0,0.7,0.1,1c0,0.3,0.1,0.5,0.3,0.6
		c0.1,0.1,0.4,0.2,0.7,0.2h0.2l-0.2,1.3H355c-0.5,0-0.9,0-1.2-0.1c-0.3-0.1-0.5-0.2-0.6-0.4c-0.1-0.2-0.3-0.4-0.4-0.7
		c-0.3,0.4-0.7,0.7-1.1,0.9C351.2,584.4,350.7,584.6,350.2,584.6z M350.5,583.3c0.4,0,0.8-0.1,1.2-0.3c0.4-0.2,0.7-0.5,1-0.8v-2
		c-0.8,0-1.5,0.1-2,0.2c-0.5,0.1-0.9,0.3-1.1,0.6c-0.2,0.3-0.4,0.6-0.4,1c0,0.5,0.1,0.8,0.4,1C349.8,583.2,350.1,583.3,350.5,583.3z
		"/>
	<path class="st5" d="M359.3,584.6c-0.5,0-1-0.1-1.3-0.3c-0.3-0.2-0.6-0.5-0.7-0.8c-0.1-0.3-0.2-0.6-0.2-1v-5.4h-1.5l0.1-1.2h1.3
		v-2.1l1.6-0.2v2.3h2.2v1.2h-2.2v4.5c0,0.5,0,0.9,0.1,1.2c0.1,0.2,0.2,0.4,0.5,0.5c0.3,0.1,0.7,0.1,1.2,0.1h0.4l-0.1,1.3H359.3z"/>
	<path class="st5" d="M362.2,574v-1.7h1.6v1.7H362.2z M362.2,584.4v-8.5h1.6v8.5H362.2z"/>
	<path class="st5" d="M369.6,584.6c-0.9,0-1.7-0.2-2.3-0.6c-0.6-0.4-1.1-0.9-1.4-1.6c-0.3-0.7-0.5-1.4-0.5-2.2
		c0-0.8,0.2-1.6,0.5-2.2c0.3-0.7,0.8-1.2,1.4-1.6c0.6-0.4,1.4-0.6,2.3-0.6c0.9,0,1.6,0.2,2.3,0.6c0.6,0.4,1.1,0.9,1.4,1.6
		c0.3,0.7,0.5,1.4,0.5,2.2c0,0.8-0.2,1.6-0.5,2.2c-0.3,0.7-0.8,1.2-1.4,1.6C371.3,584.4,370.5,584.6,369.6,584.6z M369.6,583.2
		c0.8,0,1.5-0.3,1.9-0.8c0.5-0.5,0.7-1.3,0.7-2.2c0-1-0.2-1.7-0.7-2.2c-0.5-0.5-1.1-0.8-1.9-0.8c-0.8,0-1.5,0.3-1.9,0.8
		c-0.5,0.5-0.7,1.3-0.7,2.2c0,1,0.2,1.7,0.7,2.2C368.1,582.9,368.8,583.2,369.6,583.2z"/>
	<path class="st5" d="M375.5,584.4v-8.5h1.2l0.3,1.6l-0.6-0.3c0.6-0.6,1.1-1.1,1.7-1.3c0.5-0.2,1.1-0.3,1.6-0.3
		c1.2,0,2.1,0.4,2.7,1.1c0.5,0.7,0.8,1.7,0.8,2.9v4.7h-1.6v-4.7c0-0.9-0.2-1.6-0.5-2c-0.3-0.4-0.9-0.6-1.7-0.6
		c-0.6,0-1.1,0.1-1.6,0.4c-0.5,0.3-0.8,0.7-0.9,1.2l0.2-1v6.7H375.5z"/>
</g>
<g>
	<path class="st4" d="M64.9,584.9v-13.5h2.5v13.5H64.9z"/>
	<path class="st4" d="M70.3,584.9v-13.5h2.4l5.8,8.7v-8.7H81v13.5h-2l-6.2-9.3v9.3H70.3z"/>
	<path class="st4" d="M86.6,584.9v-11.1h-3.8v-2.4h10.1v2.4h-3.8v11.1H86.6z"/>
	<path class="st4" d="M94.7,584.9v-13.5h8.6v2.4h-6.1v2.9h4.7v2.4h-4.7v3.5h6.3v2.4H94.7z"/>
	<path class="st4" d="M105.6,584.9v-13.5h4.9c0.9,0,1.7,0.1,2.4,0.4c0.7,0.3,1.2,0.7,1.6,1.4c0.4,0.6,0.6,1.4,0.6,2.3
		c0,1-0.2,1.8-0.6,2.4c-0.4,0.6-1,1-1.7,1.4l3,5.7h-2.8l-2.6-5c0,0,0,0,0,0s0,0,0,0h-2.4v5H105.6z M108.1,577.8h1.8
		c1,0,1.7-0.2,2.1-0.6c0.4-0.4,0.6-0.9,0.6-1.6c0-0.7-0.2-1.2-0.6-1.6c-0.4-0.4-1.1-0.6-2-0.6h-1.9V577.8z"/>
	<path class="st4" d="M117.7,584.9v-13.5h2.4l5.8,8.7v-8.7h2.5v13.5h-2l-6.2-9.3v9.3H117.7z"/>
	<path class="st4" d="M135.6,573.8h0.6l-3.9,11.1h-2.4l4.8-13.5h2.3l4.8,13.5h-2.4L135.6,573.8z M138.8,581.7h-5.7v-2.2h5.7V581.7z"
		/>
	<path class="st4" d="M143.4,584.9v-13.5h2.5v11.3h5.6v2.2H143.4z"/>
</g>
<path class="st6" d="M847.7,413.5c0,4.6-3.7,8.3-8.3,8.3H536.6c-4.6,0-8.3-3.7-8.3-8.3L509,354.9l19.3-58.6c0-4.6,3.7-8.3,8.3-8.3
	h302.8c4.6,0,8.3,3.7,8.3,8.3V413.5z"/>
<path class="st7" d="M847.7,639.7c0,4.6-3.7,8.3-8.3,8.3H536.6c-4.6,0-8.3-3.7-8.3-8.3L509,581.1l19.3-58.6c0-4.6,3.7-8.3,8.3-8.3
	h302.8c4.6,0,8.3,3.7,8.3,8.3V639.7z"/>
<path class="st8" d="M805.9,404.9L805.9,404.9c-17.9-30.9-17.9-69.1,0-100l0,0c17.9-30.9,50.9-50,86.6-50h0
	c35.7,0,68.7,19.1,86.6,50l0,0c17.9,30.9,17.9,69.1,0,100l0,0c-17.9,30.9-50.9,50-86.6,50h0C856.8,454.9,823.8,435.8,805.9,404.9z"
	/>
<path class="st6" d="M809.1,403.1L809.1,403.1c-17.2-29.8-17.2-66.5,0-96.3l0,0c17.2-29.8,49-48.2,83.4-48.2h0
	c34.4,0,66.2,18.4,83.4,48.2l0,0c17.2,29.8,17.2,66.5,0,96.3l0,0c-17.2,29.8-49,48.2-83.4,48.2h0
	C858.1,451.2,826.3,432.9,809.1,403.1z"/>
<path class="st8" d="M828.7,391.7L828.7,391.7c-13.2-22.8-13.2-50.8,0-73.6l0,0c13.2-22.8,37.5-36.8,63.8-36.8h0
	c26.3,0,50.6,14,63.8,36.8l0,0c13.2,22.8,13.2,50.8,0,73.6l0,0c-13.2,22.8-37.5,36.8-63.8,36.8h0
	C866.2,428.5,841.9,414.5,828.7,391.7z"/>
<path class="st9" d="M801.8,631.1L801.8,631.1c-17.9-30.9-17.9-69.1,0-100l0,0c17.9-30.9,50.9-50,86.6-50h0
	c35.7,0,68.7,19.1,86.6,50l0,0c17.9,30.9,17.9,69.1,0,100l0,0c-17.9,30.9-50.9,50-86.6,50h0C852.6,681.1,819.6,662,801.8,631.1z"/>
<path class="st7" d="M804.9,629.2L804.9,629.2c-17.2-29.8-17.2-66.5,0-96.3l0,0c17.2-29.8,49-48.2,83.4-48.2h0
	c34.4,0,66.2,18.4,83.4,48.2l0,0c17.2,29.8,17.2,66.5,0,96.3l0,0c-17.2,29.8-49,48.2-83.4,48.2h0C853.9,677.4,822.1,659,804.9,629.2
	z"/>
<path class="st9" d="M824.6,617.9L824.6,617.9c-13.2-22.8-13.2-50.8,0-73.6l0,0c13.2-22.8,37.5-36.8,63.8-36.8h0
	c26.3,0,50.6,14,63.8,36.8l0,0c13.1,22.8,13.1,50.8,0,73.6l0,0c-13.2,22.8-37.5,36.8-63.8,36.8h0
	C862.1,654.7,837.8,640.6,824.6,617.9z"/>
<g>
	<path class="st5" d="M568.7,349.2v-12.2h1.8l6,9.1v-9.1h1.7v12.2h-1.4l-6.4-9.6v9.6H568.7z"/>
	<path class="st5" d="M584.1,349.4c-0.9,0-1.7-0.2-2.3-0.6c-0.6-0.4-1.1-0.9-1.4-1.6c-0.3-0.7-0.5-1.4-0.5-2.2
		c0-0.8,0.2-1.6,0.5-2.2c0.3-0.7,0.8-1.2,1.4-1.6c0.6-0.4,1.4-0.6,2.3-0.6c0.9,0,1.6,0.2,2.3,0.6c0.6,0.4,1.1,0.9,1.4,1.6
		c0.3,0.7,0.5,1.4,0.5,2.2c0,0.8-0.2,1.6-0.5,2.2c-0.3,0.7-0.8,1.2-1.4,1.6C585.7,349.2,585,349.4,584.1,349.4z M584.1,348
		c0.8,0,1.5-0.3,1.9-0.8c0.5-0.5,0.7-1.3,0.7-2.2s-0.2-1.7-0.7-2.2c-0.5-0.5-1.1-0.8-1.9-0.8c-0.8,0-1.5,0.3-1.9,0.8
		s-0.7,1.3-0.7,2.2s0.2,1.7,0.7,2.2C582.6,347.7,583.2,348,584.1,348z"/>
	<path class="st5" d="M589.9,349.2v-8.5h1.2l0.3,1.6l-0.6-0.3c0.6-0.6,1.1-1.1,1.7-1.3c0.5-0.2,1.1-0.3,1.6-0.3
		c1.2,0,2.1,0.4,2.7,1.1c0.5,0.7,0.8,1.7,0.8,2.9v4.7H596v-4.7c0-0.9-0.2-1.6-0.5-2c-0.3-0.4-0.9-0.6-1.7-0.6
		c-0.6,0-1.1,0.1-1.6,0.4c-0.5,0.3-0.8,0.7-0.9,1.2l0.2-1v6.7H589.9z"/>
	<path class="st5" d="M599.6,344.6v-1.5h5.4v1.5H599.6z"/>
	<path class="st5" d="M610.6,349.5c-0.5,0-1,0-1.5-0.1c-0.5-0.1-1-0.2-1.4-0.3s-0.8-0.2-1.1-0.4l0.2-1.8c0.3,0.2,0.7,0.3,1.1,0.5
		c0.4,0.2,0.9,0.3,1.4,0.4s1,0.2,1.6,0.2c0.8,0,1.4-0.1,1.9-0.4c0.5-0.3,0.7-0.7,0.7-1.3c0-0.5-0.1-0.8-0.3-1.1
		c-0.2-0.3-0.6-0.5-1-0.8c-0.5-0.2-1.1-0.4-1.7-0.6c-0.7-0.2-1.3-0.4-1.8-0.7c-0.6-0.3-1-0.6-1.4-1.1c-0.3-0.5-0.5-1.1-0.5-1.8
		c0-0.6,0.2-1.2,0.5-1.7c0.3-0.5,0.8-0.9,1.5-1.2c0.6-0.3,1.4-0.4,2.4-0.4c0.8,0,1.5,0.1,2.2,0.3c0.7,0.2,1.2,0.4,1.7,0.6l-0.2,1.8
		c-0.7-0.4-1.3-0.7-1.9-0.8c-0.6-0.2-1.2-0.3-1.9-0.3c-0.7,0-1.3,0.1-1.8,0.4c-0.5,0.3-0.7,0.7-0.7,1.3c0,0.4,0.1,0.7,0.3,1
		c0.2,0.3,0.5,0.5,0.9,0.7c0.4,0.2,0.9,0.4,1.5,0.6c0.8,0.3,1.6,0.5,2.2,0.9c0.6,0.3,1.1,0.7,1.4,1.2c0.3,0.5,0.5,1.1,0.5,1.8
		c0,0.5-0.1,1-0.3,1.4c-0.2,0.4-0.5,0.8-0.9,1.1c-0.4,0.3-0.9,0.5-1.5,0.7C612.1,349.4,611.4,349.5,610.6,349.5z"/>
	<path class="st5" d="M621,349.4c-1,0-1.8-0.2-2.5-0.6c-0.7-0.4-1.2-1-1.6-1.6c-0.4-0.7-0.5-1.4-0.5-2.2c0-0.8,0.2-1.5,0.5-2.2
		c0.3-0.7,0.8-1.2,1.4-1.6c0.6-0.4,1.4-0.6,2.3-0.6c0.7,0,1.3,0.1,1.9,0.4c0.6,0.3,1,0.7,1.3,1.2c0.3,0.5,0.5,1.2,0.5,2
		c0,0.1,0,0.3,0,0.4c0,0.1,0,0.3-0.1,0.4H618c0.1,0.8,0.3,1.4,0.6,1.8s0.7,0.8,1.1,0.9c0.5,0.2,1,0.3,1.5,0.3c0.4,0,0.8,0,1.2-0.1
		c0.4-0.1,0.8-0.2,1.2-0.4l0.2,1.2c-0.3,0.1-0.7,0.3-1.2,0.4C622.2,349.3,621.6,349.4,621,349.4z M618.1,343.9h4.5
		c0-0.4-0.1-0.7-0.2-1c-0.2-0.3-0.4-0.5-0.7-0.7s-0.7-0.2-1.2-0.2c-0.7,0-1.2,0.2-1.6,0.5S618.3,343.3,618.1,343.9z"/>
	<path class="st5" d="M625.8,349.2v-8.5h1.2l0.3,1.6l-0.6-0.3c0.6-0.6,1.1-1.1,1.7-1.3c0.5-0.2,1.1-0.3,1.6-0.3
		c1.2,0,2.1,0.4,2.7,1.1s0.8,1.7,0.8,2.9v4.7h-1.6v-4.7c0-0.9-0.2-1.6-0.5-2c-0.3-0.4-0.9-0.6-1.7-0.6c-0.6,0-1.1,0.1-1.6,0.4
		c-0.5,0.3-0.8,0.7-0.9,1.2l0.2-1v6.7H625.8z"/>
	<path class="st5" d="M637.9,349.4c-0.8,0-1.4-0.1-1.9-0.3c-0.5-0.2-0.8-0.3-1-0.5l0.2-1.5c0.2,0.2,0.5,0.3,1,0.6
		c0.5,0.2,1,0.3,1.7,0.3c0.6,0,1-0.1,1.3-0.3s0.4-0.4,0.4-0.8c0-0.3-0.1-0.5-0.3-0.7c-0.2-0.2-0.4-0.3-0.7-0.4
		c-0.3-0.1-0.5-0.2-0.7-0.3c-0.4-0.1-0.8-0.2-1.2-0.4c-0.4-0.2-0.8-0.4-1-0.7c-0.3-0.3-0.4-0.8-0.4-1.3c0-0.4,0.1-0.8,0.3-1.2
		c0.2-0.4,0.5-0.7,1-1c0.5-0.2,1.1-0.4,1.9-0.4c0.6,0,1,0.1,1.4,0.2s0.7,0.2,0.9,0.4l-0.2,1.4c-0.2-0.2-0.5-0.4-0.9-0.5
		c-0.3-0.1-0.7-0.2-1.2-0.2c-0.5,0-0.9,0.1-1.2,0.3c-0.3,0.2-0.5,0.5-0.5,0.9s0.2,0.7,0.5,0.9c0.3,0.2,0.8,0.4,1.5,0.6
		c0.2,0.1,0.5,0.1,0.7,0.3c0.3,0.1,0.5,0.3,0.8,0.4c0.3,0.2,0.5,0.4,0.6,0.7c0.2,0.3,0.3,0.7,0.3,1.1c0,0.4-0.1,0.8-0.3,1.2
		c-0.2,0.4-0.5,0.7-1,1C639.5,349.3,638.8,349.4,637.9,349.4z"/>
	<path class="st5" d="M642.7,338.8v-1.7h1.6v1.7H642.7z M642.7,349.2v-8.5h1.6v8.5H642.7z"/>
	<path class="st5" d="M649.3,349.4c-0.5,0-1-0.1-1.3-0.3s-0.6-0.5-0.7-0.8c-0.1-0.3-0.2-0.6-0.2-1v-5.4h-1.5l0.1-1.2h1.3v-2.1
		l1.6-0.2v2.3h2.2v1.2h-2.2v4.5c0,0.5,0,0.9,0.1,1.2s0.2,0.4,0.5,0.5c0.3,0.1,0.7,0.1,1.2,0.1h0.4l-0.1,1.3H649.3z"/>
	<path class="st5" d="M652.3,338.8v-1.7h1.6v1.7H652.3z M652.3,349.2v-8.5h1.6v8.5H652.3z"/>
	<path class="st5" d="M658.3,349.2l-3.2-8.5h1.7l2.4,6.8l2.4-6.8h1.8l-3.2,8.5H658.3z"/>
	<path class="st5" d="M668.4,349.4c-1,0-1.8-0.2-2.5-0.6c-0.7-0.4-1.2-1-1.6-1.6c-0.4-0.7-0.5-1.4-0.5-2.2c0-0.8,0.2-1.5,0.5-2.2
		c0.3-0.7,0.8-1.2,1.4-1.6c0.6-0.4,1.4-0.6,2.3-0.6c0.7,0,1.3,0.1,1.9,0.4c0.6,0.3,1,0.7,1.3,1.2c0.3,0.5,0.5,1.2,0.5,2
		c0,0.1,0,0.3,0,0.4c0,0.1,0,0.3-0.1,0.4h-6.2c0.1,0.8,0.3,1.4,0.6,1.8c0.3,0.4,0.7,0.8,1.1,0.9c0.5,0.2,1,0.3,1.5,0.3
		c0.4,0,0.8,0,1.2-0.1c0.4-0.1,0.8-0.2,1.2-0.4l0.2,1.2c-0.3,0.1-0.7,0.3-1.2,0.4C669.6,349.3,669,349.4,668.4,349.4z M665.6,343.9
		h4.5c0-0.4-0.1-0.7-0.2-1c-0.2-0.3-0.4-0.5-0.7-0.7s-0.7-0.2-1.2-0.2c-0.7,0-1.2,0.2-1.6,0.5C666,342.8,665.7,343.3,665.6,343.9z"
		/>
	<path class="st5" d="M677.5,349.2v-12.2h1.7v12.2H677.5z"/>
	<path class="st5" d="M681.4,349.2v-8.5h1.2l0.3,1.6l-0.6-0.3c0.6-0.6,1.1-1.1,1.7-1.3c0.5-0.2,1.1-0.3,1.6-0.3
		c1.2,0,2.1,0.4,2.7,1.1c0.5,0.7,0.8,1.7,0.8,2.9v4.7h-1.6v-4.7c0-0.9-0.2-1.6-0.5-2s-0.9-0.6-1.7-0.6c-0.6,0-1.1,0.1-1.6,0.4
		c-0.5,0.3-0.8,0.7-0.9,1.2l0.2-1v6.7H681.4z"/>
	<path class="st5" d="M691.6,349.2v-7.3h-1.5l0.2-1.2h1.3v-2c0-0.8,0.2-1.4,0.6-1.8c0.4-0.5,1-0.7,1.8-0.7c0.3,0,0.5,0,0.8,0.1
		c0.2,0,0.4,0.1,0.6,0.2l-0.2,1.3c-0.1-0.1-0.3-0.1-0.4-0.1c-0.1,0-0.3,0-0.5,0c-0.3,0-0.6,0.1-0.8,0.3c-0.2,0.2-0.3,0.5-0.3,0.9
		v1.9h2.3v1.2h-2.3v7.3H691.6z"/>
	<path class="st5" d="M700.3,349.4c-0.9,0-1.7-0.2-2.3-0.6c-0.6-0.4-1.1-0.9-1.4-1.6c-0.3-0.7-0.5-1.4-0.5-2.2
		c0-0.8,0.2-1.6,0.5-2.2c0.3-0.7,0.8-1.2,1.4-1.6c0.6-0.4,1.4-0.6,2.3-0.6c0.9,0,1.6,0.2,2.3,0.6c0.6,0.4,1.1,0.9,1.4,1.6
		c0.3,0.7,0.5,1.4,0.5,2.2c0,0.8-0.2,1.6-0.5,2.2c-0.3,0.7-0.8,1.2-1.4,1.6C702,349.2,701.2,349.4,700.3,349.4z M700.3,348
		c0.8,0,1.5-0.3,1.9-0.8c0.5-0.5,0.7-1.3,0.7-2.2s-0.2-1.7-0.7-2.2s-1.1-0.8-1.9-0.8c-0.8,0-1.5,0.3-1.9,0.8
		c-0.5,0.5-0.7,1.3-0.7,2.2s0.2,1.7,0.7,2.2C698.9,347.7,699.5,348,700.3,348z"/>
	<path class="st5" d="M706.2,349.2v-8.5h1.3l0.2,1.4c0.4-0.5,0.9-0.9,1.2-1.2c0.4-0.3,0.8-0.4,1.3-0.4c0.1,0,0.3,0,0.4,0.1l-0.2,1.7
		c-0.1,0-0.2,0-0.2,0c-0.1,0-0.2,0-0.3,0c-0.5,0-0.9,0.1-1.2,0.3c-0.4,0.2-0.6,0.4-0.8,0.7v6H706.2z"/>
	<path class="st5" d="M711.7,349.2v-8.5h1.2l0.3,1.6l-0.6-0.3c0.5-0.6,1.1-1,1.6-1.2c0.5-0.2,1-0.3,1.6-0.3c0.4,0,0.8,0.1,1.2,0.2
		c0.4,0.1,0.7,0.4,1,0.7c0.3,0.3,0.6,0.8,0.7,1.4l-0.4-0.2c0.3-0.7,0.6-1.2,1.2-1.6c0.5-0.4,1.2-0.6,2.1-0.6c0.7,0,1.3,0.1,1.8,0.4
		c0.5,0.3,0.9,0.7,1.1,1.2c0.2,0.5,0.4,1.2,0.4,2.1v5h-1.6v-5c0-0.8-0.2-1.4-0.5-1.7c-0.3-0.4-0.8-0.5-1.5-0.5
		c-0.5,0-0.9,0.1-1.2,0.2c-0.3,0.2-0.5,0.4-0.7,0.6c-0.2,0.2-0.3,0.5-0.3,0.8c0,0.3-0.1,0.5-0.1,0.8v4.9h-1.6v-4.7
		c0-0.7-0.1-1.2-0.3-1.6c-0.2-0.4-0.4-0.6-0.7-0.8c-0.3-0.1-0.6-0.2-1-0.2c-0.6,0-1.1,0.1-1.5,0.4c-0.5,0.3-0.8,0.7-0.9,1.2l0.2-0.9
		v6.6H711.7z"/>
	<path class="st5" d="M728.9,349.4c-0.5,0-1-0.1-1.4-0.3c-0.4-0.2-0.7-0.5-0.9-0.9c-0.2-0.4-0.3-0.8-0.3-1.3c0-0.5,0.1-0.9,0.3-1.2
		c0.2-0.3,0.5-0.6,0.9-0.9c0.4-0.2,0.8-0.4,1.2-0.5c0.4-0.1,0.9-0.2,1.4-0.3c0.5-0.1,0.9-0.1,1.4-0.1c0-0.8-0.2-1.3-0.5-1.6
		c-0.3-0.2-0.8-0.4-1.4-0.4c-0.3,0-0.7,0-1,0.1c-0.4,0.1-0.8,0.3-1.2,0.6l-0.2-1.3c0.3-0.3,0.8-0.5,1.3-0.6c0.5-0.2,1-0.2,1.6-0.2
		c0.7,0,1.3,0.1,1.7,0.4c0.4,0.3,0.8,0.7,1,1.3c0.2,0.6,0.3,1.4,0.3,2.4v1.7c0,0.4,0,0.7,0.1,1c0,0.3,0.1,0.5,0.3,0.6
		c0.1,0.1,0.4,0.2,0.7,0.2h0.2l-0.2,1.3h-0.1c-0.5,0-0.9,0-1.2-0.1c-0.3-0.1-0.5-0.2-0.6-0.4c-0.1-0.2-0.3-0.4-0.4-0.7
		c-0.3,0.4-0.7,0.7-1.1,0.9C729.9,349.3,729.4,349.4,728.9,349.4z M729.2,348.1c0.4,0,0.8-0.1,1.2-0.3c0.4-0.2,0.7-0.5,1-0.8v-2
		c-0.8,0-1.5,0.1-2,0.2c-0.5,0.1-0.9,0.3-1.1,0.6c-0.2,0.3-0.4,0.6-0.4,1c0,0.5,0.1,0.8,0.4,1C728.5,348,728.8,348.1,729.2,348.1z"
		/>
	<path class="st5" d="M738,349.4c-0.5,0-1-0.1-1.3-0.3c-0.3-0.2-0.6-0.5-0.7-0.8c-0.1-0.3-0.2-0.6-0.2-1v-5.4h-1.5l0.1-1.2h1.3v-2.1
		l1.6-0.2v2.3h2.2v1.2h-2.2v4.5c0,0.5,0,0.9,0.1,1.2c0.1,0.2,0.2,0.4,0.5,0.5c0.3,0.1,0.7,0.1,1.2,0.1h0.4l-0.1,1.3H738z"/>
	<path class="st5" d="M740.9,338.8v-1.7h1.6v1.7H740.9z M740.9,349.2v-8.5h1.6v8.5H740.9z"/>
	<path class="st5" d="M748.3,349.4c-0.9,0-1.7-0.2-2.3-0.6s-1.1-0.9-1.4-1.6c-0.3-0.7-0.5-1.4-0.5-2.2c0-0.8,0.2-1.6,0.5-2.2
		c0.3-0.7,0.8-1.2,1.4-1.6c0.6-0.4,1.4-0.6,2.3-0.6c0.9,0,1.6,0.2,2.3,0.6c0.6,0.4,1.1,0.9,1.4,1.6c0.3,0.7,0.5,1.4,0.5,2.2
		c0,0.8-0.2,1.6-0.5,2.2c-0.3,0.7-0.8,1.2-1.4,1.6S749.2,349.4,748.3,349.4z M748.3,348c0.8,0,1.5-0.3,1.9-0.8
		c0.5-0.5,0.7-1.3,0.7-2.2s-0.2-1.7-0.7-2.2c-0.5-0.5-1.1-0.8-1.9-0.8c-0.8,0-1.5,0.3-1.9,0.8c-0.5,0.5-0.7,1.3-0.7,2.2
		s0.2,1.7,0.7,2.2C746.8,347.7,747.5,348,748.3,348z"/>
	<path class="st5" d="M754.2,349.2v-8.5h1.2l0.3,1.6l-0.6-0.3c0.6-0.6,1.1-1.1,1.7-1.3c0.5-0.2,1.1-0.3,1.6-0.3
		c1.2,0,2.1,0.4,2.7,1.1c0.5,0.7,0.8,1.7,0.8,2.9v4.7h-1.6v-4.7c0-0.9-0.2-1.6-0.5-2s-0.9-0.6-1.7-0.6c-0.6,0-1.1,0.1-1.6,0.4
		c-0.5,0.3-0.8,0.7-0.9,1.2l0.2-1v6.7H754.2z"/>
	<path class="st5" d="M571.3,370.2c-0.5,0-1-0.1-1.3-0.3c-0.3-0.2-0.6-0.5-0.7-0.8c-0.1-0.3-0.2-0.6-0.2-1v-5.4h-1.5l0.1-1.2h1.3
		v-2.1l1.6-0.2v2.3h2.2v1.2h-2.2v4.5c0,0.5,0,0.9,0.1,1.2c0.1,0.2,0.2,0.4,0.5,0.5c0.3,0.1,0.7,0.1,1.2,0.1h0.4l-0.1,1.3H571.3z"/>
	<path class="st5" d="M574.2,370.1v-13h1.6v6l-0.6,0c0.4-0.5,0.8-0.9,1.3-1.2c0.5-0.3,1.1-0.4,1.8-0.4c0.7,0,1.3,0.2,1.8,0.5
		c0.5,0.3,0.9,0.8,1.1,1.4c0.2,0.6,0.4,1.3,0.4,2.1v4.7h-1.6v-4.6c0-0.9-0.2-1.6-0.5-2.1c-0.3-0.4-0.9-0.7-1.6-0.7
		c-0.5,0-1,0.1-1.4,0.4c-0.4,0.3-0.7,0.7-1,1.2l0.3-1v6.7H574.2z"/>
	<path class="st5" d="M585.6,370.2c-0.5,0-1-0.1-1.4-0.3c-0.4-0.2-0.7-0.5-0.9-0.9c-0.2-0.4-0.3-0.8-0.3-1.3c0-0.5,0.1-0.9,0.3-1.2
		c0.2-0.3,0.5-0.6,0.9-0.9c0.4-0.2,0.8-0.4,1.2-0.5c0.4-0.1,0.9-0.2,1.4-0.3c0.5-0.1,0.9-0.1,1.4-0.1c0-0.8-0.2-1.3-0.5-1.6
		c-0.3-0.2-0.8-0.4-1.4-0.4c-0.3,0-0.7,0-1,0.1c-0.4,0.1-0.8,0.3-1.2,0.6l-0.2-1.3c0.3-0.3,0.8-0.5,1.3-0.6c0.5-0.2,1-0.2,1.6-0.2
		c0.7,0,1.3,0.1,1.7,0.4c0.4,0.3,0.8,0.7,1,1.3c0.2,0.6,0.3,1.4,0.3,2.4v1.7c0,0.4,0,0.7,0.1,1c0,0.3,0.1,0.5,0.3,0.6
		c0.1,0.1,0.4,0.2,0.7,0.2h0.2l-0.2,1.3h-0.1c-0.5,0-0.9,0-1.2-0.1c-0.3-0.1-0.5-0.2-0.6-0.4c-0.1-0.2-0.3-0.4-0.4-0.7
		c-0.3,0.4-0.7,0.7-1.1,0.9C586.7,370.1,586.2,370.2,585.6,370.2z M585.9,369c0.4,0,0.8-0.1,1.2-0.3c0.4-0.2,0.7-0.5,1-0.8v-2
		c-0.8,0-1.5,0.1-2,0.2c-0.5,0.1-0.9,0.3-1.1,0.6c-0.2,0.3-0.4,0.6-0.4,1c0,0.5,0.1,0.8,0.4,1C585.2,368.9,585.5,369,585.9,369z"/>
	<path class="st5" d="M594.8,370.2c-0.5,0-1-0.1-1.3-0.3c-0.3-0.2-0.6-0.5-0.7-0.8c-0.1-0.3-0.2-0.6-0.2-1v-5.4h-1.5l0.1-1.2h1.3
		v-2.1l1.6-0.2v2.3h2.2v1.2h-2.2v4.5c0,0.5,0,0.9,0.1,1.2s0.2,0.4,0.5,0.5c0.3,0.1,0.7,0.1,1.2,0.1h0.4l-0.1,1.3H594.8z"/>
	<path class="st5" d="M601.6,359.6v-1.7h1.6v1.7H601.6z M601.6,370.1v-8.5h1.6v8.5H601.6z"/>
	<path class="st5" d="M607.7,370.2c-0.8,0-1.4-0.1-1.9-0.3c-0.5-0.2-0.8-0.3-1-0.5l0.2-1.5c0.2,0.2,0.5,0.3,1,0.6
		c0.5,0.2,1,0.3,1.7,0.3c0.6,0,1-0.1,1.3-0.3c0.3-0.2,0.4-0.4,0.4-0.8c0-0.3-0.1-0.5-0.3-0.7c-0.2-0.2-0.4-0.3-0.7-0.4
		c-0.3-0.1-0.5-0.2-0.7-0.3c-0.4-0.1-0.8-0.2-1.2-0.4c-0.4-0.2-0.8-0.4-1-0.7c-0.3-0.3-0.4-0.8-0.4-1.3c0-0.4,0.1-0.8,0.3-1.2
		c0.2-0.4,0.5-0.7,1-1c0.5-0.2,1.1-0.4,1.9-0.4c0.6,0,1,0.1,1.4,0.2s0.7,0.2,0.9,0.4l-0.2,1.4c-0.2-0.2-0.5-0.4-0.9-0.5
		c-0.3-0.1-0.7-0.2-1.2-0.2c-0.5,0-0.9,0.1-1.2,0.3c-0.3,0.2-0.5,0.5-0.5,0.9c0,0.4,0.2,0.7,0.5,0.9c0.3,0.2,0.8,0.4,1.5,0.6
		c0.2,0.1,0.5,0.1,0.7,0.3c0.3,0.1,0.5,0.3,0.8,0.4c0.3,0.2,0.5,0.4,0.6,0.7c0.2,0.3,0.3,0.7,0.3,1.1c0,0.4-0.1,0.8-0.3,1.2
		c-0.2,0.4-0.5,0.7-1,1C609.2,370.1,608.5,370.2,607.7,370.2z"/>
	<path class="st5" d="M616.4,370.1v-8.5h1.2l0.3,1.6l-0.6-0.3c0.6-0.6,1.1-1.1,1.7-1.3c0.5-0.2,1.1-0.3,1.6-0.3
		c1.2,0,2.1,0.4,2.7,1.1c0.5,0.7,0.8,1.7,0.8,2.9v4.7h-1.6v-4.7c0-0.9-0.2-1.6-0.5-2c-0.3-0.4-0.9-0.6-1.7-0.6
		c-0.6,0-1.1,0.1-1.6,0.4c-0.5,0.3-0.8,0.7-0.9,1.2l0.2-1v6.7H616.4z"/>
	<path class="st5" d="M629.8,370.2c-0.9,0-1.7-0.2-2.3-0.6s-1.1-0.9-1.4-1.6c-0.3-0.7-0.5-1.4-0.5-2.2c0-0.8,0.2-1.6,0.5-2.2
		c0.3-0.7,0.8-1.2,1.4-1.6c0.6-0.4,1.4-0.6,2.3-0.6c0.9,0,1.6,0.2,2.3,0.6c0.6,0.4,1.1,0.9,1.4,1.6c0.3,0.7,0.5,1.4,0.5,2.2
		c0,0.8-0.2,1.6-0.5,2.2c-0.3,0.7-0.8,1.2-1.4,1.6S630.7,370.2,629.8,370.2z M629.8,368.9c0.8,0,1.5-0.3,1.9-0.8
		c0.5-0.5,0.7-1.3,0.7-2.2s-0.2-1.7-0.7-2.2c-0.5-0.5-1.1-0.8-1.9-0.8c-0.8,0-1.5,0.3-1.9,0.8c-0.5,0.5-0.7,1.3-0.7,2.2
		s0.2,1.7,0.7,2.2C628.3,368.6,629,368.9,629.8,368.9z"/>
	<path class="st5" d="M638.5,370.2c-0.5,0-1-0.1-1.3-0.3c-0.3-0.2-0.6-0.5-0.7-0.8c-0.1-0.3-0.2-0.6-0.2-1v-5.4h-1.5l0.1-1.2h1.3
		v-2.1l1.6-0.2v2.3h2.2v1.2h-2.2v4.5c0,0.5,0,0.9,0.1,1.2c0.1,0.2,0.2,0.4,0.5,0.5c0.3,0.1,0.7,0.1,1.2,0.1h0.4l-0.1,1.3H638.5z"/>
	<path class="st5" d="M645.3,370.1v-8.5h1.3l0.2,1.4c0.4-0.5,0.9-0.9,1.2-1.2c0.4-0.3,0.8-0.4,1.3-0.4c0.1,0,0.3,0,0.4,0.1l-0.2,1.7
		c-0.1,0-0.2,0-0.2,0c-0.1,0-0.2,0-0.3,0c-0.5,0-0.9,0.1-1.2,0.3c-0.4,0.2-0.6,0.4-0.8,0.7v6H645.3z"/>
	<path class="st5" d="M654.6,370.2c-1,0-1.8-0.2-2.5-0.6c-0.7-0.4-1.2-1-1.5-1.6c-0.4-0.7-0.5-1.4-0.5-2.2c0-0.8,0.2-1.5,0.5-2.2
		c0.3-0.7,0.8-1.2,1.4-1.6c0.6-0.4,1.4-0.6,2.3-0.6c0.7,0,1.3,0.1,1.9,0.4c0.6,0.3,1,0.7,1.3,1.2c0.3,0.5,0.5,1.2,0.5,2
		c0,0.1,0,0.3,0,0.4c0,0.1,0,0.3-0.1,0.4h-6.2c0.1,0.8,0.3,1.4,0.6,1.8c0.3,0.4,0.7,0.8,1.1,0.9c0.5,0.2,1,0.3,1.5,0.3
		c0.4,0,0.8,0,1.2-0.1c0.4-0.1,0.8-0.2,1.2-0.4l0.2,1.2c-0.3,0.1-0.7,0.3-1.2,0.4C655.8,370.2,655.2,370.2,654.6,370.2z
		 M651.8,364.7h4.5c0-0.4-0.1-0.7-0.2-1c-0.2-0.3-0.4-0.5-0.7-0.7c-0.3-0.2-0.7-0.2-1.2-0.2c-0.7,0-1.2,0.2-1.6,0.5
		C652.2,363.6,651.9,364.1,651.8,364.7z"/>
	<path class="st5" d="M661.6,370.2c-0.6,0-1-0.1-1.3-0.3c-0.3-0.2-0.6-0.5-0.7-0.8c-0.1-0.3-0.2-0.6-0.2-1V357h1.6v10.3
		c0,0.5,0,0.9,0.1,1.1c0.1,0.2,0.2,0.4,0.4,0.5c0.2,0.1,0.5,0.1,0.9,0.1l-0.2,1.3H661.6z"/>
	<path class="st5" d="M667.5,370.2c-1,0-1.8-0.2-2.5-0.6c-0.7-0.4-1.2-1-1.6-1.6c-0.4-0.7-0.5-1.4-0.5-2.2c0-0.8,0.2-1.5,0.5-2.2
		c0.3-0.7,0.8-1.2,1.4-1.6c0.6-0.4,1.4-0.6,2.3-0.6c0.7,0,1.3,0.1,1.9,0.4c0.6,0.3,1,0.7,1.3,1.2c0.3,0.5,0.5,1.2,0.5,2
		c0,0.1,0,0.3,0,0.4c0,0.1,0,0.3-0.1,0.4h-6.2c0.1,0.8,0.3,1.4,0.6,1.8c0.3,0.4,0.7,0.8,1.1,0.9c0.5,0.2,1,0.3,1.5,0.3
		c0.4,0,0.8,0,1.2-0.1c0.4-0.1,0.8-0.2,1.2-0.4l0.2,1.2c-0.3,0.1-0.7,0.3-1.2,0.4C668.7,370.2,668.2,370.2,667.5,370.2z
		 M664.7,364.7h4.5c0-0.4-0.1-0.7-0.2-1c-0.2-0.3-0.4-0.5-0.7-0.7c-0.3-0.2-0.7-0.2-1.2-0.2c-0.7,0-1.2,0.2-1.6,0.5
		C665.1,363.6,664.8,364.1,664.7,364.7z"/>
	<path class="st5" d="M674.3,370.2c-0.5,0-1-0.1-1.4-0.3c-0.4-0.2-0.7-0.5-0.9-0.9c-0.2-0.4-0.3-0.8-0.3-1.3c0-0.5,0.1-0.9,0.3-1.2
		c0.2-0.3,0.5-0.6,0.9-0.9c0.4-0.2,0.8-0.4,1.2-0.5c0.4-0.1,0.9-0.2,1.4-0.3c0.5-0.1,0.9-0.1,1.4-0.1c0-0.8-0.2-1.3-0.5-1.6
		c-0.3-0.2-0.8-0.4-1.4-0.4c-0.3,0-0.7,0-1,0.1c-0.4,0.1-0.8,0.3-1.2,0.6l-0.2-1.3c0.3-0.3,0.8-0.5,1.3-0.6c0.5-0.2,1-0.2,1.6-0.2
		c0.7,0,1.3,0.1,1.7,0.4c0.4,0.3,0.8,0.7,1,1.3c0.2,0.6,0.3,1.4,0.3,2.4v1.7c0,0.4,0,0.7,0.1,1c0,0.3,0.1,0.5,0.3,0.6
		c0.1,0.1,0.4,0.2,0.7,0.2h0.2l-0.2,1.3h-0.1c-0.5,0-0.9,0-1.2-0.1c-0.3-0.1-0.5-0.2-0.6-0.4c-0.1-0.2-0.3-0.4-0.4-0.7
		c-0.3,0.4-0.7,0.7-1.1,0.9C675.4,370.1,674.9,370.2,674.3,370.2z M674.6,369c0.4,0,0.8-0.1,1.2-0.3c0.4-0.2,0.7-0.5,1-0.8v-2
		c-0.8,0-1.5,0.1-2,0.2c-0.5,0.1-0.9,0.3-1.1,0.6c-0.2,0.3-0.4,0.6-0.4,1c0,0.5,0.1,0.8,0.4,1C673.9,368.9,674.2,369,674.6,369z"/>
	<path class="st5" d="M683.1,370.2c-0.8,0-1.4-0.1-1.9-0.3c-0.5-0.2-0.8-0.3-1-0.5l0.2-1.5c0.2,0.2,0.5,0.3,1,0.6
		c0.5,0.2,1,0.3,1.7,0.3c0.6,0,1-0.1,1.3-0.3c0.3-0.2,0.4-0.4,0.4-0.8c0-0.3-0.1-0.5-0.3-0.7c-0.2-0.2-0.4-0.3-0.7-0.4
		c-0.3-0.1-0.5-0.2-0.7-0.3c-0.4-0.1-0.8-0.2-1.2-0.4c-0.4-0.2-0.8-0.4-1-0.7c-0.3-0.3-0.4-0.8-0.4-1.3c0-0.4,0.1-0.8,0.3-1.2
		c0.2-0.4,0.5-0.7,1-1c0.5-0.2,1.1-0.4,1.9-0.4c0.6,0,1,0.1,1.4,0.2s0.7,0.2,0.9,0.4l-0.2,1.4c-0.2-0.2-0.5-0.4-0.9-0.5
		c-0.3-0.1-0.7-0.2-1.2-0.2c-0.5,0-0.9,0.1-1.2,0.3c-0.3,0.2-0.5,0.5-0.5,0.9c0,0.4,0.2,0.7,0.5,0.9c0.3,0.2,0.8,0.4,1.5,0.6
		c0.2,0.1,0.5,0.1,0.7,0.3c0.3,0.1,0.5,0.3,0.8,0.4c0.3,0.2,0.5,0.4,0.6,0.7c0.2,0.3,0.3,0.7,0.3,1.1c0,0.4-0.1,0.8-0.3,1.2
		c-0.2,0.4-0.5,0.7-1,1C684.6,370.1,684,370.2,683.1,370.2z"/>
	<path class="st5" d="M692,370.2c-1,0-1.8-0.2-2.5-0.6c-0.7-0.4-1.2-1-1.6-1.6c-0.4-0.7-0.5-1.4-0.5-2.2c0-0.8,0.2-1.5,0.5-2.2
		c0.3-0.7,0.8-1.2,1.4-1.6c0.6-0.4,1.4-0.6,2.3-0.6c0.7,0,1.3,0.1,1.9,0.4c0.6,0.3,1,0.7,1.3,1.2c0.3,0.5,0.5,1.2,0.5,2
		c0,0.1,0,0.3,0,0.4c0,0.1,0,0.3-0.1,0.4H689c0.1,0.8,0.3,1.4,0.6,1.8c0.3,0.4,0.7,0.8,1.1,0.9c0.5,0.2,1,0.3,1.5,0.3
		c0.4,0,0.8,0,1.2-0.1c0.4-0.1,0.8-0.2,1.2-0.4l0.2,1.2c-0.3,0.1-0.7,0.3-1.2,0.4C693.1,370.2,692.6,370.2,692,370.2z M689.1,364.7
		h4.5c0-0.4-0.1-0.7-0.2-1c-0.2-0.3-0.4-0.5-0.7-0.7s-0.7-0.2-1.2-0.2c-0.7,0-1.2,0.2-1.6,0.5C689.5,363.6,689.3,364.1,689.1,364.7z
		"/>
	<path class="st5" d="M700.1,370.2c-0.7,0-1.4-0.2-2-0.6c-0.6-0.4-1.1-0.9-1.4-1.6c-0.3-0.7-0.5-1.4-0.5-2.2c0-0.8,0.2-1.5,0.5-2.2
		c0.3-0.7,0.8-1.2,1.3-1.6s1.3-0.6,2.1-0.6c0.6,0,1.1,0.1,1.6,0.4c0.5,0.2,1,0.7,1.3,1.2l-0.3,0.2V357h1.6v13h-1.4l-0.3-1.8l0.4,0.3
		c-0.2,0.6-0.6,1-1.2,1.3C701.3,370.1,700.8,370.2,700.1,370.2z M700.4,368.9c0.4,0,0.8-0.1,1.2-0.3c0.4-0.2,0.7-0.5,1-1
		c0.3-0.4,0.4-1,0.4-1.8c0-0.7-0.1-1.2-0.4-1.7c-0.3-0.5-0.6-0.8-1-1c-0.4-0.2-0.8-0.3-1.2-0.3c-0.5,0-1,0.1-1.4,0.4
		c-0.4,0.3-0.7,0.6-0.9,1.1c-0.2,0.5-0.3,1-0.3,1.6c0,0.5,0.1,1.1,0.3,1.5c0.2,0.5,0.5,0.8,0.9,1.1
		C699.4,368.7,699.9,368.9,700.4,368.9z"/>
	<path class="st5" d="M713.3,370.2c-0.5,0-1-0.1-1.3-0.3c-0.3-0.2-0.6-0.5-0.7-0.8c-0.1-0.3-0.2-0.6-0.2-1v-5.4h-1.5l0.1-1.2h1.3
		v-2.1l1.6-0.2v2.3h2.2v1.2h-2.2v4.5c0,0.5,0,0.9,0.1,1.2s0.2,0.4,0.5,0.5c0.3,0.1,0.7,0.1,1.2,0.1h0.4l-0.1,1.3H713.3z"/>
	<path class="st5" d="M719.8,370.2c-0.9,0-1.7-0.2-2.3-0.6s-1.1-0.9-1.4-1.6c-0.3-0.7-0.5-1.4-0.5-2.2c0-0.8,0.2-1.6,0.5-2.2
		c0.3-0.7,0.8-1.2,1.4-1.6c0.6-0.4,1.4-0.6,2.3-0.6c0.9,0,1.6,0.2,2.3,0.6c0.6,0.4,1.1,0.9,1.4,1.6c0.3,0.7,0.5,1.4,0.5,2.2
		c0,0.8-0.2,1.6-0.5,2.2c-0.3,0.7-0.8,1.2-1.4,1.6C721.5,370,720.7,370.2,719.8,370.2z M719.8,368.9c0.8,0,1.5-0.3,1.9-0.8
		c0.5-0.5,0.7-1.3,0.7-2.2s-0.2-1.7-0.7-2.2c-0.5-0.5-1.1-0.8-1.9-0.8c-0.8,0-1.5,0.3-1.9,0.8c-0.5,0.5-0.7,1.3-0.7,2.2
		s0.2,1.7,0.7,2.2C718.3,368.6,719,368.9,719.8,368.9z"/>
	<path class="st5" d="M729.6,374.3v-12.7h1.2l0.3,1.9l-0.4-0.3c0.4-0.6,0.8-1,1.3-1.3c0.5-0.3,1.2-0.5,1.9-0.5c0.8,0,1.4,0.2,2,0.6
		c0.6,0.4,1,0.9,1.3,1.6c0.3,0.7,0.4,1.4,0.4,2.2c0,0.8-0.1,1.6-0.4,2.2c-0.3,0.7-0.7,1.2-1.2,1.6c-0.6,0.4-1.2,0.6-2.1,0.6
		c-0.7,0-1.3-0.1-1.8-0.4c-0.5-0.3-0.9-0.7-1.2-1.3l0.3-0.3v6H729.6z M733.6,368.9c0.8,0,1.4-0.3,1.8-0.8c0.4-0.5,0.6-1.3,0.6-2.2
		s-0.2-1.7-0.6-2.2c-0.4-0.5-1-0.8-1.8-0.8c-0.5,0-0.9,0.1-1.3,0.3c-0.4,0.2-0.7,0.6-0.9,1c-0.2,0.4-0.3,1-0.3,1.7
		c0,0.7,0.1,1.3,0.3,1.7c0.2,0.4,0.5,0.8,0.9,1C732.7,368.7,733.1,368.9,733.6,368.9z"/>
	<path class="st5" d="M742.3,370.2c-0.7,0-1.2-0.1-1.7-0.4c-0.5-0.3-0.8-0.7-1.1-1.2c-0.2-0.6-0.4-1.3-0.4-2.1v-5h1.6v4.5
		c0,0.9,0.2,1.6,0.5,2.1c0.3,0.5,0.8,0.7,1.5,0.7c0.5,0,0.9-0.1,1.3-0.3s0.7-0.6,0.9-1.1l-0.2,0.9v-6.7h1.6v8.5h-1.4l-0.3-1.7
		l0.4,0.3c-0.3,0.5-0.6,0.9-1,1.2C743.5,370.1,743,370.2,742.3,370.2z"/>
	<path class="st5" d="M752.5,370.2c-0.6,0-1.2-0.1-1.7-0.4c-0.6-0.3-0.9-0.7-1.2-1.3l0.4-0.3l-0.3,1.8h-1.4v-13h1.6v6.2l-0.3-0.2
		c0.3-0.5,0.7-0.9,1.2-1.2c0.5-0.3,1.1-0.4,1.7-0.4c0.8,0,1.5,0.2,2.1,0.6s1,1,1.3,1.6c0.3,0.7,0.5,1.4,0.5,2.2
		c0,0.8-0.2,1.6-0.5,2.2c-0.3,0.7-0.8,1.2-1.4,1.6C753.9,370,753.3,370.2,752.5,370.2z M752.4,368.9c0.5,0,0.9-0.1,1.3-0.4
		c0.4-0.3,0.6-0.6,0.8-1.1c0.2-0.5,0.3-1,0.3-1.5c0-0.6-0.1-1.1-0.3-1.6c-0.2-0.5-0.5-0.8-0.8-1.1c-0.4-0.3-0.8-0.4-1.3-0.4
		c-0.4,0-0.9,0.1-1.2,0.3c-0.4,0.2-0.7,0.6-0.9,1c-0.2,0.4-0.4,1-0.4,1.7c0,0.7,0.1,1.3,0.4,1.7c0.2,0.4,0.5,0.8,0.9,1
		C751.5,368.7,751.9,368.9,752.4,368.9z"/>
	<path class="st5" d="M760.2,370.2c-0.6,0-1-0.1-1.3-0.3c-0.3-0.2-0.6-0.5-0.7-0.8s-0.2-0.6-0.2-1V357h1.6v10.3c0,0.5,0,0.9,0.1,1.1
		c0.1,0.2,0.2,0.4,0.4,0.5c0.2,0.1,0.5,0.1,0.9,0.1l-0.2,1.3H760.2z"/>
	<path class="st5" d="M762.1,359.6v-1.7h1.6v1.7H762.1z M762.1,370.1v-8.5h1.6v8.5H762.1z"/>
	<path class="st5" d="M769.7,370.2c-1,0-1.8-0.2-2.4-0.6c-0.7-0.4-1.1-0.9-1.5-1.6c-0.3-0.7-0.5-1.4-0.5-2.2c0-0.8,0.2-1.6,0.5-2.3
		c0.3-0.7,0.8-1.2,1.5-1.6c0.7-0.4,1.5-0.6,2.6-0.6c0.4,0,0.9,0,1.3,0.1c0.4,0.1,0.8,0.2,1.1,0.4l-0.2,1.4c-0.3-0.2-0.7-0.3-1-0.4
		s-0.7-0.1-1.1-0.1c-0.9,0-1.7,0.3-2.1,0.8c-0.5,0.5-0.7,1.3-0.7,2.2c0,0.9,0.2,1.7,0.7,2.2c0.5,0.6,1.2,0.8,2.1,0.8
		c0.4,0,0.8,0,1.1-0.1c0.4-0.1,0.7-0.2,1-0.4l0.2,1.3c-0.2,0.2-0.6,0.3-1,0.4C770.7,370.2,770.2,370.2,769.7,370.2z"/>
</g>
<g>
	<path class="st5" d="M568.7,575.4v-12.2h1.6v12.2H568.7z"/>
	<path class="st5" d="M572.7,575.4v-8.5h1.2l0.3,1.6l-0.6-0.3c0.6-0.6,1.1-1.1,1.7-1.3c0.5-0.2,1.1-0.3,1.6-0.3
		c1.2,0,2.1,0.4,2.7,1.1c0.5,0.7,0.8,1.7,0.8,2.9v4.7h-1.6v-4.7c0-0.9-0.2-1.6-0.5-2c-0.3-0.4-0.9-0.6-1.7-0.6
		c-0.6,0-1.1,0.1-1.6,0.4c-0.5,0.3-0.8,0.7-0.9,1.2l0.2-1v6.7H572.7z"/>
	<path class="st5" d="M582.9,575.4v-7.3h-1.5l0.2-1.2h1.3v-2c0-0.8,0.2-1.4,0.6-1.8c0.4-0.5,1-0.7,1.8-0.7c0.3,0,0.5,0,0.8,0.1
		c0.2,0,0.4,0.1,0.6,0.2l-0.2,1.3c-0.1-0.1-0.3-0.1-0.4-0.1c-0.1,0-0.3,0-0.5,0c-0.3,0-0.6,0.1-0.8,0.3c-0.2,0.2-0.3,0.5-0.3,0.9
		v1.9h2.3v1.2h-2.3v7.3H582.9z"/>
	<path class="st5" d="M591.6,575.5c-0.9,0-1.7-0.2-2.3-0.6c-0.6-0.4-1.1-0.9-1.4-1.6c-0.3-0.7-0.5-1.4-0.5-2.2
		c0-0.8,0.2-1.6,0.5-2.2c0.3-0.7,0.8-1.2,1.4-1.6c0.6-0.4,1.4-0.6,2.3-0.6c0.9,0,1.6,0.2,2.3,0.6c0.6,0.4,1.1,0.9,1.4,1.6
		c0.3,0.7,0.5,1.4,0.5,2.2c0,0.8-0.2,1.6-0.5,2.2c-0.3,0.7-0.8,1.2-1.4,1.6C593.2,575.4,592.5,575.5,591.6,575.5z M591.6,574.2
		c0.8,0,1.5-0.3,1.9-0.8c0.5-0.5,0.7-1.3,0.7-2.2c0-1-0.2-1.7-0.7-2.2c-0.5-0.5-1.1-0.8-1.9-0.8c-0.8,0-1.5,0.3-1.9,0.8
		c-0.5,0.5-0.7,1.3-0.7,2.2c0,1,0.2,1.7,0.7,2.2C590.1,573.9,590.7,574.2,591.6,574.2z"/>
	<path class="st5" d="M597.4,575.4v-8.5h1.3l0.2,1.4c0.4-0.5,0.8-0.9,1.2-1.2c0.4-0.3,0.8-0.4,1.3-0.4c0.1,0,0.3,0,0.4,0.1l-0.2,1.7
		c-0.1,0-0.2,0-0.2,0c-0.1,0-0.2,0-0.3,0c-0.5,0-0.9,0.1-1.2,0.3c-0.4,0.2-0.6,0.4-0.8,0.7v6H597.4z"/>
	<path class="st5" d="M602.9,575.4v-8.5h1.2l0.3,1.6l-0.6-0.3c0.5-0.6,1.1-1,1.6-1.2c0.5-0.2,1-0.3,1.6-0.3c0.4,0,0.8,0.1,1.2,0.2
		c0.4,0.1,0.7,0.4,1,0.7c0.3,0.3,0.6,0.8,0.7,1.4l-0.4-0.2c0.3-0.7,0.6-1.2,1.2-1.6c0.5-0.4,1.2-0.6,2.1-0.6c0.7,0,1.3,0.1,1.8,0.4
		c0.5,0.3,0.9,0.7,1.1,1.2c0.2,0.5,0.4,1.2,0.4,2.1v5h-1.6v-5c0-0.8-0.2-1.4-0.5-1.7c-0.3-0.4-0.8-0.5-1.5-0.5
		c-0.5,0-0.9,0.1-1.2,0.2c-0.3,0.2-0.5,0.4-0.7,0.6c-0.2,0.2-0.3,0.5-0.3,0.8c0,0.3-0.1,0.5-0.1,0.8v4.9h-1.6v-4.7
		c0-0.7-0.1-1.2-0.3-1.6c-0.2-0.4-0.4-0.6-0.7-0.8c-0.3-0.1-0.6-0.2-1-0.2c-0.6,0-1.1,0.1-1.5,0.4c-0.5,0.3-0.8,0.7-0.9,1.2l0.2-0.9
		v6.6H602.9z"/>
	<path class="st5" d="M620.1,575.5c-0.5,0-1-0.1-1.4-0.3c-0.4-0.2-0.7-0.5-0.9-0.9c-0.2-0.4-0.3-0.8-0.3-1.3c0-0.5,0.1-0.9,0.3-1.2
		c0.2-0.3,0.5-0.6,0.9-0.9c0.4-0.2,0.8-0.4,1.2-0.5c0.4-0.1,0.9-0.2,1.4-0.3c0.5-0.1,0.9-0.1,1.4-0.1c0-0.8-0.2-1.3-0.5-1.6
		c-0.3-0.2-0.8-0.4-1.4-0.4c-0.3,0-0.7,0-1,0.1c-0.4,0.1-0.8,0.3-1.2,0.6l-0.2-1.3c0.3-0.3,0.8-0.5,1.3-0.6c0.5-0.2,1-0.2,1.6-0.2
		c0.7,0,1.3,0.1,1.7,0.4c0.4,0.3,0.8,0.7,1,1.3c0.2,0.6,0.3,1.4,0.3,2.4v1.7c0,0.4,0,0.7,0.1,1c0,0.3,0.1,0.5,0.3,0.6
		c0.1,0.1,0.4,0.2,0.7,0.2h0.2l-0.2,1.3h-0.1c-0.5,0-0.9,0-1.2-0.1c-0.3-0.1-0.5-0.2-0.6-0.4c-0.1-0.2-0.3-0.4-0.4-0.7
		c-0.3,0.4-0.7,0.7-1.1,0.9C621.2,575.4,620.7,575.5,620.1,575.5z M620.4,574.3c0.4,0,0.8-0.1,1.2-0.3c0.4-0.2,0.7-0.5,1-0.8v-2
		c-0.8,0-1.5,0.1-2,0.2c-0.5,0.1-0.9,0.3-1.1,0.6c-0.2,0.3-0.4,0.6-0.4,1c0,0.5,0.1,0.8,0.4,1C619.7,574.2,620,574.3,620.4,574.3z"
		/>
	<path class="st5" d="M629.2,575.5c-0.5,0-1-0.1-1.3-0.3s-0.6-0.5-0.7-0.8c-0.1-0.3-0.2-0.6-0.2-1v-5.4h-1.5l0.1-1.2h1.3v-2.1
		l1.6-0.2v2.3h2.2v1.2h-2.2v4.5c0,0.5,0,0.9,0.1,1.2c0.1,0.2,0.2,0.4,0.5,0.5c0.3,0.1,0.7,0.1,1.2,0.1h0.4l-0.1,1.3H629.2z"/>
	<path class="st5" d="M632.2,565v-1.7h1.6v1.7H632.2z M632.2,575.4v-8.5h1.6v8.5H632.2z"/>
	<path class="st5" d="M639.6,575.5c-0.9,0-1.7-0.2-2.3-0.6c-0.6-0.4-1.1-0.9-1.4-1.6c-0.3-0.7-0.5-1.4-0.5-2.2
		c0-0.8,0.2-1.6,0.5-2.2c0.3-0.7,0.8-1.2,1.4-1.6c0.6-0.4,1.4-0.6,2.3-0.6c0.9,0,1.6,0.2,2.3,0.6c0.6,0.4,1.1,0.9,1.4,1.6
		c0.3,0.7,0.5,1.4,0.5,2.2c0,0.8-0.2,1.6-0.5,2.2c-0.3,0.7-0.8,1.2-1.4,1.6C641.2,575.4,640.4,575.5,639.6,575.5z M639.6,574.2
		c0.8,0,1.5-0.3,1.9-0.8c0.5-0.5,0.7-1.3,0.7-2.2c0-1-0.2-1.7-0.7-2.2c-0.5-0.5-1.1-0.8-1.9-0.8c-0.8,0-1.5,0.3-1.9,0.8
		c-0.5,0.5-0.7,1.3-0.7,2.2c0,1,0.2,1.7,0.7,2.2C638.1,573.9,638.7,574.2,639.6,574.2z"/>
	<path class="st5" d="M645.4,575.4v-8.5h1.2l0.3,1.6l-0.6-0.3c0.6-0.6,1.1-1.1,1.7-1.3c0.5-0.2,1.1-0.3,1.6-0.3
		c1.2,0,2.1,0.4,2.7,1.1c0.5,0.7,0.8,1.7,0.8,2.9v4.7h-1.6v-4.7c0-0.9-0.2-1.6-0.5-2c-0.3-0.4-0.9-0.6-1.7-0.6
		c-0.6,0-1.1,0.1-1.6,0.4c-0.5,0.3-0.8,0.7-0.9,1.2l0.2-1v6.7H645.4z"/>
	<path class="st5" d="M659,575.4v-13h1.6v6l-0.6,0c0.4-0.5,0.8-0.9,1.3-1.2c0.5-0.3,1-0.4,1.8-0.4c0.7,0,1.3,0.2,1.8,0.5
		c0.5,0.3,0.9,0.8,1.1,1.4c0.2,0.6,0.4,1.3,0.4,2.1v4.7h-1.6v-4.6c0-0.9-0.2-1.6-0.5-2.1c-0.3-0.4-0.9-0.7-1.6-0.7
		c-0.5,0-1,0.1-1.4,0.4c-0.4,0.3-0.7,0.7-1,1.2l0.3-1v6.7H659z"/>
	<path class="st5" d="M670.4,575.5c-0.5,0-1-0.1-1.4-0.3c-0.4-0.2-0.7-0.5-0.9-0.9c-0.2-0.4-0.3-0.8-0.3-1.3c0-0.5,0.1-0.9,0.3-1.2
		c0.2-0.3,0.5-0.6,0.9-0.9c0.4-0.2,0.8-0.4,1.2-0.5c0.4-0.1,0.9-0.2,1.4-0.3c0.5-0.1,0.9-0.1,1.4-0.1c0-0.8-0.2-1.3-0.5-1.6
		c-0.3-0.2-0.8-0.4-1.4-0.4c-0.3,0-0.7,0-1,0.1c-0.4,0.1-0.8,0.3-1.2,0.6l-0.2-1.3c0.3-0.3,0.8-0.5,1.3-0.6c0.5-0.2,1-0.2,1.6-0.2
		c0.7,0,1.3,0.1,1.7,0.4c0.4,0.3,0.8,0.7,1,1.3c0.2,0.6,0.3,1.4,0.3,2.4v1.7c0,0.4,0,0.7,0.1,1c0,0.3,0.1,0.5,0.3,0.6
		c0.1,0.1,0.4,0.2,0.7,0.2h0.2l-0.2,1.3h-0.1c-0.5,0-0.9,0-1.2-0.1c-0.3-0.1-0.5-0.2-0.6-0.4c-0.1-0.2-0.3-0.4-0.4-0.7
		c-0.3,0.4-0.7,0.7-1.1,0.9C671.5,575.4,671,575.5,670.4,575.5z M670.7,574.3c0.4,0,0.8-0.1,1.2-0.3c0.4-0.2,0.7-0.5,1-0.8v-2
		c-0.8,0-1.5,0.1-2,0.2c-0.5,0.1-0.9,0.3-1.1,0.6c-0.2,0.3-0.4,0.6-0.4,1c0,0.5,0.1,0.8,0.4,1C670,574.2,670.3,574.3,670.7,574.3z"
		/>
	<path class="st5" d="M679.2,575.5c-0.8,0-1.4-0.1-1.9-0.3c-0.5-0.2-0.8-0.3-1-0.5l0.2-1.5c0.2,0.2,0.5,0.3,1,0.6
		c0.5,0.2,1,0.3,1.7,0.3c0.6,0,1-0.1,1.3-0.3c0.3-0.2,0.4-0.4,0.4-0.8c0-0.3-0.1-0.5-0.3-0.7c-0.2-0.2-0.4-0.3-0.7-0.4
		c-0.3-0.1-0.5-0.2-0.7-0.3c-0.4-0.1-0.8-0.2-1.2-0.4c-0.4-0.2-0.8-0.4-1-0.7c-0.3-0.3-0.4-0.8-0.4-1.3c0-0.4,0.1-0.8,0.3-1.2
		c0.2-0.4,0.5-0.7,1-1c0.5-0.2,1.1-0.4,1.9-0.4c0.6,0,1,0.1,1.4,0.2s0.7,0.2,0.9,0.4l-0.2,1.4c-0.2-0.2-0.5-0.4-0.9-0.5
		c-0.3-0.1-0.7-0.2-1.2-0.2c-0.5,0-0.9,0.1-1.2,0.3c-0.3,0.2-0.5,0.5-0.5,0.9c0,0.4,0.2,0.7,0.5,0.9c0.3,0.2,0.8,0.4,1.5,0.6
		c0.2,0.1,0.5,0.1,0.7,0.3c0.3,0.1,0.5,0.3,0.8,0.4c0.3,0.2,0.5,0.4,0.6,0.7c0.2,0.3,0.3,0.7,0.3,1.1c0,0.4-0.1,0.8-0.3,1.2
		c-0.2,0.4-0.5,0.7-1,1C680.7,575.4,680.1,575.5,679.2,575.5z"/>
	<path class="st5" d="M692.1,575.5c-0.6,0-1.2-0.1-1.7-0.4c-0.6-0.3-0.9-0.7-1.2-1.3l0.4-0.3l-0.3,1.8h-1.4v-13h1.6v6.2l-0.3-0.2
		c0.3-0.5,0.7-0.9,1.2-1.2c0.5-0.3,1.1-0.4,1.7-0.4c0.8,0,1.5,0.2,2.1,0.6s1,1,1.3,1.6c0.3,0.7,0.5,1.4,0.5,2.2
		c0,0.8-0.2,1.6-0.5,2.2c-0.3,0.7-0.8,1.2-1.4,1.6C693.4,575.4,692.8,575.5,692.1,575.5z M691.9,574.2c0.5,0,0.9-0.1,1.3-0.4
		c0.4-0.3,0.6-0.6,0.8-1.1c0.2-0.5,0.3-1,0.3-1.5c0-0.6-0.1-1.1-0.3-1.6c-0.2-0.5-0.5-0.8-0.8-1.1c-0.4-0.3-0.8-0.4-1.3-0.4
		c-0.4,0-0.9,0.1-1.2,0.3c-0.4,0.2-0.7,0.6-0.9,1c-0.2,0.4-0.4,1-0.4,1.7c0,0.7,0.1,1.3,0.4,1.7c0.2,0.4,0.5,0.8,0.9,1
		C691,574.1,691.4,574.2,691.9,574.2z"/>
	<path class="st5" d="M701.6,575.5c-1,0-1.8-0.2-2.5-0.6c-0.7-0.4-1.2-1-1.6-1.6c-0.4-0.7-0.5-1.4-0.5-2.2c0-0.8,0.2-1.5,0.5-2.2
		c0.3-0.7,0.8-1.2,1.4-1.6c0.6-0.4,1.4-0.6,2.3-0.6c0.7,0,1.3,0.1,1.9,0.4c0.6,0.3,1,0.7,1.3,1.2c0.3,0.5,0.5,1.2,0.5,2
		c0,0.1,0,0.3,0,0.4c0,0.1,0,0.3-0.1,0.4h-6.2c0.1,0.8,0.3,1.4,0.6,1.8c0.3,0.4,0.7,0.8,1.1,0.9c0.5,0.2,1,0.3,1.5,0.3
		c0.4,0,0.8,0,1.2-0.1c0.4-0.1,0.8-0.2,1.2-0.4l0.2,1.2c-0.3,0.1-0.7,0.3-1.2,0.4C702.8,575.5,702.2,575.5,701.6,575.5z M698.7,570
		h4.5c0-0.4-0.1-0.7-0.2-1c-0.2-0.3-0.4-0.5-0.7-0.7s-0.7-0.2-1.2-0.2c-0.7,0-1.2,0.2-1.6,0.5C699.2,568.9,698.9,569.4,698.7,570z"
		/>
	<path class="st5" d="M710.5,575.5c-1,0-1.8-0.2-2.5-0.6c-0.7-0.4-1.2-1-1.6-1.6c-0.4-0.7-0.5-1.4-0.5-2.2c0-0.8,0.2-1.5,0.5-2.2
		c0.3-0.7,0.8-1.2,1.4-1.6c0.6-0.4,1.4-0.6,2.3-0.6c0.7,0,1.3,0.1,1.9,0.4c0.6,0.3,1,0.7,1.3,1.2c0.3,0.5,0.5,1.2,0.5,2
		c0,0.1,0,0.3,0,0.4c0,0.1,0,0.3-0.1,0.4h-6.2c0.1,0.8,0.3,1.4,0.6,1.8c0.3,0.4,0.7,0.8,1.1,0.9c0.5,0.2,1,0.3,1.5,0.3
		c0.4,0,0.8,0,1.2-0.1c0.4-0.1,0.8-0.2,1.2-0.4l0.2,1.2c-0.3,0.1-0.7,0.3-1.2,0.4C711.7,575.5,711.1,575.5,710.5,575.5z M707.6,570
		h4.5c0-0.4-0.1-0.7-0.2-1c-0.2-0.3-0.4-0.5-0.7-0.7c-0.3-0.2-0.7-0.2-1.2-0.2c-0.7,0-1.2,0.2-1.6,0.5
		C708.1,568.9,707.8,569.4,707.6,570z"/>
	<path class="st5" d="M715.3,575.4v-8.5h1.2l0.3,1.6l-0.6-0.3c0.6-0.6,1.1-1.1,1.7-1.3c0.5-0.2,1.1-0.3,1.6-0.3
		c1.2,0,2.1,0.4,2.7,1.1c0.5,0.7,0.8,1.7,0.8,2.9v4.7h-1.6v-4.7c0-0.9-0.2-1.6-0.5-2c-0.3-0.4-0.9-0.6-1.7-0.6
		c-0.6,0-1.1,0.1-1.6,0.4c-0.5,0.3-0.8,0.7-0.9,1.2l0.2-1v6.7H715.3z"/>
	<path class="st5" d="M570.4,596.4c-0.5,0-1-0.1-1.4-0.3c-0.4-0.2-0.7-0.5-0.9-0.9c-0.2-0.4-0.3-0.8-0.3-1.3c0-0.5,0.1-0.9,0.3-1.2
		c0.2-0.3,0.5-0.6,0.9-0.9c0.4-0.2,0.8-0.4,1.2-0.5c0.4-0.1,0.9-0.2,1.4-0.3c0.5-0.1,0.9-0.1,1.4-0.1c0-0.8-0.2-1.3-0.5-1.6
		s-0.8-0.4-1.4-0.4c-0.3,0-0.7,0-1,0.1c-0.4,0.1-0.8,0.3-1.2,0.6l-0.2-1.3c0.3-0.3,0.8-0.5,1.3-0.6c0.5-0.2,1-0.2,1.6-0.2
		c0.7,0,1.3,0.1,1.7,0.4c0.4,0.3,0.8,0.7,1,1.3c0.2,0.6,0.3,1.4,0.3,2.4v1.7c0,0.4,0,0.7,0.1,1c0,0.3,0.1,0.5,0.3,0.6
		c0.1,0.1,0.4,0.2,0.7,0.2h0.2l-0.2,1.3h-0.1c-0.5,0-0.9,0-1.2-0.1c-0.3-0.1-0.5-0.2-0.6-0.4c-0.1-0.2-0.3-0.4-0.4-0.7
		c-0.3,0.4-0.7,0.7-1.1,0.9C571.4,596.3,570.9,596.4,570.4,596.4z M570.7,595.1c0.4,0,0.8-0.1,1.2-0.3c0.4-0.2,0.7-0.5,1-0.8v-2
		c-0.8,0-1.5,0.1-2,0.2c-0.5,0.1-0.9,0.3-1.1,0.6c-0.2,0.3-0.4,0.6-0.4,1c0,0.5,0.1,0.8,0.4,1S570.3,595.1,570.7,595.1z"/>
	<path class="st5" d="M576.7,600.4v-12.7h1.2l0.3,1.9l-0.4-0.3c0.4-0.6,0.8-1,1.3-1.3c0.5-0.3,1.2-0.5,1.9-0.5c0.8,0,1.4,0.2,2,0.6
		c0.6,0.4,1,0.9,1.3,1.6c0.3,0.7,0.4,1.4,0.4,2.2c0,0.8-0.1,1.6-0.4,2.2c-0.3,0.7-0.7,1.2-1.2,1.6c-0.5,0.4-1.2,0.6-2.1,0.6
		c-0.7,0-1.3-0.1-1.8-0.4c-0.5-0.3-0.9-0.7-1.2-1.3l0.3-0.3v6H576.7z M580.7,595c0.8,0,1.4-0.3,1.8-0.8c0.4-0.5,0.6-1.3,0.6-2.2
		c0-1-0.2-1.7-0.6-2.2c-0.4-0.5-1-0.8-1.8-0.8c-0.5,0-0.9,0.1-1.3,0.3c-0.4,0.2-0.7,0.6-0.9,1c-0.2,0.4-0.3,1-0.3,1.7
		c0,0.7,0.1,1.3,0.3,1.7c0.2,0.4,0.5,0.8,0.9,1C579.9,594.9,580.3,595,580.7,595z"/>
	<path class="st5" d="M586.4,600.4v-12.7h1.2l0.3,1.9l-0.4-0.3c0.4-0.6,0.8-1,1.3-1.3c0.5-0.3,1.2-0.5,1.9-0.5c0.8,0,1.4,0.2,2,0.6
		c0.6,0.4,1,0.9,1.3,1.6c0.3,0.7,0.4,1.4,0.4,2.2c0,0.8-0.1,1.6-0.4,2.2c-0.3,0.7-0.7,1.2-1.2,1.6c-0.5,0.4-1.2,0.6-2.1,0.6
		c-0.7,0-1.3-0.1-1.8-0.4c-0.5-0.3-0.9-0.7-1.2-1.3l0.3-0.3v6H586.4z M590.4,595c0.8,0,1.4-0.3,1.8-0.8c0.4-0.5,0.6-1.3,0.6-2.2
		c0-1-0.2-1.7-0.6-2.2c-0.4-0.5-1-0.8-1.8-0.8c-0.5,0-0.9,0.1-1.3,0.3c-0.4,0.2-0.7,0.6-0.9,1c-0.2,0.4-0.3,1-0.3,1.7
		c0,0.7,0.1,1.3,0.3,1.7c0.2,0.4,0.5,0.8,0.9,1C589.5,594.9,590,595,590.4,595z"/>
	<path class="st5" d="M596.1,596.2v-8.5h1.3l0.2,1.4c0.4-0.5,0.9-0.9,1.2-1.2c0.4-0.3,0.8-0.4,1.3-0.4c0.1,0,0.3,0,0.4,0.1l-0.2,1.7
		c-0.1,0-0.2,0-0.2,0c-0.1,0-0.2,0-0.3,0c-0.5,0-0.9,0.1-1.2,0.3c-0.4,0.2-0.6,0.4-0.8,0.7v6H596.1z"/>
	<path class="st5" d="M605.1,596.4c-0.9,0-1.7-0.2-2.3-0.6s-1.1-0.9-1.4-1.6c-0.3-0.7-0.5-1.4-0.5-2.2c0-0.8,0.2-1.6,0.5-2.2
		c0.3-0.7,0.8-1.2,1.4-1.6c0.6-0.4,1.4-0.6,2.3-0.6c0.9,0,1.6,0.2,2.3,0.6c0.6,0.4,1.1,0.9,1.4,1.6c0.3,0.7,0.5,1.4,0.5,2.2
		c0,0.8-0.2,1.6-0.5,2.2c-0.3,0.7-0.8,1.2-1.4,1.6C606.7,596.2,605.9,596.4,605.1,596.4z M605.1,595c0.8,0,1.5-0.3,1.9-0.8
		c0.5-0.5,0.7-1.3,0.7-2.2c0-1-0.2-1.7-0.7-2.2c-0.5-0.5-1.1-0.8-1.9-0.8c-0.8,0-1.5,0.3-1.9,0.8c-0.5,0.5-0.7,1.3-0.7,2.2
		c0,1,0.2,1.7,0.7,2.2C603.6,594.7,604.2,595,605.1,595z"/>
	<path class="st5" d="M613.1,596.2l-3.2-8.5h1.7l2.4,6.8l2.4-6.8h1.8l-3.2,8.5H613.1z"/>
	<path class="st5" d="M623.2,596.4c-1,0-1.8-0.2-2.5-0.6c-0.7-0.4-1.2-1-1.5-1.6c-0.4-0.7-0.5-1.4-0.5-2.2c0-0.8,0.2-1.5,0.5-2.2
		c0.3-0.7,0.8-1.2,1.4-1.6c0.6-0.4,1.4-0.6,2.3-0.6c0.7,0,1.3,0.1,1.9,0.4c0.6,0.3,1,0.7,1.3,1.2c0.3,0.5,0.5,1.2,0.5,2
		c0,0.1,0,0.3,0,0.4c0,0.1,0,0.3-0.1,0.4h-6.2c0.1,0.8,0.3,1.4,0.6,1.8c0.3,0.4,0.7,0.8,1.1,0.9c0.5,0.2,1,0.3,1.5,0.3
		c0.4,0,0.8,0,1.2-0.1c0.4-0.1,0.8-0.2,1.2-0.4l0.2,1.2c-0.3,0.1-0.7,0.3-1.2,0.4C624.4,596.3,623.8,596.4,623.2,596.4z
		 M620.3,590.9h4.5c0-0.4-0.1-0.7-0.2-1c-0.2-0.3-0.4-0.5-0.7-0.7c-0.3-0.2-0.7-0.2-1.2-0.2c-0.7,0-1.2,0.2-1.6,0.5
		C620.8,589.8,620.5,590.3,620.3,590.9z"/>
	<path class="st5" d="M631.4,596.4c-0.7,0-1.4-0.2-2-0.6s-1.1-0.9-1.4-1.6c-0.3-0.7-0.5-1.4-0.5-2.2c0-0.8,0.2-1.5,0.5-2.2
		c0.3-0.7,0.8-1.2,1.3-1.6c0.6-0.4,1.3-0.6,2.1-0.6c0.6,0,1.1,0.1,1.6,0.4c0.5,0.2,1,0.7,1.3,1.2l-0.3,0.2v-6.2h1.6v13h-1.4
		l-0.3-1.8l0.4,0.3c-0.2,0.6-0.6,1-1.2,1.3C632.6,596.3,632,596.4,631.4,596.4z M631.7,595c0.4,0,0.8-0.1,1.2-0.3
		c0.4-0.2,0.7-0.5,1-1c0.3-0.4,0.4-1,0.4-1.8c0-0.7-0.1-1.2-0.4-1.7c-0.3-0.5-0.6-0.8-1-1c-0.4-0.2-0.8-0.3-1.2-0.3
		c-0.5,0-1,0.1-1.4,0.4c-0.4,0.3-0.7,0.6-0.9,1.1c-0.2,0.5-0.3,1-0.3,1.6c0,0.5,0.1,1.1,0.3,1.5c0.2,0.5,0.5,0.8,0.9,1.1
		C630.7,594.9,631.1,595,631.7,595z"/>
	<path class="st5" d="M642.2,596.2v-7.3h-1.5l0.2-1.2h1.3v-2c0-0.8,0.2-1.4,0.6-1.8c0.4-0.5,1-0.7,1.8-0.7c0.3,0,0.5,0,0.8,0.1
		c0.2,0,0.4,0.1,0.6,0.2l-0.2,1.3c-0.1-0.1-0.3-0.1-0.4-0.1c-0.1,0-0.3,0-0.5,0c-0.3,0-0.6,0.1-0.8,0.3c-0.2,0.2-0.3,0.5-0.3,0.9
		v1.9h2.3v1.2h-2.3v7.3H642.2z"/>
	<path class="st5" d="M650.9,596.4c-0.9,0-1.7-0.2-2.3-0.6c-0.6-0.4-1.1-0.9-1.4-1.6c-0.3-0.7-0.5-1.4-0.5-2.2
		c0-0.8,0.2-1.6,0.5-2.2c0.3-0.7,0.8-1.2,1.4-1.6c0.6-0.4,1.4-0.6,2.3-0.6c0.9,0,1.6,0.2,2.3,0.6c0.6,0.4,1.1,0.9,1.4,1.6
		c0.3,0.7,0.5,1.4,0.5,2.2c0,0.8-0.2,1.6-0.5,2.2c-0.3,0.7-0.8,1.2-1.4,1.6C652.5,596.2,651.8,596.4,650.9,596.4z M650.9,595
		c0.8,0,1.5-0.3,1.9-0.8c0.5-0.5,0.7-1.3,0.7-2.2c0-1-0.2-1.7-0.7-2.2c-0.5-0.5-1.1-0.8-1.9-0.8c-0.8,0-1.5,0.3-1.9,0.8
		c-0.5,0.5-0.7,1.3-0.7,2.2c0,1,0.2,1.7,0.7,2.2C649.4,594.7,650,595,650.9,595z"/>
	<path class="st5" d="M656.7,596.2v-8.5h1.3l0.2,1.4c0.4-0.5,0.8-0.9,1.2-1.2c0.4-0.3,0.8-0.4,1.3-0.4c0.1,0,0.3,0,0.4,0.1l-0.2,1.7
		c-0.1,0-0.2,0-0.2,0c-0.1,0-0.2,0-0.3,0c-0.5,0-0.9,0.1-1.2,0.3c-0.4,0.2-0.6,0.4-0.8,0.7v6H656.7z"/>
	<path class="st5" d="M666.1,600.4v-12.7h1.2l0.3,1.9l-0.4-0.3c0.4-0.6,0.8-1,1.3-1.3c0.5-0.3,1.2-0.5,1.9-0.5c0.8,0,1.4,0.2,2,0.6
		c0.6,0.4,1,0.9,1.3,1.6c0.3,0.7,0.4,1.4,0.4,2.2c0,0.8-0.1,1.6-0.4,2.2c-0.3,0.7-0.7,1.2-1.2,1.6c-0.6,0.4-1.2,0.6-2.1,0.6
		c-0.7,0-1.3-0.1-1.8-0.4c-0.5-0.3-0.9-0.7-1.2-1.3l0.3-0.3v6H666.1z M670.1,595c0.8,0,1.4-0.3,1.8-0.8c0.4-0.5,0.6-1.3,0.6-2.2
		c0-1-0.2-1.7-0.6-2.2c-0.4-0.5-1-0.8-1.8-0.8c-0.5,0-0.9,0.1-1.3,0.3c-0.4,0.2-0.7,0.6-0.9,1c-0.2,0.4-0.3,1-0.3,1.7
		c0,0.7,0.1,1.3,0.3,1.7c0.2,0.4,0.5,0.8,0.9,1C669.2,594.9,669.7,595,670.1,595z"/>
	<path class="st5" d="M678.8,596.4c-0.7,0-1.2-0.1-1.7-0.4c-0.5-0.3-0.8-0.7-1.1-1.2c-0.2-0.6-0.4-1.3-0.4-2.1v-5h1.6v4.5
		c0,0.9,0.2,1.6,0.5,2.1c0.3,0.5,0.8,0.7,1.5,0.7c0.5,0,0.9-0.1,1.3-0.3c0.4-0.2,0.7-0.6,0.9-1.1l-0.2,0.9v-6.7h1.6v8.5h-1.4
		l-0.3-1.7l0.4,0.3c-0.3,0.5-0.6,0.9-1,1.2C680,596.3,679.5,596.4,678.8,596.4z"/>
	<path class="st5" d="M689.1,596.4c-0.6,0-1.2-0.1-1.7-0.4c-0.6-0.3-0.9-0.7-1.2-1.3l0.4-0.3l-0.3,1.8h-1.4v-13h1.6v6.2l-0.3-0.2
		c0.3-0.5,0.7-0.9,1.2-1.2c0.5-0.3,1.1-0.4,1.7-0.4c0.8,0,1.5,0.2,2.1,0.6c0.6,0.4,1,1,1.3,1.6c0.3,0.7,0.5,1.4,0.5,2.2
		c0,0.8-0.2,1.6-0.5,2.2c-0.3,0.7-0.8,1.2-1.4,1.6C690.4,596.2,689.8,596.4,689.1,596.4z M688.9,595c0.5,0,0.9-0.1,1.3-0.4
		c0.4-0.3,0.6-0.6,0.8-1.1c0.2-0.5,0.3-1,0.3-1.5c0-0.6-0.1-1.1-0.3-1.6c-0.2-0.5-0.5-0.8-0.8-1.1c-0.4-0.3-0.8-0.4-1.3-0.4
		c-0.4,0-0.9,0.1-1.2,0.3c-0.4,0.2-0.7,0.6-0.9,1c-0.2,0.4-0.4,1-0.4,1.7c0,0.7,0.1,1.3,0.4,1.7c0.2,0.4,0.5,0.8,0.9,1
		C688,594.9,688.4,595,688.9,595z"/>
	<path class="st5" d="M696.7,596.4c-0.6,0-1-0.1-1.3-0.3c-0.3-0.2-0.6-0.5-0.7-0.8c-0.1-0.3-0.2-0.6-0.2-1v-11.2h1.6v10.3
		c0,0.5,0,0.9,0.1,1.1c0.1,0.2,0.2,0.4,0.4,0.5c0.2,0.1,0.5,0.1,0.9,0.1l-0.2,1.3H696.7z"/>
	<path class="st5" d="M698.6,585.8v-1.7h1.6v1.7H698.6z M698.6,596.2v-8.5h1.6v8.5H698.6z"/>
	<path class="st5" d="M706.2,596.4c-1,0-1.8-0.2-2.4-0.6c-0.7-0.4-1.1-0.9-1.5-1.6c-0.3-0.7-0.5-1.4-0.5-2.2c0-0.8,0.2-1.6,0.5-2.3
		c0.3-0.7,0.8-1.2,1.5-1.6c0.7-0.4,1.5-0.6,2.6-0.6c0.4,0,0.9,0,1.3,0.1s0.8,0.2,1.1,0.4l-0.2,1.4c-0.3-0.2-0.7-0.3-1-0.4
		s-0.7-0.1-1.1-0.1c-0.9,0-1.7,0.3-2.1,0.8c-0.5,0.5-0.7,1.3-0.7,2.2c0,0.9,0.2,1.7,0.7,2.2c0.5,0.6,1.2,0.8,2.1,0.8
		c0.4,0,0.8,0,1.1-0.1c0.4-0.1,0.7-0.2,1-0.4l0.2,1.3c-0.2,0.2-0.6,0.3-1,0.4C707.2,596.3,706.7,596.4,706.2,596.4z"/>
	<path class="st5" d="M716.1,596.4c-0.5,0-1-0.1-1.4-0.3c-0.4-0.2-0.7-0.5-0.9-0.9c-0.2-0.4-0.3-0.8-0.3-1.3c0-0.5,0.1-0.9,0.3-1.2
		c0.2-0.3,0.5-0.6,0.9-0.9c0.4-0.2,0.8-0.4,1.2-0.5c0.4-0.1,0.9-0.2,1.4-0.3c0.5-0.1,0.9-0.1,1.4-0.1c0-0.8-0.2-1.3-0.5-1.6
		s-0.8-0.4-1.4-0.4c-0.3,0-0.7,0-1,0.1c-0.4,0.1-0.8,0.3-1.2,0.6l-0.2-1.3c0.3-0.3,0.8-0.5,1.3-0.6c0.5-0.2,1-0.2,1.6-0.2
		c0.7,0,1.3,0.1,1.7,0.4c0.4,0.3,0.8,0.7,1,1.3c0.2,0.6,0.3,1.4,0.3,2.4v1.7c0,0.4,0,0.7,0.1,1c0,0.3,0.1,0.5,0.3,0.6
		c0.1,0.1,0.4,0.2,0.7,0.2h0.2l-0.2,1.3h-0.1c-0.5,0-0.9,0-1.2-0.1c-0.3-0.1-0.5-0.2-0.6-0.4c-0.1-0.2-0.3-0.4-0.4-0.7
		c-0.3,0.4-0.7,0.7-1.1,0.9C717.1,596.3,716.6,596.4,716.1,596.4z M716.4,595.1c0.4,0,0.8-0.1,1.2-0.3c0.4-0.2,0.7-0.5,1-0.8v-2
		c-0.8,0-1.5,0.1-2,0.2c-0.5,0.1-0.9,0.3-1.1,0.6c-0.2,0.3-0.4,0.6-0.4,1c0,0.5,0.1,0.8,0.4,1C715.7,595,716,595.1,716.4,595.1z"/>
	<path class="st5" d="M726.4,596.4c-1,0-1.8-0.2-2.4-0.6c-0.7-0.4-1.1-0.9-1.5-1.6c-0.3-0.7-0.5-1.4-0.5-2.2c0-0.8,0.2-1.6,0.5-2.3
		c0.3-0.7,0.8-1.2,1.5-1.6c0.7-0.4,1.5-0.6,2.6-0.6c0.4,0,0.9,0,1.3,0.1c0.4,0.1,0.8,0.2,1.1,0.4l-0.2,1.4c-0.3-0.2-0.7-0.3-1-0.4
		s-0.7-0.1-1.1-0.1c-0.9,0-1.7,0.3-2.1,0.8c-0.5,0.5-0.7,1.3-0.7,2.2c0,0.9,0.2,1.7,0.7,2.2c0.5,0.6,1.2,0.8,2.1,0.8
		c0.4,0,0.8,0,1.1-0.1c0.4-0.1,0.7-0.2,1-0.4l0.2,1.3c-0.2,0.2-0.6,0.3-1,0.4C727.3,596.3,726.9,596.4,726.4,596.4z"/>
	<path class="st5" d="M734.1,596.4c-1,0-1.8-0.2-2.4-0.6c-0.7-0.4-1.1-0.9-1.5-1.6c-0.3-0.7-0.5-1.4-0.5-2.2c0-0.8,0.2-1.6,0.5-2.3
		c0.3-0.7,0.8-1.2,1.5-1.6c0.7-0.4,1.5-0.6,2.6-0.6c0.4,0,0.9,0,1.3,0.1c0.4,0.1,0.8,0.2,1.1,0.4l-0.2,1.4c-0.3-0.2-0.7-0.3-1-0.4
		s-0.7-0.1-1.1-0.1c-0.9,0-1.7,0.3-2.1,0.8c-0.5,0.5-0.7,1.3-0.7,2.2c0,0.9,0.2,1.7,0.7,2.2c0.5,0.6,1.2,0.8,2.1,0.8
		c0.4,0,0.8,0,1.1-0.1c0.4-0.1,0.7-0.2,1-0.4l0.2,1.3c-0.2,0.2-0.6,0.3-1,0.4C735.1,596.3,734.6,596.4,734.1,596.4z"/>
	<path class="st5" d="M742.1,596.4c-1,0-1.8-0.2-2.5-0.6c-0.7-0.4-1.2-1-1.6-1.6c-0.4-0.7-0.5-1.4-0.5-2.2c0-0.8,0.2-1.5,0.5-2.2
		c0.3-0.7,0.8-1.2,1.4-1.6c0.6-0.4,1.4-0.6,2.3-0.6c0.7,0,1.3,0.1,1.9,0.4c0.6,0.3,1,0.7,1.3,1.2c0.3,0.5,0.5,1.2,0.5,2
		c0,0.1,0,0.3,0,0.4c0,0.1,0,0.3-0.1,0.4h-6.2c0.1,0.8,0.3,1.4,0.6,1.8c0.3,0.4,0.7,0.8,1.1,0.9c0.5,0.2,1,0.3,1.5,0.3
		c0.4,0,0.8,0,1.2-0.1c0.4-0.1,0.8-0.2,1.2-0.4l0.2,1.2c-0.3,0.1-0.7,0.3-1.2,0.4C743.2,596.3,742.7,596.4,742.1,596.4z
		 M739.2,590.9h4.5c0-0.4-0.1-0.7-0.2-1c-0.2-0.3-0.4-0.5-0.7-0.7c-0.3-0.2-0.7-0.2-1.2-0.2c-0.7,0-1.2,0.2-1.6,0.5
		C739.6,589.8,739.4,590.3,739.2,590.9z"/>
	<path class="st5" d="M749.3,596.4c-0.8,0-1.4-0.1-1.9-0.3c-0.5-0.2-0.8-0.3-1-0.5l0.2-1.5c0.2,0.2,0.5,0.3,1,0.6
		c0.5,0.2,1,0.3,1.7,0.3c0.6,0,1-0.1,1.3-0.3c0.3-0.2,0.4-0.4,0.4-0.8c0-0.3-0.1-0.5-0.3-0.7c-0.2-0.2-0.4-0.3-0.7-0.4
		c-0.3-0.1-0.5-0.2-0.7-0.3c-0.4-0.1-0.8-0.2-1.2-0.4c-0.4-0.2-0.8-0.4-1-0.7c-0.3-0.3-0.4-0.8-0.4-1.3c0-0.4,0.1-0.8,0.3-1.2
		c0.2-0.4,0.5-0.7,1-1c0.5-0.2,1.1-0.4,1.9-0.4c0.6,0,1,0.1,1.4,0.2s0.7,0.2,0.9,0.4l-0.2,1.4c-0.2-0.2-0.5-0.4-0.9-0.5
		c-0.3-0.1-0.7-0.2-1.2-0.2c-0.5,0-0.9,0.1-1.2,0.3c-0.3,0.2-0.5,0.5-0.5,0.9c0,0.4,0.2,0.7,0.5,0.9c0.3,0.2,0.8,0.4,1.5,0.6
		c0.2,0.1,0.5,0.1,0.7,0.3c0.3,0.1,0.5,0.3,0.8,0.4c0.3,0.2,0.5,0.4,0.6,0.7c0.2,0.3,0.3,0.7,0.3,1.1c0,0.4-0.1,0.8-0.3,1.2
		c-0.2,0.4-0.5,0.7-1,1C750.8,596.3,750.2,596.4,749.3,596.4z"/>
	<path class="st5" d="M756.5,596.4c-0.8,0-1.4-0.1-1.9-0.3c-0.5-0.2-0.8-0.3-1-0.5l0.2-1.5c0.2,0.2,0.5,0.3,1,0.6
		c0.5,0.2,1,0.3,1.7,0.3c0.6,0,1-0.1,1.3-0.3c0.3-0.2,0.4-0.4,0.4-0.8c0-0.3-0.1-0.5-0.3-0.7c-0.2-0.2-0.4-0.3-0.7-0.4
		c-0.3-0.1-0.5-0.2-0.7-0.3c-0.4-0.1-0.8-0.2-1.2-0.4c-0.4-0.2-0.8-0.4-1-0.7c-0.3-0.3-0.4-0.8-0.4-1.3c0-0.4,0.1-0.8,0.3-1.2
		c0.2-0.4,0.5-0.7,1-1c0.5-0.2,1.1-0.4,1.9-0.4c0.6,0,1,0.1,1.4,0.2s0.7,0.2,0.9,0.4l-0.2,1.4c-0.2-0.2-0.5-0.4-0.9-0.5
		c-0.3-0.1-0.7-0.2-1.2-0.2c-0.5,0-0.9,0.1-1.2,0.3c-0.3,0.2-0.5,0.5-0.5,0.9c0,0.4,0.2,0.7,0.5,0.9c0.3,0.2,0.8,0.4,1.5,0.6
		c0.2,0.1,0.5,0.1,0.7,0.3c0.3,0.1,0.5,0.3,0.8,0.4c0.3,0.2,0.5,0.4,0.6,0.7c0.2,0.3,0.3,0.7,0.3,1.1c0,0.4-0.1,0.8-0.3,1.2
		c-0.2,0.4-0.5,0.7-1,1C758,596.3,757.4,596.4,756.5,596.4z"/>
</g>
<g>
	<path class="st4" d="M834.2,360.4c-1.4,0-2.6-0.3-3.6-0.9c-1-0.6-1.9-1.4-2.4-2.5c-0.6-1.1-0.9-2.3-0.9-3.7s0.3-2.6,0.9-3.7
		c0.6-1.1,1.4-1.9,2.5-2.5c1.1-0.6,2.3-0.9,3.6-0.9c0.7,0,1.4,0.1,2,0.2c0.6,0.2,1.1,0.3,1.5,0.6l-0.3,2.4c-0.5-0.2-1-0.4-1.5-0.6
		c-0.5-0.1-1.1-0.2-1.7-0.2c-0.9,0-1.7,0.2-2.4,0.6c-0.6,0.4-1.1,0.9-1.4,1.7c-0.3,0.7-0.5,1.5-0.5,2.4c0,0.9,0.2,1.7,0.5,2.4
		c0.3,0.7,0.8,1.3,1.4,1.7c0.6,0.4,1.4,0.6,2.3,0.6c0.7,0,1.2-0.1,1.7-0.2c0.5-0.1,1-0.3,1.6-0.6l0.3,2.4c-0.5,0.2-1.1,0.4-1.7,0.6
		C835.5,360.4,834.8,360.4,834.2,360.4z"/>
	<path class="st4" d="M845.5,360.4c-1.3,0-2.4-0.3-3.4-0.9c-1-0.6-1.8-1.4-2.4-2.5c-0.6-1.1-0.9-2.3-0.9-3.7s0.3-2.6,0.9-3.7
		c0.6-1.1,1.4-1.9,2.4-2.5c1-0.6,2.1-0.9,3.4-0.9c1.3,0,2.4,0.3,3.4,0.9c1,0.6,1.8,1.4,2.4,2.5c0.6,1.1,0.9,2.3,0.9,3.7
		s-0.3,2.6-0.9,3.7c-0.6,1.1-1.4,1.9-2.4,2.5C847.9,360.2,846.8,360.4,845.5,360.4z M845.5,358c0.9,0,1.7-0.2,2.3-0.6
		c0.6-0.4,1.1-0.9,1.4-1.6c0.3-0.7,0.5-1.5,0.5-2.4s-0.2-1.7-0.5-2.4c-0.3-0.7-0.8-1.2-1.4-1.6c-0.6-0.4-1.4-0.6-2.3-0.6
		s-1.7,0.2-2.3,0.6c-0.6,0.4-1.1,0.9-1.4,1.6c-0.3,0.7-0.5,1.5-0.5,2.4s0.2,1.7,0.5,2.4c0.3,0.7,0.8,1.2,1.4,1.6
		C843.8,357.8,844.6,358,845.5,358z"/>
	<path class="st4" d="M854.3,360.2v-13.5h2.4l5.8,8.7v-8.7h2.5v13.5h-2l-6.2-9.3v9.3H854.3z"/>
	<path class="st4" d="M868,360.2v-13.5h8.3v2.4h-5.9v2.9h4.5v2.4h-4.5v5.8H868z"/>
	<path class="st4" d="M878.1,360.2v-13.5h2.5v13.5H878.1z"/>
	<path class="st4" d="M883.5,360.2v-13.5h5.1c1.3,0,2.4,0.3,3.4,0.8c1,0.5,1.8,1.3,2.4,2.3c0.6,1,0.9,2.2,0.9,3.6s-0.3,2.6-0.9,3.6
		c-0.6,1-1.4,1.8-2.4,2.3c-1,0.5-2.1,0.8-3.4,0.8H883.5z M886,358h2.6c0.9,0,1.6-0.2,2.2-0.5c0.6-0.4,1-0.9,1.3-1.6
		c0.3-0.7,0.4-1.5,0.4-2.4s-0.1-1.8-0.4-2.4c-0.3-0.7-0.7-1.2-1.3-1.6c-0.6-0.4-1.3-0.5-2.2-0.5H886V358z"/>
	<path class="st4" d="M897.4,360.2v-13.5h8.6v2.4H900v2.9h4.7v2.4H900v3.5h6.3v2.4H897.4z"/>
	<path class="st4" d="M908.4,360.2v-13.5h2.4l5.8,8.7v-8.7h2.5v13.5h-2l-6.2-9.3v9.3H908.4z"/>
	<path class="st4" d="M924.7,360.2v-11.1h-3.8v-2.4H931v2.4h-3.8v11.1H924.7z"/>
	<path class="st4" d="M932.7,360.2v-13.5h2.5v13.5H932.7z"/>
	<path class="st4" d="M942.4,349.1h0.6l-3.9,11.1h-2.4l4.8-13.5h2.3l4.8,13.5h-2.4L942.4,349.1z M945.6,357h-5.7v-2.2h5.7V357z"/>
	<path class="st4" d="M950.3,360.2v-13.5h2.5V358h5.6v2.2H950.3z"/>
</g>
<g>
	<path class="st4" d="M857.7,586.3v-13.5h4.8c1,0,1.9,0.2,2.6,0.5c0.7,0.3,1.3,0.8,1.6,1.4c0.4,0.6,0.6,1.5,0.6,2.5
		c0,1-0.2,1.9-0.6,2.5s-0.9,1.1-1.6,1.5c-0.7,0.3-1.6,0.5-2.6,0.5h-2.4v4.7H857.7z M860.2,579.6h2.1c0.8,0,1.5-0.2,1.9-0.6
		c0.4-0.4,0.6-1,0.6-1.8c0-0.8-0.2-1.4-0.6-1.8c-0.4-0.4-1.1-0.6-1.9-0.6h-2V579.6z"/>
	<path class="st4" d="M874.6,586.6c-1.3,0-2.3-0.3-3.1-0.8c-0.8-0.5-1.4-1.2-1.8-2.1c-0.4-0.9-0.6-2-0.6-3.2v-7.7h2.5v7.1
		c0,0.6,0,1.2,0.1,1.8c0.1,0.5,0.2,1,0.5,1.4c0.2,0.4,0.5,0.7,1,0.9c0.4,0.2,0.9,0.3,1.6,0.3s1.2-0.1,1.6-0.3c0.4-0.2,0.7-0.5,1-0.9
		c0.2-0.4,0.4-0.8,0.5-1.4c0.1-0.5,0.1-1.1,0.1-1.8v-7.1h2.5v7.7c0,1.2-0.2,2.3-0.6,3.2c-0.4,0.9-1,1.6-1.8,2.1
		C877,586.3,875.9,586.6,874.6,586.6z"/>
	<path class="st4" d="M883.1,586.3v-13.5h5.1c1.3,0,2.3,0.3,2.9,0.8c0.6,0.6,1,1.4,1,2.4c0,0.8-0.2,1.5-0.5,2
		c-0.4,0.5-0.9,0.9-1.6,1.2v-0.5c1.1,0.2,1.9,0.7,2.4,1.3c0.5,0.6,0.8,1.4,0.8,2.5c0,1.2-0.4,2.2-1.2,2.8c-0.8,0.7-1.9,1-3.2,1
		H883.1z M885.5,578.1h2.3c0.6,0,1-0.1,1.3-0.4c0.3-0.2,0.4-0.6,0.4-1.2c0-0.6-0.1-1-0.4-1.2c-0.3-0.2-0.7-0.4-1.3-0.4h-2.3V578.1z
		 M885.5,584.1h2.8c0.7,0,1.2-0.1,1.6-0.4c0.4-0.3,0.6-0.8,0.6-1.5c0-0.7-0.2-1.2-0.6-1.5c-0.4-0.3-1-0.4-1.6-0.4h-2.8V584.1z"/>
	<path class="st4" d="M895.1,586.3v-13.5h2.5v11.3h5.6v2.2H895.1z"/>
	<path class="st4" d="M904.8,586.3v-13.5h2.5v13.5H904.8z"/>
	<path class="st4" d="M916.4,586.6c-1.4,0-2.6-0.3-3.6-0.9c-1-0.6-1.9-1.4-2.4-2.5c-0.6-1.1-0.9-2.3-0.9-3.7c0-1.4,0.3-2.6,0.9-3.7
		c0.6-1.1,1.4-1.9,2.5-2.5c1.1-0.6,2.3-0.9,3.6-0.9c0.7,0,1.4,0.1,2,0.2c0.6,0.2,1.1,0.3,1.5,0.6l-0.3,2.4c-0.5-0.2-1-0.4-1.5-0.6
		c-0.5-0.1-1.1-0.2-1.7-0.2c-0.9,0-1.7,0.2-2.4,0.6c-0.6,0.4-1.1,0.9-1.4,1.7c-0.3,0.7-0.5,1.5-0.5,2.4c0,0.9,0.2,1.7,0.5,2.4
		c0.3,0.7,0.8,1.3,1.4,1.7c0.6,0.4,1.4,0.6,2.3,0.6c0.6,0,1.2-0.1,1.7-0.2c0.5-0.1,1-0.3,1.6-0.6l0.3,2.4c-0.5,0.2-1.1,0.4-1.7,0.6
		C917.6,586.5,917,586.6,916.4,586.6z"/>
</g>
<path class="st7" d="M292.5,741.4H120.1c-6.9,0-12.6-5.6-12.6-12.6l0,0c0-6.9,5.6-12.6,12.6-12.6h172.4V741.4z"/>
<rect x="306.1" y="716.3" class="st1" width="185" height="25.1"/>
<rect x="504.7" y="716.3" class="st6" width="185" height="25.1"/>
<path class="st0" d="M875.8,741.4H703.3v-25.1h172.4c6.9,0,12.6,5.6,12.6,12.6l0,0C888.4,735.8,882.7,741.4,875.8,741.4z"/>
</svg>
