<?xml version="1.0" encoding="utf-8"?>
<!-- Generator: Adobe Illustrator 27.8.0, SVG Export Plug-In . SVG Version: 6.00 Build 0)  -->
<svg version="1.1" id="Layer_1" xmlns="http://www.w3.org/2000/svg" xmlns:xlink="http://www.w3.org/1999/xlink" x="0px" y="0px"
	 viewBox="0 0 1000 500" style="enable-background:new 0 0 1000 500;" xml:space="preserve">
<style type="text/css">
	.st0{fill:#878787;}
	.st1{fill:#F7F7F7;}
	.st2{fill:#BCBEC0;}
	.st3{fill:#183251;}
	.st4{fill:#F65A27;}
	.st5{fill:#FFBC35;}
	.st6{fill:#4D91FE;}
	.st7{fill:#FFFFFF;}
	.st8{fill:#C62F12;}
</style>
<g>
	<path class="st0" d="M923,84.2C878.7,40,819.9,15.6,757.3,15.6S635.8,40,591.5,84.2c-1.2,1.1-2.3,2.3-3.5,3.6
		c-11,11.4-20.7,23.8-29,36.9c-36.4,53.5-67.4,122.8-67.4,122.8v35.2v0.7v35.7c0,0,22.4,21.4,99.9,96.6
		c44.3,44.3,103.1,68.7,165.8,68.7S878.7,460,923,415.8c44.3-44.3,68.7-103.1,68.7-165.8S967.3,128.5,923,84.2z M757.3,477.1
		c-2,0-4,0-6-0.1c-0.6,0-1.3-0.1-1.9-0.1c-1.3,0-2.7-0.1-4-0.2c-0.8,0-1.5-0.1-2.3-0.1c-1.2-0.1-2.4-0.1-3.6-0.2
		c-0.8-0.1-1.6-0.1-2.4-0.2c-1.2-0.1-2.3-0.2-3.5-0.3c-0.8-0.1-1.6-0.2-2.4-0.3c-1.1-0.1-2.3-0.3-3.4-0.4c-0.8-0.1-1.6-0.2-2.4-0.3
		c-1.1-0.2-2.2-0.3-3.4-0.5c-0.8-0.1-1.6-0.3-2.4-0.4c-1.1-0.2-2.2-0.4-3.4-0.6c-0.8-0.1-1.6-0.3-2.4-0.5c-1.1-0.2-2.2-0.4-3.4-0.7
		c-0.8-0.2-1.5-0.3-2.3-0.5c-1.1-0.2-2.3-0.5-3.4-0.8c-0.7-0.2-1.5-0.4-2.2-0.5c-1.1-0.3-2.3-0.6-3.4-0.9c-0.7-0.2-1.4-0.4-2.1-0.6
		c-1.2-0.3-2.3-0.6-3.5-1c-0.7-0.2-1.4-0.4-2-0.6c-1.2-0.4-2.3-0.7-3.5-1.1c-0.6-0.2-1.3-0.4-1.9-0.6c-1.2-0.4-2.4-0.8-3.6-1.2
		c-0.6-0.2-1.2-0.4-1.8-0.6c-1.2-0.4-2.5-0.9-3.7-1.4c-0.5-0.2-1.1-0.4-1.6-0.6c-1.3-0.5-2.5-1-3.8-1.5c-0.5-0.2-1-0.4-1.4-0.6
		c-1.3-0.6-2.7-1.1-4-1.7c-0.4-0.2-0.8-0.3-1.2-0.5c-1.4-0.6-2.8-1.3-4.2-1.9c-0.3-0.1-0.6-0.3-0.9-0.4c-1.5-0.7-3-1.5-4.5-2.2
		c-0.2-0.1-0.4-0.2-0.5-0.3c-23.9-12.1-45.3-28.3-63.4-47.6c0,0,0,0,0,0l0,0c-38-40.6-61.3-95.1-61.3-155s23.3-114.4,61.3-155l0,0
		c0,0,0,0,0,0c18.1-19.4,39.6-35.5,63.4-47.6c0.2-0.1,0.4-0.2,0.5-0.3c1.5-0.8,3-1.5,4.5-2.2c0.3-0.1,0.6-0.3,0.9-0.4
		c1.4-0.7,2.8-1.3,4.2-1.9c0.4-0.2,0.8-0.3,1.2-0.5c1.3-0.6,2.6-1.1,4-1.7c0.5-0.2,1-0.4,1.4-0.6c1.3-0.5,2.5-1,3.8-1.5
		c0.5-0.2,1.1-0.4,1.6-0.6c1.2-0.5,2.5-0.9,3.7-1.4c0.6-0.2,1.2-0.4,1.8-0.6c1.2-0.4,2.4-0.8,3.6-1.2c0.6-0.2,1.3-0.4,1.9-0.6
		c1.2-0.4,2.3-0.7,3.5-1.1c0.7-0.2,1.3-0.4,2-0.6c1.1-0.3,2.3-0.7,3.5-1c0.7-0.2,1.4-0.4,2.1-0.6c1.1-0.3,2.3-0.6,3.4-0.9
		c0.7-0.2,1.5-0.4,2.2-0.5c1.1-0.3,2.3-0.5,3.4-0.8c0.8-0.2,1.5-0.3,2.3-0.5c1.1-0.2,2.2-0.5,3.4-0.7c0.8-0.2,1.6-0.3,2.4-0.5
		c1.1-0.2,2.2-0.4,3.4-0.6c0.8-0.1,1.6-0.3,2.4-0.4c1.1-0.2,2.2-0.3,3.4-0.5c0.8-0.1,1.6-0.2,2.4-0.3c1.1-0.1,2.3-0.3,3.4-0.4
		c0.8-0.1,1.6-0.2,2.4-0.3c1.1-0.1,2.3-0.2,3.5-0.3c0.8-0.1,1.6-0.2,2.4-0.2c1.2-0.1,2.4-0.2,3.6-0.2c0.8,0,1.5-0.1,2.3-0.1
		c1.3-0.1,2.7-0.1,4-0.2c0.6,0,1.3-0.1,1.9-0.1c2-0.1,4-0.1,6-0.1c125.2,0,227.1,101.9,227.1,227.1S882.5,477.1,757.3,477.1z"/>
	
		<ellipse transform="matrix(0.7071 -0.7071 0.7071 0.7071 44.9714 608.5706)" class="st1" cx="757.1" cy="250" rx="226.1" ry="226.1"/>
	<path class="st2" d="M921,86.1c-43.8-43.8-102-67.9-163.9-67.9S636.9,42.3,593.2,86.1c-1.1,1.1-2.3,2.3-3.4,3.5
		c-10.9,11.3-20.4,23.5-28.7,36.5c-36,52.9-66.7,121.5-66.7,121.5v34.9v0.7v35.3c0,0,22.1,21.2,98.8,95.5
		c43.8,43.8,102,67.9,163.9,67.9s120.1-24.1,163.9-67.9c43.8-43.8,67.9-102,67.9-163.9S964.8,129.9,921,86.1z M757.1,474.6
		c-2,0-4,0-5.9-0.1c-0.6,0-1.3-0.1-1.9-0.1c-1.3,0-2.6-0.1-4-0.2c-0.8,0-1.5-0.1-2.3-0.1c-1.2-0.1-2.4-0.1-3.6-0.2
		c-0.8-0.1-1.6-0.1-2.4-0.2c-1.1-0.1-2.3-0.2-3.4-0.3c-0.8-0.1-1.6-0.2-2.4-0.3c-1.1-0.1-2.2-0.3-3.4-0.4c-0.8-0.1-1.6-0.2-2.4-0.3
		c-1.1-0.2-2.2-0.3-3.3-0.5c-0.8-0.1-1.6-0.3-2.4-0.4c-1.1-0.2-2.2-0.4-3.3-0.6c-0.8-0.1-1.6-0.3-2.3-0.4c-1.1-0.2-2.2-0.4-3.3-0.7
		c-0.8-0.2-1.5-0.3-2.3-0.5c-1.1-0.2-2.2-0.5-3.3-0.8c-0.7-0.2-1.5-0.4-2.2-0.5c-1.1-0.3-2.2-0.6-3.4-0.9c-0.7-0.2-1.4-0.4-2.1-0.6
		c-1.1-0.3-2.3-0.6-3.4-1c-0.7-0.2-1.3-0.4-2-0.6c-1.2-0.4-2.3-0.7-3.5-1.1c-0.6-0.2-1.3-0.4-1.9-0.6c-1.2-0.4-2.4-0.8-3.5-1.2
		c-0.6-0.2-1.2-0.4-1.8-0.6c-1.2-0.4-2.4-0.9-3.6-1.3c-0.5-0.2-1.1-0.4-1.6-0.6c-1.3-0.5-2.5-1-3.8-1.5c-0.5-0.2-0.9-0.4-1.4-0.6
		c-1.3-0.5-2.6-1.1-3.9-1.7c-0.4-0.2-0.8-0.3-1.2-0.5c-1.4-0.6-2.8-1.3-4.1-1.9c-0.3-0.1-0.6-0.3-0.9-0.4c-1.5-0.7-3-1.4-4.4-2.2
		c-0.2-0.1-0.4-0.2-0.5-0.3c-23.6-12-44.8-28-62.7-47.1c0,0,0,0,0,0l0,0c-37.6-40.2-60.6-94.1-60.6-153.3s23-113.1,60.6-153.3l0,0
		c0,0,0,0,0,0c17.9-19.1,39.1-35.2,62.7-47.1c0.2-0.1,0.4-0.2,0.5-0.3c1.5-0.7,3-1.5,4.4-2.2c0.3-0.1,0.6-0.3,0.9-0.4
		c1.4-0.6,2.8-1.3,4.1-1.9c0.4-0.2,0.8-0.3,1.2-0.5c1.3-0.6,2.6-1.1,3.9-1.7c0.5-0.2,0.9-0.4,1.4-0.6c1.3-0.5,2.5-1,3.8-1.5
		c0.5-0.2,1.1-0.4,1.6-0.6c1.2-0.5,2.4-0.9,3.6-1.3c0.6-0.2,1.2-0.4,1.8-0.6c1.2-0.4,2.4-0.8,3.5-1.2c0.6-0.2,1.3-0.4,1.9-0.6
		c1.2-0.4,2.3-0.7,3.5-1.1c0.7-0.2,1.3-0.4,2-0.6c1.1-0.3,2.3-0.7,3.4-1c0.7-0.2,1.4-0.4,2.1-0.6c1.1-0.3,2.2-0.6,3.4-0.9
		c0.7-0.2,1.5-0.4,2.2-0.5c1.1-0.3,2.2-0.5,3.3-0.8c0.8-0.2,1.5-0.3,2.3-0.5c1.1-0.2,2.2-0.5,3.3-0.7c0.8-0.2,1.5-0.3,2.3-0.4
		c1.1-0.2,2.2-0.4,3.3-0.6c0.8-0.1,1.6-0.3,2.4-0.4c1.1-0.2,2.2-0.3,3.3-0.5c0.8-0.1,1.6-0.2,2.4-0.3c1.1-0.1,2.2-0.3,3.4-0.4
		c0.8-0.1,1.6-0.2,2.4-0.3c1.1-0.1,2.3-0.2,3.4-0.3c0.8-0.1,1.6-0.2,2.4-0.2c1.2-0.1,2.4-0.2,3.6-0.2c0.8,0,1.5-0.1,2.3-0.1
		c1.3-0.1,2.6-0.1,4-0.2c0.6,0,1.3-0.1,1.9-0.1c2-0.1,3.9-0.1,5.9-0.1c123.8,0,224.6,100.7,224.6,224.6S880.9,474.6,757.1,474.6z"/>
</g>
<polygon class="st3" points="699.8,216.5 699.8,282.8 757.2,315.9 814.6,282.8 814.6,216.5 757.2,183.4 "/>
<polygon class="st4" points="579.8,216.5 579.8,282.8 637.2,315.9 694.6,282.8 694.6,216.5 637.2,183.4 "/>
<polygon class="st5" points="640.1,112.8 640.1,179 697.5,212.1 754.8,179 754.8,112.8 697.5,79.6 "/>
<polygon class="st6" points="639.9,321 639.9,387.2 697.3,420.4 754.6,387.2 754.6,321 697.3,287.9 "/>
<polygon class="st6" points="759.9,320.7 759.9,386.9 817.2,420 874.6,386.9 874.6,320.7 817.2,287.5 "/>
<polygon class="st4" points="819.6,216.2 819.6,282.5 877,315.6 934.3,282.5 934.3,216.2 877,183.1 "/>
<polygon class="st5" points="760.2,113.4 760.2,179.7 817.6,212.8 874.9,179.7 874.9,113.4 817.6,80.3 "/>
<g>
	<path class="st3" d="M662.9,149.1v-8.2h5v1.2h-3.8v2.1h2.9v1.2h-2.9v3.7H662.9z"/>
	<path class="st3" d="M669,149.1v-8.2h2.8c0.6,0,1.1,0.1,1.5,0.3c0.4,0.2,0.8,0.5,1,0.8c0.2,0.4,0.4,0.8,0.4,1.4
		c0,0.6-0.1,1.1-0.4,1.4c-0.2,0.4-0.6,0.7-1,0.9l1.9,3.4h-1.5L672,146c0,0,0,0,0,0c0,0,0,0,0,0h-1.6v3.1H669z M670.3,144.8h1.3
		c0.6,0,1-0.1,1.3-0.4c0.3-0.3,0.4-0.6,0.4-1c0-0.5-0.1-0.8-0.4-1c-0.3-0.2-0.7-0.4-1.3-0.4h-1.3V144.8z"/>
	<path class="st3" d="M678.8,142.1h0.4l-2.5,7h-1.3l2.9-8.2h1.3l2.9,8.2h-1.3L678.8,142.1z M680.7,147h-3.5v-1.1h3.5V147z"/>
	<path class="st3" d="M683.1,149.1l1.1-8.2h1.1l2.1,3.9l2.1-3.9h1.1l1.1,8.2h-1.3l-0.8-6.5l0.3,0.1l-2.4,4.6l-2.5-4.6l0.3-0.1
		l-0.8,6.5H683.1z"/>
	<path class="st3" d="M693.1,149.1v-8.2h5.1v1.2h-3.8v2.1h3v1.2h-3v2.5h3.9v1.2H693.1z"/>
	<path class="st3" d="M701.1,149.1l-2.3-8.2h1.3l1.7,6.4l1.9-6.3h1.1l2,6.2l1.7-6.3h1.3l-2.4,8.2h-1.2l-1.9-6.1l-1.9,6.1H701.1z"/>
	<path class="st3" d="M714.4,149.3c-0.8,0-1.5-0.2-2.1-0.5c-0.6-0.4-1.1-0.8-1.4-1.5c-0.3-0.6-0.5-1.4-0.5-2.3s0.2-1.6,0.5-2.3
		c0.3-0.6,0.8-1.1,1.4-1.5c0.6-0.4,1.3-0.5,2.1-0.5c0.8,0,1.5,0.2,2.1,0.5c0.6,0.4,1.1,0.8,1.4,1.5c0.3,0.6,0.5,1.4,0.5,2.3
		s-0.2,1.6-0.5,2.3c-0.3,0.6-0.8,1.1-1.4,1.5C715.8,149.1,715.1,149.3,714.4,149.3z M714.4,148c0.6,0,1.1-0.1,1.5-0.4
		s0.7-0.6,0.9-1.1c0.2-0.5,0.3-1,0.3-1.5s-0.1-1.1-0.3-1.5c-0.2-0.5-0.5-0.8-0.9-1.1c-0.4-0.3-0.9-0.4-1.5-0.4
		c-0.6,0-1.1,0.1-1.5,0.4c-0.4,0.3-0.7,0.6-0.9,1.1c-0.2,0.5-0.3,1-0.3,1.5s0.1,1.1,0.3,1.5c0.2,0.5,0.5,0.8,0.9,1.1
		C713.3,147.9,713.8,148,714.4,148z"/>
	<path class="st3" d="M719.8,149.1v-8.2h2.8c0.6,0,1.1,0.1,1.5,0.3c0.4,0.2,0.8,0.5,1,0.8c0.2,0.4,0.4,0.8,0.4,1.4
		c0,0.6-0.1,1.1-0.4,1.4c-0.2,0.4-0.6,0.7-1,0.9l1.9,3.4h-1.5l-1.6-3.1c0,0,0,0,0,0c0,0,0,0,0,0h-1.6v3.1H719.8z M721.1,144.8h1.3
		c0.6,0,1-0.1,1.3-0.4c0.3-0.3,0.4-0.6,0.4-1c0-0.5-0.1-0.8-0.4-1c-0.3-0.2-0.7-0.4-1.3-0.4h-1.3V144.8z"/>
	<path class="st3" d="M727,149.1v-8.2h1.3v8.2H727z M731.4,149.1l-3-4.4l3-3.9h1.5l-3.1,3.9l3.1,4.4H731.4z"/>
</g>
<g>
	<path class="st3" d="M795.6,149.8v-8.2h1.3v8.2H795.6z"/>
	<path class="st3" d="M798.7,149.8v-8.2h1.3l3.8,5.8v-5.8h1.3v8.2h-1.1l-4.1-6.1v6.1H798.7z"/>
	<path class="st3" d="M808.6,149.8v-7h-2.4v-1.2h6v1.2h-2.4v7H808.6z"/>
	<path class="st3" d="M813.3,149.8v-8.2h5.1v1.2h-3.8v2.1h3v1.2h-3v2.5h3.9v1.2H813.3z"/>
	<path class="st3" d="M819.9,149.8v-8.2h1.3l3.8,5.8v-5.8h1.3v8.2h-1.1l-4.1-6.1v6.1H819.9z"/>
	<path class="st3" d="M829.8,149.8v-7h-2.4v-1.2h6v1.2h-2.4v7H829.8z"/>
	<path class="st3" d="M836.9,149.9c-0.3,0-0.7,0-1-0.1c-0.3-0.1-0.7-0.1-1-0.2c-0.3-0.1-0.5-0.2-0.7-0.3l0.2-1.4
		c0.2,0.1,0.5,0.2,0.8,0.3c0.3,0.1,0.6,0.2,0.9,0.3c0.3,0.1,0.7,0.1,1,0.1c0.5,0,0.9-0.1,1.1-0.3c0.3-0.2,0.4-0.5,0.4-0.8
		c0-0.3-0.1-0.5-0.2-0.7c-0.1-0.2-0.4-0.3-0.7-0.5c-0.3-0.1-0.7-0.3-1.1-0.4c-0.4-0.1-0.8-0.3-1.2-0.5c-0.4-0.2-0.7-0.4-0.9-0.7
		c-0.2-0.3-0.3-0.7-0.3-1.2c0-0.4,0.1-0.8,0.3-1.2c0.2-0.3,0.6-0.6,1-0.8s1-0.3,1.6-0.3c0.5,0,1,0.1,1.5,0.2
		c0.5,0.1,0.8,0.2,1.1,0.4l-0.1,1.3c-0.5-0.2-0.9-0.4-1.3-0.5c-0.4-0.1-0.8-0.2-1.2-0.2c-0.5,0-0.8,0.1-1.1,0.2s-0.4,0.4-0.4,0.8
		c0,0.3,0.1,0.5,0.2,0.6c0.1,0.2,0.3,0.3,0.6,0.4c0.3,0.1,0.6,0.2,1,0.4c0.6,0.2,1.1,0.4,1.5,0.6c0.4,0.2,0.7,0.5,0.9,0.8
		c0.2,0.3,0.3,0.7,0.3,1.2c0,0.3-0.1,0.6-0.2,0.9c-0.1,0.3-0.3,0.5-0.5,0.7c-0.2,0.2-0.6,0.4-1,0.5
		C838.1,149.9,837.6,149.9,836.9,149.9z"/>
</g>
<g>
	<path class="st3" d="M611,245.8v-8.2h2.8c0.8,0,1.3,0.2,1.7,0.5c0.4,0.3,0.6,0.8,0.6,1.5c0,0.5-0.1,0.9-0.3,1.2
		c-0.2,0.3-0.5,0.6-0.9,0.7l0.1-0.2c0.6,0.1,1.1,0.4,1.4,0.7c0.3,0.4,0.5,0.9,0.5,1.5c0,0.7-0.2,1.3-0.7,1.7
		c-0.5,0.4-1.1,0.6-1.9,0.6H611z M612.3,240.9h1.4c0.4,0,0.7-0.1,0.9-0.2c0.2-0.2,0.3-0.4,0.3-0.9c0-0.4-0.1-0.7-0.3-0.9
		c-0.2-0.2-0.5-0.2-0.9-0.2h-1.4V240.9z M612.3,244.7h1.8c0.4,0,0.8-0.1,1-0.3c0.3-0.2,0.4-0.5,0.4-1c0-0.5-0.1-0.8-0.4-1
		c-0.3-0.2-0.6-0.3-1-0.3h-1.8V244.7z"/>
	<path class="st3" d="M621.5,246c-0.8,0-1.4-0.1-1.9-0.4c-0.5-0.3-0.9-0.7-1.1-1.3c-0.2-0.5-0.4-1.2-0.4-2v-4.7h1.3v4.4
		c0,0.4,0,0.7,0.1,1.1c0.1,0.3,0.2,0.6,0.3,0.9c0.1,0.3,0.4,0.5,0.6,0.6c0.3,0.1,0.6,0.2,1.1,0.2c0.5,0,0.8-0.1,1.1-0.2
		c0.3-0.1,0.5-0.4,0.6-0.6c0.1-0.3,0.3-0.6,0.3-0.9c0.1-0.3,0.1-0.7,0.1-1.1v-4.4h1.3v4.7c0,0.8-0.1,1.4-0.4,2
		c-0.2,0.5-0.6,1-1.1,1.3C622.9,245.8,622.3,246,621.5,246z"/>
	<path class="st3" d="M629,246c-0.3,0-0.7,0-1-0.1c-0.3-0.1-0.7-0.1-1-0.2c-0.3-0.1-0.5-0.2-0.7-0.3l0.2-1.4
		c0.2,0.1,0.5,0.2,0.8,0.3c0.3,0.1,0.6,0.2,0.9,0.3c0.3,0.1,0.7,0.1,1,0.1c0.5,0,0.9-0.1,1.1-0.3c0.3-0.2,0.4-0.5,0.4-0.8
		c0-0.3-0.1-0.5-0.2-0.7c-0.1-0.2-0.4-0.3-0.7-0.5c-0.3-0.1-0.7-0.3-1.1-0.4c-0.4-0.1-0.8-0.3-1.2-0.5c-0.4-0.2-0.7-0.4-0.9-0.7
		c-0.2-0.3-0.3-0.7-0.3-1.2c0-0.4,0.1-0.8,0.3-1.2c0.2-0.3,0.6-0.6,1-0.8s1-0.3,1.6-0.3c0.5,0,1,0.1,1.5,0.2
		c0.5,0.1,0.8,0.2,1.1,0.4l-0.1,1.3c-0.5-0.2-0.9-0.4-1.3-0.5c-0.4-0.1-0.8-0.2-1.2-0.2c-0.5,0-0.8,0.1-1.1,0.2s-0.4,0.4-0.4,0.8
		c0,0.3,0.1,0.5,0.2,0.6c0.1,0.2,0.3,0.3,0.6,0.4c0.3,0.1,0.6,0.2,1,0.4c0.6,0.2,1.1,0.4,1.5,0.6c0.4,0.2,0.7,0.5,0.9,0.8
		c0.2,0.3,0.3,0.7,0.3,1.2c0,0.3-0.1,0.6-0.2,0.9c-0.1,0.3-0.3,0.5-0.5,0.7c-0.2,0.2-0.6,0.4-1,0.5C630.1,245.9,629.6,246,629,246z"
		/>
	<path class="st3" d="M633.5,245.8v-8.2h1.3v8.2H633.5z"/>
	<path class="st3" d="M636.6,245.8v-8.2h1.3l3.8,5.8v-5.8h1.3v8.2H642l-4.1-6.1v6.1H636.6z"/>
	<path class="st3" d="M644.9,245.8v-8.2h5.1v1.2h-3.8v2.1h3v1.2h-3v2.5h3.9v1.2H644.9z"/>
	<path class="st3" d="M653.9,246c-0.3,0-0.7,0-1-0.1c-0.3-0.1-0.7-0.1-1-0.2c-0.3-0.1-0.5-0.2-0.7-0.3l0.2-1.4
		c0.2,0.1,0.5,0.2,0.8,0.3c0.3,0.1,0.6,0.2,0.9,0.3c0.3,0.1,0.7,0.1,1,0.1c0.5,0,0.9-0.1,1.1-0.3c0.3-0.2,0.4-0.5,0.4-0.8
		c0-0.3-0.1-0.5-0.2-0.7c-0.1-0.2-0.4-0.3-0.7-0.5c-0.3-0.1-0.7-0.3-1.1-0.4c-0.4-0.1-0.8-0.3-1.2-0.5c-0.4-0.2-0.7-0.4-0.9-0.7
		c-0.2-0.3-0.3-0.7-0.3-1.2c0-0.4,0.1-0.8,0.3-1.2c0.2-0.3,0.6-0.6,1-0.8s1-0.3,1.6-0.3c0.5,0,1,0.1,1.5,0.2
		c0.5,0.1,0.8,0.2,1.1,0.4l-0.1,1.3c-0.5-0.2-0.9-0.4-1.3-0.5c-0.4-0.1-0.8-0.2-1.2-0.2c-0.5,0-0.8,0.1-1.1,0.2
		c-0.3,0.2-0.4,0.4-0.4,0.8c0,0.3,0.1,0.5,0.2,0.6c0.1,0.2,0.3,0.3,0.6,0.4c0.3,0.1,0.6,0.2,1,0.4c0.6,0.2,1.1,0.4,1.5,0.6
		c0.4,0.2,0.7,0.5,0.9,0.8c0.2,0.3,0.3,0.7,0.3,1.2c0,0.3-0.1,0.6-0.2,0.9c-0.1,0.3-0.3,0.5-0.5,0.7c-0.2,0.2-0.6,0.4-1,0.5
		C655,245.9,654.5,246,653.9,246z"/>
	<path class="st3" d="M660.7,246c-0.3,0-0.7,0-1-0.1c-0.3-0.1-0.7-0.1-1-0.2c-0.3-0.1-0.5-0.2-0.7-0.3l0.2-1.4
		c0.2,0.1,0.5,0.2,0.8,0.3c0.3,0.1,0.6,0.2,0.9,0.3c0.3,0.1,0.7,0.1,1,0.1c0.5,0,0.9-0.1,1.1-0.3c0.3-0.2,0.4-0.5,0.4-0.8
		c0-0.3-0.1-0.5-0.2-0.7c-0.1-0.2-0.4-0.3-0.7-0.5c-0.3-0.1-0.7-0.3-1.1-0.4c-0.4-0.1-0.8-0.3-1.2-0.5c-0.4-0.2-0.7-0.4-0.9-0.7
		c-0.2-0.3-0.3-0.7-0.3-1.2c0-0.4,0.1-0.8,0.3-1.2c0.2-0.3,0.6-0.6,1-0.8c0.4-0.2,1-0.3,1.6-0.3c0.5,0,1,0.1,1.5,0.2
		c0.5,0.1,0.8,0.2,1.1,0.4l-0.1,1.3c-0.5-0.2-0.9-0.4-1.3-0.5c-0.4-0.1-0.8-0.2-1.2-0.2c-0.5,0-0.8,0.1-1.1,0.2
		c-0.3,0.2-0.4,0.4-0.4,0.8c0,0.3,0.1,0.5,0.2,0.6c0.1,0.2,0.3,0.3,0.6,0.4c0.3,0.1,0.6,0.2,1,0.4c0.6,0.2,1.1,0.4,1.5,0.6
		c0.4,0.2,0.7,0.5,0.9,0.8c0.2,0.3,0.3,0.7,0.3,1.2c0,0.3-0.1,0.6-0.2,0.9c-0.1,0.3-0.3,0.5-0.5,0.7c-0.2,0.2-0.6,0.4-1,0.5
		C661.8,245.9,661.3,246,660.7,246z"/>
	<path class="st3" d="M613.2,260.1c-0.3,0-0.7,0-1-0.1c-0.3-0.1-0.7-0.1-1-0.2c-0.3-0.1-0.5-0.2-0.7-0.3l0.2-1.4
		c0.2,0.1,0.5,0.2,0.8,0.3c0.3,0.1,0.6,0.2,0.9,0.3c0.3,0.1,0.7,0.1,1,0.1c0.5,0,0.9-0.1,1.1-0.3c0.3-0.2,0.4-0.5,0.4-0.8
		c0-0.3-0.1-0.5-0.2-0.7c-0.1-0.2-0.4-0.3-0.7-0.5c-0.3-0.1-0.7-0.3-1.1-0.4c-0.4-0.1-0.8-0.3-1.2-0.5c-0.4-0.2-0.7-0.4-0.9-0.7
		c-0.2-0.3-0.3-0.7-0.3-1.2c0-0.4,0.1-0.8,0.3-1.2c0.2-0.3,0.6-0.6,1-0.8s1-0.3,1.6-0.3c0.5,0,1,0.1,1.5,0.2
		c0.5,0.1,0.8,0.2,1.1,0.4l-0.1,1.3c-0.5-0.2-0.9-0.4-1.3-0.5s-0.8-0.2-1.2-0.2c-0.5,0-0.8,0.1-1.1,0.2s-0.4,0.4-0.4,0.8
		c0,0.3,0.1,0.5,0.2,0.6c0.1,0.2,0.3,0.3,0.6,0.4c0.3,0.1,0.6,0.2,1,0.4c0.6,0.2,1.1,0.4,1.5,0.6c0.4,0.2,0.7,0.5,0.9,0.8
		c0.2,0.3,0.3,0.7,0.3,1.2c0,0.3-0.1,0.6-0.2,0.9c-0.1,0.3-0.3,0.5-0.5,0.7c-0.2,0.2-0.6,0.4-1,0.5
		C614.3,260,613.8,260.1,613.2,260.1z"/>
	<path class="st3" d="M619.3,259.9v-7h-2.4v-1.2h6v1.2h-2.4v7H619.3z"/>
	<path class="st3" d="M624,259.9v-8.2h2.8c0.6,0,1.1,0.1,1.5,0.3c0.4,0.2,0.8,0.5,1,0.8c0.2,0.4,0.4,0.8,0.4,1.4
		c0,0.6-0.1,1.1-0.4,1.4c-0.2,0.4-0.6,0.7-1,0.9l1.9,3.4h-1.5l-1.6-3.1c0,0,0,0,0,0c0,0,0,0,0,0h-1.6v3.1H624z M625.3,255.7h1.3
		c0.6,0,1-0.1,1.3-0.4c0.3-0.3,0.4-0.6,0.4-1c0-0.5-0.1-0.8-0.4-1c-0.3-0.2-0.7-0.4-1.3-0.4h-1.3V255.7z"/>
	<path class="st3" d="M633.7,253h0.4l-2.5,7h-1.3l2.9-8.2h1.3l2.9,8.2h-1.3L633.7,253z M635.7,257.8h-3.5v-1.1h3.5V257.8z"/>
	<path class="st3" d="M639.5,259.9v-7h-2.4v-1.2h6v1.2h-2.4v7H639.5z"/>
	<path class="st3" d="M644.2,259.9v-8.2h5.1v1.2h-3.8v2.1h3v1.2h-3v2.5h3.9v1.2H644.2z"/>
	<path class="st3" d="M654.3,260.1c-0.8,0-1.5-0.2-2.1-0.5c-0.6-0.4-1.1-0.8-1.4-1.5c-0.3-0.6-0.5-1.4-0.5-2.3
		c0-0.9,0.2-1.6,0.5-2.3c0.4-0.6,0.9-1.1,1.5-1.5c0.6-0.4,1.4-0.5,2.2-0.5c0.4,0,0.9,0,1.3,0.1s0.7,0.2,1,0.3l-0.1,1.2
		c-0.3-0.1-0.6-0.2-1-0.3c-0.4-0.1-0.7-0.1-1.1-0.1c-0.7,0-1.2,0.1-1.6,0.4c-0.4,0.3-0.7,0.6-0.9,1.1s-0.3,1-0.3,1.6
		c0,0.6,0.1,1.1,0.3,1.6c0.2,0.5,0.5,0.8,1,1.1c0.4,0.3,1,0.4,1.6,0.4c0.2,0,0.4,0,0.6,0c0.2,0,0.5-0.1,0.7-0.1v-1.8h-1.2v-1.1h2.5
		v3.7c-0.3,0.2-0.7,0.3-1.2,0.4C655.4,260,654.9,260.1,654.3,260.1z"/>
	<path class="st3" d="M660.4,259.9v-3.5l-2.9-4.8h1.4l2.4,4.1h-0.6l2.4-4.1h1.4l-2.9,4.8v3.5H660.4z"/>
</g>
<g>
	<path class="st3" d="M787.9,357l1.1-8.2h1.1l2.1,3.9l2.1-3.9h1.1l1.1,8.2h-1.3l-0.8-6.5l0.3,0.1l-2.4,4.6l-2.5-4.6l0.3-0.1
		l-0.8,6.5H787.9z"/>
	<path class="st3" d="M797.8,357v-8.2h5.1v1.2h-3.8v2.1h3v1.2h-3v2.5h3.9v1.2H797.8z"/>
	<path class="st3" d="M806,357v-7h-2.4v-1.2h6v1.2h-2.4v7H806z"/>
	<path class="st3" d="M812.7,350h0.4l-2.5,7h-1.3l2.9-8.2h1.3l2.9,8.2h-1.3L812.7,350z M814.6,354.9h-3.5v-1.1h3.5V354.9z"/>
	<path class="st3" d="M820.1,357v-8.2h3.1c0.8,0,1.5,0.2,2.1,0.5c0.6,0.3,1.1,0.8,1.4,1.4c0.3,0.6,0.5,1.4,0.5,2.2s-0.2,1.6-0.5,2.2
		c-0.3,0.6-0.8,1.1-1.4,1.4c-0.6,0.3-1.3,0.5-2.1,0.5H820.1z M821.3,355.8h1.8c0.6,0,1.1-0.1,1.5-0.4c0.4-0.2,0.7-0.6,0.9-1
		s0.3-1,0.3-1.6c0-0.6-0.1-1.1-0.3-1.6s-0.5-0.8-0.9-1c-0.4-0.2-0.9-0.4-1.5-0.4h-1.8V355.8z"/>
	<path class="st3" d="M831,350h0.4l-2.5,7h-1.3l2.9-8.2h1.3l2.9,8.2h-1.3L831,350z M832.9,354.9h-3.5v-1.1h3.5V354.9z"/>
	<path class="st3" d="M836.7,357v-7h-2.4v-1.2h6v1.2H838v7H836.7z"/>
	<path class="st3" d="M843.4,350h0.4l-2.5,7H840l2.9-8.2h1.3l2.9,8.2h-1.3L843.4,350z M845.3,354.9h-3.5v-1.1h3.5V354.9z"/>
</g>
<g>
	<path class="st3" d="M684.2,357.3v-8.2h3.1c0.8,0,1.5,0.2,2.1,0.5c0.6,0.3,1.1,0.8,1.4,1.4c0.3,0.6,0.5,1.4,0.5,2.2
		s-0.2,1.6-0.5,2.2c-0.3,0.6-0.8,1.1-1.4,1.4c-0.6,0.3-1.3,0.5-2.1,0.5H684.2z M685.5,356.2h1.8c0.6,0,1.1-0.1,1.5-0.4
		c0.4-0.2,0.7-0.6,0.9-1s0.3-1,0.3-1.6c0-0.6-0.1-1.1-0.3-1.6c-0.2-0.4-0.5-0.8-0.9-1c-0.4-0.2-0.9-0.4-1.5-0.4h-1.8V356.2z"/>
	<path class="st3" d="M695.1,350.3h0.4l-2.5,7h-1.3l2.9-8.2h1.3l2.9,8.2h-1.3L695.1,350.3z M697,355.2h-3.5v-1.1h3.5V355.2z"/>
	<path class="st3" d="M700.8,357.3v-7h-2.4v-1.2h6v1.2h-2.4v7H700.8z"/>
	<path class="st3" d="M707.5,350.3h0.4l-2.5,7h-1.3l2.9-8.2h1.3l2.9,8.2h-1.3L707.5,350.3z M709.4,355.2h-3.5v-1.1h3.5V355.2z"/>
</g>
<g>
	<path class="st7" d="M739,244.9v-10.3h3.8c1,0,1.9,0.2,2.6,0.6c0.8,0.4,1.4,1,1.8,1.8s0.7,1.7,0.7,2.8s-0.2,2-0.7,2.8
		s-1,1.4-1.8,1.8c-0.8,0.4-1.6,0.6-2.6,0.6H739z M740.9,243.2h2c0.7,0,1.2-0.1,1.7-0.4c0.4-0.3,0.8-0.7,1-1.2
		c0.2-0.5,0.3-1.1,0.3-1.9s-0.1-1.3-0.3-1.9c-0.2-0.5-0.6-0.9-1-1.2c-0.4-0.3-1-0.4-1.7-0.4h-2V243.2z"/>
	<path class="st7" d="M752.6,236.4h0.5l-3,8.4h-1.8l3.7-10.3h1.8l3.7,10.3h-1.8L752.6,236.4z M755,242.4h-4.3v-1.6h4.3V242.4z"/>
	<path class="st7" d="M759.8,244.9v-8.5h-2.9v-1.8h7.7v1.8h-2.9v8.5H759.8z"/>
	<path class="st7" d="M768.4,236.4h0.5l-3,8.4h-1.8l3.7-10.3h1.8l3.7,10.3h-1.8L768.4,236.4z M770.8,242.4h-4.3v-1.6h4.3V242.4z"/>
	<path class="st7" d="M724.7,262.5v-10.3h3.7c0.8,0,1.5,0.1,2,0.4c0.5,0.2,1,0.6,1.2,1.1s0.4,1.1,0.4,1.9c0,0.8-0.1,1.4-0.4,1.9
		c-0.3,0.5-0.7,0.9-1.2,1.1c-0.5,0.2-1.2,0.4-2,0.4h-1.8v3.6H724.7z M726.6,257.4h1.6c0.6,0,1.1-0.1,1.4-0.4
		c0.3-0.3,0.5-0.7,0.5-1.4c0-0.6-0.2-1.1-0.5-1.4c-0.3-0.3-0.8-0.4-1.5-0.4h-1.6V257.4z"/>
	<path class="st7" d="M733.4,262.5v-10.3h3.8c0.7,0,1.3,0.1,1.9,0.3c0.5,0.2,0.9,0.6,1.2,1s0.4,1,0.4,1.7c0,0.8-0.2,1.4-0.5,1.8
		c-0.3,0.4-0.7,0.8-1.3,1.1l2.3,4.3h-2.1l-2-3.8c0,0,0,0,0,0c0,0,0,0,0,0h-1.8v3.8H733.4z M735.3,257.1h1.4c0.8,0,1.3-0.2,1.6-0.5
		c0.3-0.3,0.5-0.7,0.5-1.2c0-0.5-0.1-0.9-0.4-1.2c-0.3-0.3-0.8-0.4-1.5-0.4h-1.5V257.1z"/>
	<path class="st7" d="M747.1,262.7c-1,0-1.9-0.2-2.6-0.7c-0.8-0.4-1.4-1.1-1.8-1.9c-0.4-0.8-0.7-1.7-0.7-2.8c0-1.1,0.2-2,0.7-2.8
		c0.4-0.8,1-1.4,1.8-1.9c0.8-0.4,1.6-0.7,2.6-0.7c1,0,1.9,0.2,2.6,0.7c0.8,0.4,1.4,1.1,1.8,1.9c0.4,0.8,0.7,1.7,0.7,2.8
		c0,1.1-0.2,2-0.7,2.8c-0.4,0.8-1,1.4-1.8,1.9C748.9,262.5,748,262.7,747.1,262.7z M747.1,260.9c0.7,0,1.3-0.2,1.7-0.5
		c0.5-0.3,0.8-0.7,1-1.3c0.2-0.5,0.3-1.1,0.3-1.8c0-0.7-0.1-1.3-0.3-1.8c-0.2-0.5-0.6-0.9-1-1.3c-0.5-0.3-1-0.5-1.7-0.5
		c-0.7,0-1.3,0.2-1.7,0.5c-0.5,0.3-0.8,0.7-1,1.3c-0.2,0.5-0.3,1.1-0.3,1.8c0,0.7,0.1,1.3,0.3,1.8c0.2,0.5,0.6,0.9,1,1.3
		C745.8,260.7,746.4,260.9,747.1,260.9z"/>
	<path class="st7" d="M753.8,262.5v-10.3h3.8c1,0,1.9,0.2,2.6,0.6c0.8,0.4,1.4,1,1.8,1.8c0.4,0.8,0.7,1.7,0.7,2.8
		c0,1.1-0.2,2-0.7,2.8c-0.4,0.8-1,1.4-1.8,1.8c-0.8,0.4-1.6,0.6-2.6,0.6H753.8z M755.7,260.8h2c0.7,0,1.2-0.1,1.7-0.4
		c0.4-0.3,0.8-0.7,1-1.2c0.2-0.5,0.3-1.1,0.3-1.9s-0.1-1.3-0.3-1.9c-0.2-0.5-0.6-0.9-1-1.2c-0.4-0.3-1-0.4-1.7-0.4h-2V260.8z"/>
	<path class="st7" d="M768.5,262.7c-1,0-1.8-0.2-2.4-0.6c-0.6-0.4-1.1-0.9-1.4-1.6c-0.3-0.7-0.5-1.5-0.5-2.4v-5.9h1.9v5.4
		c0,0.5,0,0.9,0.1,1.3c0.1,0.4,0.2,0.8,0.3,1c0.2,0.3,0.4,0.5,0.7,0.7c0.3,0.2,0.7,0.2,1.2,0.2c0.5,0,0.9-0.1,1.2-0.2
		c0.3-0.2,0.6-0.4,0.7-0.7c0.2-0.3,0.3-0.6,0.3-1c0.1-0.4,0.1-0.9,0.1-1.3v-5.4h1.9v5.9c0,0.9-0.2,1.7-0.5,2.4
		c-0.3,0.7-0.8,1.2-1.4,1.6S769.5,262.7,768.5,262.7z"/>
	<path class="st7" d="M779.6,262.7c-1,0-2-0.2-2.8-0.7s-1.4-1.1-1.9-1.9c-0.4-0.8-0.7-1.7-0.7-2.8c0-1.1,0.2-2,0.7-2.8
		c0.5-0.8,1.1-1.4,1.9-1.9c0.8-0.4,1.7-0.7,2.8-0.7c0.5,0,1,0.1,1.5,0.2c0.5,0.1,0.8,0.3,1.2,0.4l-0.2,1.8c-0.4-0.2-0.8-0.3-1.1-0.4
		c-0.4-0.1-0.8-0.2-1.3-0.2c-0.7,0-1.3,0.2-1.8,0.5c-0.5,0.3-0.8,0.7-1.1,1.3c-0.2,0.5-0.4,1.1-0.4,1.8c0,0.7,0.1,1.3,0.4,1.8
		c0.2,0.5,0.6,1,1.1,1.3c0.5,0.3,1.1,0.5,1.8,0.5c0.5,0,0.9-0.1,1.3-0.2c0.4-0.1,0.8-0.2,1.2-0.4l0.2,1.8c-0.4,0.2-0.8,0.3-1.3,0.4
		C780.5,262.6,780.1,262.7,779.6,262.7z"/>
	<path class="st7" d="M785.8,262.5V254h-2.9v-1.8h7.7v1.8h-2.9v8.5H785.8z"/>
</g>
<g>
	<path class="st3" d="M850.8,245.5v-8.2h2.8c0.8,0,1.3,0.2,1.7,0.5c0.4,0.3,0.6,0.8,0.6,1.5c0,0.5-0.1,0.9-0.3,1.2
		c-0.2,0.3-0.5,0.6-0.9,0.7l0.1-0.2c0.6,0.1,1.1,0.4,1.4,0.7c0.3,0.4,0.5,0.9,0.5,1.5c0,0.7-0.2,1.3-0.7,1.7
		c-0.5,0.4-1.1,0.6-1.9,0.6H850.8z M852.1,240.6h1.4c0.4,0,0.7-0.1,0.9-0.2c0.2-0.2,0.3-0.4,0.3-0.9c0-0.4-0.1-0.7-0.3-0.9
		c-0.2-0.2-0.5-0.2-0.9-0.2h-1.4V240.6z M852.1,244.4h1.8c0.4,0,0.8-0.1,1-0.3c0.3-0.2,0.4-0.5,0.4-1c0-0.5-0.1-0.8-0.4-1
		c-0.3-0.2-0.6-0.3-1-0.3h-1.8V244.4z"/>
	<path class="st3" d="M861.3,245.7c-0.8,0-1.4-0.1-1.9-0.4c-0.5-0.3-0.9-0.7-1.1-1.3c-0.2-0.5-0.4-1.2-0.4-2v-4.7h1.3v4.4
		c0,0.4,0,0.7,0.1,1.1c0.1,0.3,0.2,0.6,0.3,0.9c0.1,0.3,0.4,0.5,0.6,0.6c0.3,0.1,0.6,0.2,1.1,0.2c0.5,0,0.8-0.1,1.1-0.2
		c0.3-0.1,0.5-0.4,0.6-0.6c0.1-0.3,0.3-0.6,0.3-0.9c0.1-0.3,0.1-0.7,0.1-1.1v-4.4h1.3v4.7c0,0.8-0.1,1.4-0.4,2
		c-0.2,0.5-0.6,1-1.1,1.3C862.7,245.5,862.1,245.7,861.3,245.7z"/>
	<path class="st3" d="M868.8,245.7c-0.3,0-0.7,0-1-0.1c-0.3-0.1-0.7-0.1-1-0.2c-0.3-0.1-0.5-0.2-0.7-0.3l0.2-1.4
		c0.2,0.1,0.5,0.2,0.8,0.3c0.3,0.1,0.6,0.2,0.9,0.3c0.3,0.1,0.7,0.1,1,0.1c0.5,0,0.9-0.1,1.1-0.3c0.3-0.2,0.4-0.5,0.4-0.8
		c0-0.3-0.1-0.5-0.2-0.7c-0.1-0.2-0.4-0.3-0.7-0.5c-0.3-0.1-0.7-0.3-1.1-0.4c-0.4-0.1-0.8-0.3-1.2-0.5c-0.4-0.2-0.7-0.4-0.9-0.7
		c-0.2-0.3-0.3-0.7-0.3-1.2c0-0.4,0.1-0.8,0.3-1.2c0.2-0.3,0.6-0.6,1-0.8s1-0.3,1.6-0.3c0.5,0,1,0.1,1.5,0.2
		c0.5,0.1,0.8,0.2,1.1,0.4l-0.1,1.3c-0.5-0.2-0.9-0.4-1.3-0.5c-0.4-0.1-0.8-0.2-1.2-0.2c-0.5,0-0.8,0.1-1.1,0.2
		c-0.3,0.2-0.4,0.4-0.4,0.8c0,0.3,0.1,0.5,0.2,0.6c0.1,0.2,0.3,0.3,0.6,0.4c0.3,0.1,0.6,0.2,1,0.4c0.6,0.2,1.1,0.4,1.5,0.6
		c0.4,0.2,0.7,0.5,0.9,0.8c0.2,0.3,0.3,0.7,0.3,1.2c0,0.3-0.1,0.6-0.2,0.9c-0.1,0.3-0.3,0.5-0.5,0.7c-0.2,0.2-0.6,0.4-1,0.5
		C869.9,245.6,869.4,245.7,868.8,245.7z"/>
	<path class="st3" d="M873.3,245.5v-8.2h1.3v8.2H873.3z"/>
	<path class="st3" d="M876.4,245.5v-8.2h1.3l3.8,5.8v-5.8h1.3v8.2h-1.1l-4.1-6.1v6.1H876.4z"/>
	<path class="st3" d="M884.7,245.5v-8.2h5.1v1.2H886v2.1h3v1.2h-3v2.5h3.9v1.2H884.7z"/>
	<path class="st3" d="M893.7,245.7c-0.3,0-0.7,0-1-0.1c-0.3-0.1-0.7-0.1-1-0.2c-0.3-0.1-0.5-0.2-0.7-0.3l0.2-1.4
		c0.2,0.1,0.5,0.2,0.8,0.3c0.3,0.1,0.6,0.2,0.9,0.3c0.3,0.1,0.7,0.1,1,0.1c0.5,0,0.9-0.1,1.1-0.3c0.3-0.2,0.4-0.5,0.4-0.8
		c0-0.3-0.1-0.5-0.2-0.7c-0.1-0.2-0.4-0.3-0.7-0.5c-0.3-0.1-0.7-0.3-1.1-0.4c-0.4-0.1-0.8-0.3-1.2-0.5c-0.4-0.2-0.7-0.4-0.9-0.7
		c-0.2-0.3-0.3-0.7-0.3-1.2c0-0.4,0.1-0.8,0.3-1.2c0.2-0.3,0.6-0.6,1-0.8c0.4-0.2,1-0.3,1.6-0.3c0.5,0,1,0.1,1.5,0.2
		c0.5,0.1,0.8,0.2,1.1,0.4l-0.1,1.3c-0.5-0.2-0.9-0.4-1.3-0.5c-0.4-0.1-0.8-0.2-1.2-0.2c-0.5,0-0.8,0.1-1.1,0.2s-0.4,0.4-0.4,0.8
		c0,0.3,0.1,0.5,0.2,0.6c0.1,0.2,0.3,0.3,0.6,0.4c0.3,0.1,0.6,0.2,1,0.4c0.6,0.2,1.1,0.4,1.5,0.6c0.4,0.2,0.7,0.5,0.9,0.8
		c0.2,0.3,0.3,0.7,0.3,1.2c0,0.3-0.1,0.6-0.2,0.9c-0.1,0.3-0.3,0.5-0.5,0.7c-0.2,0.2-0.6,0.4-1,0.5
		C894.8,245.6,894.3,245.7,893.7,245.7z"/>
	<path class="st3" d="M900.5,245.7c-0.3,0-0.7,0-1-0.1c-0.3-0.1-0.7-0.1-1-0.2c-0.3-0.1-0.5-0.2-0.7-0.3l0.2-1.4
		c0.2,0.1,0.5,0.2,0.8,0.3c0.3,0.1,0.6,0.2,0.9,0.3c0.3,0.1,0.7,0.1,1,0.1c0.5,0,0.9-0.1,1.1-0.3c0.3-0.2,0.4-0.5,0.4-0.8
		c0-0.3-0.1-0.5-0.2-0.7c-0.1-0.2-0.4-0.3-0.7-0.5c-0.3-0.1-0.7-0.3-1.1-0.4c-0.4-0.1-0.8-0.3-1.2-0.5c-0.4-0.2-0.7-0.4-0.9-0.7
		c-0.2-0.3-0.3-0.7-0.3-1.2c0-0.4,0.1-0.8,0.3-1.2c0.2-0.3,0.6-0.6,1-0.8s1-0.3,1.6-0.3c0.5,0,1,0.1,1.5,0.2
		c0.5,0.1,0.8,0.2,1.1,0.4l-0.1,1.3c-0.5-0.2-0.9-0.4-1.3-0.5s-0.8-0.2-1.2-0.2c-0.5,0-0.8,0.1-1.1,0.2s-0.4,0.4-0.4,0.8
		c0,0.3,0.1,0.5,0.2,0.6c0.1,0.2,0.3,0.3,0.6,0.4c0.3,0.1,0.6,0.2,1,0.4c0.6,0.2,1.1,0.4,1.5,0.6c0.4,0.2,0.7,0.5,0.9,0.8
		c0.2,0.3,0.3,0.7,0.3,1.2c0,0.3-0.1,0.6-0.2,0.9c-0.1,0.3-0.3,0.5-0.5,0.7c-0.2,0.2-0.6,0.4-1,0.5
		C901.6,245.6,901.1,245.7,900.5,245.7z"/>
	<path class="st3" d="M850.2,259.8c-0.8,0-1.5-0.2-2.1-0.5c-0.6-0.4-1.1-0.8-1.4-1.5c-0.3-0.6-0.5-1.4-0.5-2.3s0.2-1.6,0.5-2.3
		c0.3-0.6,0.8-1.1,1.4-1.5c0.6-0.4,1.3-0.5,2.1-0.5c0.8,0,1.5,0.2,2.1,0.5c0.6,0.4,1.1,0.8,1.4,1.5c0.3,0.6,0.5,1.4,0.5,2.3
		s-0.2,1.6-0.5,2.3c-0.3,0.6-0.8,1.1-1.4,1.5C851.6,259.6,850.9,259.8,850.2,259.8z M850.2,258.5c0.6,0,1.1-0.1,1.5-0.4
		c0.4-0.3,0.7-0.6,0.9-1.1c0.2-0.5,0.3-1,0.3-1.5s-0.1-1.1-0.3-1.5c-0.2-0.5-0.5-0.8-0.9-1.1s-0.9-0.4-1.5-0.4
		c-0.6,0-1.1,0.1-1.5,0.4s-0.7,0.6-0.9,1.1c-0.2,0.5-0.3,1-0.3,1.5s0.1,1.1,0.3,1.5c0.2,0.5,0.5,0.8,0.9,1.1
		C849.1,258.4,849.6,258.5,850.2,258.5z"/>
	<path class="st3" d="M858.9,259.8c-0.8,0-1.4-0.1-1.9-0.4c-0.5-0.3-0.9-0.7-1.1-1.3c-0.2-0.5-0.4-1.2-0.4-2v-4.7h1.3v4.4
		c0,0.4,0,0.7,0.1,1.1c0.1,0.3,0.2,0.6,0.3,0.9c0.1,0.3,0.4,0.5,0.6,0.6c0.3,0.1,0.6,0.2,1.1,0.2c0.5,0,0.8-0.1,1.1-0.2
		c0.3-0.1,0.5-0.4,0.6-0.6s0.3-0.6,0.3-0.9c0.1-0.3,0.1-0.7,0.1-1.1v-4.4h1.3v4.7c0,0.8-0.1,1.4-0.4,2c-0.2,0.5-0.6,1-1.1,1.3
		C860.3,259.6,859.7,259.8,858.9,259.8z"/>
	<path class="st3" d="M865.7,259.6v-7h-2.4v-1.2h6v1.2H867v7H865.7z"/>
	<path class="st3" d="M873.9,259.8c-0.8,0-1.5-0.2-2.2-0.5c-0.6-0.4-1.1-0.8-1.5-1.5c-0.4-0.6-0.5-1.4-0.5-2.3s0.2-1.6,0.5-2.3
		c0.4-0.6,0.9-1.1,1.5-1.5c0.6-0.4,1.4-0.5,2.2-0.5c0.4,0,0.8,0,1.2,0.1c0.4,0.1,0.7,0.2,1,0.3l-0.1,1.2c-0.3-0.1-0.6-0.3-0.9-0.4
		c-0.3-0.1-0.7-0.1-1.1-0.1c-0.6,0-1.1,0.1-1.6,0.4c-0.4,0.3-0.7,0.6-0.9,1.1c-0.2,0.5-0.3,1-0.3,1.6c0,0.6,0.1,1.1,0.3,1.6
		c0.2,0.5,0.5,0.8,0.9,1.1c0.4,0.3,0.9,0.4,1.5,0.4c0.4,0,0.8,0,1.1-0.1c0.3-0.1,0.7-0.2,1-0.4l0.1,1.2c-0.3,0.1-0.6,0.3-1,0.3
		C874.7,259.7,874.3,259.8,873.9,259.8z"/>
	<path class="st3" d="M880.8,259.8c-0.8,0-1.5-0.2-2.1-0.5c-0.6-0.4-1.1-0.8-1.4-1.5c-0.3-0.6-0.5-1.4-0.5-2.3s0.2-1.6,0.5-2.3
		c0.3-0.6,0.8-1.1,1.4-1.5c0.6-0.4,1.3-0.5,2.1-0.5c0.8,0,1.5,0.2,2.1,0.5c0.6,0.4,1.1,0.8,1.4,1.5c0.3,0.6,0.5,1.4,0.5,2.3
		s-0.2,1.6-0.5,2.3c-0.3,0.6-0.8,1.1-1.4,1.5C882.3,259.6,881.6,259.8,880.8,259.8z M880.8,258.5c0.6,0,1.1-0.1,1.5-0.4
		c0.4-0.3,0.7-0.6,0.9-1.1c0.2-0.5,0.3-1,0.3-1.5s-0.1-1.1-0.3-1.5c-0.2-0.5-0.5-0.8-0.9-1.1s-0.9-0.4-1.5-0.4
		c-0.6,0-1.1,0.1-1.5,0.4s-0.7,0.6-0.9,1.1c-0.2,0.5-0.3,1-0.3,1.5s0.1,1.1,0.3,1.5c0.2,0.5,0.5,0.8,0.9,1.1
		C879.7,258.4,880.2,258.5,880.8,258.5z"/>
	<path class="st3" d="M885.8,259.6l1.1-8.2h1.1l2.1,3.9l2.1-3.9h1.1l1.1,8.2H893l-0.8-6.5l0.3,0.1l-2.4,4.6l-2.5-4.6l0.3-0.1
		l-0.8,6.5H885.8z"/>
	<path class="st3" d="M895.8,259.6v-8.2h5.1v1.2h-3.8v2.1h3v1.2h-3v2.5h3.9v1.2H895.8z"/>
	<path class="st3" d="M904.7,259.8c-0.3,0-0.7,0-1-0.1c-0.3-0.1-0.7-0.1-1-0.2c-0.3-0.1-0.5-0.2-0.7-0.3l0.2-1.4
		c0.2,0.1,0.5,0.2,0.8,0.3c0.3,0.1,0.6,0.2,0.9,0.3c0.3,0.1,0.7,0.1,1,0.1c0.5,0,0.9-0.1,1.1-0.3c0.3-0.2,0.4-0.5,0.4-0.8
		c0-0.3-0.1-0.5-0.2-0.7c-0.1-0.2-0.4-0.3-0.7-0.5c-0.3-0.1-0.7-0.3-1.1-0.4c-0.4-0.1-0.8-0.3-1.2-0.5c-0.4-0.2-0.7-0.4-0.9-0.7
		c-0.2-0.3-0.3-0.7-0.3-1.2c0-0.4,0.1-0.8,0.3-1.2c0.2-0.3,0.6-0.6,1-0.8s1-0.3,1.6-0.3c0.5,0,1,0.1,1.5,0.2
		c0.5,0.1,0.8,0.2,1.1,0.4l-0.1,1.3c-0.5-0.2-0.9-0.4-1.3-0.5c-0.4-0.1-0.8-0.2-1.2-0.2c-0.5,0-0.8,0.1-1.1,0.2s-0.4,0.4-0.4,0.8
		c0,0.3,0.1,0.5,0.2,0.6c0.1,0.2,0.3,0.3,0.6,0.4c0.3,0.1,0.6,0.2,1,0.4c0.6,0.2,1.1,0.4,1.5,0.6c0.4,0.2,0.7,0.5,0.9,0.8
		c0.2,0.3,0.3,0.7,0.3,1.2c0,0.3-0.1,0.6-0.2,0.9c-0.1,0.3-0.3,0.5-0.5,0.7c-0.2,0.2-0.6,0.4-1,0.5
		C905.8,259.7,905.3,259.8,904.7,259.8z"/>
</g>
<g>
	<g>
		<path class="st3" d="M12.7,244.4v-11.9h4.5c1.2,0,2,0.2,2.6,0.7c0.6,0.5,0.8,1.2,0.8,2.1c0,0.7-0.2,1.3-0.5,1.7
			c-0.3,0.5-0.8,0.8-1.4,1v-0.4c1,0.2,1.7,0.6,2.1,1.1c0.5,0.5,0.7,1.3,0.7,2.2c0,1.1-0.3,1.9-1,2.5c-0.7,0.6-1.6,0.9-2.8,0.9H12.7z
			 M14.9,237.2h2c0.5,0,0.9-0.1,1.2-0.3c0.3-0.2,0.4-0.6,0.4-1c0-0.5-0.1-0.8-0.4-1.1c-0.3-0.2-0.7-0.3-1.2-0.3h-2V237.2z
			 M14.9,242.5h2.5c0.6,0,1.1-0.1,1.4-0.4c0.4-0.2,0.5-0.7,0.5-1.3c0-0.6-0.2-1.1-0.6-1.3c-0.4-0.2-0.8-0.3-1.4-0.3h-2.5V242.5z"/>
		<path class="st3" d="M28.2,244.6c-1.1,0-2-0.2-2.8-0.7c-0.7-0.4-1.3-1.1-1.6-1.9c-0.4-0.8-0.5-1.7-0.5-2.8v-6.8h2.2v6.2
			c0,0.6,0,1.1,0.1,1.6c0.1,0.5,0.2,0.9,0.4,1.2c0.2,0.3,0.5,0.6,0.8,0.8c0.4,0.2,0.8,0.3,1.4,0.3s1-0.1,1.4-0.3
			c0.4-0.2,0.6-0.4,0.8-0.8c0.2-0.3,0.3-0.7,0.4-1.2c0.1-0.5,0.1-1,0.1-1.6v-6.2h2.2v6.8c0,1.1-0.2,2-0.5,2.8
			c-0.4,0.8-0.9,1.4-1.6,1.9C30.2,244.4,29.3,244.6,28.2,244.6z"/>
		<path class="st3" d="M39,244.6c-0.5,0-1,0-1.5-0.1c-0.5-0.1-1-0.2-1.4-0.3c-0.4-0.1-0.8-0.3-1-0.4l0.3-2.3
			c0.4,0.2,0.8,0.4,1.2,0.5c0.4,0.2,0.9,0.3,1.3,0.4c0.5,0.1,0.9,0.2,1.4,0.2c0.6,0,1-0.1,1.4-0.3c0.4-0.2,0.5-0.6,0.5-1
			c0-0.4-0.1-0.6-0.3-0.9c-0.2-0.2-0.5-0.4-0.9-0.6c-0.4-0.2-0.9-0.4-1.6-0.6c-0.6-0.2-1.2-0.5-1.7-0.8c-0.5-0.3-0.9-0.6-1.2-1.1
			c-0.3-0.4-0.4-1-0.4-1.7c0-0.7,0.2-1.2,0.5-1.8c0.3-0.5,0.8-0.9,1.5-1.2c0.6-0.3,1.4-0.4,2.4-0.4c0.7,0,1.4,0.1,2.1,0.2
			c0.7,0.2,1.2,0.3,1.7,0.5l-0.2,2.2c-0.7-0.3-1.3-0.5-1.9-0.7c-0.6-0.2-1.2-0.2-1.8-0.2c-0.6,0-1.1,0.1-1.5,0.3
			c-0.3,0.2-0.5,0.5-0.5,0.9c0,0.3,0.1,0.6,0.3,0.8c0.2,0.2,0.5,0.4,0.8,0.5c0.4,0.1,0.8,0.3,1.3,0.5c0.9,0.3,1.6,0.6,2.2,0.9
			s1,0.7,1.3,1.2c0.3,0.5,0.4,1,0.4,1.7c0,0.3-0.1,0.7-0.2,1.1c-0.1,0.4-0.3,0.8-0.6,1.1c-0.3,0.4-0.8,0.7-1.4,0.9
			C40.8,244.5,40,244.6,39,244.6z"/>
		<path class="st3" d="M45.5,244.4v-11.9h2.2v11.9H45.5z"/>
		<path class="st3" d="M50.3,244.4v-11.9h2.1l5.1,7.7v-7.7h2.2v11.9h-1.8l-5.4-8.2v8.2H50.3z"/>
		<path class="st3" d="M62.3,244.4v-11.9h7.6v2.1h-5.4v2.5h4.2v2.1h-4.2v3h5.6v2.1H62.3z"/>
		<path class="st3" d="M75.4,244.6c-0.5,0-1,0-1.5-0.1c-0.5-0.1-1-0.2-1.4-0.3c-0.4-0.1-0.8-0.3-1-0.4l0.3-2.3
			c0.4,0.2,0.8,0.4,1.2,0.5c0.4,0.2,0.9,0.3,1.3,0.4c0.5,0.1,0.9,0.2,1.4,0.2c0.6,0,1-0.1,1.4-0.3c0.4-0.2,0.5-0.6,0.5-1
			c0-0.4-0.1-0.6-0.3-0.9c-0.2-0.2-0.5-0.4-0.9-0.6c-0.4-0.2-0.9-0.4-1.6-0.6c-0.6-0.2-1.2-0.5-1.7-0.8c-0.5-0.3-0.9-0.6-1.2-1.1
			s-0.4-1-0.4-1.7c0-0.7,0.2-1.2,0.5-1.8c0.3-0.5,0.8-0.9,1.5-1.2c0.6-0.3,1.4-0.4,2.4-0.4c0.7,0,1.4,0.1,2.1,0.2
			c0.7,0.2,1.2,0.3,1.7,0.5l-0.2,2.2c-0.7-0.3-1.3-0.5-1.9-0.7c-0.6-0.2-1.2-0.2-1.8-0.2c-0.6,0-1.1,0.1-1.5,0.3
			c-0.3,0.2-0.5,0.5-0.5,0.9c0,0.3,0.1,0.6,0.3,0.8c0.2,0.2,0.5,0.4,0.8,0.5c0.4,0.1,0.8,0.3,1.3,0.5c0.9,0.3,1.6,0.6,2.2,0.9
			c0.6,0.3,1,0.7,1.3,1.2c0.3,0.5,0.4,1,0.4,1.7c0,0.3-0.1,0.7-0.2,1.1c-0.1,0.4-0.3,0.8-0.6,1.1c-0.3,0.4-0.8,0.7-1.4,0.9
			C77.2,244.5,76.4,244.6,75.4,244.6z"/>
		<path class="st3" d="M85.3,244.6c-0.5,0-1,0-1.5-0.1c-0.5-0.1-1-0.2-1.4-0.3c-0.4-0.1-0.8-0.3-1-0.4l0.3-2.3
			c0.4,0.2,0.8,0.4,1.2,0.5c0.4,0.2,0.9,0.3,1.3,0.4c0.5,0.1,0.9,0.2,1.4,0.2c0.6,0,1-0.1,1.4-0.3c0.4-0.2,0.5-0.6,0.5-1
			c0-0.4-0.1-0.6-0.3-0.9c-0.2-0.2-0.5-0.4-0.9-0.6c-0.4-0.2-0.9-0.4-1.6-0.6c-0.6-0.2-1.2-0.5-1.7-0.8c-0.5-0.3-0.9-0.6-1.2-1.1
			s-0.4-1-0.4-1.7c0-0.7,0.2-1.2,0.5-1.8c0.3-0.5,0.8-0.9,1.5-1.2c0.6-0.3,1.4-0.4,2.4-0.4c0.7,0,1.4,0.1,2.1,0.2
			c0.7,0.2,1.2,0.3,1.7,0.5l-0.2,2.2c-0.7-0.3-1.3-0.5-1.9-0.7c-0.6-0.2-1.2-0.2-1.8-0.2c-0.6,0-1.1,0.1-1.5,0.3
			c-0.3,0.2-0.5,0.5-0.5,0.9c0,0.3,0.1,0.6,0.3,0.8c0.2,0.2,0.5,0.4,0.8,0.5c0.4,0.1,0.8,0.3,1.3,0.5c0.9,0.3,1.6,0.6,2.2,0.9
			s1,0.7,1.3,1.2c0.3,0.5,0.4,1,0.4,1.7c0,0.3-0.1,0.7-0.2,1.1c-0.1,0.4-0.3,0.8-0.6,1.1c-0.3,0.4-0.8,0.7-1.4,0.9
			C87.1,244.5,86.3,244.6,85.3,244.6z"/>
	</g>
	<g>
		<path class="st3" d="M12.7,264.8v-11.9h7.6v2.1h-5.4v2.5h4.2v2.1h-4.2v3h5.6v2.1H12.7z"/>
		<path class="st3" d="M22.4,264.8v-11.9h2.1l5.1,7.7v-7.7h2.2v11.9H30l-5.4-8.2v8.2H22.4z"/>
		<path class="st3" d="M39.7,265.1c-1.3,0-2.3-0.3-3.2-0.8c-0.9-0.5-1.6-1.2-2.1-2.2c-0.5-0.9-0.7-2-0.7-3.3c0-1.2,0.3-2.3,0.8-3.3
			c0.5-0.9,1.3-1.6,2.2-2.2c0.9-0.5,2-0.8,3.2-0.8c0.6,0,1.2,0.1,1.8,0.2c0.6,0.1,1.1,0.3,1.5,0.5l-0.2,2.1
			c-0.4-0.2-0.9-0.4-1.4-0.5c-0.5-0.1-1.1-0.2-1.6-0.2c-0.9,0-1.6,0.2-2.2,0.5c-0.6,0.4-1,0.8-1.3,1.4c-0.3,0.6-0.4,1.3-0.4,2.1
			c0,0.8,0.1,1.5,0.4,2.2s0.7,1.1,1.2,1.5c0.6,0.4,1.2,0.5,2.1,0.5c0.2,0,0.5,0,0.8-0.1c0.3,0,0.6-0.1,0.8-0.1v-2.1h-1.6v-1.8h3.8
			v5.3c-0.4,0.2-1,0.5-1.6,0.6C41.3,265,40.5,265.1,39.7,265.1z"/>
		<path class="st3" d="M49.4,255H50l-3.4,9.8h-2.1l4.2-11.9h2.1l4.2,11.9h-2.1L49.4,255z M52.2,262h-5v-1.9h5V262z"/>
		<path class="st3" d="M61.5,265.1c-1.3,0-2.3-0.3-3.2-0.8c-0.9-0.5-1.6-1.2-2.1-2.2c-0.5-0.9-0.7-2-0.7-3.3c0-1.2,0.3-2.3,0.8-3.3
			c0.5-0.9,1.3-1.6,2.2-2.2c0.9-0.5,2-0.8,3.2-0.8c0.6,0,1.2,0.1,1.8,0.2c0.6,0.1,1.1,0.3,1.5,0.5l-0.2,2.1
			c-0.4-0.2-0.9-0.4-1.4-0.5c-0.5-0.1-1.1-0.2-1.6-0.2c-0.9,0-1.6,0.2-2.2,0.5c-0.6,0.4-1,0.8-1.3,1.4c-0.3,0.6-0.4,1.3-0.4,2.1
			c0,0.8,0.1,1.5,0.4,2.2s0.7,1.1,1.2,1.5c0.6,0.4,1.2,0.5,2.1,0.5c0.2,0,0.5,0,0.8-0.1c0.3,0,0.6-0.1,0.8-0.1v-2.1h-1.6v-1.8h3.8
			v5.3c-0.4,0.2-1,0.5-1.6,0.6C63,265,62.3,265.1,61.5,265.1z"/>
		<path class="st3" d="M67.5,264.8v-11.9h7.6v2.1h-5.4v2.5h4.2v2.1h-4.2v3h5.6v2.1H67.5z"/>
		<path class="st3" d="M76.6,264.8l1.7-11.9H80l2.9,5.4l2.9-5.4h1.8l1.7,11.9H87l-1.1-9l0.6,0.1l-3.5,6.3l-3.5-6.3l0.6-0.1l-1.1,8.9
			H76.6z"/>
		<path class="st3" d="M91.2,264.8v-11.9h7.6v2.1h-5.4v2.5h4.2v2.1h-4.2v3H99v2.1H91.2z"/>
		<path class="st3" d="M100.9,264.8v-11.9h2.1l5.1,7.7v-7.7h2.2v11.9h-1.8l-5.4-8.2v8.2H100.9z"/>
		<path class="st3" d="M115.2,264.8V255h-3.4v-2.1h8.9v2.1h-3.4v9.8H115.2z"/>
	</g>
</g>
<polygon class="st3" points="494.3,318.4 178.6,318.4 191,247.6 494.3,247.6 "/>
<g>
	<path class="st7" d="M261.8,290.3v-14.7h5.5c1.4,0,2.6,0.3,3.7,0.9c1.1,0.6,1.9,1.4,2.6,2.5c0.6,1.1,0.9,2.4,0.9,3.9
		c0,1.5-0.3,2.9-0.9,3.9c-0.6,1.1-1.5,1.9-2.6,2.5c-1.1,0.6-2.3,0.9-3.7,0.9H261.8z M264.5,287.9h2.8c0.9,0,1.7-0.2,2.4-0.6
		c0.6-0.4,1.1-1,1.4-1.7c0.3-0.7,0.5-1.6,0.5-2.6s-0.2-1.9-0.5-2.6c-0.3-0.7-0.8-1.3-1.4-1.7c-0.6-0.4-1.4-0.6-2.4-0.6h-2.8V287.9z"
		/>
	<path class="st7" d="M281.3,278.3h0.7l-4.2,12.1h-2.6l5.2-14.7h2.5l5.2,14.7h-2.6L281.3,278.3z M284.7,286.8h-6.1v-2.3h6.1V286.8z"
		/>
	<path class="st7" d="M291.5,290.3v-12.1h-4.1v-2.6h11v2.6h-4.1v12.1H291.5z"/>
	<path class="st7" d="M303.8,278.3h0.7l-4.2,12.1h-2.6l5.2-14.7h2.5l5.2,14.7H308L303.8,278.3z M307.2,286.8H301v-2.3h6.1V286.8z"/>
	<path class="st7" d="M317,290.3v-14.7h5.2c1.1,0,2.1,0.2,2.8,0.5c0.8,0.3,1.4,0.9,1.8,1.6c0.4,0.7,0.6,1.6,0.6,2.7
		c0,1.1-0.2,2-0.6,2.7c-0.4,0.7-1,1.2-1.7,1.6c-0.8,0.3-1.7,0.5-2.8,0.5h-2.6v5.1H317z M319.7,283h2.3c0.9,0,1.6-0.2,2.1-0.6
		c0.5-0.4,0.7-1.1,0.7-1.9s-0.2-1.5-0.7-1.9c-0.5-0.4-1.2-0.6-2.1-0.6h-2.2V283z"/>
	<path class="st7" d="M329.5,290.3v-14.7h5.4c1,0,1.9,0.2,2.7,0.5c0.8,0.3,1.3,0.8,1.8,1.5s0.6,1.5,0.6,2.5c0,1.1-0.2,1.9-0.7,2.6
		c-0.5,0.6-1.1,1.1-1.8,1.5l3.3,6.2h-3l-2.8-5.4c0,0,0,0-0.1,0c0,0,0,0-0.1,0h-2.6v5.4H329.5z M332.1,282.6h2c1.1,0,1.9-0.2,2.3-0.7
		c0.4-0.5,0.6-1,0.6-1.7c0-0.7-0.2-1.3-0.6-1.7c-0.4-0.4-1.2-0.6-2.2-0.6h-2.1V282.6z"/>
	<path class="st7" d="M348.9,290.6c-1.4,0-2.6-0.3-3.7-0.9c-1.1-0.6-1.9-1.5-2.6-2.7c-0.6-1.1-0.9-2.5-0.9-4c0-1.5,0.3-2.9,0.9-4
		c0.6-1.1,1.5-2,2.6-2.7c1.1-0.6,2.3-0.9,3.7-0.9c1.4,0,2.6,0.3,3.7,0.9s1.9,1.5,2.6,2.7c0.6,1.1,0.9,2.5,0.9,4c0,1.5-0.3,2.9-0.9,4
		c-0.6,1.1-1.5,2-2.6,2.7C351.6,290.3,350.3,290.6,348.9,290.6z M348.9,288c1,0,1.8-0.2,2.5-0.6c0.7-0.4,1.1-1,1.5-1.8
		c0.3-0.8,0.5-1.6,0.5-2.6s-0.2-1.8-0.5-2.6c-0.3-0.8-0.8-1.4-1.5-1.8c-0.7-0.4-1.5-0.6-2.5-0.6c-1,0-1.8,0.2-2.5,0.6
		c-0.7,0.4-1.1,1-1.5,1.8c-0.3,0.8-0.5,1.6-0.5,2.6s0.2,1.8,0.5,2.6c0.3,0.8,0.8,1.4,1.5,1.8C347.1,287.8,348,288,348.9,288z"/>
	<path class="st7" d="M358.5,290.3v-14.7h5.5c1.4,0,2.6,0.3,3.7,0.9c1.1,0.6,1.9,1.4,2.6,2.5c0.6,1.1,0.9,2.4,0.9,3.9
		c0,1.5-0.3,2.9-0.9,3.9c-0.6,1.1-1.5,1.9-2.6,2.5c-1.1,0.6-2.3,0.9-3.7,0.9H358.5z M361.2,287.9h2.8c0.9,0,1.7-0.2,2.4-0.6
		c0.6-0.4,1.1-1,1.4-1.7c0.3-0.7,0.5-1.6,0.5-2.6s-0.2-1.9-0.5-2.6c-0.3-0.7-0.8-1.3-1.4-1.7c-0.6-0.4-1.4-0.6-2.4-0.6h-2.8V287.9z"
		/>
	<path class="st7" d="M379.5,290.6c-1.4,0-2.5-0.3-3.4-0.8c-0.9-0.5-1.6-1.3-2-2.3c-0.4-1-0.7-2.1-0.7-3.5v-8.4h2.7v7.7
		c0,0.7,0,1.3,0.1,1.9c0.1,0.6,0.3,1.1,0.5,1.5c0.2,0.4,0.6,0.7,1,1c0.4,0.2,1,0.3,1.7,0.3s1.3-0.1,1.7-0.3c0.4-0.2,0.8-0.5,1-1
		c0.2-0.4,0.4-0.9,0.5-1.5c0.1-0.6,0.1-1.2,0.1-1.9v-7.7h2.7v8.4c0,1.3-0.2,2.5-0.7,3.5c-0.4,1-1.1,1.7-2,2.3
		C382,290.3,380.9,290.6,379.5,290.6z"/>
	<path class="st7" d="M395.3,290.6c-1.5,0-2.8-0.3-3.9-0.9c-1.1-0.6-2-1.5-2.6-2.7c-0.6-1.1-0.9-2.5-0.9-4c0-1.5,0.3-2.9,1-4
		c0.7-1.1,1.6-2,2.7-2.7c1.1-0.6,2.5-0.9,3.9-0.9c0.8,0,1.5,0.1,2.1,0.2c0.6,0.2,1.2,0.4,1.7,0.6l-0.3,2.6c-0.5-0.2-1.1-0.4-1.6-0.6
		c-0.6-0.2-1.2-0.2-1.9-0.2c-1,0-1.9,0.2-2.6,0.6c-0.7,0.4-1.2,1-1.6,1.8c-0.3,0.8-0.5,1.6-0.5,2.6c0,1,0.2,1.8,0.5,2.6
		c0.3,0.8,0.9,1.4,1.5,1.8c0.7,0.4,1.5,0.6,2.5,0.6c0.7,0,1.3-0.1,1.9-0.2c0.6-0.2,1.1-0.4,1.7-0.6l0.3,2.6
		c-0.6,0.3-1.2,0.5-1.8,0.6C396.7,290.5,396,290.6,395.3,290.6z"/>
	<path class="st7" d="M404.3,290.3v-12.1h-4.1v-2.6h11v2.6h-4.1v12.1H404.3z"/>
</g>
<polygon class="st3" points="494.3,399.2 130,399.2 176.2,328.3 494.3,328.3 "/>
<g>
	<path class="st7" d="M273,358.5v-14.7h5.5c1.4,0,2.6,0.3,3.7,0.9c1.1,0.6,1.9,1.4,2.6,2.5c0.6,1.1,0.9,2.4,0.9,3.9
		c0,1.5-0.3,2.9-0.9,3.9c-0.6,1.1-1.5,1.9-2.6,2.5c-1.1,0.6-2.3,0.9-3.7,0.9H273z M275.7,356.1h2.8c1,0,1.7-0.2,2.4-0.6
		c0.6-0.4,1.1-1,1.4-1.7c0.3-0.7,0.5-1.6,0.5-2.6s-0.2-1.9-0.5-2.6c-0.3-0.7-0.8-1.3-1.4-1.7c-0.6-0.4-1.4-0.6-2.4-0.6h-2.8V356.1z"
		/>
	<path class="st7" d="M292.5,346.5h0.7l-4.2,12.1h-2.6l5.2-14.7h2.5l5.2,14.7h-2.6L292.5,346.5z M295.9,355h-6.1v-2.3h6.1V355z"/>
	<path class="st7" d="M302.7,358.5v-12.1h-4.1v-2.6h11v2.6h-4.1v12.1H302.7z"/>
	<path class="st7" d="M315,346.5h0.7l-4.2,12.1h-2.6l5.2-14.7h2.5l5.2,14.7h-2.6L315,346.5z M318.4,355h-6.1v-2.3h6.1V355z"/>
	<path class="st7" d="M323.5,358.5v-14.7h9v2.6h-6.4v3.1h4.9v2.6h-4.9v6.4H323.5z"/>
	<path class="st7" d="M334.5,358.5v-14.7h5.4c1,0,1.9,0.2,2.7,0.5c0.8,0.3,1.3,0.8,1.8,1.5c0.4,0.7,0.6,1.5,0.6,2.5
		c0,1.1-0.2,1.9-0.7,2.6c-0.5,0.6-1.1,1.1-1.8,1.5l3.3,6.2h-3l-2.8-5.4c0,0,0,0-0.1,0c0,0,0,0-0.1,0h-2.6v5.4H334.5z M337.2,350.8h2
		c1.1,0,1.9-0.2,2.3-0.7c0.4-0.5,0.6-1,0.6-1.7c0-0.7-0.2-1.3-0.6-1.7c-0.4-0.4-1.2-0.6-2.2-0.6h-2.1V350.8z"/>
	<path class="st7" d="M352.2,346.5h0.7l-4.2,12.1H346l5.2-14.7h2.5l5.2,14.7h-2.6L352.2,346.5z M355.6,355h-6.1v-2.3h6.1V355z"/>
	<path class="st7" d="M360,358.5l2-14.7h2.2l3.6,6.7l3.6-6.7h2.2l2,14.7h-2.8l-1.4-11l0.7,0.1l-4.3,7.8l-4.4-7.8l0.7-0.1l-1.4,11
		H360z"/>
	<path class="st7" d="M378,358.5v-14.7h9.4v2.6h-6.6v3.1h5.2v2.6h-5.2v3.8h6.9v2.6H378z"/>
	<path class="st7" d="M394.2,358.8c-0.6,0-1.2-0.1-1.8-0.2c-0.6-0.1-1.2-0.3-1.7-0.4c-0.5-0.2-1-0.3-1.3-0.5l0.3-2.9
		c0.5,0.2,1,0.5,1.5,0.7c0.5,0.2,1.1,0.4,1.6,0.5c0.6,0.1,1.1,0.2,1.7,0.2c0.7,0,1.3-0.1,1.7-0.4c0.4-0.3,0.6-0.7,0.6-1.3
		c0-0.4-0.1-0.8-0.4-1.1c-0.2-0.3-0.6-0.5-1.1-0.7c-0.5-0.2-1.1-0.5-1.9-0.7c-0.8-0.3-1.5-0.6-2.1-0.9c-0.6-0.3-1.1-0.8-1.5-1.3
		s-0.5-1.2-0.5-2c0-0.8,0.2-1.5,0.6-2.2c0.4-0.6,1-1.1,1.8-1.5c0.8-0.4,1.8-0.5,3-0.5c0.9,0,1.7,0.1,2.6,0.3
		c0.8,0.2,1.5,0.4,2.1,0.6l-0.3,2.7c-0.8-0.4-1.6-0.7-2.3-0.8c-0.7-0.2-1.5-0.3-2.2-0.3c-0.8,0-1.4,0.1-1.8,0.4
		c-0.4,0.3-0.6,0.6-0.6,1.2c0,0.4,0.1,0.7,0.4,1c0.2,0.3,0.6,0.5,1,0.6c0.4,0.2,1,0.4,1.6,0.6c1.1,0.3,2,0.7,2.7,1.1
		c0.7,0.4,1.3,0.9,1.6,1.5c0.4,0.6,0.6,1.3,0.6,2.1c0,0.4-0.1,0.9-0.2,1.4c-0.1,0.5-0.4,1-0.8,1.4s-1,0.8-1.7,1.1
		C396.4,358.7,395.4,358.8,394.2,358.8z"/>
	<path class="st7" d="M288.5,383.7V369h5.5c1.4,0,2.6,0.3,3.7,0.9c1.1,0.6,1.9,1.4,2.6,2.5c0.6,1.1,0.9,2.4,0.9,3.9
		c0,1.5-0.3,2.9-0.9,3.9c-0.6,1.1-1.5,1.9-2.6,2.5c-1.1,0.6-2.3,0.9-3.7,0.9H288.5z M291.1,381.3h2.8c0.9,0,1.7-0.2,2.4-0.6
		c0.6-0.4,1.1-1,1.4-1.7c0.3-0.7,0.5-1.6,0.5-2.6s-0.2-1.9-0.5-2.6c-0.3-0.7-0.8-1.3-1.4-1.7c-0.6-0.4-1.4-0.6-2.4-0.6h-2.8V381.3z"
		/>
	<path class="st7" d="M307.9,371.6h0.7l-4.2,12.1h-2.6L307,369h2.5l5.2,14.7h-2.6L307.9,371.6z M311.3,380.2h-6.1v-2.3h6.1V380.2z"
		/>
	<path class="st7" d="M318.1,383.7v-12.1H314V369h11v2.6h-4.1v12.1H318.1z"/>
	<path class="st7" d="M330.4,371.6h0.7l-4.2,12.1h-2.6l5.2-14.7h2.5l5.2,14.7h-2.6L330.4,371.6z M333.8,380.2h-6.1v-2.3h6.1V380.2z"
		/>
	<path class="st7" d="M343.1,384c-0.6,0-1.2-0.1-1.8-0.2c-0.6-0.1-1.2-0.3-1.7-0.4s-1-0.3-1.3-0.5l0.3-2.9c0.5,0.2,1,0.5,1.5,0.7
		c0.5,0.2,1.1,0.4,1.6,0.5s1.1,0.2,1.7,0.2c0.7,0,1.3-0.1,1.7-0.4c0.4-0.3,0.6-0.7,0.6-1.3c0-0.4-0.1-0.8-0.4-1.1
		c-0.2-0.3-0.6-0.5-1.1-0.7s-1.1-0.5-1.9-0.7c-0.8-0.3-1.5-0.6-2.1-0.9c-0.6-0.3-1.1-0.8-1.5-1.3s-0.5-1.2-0.5-2
		c0-0.8,0.2-1.5,0.6-2.2c0.4-0.6,1-1.1,1.8-1.5c0.8-0.4,1.8-0.5,3-0.5c0.9,0,1.7,0.1,2.6,0.3c0.8,0.2,1.5,0.4,2.1,0.6l-0.3,2.7
		c-0.8-0.4-1.6-0.7-2.3-0.8c-0.7-0.2-1.5-0.3-2.2-0.3c-0.8,0-1.4,0.1-1.8,0.4c-0.4,0.3-0.6,0.6-0.6,1.2c0,0.4,0.1,0.7,0.4,1
		c0.2,0.3,0.6,0.5,1,0.6c0.4,0.2,1,0.4,1.6,0.6c1.1,0.3,2,0.7,2.7,1.1c0.7,0.4,1.3,0.9,1.6,1.5c0.4,0.6,0.6,1.3,0.6,2.1
		c0,0.4-0.1,0.9-0.2,1.4c-0.1,0.5-0.4,1-0.8,1.4s-1,0.8-1.7,1.1C345.4,383.8,344.4,384,343.1,384z"/>
	<path class="st7" d="M351,383.7V369h9.4v2.6h-6.6v3.1h5.2v2.6h-5.2v3.8h6.9v2.6H351z"/>
	<path class="st7" d="M365.8,383.7v-12.1h-4.1V369h11v2.6h-4.1v12.1H365.8z"/>
	<path class="st7" d="M378.8,384c-0.6,0-1.2-0.1-1.8-0.2c-0.6-0.1-1.2-0.3-1.7-0.4s-1-0.3-1.3-0.5l0.3-2.9c0.5,0.2,1,0.5,1.5,0.7
		c0.5,0.2,1.1,0.4,1.6,0.5c0.6,0.1,1.1,0.2,1.7,0.2c0.7,0,1.3-0.1,1.7-0.4c0.4-0.3,0.6-0.7,0.6-1.3c0-0.4-0.1-0.8-0.4-1.1
		c-0.2-0.3-0.6-0.5-1.1-0.7s-1.1-0.5-1.9-0.7c-0.8-0.3-1.5-0.6-2.1-0.9c-0.6-0.3-1.1-0.8-1.5-1.3s-0.5-1.2-0.5-2
		c0-0.8,0.2-1.5,0.6-2.2c0.4-0.6,1-1.1,1.8-1.5c0.8-0.4,1.8-0.5,3-0.5c0.9,0,1.7,0.1,2.6,0.3c0.8,0.2,1.5,0.4,2.1,0.6l-0.3,2.7
		c-0.8-0.4-1.6-0.7-2.3-0.8c-0.7-0.2-1.5-0.3-2.2-0.3c-0.8,0-1.4,0.1-1.8,0.4c-0.4,0.3-0.6,0.6-0.6,1.2c0,0.4,0.1,0.7,0.4,1
		c0.2,0.3,0.6,0.5,1,0.6c0.4,0.2,1,0.4,1.6,0.6c1.1,0.3,2,0.7,2.7,1.1c0.7,0.4,1.3,0.9,1.6,1.5c0.4,0.6,0.6,1.3,0.6,2.1
		c0,0.4-0.1,0.9-0.2,1.4c-0.1,0.5-0.4,1-0.8,1.4s-1,0.8-1.7,1.1C381,383.8,380,384,378.8,384z"/>
</g>
<path class="st3" d="M494.3,478.2H14.7c0,0,33.6-13,56.8-28.4c27.3-18.2,51.5-42.4,51.5-42.4h371.3V478.2z"/>
<g>
	<path class="st7" d="M305.4,450.1v-12.1h-4.1v-2.6h11v2.6h-4.1v12.1H305.4z"/>
	<path class="st7" d="M317.7,438.1h0.7l-4.2,12.1h-2.6l5.2-14.7h2.5l5.2,14.7h-2.6L317.7,438.1z M321.1,446.7H315v-2.3h6.1V446.7z"
		/>
	<path class="st7" d="M326.2,450.1v-14.7h5.5c1.4,0,2.5,0.3,3.2,0.9c0.7,0.6,1,1.5,1,2.6c0,0.9-0.2,1.6-0.6,2.2s-1,1-1.7,1.3v-0.5
		c1.2,0.3,2.1,0.7,2.6,1.4c0.6,0.7,0.9,1.6,0.9,2.7c0,1.3-0.4,2.3-1.3,3.1c-0.9,0.7-2,1.1-3.5,1.1H326.2z M328.9,441.2h2.5
		c0.6,0,1.1-0.1,1.5-0.4c0.3-0.3,0.5-0.7,0.5-1.3c0-0.6-0.2-1-0.5-1.3c-0.3-0.3-0.8-0.4-1.5-0.4h-2.5V441.2z M328.9,447.7h3
		c0.7,0,1.3-0.2,1.8-0.5c0.4-0.3,0.7-0.8,0.7-1.6c0-0.8-0.2-1.3-0.7-1.6s-1-0.4-1.7-0.4h-3V447.7z"/>
	<path class="st7" d="M339.3,450.1v-14.7h2.7v12.3h6v2.4H339.3z"/>
	<path class="st7" d="M349.8,450.1v-14.7h9.4v2.6h-6.6v3.1h5.2v2.6h-5.2v3.8h6.9v2.6H349.8z"/>
	<path class="st7" d="M366,450.4c-0.6,0-1.2-0.1-1.8-0.2c-0.6-0.1-1.2-0.3-1.7-0.4c-0.5-0.2-1-0.3-1.3-0.5l0.3-2.9
		c0.5,0.2,1,0.5,1.5,0.7c0.5,0.2,1.1,0.4,1.6,0.5c0.6,0.1,1.1,0.2,1.7,0.2c0.7,0,1.3-0.1,1.7-0.4c0.4-0.3,0.6-0.7,0.6-1.3
		c0-0.4-0.1-0.8-0.4-1.1c-0.2-0.3-0.6-0.5-1.1-0.7s-1.1-0.5-1.9-0.7c-0.8-0.3-1.5-0.6-2.1-0.9c-0.6-0.3-1.1-0.8-1.5-1.3
		s-0.5-1.2-0.5-2c0-0.8,0.2-1.5,0.6-2.2c0.4-0.6,1-1.1,1.8-1.5c0.8-0.4,1.8-0.5,3-0.5c0.9,0,1.7,0.1,2.6,0.3
		c0.8,0.2,1.5,0.4,2.1,0.6l-0.3,2.7c-0.8-0.4-1.6-0.7-2.3-0.8c-0.7-0.2-1.5-0.3-2.2-0.3c-0.8,0-1.4,0.1-1.8,0.4
		c-0.4,0.3-0.6,0.6-0.6,1.2c0,0.4,0.1,0.7,0.4,1c0.2,0.3,0.6,0.5,1,0.6c0.4,0.2,1,0.4,1.6,0.6c1.1,0.3,2,0.7,2.7,1.1
		c0.7,0.4,1.3,0.9,1.6,1.5c0.4,0.6,0.6,1.3,0.6,2.1c0,0.4-0.1,0.9-0.2,1.4c-0.1,0.5-0.4,1-0.8,1.4c-0.4,0.4-1,0.8-1.7,1.1
		C368.2,450.3,367.2,450.4,366,450.4z"/>
</g>
<g>
	<path class="st8" d="M132.9,377.2C99.3,437,15.9,478,15.9,478s55.8-4.6,126.5-82.8c12-15.6,21.9-31.4,30.4-48.4
		c9.6-20.3,15.4-33.7,21.3-64l21.2,0.2L176,212.8L136.5,283h21.9C158,291.5,158.7,331.3,132.9,377.2z"/>
</g>
<g>
	<path class="st4" d="M129.9,374.2c-33.6,59.8-115.2,104-115.2,104s54-7.8,124.6-86c12-15.6,21.9-31.4,30.4-48.4
		c9.6-20.3,15.4-33.7,21.3-64l21.2,0.2L173,209.8L133.5,280h21.9C155,288.5,155.7,328.3,129.9,374.2z"/>
</g>
<polygon class="st8" points="136.5,283 133.5,280 147,280 148.7,282.9 "/>
<polygon class="st8" points="173,209.8 176,212.8 176.2,214.6 176,215.1 "/>
</svg>
