<?xml version="1.0" encoding="utf-8"?>
<!-- Generator: Adobe Illustrator 27.8.0, SVG Export Plug-In . SVG Version: 6.00 Build 0)  -->
<svg version="1.1" id="Layer_1" xmlns="http://www.w3.org/2000/svg" xmlns:xlink="http://www.w3.org/1999/xlink" x="0px" y="0px"
	 viewBox="0 0 1000 706" style="enable-background:new 0 0 1000 706;" xml:space="preserve">
<style type="text/css">
	.st0{fill:#535454;}
	.st1{fill:#6D6E71;}
	.st2{opacity:0.2;}
	.st3{fill:#FFFFFF;}
	.st4{fill:#062347;}
	.st5{fill:#0D3063;}
	.st6{fill:#2F72D3;}
	.st7{fill:#4D91FE;}
	.st8{fill:#DD471F;}
	.st9{fill:#00A3FF;}
	.st10{fill:#F65A27;}
	.st11{fill:#FFBD35;}
	.st12{fill:#7DD882;}
	.st13{opacity:0.3;}
	.st14{fill:#EAAC21;}
	.st15{fill:#D747FF;}
	.st16{fill:#FFC332;}
	.st17{opacity:0.2;fill:#FFFFFF;}
	.st18{fill:#6CBC6F;}
	.st19{fill:#A0EDA7;}
	.st20{fill:#C6C5C4;}
	.st21{fill:#E2E2E2;}
</style>
<g>
	<g>
		<path class="st0" d="M100.4,545.6c0.1-0.7,0.2-1.5,0.3-2.2c0.1-0.8,0.2-1.7,0.4-2.5c0.1-0.7,0.3-1.5,0.5-2.2
			c0.2-0.8,0.4-1.6,0.6-2.4c0.2-0.7,0.4-1.5,0.6-2.2c0.2-0.8,0.5-1.6,0.8-2.4c0.3-0.7,0.5-1.4,0.8-2.1c0.3-0.8,0.7-1.7,1.1-2.5
			c0.3-0.7,0.6-1.4,1-2.1c0.4-0.8,0.8-1.7,1.3-2.5c0.4-0.7,0.7-1.3,1.1-2c0.6-1,1.2-2,1.8-3c0.4-0.6,0.8-1.2,1.2-1.8
			c0.7-1.1,1.5-2.2,2.4-3.2c0.4-0.5,0.7-1,1.1-1.5c0.2-0.2,0.4-0.5,0.6-0.7c0.9-1.1,1.8-2.1,2.7-3.2c0.3-0.3,0.5-0.6,0.8-0.9
			c1.1-1.2,2.3-2.4,3.5-3.6c0.2-0.2,0.5-0.4,0.7-0.6c0.9-0.9,1.9-1.8,2.8-2.6c0.8-0.7,1.6-1.4,2.4-2.1c0.8-0.6,1.5-1.3,2.3-1.9
			c0.8-0.7,1.7-1.4,2.6-2c0.8-0.6,1.6-1.2,2.5-1.9c0.9-0.7,1.9-1.3,2.8-2c0.9-0.6,1.8-1.2,2.7-1.8c1-0.6,2-1.3,3-1.9
			c1.3-0.8,2.5-1.6,3.9-2.4c2.5-1.4,5.1-2.8,7.7-4.1c0.7-0.4,1.5-0.8,2.3-1.1c2-1,4.1-2,6.2-2.9c0.7-0.3,1.4-0.6,2.1-0.9
			c2.7-1.2,5.5-2.3,8.3-3.4c0.5-0.2,1-0.4,1.5-0.5c2.4-0.9,4.8-1.7,7.2-2.5c1-0.3,2-0.7,3-1c1.3-0.4,2.7-0.8,4-1.2
			c1.1-0.3,2.3-0.7,3.4-1c1.4-0.4,2.8-0.7,4.1-1.1c1.2-0.3,2.3-0.6,3.5-0.9c1.4-0.3,2.8-0.7,4.2-1c1.2-0.3,2.3-0.5,3.5-0.8
			c1.4-0.3,2.9-0.6,4.3-0.9c1.1-0.2,2.2-0.4,3.3-0.6c3.1-0.6,6.2-1.1,9.4-1.5c0.4-0.1,0.9-0.1,1.3-0.2c2.8-0.4,5.5-0.7,8.3-1
			c1.1-0.1,2.1-0.2,3.2-0.3c1.8-0.2,3.6-0.3,5.4-0.4c1.1-0.1,2.2-0.2,3.4-0.2c1.9-0.1,3.7-0.2,5.6-0.3c1.1,0,2.1-0.1,3.2-0.1
			c1.6-0.1,3.2-0.1,4.9-0.1c1.1,0,2.3,0,3.4,0c1.7,0,3.5,0,5.2,0.1c1,0,2,0,3.1,0c1.6,0,3.2,0.1,4.8,0.2c1.1,0,2.2,0.1,3.3,0.1
			c1.7,0.1,3.4,0.2,5.1,0.3c1,0.1,2,0.1,2.9,0.2c2,0.2,4,0.4,6,0.6c0.7,0.1,1.3,0.1,2,0.2c2.7,0.3,5.3,0.6,7.9,1
			c0.4,0.1,0.7,0.1,1.1,0.2c2.3,0.3,4.6,0.7,6.9,1.1c0.9,0.2,1.9,0.4,2.8,0.5c1.7,0.3,3.4,0.6,5.1,1c0.9,0.2,1.8,0.4,2.7,0.6
			c1.9,0.4,3.8,0.8,5.6,1.3c1,0.2,2.1,0.5,3.1,0.8c1.7,0.4,3.4,0.9,5.1,1.3c0.9,0.3,1.9,0.5,2.8,0.8c2.6,0.8,5.3,1.6,7.9,2.4
			c0.5,0.2,0.9,0.3,1.4,0.4c3,1,5.9,2.1,8.8,3.2c1.2,0.5,2.3,0.9,3.5,1.4c0.9,0.4,1.8,0.8,2.8,1.1c1.3,0.6,2.6,1.1,3.9,1.7
			c0.8,0.4,1.7,0.8,2.5,1.2c1.4,0.7,2.8,1.4,4.1,2.1c0.7,0.3,1.4,0.7,2.1,1c2,1.1,4,2.2,6,3.3c32.8,18.9,49.2,43.8,49.1,68.6l0.1-19
			c0.1-24.8-16.3-49.6-49.1-68.6c-2-1.1-4-2.2-6-3.3c-0.7-0.4-1.4-0.7-2-1c-1.4-0.7-2.8-1.4-4.2-2.1c-0.8-0.4-1.7-0.8-2.5-1.1
			c-1.3-0.6-2.6-1.2-3.9-1.7c-0.9-0.4-1.8-0.8-2.7-1.1c-0.9-0.4-1.8-0.7-2.7-1.1c-0.3-0.1-0.6-0.2-0.8-0.3c-2.9-1.1-5.8-2.2-8.8-3.2
			c-0.5-0.2-0.9-0.3-1.4-0.4c-2.6-0.9-5.2-1.7-7.9-2.4c-0.4-0.1-0.9-0.3-1.3-0.4c-0.5-0.1-1-0.3-1.5-0.4c-1.7-0.5-3.4-0.9-5-1.3
			c-1-0.3-2-0.5-3.1-0.8c-1.9-0.4-3.7-0.9-5.6-1.3c-0.7-0.2-1.4-0.3-2.1-0.5c-0.2,0-0.4-0.1-0.6-0.1c-1.7-0.3-3.4-0.7-5.1-1
			c-0.9-0.2-1.9-0.4-2.8-0.5c-2.3-0.4-4.5-0.7-6.8-1.1c-0.4-0.1-0.8-0.1-1.2-0.2c0,0,0,0-0.1,0c-2.6-0.4-5.3-0.7-7.9-1
			c-0.7-0.1-1.4-0.1-2-0.2c-2-0.2-4-0.4-6-0.6c-0.1,0-0.1,0-0.2,0c-0.9-0.1-1.9-0.1-2.8-0.2c-1.7-0.1-3.4-0.3-5.1-0.3
			c-1.1-0.1-2.2-0.1-3.3-0.1c-1.6-0.1-3.2-0.1-4.8-0.2c-0.1,0-0.3,0-0.4,0c-0.9,0-1.8,0-2.7,0c-1.7,0-3.5-0.1-5.2-0.1
			c-1.1,0-2.3,0-3.4,0c-1.6,0-3.2,0-4.9,0.1c-0.3,0-0.6,0-0.9,0c-0.8,0-1.5,0.1-2.2,0.1c-1.9,0.1-3.7,0.2-5.6,0.3
			c-1.1,0.1-2.2,0.2-3.4,0.2c-1.8,0.1-3.6,0.3-5.4,0.4c-0.6,0.1-1.3,0.1-1.9,0.2c-0.4,0-0.9,0.1-1.3,0.2c-2.8,0.3-5.5,0.6-8.3,1
			c-0.4,0.1-0.9,0.1-1.3,0.2c-3.2,0.4-6.3,0.9-9.4,1.5c-0.3,0.1-0.6,0.1-0.9,0.1c-0.8,0.1-1.6,0.3-2.5,0.5c-1.5,0.3-2.9,0.6-4.4,0.9
			c-1.2,0.2-2.3,0.5-3.5,0.8c-1.4,0.3-2.8,0.6-4.2,1c-1.2,0.3-2.3,0.6-3.5,0.9c-1.4,0.4-2.8,0.7-4.1,1.1c-1.2,0.3-2.3,0.7-3.4,1
			c-1.4,0.4-2.7,0.8-4,1.2c-0.6,0.2-1.2,0.4-1.8,0.5c-0.4,0.1-0.8,0.3-1.2,0.4c-2.4,0.8-4.8,1.6-7.2,2.5c-0.5,0.2-1,0.4-1.5,0.5
			c-2.8,1.1-5.6,2.2-8.3,3.4c-0.7,0.3-1.4,0.6-2.1,0.9c-2.1,0.9-4.1,1.9-6.2,2.9c-0.8,0.4-1.5,0.7-2.3,1.1c-2.6,1.3-5.2,2.7-7.7,4.1
			c-0.7,0.4-1.4,0.8-2,1.2c-0.6,0.4-1.2,0.8-1.8,1.2c-1,0.6-2,1.3-3,1.9c-0.9,0.6-1.8,1.2-2.7,1.8c-0.9,0.7-1.9,1.3-2.8,2
			c-0.8,0.6-1.7,1.2-2.5,1.9c-0.9,0.7-1.8,1.3-2.6,2c-0.8,0.6-1.5,1.3-2.3,1.9c-0.8,0.7-1.6,1.4-2.4,2.1c-0.3,0.3-0.7,0.6-1,0.9
			c-0.6,0.6-1.3,1.2-1.9,1.8c-0.2,0.2-0.4,0.4-0.7,0.6c-1.2,1.2-2.4,2.4-3.5,3.6c-0.3,0.3-0.5,0.6-0.8,0.9c-0.9,1.1-1.8,2.1-2.7,3.2
			c-0.2,0.2-0.4,0.5-0.6,0.7c-0.1,0.1-0.2,0.2-0.3,0.3c-0.3,0.4-0.6,0.8-0.9,1.2c-0.8,1.1-1.6,2.1-2.3,3.2c-0.4,0.6-0.8,1.2-1.2,1.8
			c-0.6,1-1.2,2-1.8,2.9c-0.2,0.3-0.3,0.5-0.5,0.8c-0.2,0.4-0.4,0.8-0.6,1.2c-0.4,0.8-0.9,1.7-1.3,2.5c-0.3,0.7-0.7,1.4-1,2.1
			c-0.4,0.8-0.7,1.7-1.1,2.5c-0.1,0.4-0.3,0.7-0.5,1.1c-0.1,0.3-0.2,0.7-0.3,1c-0.3,0.8-0.5,1.6-0.8,2.4c-0.2,0.7-0.4,1.5-0.6,2.2
			c-0.2,0.8-0.4,1.6-0.6,2.4c-0.1,0.4-0.2,0.9-0.3,1.3c-0.1,0.3-0.1,0.6-0.1,0.9c-0.2,0.8-0.3,1.7-0.4,2.5c-0.1,0.7-0.2,1.5-0.3,2.2
			c-0.1,0.8-0.1,1.7-0.2,2.5c0,0.5-0.1,1-0.1,1.5c0,0.5,0,1,0,1.5l-0.1,19c0-1,0.1-2,0.1-2.9C100.2,547.2,100.3,546.4,100.4,545.6z"
			/>
		<path class="st0" d="M507.7,535.9c0,0.6-0.1,1.2-0.1,1.8c0,0.5-0.1,1.1-0.1,1.6c0,0.6-0.1,1.2-0.2,1.8c-0.1,0.5-0.1,1-0.2,1.6
			c-0.1,0.6-0.2,1.2-0.3,1.8c-0.1,0.5-0.1,1-0.2,1.6c-0.1,0.6-0.2,1.2-0.3,1.9c-0.1,0.5-0.2,1-0.3,1.5c-0.1,0.6-0.3,1.2-0.4,1.8
			c-0.1,0.5-0.2,1-0.4,1.5c-0.2,0.6-0.3,1.2-0.5,1.9c-0.1,0.5-0.3,1-0.4,1.5c-0.2,0.6-0.4,1.3-0.6,1.9c-0.2,0.5-0.3,1-0.5,1.4
			c-0.2,0.7-0.5,1.3-0.7,2c-0.2,0.4-0.3,0.9-0.5,1.3c-0.4,1-0.7,1.9-1.1,2.9c-0.1,0.2-0.1,0.3-0.2,0.5c-0.5,1.1-1,2.2-1.5,3.3
			c-0.2,0.3-0.3,0.7-0.5,1c-0.4,0.8-0.7,1.6-1.1,2.3c-0.2,0.4-0.5,0.9-0.7,1.3c-0.4,0.7-0.7,1.4-1.1,2c-0.2,0.4-0.5,0.8-0.7,1.2
			c-0.4,0.8-0.9,1.5-1.4,2.3c-0.3,0.4-0.6,0.9-0.8,1.3c-0.4,0.7-0.9,1.4-1.4,2.1c-0.3,0.5-0.6,0.9-0.9,1.4c-0.5,0.7-1,1.4-1.4,2.1
			c-0.3,0.4-0.6,0.9-1,1.3c-0.5,0.7-1.1,1.4-1.6,2.1c-0.3,0.4-0.6,0.8-0.9,1.2c-1,1.2-2,2.5-3,3.7c-0.2,0.2-0.3,0.4-0.5,0.6
			c-0.9,1-1.8,2.1-2.7,3.1c-0.3,0.4-0.7,0.7-1,1.1c-0.9,0.9-1.7,1.8-2.6,2.7c-0.3,0.3-0.6,0.6-0.9,0.9c-1.2,1.2-2.4,2.4-3.7,3.5
			c-0.5,0.4-0.9,0.8-1.4,1.3c-0.6,0.6-1.2,1.1-1.8,1.7c-0.5,0.4-1,0.9-1.5,1.3c-0.6,0.5-1.2,1.1-1.9,1.6c-0.5,0.4-1.1,0.9-1.6,1.3
			c-0.6,0.5-1.3,1-1.9,1.6c-0.6,0.4-1.1,0.9-1.7,1.3c-0.7,0.5-1.3,1-2,1.5c-0.6,0.4-1.2,0.9-1.8,1.3c-0.7,0.5-1.4,1-2.1,1.5
			c-0.6,0.4-1.2,0.9-1.9,1.3c-0.7,0.5-1.4,1-2.1,1.4c-0.6,0.4-1.3,0.8-1.9,1.3c-0.7,0.5-1.4,0.9-2.2,1.4c-0.7,0.4-1.3,0.8-2,1.3
			c-0.7,0.5-1.5,0.9-2.3,1.4c-1.2,0.7-2.4,1.4-3.6,2.1c-2.6,1.5-5.3,3-8,4.4c-0.7,0.4-1.4,0.8-2.1,1.1c-2.4,1.3-4.9,2.5-7.4,3.7
			c-0.3,0.2-0.7,0.3-1,0.5c-2.8,1.3-5.6,2.6-8.5,3.8c-0.7,0.3-1.5,0.6-2.2,0.9c-2.4,1-4.9,2-7.4,3c-0.5,0.2-1.1,0.4-1.6,0.6
			c-2.9,1.1-5.9,2.2-8.9,3.2c-0.7,0.3-1.5,0.5-2.2,0.7c-2,0.7-4.1,1.3-6.1,2c-1.9,0.6-3.9,1.2-5.9,1.8c-1.7,0.5-3.3,1-5,1.4
			c-2,0.6-4,1.1-6,1.6c-1.7,0.4-3.4,0.9-5.1,1.3c-2,0.5-4.1,1-6.2,1.4c-1.7,0.4-3.4,0.8-5.1,1.1c-2.1,0.4-4.2,0.8-6.3,1.2
			c-1.9,0.4-3.7,0.7-5.6,1.1c-0.9,0.1-1.7,0.3-2.6,0.4c-2.9,0.5-5.8,0.9-8.7,1.4c-0.5,0.1-1,0.2-1.5,0.2c-3.3,0.5-6.6,0.9-10,1.3
			c-0.8,0.1-1.7,0.2-2.5,0.3c-2.1,0.2-4.1,0.4-6.2,0.6c-2.6,0.2-5.2,0.5-7.8,0.6c-1.6,0.1-3.3,0.2-4.9,0.3c-2.7,0.2-5.4,0.3-8.1,0.4
			c-1.5,0.1-3,0.1-4.6,0.2c-2.4,0.1-4.7,0.1-7.1,0.1c-1.6,0-3.3,0.1-4.9,0.1c-2.5,0-5,0-7.5-0.1c-1.5,0-3,0-4.5-0.1
			c-2.3-0.1-4.6-0.2-6.9-0.3c-1.6-0.1-3.2-0.1-4.8-0.2c-2.5-0.1-5-0.3-7.5-0.5c-1.4-0.1-2.8-0.2-4.2-0.3c-3-0.3-6-0.6-9-0.9
			c-0.9-0.1-1.7-0.2-2.6-0.3c-3.9-0.4-7.7-0.9-11.5-1.5c-0.6-0.1-1.2-0.2-1.8-0.3c-3.3-0.5-6.6-1-9.9-1.6c-1.4-0.2-2.7-0.5-4-0.8
			c-2.5-0.5-5-0.9-7.5-1.4c-1.3-0.3-2.6-0.6-3.8-0.8c-2.7-0.6-5.4-1.2-8.1-1.8c-1.5-0.4-3-0.7-4.5-1.1c-2.5-0.6-4.9-1.3-7.3-1.9
			c-2.1-0.6-4.2-1.2-6.2-1.8c-0.8-0.2-1.6-0.5-2.3-0.7c-3.1-0.9-6.2-1.9-9.2-3c-0.6-0.2-1.2-0.4-1.8-0.6c-2.5-0.9-5-1.8-7.5-2.7
			c-0.8-0.3-1.7-0.6-2.5-1c-2-0.8-3.9-1.6-5.9-2.4c-1.3-0.6-2.7-1.1-4-1.7c-1.9-0.8-3.7-1.7-5.6-2.5c-1.2-0.6-2.5-1.1-3.7-1.7
			c-2-1-4-2-6-3c-1-0.5-2-1-3-1.5c-2.9-1.5-5.9-3.1-8.7-4.8c-47.6-27.5-71.4-63.5-71.3-99.5l-0.1,19c-0.1,36,23.7,72.1,71.3,99.5
			c2.8,1.6,5.7,3.2,8.7,4.8c1,0.5,2,1,3,1.5c2,1,4,2,6,3c1.2,0.6,2.5,1.1,3.7,1.7c1.9,0.8,3.7,1.7,5.6,2.5c1.3,0.6,2.7,1.1,4,1.7
			c1.3,0.5,2.5,1.1,3.8,1.6c0.7,0.3,1.3,0.5,2,0.8c0.8,0.3,1.7,0.6,2.5,1c2.5,0.9,5,1.8,7.5,2.7c0.6,0.2,1.2,0.4,1.8,0.6
			c3,1,6.1,2,9.2,3c0.8,0.2,1.5,0.5,2.3,0.7c1.3,0.4,2.7,0.8,4,1.2c0.7,0.2,1.5,0.4,2.2,0.6c2.4,0.7,4.9,1.3,7.3,1.9
			c1.5,0.4,3,0.8,4.5,1.1c2.7,0.6,5.4,1.2,8.1,1.8c1,0.2,2,0.5,3,0.7c0.3,0.1,0.6,0.1,0.8,0.2c2.5,0.5,5,1,7.5,1.4
			c1.4,0.2,2.7,0.5,4.1,0.8c3.3,0.6,6.5,1.1,9.8,1.5c0.6,0.1,1.2,0.2,1.8,0.3c0,0,0.1,0,0.1,0c3.8,0.5,7.7,1,11.5,1.5
			c0.9,0.1,1.7,0.2,2.6,0.3c3,0.3,6,0.6,9,0.9c0.1,0,0.1,0,0.2,0c1.3,0.1,2.7,0.2,4,0.3c2.5,0.2,5,0.4,7.4,0.5
			c1.6,0.1,3.2,0.1,4.8,0.2c2.3,0.1,4.6,0.2,6.9,0.3c0.2,0,0.4,0,0.6,0c1.3,0,2.6,0,3.9,0c2.5,0,5,0.1,7.5,0.1c1.6,0,3.3,0,4.9-0.1
			c2.4,0,4.7-0.1,7.1-0.1c0.4,0,0.9,0,1.3,0c1.1,0,2.2-0.1,3.3-0.2c2.7-0.1,5.4-0.2,8.1-0.4c1.6-0.1,3.3-0.2,4.9-0.3
			c2.6-0.2,5.2-0.4,7.8-0.6c0.9-0.1,1.8-0.1,2.7-0.2c1.2-0.1,2.3-0.3,3.5-0.4c0.8-0.1,1.7-0.2,2.5-0.3c3.3-0.4,6.7-0.8,10-1.3
			c0.5-0.1,1-0.2,1.5-0.2c2.9-0.4,5.8-0.9,8.7-1.4c0.9-0.1,1.7-0.3,2.6-0.4c0.7-0.1,1.4-0.2,2-0.3c1.2-0.2,2.4-0.5,3.6-0.7
			c2.1-0.4,4.2-0.8,6.3-1.2c1.7-0.4,3.4-0.7,5.1-1.1c2.1-0.5,4.1-0.9,6.1-1.4c1.7-0.4,3.4-0.8,5.1-1.3c2-0.5,4-1,6-1.6
			c1.7-0.5,3.3-0.9,5-1.4c2-0.6,3.9-1.2,5.9-1.8c0.9-0.3,1.7-0.5,2.6-0.8c1.2-0.4,2.4-0.8,3.6-1.2c0.7-0.2,1.5-0.5,2.2-0.7
			c3-1,6-2.1,8.9-3.2c0.5-0.2,1.1-0.4,1.6-0.6c2.5-1,5-2,7.4-3c0.7-0.3,1.5-0.6,2.2-0.9c2.9-1.2,5.7-2.5,8.5-3.8
			c0.3-0.2,0.7-0.3,1-0.5c2.5-1.2,4.9-2.4,7.4-3.7c0.7-0.4,1.4-0.7,2.1-1.1c2.7-1.4,5.4-2.9,8-4.4c1-0.6,2-1.2,2.9-1.7
			c0.2-0.1,0.4-0.3,0.7-0.4c0.8-0.5,1.5-0.9,2.2-1.4c0.7-0.4,1.3-0.8,2-1.3c0.7-0.5,1.5-0.9,2.2-1.4c0.6-0.4,1.3-0.8,1.9-1.3
			c0.7-0.5,1.4-1,2.1-1.4c0.6-0.4,1.2-0.9,1.9-1.3c0.7-0.5,1.4-1,2.1-1.5c0.6-0.4,1.2-0.9,1.8-1.3c0.7-0.5,1.3-1,2-1.5
			c0.6-0.4,1.1-0.9,1.7-1.3c0.7-0.5,1.3-1,1.9-1.6c0.5-0.4,1.1-0.9,1.6-1.3c0.6-0.5,1.2-1.1,1.9-1.6c0.5-0.4,1-0.9,1.5-1.3
			c0.6-0.5,1.2-1.1,1.8-1.6c0.4-0.4,0.9-0.8,1.3-1.2c0,0,0.1-0.1,0.1-0.1c1.3-1.2,2.5-2.3,3.7-3.5c0.3-0.3,0.6-0.6,0.9-0.9
			c0.9-0.9,1.8-1.8,2.6-2.7c0.3-0.4,0.7-0.7,1-1.1c0.9-1,1.9-2,2.8-3.1c0.2-0.2,0.3-0.4,0.5-0.6c1-1.2,2-2.4,3-3.7
			c0.1-0.1,0.2-0.2,0.3-0.3c0.2-0.3,0.5-0.6,0.7-0.9c0.5-0.7,1.1-1.4,1.6-2.1c0.3-0.4,0.7-0.9,1-1.3c0.5-0.7,1-1.4,1.4-2.1
			c0.3-0.5,0.6-0.9,0.9-1.4c0.5-0.7,0.9-1.4,1.4-2.1c0.3-0.4,0.6-0.9,0.8-1.3c0.5-0.8,0.9-1.5,1.3-2.3c0.2-0.3,0.4-0.6,0.5-0.9
			c0-0.1,0.1-0.2,0.1-0.3c0.4-0.7,0.7-1.3,1.1-2c0.2-0.4,0.5-0.9,0.7-1.3c0.4-0.8,0.8-1.5,1.1-2.3c0.2-0.3,0.3-0.7,0.5-1
			c0.5-1.1,1-2.2,1.5-3.3c0.1-0.2,0.1-0.4,0.2-0.6c0.4-0.9,0.8-1.9,1.1-2.8c0,0,0-0.1,0-0.1c0.2-0.4,0.3-0.8,0.4-1.3
			c0.2-0.7,0.5-1.3,0.7-2c0.2-0.5,0.3-1,0.5-1.4c0.2-0.6,0.4-1.3,0.6-1.9c0.1-0.5,0.3-1,0.4-1.5c0.2-0.6,0.3-1.2,0.5-1.9
			c0.1-0.5,0.2-1,0.4-1.5c0.1-0.6,0.3-1.2,0.4-1.8c0-0.1,0.1-0.2,0.1-0.3c0.1-0.4,0.1-0.8,0.2-1.2c0.1-0.6,0.2-1.2,0.3-1.9
			c0.1-0.5,0.2-1,0.2-1.6c0.1-0.6,0.2-1.2,0.2-1.8c0.1-0.5,0.1-1.1,0.2-1.6c0.1-0.6,0.1-1.2,0.2-1.8c0-0.5,0.1-1.1,0.1-1.6
			c0-0.6,0.1-1.2,0.1-1.8c0-0.2,0-0.4,0-0.6c0-0.7,0-1.4,0-2.1l0.1-19C507.7,534,507.7,534.9,507.7,535.9z"/>
		<g>
			<path class="st1" d="M149.2,600.6c65.1,37.6,170.4,37.6,235.1,0c64.7-37.6,64.4-98.6-0.8-136.2c-65.1-37.6-170.4-37.6-235.2,0
				C83.7,502,84.1,562.9,149.2,600.6 M436.5,433.6c94.6,54.6,95.1,143.1,1.1,197.7c-93.9,54.6-246.7,54.6-341.3,0
				C1.7,576.7,1.2,488.2,95.2,433.6C189.1,379,341.9,379,436.5,433.6z"/>
		</g>
		<g class="st2">
			<path class="st3" d="M149.2,600.6c-11.7-6.8-21.3-14.3-28.8-22.3l-51.6,34.1c8.1,6.7,17.2,13,27.5,19c2.8,1.6,5.6,3.1,8.4,4.6
				l53.5-30.6C155.2,603.8,152.1,602.2,149.2,600.6z"/>
			<path class="st3" d="M383.6,464.4c3.6,2.1,6.9,4.2,10.1,6.4l53.5-30.6c-3.4-2.3-7-4.5-10.7-6.6c-17.8-10.3-37.7-18.6-58.9-25.1
				l-51.7,34.1C346.9,447.3,366.6,454.6,383.6,464.4z"/>
			<path class="st3" d="M462.1,451L407,481.3c7.8,7.2,13.9,14.8,18.1,22.7l59.8-30.6C478.6,465.6,471,458.1,462.1,451z"/>
			<path class="st3" d="M198.1,620.1c-9.4-2.5-18.5-5.5-27.2-9l-55.1,30.3c7.3,3.4,14.8,6.5,22.6,9.3L198.1,620.1z"/>
		</g>
	</g>
	<g>
		<path class="st4" d="M91.4,450.3c0.1-0.6,0.2-1.3,0.2-1.9c0.1-0.7,0.2-1.5,0.3-2.2c0.1-0.6,0.3-1.3,0.4-1.9
			c0.2-0.7,0.3-1.4,0.5-2.1c0.2-0.6,0.4-1.3,0.6-1.9c0.2-0.7,0.5-1.4,0.7-2.1c0.2-0.6,0.5-1.3,0.7-1.9c0.3-0.7,0.6-1.5,0.9-2.2
			c0.3-0.6,0.6-1.2,0.9-1.8c0.4-0.7,0.7-1.5,1.1-2.2c0.3-0.6,0.6-1.2,1-1.8c0.5-0.9,1-1.7,1.6-2.6c0.3-0.5,0.7-1,1-1.6
			c0.7-1,1.4-1.9,2.1-2.8c0.3-0.4,0.6-0.9,1-1.3c0.2-0.2,0.3-0.4,0.5-0.6c0.8-0.9,1.6-1.9,2.4-2.8c0.2-0.3,0.4-0.5,0.7-0.8
			c1-1.1,2-2.1,3.1-3.2c0.2-0.2,0.4-0.4,0.6-0.6c0.8-0.8,1.7-1.6,2.5-2.3c0.7-0.6,1.4-1.2,2.1-1.8c0.7-0.6,1.3-1.1,2-1.7
			c0.7-0.6,1.5-1.2,2.3-1.8c0.7-0.5,1.4-1.1,2.2-1.6c0.8-0.6,1.6-1.2,2.5-1.7c0.8-0.5,1.5-1.1,2.3-1.6c0.9-0.6,1.8-1.1,2.7-1.7
			c1.1-0.7,2.2-1.4,3.4-2.1c2.2-1.3,4.4-2.5,6.7-3.7c0.7-0.3,1.3-0.7,2-1c1.8-0.9,3.6-1.7,5.4-2.6c0.6-0.3,1.2-0.6,1.9-0.8
			c2.4-1,4.8-2,7.3-3c0.4-0.2,0.9-0.3,1.3-0.5c2.1-0.8,4.2-1.5,6.4-2.2c0.9-0.3,1.8-0.6,2.7-0.9c1.2-0.4,2.4-0.7,3.6-1.1
			c1-0.3,2-0.6,3-0.9c1.2-0.3,2.4-0.7,3.6-1c1-0.3,2-0.5,3.1-0.8c1.2-0.3,2.5-0.6,3.7-0.9c1-0.2,2.1-0.5,3.1-0.7
			c1.3-0.3,2.6-0.5,3.8-0.8c1-0.2,2-0.4,2.9-0.6c2.7-0.5,5.5-0.9,8.3-1.3c0.4-0.1,0.8-0.1,1.2-0.1c2.4-0.3,4.9-0.6,7.3-0.9
			c0.9-0.1,1.9-0.2,2.8-0.3c1.6-0.1,3.1-0.3,4.7-0.4c1-0.1,2-0.1,3-0.2c1.6-0.1,3.3-0.2,4.9-0.2c0.9,0,1.9-0.1,2.8-0.1
			c1.4,0,2.9-0.1,4.3-0.1c1,0,2,0,3,0c1.5,0,3.1,0,4.6,0c0.9,0,1.8,0,2.7,0c1.4,0,2.8,0.1,4.2,0.2c1,0,2,0.1,2.9,0.1
			c1.5,0.1,3,0.2,4.5,0.3c0.9,0.1,1.7,0.1,2.6,0.2c1.8,0.1,3.5,0.3,5.3,0.5c0.6,0.1,1.2,0.1,1.8,0.2c2.3,0.3,4.7,0.6,7,0.9
			c0.3,0,0.7,0.1,1,0.2c2,0.3,4.1,0.6,6.1,1c0.8,0.1,1.6,0.3,2.5,0.5c1.5,0.3,3,0.6,4.5,0.9c0.8,0.2,1.6,0.3,2.3,0.5
			c1.7,0.4,3.3,0.7,4.9,1.1c0.9,0.2,1.8,0.5,2.7,0.7c1.5,0.4,3,0.8,4.5,1.2c0.8,0.2,1.7,0.5,2.5,0.7c2.3,0.7,4.6,1.4,6.9,2.2
			c0.4,0.1,0.8,0.3,1.2,0.4c2.6,0.9,5.2,1.8,7.7,2.8c1,0.4,2.1,0.8,3.1,1.2c0.8,0.3,1.6,0.7,2.4,1c1.1,0.5,2.3,1,3.4,1.5
			c0.7,0.3,1.5,0.7,2.2,1c1.2,0.6,2.4,1.2,3.6,1.8c0.6,0.3,1.2,0.6,1.8,0.9c1.8,0.9,3.6,1.9,5.3,2.9c28.9,16.7,43.3,38.6,43.2,60.4
			l0-16.8c0.1-21.9-14.4-43.7-43.2-60.4c-1.7-1-3.5-2-5.3-2.9c-0.6-0.3-1.2-0.6-1.8-0.9c-1.2-0.6-2.4-1.2-3.7-1.8
			c-0.7-0.3-1.5-0.7-2.2-1c-1.1-0.5-2.3-1-3.4-1.5c-0.8-0.3-1.6-0.7-2.4-1c-0.8-0.3-1.6-0.7-2.3-1c-0.2-0.1-0.5-0.2-0.7-0.3
			c-2.5-1-5.1-1.9-7.7-2.8c-0.4-0.1-0.8-0.3-1.2-0.4c-2.3-0.8-4.6-1.5-6.9-2.2c-0.4-0.1-0.8-0.2-1.2-0.4c-0.4-0.1-0.9-0.2-1.3-0.4
			c-1.5-0.4-3-0.8-4.4-1.2c-0.9-0.2-1.8-0.5-2.7-0.7c-1.6-0.4-3.3-0.8-4.9-1.1c-0.6-0.1-1.2-0.3-1.8-0.4c-0.2,0-0.3-0.1-0.5-0.1
			c-1.5-0.3-3-0.6-4.5-0.9c-0.8-0.2-1.6-0.3-2.5-0.5c-2-0.3-4-0.7-6-0.9c-0.3,0-0.7-0.1-1-0.2c0,0,0,0-0.1,0c-2.3-0.3-4.7-0.6-7-0.9
			c-0.6-0.1-1.2-0.1-1.8-0.2c-1.7-0.2-3.5-0.4-5.3-0.5c0,0-0.1,0-0.1,0c-0.8-0.1-1.7-0.1-2.5-0.2c-1.5-0.1-3-0.2-4.5-0.3
			c-1-0.1-2-0.1-2.9-0.1c-1.4-0.1-2.8-0.1-4.2-0.2c-0.1,0-0.2,0-0.3,0c-0.8,0-1.6,0-2.4,0c-1.5,0-3.1,0-4.6,0c-1,0-2,0-3,0
			c-1.4,0-2.9,0-4.3,0.1c-0.3,0-0.5,0-0.8,0c-0.7,0-1.3,0.1-2,0.1c-1.6,0.1-3.3,0.1-4.9,0.2c-1,0.1-2,0.1-3,0.2
			c-1.6,0.1-3.1,0.2-4.7,0.4c-0.5,0.1-1.1,0.1-1.7,0.1c-0.4,0-0.8,0.1-1.1,0.1c-2.4,0.3-4.9,0.5-7.3,0.9c-0.4,0.1-0.8,0.1-1.2,0.1
			c-2.8,0.4-5.5,0.8-8.3,1.3c-0.3,0-0.5,0.1-0.8,0.1c-0.7,0.1-1.4,0.3-2.2,0.4c-1.3,0.2-2.6,0.5-3.8,0.8c-1,0.2-2.1,0.4-3.1,0.7
			c-1.3,0.3-2.5,0.6-3.7,0.9c-1,0.2-2.1,0.5-3.1,0.8c-1.2,0.3-2.4,0.6-3.6,1c-1,0.3-2,0.6-3,0.9c-1.2,0.4-2.4,0.7-3.6,1.1
			c-0.5,0.2-1,0.3-1.6,0.5c-0.4,0.1-0.7,0.3-1.1,0.4c-2.1,0.7-4.3,1.5-6.4,2.2c-0.4,0.2-0.9,0.3-1.3,0.5c-2.5,0.9-4.9,1.9-7.3,3
			c-0.6,0.3-1.2,0.6-1.9,0.8c-1.8,0.8-3.6,1.7-5.4,2.6c-0.7,0.3-1.3,0.7-2,1c-2.3,1.2-4.6,2.4-6.7,3.7c-0.6,0.3-1.2,0.7-1.8,1.1
			c-0.6,0.3-1.1,0.7-1.6,1c-0.9,0.6-1.8,1.1-2.7,1.7c-0.8,0.5-1.6,1.1-2.3,1.6c-0.8,0.6-1.7,1.2-2.5,1.7c-0.7,0.5-1.5,1.1-2.2,1.6
			c-0.8,0.6-1.5,1.2-2.3,1.8c-0.7,0.6-1.4,1.1-2,1.7c-0.7,0.6-1.4,1.2-2.1,1.8c-0.3,0.3-0.6,0.5-0.9,0.8c-0.6,0.5-1.1,1.1-1.6,1.6
			c-0.2,0.2-0.4,0.4-0.6,0.6c-1.1,1.1-2.1,2.1-3.1,3.2c-0.2,0.3-0.5,0.5-0.7,0.8c-0.8,0.9-1.6,1.9-2.4,2.8c-0.2,0.2-0.3,0.4-0.5,0.6
			c-0.1,0.1-0.2,0.2-0.2,0.3c-0.3,0.3-0.5,0.7-0.8,1c-0.7,0.9-1.4,1.9-2.1,2.8c-0.4,0.5-0.7,1-1,1.6c-0.6,0.9-1.1,1.7-1.6,2.6
			c-0.1,0.2-0.3,0.5-0.4,0.7c-0.2,0.4-0.4,0.7-0.6,1.1c-0.4,0.7-0.8,1.5-1.1,2.2c-0.3,0.6-0.6,1.2-0.9,1.9c-0.3,0.7-0.6,1.5-0.9,2.2
			c-0.1,0.3-0.3,0.7-0.4,1c-0.1,0.3-0.2,0.6-0.3,0.9c-0.3,0.7-0.5,1.4-0.7,2.1c-0.2,0.6-0.4,1.3-0.6,1.9c-0.2,0.7-0.4,1.4-0.5,2.1
			c-0.1,0.4-0.2,0.8-0.3,1.2c-0.1,0.3-0.1,0.5-0.1,0.8c-0.1,0.7-0.2,1.5-0.3,2.2c-0.1,0.6-0.2,1.3-0.2,1.9c-0.1,0.7-0.1,1.5-0.2,2.2
			c0,0.4-0.1,0.9-0.1,1.3c0,0.4,0,0.9,0,1.3l0,16.8c0-0.9,0.1-1.7,0.1-2.6C91.3,451.8,91.3,451,91.4,450.3z"/>
		<path class="st4" d="M450.2,441.8c0,0.5,0,1.1-0.1,1.6c0,0.5-0.1,0.9-0.1,1.4c0,0.5-0.1,1.1-0.1,1.6c0,0.5-0.1,0.9-0.1,1.4
			c-0.1,0.5-0.1,1.1-0.2,1.6c-0.1,0.5-0.1,0.9-0.2,1.4c-0.1,0.5-0.2,1.1-0.3,1.6c-0.1,0.4-0.2,0.9-0.3,1.3c-0.1,0.5-0.2,1.1-0.4,1.6
			c-0.1,0.4-0.2,0.9-0.3,1.3c-0.1,0.5-0.3,1.1-0.4,1.6c-0.1,0.4-0.2,0.9-0.4,1.3c-0.2,0.6-0.3,1.1-0.5,1.7c-0.1,0.4-0.3,0.8-0.4,1.3
			c-0.2,0.6-0.4,1.2-0.6,1.7c-0.1,0.4-0.3,0.8-0.4,1.2c-0.3,0.8-0.7,1.7-1,2.5c-0.1,0.1-0.1,0.3-0.2,0.4c-0.4,1-0.9,2-1.3,2.9
			c-0.1,0.3-0.3,0.6-0.4,0.9c-0.3,0.7-0.7,1.4-1,2c-0.2,0.4-0.4,0.7-0.6,1.1c-0.3,0.6-0.6,1.2-1,1.8c-0.2,0.3-0.4,0.7-0.6,1
			c-0.4,0.7-0.8,1.3-1.2,2c-0.2,0.4-0.5,0.8-0.7,1.2c-0.4,0.6-0.8,1.2-1.2,1.8c-0.3,0.4-0.5,0.8-0.8,1.2c-0.4,0.6-0.8,1.2-1.3,1.8
			c-0.3,0.4-0.6,0.8-0.9,1.2c-0.5,0.6-0.9,1.2-1.4,1.9c-0.3,0.4-0.5,0.7-0.8,1.1c-0.9,1.1-1.7,2.2-2.7,3.2c-0.1,0.2-0.3,0.3-0.5,0.5
			c-0.8,0.9-1.6,1.8-2.4,2.7c-0.3,0.3-0.6,0.7-0.9,1c-0.8,0.8-1.5,1.6-2.3,2.4c-0.3,0.3-0.5,0.6-0.8,0.8c-1.1,1-2.1,2.1-3.2,3.1
			c-0.4,0.4-0.8,0.7-1.2,1.1c-0.5,0.5-1.1,1-1.6,1.5c-0.4,0.4-0.9,0.8-1.3,1.2c-0.5,0.5-1.1,0.9-1.7,1.4c-0.5,0.4-0.9,0.8-1.4,1.2
			c-0.6,0.5-1.1,0.9-1.7,1.4c-0.5,0.4-1,0.8-1.5,1.2c-0.6,0.4-1.2,0.9-1.8,1.3c-0.5,0.4-1,0.8-1.6,1.1c-0.6,0.4-1.2,0.9-1.8,1.3
			c-0.5,0.4-1.1,0.8-1.6,1.1c-0.6,0.4-1.2,0.9-1.9,1.3c-0.6,0.4-1.1,0.7-1.7,1.1c-0.6,0.4-1.3,0.8-1.9,1.2c-0.6,0.4-1.2,0.7-1.8,1.1
			c-0.7,0.4-1.3,0.8-2,1.2c-1,0.6-2.1,1.3-3.2,1.9c-2.3,1.3-4.7,2.6-7,3.9c-0.6,0.3-1.3,0.7-1.9,1c-2.1,1.1-4.3,2.2-6.5,3.2
			c-0.3,0.1-0.6,0.3-0.9,0.4c-2.5,1.2-4.9,2.3-7.5,3.4c-0.7,0.3-1.3,0.6-2,0.8c-2.1,0.9-4.3,1.8-6.5,2.6c-0.5,0.2-1,0.4-1.4,0.6
			c-2.6,1-5.2,1.9-7.9,2.8c-0.6,0.2-1.3,0.4-1.9,0.7c-1.8,0.6-3.6,1.2-5.4,1.7c-1.7,0.5-3.4,1.1-5.2,1.6c-1.5,0.4-2.9,0.9-4.4,1.3
			c-1.8,0.5-3.5,1-5.3,1.4c-1.5,0.4-3,0.8-4.5,1.1c-1.8,0.4-3.6,0.8-5.4,1.3c-1.5,0.3-3,0.7-4.5,1c-1.8,0.4-3.7,0.7-5.6,1.1
			c-1.7,0.3-3.3,0.6-5,0.9c-0.8,0.1-1.5,0.3-2.3,0.4c-2.5,0.4-5.1,0.8-7.6,1.2c-0.4,0.1-0.9,0.1-1.3,0.2c-2.9,0.4-5.9,0.8-8.8,1.1
			c-0.7,0.1-1.5,0.2-2.2,0.2c-1.8,0.2-3.7,0.4-5.5,0.5c-2.3,0.2-4.6,0.4-6.8,0.6c-1.4,0.1-2.9,0.2-4.3,0.3c-2.4,0.1-4.8,0.3-7.2,0.4
			c-1.3,0.1-2.7,0.1-4,0.2c-2.1,0.1-4.1,0.1-6.2,0.1c-1.4,0-2.9,0.1-4.3,0.1c-2.2,0-4.4,0-6.6-0.1c-1.3,0-2.6,0-3.9-0.1
			c-2-0.1-4.1-0.2-6.1-0.2c-1.4-0.1-2.8-0.1-4.2-0.2c-2.2-0.1-4.4-0.3-6.6-0.4c-1.2-0.1-2.5-0.2-3.7-0.3c-2.7-0.2-5.3-0.5-8-0.8
			c-0.8-0.1-1.5-0.1-2.3-0.2c-3.4-0.4-6.8-0.8-10.2-1.3c-0.5-0.1-1-0.2-1.6-0.2c-2.9-0.4-5.8-0.9-8.7-1.4c-1.2-0.2-2.4-0.4-3.6-0.7
			c-2.2-0.4-4.4-0.8-6.6-1.3c-1.1-0.2-2.3-0.5-3.4-0.7c-2.4-0.5-4.8-1-7.2-1.6c-1.3-0.3-2.6-0.7-3.9-1c-2.2-0.6-4.3-1.1-6.5-1.7
			c-1.8-0.5-3.7-1-5.5-1.6c-0.7-0.2-1.4-0.4-2.1-0.6c-2.7-0.8-5.4-1.7-8.1-2.6c-0.5-0.2-1-0.4-1.5-0.5c-2.2-0.8-4.4-1.6-6.6-2.4
			c-0.7-0.3-1.5-0.6-2.2-0.8c-1.7-0.7-3.4-1.4-5.2-2.1c-1.2-0.5-2.4-1-3.5-1.5c-1.7-0.7-3.3-1.5-4.9-2.2c-1.1-0.5-2.2-1-3.2-1.5
			c-1.8-0.8-3.5-1.7-5.3-2.6c-0.9-0.4-1.8-0.9-2.6-1.3c-2.6-1.4-5.2-2.8-7.7-4.2c-41.9-24.2-62.9-56-62.8-87.7l0,16.8
			c-0.1,31.7,20.8,63.5,62.8,87.7c2.5,1.4,5.1,2.8,7.7,4.2c0.9,0.5,1.8,0.9,2.6,1.3c1.8,0.9,3.5,1.8,5.3,2.6c1.1,0.5,2.2,1,3.2,1.5
			c1.6,0.7,3.3,1.5,4.9,2.2c1.2,0.5,2.4,1,3.5,1.5c1.1,0.5,2.2,1,3.4,1.4c0.6,0.2,1.2,0.4,1.8,0.7c0.7,0.3,1.5,0.6,2.2,0.8
			c2.2,0.8,4.4,1.6,6.6,2.4c0.5,0.2,1,0.4,1.5,0.5c2.7,0.9,5.4,1.8,8.1,2.6c0.7,0.2,1.4,0.4,2,0.6c1.2,0.3,2.3,0.7,3.5,1
			c0.6,0.2,1.3,0.3,2,0.5c2.1,0.6,4.3,1.2,6.5,1.7c1.3,0.3,2.6,0.7,3.9,1c2.4,0.6,4.8,1.1,7.2,1.6c0.9,0.2,1.8,0.4,2.7,0.6
			c0.2,0,0.5,0.1,0.7,0.1c2.2,0.4,4.4,0.8,6.6,1.3c1.2,0.2,2.4,0.5,3.6,0.7c2.9,0.5,5.8,0.9,8.6,1.4c0.5,0.1,1,0.2,1.6,0.2
			c0,0,0.1,0,0.1,0c3.4,0.5,6.8,0.9,10.2,1.3c0.8,0.1,1.5,0.1,2.3,0.2c2.6,0.3,5.3,0.6,8,0.8c0.1,0,0.1,0,0.2,0
			c1.2,0.1,2.4,0.2,3.5,0.2c2.2,0.2,4.4,0.3,6.6,0.4c1.4,0.1,2.8,0.1,4.3,0.2c2,0.1,4,0.2,6.1,0.2c0.2,0,0.3,0,0.5,0
			c1.1,0,2.3,0,3.4,0c2.2,0,4.4,0.1,6.6,0.1c1.4,0,2.9,0,4.3-0.1c2.1,0,4.2-0.1,6.2-0.1c0.4,0,0.8,0,1.1,0c1,0,1.9-0.1,2.9-0.1
			c2.4-0.1,4.8-0.2,7.2-0.4c1.4-0.1,2.9-0.2,4.3-0.3c2.3-0.2,4.6-0.4,6.8-0.6c0.8-0.1,1.6-0.1,2.4-0.2c1-0.1,2.1-0.2,3.1-0.3
			c0.7-0.1,1.5-0.2,2.2-0.2c2.9-0.3,5.9-0.7,8.8-1.1c0.4-0.1,0.9-0.1,1.3-0.2c2.6-0.4,5.1-0.8,7.6-1.2c0.8-0.1,1.5-0.3,2.3-0.4
			c0.6-0.1,1.2-0.2,1.8-0.3c1.1-0.2,2.1-0.4,3.2-0.6c1.9-0.4,3.7-0.7,5.6-1.1c1.5-0.3,3-0.7,4.5-1c1.8-0.4,3.6-0.8,5.4-1.2
			c1.5-0.4,3-0.7,4.5-1.1c1.8-0.5,3.5-0.9,5.3-1.4c1.5-0.4,2.9-0.8,4.4-1.3c1.7-0.5,3.5-1,5.2-1.6c0.7-0.2,1.5-0.4,2.3-0.7
			c1.1-0.3,2.1-0.7,3.1-1.1c0.6-0.2,1.3-0.4,1.9-0.7c2.6-0.9,5.3-1.9,7.9-2.9c0.5-0.2,1-0.4,1.4-0.6c2.2-0.9,4.4-1.7,6.5-2.6
			c0.7-0.3,1.3-0.5,1.9-0.8c2.5-1.1,5-2.2,7.5-3.4c0.3-0.1,0.6-0.3,0.9-0.4c2.2-1,4.4-2.1,6.5-3.2c0.6-0.3,1.3-0.7,1.9-1
			c2.4-1.3,4.7-2.6,7-3.9c0.9-0.5,1.7-1,2.6-1.5c0.2-0.1,0.4-0.2,0.6-0.4c0.7-0.4,1.3-0.8,2-1.2c0.6-0.4,1.2-0.7,1.8-1.1
			c0.6-0.4,1.3-0.8,1.9-1.2c0.6-0.4,1.1-0.7,1.7-1.1c0.6-0.4,1.2-0.8,1.9-1.3c0.5-0.4,1.1-0.8,1.6-1.1c0.6-0.4,1.2-0.9,1.8-1.3
			c0.5-0.4,1-0.8,1.6-1.1c0.6-0.4,1.2-0.9,1.8-1.3c0.5-0.4,1-0.8,1.5-1.1c0.6-0.5,1.1-0.9,1.7-1.4c0.5-0.4,1-0.8,1.4-1.2
			c0.6-0.5,1.1-0.9,1.6-1.4c0.5-0.4,0.9-0.8,1.4-1.2c0.5-0.5,1.1-1,1.6-1.4c0.4-0.3,0.8-0.7,1.1-1c0,0,0.1-0.1,0.1-0.1
			c1.1-1,2.2-2.1,3.2-3.1c0.3-0.3,0.5-0.6,0.8-0.8c0.8-0.8,1.6-1.6,2.3-2.4c0.3-0.3,0.6-0.6,0.9-1c0.8-0.9,1.6-1.8,2.4-2.7
			c0.1-0.2,0.3-0.3,0.5-0.5c0.9-1.1,1.8-2.2,2.7-3.2c0.1-0.1,0.2-0.2,0.2-0.3c0.2-0.3,0.4-0.5,0.6-0.8c0.5-0.6,0.9-1.2,1.4-1.9
			c0.3-0.4,0.6-0.8,0.9-1.2c0.4-0.6,0.9-1.2,1.3-1.8c0.3-0.4,0.5-0.8,0.8-1.2c0.4-0.6,0.8-1.2,1.2-1.9c0.2-0.4,0.5-0.8,0.7-1.2
			c0.4-0.7,0.8-1.3,1.2-2c0.2-0.3,0.3-0.5,0.5-0.8c0-0.1,0.1-0.2,0.1-0.2c0.3-0.6,0.6-1.2,1-1.8c0.2-0.4,0.4-0.8,0.6-1.1
			c0.4-0.7,0.7-1.4,1-2c0.1-0.3,0.3-0.6,0.4-0.9c0.5-1,0.9-2,1.3-2.9c0.1-0.2,0.1-0.3,0.2-0.5c0.3-0.8,0.7-1.6,1-2.5
			c0,0,0-0.1,0-0.1c0.1-0.4,0.3-0.7,0.4-1.1c0.2-0.6,0.4-1.1,0.6-1.7c0.1-0.4,0.3-0.8,0.4-1.3c0.2-0.6,0.4-1.1,0.5-1.7
			c0.1-0.4,0.2-0.9,0.4-1.3c0.1-0.5,0.3-1.1,0.4-1.6c0.1-0.4,0.2-0.9,0.3-1.3c0.1-0.5,0.2-1.1,0.4-1.6c0-0.1,0-0.2,0.1-0.3
			c0.1-0.4,0.1-0.7,0.2-1.1c0.1-0.5,0.2-1.1,0.3-1.6c0.1-0.5,0.1-0.9,0.2-1.4c0.1-0.5,0.2-1.1,0.2-1.6c0.1-0.5,0.1-0.9,0.1-1.4
			c0.1-0.5,0.1-1.1,0.1-1.6c0-0.5,0.1-0.9,0.1-1.4c0-0.5,0.1-1.1,0.1-1.6c0-0.2,0-0.3,0-0.5c0-0.6,0-1.2,0-1.9l0-16.8
			C450.3,440.2,450.2,441,450.2,441.8z"/>
		<g>
			<path class="st5" d="M134.4,498.8c57.4,33.1,150.1,33.1,207.1,0c57-33.1,56.7-86.9-0.7-120c-57.4-33.1-150.1-33.1-207.2,0
				C76.7,411.9,77,465.6,134.4,498.8 M387.5,351.7c83.3,48.1,83.7,126.1,1,174.2c-82.8,48.1-217.4,48.1-300.7,0
				c-83.3-48.1-83.8-126.1-1-174.2C169.6,303.6,304.2,303.6,387.5,351.7z"/>
		</g>
		<g class="st2">
			<path class="st3" d="M134.4,498.8c-10.3-6-18.8-12.6-25.4-19.6l-45.5,30c7.1,5.9,15.2,11.5,24.3,16.7c2.4,1.4,4.9,2.8,7.4,4.1
				l47.1-26.9C139.7,501.6,137,500.2,134.4,498.8z"/>
			<path class="st3" d="M340.9,378.8c3.2,1.8,6.1,3.7,8.9,5.7l47.1-26.9c-3-2-6.2-3.9-9.4-5.8c-15.7-9.1-33.2-16.4-51.9-22.1
				l-45.5,30C308.6,363.8,325.9,370.1,340.9,378.8z"/>
			<path class="st3" d="M410,367l-48.6,26.7c6.9,6.3,12.2,13.1,16,20l52.7-27C424.6,379.9,417.9,373.3,410,367z"/>
			<path class="st3" d="M177.5,516c-8.3-2.2-16.3-4.8-24-8L105,534.7c6.4,3,13.1,5.7,19.9,8.2L177.5,516z"/>
		</g>
	</g>
	<g>
		<path class="st4" d="M82.4,363.8c0.1-0.6,0.1-1.1,0.2-1.7c0.1-0.6,0.2-1.3,0.3-1.9c0.1-0.6,0.2-1.1,0.3-1.7
			c0.1-0.6,0.3-1.2,0.4-1.8c0.2-0.6,0.3-1.1,0.5-1.7c0.2-0.6,0.4-1.2,0.6-1.8c0.2-0.5,0.4-1.1,0.6-1.6c0.3-0.6,0.5-1.3,0.8-1.9
			c0.2-0.5,0.5-1.1,0.7-1.6c0.3-0.6,0.6-1.3,1-1.9c0.3-0.5,0.6-1,0.9-1.5c0.4-0.8,0.9-1.5,1.4-2.2c0.3-0.5,0.6-0.9,0.9-1.4
			c0.6-0.8,1.2-1.6,1.8-2.5c0.3-0.4,0.6-0.8,0.9-1.1c0.1-0.2,0.3-0.3,0.4-0.5c0.7-0.8,1.3-1.6,2.1-2.4c0.2-0.2,0.4-0.4,0.6-0.7
			c0.8-0.9,1.7-1.8,2.6-2.7c0.2-0.2,0.3-0.3,0.5-0.5c0.7-0.7,1.4-1.3,2.2-2c0.6-0.5,1.2-1.1,1.8-1.6c0.6-0.5,1.2-1,1.7-1.5
			c0.6-0.5,1.3-1,2-1.5c0.6-0.5,1.2-0.9,1.9-1.4c0.7-0.5,1.4-1,2.1-1.5c0.7-0.5,1.3-0.9,2-1.4c0.7-0.5,1.5-1,2.3-1.5
			c1-0.6,1.9-1.2,2.9-1.8c1.9-1.1,3.8-2.1,5.8-3.2c0.6-0.3,1.1-0.6,1.7-0.9c1.5-0.8,3.1-1.5,4.7-2.2c0.5-0.2,1.1-0.5,1.6-0.7
			c2.1-0.9,4.2-1.8,6.3-2.6c0.4-0.1,0.8-0.3,1.1-0.4c1.8-0.7,3.6-1.3,5.5-1.9c0.8-0.3,1.5-0.5,2.3-0.7c1-0.3,2-0.6,3.1-0.9
			c0.9-0.3,1.7-0.5,2.6-0.8c1-0.3,2.1-0.6,3.1-0.8c0.9-0.2,1.8-0.5,2.7-0.7c1.1-0.3,2.1-0.5,3.2-0.7c0.9-0.2,1.8-0.4,2.7-0.6
			c1.1-0.2,2.2-0.4,3.3-0.7c0.8-0.2,1.7-0.3,2.5-0.5c2.4-0.4,4.8-0.8,7.2-1.1c0.3,0,0.7-0.1,1-0.1c2.1-0.3,4.2-0.5,6.3-0.8
			c0.8-0.1,1.6-0.2,2.4-0.2c1.4-0.1,2.7-0.2,4.1-0.3c0.9-0.1,1.7-0.1,2.6-0.2c1.4-0.1,2.8-0.2,4.3-0.2c0.8,0,1.6-0.1,2.4-0.1
			c1.2,0,2.5-0.1,3.7-0.1c0.9,0,1.7,0,2.6,0c1.3,0,2.6,0,4,0c0.8,0,1.6,0,2.3,0c1.2,0,2.4,0.1,3.6,0.1c0.8,0,1.7,0.1,2.5,0.1
			c1.3,0.1,2.6,0.2,3.9,0.3c0.7,0.1,1.5,0.1,2.2,0.2c1.5,0.1,3.1,0.3,4.6,0.4c0.5,0.1,1,0.1,1.5,0.1c2,0.2,4,0.5,6,0.8
			c0.3,0,0.6,0.1,0.9,0.1c1.8,0.3,3.5,0.5,5.3,0.8c0.7,0.1,1.4,0.3,2.1,0.4c1.3,0.2,2.6,0.5,3.9,0.7c0.7,0.1,1.3,0.3,2,0.4
			c1.4,0.3,2.9,0.6,4.3,1c0.8,0.2,1.6,0.4,2.3,0.6c1.3,0.3,2.6,0.7,3.8,1c0.7,0.2,1.4,0.4,2.2,0.6c2,0.6,4,1.2,6,1.9
			c0.3,0.1,0.7,0.2,1.1,0.3c2.3,0.8,4.5,1.6,6.7,2.4c0.9,0.3,1.8,0.7,2.7,1.1c0.7,0.3,1.4,0.6,2.1,0.9c1,0.4,2,0.9,2.9,1.3
			c0.6,0.3,1.3,0.6,1.9,0.9c1.1,0.5,2.1,1,3.2,1.6c0.5,0.3,1,0.5,1.6,0.8c1.5,0.8,3.1,1.6,4.6,2.5c24.9,14.4,37.4,33.3,37.3,52.2
			l0-14.5c0.1-18.9-12.4-37.8-37.3-52.2c-1.5-0.9-3-1.7-4.6-2.5c-0.5-0.3-1-0.5-1.6-0.8c-1-0.5-2.1-1.1-3.2-1.6
			c-0.6-0.3-1.3-0.6-1.9-0.9c-1-0.4-2-0.9-3-1.3c-0.7-0.3-1.4-0.6-2.1-0.9c-0.7-0.3-1.3-0.6-2-0.8c-0.2-0.1-0.4-0.2-0.6-0.2
			c-2.2-0.9-4.4-1.7-6.7-2.4c-0.3-0.1-0.7-0.2-1.1-0.3c-2-0.7-4-1.3-6-1.9c-0.3-0.1-0.7-0.2-1-0.3c-0.4-0.1-0.8-0.2-1.2-0.3
			c-1.3-0.4-2.6-0.7-3.8-1c-0.8-0.2-1.6-0.4-2.3-0.6c-1.4-0.3-2.8-0.7-4.3-1c-0.5-0.1-1.1-0.2-1.6-0.4c-0.1,0-0.3-0.1-0.4-0.1
			c-1.3-0.3-2.6-0.5-3.9-0.7c-0.7-0.1-1.4-0.3-2.1-0.4c-1.7-0.3-3.5-0.6-5.2-0.8c-0.3,0-0.6-0.1-0.9-0.1c0,0,0,0,0,0
			c-2-0.3-4-0.5-6-0.8c-0.5-0.1-1-0.1-1.6-0.2c-1.5-0.2-3-0.3-4.5-0.4c0,0-0.1,0-0.1,0c-0.7-0.1-1.4-0.1-2.2-0.1
			c-1.3-0.1-2.6-0.2-3.9-0.3c-0.8,0-1.7-0.1-2.5-0.1c-1.2-0.1-2.4-0.1-3.6-0.1c-0.1,0-0.2,0-0.3,0c-0.7,0-1.4,0-2,0
			c-1.3,0-2.6,0-4,0c-0.9,0-1.7,0-2.6,0c-1.2,0-2.5,0-3.7,0.1c-0.2,0-0.5,0-0.7,0c-0.6,0-1.1,0.1-1.7,0.1c-1.4,0.1-2.8,0.1-4.3,0.2
			c-0.9,0.1-1.7,0.1-2.6,0.2c-1.4,0.1-2.7,0.2-4.1,0.3c-0.5,0-1,0.1-1.4,0.1c-0.3,0-0.7,0.1-1,0.1c-2.1,0.2-4.2,0.5-6.3,0.8
			c-0.3,0-0.7,0.1-1,0.1c-2.4,0.3-4.8,0.7-7.2,1.1c-0.2,0-0.4,0.1-0.7,0.1c-0.6,0.1-1.2,0.2-1.9,0.4c-1.1,0.2-2.2,0.4-3.3,0.7
			c-0.9,0.2-1.8,0.4-2.7,0.6c-1.1,0.2-2.2,0.5-3.2,0.7c-0.9,0.2-1.8,0.4-2.7,0.7c-1.1,0.3-2.1,0.5-3.1,0.8c-0.9,0.2-1.8,0.5-2.6,0.8
			c-1,0.3-2.1,0.6-3.1,0.9c-0.4,0.1-0.9,0.3-1.4,0.4c-0.3,0.1-0.6,0.2-0.9,0.3c-1.9,0.6-3.7,1.3-5.5,1.9c-0.4,0.1-0.8,0.3-1.1,0.4
			c-2.1,0.8-4.2,1.7-6.3,2.6c-0.5,0.2-1.1,0.5-1.6,0.7c-1.6,0.7-3.2,1.4-4.7,2.2c-0.6,0.3-1.2,0.6-1.7,0.9c-2,1-3.9,2.1-5.8,3.2
			c-0.5,0.3-1,0.6-1.5,0.9c-0.5,0.3-0.9,0.6-1.4,0.9c-0.8,0.5-1.5,1-2.3,1.5c-0.7,0.5-1.4,0.9-2,1.4c-0.7,0.5-1.4,1-2.1,1.5
			c-0.6,0.5-1.3,0.9-1.9,1.4c-0.7,0.5-1.3,1-2,1.5c-0.6,0.5-1.2,1-1.7,1.5c-0.6,0.5-1.2,1.1-1.8,1.6c-0.2,0.2-0.5,0.4-0.8,0.7
			c-0.5,0.5-1,0.9-1.4,1.4c-0.2,0.2-0.3,0.3-0.5,0.5c-0.9,0.9-1.8,1.8-2.6,2.7c-0.2,0.2-0.4,0.4-0.6,0.7c-0.7,0.8-1.4,1.6-2.1,2.4
			c-0.1,0.2-0.3,0.3-0.4,0.5c-0.1,0.1-0.1,0.2-0.2,0.2c-0.2,0.3-0.4,0.6-0.7,0.9c-0.6,0.8-1.2,1.6-1.8,2.4c-0.3,0.4-0.6,0.9-0.9,1.4
			c-0.5,0.7-0.9,1.5-1.4,2.2c-0.1,0.2-0.3,0.4-0.4,0.6c-0.2,0.3-0.3,0.6-0.5,0.9c-0.3,0.6-0.7,1.3-1,1.9c-0.3,0.5-0.5,1.1-0.7,1.6
			c-0.3,0.6-0.6,1.3-0.8,1.9c-0.1,0.3-0.3,0.6-0.4,0.9c-0.1,0.3-0.2,0.5-0.3,0.8c-0.2,0.6-0.4,1.2-0.6,1.8c-0.2,0.6-0.3,1.1-0.5,1.7
			c-0.2,0.6-0.3,1.2-0.4,1.8c-0.1,0.3-0.2,0.7-0.2,1c0,0.2-0.1,0.4-0.1,0.7c-0.1,0.6-0.2,1.3-0.3,1.9c-0.1,0.6-0.2,1.1-0.2,1.7
			c-0.1,0.6-0.1,1.3-0.1,1.9c0,0.4-0.1,0.7-0.1,1.1c0,0.4,0,0.7,0,1.1l0,14.5c0-0.7,0.1-1.5,0.1-2.2
			C82.3,365.1,82.3,364.5,82.4,363.8z"/>
		<path class="st6" d="M392.3,356.4c0,0.5,0,0.9-0.1,1.4c0,0.4,0,0.8-0.1,1.2c0,0.5-0.1,0.9-0.1,1.4c0,0.4-0.1,0.8-0.1,1.2
			c-0.1,0.5-0.1,0.9-0.2,1.4c-0.1,0.4-0.1,0.8-0.2,1.2c-0.1,0.5-0.2,0.9-0.3,1.4c-0.1,0.4-0.1,0.8-0.2,1.2c-0.1,0.5-0.2,0.9-0.3,1.4
			c-0.1,0.4-0.2,0.8-0.3,1.2c-0.1,0.5-0.2,0.9-0.4,1.4c-0.1,0.4-0.2,0.8-0.3,1.1c-0.1,0.5-0.3,1-0.4,1.4c-0.1,0.4-0.2,0.7-0.3,1.1
			c-0.2,0.5-0.4,1-0.5,1.5c-0.1,0.3-0.2,0.7-0.4,1c-0.3,0.7-0.6,1.5-0.9,2.2c-0.1,0.1-0.1,0.2-0.1,0.4c-0.4,0.9-0.7,1.7-1.1,2.5
			c-0.1,0.3-0.2,0.5-0.4,0.8c-0.3,0.6-0.6,1.2-0.9,1.8c-0.2,0.3-0.3,0.6-0.5,1c-0.3,0.5-0.5,1-0.8,1.5c-0.2,0.3-0.3,0.6-0.5,0.9
			c-0.3,0.6-0.7,1.2-1,1.7c-0.2,0.3-0.4,0.7-0.6,1c-0.3,0.5-0.7,1.1-1,1.6c-0.2,0.3-0.5,0.7-0.7,1c-0.4,0.5-0.7,1-1.1,1.6
			c-0.2,0.3-0.5,0.7-0.7,1c-0.4,0.5-0.8,1.1-1.2,1.6c-0.2,0.3-0.5,0.6-0.7,0.9c-0.7,0.9-1.5,1.9-2.3,2.8c-0.1,0.1-0.3,0.3-0.4,0.4
			c-0.7,0.8-1.4,1.6-2.1,2.3c-0.3,0.3-0.5,0.6-0.8,0.8c-0.7,0.7-1.3,1.4-2,2.1c-0.2,0.2-0.5,0.5-0.7,0.7c-0.9,0.9-1.8,1.8-2.8,2.7
			c-0.3,0.3-0.7,0.6-1.1,1c-0.5,0.4-0.9,0.8-1.4,1.3c-0.4,0.3-0.8,0.7-1.2,1c-0.5,0.4-0.9,0.8-1.4,1.2c-0.4,0.3-0.8,0.7-1.2,1
			c-0.5,0.4-1,0.8-1.5,1.2c-0.4,0.3-0.9,0.7-1.3,1c-0.5,0.4-1,0.8-1.5,1.2c-0.4,0.3-0.9,0.7-1.4,1c-0.5,0.4-1,0.8-1.6,1.1
			c-0.5,0.3-0.9,0.7-1.4,1c-0.5,0.4-1.1,0.7-1.6,1.1c-0.5,0.3-1,0.6-1.5,1c-0.5,0.4-1.1,0.7-1.7,1.1c-0.5,0.3-1,0.6-1.5,1
			c-0.6,0.4-1.1,0.7-1.7,1.1c-0.9,0.5-1.8,1.1-2.7,1.6c-2,1.2-4,2.3-6.1,3.4c-0.5,0.3-1.1,0.6-1.6,0.9c-1.8,1-3.7,1.9-5.6,2.8
			c-0.3,0.1-0.5,0.2-0.8,0.4c-2.1,1-4.3,2-6.5,2.9c-0.6,0.2-1.1,0.5-1.7,0.7c-1.9,0.8-3.7,1.5-5.6,2.3c-0.4,0.2-0.8,0.3-1.2,0.5
			c-2.2,0.9-4.5,1.7-6.8,2.5c-0.6,0.2-1.1,0.4-1.7,0.6c-1.5,0.5-3.1,1-4.7,1.5c-1.5,0.5-3,0.9-4.5,1.4c-1.3,0.4-2.5,0.7-3.8,1.1
			c-1.5,0.4-3,0.8-4.6,1.2c-1.3,0.3-2.6,0.7-3.9,1c-1.6,0.4-3.1,0.7-4.7,1.1c-1.3,0.3-2.6,0.6-3.9,0.9c-1.6,0.3-3.2,0.6-4.8,0.9
			c-1.4,0.3-2.8,0.6-4.3,0.8c-0.6,0.1-1.3,0.2-1.9,0.3c-2.2,0.4-4.4,0.7-6.6,1c-0.4,0.1-0.8,0.1-1.1,0.2c-2.5,0.4-5.1,0.7-7.6,1
			c-0.6,0.1-1.3,0.1-1.9,0.2c-1.6,0.2-3.2,0.3-4.7,0.5c-2,0.2-3.9,0.3-5.9,0.5c-1.2,0.1-2.5,0.2-3.7,0.3c-2.1,0.1-4.1,0.2-6.2,0.3
			c-1.2,0-2.3,0.1-3.5,0.1c-1.8,0.1-3.6,0.1-5.4,0.1c-1.2,0-2.5,0-3.7,0.1c-1.9,0-3.8,0-5.7-0.1c-1.1,0-2.3,0-3.4,0
			c-1.8,0-3.5-0.1-5.3-0.2c-1.2-0.1-2.4-0.1-3.6-0.2c-1.9-0.1-3.8-0.2-5.7-0.4c-1.1-0.1-2.1-0.1-3.2-0.2c-2.3-0.2-4.6-0.4-6.9-0.7
			c-0.7-0.1-1.3-0.1-2-0.2c-2.9-0.3-5.9-0.7-8.8-1.1c-0.5-0.1-0.9-0.1-1.3-0.2c-2.5-0.4-5-0.8-7.5-1.2c-1-0.2-2.1-0.4-3.1-0.6
			c-1.9-0.3-3.8-0.7-5.7-1.1c-1-0.2-1.9-0.4-2.9-0.6c-2.1-0.4-4.1-0.9-6.2-1.4c-1.1-0.3-2.3-0.6-3.4-0.9c-1.9-0.5-3.7-1-5.6-1.5
			c-1.6-0.4-3.2-0.9-4.7-1.4c-0.6-0.2-1.2-0.3-1.8-0.5c-2.4-0.7-4.7-1.5-7-2.3c-0.4-0.2-0.9-0.3-1.3-0.5c-1.9-0.7-3.8-1.4-5.7-2.1
			c-0.6-0.2-1.3-0.5-1.9-0.7c-1.5-0.6-3-1.2-4.5-1.8c-1-0.4-2-0.8-3-1.3c-1.4-0.6-2.8-1.3-4.3-1.9c-0.9-0.4-1.9-0.8-2.8-1.3
			c-1.5-0.7-3.1-1.5-4.6-2.3c-0.8-0.4-1.5-0.7-2.3-1.1c-2.2-1.2-4.5-2.4-6.6-3.6C43,408.2,25,380.7,25,353.3l0,14.5
			c-0.1,27.4,18,54.8,54.2,75.7c2.2,1.2,4.4,2.5,6.6,3.6c0.7,0.4,1.5,0.8,2.3,1.1c1.5,0.8,3,1.5,4.6,2.3c0.9,0.4,1.9,0.9,2.8,1.3
			c1.4,0.6,2.8,1.3,4.3,1.9c1,0.4,2,0.8,3,1.3c1,0.4,1.9,0.8,2.9,1.2c0.5,0.2,1,0.4,1.5,0.6c0.6,0.2,1.3,0.5,1.9,0.7
			c1.9,0.7,3.8,1.4,5.7,2.1c0.4,0.2,0.9,0.3,1.3,0.5c2.3,0.8,4.7,1.5,7,2.3c0.6,0.2,1.2,0.4,1.8,0.5c1,0.3,2,0.6,3,0.9
			c0.6,0.2,1.1,0.3,1.7,0.4c1.8,0.5,3.7,1,5.6,1.5c1.1,0.3,2.3,0.6,3.4,0.9c2,0.5,4.1,0.9,6.2,1.4c0.8,0.2,1.5,0.4,2.3,0.5
			c0.2,0,0.4,0.1,0.6,0.1c1.9,0.4,3.8,0.7,5.7,1.1c1,0.2,2.1,0.4,3.1,0.6c2.5,0.4,5,0.8,7.5,1.2c0.4,0.1,0.9,0.1,1.3,0.2
			c0,0,0,0,0.1,0c2.9,0.4,5.8,0.8,8.8,1.1c0.7,0.1,1.3,0.1,2,0.2c2.3,0.2,4.6,0.5,6.9,0.7c0.1,0,0.1,0,0.2,0c1,0.1,2,0.1,3.1,0.2
			c1.9,0.1,3.8,0.3,5.7,0.4c1.2,0.1,2.5,0.1,3.7,0.2c1.7,0.1,3.5,0.2,5.2,0.2c0.1,0,0.3,0,0.4,0c1,0,2,0,3,0c1.9,0,3.8,0.1,5.7,0.1
			c1.2,0,2.5,0,3.7-0.1c1.8,0,3.6,0,5.4-0.1c0.3,0,0.7,0,1,0c0.8,0,1.7-0.1,2.5-0.1c2.1-0.1,4.1-0.2,6.2-0.3
			c1.2-0.1,2.5-0.2,3.7-0.3c2-0.1,3.9-0.3,5.9-0.5c0.7-0.1,1.4-0.1,2.1-0.2c0.9-0.1,1.8-0.2,2.7-0.3c0.6-0.1,1.3-0.1,1.9-0.2
			c2.5-0.3,5.1-0.6,7.6-1c0.4-0.1,0.8-0.1,1.1-0.2c2.2-0.3,4.4-0.7,6.6-1c0.6-0.1,1.3-0.2,1.9-0.3c0.5-0.1,1-0.2,1.6-0.3
			c0.9-0.2,1.8-0.4,2.7-0.5c1.6-0.3,3.2-0.6,4.8-0.9c1.3-0.3,2.6-0.6,3.9-0.9c1.6-0.3,3.1-0.7,4.7-1.1c1.3-0.3,2.6-0.6,3.9-1
			c1.5-0.4,3.1-0.8,4.6-1.2c1.3-0.4,2.5-0.7,3.8-1.1c1.5-0.4,3-0.9,4.5-1.4c0.6-0.2,1.3-0.4,2-0.6c0.9-0.3,1.8-0.6,2.7-0.9
			c0.6-0.2,1.1-0.4,1.7-0.6c2.3-0.8,4.5-1.6,6.8-2.5c0.4-0.2,0.8-0.3,1.2-0.5c1.9-0.7,3.8-1.5,5.6-2.3c0.6-0.2,1.1-0.5,1.7-0.7
			c2.2-0.9,4.3-1.9,6.5-2.9c0.3-0.1,0.5-0.2,0.7-0.4c1.9-0.9,3.8-1.8,5.6-2.8c0.5-0.3,1.1-0.6,1.6-0.9c2.1-1.1,4.1-2.2,6.1-3.4
			c0.8-0.4,1.5-0.9,2.2-1.3c0.2-0.1,0.3-0.2,0.5-0.3c0.6-0.3,1.1-0.7,1.7-1.1c0.5-0.3,1-0.6,1.5-1c0.6-0.4,1.1-0.7,1.7-1.1
			c0.5-0.3,1-0.6,1.5-1c0.5-0.4,1.1-0.7,1.6-1.1c0.5-0.3,0.9-0.7,1.4-1c0.5-0.4,1-0.8,1.6-1.1c0.5-0.3,0.9-0.7,1.3-1
			c0.5-0.4,1-0.8,1.5-1.2c0.4-0.3,0.9-0.7,1.3-1c0.5-0.4,1-0.8,1.5-1.2c0.4-0.3,0.8-0.7,1.2-1c0.5-0.4,0.9-0.8,1.4-1.2
			c0.4-0.3,0.8-0.7,1.2-1c0.5-0.4,0.9-0.8,1.4-1.2c0.3-0.3,0.7-0.6,1-0.9c0,0,0.1-0.1,0.1-0.1c1-0.9,1.9-1.8,2.8-2.7
			c0.2-0.2,0.5-0.5,0.7-0.7c0.7-0.7,1.4-1.4,2-2.1c0.3-0.3,0.5-0.6,0.8-0.8c0.7-0.8,1.4-1.6,2.1-2.3c0.1-0.1,0.3-0.3,0.4-0.4
			c0.8-0.9,1.6-1.9,2.3-2.8c0.1-0.1,0.1-0.2,0.2-0.2c0.2-0.2,0.3-0.5,0.5-0.7c0.4-0.5,0.8-1.1,1.2-1.6c0.3-0.3,0.5-0.7,0.7-1
			c0.4-0.5,0.7-1,1.1-1.6c0.2-0.3,0.5-0.7,0.7-1c0.4-0.5,0.7-1.1,1-1.6c0.2-0.3,0.4-0.7,0.6-1c0.4-0.6,0.7-1.2,1-1.7
			c0.1-0.2,0.3-0.5,0.4-0.7c0-0.1,0.1-0.1,0.1-0.2c0.3-0.5,0.6-1,0.8-1.5c0.2-0.3,0.4-0.7,0.5-1c0.3-0.6,0.6-1.2,0.9-1.8
			c0.1-0.3,0.3-0.5,0.4-0.8c0.4-0.8,0.8-1.7,1.1-2.5c0.1-0.1,0.1-0.3,0.2-0.4c0.3-0.7,0.6-1.4,0.8-2.1c0,0,0-0.1,0-0.1
			c0.1-0.3,0.2-0.6,0.3-1c0.2-0.5,0.4-1,0.5-1.5c0.1-0.4,0.2-0.7,0.3-1.1c0.2-0.5,0.3-1,0.4-1.4c0.1-0.4,0.2-0.8,0.3-1.1
			c0.1-0.5,0.3-0.9,0.4-1.4c0.1-0.4,0.2-0.8,0.3-1.2c0.1-0.5,0.2-0.9,0.3-1.4c0-0.1,0-0.2,0.1-0.2c0.1-0.3,0.1-0.6,0.2-0.9
			c0.1-0.5,0.2-0.9,0.3-1.4c0.1-0.4,0.1-0.8,0.2-1.2c0.1-0.5,0.1-0.9,0.2-1.4c0-0.4,0.1-0.8,0.1-1.2c0-0.5,0.1-0.9,0.1-1.4
			c0-0.4,0.1-0.8,0.1-1.2c0-0.5,0.1-0.9,0.1-1.4c0-0.2,0-0.3,0-0.5c0-0.5,0-1.1,0-1.6l0-14.5C392.3,355.1,392.3,355.7,392.3,356.4z"
			/>
		<g>
			<path class="st7" d="M119.5,405.7c49.6,28.6,129.7,28.6,178.9,0c49.2-28.6,49-75-0.6-103.6c-49.6-28.6-129.7-28.6-178.9,0
				C69.7,330.6,69.9,377,119.5,405.7 M338.1,278.6c72,41.5,72.3,108.9,0.8,150.4c-71.5,41.5-187.8,41.5-259.7,0
				c-72-41.5-72.3-108.9-0.9-150.4C149.9,237.1,266.2,237.1,338.1,278.6z"/>
		</g>
		<g class="st2">
			<path class="st3" d="M119.5,405.7c-8.9-5.1-16.2-10.9-21.9-17l-39.3,25.9c6.1,5.1,13.1,9.9,21,14.4c2.1,1.2,4.3,2.4,6.4,3.5
				l40.7-23.3C124,408.2,121.7,407,119.5,405.7z"/>
			<path class="st3" d="M297.9,302c2.7,1.6,5.3,3.2,7.7,4.9l40.7-23.3c-2.6-1.7-5.3-3.4-8.2-5c-13.6-7.8-28.7-14.2-44.8-19.1
				L254,285.5C269.9,289.1,284.9,294.6,297.9,302z"/>
			<path class="st3" d="M357.6,291.8l-41.9,23.1c6,5.5,10.6,11.3,13.8,17.3l45.5-23.3C370.1,303,364.3,297.3,357.6,291.8z"/>
			<path class="st3" d="M156.7,420.6c-7.2-1.9-14.1-4.2-20.7-6.9l-41.9,23.1c5.5,2.6,11.3,4.9,17.2,7.1L156.7,420.6z"/>
		</g>
	</g>
	<g>
		<path class="st6" d="M73.3,286.9c0-0.5,0.1-0.9,0.2-1.4c0.1-0.5,0.2-1.1,0.3-1.6c0.1-0.5,0.2-0.9,0.3-1.4c0.1-0.5,0.2-1,0.4-1.6
			c0.1-0.5,0.3-0.9,0.4-1.4c0.2-0.5,0.3-1,0.5-1.5c0.2-0.5,0.3-0.9,0.5-1.4c0.2-0.5,0.4-1.1,0.7-1.6c0.2-0.4,0.4-0.9,0.6-1.3
			c0.3-0.5,0.5-1.1,0.8-1.6c0.2-0.4,0.5-0.9,0.7-1.3c0.4-0.6,0.8-1.3,1.2-1.9c0.2-0.4,0.5-0.8,0.7-1.1c0.5-0.7,1-1.4,1.5-2.1
			c0.2-0.3,0.5-0.6,0.7-1c0.1-0.1,0.2-0.3,0.4-0.4c0.6-0.7,1.1-1.4,1.7-2c0.2-0.2,0.3-0.4,0.5-0.6c0.7-0.8,1.5-1.6,2.2-2.3
			c0.1-0.1,0.3-0.3,0.4-0.4c0.6-0.6,1.2-1.1,1.8-1.7c0.5-0.5,1-0.9,1.5-1.3c0.5-0.4,1-0.8,1.5-1.2c0.5-0.4,1.1-0.9,1.7-1.3
			c0.5-0.4,1-0.8,1.6-1.2c0.6-0.4,1.2-0.8,1.8-1.3c0.6-0.4,1.1-0.8,1.7-1.2c0.6-0.4,1.3-0.8,1.9-1.2c0.8-0.5,1.6-1,2.5-1.5
			c1.6-0.9,3.2-1.8,4.9-2.7c0.5-0.2,1-0.5,1.5-0.7c1.3-0.6,2.6-1.3,3.9-1.9c0.5-0.2,0.9-0.4,1.4-0.6c1.7-0.8,3.5-1.5,5.3-2.2
			c0.3-0.1,0.6-0.2,1-0.3c1.5-0.6,3.1-1.1,4.6-1.6c0.6-0.2,1.3-0.4,1.9-0.6c0.9-0.3,1.7-0.5,2.6-0.8c0.7-0.2,1.5-0.4,2.2-0.6
			c0.9-0.2,1.8-0.5,2.7-0.7c0.7-0.2,1.5-0.4,2.2-0.6c0.9-0.2,1.8-0.4,2.7-0.6c0.7-0.2,1.5-0.3,2.3-0.5c0.9-0.2,1.9-0.4,2.8-0.5
			c0.7-0.1,1.4-0.3,2.1-0.4c2-0.4,4-0.7,6-1c0.3,0,0.6-0.1,0.8-0.1c1.8-0.2,3.5-0.4,5.3-0.6c0.7-0.1,1.4-0.1,2-0.2
			c1.1-0.1,2.3-0.2,3.4-0.3c0.7-0.1,1.4-0.1,2.2-0.1c1.2-0.1,2.4-0.1,3.6-0.2c0.7,0,1.3-0.1,2-0.1c1,0,2.1,0,3.1-0.1
			c0.7,0,1.4,0,2.2,0c1.1,0,2.2,0,3.3,0c0.7,0,1.3,0,2,0c1,0,2,0.1,3,0.1c0.7,0,1.4,0.1,2.2,0.1c1.1,0.1,2.2,0.1,3.3,0.2
			c0.6,0,1.3,0.1,1.9,0.1c1.3,0.1,2.6,0.2,3.9,0.4c0.4,0,0.9,0.1,1.3,0.1c1.7,0.2,3.4,0.4,5.1,0.6c0.2,0,0.5,0.1,0.7,0.1
			c1.5,0.2,2.9,0.4,4.4,0.7c0.6,0.1,1.2,0.2,1.8,0.3c1.1,0.2,2.2,0.4,3.3,0.6c0.6,0.1,1.1,0.2,1.7,0.4c1.2,0.3,2.4,0.5,3.6,0.8
			c0.7,0.2,1.3,0.3,2,0.5c1.1,0.3,2.2,0.6,3.2,0.9c0.6,0.2,1.2,0.3,1.8,0.5c1.7,0.5,3.4,1,5,1.6c0.3,0.1,0.6,0.2,0.9,0.3
			c1.9,0.6,3.8,1.3,5.6,2.1c0.8,0.3,1.5,0.6,2.2,0.9c0.6,0.2,1.2,0.5,1.8,0.7c0.8,0.4,1.7,0.7,2.5,1.1c0.5,0.2,1.1,0.5,1.6,0.7
			c0.9,0.4,1.8,0.9,2.7,1.3c0.4,0.2,0.9,0.4,1.3,0.7c1.3,0.7,2.6,1.4,3.8,2.1c21,12.1,31.5,28.1,31.5,43.9l0-14.5
			c0-15.9-10.4-31.8-31.5-43.9c-1.3-0.7-2.5-1.4-3.8-2.1c-0.4-0.2-0.9-0.4-1.3-0.7c-0.9-0.4-1.8-0.9-2.7-1.3
			c-0.5-0.3-1.1-0.5-1.6-0.7c-0.8-0.4-1.6-0.7-2.5-1.1c-0.6-0.3-1.2-0.5-1.8-0.7c-0.6-0.2-1.1-0.5-1.7-0.7c-0.2-0.1-0.4-0.1-0.5-0.2
			c-1.8-0.7-3.7-1.4-5.6-2.1c-0.3-0.1-0.6-0.2-0.9-0.3c-1.7-0.5-3.3-1.1-5-1.6c-0.3-0.1-0.6-0.2-0.8-0.3c-0.3-0.1-0.7-0.2-1-0.3
			c-1.1-0.3-2.1-0.6-3.2-0.9c-0.7-0.2-1.3-0.3-2-0.5c-1.2-0.3-2.4-0.5-3.6-0.8c-0.4-0.1-0.9-0.2-1.3-0.3c-0.1,0-0.2,0-0.4-0.1
			c-1.1-0.2-2.2-0.4-3.3-0.6c-0.6-0.1-1.2-0.2-1.8-0.3c-1.4-0.2-2.9-0.5-4.4-0.7c-0.3,0-0.5-0.1-0.8-0.1c0,0,0,0,0,0
			c-1.7-0.2-3.4-0.5-5.1-0.6c-0.5-0.1-0.9-0.1-1.4-0.1c-1.3-0.1-2.5-0.3-3.8-0.4c0,0-0.1,0-0.1,0c-0.6,0-1.2-0.1-1.8-0.1
			c-1.1-0.1-2.2-0.2-3.3-0.2c-0.7,0-1.4-0.1-2.2-0.1c-1,0-2-0.1-3-0.1c-0.1,0-0.2,0-0.3,0c-0.6,0-1.2,0-1.7,0c-1.1,0-2.2,0-3.3,0
			c-0.7,0-1.5,0-2.2,0c-1,0-2.1,0-3.1,0.1c-0.2,0-0.4,0-0.6,0c-0.5,0-1,0.1-1.5,0.1c-1.2,0.1-2.4,0.1-3.6,0.2
			c-0.7,0-1.4,0.1-2.2,0.2c-1.1,0.1-2.3,0.2-3.4,0.3c-0.4,0-0.8,0.1-1.2,0.1c-0.3,0-0.6,0.1-0.8,0.1c-1.8,0.2-3.6,0.4-5.3,0.6
			c-0.3,0-0.6,0.1-0.8,0.1c-2,0.3-4,0.6-6,1c-0.2,0-0.4,0.1-0.6,0.1c-0.5,0.1-1.1,0.2-1.6,0.3c-0.9,0.2-1.9,0.4-2.8,0.5
			c-0.8,0.2-1.5,0.3-2.3,0.5c-0.9,0.2-1.8,0.4-2.7,0.6c-0.8,0.2-1.5,0.4-2.2,0.6c-0.9,0.2-1.8,0.5-2.6,0.7c-0.7,0.2-1.5,0.4-2.2,0.6
			c-0.9,0.3-1.7,0.5-2.6,0.8c-0.4,0.1-0.8,0.2-1.1,0.3c-0.3,0.1-0.5,0.2-0.8,0.3c-1.6,0.5-3.1,1.1-4.6,1.6c-0.3,0.1-0.6,0.2-1,0.3
			c-1.8,0.7-3.6,1.4-5.3,2.2c-0.5,0.2-0.9,0.4-1.4,0.6c-1.3,0.6-2.7,1.2-3.9,1.9c-0.5,0.2-1,0.5-1.5,0.7c-1.7,0.9-3.3,1.7-4.9,2.7
			c-0.4,0.3-0.9,0.5-1.3,0.8c-0.4,0.2-0.8,0.5-1.2,0.7c-0.7,0.4-1.3,0.8-1.9,1.2c-0.6,0.4-1.1,0.8-1.7,1.1c-0.6,0.4-1.2,0.8-1.8,1.3
			c-0.5,0.4-1.1,0.8-1.6,1.2c-0.6,0.4-1.1,0.9-1.7,1.3c-0.5,0.4-1,0.8-1.5,1.2c-0.5,0.4-1,0.9-1.5,1.3c-0.2,0.2-0.4,0.4-0.6,0.6
			c-0.4,0.4-0.8,0.8-1.2,1.1c-0.1,0.1-0.3,0.3-0.4,0.4c-0.8,0.8-1.5,1.5-2.2,2.3c-0.2,0.2-0.3,0.4-0.5,0.6c-0.6,0.7-1.2,1.3-1.7,2
			c-0.1,0.1-0.2,0.3-0.4,0.4c-0.1,0.1-0.1,0.1-0.2,0.2c-0.2,0.2-0.4,0.5-0.6,0.8c-0.5,0.7-1,1.4-1.5,2.1c-0.3,0.4-0.5,0.8-0.7,1.1
			c-0.4,0.6-0.8,1.3-1.2,1.9c-0.1,0.2-0.2,0.3-0.3,0.5c-0.1,0.3-0.3,0.5-0.4,0.8c-0.3,0.5-0.6,1.1-0.8,1.6c-0.2,0.4-0.4,0.9-0.6,1.3
			c-0.2,0.5-0.5,1.1-0.7,1.6c-0.1,0.2-0.2,0.5-0.3,0.7c-0.1,0.2-0.1,0.4-0.2,0.7c-0.2,0.5-0.3,1-0.5,1.5c-0.1,0.5-0.3,0.9-0.4,1.4
			c-0.1,0.5-0.3,1-0.4,1.6c-0.1,0.3-0.1,0.6-0.2,0.8c0,0.2-0.1,0.4-0.1,0.6c-0.1,0.5-0.2,1.1-0.3,1.6c-0.1,0.5-0.1,0.9-0.2,1.4
			c-0.1,0.5-0.1,1.1-0.1,1.6c0,0.3-0.1,0.6-0.1,0.9c0,0.3,0,0.6,0,0.9l0,14.5c0-0.6,0-1.3,0.1-1.9C73.2,288,73.3,287.4,73.3,286.9z"
			/>
		<path class="st8" d="M334.3,279.4c0,0.8-0.1,1.6-0.2,2.3c-0.1,0.7-0.2,1.4-0.3,2c-0.1,0.8-0.2,1.5-0.4,2.3c-0.1,0.7-0.3,1.4-0.4,2
			c-0.2,0.8-0.3,1.5-0.6,2.3c-0.2,0.7-0.4,1.4-0.6,2c-0.2,0.7-0.5,1.5-0.7,2.2c-0.2,0.7-0.5,1.3-0.8,2c-0.3,0.8-0.6,1.6-1,2.3
			c-0.3,0.7-0.6,1.3-0.9,2c-0.4,0.8-0.8,1.5-1.2,2.3c-0.4,0.8-0.9,1.6-1.4,2.5c-0.1,0.2-0.2,0.4-0.3,0.6c-0.7,1.2-1.5,2.3-2.3,3.5
			c-0.2,0.2-0.3,0.4-0.5,0.7c-0.8,1.2-1.7,2.3-2.6,3.5c-0.2,0.2-0.4,0.4-0.5,0.6c-0.8,1-1.6,2-2.5,2.9c-0.2,0.3-0.5,0.5-0.7,0.8
			c-1,1.1-2.1,2.2-3.2,3.4c-0.2,0.2-0.4,0.4-0.6,0.6c-0.9,0.8-1.7,1.6-2.6,2.5c-0.7,0.7-1.5,1.3-2.2,2c-0.7,0.6-1.4,1.2-2.1,1.8
			c-0.8,0.6-1.6,1.3-2.4,1.9c-0.8,0.6-1.5,1.2-2.3,1.7c-0.9,0.6-1.7,1.2-2.6,1.8c-0.8,0.6-1.6,1.1-2.5,1.7c-0.9,0.6-1.9,1.2-2.8,1.8
			c-1.2,0.7-2.3,1.5-3.6,2.2c-1.7,1-3.4,1.9-5.1,2.8c-0.5,0.2-0.9,0.5-1.4,0.7c-1.6,0.8-3.1,1.6-4.7,2.4c-0.2,0.1-0.4,0.2-0.6,0.3
			c-1.8,0.8-3.6,1.7-5.4,2.4c-0.5,0.2-0.9,0.4-1.4,0.6c-1.6,0.7-3.1,1.3-4.7,1.9c-0.3,0.1-0.7,0.3-1,0.4c-1.9,0.7-3.8,1.4-5.7,2.1
			c-0.5,0.2-0.9,0.3-1.4,0.5c-1.3,0.4-2.6,0.9-3.9,1.3c-1.2,0.4-2.5,0.8-3.8,1.1c-1.1,0.3-2.1,0.6-3.2,0.9c-1.3,0.4-2.6,0.7-3.9,1
			c-1.1,0.3-2.2,0.6-3.2,0.8c-1.3,0.3-2.6,0.6-3.9,0.9c-1.1,0.2-2.2,0.5-3.3,0.7c-1.3,0.3-2.7,0.5-4,0.8c-1,0.2-2.1,0.4-3.1,0.6
			c-2.9,0.5-5.8,1-8.7,1.4c-0.4,0.1-0.8,0.1-1.3,0.2c-2.6,0.3-5.1,0.6-7.7,0.9c-1,0.1-2,0.2-3,0.3c-1.7,0.2-3.3,0.3-5,0.4
			c-1,0.1-2.1,0.2-3.1,0.2c-1.7,0.1-3.5,0.2-5.2,0.3c-1,0-2,0.1-2.9,0.1c-1.5,0-3,0.1-4.5,0.1c-1.1,0-2.1,0-3.2,0
			c-1.6,0-3.2,0-4.8,0c-1,0-1.9,0-2.9,0c-1.5,0-3-0.1-4.4-0.2c-1,0-2-0.1-3.1-0.1c-1.6-0.1-3.2-0.2-4.8-0.3
			c-0.9-0.1-1.8-0.1-2.7-0.2c-1.9-0.2-3.8-0.4-5.6-0.5c-0.6-0.1-1.2-0.1-1.8-0.2c-2.5-0.3-4.9-0.6-7.4-0.9c-0.4-0.1-0.8-0.1-1.1-0.2
			c-2.1-0.3-4.2-0.6-6.3-1c-0.9-0.2-1.7-0.3-2.6-0.5c-1.6-0.3-3.2-0.6-4.8-0.9c-0.8-0.2-1.7-0.4-2.5-0.5c-1.7-0.4-3.5-0.8-5.2-1.2
			c-1-0.2-1.9-0.5-2.9-0.7c-1.6-0.4-3.1-0.8-4.7-1.2c-1.3-0.4-2.7-0.7-4-1.1c-0.5-0.1-1-0.3-1.5-0.4c-2-0.6-4-1.2-5.9-1.9
			c-0.4-0.1-0.7-0.3-1.1-0.4c-1.6-0.6-3.2-1.1-4.8-1.7c-0.5-0.2-1.1-0.4-1.6-0.6c-1.3-0.5-2.5-1-3.7-1.5c-0.9-0.4-1.7-0.7-2.6-1.1
			c-1.2-0.5-2.4-1.1-3.6-1.6c-0.8-0.4-1.6-0.7-2.3-1.1c-1.3-0.6-2.6-1.3-3.8-1.9c-0.6-0.3-1.3-0.6-1.9-1c-1.9-1-3.7-2-5.6-3.1
			c-17.2-9.9-29.5-21.6-37-34c-2.5-4.1-4.5-8.4-5.9-12.6c-0.5-1.4-0.9-2.8-1.2-4.3c-1.1-4.3-1.6-8.6-1.6-12.9v0c0,0,0,0,0,0l0,14.5
			c-0.1,23.1,15.2,46.2,45.7,63.8c1.8,1.1,3.7,2.1,5.6,3.1c0.6,0.3,1.3,0.6,1.9,1c1.3,0.6,2.5,1.3,3.8,1.9c0.8,0.4,1.6,0.7,2.3,1.1
			c1.2,0.5,2.4,1.1,3.6,1.6c0.8,0.4,1.7,0.7,2.6,1.1c0.8,0.3,1.6,0.7,2.5,1c0.4,0.2,0.9,0.3,1.3,0.5c0.5,0.2,1.1,0.4,1.6,0.6
			c1.6,0.6,3.2,1.2,4.8,1.7c0.4,0.1,0.7,0.3,1.1,0.4c2,0.7,3.9,1.3,5.9,1.9c0.5,0.2,1,0.3,1.5,0.4c0.9,0.3,1.7,0.5,2.6,0.8
			c0.5,0.1,1,0.2,1.4,0.4c1.6,0.4,3.1,0.8,4.7,1.2c1,0.2,1.9,0.5,2.9,0.7c1.7,0.4,3.5,0.8,5.2,1.2c0.7,0.1,1.3,0.3,2,0.4
			c0.2,0,0.4,0.1,0.5,0.1c1.6,0.3,3.2,0.6,4.8,0.9c0.9,0.2,1.7,0.3,2.6,0.5c2.1,0.4,4.2,0.7,6.3,1c0.4,0.1,0.8,0.1,1.1,0.2
			c0,0,0,0,0.1,0c2.5,0.3,4.9,0.7,7.4,0.9c0.6,0.1,1.2,0.1,1.8,0.2c1.9,0.2,3.8,0.4,5.6,0.5c0,0,0.1,0,0.1,0
			c0.9,0.1,1.7,0.1,2.6,0.2c1.6,0.1,3.2,0.2,4.8,0.3c1,0.1,2,0.1,3.1,0.1c1.5,0.1,3,0.1,4.5,0.2c0.1,0,0.2,0,0.4,0
			c0.8,0,1.7,0,2.5,0c1.6,0,3.2,0.1,4.8,0c1.1,0,2.1,0,3.2,0c1.5,0,3,0,4.5-0.1c0.3,0,0.6,0,0.8,0c0.7,0,1.4-0.1,2.1-0.1
			c1.7-0.1,3.5-0.2,5.2-0.3c1-0.1,2.1-0.1,3.1-0.2c1.7-0.1,3.3-0.3,5-0.4c0.6-0.1,1.2-0.1,1.7-0.1c0.4,0,0.8-0.1,1.2-0.1
			c2.6-0.3,5.1-0.6,7.7-0.9c0.4-0.1,0.8-0.1,1.3-0.2c2.9-0.4,5.8-0.9,8.7-1.4c0.3,0,0.5-0.1,0.8-0.1c0.8-0.1,1.5-0.3,2.3-0.5
			c1.4-0.3,2.7-0.5,4-0.8c1.1-0.2,2.2-0.5,3.3-0.7c1.3-0.3,2.6-0.6,4-0.9c1.1-0.3,2.2-0.5,3.2-0.8c1.3-0.3,2.6-0.7,3.9-1
			c1.1-0.3,2.1-0.6,3.2-0.9c1.3-0.4,2.5-0.8,3.8-1.1c0.5-0.2,1.1-0.3,1.6-0.5c0.8-0.2,1.5-0.5,2.3-0.8c0.5-0.2,0.9-0.3,1.4-0.5
			c1.9-0.7,3.8-1.4,5.7-2.1c0.3-0.1,0.7-0.3,1-0.4c1.6-0.6,3.2-1.3,4.7-1.9c0.5-0.2,0.9-0.4,1.4-0.6c1.8-0.8,3.7-1.6,5.4-2.4
			c0.2-0.1,0.4-0.2,0.6-0.3c1.6-0.8,3.2-1.6,4.7-2.4c0.5-0.2,0.9-0.5,1.4-0.7c1.7-0.9,3.4-1.9,5.1-2.8c0.6-0.4,1.3-0.7,1.9-1.1
			c0.6-0.4,1.1-0.7,1.7-1.1c0.9-0.6,1.9-1.2,2.8-1.8c0.8-0.6,1.7-1.1,2.5-1.7c0.9-0.6,1.8-1.2,2.6-1.8c0.8-0.6,1.5-1.1,2.3-1.7
			c0.8-0.6,1.6-1.3,2.4-1.9c0.7-0.6,1.4-1.2,2.1-1.8c0.8-0.6,1.5-1.3,2.2-1.9c0.3-0.3,0.6-0.5,0.9-0.8c0.6-0.5,1.2-1.1,1.7-1.7
			c0.2-0.2,0.4-0.4,0.6-0.6c1.1-1.1,2.2-2.2,3.2-3.4c0.2-0.3,0.5-0.5,0.7-0.8c0.9-1,1.7-2,2.5-3c0.2-0.2,0.4-0.4,0.5-0.6
			c0.1-0.1,0.2-0.2,0.2-0.3c0.8-1,1.6-2.1,2.3-3.2c0.2-0.2,0.3-0.4,0.5-0.7c0.8-1.2,1.6-2.3,2.3-3.5c0.1-0.2,0.2-0.4,0.3-0.6
			c0.3-0.4,0.5-0.9,0.8-1.3c0.2-0.4,0.4-0.8,0.6-1.1c0.4-0.8,0.8-1.5,1.2-2.3c0.3-0.7,0.6-1.3,0.9-2c0.3-0.8,0.7-1.6,1-2.3
			c0.1-0.4,0.3-0.7,0.4-1c0.1-0.3,0.2-0.6,0.3-0.9c0.3-0.7,0.5-1.5,0.7-2.2c0.2-0.7,0.4-1.4,0.6-2c0.2-0.8,0.4-1.5,0.5-2.3
			c0.1-0.4,0.2-0.8,0.3-1.2c0.1-0.3,0.1-0.6,0.1-0.8c0.1-0.8,0.3-1.5,0.4-2.3c0.1-0.7,0.2-1.4,0.3-2c0.1-0.8,0.1-1.6,0.2-2.3
			c0-0.5,0.1-0.9,0.1-1.4c0-0.5,0-0.9,0-1.4l0-14.5C334.4,277.6,334.3,278.5,334.3,279.4z"/>
		<path class="st9" d="M104.6,319.9c41.8,24.1,109.2,24.1,150.7,0c41.5-24.1,41.3-63.2-0.5-87.3c-41.8-24.1-109.2-24.1-150.7,0
			C62.6,256.7,62.9,295.8,104.6,319.9 M288.7,212.9c60.6,35,60.9,91.7,0.7,126.7c-60.2,35-158.1,35-218.7,0
			c-60.6-35-60.9-91.7-0.7-126.7C130.2,177.9,228.1,177.9,288.7,212.9z"/>
		<path class="st10" d="M104.6,319.9c41.8,24.1,109.2,24.1,150.7,0c41.5-24.1,41.3-63.2-0.5-87.3c-41.8-24.1-109.2-24.1-150.7,0
			C62.6,256.7,62.9,295.8,104.6,319.9 M288.7,212.9c60.6,35,60.9,91.7,0.7,126.7c-60.2,35-158.1,35-218.7,0
			c-60.6-35-60.9-91.7-0.7-126.7C130.2,177.9,228.1,177.9,288.7,212.9z"/>
		<g>
			<g>
				<g>
					<path class="st7" d="M43,281.9c-5.7-2.4-8.5-9-6.1-14.7c2.4-5.7,9-8.5,14.7-6.1c5.7,2.4,8.5,9,6.1,14.7
						C55.3,281.5,48.7,284.2,43,281.9z"/>
				</g>
				<path class="st3" d="M50.7,272.2c-0.1-0.2-0.2-0.3-0.3-0.5v-2.9c0-0.4-0.1-0.8-0.2-1.2c-0.2-0.4-0.4-0.7-0.7-1
					c-0.3-0.3-0.6-0.5-1-0.7c-0.4-0.2-0.8-0.2-1.2-0.2c-0.4,0-0.8,0.1-1.2,0.2c-0.4,0.2-0.7,0.4-1,0.7c-0.3,0.3-0.5,0.6-0.7,1
					c-0.2,0.4-0.2,0.8-0.2,1.2v0.4h1.3v-0.4c0-0.5,0.2-1,0.5-1.3c0.2-0.2,0.4-0.3,0.6-0.4c0.2-0.1,0.5-0.1,0.7-0.1
					c0.5,0,1,0.2,1.3,0.5c0.4,0.4,0.5,0.8,0.6,1.3v1.7c-0.6-0.3-1.2-0.5-1.9-0.5c-0.5,0-1,0.1-1.4,0.3c-0.4,0.2-0.9,0.5-1.2,0.8
					c-0.3,0.3-0.6,0.7-0.8,1.2c-0.2,0.4-0.3,0.9-0.3,1.4c0,0.5,0.1,1,0.3,1.4s0.5,0.9,0.8,1.2c0.3,0.3,0.7,0.6,1.2,0.8
					c0.4,0.2,0.9,0.3,1.4,0.3c0.5,0,1-0.1,1.4-0.3c0.4-0.2,0.9-0.5,1.2-0.8c0.3-0.3,0.6-0.7,0.8-1.2c0.2-0.4,0.3-0.9,0.3-1.4
					C51,273.1,50.9,272.7,50.7,272.2L50.7,272.2z M47.3,276.1c-1.3,0-2.4-1.1-2.4-2.4s1.1-2.4,2.4-2.4c0.6,0,1.3,0.3,1.7,0.7
					c0.5,0.5,0.7,1.1,0.7,1.7c0,0.6-0.3,1.3-0.7,1.7S47.9,276.1,47.3,276.1z M48.3,273.7c0,1.4-2.1,1.4-2.1,0
					C46.3,272.3,48.3,272.3,48.3,273.7z"/>
			</g>
			<g>
				<g>
					<path class="st11" d="M64.5,321.1c-5.7-2.4-8.5-9-6.1-14.7c2.4-5.7,9-8.5,14.7-6.1c5.7,2.4,8.5,9,6.1,14.7
						C76.8,320.8,70.2,323.5,64.5,321.1z"/>
				</g>
				<g>
					<g>
						<path class="st3" d="M73.2,315.8h-1.6c-0.4,0-0.6-0.3-0.6-0.6v-1.6c0-0.4,0.3-0.6,0.6-0.6s0.6,0.3,0.6,0.6v0.9h0.9
							c0.4,0,0.6,0.3,0.6,0.6C73.8,315.5,73.5,315.8,73.2,315.8z M64.3,315.8c-0.4,0-0.6-0.3-0.6-0.6v-1.6c0-0.4,0.3-0.6,0.6-0.6
							h1.6c0.4,0,0.6,0.3,0.6,0.6s-0.3,0.6-0.6,0.6H65v0.9C65,315.5,64.7,315.8,64.3,315.8z M73.2,308.5h-1.6
							c-0.4,0-0.6-0.3-0.6-0.6s0.3-0.6,0.6-0.6h0.9v-0.9c0-0.4,0.3-0.6,0.6-0.6c0.4,0,0.6,0.3,0.6,0.6v1.6
							C73.8,308.2,73.5,308.5,73.2,308.5z M65.9,308.5c-0.4,0-0.6-0.3-0.6-0.6V307h-0.9c-0.4,0-0.6-0.3-0.6-0.6
							c0-0.4,0.3-0.6,0.6-0.6h1.6c0.4,0,0.6,0.3,0.6,0.6v1.6C66.6,308.2,66.3,308.5,65.9,308.5z"/>
					</g>
					<g>
						<path class="st3" d="M68.8,316.6c-2,0-3.8-1-4.9-2.6c-0.2-0.3-0.1-0.7,0.2-0.9c0.3-0.2,0.7-0.1,0.9,0.2c1,1.5,2.7,2.3,4.5,2
							c0.4,0,0.7,0.2,0.7,0.5c0.1,0.4-0.2,0.7-0.5,0.7C69.3,316.6,69.1,316.6,68.8,316.6z M71.6,315.7c-0.2,0-0.4-0.1-0.5-0.3
							c-0.2-0.3-0.1-0.7,0.2-0.9c1.3-0.8,2-2.3,2-3.8c0-0.2,0-0.5-0.1-0.7c-0.1-0.4,0.2-0.7,0.5-0.7c0.4-0.1,0.7,0.2,0.7,0.5
							c0,0.3,0.1,0.6,0.1,0.9c0,2-1,3.8-2.6,4.9C71.9,315.7,71.7,315.7,71.6,315.7z M63.6,312.2c-0.3,0-0.6-0.2-0.6-0.6
							c0-0.3-0.1-0.6-0.1-0.9c0-2,1-3.8,2.6-4.9c0.3-0.2,0.7-0.1,0.9,0.2c0.2,0.3,0.1,0.7-0.2,0.9c-1.3,0.8-2,2.3-2,3.8
							c0,0.2,0,0.5,0.1,0.7C64.3,311.8,64.1,312.1,63.6,312.2C63.7,312.2,63.7,312.2,63.6,312.2z M73.1,308.5
							c-0.2,0-0.4-0.1-0.5-0.3c-0.8-1.3-2.3-2-3.8-2c-0.2,0-0.5,0-0.7,0.1c-0.4,0.1-0.7-0.2-0.7-0.5c-0.1-0.4,0.2-0.7,0.5-0.7
							c0.3,0,0.6-0.1,0.9-0.1c2,0,3.8,1,4.9,2.6c0.2,0.3,0.1,0.7-0.2,0.9C73.4,308.5,73.2,308.5,73.1,308.5z"/>
					</g>
				</g>
			</g>
			<g>
				<g>
					<path class="st8" d="M112.5,350.6c-5.7-2.4-8.5-9-6.1-14.7c2.4-5.7,9-8.5,14.7-6.1s8.5,9,6.1,14.7
						C124.9,350.2,118.3,353,112.5,350.6z"/>
				</g>
				<path class="st3" d="M121.7,337.1c-0.2,0-0.3,0-0.5,0.1c-0.1,0.1-0.3,0.2-0.3,0.3c-0.1,0.1-0.1,0.3-0.2,0.4c0,0.2,0,0.3,0.1,0.5
					l-2.1,2.1c-0.2-0.1-0.5-0.1-0.7,0l-1.5-1.5c0.1-0.1,0.1-0.3,0.1-0.5c0-0.2-0.1-0.3-0.2-0.4c-0.1-0.1-0.2-0.2-0.3-0.3
					c-0.1-0.1-0.3-0.1-0.5-0.1s-0.3,0-0.5,0.1c-0.1,0.1-0.3,0.2-0.3,0.3c-0.1,0.1-0.1,0.3-0.2,0.4c0,0.2,0,0.3,0.1,0.5l-2.4,2.4
					c-0.2-0.1-0.4-0.1-0.7,0c-0.2,0.1-0.4,0.2-0.5,0.4c-0.1,0.2-0.2,0.4-0.2,0.6c0,0.2,0.1,0.4,0.3,0.6c0.2,0.2,0.4,0.3,0.6,0.3
					c0.2,0,0.4,0,0.6-0.2c0.2-0.1,0.3-0.3,0.4-0.5s0.1-0.4,0-0.7l2.4-2.4c0.2,0.1,0.5,0.1,0.7,0l1.5,1.5c-0.1,0.1-0.1,0.3-0.1,0.5
					c0,0.2,0.1,0.3,0.2,0.4c0.1,0.1,0.2,0.2,0.3,0.3c0.1,0.1,0.3,0.1,0.5,0.1c0.2,0,0.3,0,0.5-0.1c0.1-0.1,0.3-0.2,0.3-0.3
					c0.1-0.1,0.1-0.3,0.2-0.4c0-0.2,0-0.3-0.1-0.5l2.1-2.1c0.1,0.1,0.3,0.1,0.4,0.1c0.1,0,0.3-0.1,0.4-0.1c0.1-0.1,0.2-0.2,0.3-0.3
					c0.1-0.1,0.1-0.2,0.2-0.4s0-0.3,0-0.4c0-0.1-0.1-0.3-0.2-0.4s-0.2-0.2-0.3-0.3C122,337.1,121.9,337.1,121.7,337.1z"/>
			</g>
			<g>
				<g>
					<path class="st12" d="M175.6,362.1c-5.7-2.4-8.5-9-6.1-14.7c2.4-5.7,9-8.5,14.7-6.1c5.7,2.4,8.5,9,6.1,14.7
						C187.9,361.7,181.3,364.4,175.6,362.1z"/>
				</g>
				<g>
					<path class="st3" d="M178.1,351.7c-0.2,0-0.3-0.1-0.4-0.2s-0.2-0.3-0.2-0.4c0-0.2,0.1-0.3,0.2-0.4c0.1-0.1,0.3-0.2,0.4-0.2h3.5
						c0.2,0,0.3,0.1,0.4,0.2c0.1,0.1,0.2,0.3,0.2,0.4c0,0.2-0.1,0.3-0.2,0.4c-0.1,0.1-0.3,0.2-0.4,0.2H178.1z M178.1,349.3
						c-0.2,0-0.3-0.1-0.4-0.2s-0.2-0.3-0.2-0.4c0-0.2,0.1-0.3,0.2-0.4c0.1-0.1,0.3-0.2,0.4-0.2h3.5c0.2,0,0.3,0.1,0.4,0.2
						c0.1,0.1,0.2,0.3,0.2,0.4c0,0.2-0.1,0.3-0.2,0.4c-0.1,0.1-0.3,0.2-0.4,0.2H178.1z M176.4,352.8h4.4c0.3,0,0.5,0.1,0.8,0.2
						c0.2,0.1,0.4,0.3,0.6,0.5l1.2,1.6V347h-7V352.8z M176.4,356.4h6.5l-1.6-2.1c-0.1-0.1-0.1-0.1-0.2-0.2c-0.1,0-0.2-0.1-0.3-0.1
						h-4.4V356.4z M183.4,357.5l-7,0c-0.3,0-0.6-0.1-0.8-0.3c-0.2-0.2-0.3-0.5-0.3-0.8V347c0-0.3,0.1-0.6,0.3-0.8
						c0.2-0.2,0.5-0.3,0.8-0.3h7c0.3,0,0.6,0.1,0.8,0.3c0.2,0.2,0.3,0.5,0.3,0.8v9.4c0,0.3-0.1,0.6-0.3,0.8
						C184,357.4,183.7,357.5,183.4,357.5z"/>
				</g>
			</g>
			<g>
				<g>
					<path class="st7" d="M236.9,351.4c-5.7-2.4-8.5-9-6.1-14.7c2.4-5.7,9-8.5,14.7-6.1c5.7,2.4,8.5,9,6.1,14.7
						C249.2,351,242.6,353.8,236.9,351.4z"/>
				</g>
				<g>
					<path class="st3" d="M243.9,338.8l2.1-2.1c0.1-0.1,0.3-0.2,0.4-0.2c0.2,0,0.3,0.1,0.4,0.2c0.1,0.1,0.2,0.3,0.2,0.4
						s-0.1,0.3-0.2,0.4l-2.5,2.5c-0.1,0.1-0.3,0.2-0.4,0.2s-0.3-0.1-0.4-0.2l-1.3-1.3c-0.1-0.1-0.2-0.2-0.2-0.4s0.1-0.3,0.2-0.4
						c0.1-0.1,0.2-0.2,0.4-0.2c0.2,0,0.3,0.1,0.4,0.2L243.9,338.8z M235.9,339.3c-0.2,0-0.3-0.1-0.4-0.2c-0.1-0.1-0.2-0.3-0.2-0.4
						c0-0.2,0.1-0.3,0.2-0.4c0.1-0.1,0.3-0.2,0.4-0.2h4.1c0.2,0,0.3,0.1,0.4,0.2c0.1,0.1,0.2,0.3,0.2,0.4c0,0.2-0.1,0.3-0.2,0.4
						s-0.3,0.2-0.4,0.2H235.9z M244.2,344.2l-1.1,1.1c-0.1,0.1-0.2,0.2-0.4,0.2c-0.2,0-0.3-0.1-0.4-0.2c-0.1-0.1-0.2-0.2-0.2-0.4
						c0-0.2,0.1-0.3,0.2-0.4l1.1-1.1l-1.1-1.1c-0.1-0.1-0.2-0.2-0.2-0.4c0-0.2,0.1-0.3,0.2-0.4c0.1-0.1,0.2-0.2,0.4-0.2
						c0.2,0,0.3,0.1,0.4,0.2l1.1,1.1l1.1-1.1c0.1-0.1,0.2-0.2,0.4-0.2s0.3,0.1,0.4,0.2c0.1,0.1,0.2,0.2,0.2,0.4
						c0,0.2-0.1,0.3-0.2,0.4l-1.1,1.1l1.1,1.1c0.1,0.1,0.2,0.2,0.2,0.4c0,0.2-0.1,0.3-0.2,0.4c-0.1,0.1-0.2,0.2-0.4,0.2
						s-0.3-0.1-0.4-0.2L244.2,344.2z M235.9,344c-0.2,0-0.3-0.1-0.4-0.2s-0.2-0.3-0.2-0.4c0-0.2,0.1-0.3,0.2-0.4
						c0.1-0.1,0.3-0.2,0.4-0.2h4.1c0.2,0,0.3,0.1,0.4,0.2c0.1,0.1,0.2,0.3,0.2,0.4c0,0.2-0.1,0.3-0.2,0.4s-0.3,0.2-0.4,0.2H235.9z"
						/>
				</g>
			</g>
			<g>
				<g>
					<path class="st11" d="M290.3,319.7c-5.7-2.4-8.5-9-6.1-14.7c2.4-5.7,9-8.5,14.7-6.1s8.5,9,6.1,14.7
						C302.6,319.3,296,322.1,290.3,319.7z"/>
				</g>
				<g>
					<path class="st3" d="M294.6,315.2c-0.1,0-0.2,0-0.3,0c-0.1,0-0.2,0-0.3-0.1c-1.2-0.5-2.2-1.3-3-2.4s-1.2-2.5-1.2-3.9V306
						c0-0.2,0.1-0.5,0.2-0.7c0.1-0.2,0.3-0.3,0.6-0.4l3.6-1.3c0.1,0,0.3-0.1,0.4-0.1s0.3,0,0.4,0.1l3.6,1.3c0.2,0.1,0.4,0.2,0.6,0.4
						c0.1,0.2,0.2,0.4,0.2,0.7v2.8c0,1.4-0.4,2.7-1.2,3.9c-0.8,1.2-1.8,2-3,2.4c-0.1,0-0.2,0.1-0.3,0.1
						C294.8,315.1,294.7,315.2,294.6,315.2z M294.6,314c1-0.3,1.8-0.9,2.4-1.8c0.6-0.9,1-1.9,1.1-2.9h-3.5v-4.7L291,306v3.1
						c0,0.1,0,0.2,0,0.3l3.5,0V314z"/>
				</g>
			</g>
			<g>
				<g>
					<path class="st8" d="M304.9,281.9c-5.7-2.4-8.5-9-6.1-14.7c2.4-5.7,9-8.5,14.7-6.1c5.7,2.4,8.5,9,6.1,14.7
						C317.2,281.5,310.6,284.2,304.9,281.9z"/>
				</g>
				<g>
					<path class="st3" d="M313.1,278c-0.5,0-1-0.2-1.4-0.6c-0.4-0.4-0.6-0.8-0.6-1.4c0-0.1,0-0.2,0-0.2c0-0.1,0-0.2,0-0.2l-4.6-2.7
						c-0.2,0.2-0.4,0.3-0.6,0.4s-0.5,0.1-0.7,0.1c-0.5,0-1-0.2-1.4-0.6c-0.4-0.4-0.6-0.8-0.6-1.4s0.2-1,0.6-1.4
						c0.4-0.4,0.8-0.6,1.4-0.6c0.2,0,0.5,0,0.7,0.1s0.4,0.2,0.6,0.4l4.6-2.7c0-0.1,0-0.1,0-0.2c0-0.1,0-0.2,0-0.2
						c0-0.5,0.2-1,0.6-1.4c0.4-0.4,0.8-0.6,1.4-0.6s1,0.2,1.4,0.6c0.4,0.4,0.6,0.8,0.6,1.4c0,0.5-0.2,1-0.6,1.4
						c-0.4,0.4-0.8,0.6-1.4,0.6c-0.2,0-0.5,0-0.7-0.1c-0.2-0.1-0.4-0.2-0.6-0.4l-4.6,2.7c0,0.1,0,0.1,0,0.2s0,0.2,0,0.2
						c0,0.1,0,0.2,0,0.2c0,0.1,0,0.2,0,0.2l4.6,2.7c0.2-0.2,0.4-0.3,0.6-0.4s0.5-0.1,0.7-0.1c0.5,0,1,0.2,1.4,0.6
						c0.4,0.4,0.6,0.8,0.6,1.4c0,0.5-0.2,1-0.6,1.4C314.1,277.8,313.6,278,313.1,278z"/>
				</g>
			</g>
		</g>
		<g class="st13">
			<path class="st3" d="M254.8,232.6c1.9,1.1,3.7,2.2,5.4,3.4l34.3-19.6c-1.8-1.2-3.8-2.4-5.7-3.5c-13-7.5-27.8-13.4-43.5-17.7
				l-33.6,22.2C227.4,220.3,242.3,225.3,254.8,232.6z"/>
			<path class="st3" d="M104.6,319.9c-9.2-5.3-16.3-11.3-21.5-17.7l-33.6,22.2c6,5.4,13,10.5,21.2,15.2c1.4,0.8,2.8,1.5,4.2,2.3
				l34.2-19.6C107.6,321.5,106.1,320.7,104.6,319.9z"/>
			<path class="st3" d="M137.7,332.9c-6.8-1.7-13.4-3.8-19.6-6.4l-35.3,19.4c5.3,2.5,10.7,4.7,16.4,6.7L137.7,332.9z"/>
			<path class="st3" d="M304.8,223.8l-35.3,19.4c5.5,5,9.7,10.3,12.4,15.8l38.5-19.7C316.2,233.9,311,228.7,304.8,223.8z"/>
		</g>
	</g>
	<g>
		<g>
			<path class="st14" d="M64.3,210c0-0.4,0.1-0.8,0.1-1.1c0.1-0.4,0.1-0.9,0.2-1.3c0.1-0.4,0.2-0.8,0.2-1.1c0.1-0.4,0.2-0.8,0.3-1.3
				c0.1-0.4,0.2-0.8,0.3-1.1c0.1-0.4,0.3-0.8,0.4-1.3c0.1-0.4,0.3-0.7,0.4-1.1c0.2-0.4,0.4-0.9,0.6-1.3c0.2-0.4,0.3-0.7,0.5-1.1
				c0.2-0.4,0.4-0.9,0.7-1.3c0.2-0.4,0.4-0.7,0.6-1c0.3-0.5,0.6-1,0.9-1.5c0.2-0.3,0.4-0.6,0.6-0.9c0.4-0.6,0.8-1.1,1.2-1.7
				c0.2-0.2,0.4-0.5,0.6-0.7c0.7-0.9,1.5-1.8,2.2-2.6c0.2-0.2,0.4-0.4,0.6-0.7c0.6-0.7,1.3-1.3,2-2c0.3-0.3,0.6-0.6,0.9-0.9
				c0.4-0.4,0.8-0.7,1.2-1.1c0.4-0.3,0.8-0.7,1.2-1c0.4-0.4,0.9-0.7,1.4-1.1c0.4-0.3,0.8-0.6,1.3-1c0.5-0.3,1-0.7,1.5-1
				c0.5-0.3,0.9-0.6,1.4-0.9c0.5-0.3,1-0.7,1.6-1c0.7-0.4,1.3-0.8,2-1.2c1.3-0.8,2.6-1.5,4-2.2c0.4-0.2,0.8-0.4,1.2-0.6
				c1.1-0.5,2.1-1,3.2-1.5c0.4-0.2,0.7-0.3,1.1-0.5c1.4-0.6,2.9-1.2,4.3-1.8c0.3-0.1,0.5-0.2,0.8-0.3c1.2-0.5,2.5-0.9,3.8-1.3
				c0.5-0.2,1-0.3,1.6-0.5c0.7-0.2,1.4-0.4,2.1-0.6c0.6-0.2,1.2-0.3,1.8-0.5c0.7-0.2,1.4-0.4,2.2-0.6c0.6-0.2,1.2-0.3,1.8-0.5
				c0.7-0.2,1.5-0.3,2.2-0.5c0.6-0.1,1.2-0.3,1.8-0.4c0.8-0.2,1.5-0.3,2.3-0.4c0.6-0.1,1.2-0.2,1.7-0.3c1.6-0.3,3.3-0.6,4.9-0.8
				c0.2,0,0.5-0.1,0.7-0.1c1.4-0.2,2.9-0.4,4.3-0.5c0.6-0.1,1.1-0.1,1.7-0.2c0.9-0.1,1.8-0.2,2.8-0.2c0.6,0,1.2-0.1,1.8-0.1
				c1-0.1,1.9-0.1,2.9-0.1c0.6,0,1.1-0.1,1.7-0.1c0.8,0,1.7,0,2.5,0c0.6,0,1.2,0,1.8,0c0.9,0,1.8,0,2.7,0c0.5,0,1.1,0,1.6,0
				c0.8,0,1.6,0.1,2.5,0.1c0.6,0,1.2,0,1.7,0.1c0.9,0,1.8,0.1,2.7,0.2c0.5,0,1,0.1,1.5,0.1c1.1,0.1,2.1,0.2,3.2,0.3
				c0.3,0,0.7,0.1,1,0.1c1.4,0.2,2.8,0.3,4.1,0.5c0.2,0,0.4,0.1,0.6,0.1c1.2,0.2,2.4,0.4,3.6,0.6c0.5,0.1,1,0.2,1.5,0.3
				c0.9,0.2,1.8,0.3,2.7,0.5c0.5,0.1,0.9,0.2,1.4,0.3c1,0.2,1.9,0.4,2.9,0.7c0.5,0.1,1.1,0.3,1.6,0.4c0.9,0.2,1.8,0.5,2.6,0.7
				c0.5,0.1,1,0.3,1.5,0.4c1.4,0.4,2.7,0.8,4.1,1.3c0.2,0.1,0.5,0.2,0.7,0.2c1.5,0.5,3.1,1.1,4.6,1.7c0.6,0.2,1.2,0.5,1.8,0.7
				c0.5,0.2,1,0.4,1.4,0.6c0.7,0.3,1.4,0.6,2,0.9c0.4,0.2,0.9,0.4,1.3,0.6c0.7,0.3,1.5,0.7,2.2,1.1c0.4,0.2,0.7,0.3,1.1,0.5
				c1.1,0.6,2.1,1.1,3.1,1.7c17.1,9.9,25.6,22.8,25.6,35.7l0-14.5c0-12.9-8.5-25.9-25.6-35.7c-1-0.6-2.1-1.2-3.1-1.7
				c-0.3-0.2-0.7-0.4-1.1-0.5c-0.7-0.4-1.4-0.7-2.2-1.1c-0.4-0.2-0.9-0.4-1.3-0.6c-0.7-0.3-1.3-0.6-2-0.9c-0.5-0.2-1-0.4-1.4-0.6
				c-0.5-0.2-0.9-0.4-1.4-0.6c-0.1-0.1-0.3-0.1-0.4-0.2c-1.5-0.6-3-1.1-4.6-1.7c-0.2-0.1-0.5-0.2-0.7-0.2c-1.3-0.4-2.7-0.9-4.1-1.3
				c-0.2-0.1-0.5-0.1-0.7-0.2c-0.3-0.1-0.5-0.1-0.8-0.2c-0.9-0.2-1.7-0.5-2.6-0.7c-0.5-0.1-1.1-0.3-1.6-0.4c-1-0.2-1.9-0.4-2.9-0.7
				c-0.4-0.1-0.7-0.2-1.1-0.2c-0.1,0-0.2,0-0.3-0.1c-0.9-0.2-1.8-0.3-2.7-0.5c-0.5-0.1-1-0.2-1.5-0.3c-1.2-0.2-2.3-0.4-3.5-0.6
				c-0.2,0-0.4-0.1-0.7-0.1c0,0,0,0,0,0c-1.4-0.2-2.7-0.4-4.1-0.5c-0.4,0-0.7-0.1-1.1-0.1c-1-0.1-2-0.2-3.1-0.3c0,0-0.1,0-0.1,0
				c-0.5,0-1-0.1-1.5-0.1c-0.9-0.1-1.8-0.1-2.7-0.2c-0.6,0-1.2,0-1.8-0.1c-0.8,0-1.6-0.1-2.4-0.1c-0.1,0-0.1,0-0.2,0
				c-0.5,0-0.9,0-1.4,0c-0.9,0-1.8,0-2.7,0c-0.6,0-1.2,0-1.8,0c-0.8,0-1.7,0-2.5,0c-0.2,0-0.3,0-0.5,0c-0.4,0-0.8,0-1.2,0.1
				c-1,0-1.9,0.1-2.9,0.1c-0.6,0-1.2,0.1-1.8,0.1c-0.9,0.1-1.9,0.1-2.8,0.2c-0.3,0-0.7,0-1,0.1c-0.2,0-0.4,0.1-0.7,0.1
				c-1.4,0.2-2.9,0.3-4.3,0.5c-0.2,0-0.5,0.1-0.7,0.1c-1.6,0.2-3.3,0.5-4.9,0.8c-0.2,0-0.3,0-0.5,0.1c-0.4,0.1-0.9,0.2-1.3,0.3
				c-0.8,0.1-1.5,0.3-2.3,0.4c-0.6,0.1-1.2,0.3-1.8,0.4c-0.7,0.2-1.5,0.3-2.2,0.5c-0.6,0.1-1.2,0.3-1.8,0.5
				c-0.7,0.2-1.4,0.4-2.2,0.6c-0.6,0.2-1.2,0.3-1.8,0.5c-0.7,0.2-1.4,0.4-2.1,0.6c-0.3,0.1-0.6,0.2-0.9,0.3
				c-0.2,0.1-0.4,0.2-0.6,0.2c-1.3,0.4-2.5,0.9-3.8,1.3c-0.3,0.1-0.5,0.2-0.8,0.3c-1.5,0.6-2.9,1.1-4.3,1.8
				c-0.4,0.2-0.7,0.3-1.1,0.5c-1.1,0.5-2.2,1-3.2,1.5c-0.4,0.2-0.8,0.4-1.2,0.6c-1.4,0.7-2.7,1.4-4,2.2c-0.4,0.2-0.7,0.4-1.1,0.6
				c-0.3,0.2-0.6,0.4-1,0.6c-0.5,0.3-1.1,0.7-1.6,1c-0.5,0.3-0.9,0.6-1.4,0.9c-0.5,0.3-1,0.7-1.5,1c-0.4,0.3-0.9,0.6-1.3,1
				c-0.5,0.4-0.9,0.7-1.4,1.1c-0.4,0.3-0.8,0.7-1.2,1c-0.4,0.4-0.8,0.7-1.3,1.1c-0.2,0.1-0.3,0.3-0.5,0.4c-0.2,0.1-0.3,0.3-0.4,0.4
				c-0.7,0.6-1.3,1.3-2,2c-0.2,0.2-0.4,0.4-0.6,0.7c-0.8,0.9-1.5,1.7-2.2,2.6c0,0-0.1,0.1-0.1,0.1c-0.2,0.2-0.3,0.4-0.4,0.6
				c-0.4,0.6-0.8,1.1-1.2,1.7c-0.2,0.3-0.4,0.6-0.6,0.9c-0.3,0.5-0.7,1-0.9,1.5c-0.1,0.1-0.2,0.3-0.3,0.4c-0.1,0.2-0.2,0.4-0.3,0.6
				c-0.2,0.4-0.5,0.9-0.7,1.3c-0.2,0.4-0.3,0.7-0.5,1.1c-0.2,0.4-0.4,0.9-0.6,1.3c-0.1,0.2-0.2,0.4-0.2,0.6
				c-0.1,0.2-0.1,0.4-0.2,0.5c-0.1,0.4-0.3,0.8-0.4,1.3c-0.1,0.4-0.2,0.8-0.3,1.1c-0.1,0.4-0.2,0.8-0.3,1.3
				c-0.1,0.2-0.1,0.5-0.2,0.7c0,0.2,0,0.3-0.1,0.5c-0.1,0.4-0.1,0.9-0.2,1.3c-0.1,0.4-0.1,0.8-0.1,1.1c0,0.4-0.1,0.9-0.1,1.3
				c0,0.3,0,0.5-0.1,0.8c0,0.3,0,0.5,0,0.8l0,14.5c0-0.5,0-1,0.1-1.5C64.2,210.9,64.2,210.4,64.3,210z"/>
			<path class="st14" d="M276.4,201.2c0,0.6-0.1,1.3-0.1,1.9c-0.1,0.6-0.1,1.1-0.2,1.7c-0.1,0.6-0.2,1.3-0.3,1.9
				c-0.1,0.6-0.2,1.1-0.3,1.7c-0.1,0.6-0.3,1.2-0.4,1.8c-0.1,0.6-0.3,1.1-0.5,1.7c-0.2,0.6-0.4,1.2-0.6,1.8
				c-0.2,0.5-0.4,1.1-0.6,1.6c-0.3,0.6-0.5,1.3-0.8,1.9c-0.2,0.5-0.5,1.1-0.7,1.6c-0.3,0.6-0.6,1.3-1,1.9c-0.3,0.5-0.6,1-0.8,1.5
				c-0.4,0.7-0.9,1.5-1.4,2.2c-0.3,0.5-0.6,0.9-0.9,1.4c-0.6,0.8-1.2,1.6-1.8,2.4c-0.3,0.4-0.6,0.8-0.9,1.1
				c-0.1,0.2-0.3,0.3-0.4,0.5c-0.7,0.8-1.3,1.6-2,2.4c-0.2,0.2-0.4,0.4-0.6,0.7c-0.8,0.9-1.7,1.8-2.6,2.7c-0.2,0.2-0.3,0.3-0.5,0.5
				c-0.7,0.7-1.4,1.3-2.2,2c-0.6,0.5-1.2,1.1-1.8,1.6c-0.6,0.5-1.1,1-1.7,1.4c-0.6,0.5-1.3,1-2,1.5c-0.6,0.5-1.2,0.9-1.9,1.4
				c-0.7,0.5-1.4,1-2.1,1.5c-0.7,0.5-1.3,0.9-2,1.4c-0.7,0.5-1.5,1-2.3,1.4c-1,0.6-1.9,1.2-2.9,1.8c-1.9,1.1-3.8,2.1-5.8,3.1
				c-0.6,0.3-1.1,0.6-1.7,0.9c-1.5,0.8-3.1,1.5-4.7,2.2c-0.5,0.2-1.1,0.5-1.6,0.7c-2.1,0.9-4.1,1.7-6.3,2.6
				c-0.4,0.1-0.8,0.3-1.1,0.4c-1.8,0.7-3.6,1.3-5.5,1.9c-0.8,0.2-1.5,0.5-2.3,0.7c-1,0.3-2,0.6-3.1,0.9c-0.9,0.3-1.7,0.5-2.6,0.7
				c-1,0.3-2.1,0.6-3.1,0.8c-0.9,0.2-1.8,0.5-2.6,0.7c-1.1,0.3-2.1,0.5-3.2,0.7c-0.9,0.2-1.8,0.4-2.7,0.6c-1.1,0.2-2.2,0.4-3.3,0.6
				c-0.8,0.2-1.7,0.3-2.5,0.5c-2.4,0.4-4.7,0.8-7.1,1.1c-0.3,0-0.7,0.1-1,0.1c-2.1,0.3-4.2,0.5-6.3,0.7c-0.8,0.1-1.6,0.2-2.4,0.2
				c-1.3,0.1-2.7,0.2-4,0.3c-0.8,0.1-1.7,0.1-2.5,0.2c-1.4,0.1-2.8,0.2-4.2,0.2c-0.8,0-1.6,0.1-2.4,0.1c-1.2,0-2.5,0.1-3.7,0.1
				c-0.9,0-1.7,0-2.6,0c-1.3,0-2.6,0-4,0c-0.8,0-1.5,0-2.3,0c-1.2,0-2.4-0.1-3.6-0.1c-0.8,0-1.7-0.1-2.5-0.1
				c-1.3-0.1-2.6-0.2-3.9-0.3c-0.7-0.1-1.4-0.1-2.2-0.2c-1.6-0.1-3.2-0.3-4.8-0.5c-0.4,0-0.8-0.1-1.2-0.1c-2-0.2-4-0.5-6-0.8
				c-0.3,0-0.6-0.1-0.9-0.1c-1.7-0.3-3.4-0.5-5.1-0.8c-0.7-0.1-1.4-0.3-2.1-0.4c-1.3-0.2-2.6-0.5-3.9-0.7c-0.7-0.1-1.3-0.3-2-0.4
				c-1.4-0.3-2.8-0.6-4.2-1c-0.8-0.2-1.6-0.4-2.3-0.6c-1.3-0.3-2.5-0.7-3.8-1c-0.7-0.2-1.4-0.4-2.1-0.6c-2-0.6-4-1.2-5.9-1.8
				c-0.3-0.1-0.7-0.2-1-0.3c-2.3-0.8-4.5-1.6-6.6-2.4c-0.9-0.3-1.8-0.7-2.6-1.1c-0.7-0.3-1.4-0.6-2.1-0.9c-1-0.4-2-0.9-2.9-1.3
				c-0.6-0.3-1.3-0.6-1.9-0.9c-1.1-0.5-2.1-1-3.1-1.6c-0.5-0.3-1-0.5-1.5-0.8c-1.5-0.8-3-1.6-4.5-2.5C37.4,235.8,25,217,25,198.2
				l0,14.5c-0.1,18.8,12.3,37.5,37.1,51.8c1.5,0.9,3,1.7,4.5,2.5c0.5,0.3,1,0.5,1.5,0.8c1,0.5,2.1,1.1,3.1,1.6
				c0.6,0.3,1.3,0.6,1.9,0.9c1,0.4,1.9,0.9,2.9,1.3c0.7,0.3,1.4,0.6,2.1,0.9c0.7,0.3,1.3,0.6,2,0.8c0.2,0.1,0.4,0.2,0.6,0.2
				c2.2,0.9,4.4,1.7,6.6,2.4c0.3,0.1,0.7,0.2,1,0.3c2,0.6,3.9,1.3,5.9,1.8c0.3,0.1,0.7,0.2,1,0.3c0.4,0.1,0.8,0.2,1.2,0.3
				c1.3,0.4,2.5,0.7,3.8,1c0.8,0.2,1.6,0.4,2.3,0.6c1.4,0.3,2.8,0.6,4.2,1c0.5,0.1,1,0.2,1.6,0.4c0.1,0,0.3,0.1,0.4,0.1
				c1.3,0.3,2.6,0.5,3.9,0.7c0.7,0.1,1.4,0.3,2.1,0.4c1.7,0.3,3.4,0.6,5.1,0.8c0.3,0,0.6,0.1,0.9,0.1c0,0,0,0,0,0c2,0.3,4,0.5,6,0.8
				c0.4,0,0.8,0.1,1.2,0.1c1.6,0.2,3.2,0.3,4.8,0.5c0,0,0.1,0,0.1,0c0.7,0.1,1.4,0.1,2.1,0.1c1.3,0.1,2.6,0.2,3.9,0.3
				c0.8,0,1.7,0.1,2.5,0.1c1.2,0.1,2.4,0.1,3.6,0.1c0.1,0,0.2,0,0.3,0c0.7,0,1.3,0,2,0c1.3,0,2.6,0,3.9,0c0.9,0,1.7,0,2.6,0
				c1.2,0,2.5,0,3.7-0.1c0.2,0,0.5,0,0.7,0c0.6,0,1.1-0.1,1.7-0.1c1.4-0.1,2.8-0.1,4.2-0.2c0.8-0.1,1.7-0.1,2.5-0.2
				c1.4-0.1,2.7-0.2,4-0.3c0.5,0,0.9-0.1,1.4-0.1c0.3,0,0.7-0.1,1-0.1c2.1-0.2,4.2-0.5,6.3-0.7c0.3,0,0.7-0.1,1-0.1
				c2.4-0.3,4.8-0.7,7.1-1.1c0.2,0,0.4-0.1,0.7-0.1c0.6-0.1,1.2-0.2,1.9-0.4c1.1-0.2,2.2-0.4,3.3-0.6c0.9-0.2,1.8-0.4,2.7-0.6
				c1.1-0.2,2.1-0.5,3.2-0.7c0.9-0.2,1.8-0.4,2.6-0.7c1-0.3,2.1-0.5,3.1-0.8c0.9-0.2,1.7-0.5,2.6-0.8c1-0.3,2-0.6,3.1-0.9
				c0.4-0.1,0.9-0.3,1.3-0.4c0.3-0.1,0.6-0.2,0.9-0.3c1.8-0.6,3.7-1.2,5.4-1.9c0.4-0.1,0.8-0.3,1.1-0.4c2.1-0.8,4.2-1.7,6.3-2.6
				c0.5-0.2,1.1-0.5,1.6-0.7c1.6-0.7,3.1-1.4,4.7-2.2c0.6-0.3,1.1-0.6,1.7-0.9c2-1,3.9-2,5.8-3.1c0.5-0.3,1-0.6,1.5-0.9
				c0.5-0.3,0.9-0.6,1.4-0.9c0.8-0.5,1.5-1,2.3-1.4c0.7-0.4,1.3-0.9,2-1.4c0.7-0.5,1.4-1,2.1-1.5c0.6-0.5,1.3-0.9,1.9-1.4
				c0.7-0.5,1.3-1,2-1.5c0.6-0.5,1.2-1,1.7-1.4c0.6-0.5,1.2-1.1,1.8-1.6c0.2-0.2,0.5-0.4,0.7-0.6c0.5-0.4,0.9-0.9,1.4-1.3
				c0.2-0.2,0.3-0.3,0.5-0.5c0.9-0.9,1.8-1.8,2.6-2.7c0.2-0.2,0.4-0.4,0.6-0.7c0.7-0.8,1.4-1.6,2-2.4c0.1-0.2,0.3-0.3,0.4-0.5
				c0.1-0.1,0.1-0.2,0.2-0.2c0.2-0.3,0.4-0.6,0.7-0.9c0.6-0.8,1.2-1.6,1.8-2.4c0.3-0.4,0.6-0.9,0.9-1.3c0.5-0.7,0.9-1.5,1.4-2.2
				c0.1-0.2,0.3-0.4,0.4-0.6c0.2-0.3,0.3-0.6,0.5-0.9c0.3-0.6,0.7-1.3,1-1.9c0.3-0.5,0.5-1.1,0.7-1.6c0.3-0.6,0.5-1.3,0.8-1.9
				c0.1-0.3,0.3-0.6,0.4-0.9c0.1-0.3,0.2-0.5,0.3-0.8c0.2-0.6,0.4-1.2,0.6-1.8c0.2-0.6,0.3-1.1,0.5-1.7c0.2-0.6,0.3-1.2,0.4-1.8
				c0.1-0.3,0.2-0.7,0.2-1c0-0.2,0.1-0.4,0.1-0.7c0.1-0.6,0.2-1.3,0.3-1.9c0.1-0.5,0.2-1.1,0.2-1.7c0.1-0.6,0.1-1.3,0.1-1.9
				c0-0.4,0.1-0.7,0.1-1.1c0-0.4,0-0.7,0-1.1l0-14.5C276.4,199.7,276.4,200.4,276.4,201.2z"/>
		</g>
		<path class="st15" d="M89.7,234.1c33.9,19.6,88.8,19.6,122.5,0c33.7-19.6,33.5-51.4-0.4-70.9c-33.9-19.6-88.8-19.6-122.5,0
			C55.6,182.7,55.8,214.5,89.7,234.1 M239.3,147.1c49.3,28.4,49.5,74.5,0.6,103c-48.9,28.4-128.5,28.4-177.8,0
			c-49.3-28.4-49.5-74.5-0.6-103C110.5,118.7,190.1,118.7,239.3,147.1z"/>
		<path class="st16" d="M89.7,234.1c33.9,19.6,88.8,19.6,122.5,0c33.7-19.6,33.5-51.4-0.4-70.9c-33.9-19.6-88.8-19.6-122.5,0
			C55.6,182.7,55.8,214.5,89.7,234.1 M239.3,147.1c49.3,28.4,49.5,74.5,0.6,103c-48.9,28.4-128.5,28.4-177.8,0
			c-49.3-28.4-49.5-74.5-0.6-103C110.5,118.7,190.1,118.7,239.3,147.1z"/>
		<path class="st17" d="M211.8,163.1c1.3,0.8,2.5,1.5,3.7,2.3l27.8-15.9c-1.3-0.8-2.6-1.6-4-2.4c-11.3-6.5-24.1-11.5-37.8-15
			l-27.6,18.2C187.8,152.6,200.9,156.8,211.8,163.1z"/>
		<path class="st17" d="M89.7,234.1c-8.2-4.7-14.3-10.1-18.6-15.9l-27.6,18.2c5.1,4.9,11.3,9.5,18.6,13.7c0.9,0.5,1.8,1,2.7,1.5
			l27.8-15.9C91.6,235.2,90.7,234.6,89.7,234.1z"/>
		<path class="st17" d="M252.1,155.7l-28.7,15.8c4.7,4.2,8.2,8.7,10.5,13.3l31.3-16C261.7,164.2,257.3,159.8,252.1,155.7z"/>
		<path class="st17" d="M116.8,244.7c-5.8-1.4-11.4-3.3-16.7-5.5L71.5,255c4.5,2.1,9.2,4,14,5.7L116.8,244.7z"/>
	</g>
	<path class="st16" d="M168.8,93.7c-1.6-0.9-3.2-1.8-4.9-2.6c-0.6-0.3-1.1-0.5-1.7-0.7c-1-0.4-2-0.9-3-1.3c-0.2-0.1-0.4-0.1-0.5-0.2
		c-0.4-0.1-0.8-0.3-1.2-0.4c-1.3-0.5-2.7-1-4.1-1.4c-0.5-0.1-0.9-0.3-1.4-0.4c-0.3-0.1-0.6-0.2-0.9-0.3c-1.3-0.4-2.7-0.7-4.1-1.1
		c-0.3-0.1-0.6-0.1-0.9-0.2c-0.7-0.2-1.3-0.3-2-0.5c-1.1-0.2-2.3-0.5-3.5-0.7c-0.1,0-0.2,0-0.3-0.1c-0.9-0.2-1.9-0.3-2.8-0.4
		c-0.5-0.1-1-0.1-1.6-0.2c-1.1-0.1-2.2-0.3-3.3-0.4c-0.5-0.1-1.1-0.1-1.6-0.2c-0.5,0-1,0-1.5-0.1c-1.1-0.1-2.2-0.1-3.4-0.2
		c-0.6,0-1.1-0.1-1.7-0.1c-0.5,0-0.9,0-1.4,0c-1.2,0-2.4,0-3.7,0c-0.6,0-1.2,0-1.8,0c-0.6,0-1.2,0.1-1.8,0.1c-0.3,0-0.7,0-1,0.1
		c-1.5,0.1-3,0.2-4.5,0.3c-0.3,0-0.6,0.1-0.9,0.1c-0.5,0-0.9,0.1-1.4,0.2c-1.5,0.2-3.1,0.4-4.6,0.7c-0.4,0.1-0.8,0.1-1.1,0.2
		c-0.2,0-0.4,0.1-0.5,0.1c-0.7,0.1-1.4,0.3-2.1,0.5c-1.2,0.3-2.5,0.5-3.7,0.8c-0.9,0.2-1.7,0.5-2.6,0.7c-1.2,0.3-2.3,0.6-3.4,1
		c-0.2,0.1-0.5,0.1-0.7,0.2c-1.4,0.4-2.7,0.9-4,1.4c-0.2,0.1-0.4,0.2-0.6,0.2c-1.5,0.6-2.9,1.2-4.3,1.8c-0.4,0.2-0.8,0.4-1.2,0.6
		c-1.5,0.7-3.1,1.5-4.5,2.4c-0.3,0.2-0.5,0.3-0.8,0.5c-0.3,0.2-0.5,0.3-0.7,0.5c-0.4,0.3-0.8,0.5-1.2,0.8c-0.4,0.2-0.7,0.5-1.1,0.7
		c-0.4,0.3-0.8,0.5-1.1,0.8c-0.3,0.2-0.7,0.5-1,0.7c-0.4,0.3-0.7,0.5-1,0.8c-0.3,0.3-0.6,0.5-0.9,0.8c-0.3,0.3-0.7,0.6-1,0.8
		c-0.1,0.1-0.3,0.2-0.4,0.3c-0.1,0.1-0.2,0.2-0.3,0.3c-0.5,0.5-1,1-1.5,1.5c-0.2,0.2-0.3,0.3-0.5,0.5c-0.6,0.7-1.2,1.3-1.7,2
		c0,0-0.1,0.1-0.1,0.1c-0.1,0.2-0.2,0.3-0.3,0.5c-0.3,0.4-0.6,0.9-0.9,1.3c-0.2,0.2-0.3,0.5-0.5,0.7c-0.3,0.4-0.5,0.8-0.7,1.2
		c-0.1,0.1-0.1,0.2-0.2,0.3c-0.1,0.2-0.2,0.3-0.3,0.5c-0.2,0.3-0.4,0.7-0.5,1c-0.1,0.3-0.3,0.6-0.4,0.8c-0.1,0.3-0.3,0.7-0.4,1
		c-0.1,0.2-0.1,0.3-0.2,0.5c-0.1,0.1-0.1,0.3-0.1,0.4c-0.1,0.3-0.2,0.6-0.3,1c-0.1,0.3-0.2,0.6-0.3,0.9c-0.1,0.3-0.2,0.6-0.2,1
		c0,0.2-0.1,0.4-0.1,0.5c0,0.1,0,0.2-0.1,0.4c-0.1,0.3-0.1,0.7-0.2,1c0,0.3-0.1,0.6-0.1,0.9c0,0.3-0.1,0.7-0.1,1c0,0.2,0,0.4,0,0.6
		c0,0.2,0,0.4,0,0.6l0,14.5c0-0.4,0-0.8,0.1-1.2c0-0.3,0-0.7,0.1-1c0-0.3,0.1-0.6,0.1-0.9c0-0.3,0.1-0.7,0.2-1
		c0.1-0.3,0.1-0.6,0.2-0.9c0.1-0.3,0.1-0.6,0.2-1c0.1-0.3,0.2-0.6,0.3-0.9c0.1-0.3,0.2-0.6,0.3-1c0.1-0.3,0.2-0.6,0.3-0.9
		c0.1-0.3,0.3-0.7,0.4-1c0.1-0.3,0.3-0.6,0.4-0.8c0.2-0.3,0.3-0.7,0.5-1c0.1-0.3,0.3-0.5,0.5-0.8c0.2-0.4,0.5-0.8,0.7-1.2
		c0.2-0.2,0.3-0.5,0.5-0.7c0.3-0.4,0.6-0.9,0.9-1.3c0.1-0.2,0.3-0.4,0.4-0.6c0.5-0.7,1.1-1.4,1.7-2c0.2-0.2,0.3-0.3,0.5-0.5
		c0.5-0.5,1-1,1.5-1.5c0.2-0.2,0.5-0.5,0.7-0.7c0.3-0.3,0.6-0.6,1-0.8c0.3-0.3,0.6-0.5,0.9-0.8c0.3-0.3,0.7-0.5,1-0.8
		c0.3-0.2,0.7-0.5,1-0.7c0.4-0.3,0.7-0.5,1.1-0.8c0.3-0.2,0.7-0.5,1.1-0.7c0.4-0.3,0.8-0.5,1.2-0.8c0.5-0.3,1-0.6,1.5-0.9
		c1.4-0.8,3-1.6,4.5-2.4c0.4-0.2,0.8-0.4,1.2-0.6c1.4-0.6,2.8-1.3,4.3-1.8c0.2-0.1,0.4-0.2,0.6-0.2c1.6-0.6,3.2-1.1,4.8-1.6
		c1.1-0.4,2.3-0.7,3.4-1c0.9-0.2,1.7-0.5,2.6-0.7c1.2-0.3,2.4-0.5,3.7-0.8c0.9-0.2,1.8-0.4,2.7-0.5c0.4-0.1,0.7-0.1,1.1-0.2
		c1.5-0.3,3.1-0.5,4.6-0.7c0.4-0.1,0.9-0.1,1.3-0.2c1.8-0.2,3.6-0.3,5.4-0.5c0.3,0,0.7,0,1-0.1c1.2-0.1,2.4-0.1,3.7-0.1
		c1.2,0,2.4,0,3.7,0c1,0,2,0,3.1,0.1c1.1,0,2.3,0.1,3.4,0.2c1,0.1,2.1,0.2,3.1,0.3c1.1,0.1,2.2,0.2,3.3,0.4c1.5,0.2,2.9,0.4,4.4,0.6
		c0.1,0,0.2,0,0.3,0.1c1.8,0.3,3.7,0.7,5.5,1.1c0.3,0.1,0.6,0.1,0.9,0.2c1.7,0.4,3.4,0.9,5,1.3c0.5,0.1,0.9,0.3,1.4,0.4
		c1.4,0.4,2.7,0.9,4.1,1.4c0.4,0.1,0.8,0.3,1.2,0.4c1.2,0.5,2.4,1,3.5,1.5c0.6,0.3,1.2,0.5,1.7,0.7c1.7,0.8,3.3,1.6,4.9,2.6
		c13.1,7.6,19.7,17.5,19.7,27.5l0-14.5C188.5,111.2,181.9,101.3,168.8,93.7z"/>
	<path class="st18" d="M218.4,123c0,0.5-0.1,1-0.1,1.5c0,0.4-0.1,0.8-0.2,1.3c-0.1,0.5-0.1,1-0.2,1.4c-0.1,0.4-0.2,0.9-0.3,1.3
		c-0.1,0.5-0.2,0.9-0.3,1.4c-0.1,0.4-0.2,0.9-0.4,1.3c-0.1,0.5-0.3,0.9-0.5,1.4c-0.1,0.4-0.3,0.8-0.5,1.2c-0.2,0.5-0.4,1-0.6,1.5
		c-0.2,0.4-0.4,0.8-0.6,1.2c-0.2,0.5-0.5,1-0.7,1.4c-0.2,0.4-0.4,0.8-0.7,1.2c-0.3,0.6-0.7,1.1-1.1,1.7c-0.2,0.3-0.4,0.7-0.7,1
		c-0.4,0.6-0.9,1.3-1.4,1.9c-0.2,0.3-0.4,0.5-0.6,0.8c-0.8,1-1.6,2-2.5,2.9c-0.2,0.2-0.5,0.5-0.7,0.7c-0.7,0.7-1.4,1.5-2.2,2.2
		c-0.3,0.3-0.7,0.7-1.1,1c-0.5,0.4-0.9,0.8-1.4,1.2c-0.4,0.4-0.9,0.7-1.3,1.1c-0.5,0.4-1,0.8-1.5,1.2c-0.5,0.4-1,0.7-1.4,1.1
		c-0.5,0.4-1.1,0.8-1.6,1.1c-0.5,0.4-1,0.7-1.5,1c-0.6,0.4-1.2,0.7-1.8,1.1c-0.7,0.5-1.5,0.9-2.2,1.4c-1.4,0.8-2.9,1.6-4.5,2.4
		c-0.4,0.2-0.9,0.4-1.3,0.7c-1.2,0.6-2.4,1.1-3.6,1.7c-0.4,0.2-0.8,0.4-1.2,0.6c-1.6,0.7-3.2,1.3-4.8,2c-0.3,0.1-0.6,0.2-0.9,0.3
		c-1.4,0.5-2.8,1-4.2,1.5c-0.6,0.2-1.2,0.4-1.8,0.6c-0.8,0.2-1.6,0.5-2.4,0.7c-0.7,0.2-1.3,0.4-2,0.6c-0.8,0.2-1.6,0.4-2.4,0.6
		c-0.7,0.2-1.4,0.3-2,0.5c-0.8,0.2-1.6,0.4-2.5,0.6c-0.7,0.2-1.4,0.3-2.1,0.5c-0.8,0.2-1.7,0.3-2.5,0.5c-0.7,0.1-1.3,0.3-2,0.4
		c-1.8,0.3-3.6,0.6-5.5,0.9c-0.3,0-0.5,0.1-0.8,0.1c-1.6,0.2-3.2,0.4-4.8,0.6c-0.6,0.1-1.2,0.1-1.8,0.2c-1,0.1-2.1,0.2-3.1,0.3
		c-0.7,0-1.3,0.1-2,0.1c-1.1,0.1-2.2,0.1-3.3,0.2c-0.6,0-1.2,0.1-1.8,0.1c-0.9,0-1.9,0-2.8,0.1c-0.7,0-1.3,0-2,0c-1,0-2,0-3,0
		c-0.6,0-1.2,0-1.8,0c-0.9,0-1.9-0.1-2.8-0.1c-0.6,0-1.3,0-1.9-0.1c-1-0.1-2-0.1-3-0.2c-0.6,0-1.1-0.1-1.7-0.1
		c-1.2-0.1-2.4-0.2-3.6-0.3c-0.4,0-0.7-0.1-1.1-0.1c-1.5-0.2-3.1-0.4-4.6-0.6c-0.3,0-0.5-0.1-0.8-0.1c-1.3-0.2-2.6-0.4-3.9-0.6
		c-0.5-0.1-1.1-0.2-1.6-0.3c-1-0.2-2-0.4-3-0.6c-0.5-0.1-1-0.2-1.5-0.3c-1.1-0.2-2.2-0.5-3.3-0.7c-0.6-0.1-1.2-0.3-1.8-0.4
		c-1-0.2-2-0.5-2.9-0.8c-0.6-0.2-1.1-0.3-1.7-0.5c-1.5-0.4-3.1-0.9-4.6-1.4c-0.3-0.1-0.5-0.2-0.8-0.3c-1.7-0.6-3.4-1.2-5.1-1.9
		c-0.7-0.3-1.4-0.5-2-0.8c-0.5-0.2-1.1-0.4-1.6-0.7c-0.8-0.3-1.5-0.7-2.2-1c-0.5-0.2-1-0.4-1.5-0.7c-0.8-0.4-1.6-0.8-2.4-1.2
		c-0.4-0.2-0.8-0.4-1.2-0.6c-1.2-0.6-2.3-1.3-3.5-1.9c-9.5-5.5-16.7-11.9-21.4-18.7c-1.2-1.7-2.2-3.4-3.1-5.2
		c-0.4-0.9-0.9-1.8-1.2-2.6c-1.9-4.4-2.8-8.9-2.8-13.4l0,14.5c0,14.4,9.5,28.9,28.6,39.9c1.1,0.7,2.3,1.3,3.5,1.9
		c0.4,0.2,0.8,0.4,1.2,0.6c0.8,0.4,1.6,0.8,2.4,1.2c0.5,0.2,1,0.4,1.5,0.7c0.7,0.3,1.5,0.7,2.2,1c0.5,0.2,1.1,0.4,1.6,0.7
		c0.5,0.2,1,0.4,1.5,0.6c0.2,0.1,0.3,0.1,0.5,0.2c1.7,0.7,3.4,1.3,5.1,1.9c0.3,0.1,0.5,0.2,0.8,0.3c1.5,0.5,3,1,4.6,1.4
		c0.3,0.1,0.5,0.2,0.8,0.2c0.3,0.1,0.6,0.2,0.9,0.2c1,0.3,2,0.5,2.9,0.8c0.6,0.2,1.2,0.3,1.8,0.4c1.1,0.3,2.2,0.5,3.3,0.7
		c0.4,0.1,0.8,0.2,1.2,0.3c0.1,0,0.2,0,0.3,0.1c1,0.2,2,0.4,3,0.6c0.5,0.1,1.1,0.2,1.6,0.3c1.3,0.2,2.6,0.4,3.9,0.6
		c0.3,0,0.5,0.1,0.7,0.1c0,0,0,0,0,0c1.5,0.2,3.1,0.4,4.6,0.6c0.3,0,0.6,0.1,1,0.1c1.2,0.1,2.5,0.3,3.7,0.4c0,0,0.1,0,0.1,0
		c0.5,0,1.1,0.1,1.6,0.1c1,0.1,2,0.1,3,0.2c0.6,0,1.3,0.1,1.9,0.1c0.9,0,1.8,0.1,2.8,0.1c0.1,0,0.1,0,0.2,0c0.5,0,1,0,1.6,0
		c1,0,2,0,3,0c0.7,0,1.3,0,2,0c0.9,0,1.9,0,2.8-0.1c0.2,0,0.3,0,0.5,0c0.4,0,0.9,0,1.3-0.1c1.1,0,2.2-0.1,3.3-0.2
		c0.7,0,1.3-0.1,1.9-0.1c1-0.1,2.1-0.2,3.1-0.3c0.4,0,0.7-0.1,1.1-0.1c0.3,0,0.5-0.1,0.8-0.1c1.6-0.2,3.2-0.4,4.8-0.6
		c0.3,0,0.5-0.1,0.8-0.1c1.8-0.3,3.7-0.6,5.5-0.9c0.2,0,0.3-0.1,0.5-0.1c0.5-0.1,1-0.2,1.4-0.3c0.8-0.2,1.7-0.3,2.5-0.5
		c0.7-0.1,1.4-0.3,2-0.4c0.8-0.2,1.7-0.4,2.5-0.6c0.7-0.2,1.4-0.3,2-0.5c0.8-0.2,1.6-0.4,2.4-0.6c0.7-0.2,1.3-0.4,2-0.6
		c0.8-0.2,1.6-0.5,2.4-0.7c0.3-0.1,0.7-0.2,1-0.3c0.2-0.1,0.5-0.2,0.7-0.3c1.4-0.5,2.8-1,4.2-1.5c0.3-0.1,0.6-0.2,0.9-0.3
		c1.6-0.6,3.2-1.3,4.8-2c0.4-0.2,0.8-0.4,1.2-0.6c1.2-0.5,2.4-1.1,3.6-1.7c0.4-0.2,0.9-0.4,1.3-0.7c1.5-0.8,3-1.6,4.5-2.4
		c0.4-0.2,0.8-0.5,1.2-0.7c0.4-0.2,0.7-0.4,1.1-0.7c0.6-0.4,1.2-0.7,1.8-1.1c0.5-0.3,1-0.7,1.5-1c0.6-0.4,1.1-0.8,1.6-1.1
		c0.5-0.4,1-0.7,1.4-1.1c0.5-0.4,1-0.8,1.5-1.2c0.5-0.4,0.9-0.7,1.3-1.1c0.5-0.4,0.9-0.8,1.4-1.2c0.2-0.2,0.4-0.3,0.6-0.5
		c0.2-0.2,0.3-0.3,0.5-0.5c0.8-0.7,1.5-1.4,2.2-2.2c0.2-0.2,0.5-0.5,0.7-0.7c0.9-1,1.7-1.9,2.5-2.9c0,0,0.1-0.1,0.1-0.1
		c0.2-0.2,0.3-0.5,0.5-0.7c0.5-0.6,0.9-1.2,1.4-1.9c0.2-0.3,0.5-0.7,0.7-1c0.4-0.6,0.7-1.1,1.1-1.7c0.1-0.2,0.2-0.3,0.3-0.5
		c0.1-0.2,0.2-0.5,0.4-0.7c0.3-0.5,0.5-1,0.8-1.5c0.2-0.4,0.4-0.8,0.6-1.2c0.2-0.5,0.4-1,0.6-1.5c0.1-0.2,0.2-0.4,0.3-0.7
		c0.1-0.2,0.1-0.4,0.2-0.6c0.2-0.5,0.3-0.9,0.5-1.4c0.1-0.4,0.3-0.9,0.4-1.3c0.1-0.5,0.2-0.9,0.3-1.4c0.1-0.3,0.1-0.5,0.2-0.8
		c0-0.2,0-0.3,0.1-0.5c0.1-0.5,0.2-1,0.2-1.4c0.1-0.4,0.1-0.8,0.2-1.3c0-0.5,0.1-1,0.1-1.5c0-0.3,0.1-0.6,0.1-0.9c0-0.3,0-0.6,0-0.8
		l0-14.5C218.5,121.8,218.5,122.4,218.4,123z"/>
	<g>
		<path class="st19" d="M74.8,148.3c26.1,15.1,68.3,15.1,94.3,0c25.9-15.1,25.8-39.5-0.3-54.6s-68.3-15.1-94.3,0
			C48.6,108.8,48.7,133.2,74.8,148.3 M190,81.4c37.9,21.9,38.1,57.4,0.4,79.2c-37.7,21.9-98.9,21.9-136.8,0
			c-37.9-21.9-38.1-57.4-0.4-79.2C90.8,59.5,152.1,59.5,190,81.4z"/>
	</g>
	<g class="st2">
		<path class="st3" d="M163.7,91.1l21.4-12.3c-12.8-6.5-27.7-10.7-43.4-12.6l-24.7,16.3C133.5,81.9,150.3,84.7,163.7,91.1z"/>
		<path class="st3" d="M55.3,123.3l-24.7,16.3c3.8,6.3,9.7,12.2,17.5,17.6l21.5-12.3C60.9,138.5,56.1,131,55.3,123.3z"/>
		<path class="st3" d="M194.1,83.9l-21.8,12c5.1,3.4,9,7.3,11.7,11.3l23.5-12C204,91.2,199.5,87.4,194.1,83.9z"/>
		<path class="st3" d="M90.6,155.1c-5.2-1.6-10.1-3.7-14.6-6.1l-21.8,12c4.1,2.3,8.4,4.4,12.9,6.2L90.6,155.1z"/>
	</g>
	<g>
		<path class="st20" d="M67.8,85.1c22.4,12.9,56.8,12.3,79.1-0.7c6.8-3,13-10.3,15.3-18.2c2.5-7.1,0.1-17.4-11.1-23.9
			c-1.8-1.1-3.8-1.9-5.8-2.6c-23.6-8.2-56.8-8.4-78.3,4.1C44.7,56.8,45.4,72.1,67.8,85.1 M161,30.9c32.8,15.9,31.2,49.7,0.1,67.7
			c-31,18-82.1,17-112.5-2.4C21,78.6,22.8,46.3,48.3,30.9C79,12.3,129.8,12.9,161,30.9z"/>
	</g>
	<path class="st20" d="M185.1,65.5c0,0.4,0,0.8-0.1,1.2c0,0.3-0.1,0.7-0.1,1c-0.1,0.4-0.1,0.8-0.2,1.2c-0.1,0.3-0.1,0.7-0.2,1
		c-0.1,0.4-0.2,0.8-0.3,1.1c-0.1,0.3-0.2,0.7-0.3,1c-0.1,0.4-0.2,0.8-0.4,1.1c-0.1,0.3-0.2,0.7-0.4,1c-0.2,0.4-0.3,0.8-0.5,1.2
		c-0.1,0.3-0.3,0.7-0.5,1c-0.2,0.4-0.4,0.8-0.6,1.2c-0.2,0.3-0.3,0.6-0.5,0.9c-0.3,0.5-0.6,0.9-0.9,1.4c-0.2,0.3-0.4,0.6-0.5,0.8
		c-0.3,0.5-0.7,1-1.1,1.5c-0.2,0.2-0.3,0.4-0.5,0.7c-0.6,0.8-1.3,1.6-2,2.4c-0.2,0.2-0.4,0.4-0.6,0.6c-0.6,0.6-1.2,1.2-1.8,1.8
		c-0.3,0.3-0.6,0.5-0.9,0.8c-0.4,0.3-0.7,0.7-1.1,1c-0.4,0.3-0.7,0.6-1.1,0.9c-0.4,0.3-0.8,0.6-1.2,1c-0.4,0.3-0.8,0.6-1.2,0.9
		c-0.4,0.3-0.9,0.6-1.3,0.9c-0.4,0.3-0.8,0.6-1.3,0.8c-0.5,0.3-0.9,0.6-1.4,0.9c-0.6,0.4-1.2,0.7-1.8,1.1c-1.2,0.7-2.4,1.3-3.6,2
		c-0.4,0.2-0.7,0.4-1.1,0.5c-1,0.5-1.9,0.9-2.9,1.4c-0.3,0.1-0.7,0.3-1,0.4c-1.3,0.6-2.6,1.1-3.9,1.6c-0.2,0.1-0.5,0.2-0.7,0.3
		c-1.1,0.4-2.2,0.8-3.4,1.2c-0.5,0.2-0.9,0.3-1.4,0.5c-0.6,0.2-1.3,0.4-1.9,0.6c-0.5,0.2-1.1,0.3-1.6,0.5c-0.6,0.2-1.3,0.4-1.9,0.5
		c-0.5,0.1-1.1,0.3-1.7,0.4c-0.7,0.2-1.3,0.3-2,0.5c-0.6,0.1-1.1,0.2-1.7,0.4c-0.7,0.1-1.4,0.3-2,0.4c-0.5,0.1-1.1,0.2-1.6,0.3
		c-1.5,0.3-2.9,0.5-4.4,0.7c-0.2,0-0.4,0.1-0.6,0.1c-1.3,0.2-2.6,0.3-3.9,0.5c-0.5,0.1-1,0.1-1.5,0.1c-0.8,0.1-1.7,0.1-2.5,0.2
		c-0.5,0-1.1,0.1-1.6,0.1c-0.9,0.1-1.8,0.1-2.6,0.1c-0.5,0-1,0-1.5,0.1c-0.8,0-1.5,0-2.3,0c-0.5,0-1.1,0-1.6,0c-0.8,0-1.6,0-2.5,0
		c-0.5,0-1,0-1.4,0c-0.7,0-1.5-0.1-2.2-0.1c-0.5,0-1,0-1.6-0.1c-0.8,0-1.6-0.1-2.4-0.2c-0.4,0-0.9-0.1-1.3-0.1
		c-1-0.1-1.9-0.2-2.9-0.3c-0.3,0-0.6-0.1-0.9-0.1c-1.2-0.1-2.5-0.3-3.7-0.5c-0.2,0-0.4-0.1-0.6-0.1c-1-0.2-2.1-0.3-3.1-0.5
		c-0.4-0.1-0.9-0.2-1.3-0.2c-0.8-0.1-1.6-0.3-2.4-0.5c-0.4-0.1-0.8-0.2-1.3-0.3c-0.9-0.2-1.8-0.4-2.6-0.6c-0.5-0.1-1-0.2-1.4-0.4
		c-0.8-0.2-1.6-0.4-2.4-0.6c-0.4-0.1-0.9-0.3-1.3-0.4c-1.2-0.4-2.5-0.7-3.7-1.1c-0.2-0.1-0.4-0.1-0.7-0.2c-1.4-0.5-2.8-1-4.1-1.5
		c-0.6-0.2-1.1-0.4-1.6-0.7c-0.4-0.2-0.9-0.4-1.3-0.5c-0.6-0.3-1.2-0.5-1.8-0.8c-0.4-0.2-0.8-0.4-1.2-0.5c-0.7-0.3-1.3-0.6-2-1
		c-0.3-0.2-0.6-0.3-1-0.5c-1-0.5-1.9-1-2.8-1.5C44,91.5,38.4,85.8,34.6,80.3c-1-1.4-2-2.2-2.7-3.6c-0.4-0.7-0.7-1.4-1-2.1
		c-1.5-3.6-2.2-7.2-2.2-10.9l0,11.7c0,11.7,7.7,23.4,23.1,32.3c0.9,0.5,1.9,1,2.8,1.5c0.3,0.2,0.6,0.3,1,0.5c0.6,0.3,1.3,0.7,2,1
		c0.4,0.2,0.8,0.4,1.2,0.5c0.6,0.3,1.2,0.5,1.8,0.8c0.4,0.2,0.9,0.4,1.3,0.5c0.4,0.2,0.8,0.4,1.2,0.5c0.1,0.1,0.3,0.1,0.4,0.1
		c1.4,0.5,2.7,1,4.1,1.5c0.2,0.1,0.4,0.1,0.6,0.2c1.2,0.4,2.5,0.8,3.7,1.2c0.2,0.1,0.4,0.1,0.6,0.2c0.2,0.1,0.5,0.1,0.7,0.2
		c0.8,0.2,1.6,0.4,2.4,0.6c0.5,0.1,1,0.2,1.4,0.4c0.9,0.2,1.8,0.4,2.6,0.6c0.3,0.1,0.7,0.2,1,0.2c0.1,0,0.2,0,0.3,0.1
		c0.8,0.2,1.6,0.3,2.4,0.5c0.4,0.1,0.9,0.2,1.3,0.2c1,0.2,2.1,0.3,3.2,0.5c0.2,0,0.4,0.1,0.6,0.1c0,0,0,0,0,0
		c1.2,0.2,2.5,0.3,3.7,0.5c0.3,0,0.5,0,0.8,0.1c1,0.1,2,0.2,3,0.3c0,0,0,0,0.1,0c0.4,0,0.9,0.1,1.3,0.1c0.8,0.1,1.6,0.1,2.4,0.2
		c0.5,0,1,0,1.6,0.1c0.7,0,1.5,0.1,2.2,0.1c0.1,0,0.1,0,0.2,0c0.4,0,0.8,0,1.3,0c0.8,0,1.6,0,2.5,0c0.5,0,1.1,0,1.6,0
		c0.8,0,1.5,0,2.3,0c0.1,0,0.3,0,0.4,0c0.4,0,0.7,0,1.1-0.1c0.9,0,1.8-0.1,2.6-0.1c0.5,0,1.1-0.1,1.6-0.1c0.8-0.1,1.7-0.1,2.5-0.2
		c0.3,0,0.6,0,0.9-0.1c0.2,0,0.4-0.1,0.6-0.1c1.3-0.1,2.6-0.3,3.9-0.5c0.2,0,0.4-0.1,0.6-0.1c1.5-0.2,3-0.4,4.4-0.7
		c0.1,0,0.3,0,0.4-0.1c0.4-0.1,0.8-0.2,1.2-0.2c0.7-0.1,1.4-0.3,2-0.4c0.6-0.1,1.1-0.2,1.7-0.4c0.7-0.2,1.3-0.3,2-0.5
		c0.5-0.1,1.1-0.3,1.6-0.4c0.7-0.2,1.3-0.3,2-0.5c0.5-0.2,1.1-0.3,1.6-0.5c0.6-0.2,1.3-0.4,1.9-0.6c0.3-0.1,0.6-0.2,0.8-0.3
		c0.2-0.1,0.4-0.1,0.6-0.2c1.1-0.4,2.3-0.8,3.4-1.2c0.2-0.1,0.5-0.2,0.7-0.3c1.3-0.5,2.6-1,3.9-1.6c0.3-0.1,0.7-0.3,1-0.4
		c1-0.4,2-0.9,2.9-1.4c0.4-0.2,0.7-0.4,1.1-0.5c1.2-0.6,2.4-1.3,3.6-2c0.3-0.2,0.6-0.4,1-0.6c0.3-0.2,0.6-0.4,0.9-0.5
		c0.5-0.3,1-0.6,1.4-0.9c0.4-0.3,0.8-0.6,1.3-0.8c0.4-0.3,0.9-0.6,1.3-0.9c0.4-0.3,0.8-0.6,1.2-0.9c0.4-0.3,0.8-0.6,1.2-1
		c0.4-0.3,0.7-0.6,1.1-0.9c0.4-0.3,0.8-0.7,1.1-1c0.2-0.1,0.3-0.3,0.5-0.4c0.1-0.1,0.3-0.3,0.4-0.4c0.6-0.6,1.2-1.2,1.8-1.8
		c0.2-0.2,0.4-0.4,0.6-0.6c0.7-0.8,1.4-1.6,2-2.4c0,0,0.1-0.1,0.1-0.1c0.1-0.2,0.3-0.4,0.4-0.6c0.4-0.5,0.8-1,1.1-1.5
		c0.2-0.3,0.4-0.6,0.5-0.8c0.3-0.5,0.6-0.9,0.9-1.4c0.1-0.1,0.2-0.3,0.2-0.4c0.1-0.2,0.2-0.4,0.3-0.6c0.2-0.4,0.4-0.8,0.6-1.2
		c0.2-0.3,0.3-0.7,0.5-1c0.2-0.4,0.3-0.8,0.5-1.2c0.1-0.2,0.2-0.4,0.2-0.5c0.1-0.2,0.1-0.3,0.2-0.5c0.1-0.4,0.3-0.8,0.4-1.1
		c0.1-0.3,0.2-0.7,0.3-1c0.1-0.4,0.2-0.8,0.3-1.1c0-0.2,0.1-0.4,0.2-0.6c0-0.1,0-0.3,0.1-0.4c0.1-0.4,0.1-0.8,0.2-1.2
		c0-0.3,0.1-0.7,0.1-1c0-0.4,0.1-0.8,0.1-1.2c0-0.2,0-0.5,0-0.7c0-0.2,0-0.5,0-0.7l0-11.7C185.2,64.6,185.2,65.1,185.1,65.5z"/>
	<g>
		<path class="st21" d="M68.7,85.2c21.2,12.6,53.9,9.7,76.4,0c20.9-9,26-36.2,1.8-48.9c-21.8-11.4-58.8-11.8-79.8,0.8
			C46.1,49.8,43.8,73.6,68.7,85.2 M162.1,29.1c30.7,18.4,30.9,48.1,0.4,66.5c-30.5,18.4-79.9,18.8-110.7,0.4
			C21,77.6,21.1,46.3,51.6,28C82.1,9.6,131.3,10.8,162.1,29.1z"/>
	</g>
	<g class="st2">
		<path class="st3" d="M148.6,37.3l13.3-8.3c-9.7-5.5-18.9-9.4-33.4-12.1l-16.4,10.8C125.2,28.6,137.7,32.1,148.6,37.3z"/>
		<path class="st3" d="M52.1,69.3L34.8,80.6c3.1,5.1,8.4,9.7,14.7,14l17.5-10C58.2,79.2,54.8,75.7,52.1,69.3z"/>
		<path class="st3" d="M169.6,34.4l-14.4,7.9c3.1,2.9,4.8,5.9,6.5,10.2l16.7-9C175.7,40.3,173.7,37.5,169.6,34.4z"/>
		<path class="st3" d="M84.7,91.5c-4.2-1.3-8.8-2.4-12.4-4.4L54.6,97.5c3.3,1.9,7.2,3.4,10.8,4.8L84.7,91.5z"/>
	</g>
	<g>
		<g>
			<path class="st0" d="M680,69.7V50.4h11.8v3.4h-8.3v4.1h6.4v3.4h-6.4v8.3H680z"/>
			<path class="st0" d="M694.4,69.7V50.4h7c1.3,0,2.5,0.2,3.5,0.6c1,0.4,1.8,1.1,2.3,1.9c0.5,0.9,0.8,2,0.8,3.3
				c0,1.4-0.3,2.5-0.9,3.4c-0.6,0.8-1.4,1.5-2.4,2l4.3,8.1h-3.9l-3.7-7.1c0,0-0.1,0-0.1,0s0,0-0.1,0h-3.4v7.1H694.4z M697.9,59.6
				h2.6c1.4,0,2.5-0.3,3-0.9c0.6-0.6,0.9-1.3,0.9-2.2c0-1-0.3-1.7-0.8-2.3c-0.6-0.5-1.5-0.8-2.9-0.8h-2.7V59.6z"/>
			<path class="st0" d="M717.6,53.9h0.9L713,69.7h-3.4l6.8-19.2h3.3l6.8,19.2h-3.4L717.6,53.9z M722.1,65.1h-8V62h8V65.1z"/>
			<path class="st0" d="M727.8,69.7l2.7-19.2h2.9l4.7,8.8l4.7-8.8h2.9l2.7,19.2h-3.7l-1.8-14.5l1,0.2l-5.7,10.2l-5.7-10.2l1-0.2
				l-1.8,14.4H727.8z"/>
			<path class="st0" d="M751.5,69.7V50.4h12.3v3.4h-8.7v4.1h6.8v3.4h-6.8v4.9h9v3.4H751.5z"/>
			<path class="st0" d="M770.7,69.7l-5.4-19.2h3.7l3.8,13.7l4.3-13.7h2.4l4.5,13.3l3.7-13.3h3.7l-5.6,19.2h-3.1l-4.3-12.8L774,69.7
				H770.7z"/>
			<path class="st0" d="M801.7,70c-1.8,0-3.5-0.4-4.9-1.2c-1.4-0.8-2.6-2-3.4-3.5c-0.8-1.5-1.2-3.3-1.2-5.3c0-2,0.4-3.8,1.2-5.3
				c0.8-1.5,1.9-2.7,3.4-3.5c1.4-0.8,3.1-1.2,4.9-1.2c1.8,0,3.5,0.4,4.9,1.2c1.4,0.8,2.6,2,3.4,3.5c0.8,1.5,1.2,3.3,1.2,5.3
				c0,2-0.4,3.8-1.2,5.3c-0.8,1.5-1.9,2.7-3.4,3.5C805.2,69.6,803.5,70,801.7,70z M801.7,66.6c1.3,0,2.4-0.3,3.2-0.9
				c0.9-0.6,1.5-1.3,1.9-2.3c0.4-1,0.6-2.1,0.6-3.4s-0.2-2.4-0.6-3.4c-0.4-1-1.1-1.8-1.9-2.3c-0.9-0.6-1.9-0.9-3.2-0.9
				c-1.3,0-2.4,0.3-3.2,0.9c-0.9,0.6-1.5,1.3-1.9,2.3c-0.4,1-0.6,2.1-0.6,3.4s0.2,2.4,0.6,3.4c0.4,1,1.1,1.8,1.9,2.3
				C799.3,66.4,800.4,66.6,801.7,66.6z"/>
			<path class="st0" d="M814.3,69.7V50.4h7c1.3,0,2.5,0.2,3.5,0.6c1,0.4,1.8,1.1,2.3,1.9c0.5,0.9,0.8,2,0.8,3.3
				c0,1.4-0.3,2.5-0.9,3.4c-0.6,0.8-1.4,1.5-2.4,2l4.3,8.1H825l-3.7-7.1c0,0-0.1,0-0.1,0s0,0-0.1,0h-3.4v7.1H814.3z M817.8,59.6h2.6
				c1.4,0,2.5-0.3,3-0.9c0.6-0.6,0.9-1.3,0.9-2.2c0-1-0.3-1.7-0.8-2.3c-0.6-0.5-1.5-0.8-2.9-0.8h-2.7V59.6z"/>
			<path class="st0" d="M831.5,69.7V50.4h3.5v19.2H831.5z M842.4,69.7l-7.1-10.2l7.1-9.1h4.1l-7.2,9.1l7.2,10.2H842.4z"/>
		</g>
	</g>
	<g>
		<g>
			<g>
				<circle class="st1" cx="653.1" cy="61.4" r="8.6"/>
			</g>
			<g>
				<rect x="174.2" y="61" class="st1" width="478.9" height="0.9"/>
			</g>
		</g>
	</g>
	<g>
		<g>
			<path class="st0" d="M680,139.4v-19.2h6.8c1.5,0,2.7,0.2,3.7,0.7s1.8,1.1,2.3,2c0.5,0.9,0.8,2.1,0.8,3.5c0,1.4-0.3,2.6-0.8,3.6
				c-0.5,0.9-1.3,1.6-2.3,2.1c-1,0.5-2.2,0.7-3.7,0.7h-3.4v6.7H680z M683.5,129.8h3c1.2,0,2.1-0.3,2.7-0.8s0.9-1.4,0.9-2.5
				c0-1.2-0.3-2-0.9-2.5c-0.6-0.5-1.5-0.8-2.8-0.8h-2.9V129.8z"/>
			<path class="st0" d="M696.3,139.4v-19.2h7c1.3,0,2.5,0.2,3.5,0.6c1,0.4,1.8,1.1,2.3,1.9c0.5,0.9,0.8,2,0.8,3.3
				c0,1.4-0.3,2.5-0.9,3.4c-0.6,0.8-1.4,1.5-2.4,2l4.3,8.1h-3.9l-3.7-7.1c0,0-0.1,0-0.1,0s0,0-0.1,0h-3.4v7.1H696.3z M699.9,129.3
				h2.6c1.4,0,2.5-0.3,3-0.9c0.6-0.6,0.9-1.3,0.9-2.2c0-1-0.3-1.7-0.8-2.3c-0.6-0.5-1.5-0.8-2.9-0.8h-2.7V129.3z"/>
			<path class="st0" d="M713.5,139.4v-19.2h3.5v19.2H713.5z"/>
			<path class="st0" d="M721.3,139.4v-19.2h3.5l8.2,12.4v-12.4h3.5v19.2h-2.9l-8.8-13.2v13.2H721.3z"/>
			<path class="st0" d="M749.4,139.8c-2,0-3.7-0.4-5.2-1.2c-1.5-0.8-2.6-2-3.5-3.5c-0.8-1.5-1.2-3.3-1.2-5.3c0-2,0.4-3.8,1.3-5.3
				c0.9-1.5,2-2.7,3.5-3.5c1.5-0.8,3.2-1.2,5.2-1.2c1,0,1.9,0.1,2.8,0.3c0.8,0.2,1.6,0.5,2.2,0.8l-0.4,3.4c-0.7-0.3-1.4-0.6-2.2-0.8
				c-0.7-0.2-1.6-0.3-2.5-0.3c-1.3,0-2.5,0.3-3.4,0.9c-0.9,0.6-1.6,1.4-2,2.3c-0.5,1-0.7,2.1-0.7,3.4c0,1.3,0.2,2.4,0.7,3.4
				c0.4,1,1.1,1.8,2,2.3c0.9,0.6,2,0.9,3.3,0.9c0.9,0,1.8-0.1,2.5-0.3c0.7-0.2,1.5-0.5,2.2-0.8l0.4,3.4c-0.7,0.3-1.5,0.6-2.4,0.8
				C751.2,139.7,750.3,139.8,749.4,139.8z"/>
			<path class="st0" d="M757.4,139.4v-19.2h3.5v19.2H757.4z"/>
			<path class="st0" d="M765.2,139.4v-19.2h6.8c1.5,0,2.7,0.2,3.7,0.7c1,0.4,1.8,1.1,2.3,2c0.5,0.9,0.8,2.1,0.8,3.5
				c0,1.4-0.3,2.6-0.8,3.6c-0.5,0.9-1.3,1.6-2.3,2.1c-1,0.5-2.2,0.7-3.7,0.7h-3.4v6.7H765.2z M768.7,129.8h3c1.2,0,2.1-0.3,2.7-0.8
				c0.6-0.5,0.9-1.4,0.9-2.5c0-1.2-0.3-2-0.9-2.5c-0.6-0.5-1.5-0.8-2.8-0.8h-2.9V129.8z"/>
			<path class="st0" d="M781.6,139.4v-19.2h3.5v16.1h7.9v3.1H781.6z"/>
			<path class="st0" d="M795.3,139.4v-19.2h12.3v3.4h-8.7v4.1h6.8v3.4h-6.8v4.9h9v3.4H795.3z"/>
			<path class="st0" d="M816.5,139.8c-0.8,0-1.6-0.1-2.4-0.2c-0.8-0.2-1.6-0.3-2.3-0.5c-0.7-0.2-1.3-0.4-1.7-0.6l0.4-3.7
				c0.6,0.3,1.3,0.6,2,0.9c0.7,0.3,1.4,0.5,2.1,0.6c0.7,0.2,1.5,0.2,2.2,0.2c0.9,0,1.7-0.2,2.3-0.5c0.6-0.4,0.9-0.9,0.9-1.7
				c0-0.6-0.2-1-0.5-1.4c-0.3-0.4-0.8-0.7-1.5-0.9c-0.7-0.3-1.5-0.6-2.5-1c-1-0.4-1.9-0.8-2.8-1.2c-0.8-0.5-1.5-1-1.9-1.7
				c-0.5-0.7-0.7-1.6-0.7-2.7c0-1.1,0.3-2,0.8-2.8c0.5-0.8,1.3-1.5,2.3-2c1-0.5,2.3-0.7,3.9-0.7c1.2,0,2.3,0.1,3.4,0.4
				s2,0.5,2.7,0.8l-0.4,3.6c-1.1-0.5-2.1-0.9-3-1.1c-0.9-0.3-1.9-0.4-2.9-0.4c-1,0-1.8,0.2-2.4,0.5c-0.6,0.3-0.8,0.8-0.8,1.5
				c0,0.5,0.2,1,0.5,1.3c0.3,0.3,0.8,0.6,1.3,0.8c0.6,0.2,1.3,0.5,2.1,0.7c1.4,0.4,2.6,0.9,3.5,1.4c0.9,0.5,1.7,1.2,2.1,1.9
				c0.5,0.7,0.7,1.7,0.7,2.8c0,0.5-0.1,1.1-0.3,1.8c-0.2,0.6-0.5,1.3-1,1.8c-0.5,0.6-1.3,1.1-2.2,1.4
				C819.4,139.6,818.1,139.8,816.5,139.8z"/>
		</g>
	</g>
	<g>
		<g>
			<g>
				<circle class="st1" cx="653.1" cy="131.2" r="8.6"/>
			</g>
			<g>
				<rect x="201.5" y="130.7" class="st1" width="451.6" height="0.9"/>
			</g>
		</g>
	</g>
	<g>
		<g>
			<path class="st0" d="M688.7,213.7c-2,0-3.7-0.4-5.2-1.2c-1.5-0.8-2.6-2-3.5-3.5c-0.8-1.5-1.2-3.3-1.2-5.3c0-2,0.4-3.8,1.3-5.3
				c0.9-1.5,2-2.7,3.5-3.5c1.5-0.8,3.2-1.2,5.2-1.2c1,0,1.9,0.1,2.8,0.3c0.8,0.2,1.6,0.5,2.2,0.8l-0.4,3.4c-0.7-0.3-1.4-0.6-2.2-0.8
				c-0.7-0.2-1.6-0.3-2.5-0.3c-1.3,0-2.5,0.3-3.4,0.9s-1.6,1.4-2,2.3c-0.5,1-0.7,2.1-0.7,3.4c0,1.3,0.2,2.4,0.7,3.4
				c0.4,1,1.1,1.8,2,2.3c0.9,0.6,2,0.9,3.3,0.9c0.9,0,1.8-0.1,2.5-0.3c0.7-0.2,1.5-0.5,2.2-0.8l0.4,3.4c-0.7,0.3-1.5,0.6-2.4,0.8
				C690.5,213.6,689.6,213.7,688.7,213.7z"/>
			<path class="st0" d="M704.8,213.7c-1.8,0-3.5-0.4-4.9-1.2c-1.4-0.8-2.6-2-3.4-3.5c-0.8-1.5-1.2-3.3-1.2-5.3c0-2,0.4-3.8,1.2-5.3
				c0.8-1.5,1.9-2.7,3.4-3.5c1.4-0.8,3.1-1.2,4.9-1.2c1.8,0,3.5,0.4,4.9,1.2c1.4,0.8,2.6,2,3.4,3.5c0.8,1.5,1.2,3.3,1.2,5.3
				c0,2-0.4,3.8-1.2,5.3c-0.8,1.5-1.9,2.7-3.4,3.5C708.2,213.3,706.6,213.7,704.8,213.7z M704.8,210.3c1.3,0,2.4-0.3,3.2-0.9
				c0.9-0.6,1.5-1.3,1.9-2.3c0.4-1,0.6-2.1,0.6-3.4s-0.2-2.4-0.6-3.4c-0.4-1-1.1-1.8-1.9-2.3c-0.9-0.6-1.9-0.9-3.2-0.9
				c-1.3,0-2.4,0.3-3.2,0.9c-0.9,0.6-1.5,1.3-1.9,2.3c-0.4,1-0.6,2.1-0.6,3.4s0.2,2.4,0.6,3.4c0.4,1,1.1,1.8,1.9,2.3
				C702.4,210,703.5,210.3,704.8,210.3z"/>
			<path class="st0" d="M717.3,213.3v-19.2h3.5l8.2,12.4v-12.4h3.5v19.2h-2.9l-8.8-13.2v13.2H717.3z"/>
			<path class="st0" d="M740.5,213.3v-15.8H735v-3.4h14.4v3.4H744v15.8H740.5z"/>
			<path class="st0" d="M752,213.3v-19.2h7c1.3,0,2.5,0.2,3.5,0.6c1,0.4,1.8,1.1,2.3,1.9c0.5,0.9,0.8,2,0.8,3.3
				c0,1.4-0.3,2.5-0.9,3.4c-0.6,0.8-1.4,1.5-2.4,2l4.3,8.1h-3.9l-3.7-7.1c0,0-0.1,0-0.1,0s0,0-0.1,0h-3.4v7.1H752z M755.5,203.3h2.6
				c1.4,0,2.5-0.3,3-0.9c0.6-0.6,0.9-1.3,0.9-2.2c0-1-0.3-1.7-0.8-2.3c-0.6-0.5-1.5-0.8-2.9-0.8h-2.7V203.3z"/>
			<path class="st0" d="M777.5,213.7c-1.8,0-3.5-0.4-4.9-1.2c-1.4-0.8-2.6-2-3.4-3.5c-0.8-1.5-1.2-3.3-1.2-5.3c0-2,0.4-3.8,1.2-5.3
				c0.8-1.5,1.9-2.7,3.4-3.5c1.4-0.8,3.1-1.2,4.9-1.2c1.8,0,3.5,0.4,4.9,1.2c1.4,0.8,2.6,2,3.4,3.5c0.8,1.5,1.2,3.3,1.2,5.3
				c0,2-0.4,3.8-1.2,5.3c-0.8,1.5-1.9,2.7-3.4,3.5C781,213.3,779.3,213.7,777.5,213.7z M777.5,210.3c1.3,0,2.4-0.3,3.2-0.9
				c0.9-0.6,1.5-1.3,1.9-2.3c0.4-1,0.6-2.1,0.6-3.4s-0.2-2.4-0.6-3.4c-0.4-1-1.1-1.8-1.9-2.3c-0.9-0.6-1.9-0.9-3.2-0.9
				c-1.3,0-2.4,0.3-3.2,0.9c-0.9,0.6-1.5,1.3-1.9,2.3c-0.4,1-0.6,2.1-0.6,3.4s0.2,2.4,0.6,3.4c0.4,1,1.1,1.8,1.9,2.3
				C775.1,210,776.2,210.3,777.5,210.3z"/>
			<path class="st0" d="M790,213.3v-19.2h3.5v16.1h7.9v3.1H790z"/>
			<path class="st0" d="M809.4,213.7c-0.8,0-1.6-0.1-2.4-0.2c-0.8-0.2-1.6-0.3-2.3-0.5c-0.7-0.2-1.3-0.4-1.7-0.6l0.4-3.7
				c0.6,0.3,1.3,0.6,2,0.9c0.7,0.3,1.4,0.5,2.1,0.6c0.7,0.2,1.5,0.2,2.2,0.2c0.9,0,1.7-0.2,2.3-0.5c0.6-0.4,0.9-0.9,0.9-1.7
				c0-0.6-0.2-1-0.5-1.4c-0.3-0.4-0.8-0.7-1.5-0.9c-0.7-0.3-1.5-0.6-2.5-1c-1-0.4-1.9-0.8-2.8-1.2c-0.8-0.5-1.5-1-1.9-1.7
				c-0.5-0.7-0.7-1.6-0.7-2.7c0-1.1,0.3-2,0.8-2.8c0.5-0.8,1.3-1.5,2.3-2c1-0.5,2.3-0.7,3.9-0.7c1.2,0,2.3,0.1,3.4,0.4
				c1.1,0.3,2,0.5,2.7,0.8l-0.4,3.6c-1.1-0.5-2.1-0.9-3-1.1c-0.9-0.3-1.9-0.4-2.9-0.4c-1,0-1.8,0.2-2.4,0.5
				c-0.6,0.3-0.8,0.8-0.8,1.5c0,0.5,0.2,1,0.5,1.3c0.3,0.3,0.8,0.6,1.3,0.8c0.6,0.2,1.3,0.5,2.1,0.7c1.4,0.4,2.6,0.9,3.5,1.4
				c0.9,0.5,1.7,1.2,2.1,1.9c0.5,0.7,0.7,1.7,0.7,2.8c0,0.5-0.1,1.1-0.3,1.8c-0.2,0.6-0.5,1.3-1,1.8c-0.5,0.6-1.3,1.1-2.2,1.4
				C812.3,213.5,811,213.7,809.4,213.7z"/>
		</g>
	</g>
	<g>
		<g>
			<g>
				<circle class="st1" cx="653.1" cy="205.1" r="8.6"/>
			</g>
			<g>
				<rect x="254" y="204.7" class="st1" width="399.2" height="0.9"/>
			</g>
		</g>
	</g>
	<g>
		<g>
			<path class="st0" d="M679.1,291l2.7-19.2h2.9l4.7,8.8l4.7-8.8h2.9l2.7,19.2h-3.7l-1.8-14.5l1,0.2l-5.7,10.2l-5.7-10.2l1-0.2
				l-1.8,14.4H679.1z"/>
			<path class="st0" d="M708.9,275.2h0.9l-5.6,15.8h-3.4l6.8-19.2h3.3l6.8,19.2h-3.4L708.9,275.2z M713.3,286.4h-8v-3.1h8V286.4z"/>
			<path class="st0" d="M720,291v-19.2h3.5l8.2,12.4v-12.4h3.5V291h-2.9l-8.8-13.2V291H720z"/>
			<path class="st0" d="M745.5,275.2h0.9l-5.6,15.8h-3.4l6.8-19.2h3.3l6.8,19.2H751L745.5,275.2z M749.9,286.4h-8v-3.1h8V286.4z"/>
			<path class="st0" d="M764.9,291.3c-2,0-3.8-0.4-5.2-1.2c-1.4-0.8-2.6-2-3.3-3.5s-1.2-3.3-1.2-5.3c0-2,0.4-3.8,1.3-5.3
				c0.9-1.5,2-2.7,3.6-3.5c1.5-0.8,3.3-1.2,5.2-1.2c1,0,2,0.1,2.9,0.3c0.9,0.2,1.7,0.5,2.4,0.8l-0.4,3.4c-0.7-0.3-1.4-0.6-2.3-0.8
				c-0.8-0.2-1.7-0.3-2.6-0.3c-1.4,0-2.6,0.3-3.5,0.9c-0.9,0.6-1.6,1.4-2,2.3c-0.4,1-0.7,2.1-0.7,3.3c0,1.3,0.2,2.5,0.7,3.5
				c0.4,1,1.1,1.8,2,2.4c0.9,0.6,2,0.9,3.3,0.9c0.4,0,0.8,0,1.3-0.1c0.4-0.1,0.9-0.1,1.4-0.2v-3.4H765v-2.9h6.2v8.6
				c-0.7,0.4-1.6,0.7-2.7,1C767.4,291.2,766.2,291.3,764.9,291.3z"/>
			<path class="st0" d="M774.6,291v-19.2h12.3v3.4h-8.7v4.1h6.8v3.4h-6.8v4.9h9v3.4H774.6z"/>
			<path class="st0" d="M789.3,291l2.7-19.2h2.9l4.7,8.8l4.7-8.8h2.9l2.7,19.2h-3.7l-1.8-14.5l1,0.2l-5.7,10.2l-5.7-10.2l1-0.2
				l-1.8,14.4H789.3z"/>
			<path class="st0" d="M812.9,291v-19.2h12.3v3.4h-8.7v4.1h6.8v3.4h-6.8v4.9h9v3.4H812.9z"/>
			<path class="st0" d="M828.5,291v-19.2h3.5l8.2,12.4v-12.4h3.5V291h-2.9l-8.8-13.2V291H828.5z"/>
			<path class="st0" d="M851.7,291v-15.8h-5.4v-3.4h14.4v3.4h-5.4V291H851.7z"/>
			<path class="st0" d="M869.3,291v-19.2h3.5V291H869.3z"/>
			<path class="st0" d="M877.1,291v-19.2h3.5l8.2,12.4v-12.4h3.5V291h-2.9l-8.8-13.2V291H877.1z"/>
			<path class="st0" d="M900.2,291v-15.8h-5.4v-3.4h14.4v3.4h-5.4V291H900.2z"/>
			<path class="st0" d="M911.7,291v-19.2H924v3.4h-8.7v4.1h6.8v3.4h-6.8v4.9h9v3.4H911.7z"/>
			<path class="st0" d="M927.3,291v-19.2h3.5l8.2,12.4v-12.4h3.5V291h-2.9l-8.8-13.2V291H927.3z"/>
			<path class="st0" d="M950.5,291v-15.8h-5.4v-3.4h14.4v3.4H954V291H950.5z"/>
			<path class="st0" d="M967.6,291.3c-0.8,0-1.6-0.1-2.4-0.2c-0.8-0.2-1.6-0.3-2.3-0.5c-0.7-0.2-1.3-0.4-1.7-0.6l0.4-3.7
				c0.6,0.3,1.3,0.6,2,0.9c0.7,0.3,1.4,0.5,2.1,0.6c0.7,0.2,1.5,0.2,2.2,0.2c0.9,0,1.7-0.2,2.3-0.5c0.6-0.4,0.9-0.9,0.9-1.7
				c0-0.6-0.2-1-0.5-1.4c-0.3-0.4-0.8-0.7-1.5-0.9c-0.7-0.3-1.5-0.6-2.5-1c-1-0.4-1.9-0.8-2.8-1.2c-0.8-0.5-1.5-1-1.9-1.7
				c-0.5-0.7-0.7-1.6-0.7-2.7c0-1.1,0.3-2,0.8-2.8c0.5-0.8,1.3-1.5,2.3-2c1-0.5,2.3-0.7,3.9-0.7c1.2,0,2.3,0.1,3.4,0.4
				c1.1,0.3,2,0.5,2.7,0.8l-0.4,3.6c-1.1-0.5-2.1-0.9-3-1.1c-0.9-0.3-1.9-0.4-2.9-0.4c-1,0-1.8,0.2-2.4,0.5
				c-0.6,0.3-0.8,0.8-0.8,1.5c0,0.5,0.2,1,0.5,1.3c0.3,0.3,0.8,0.6,1.3,0.8c0.6,0.2,1.3,0.5,2.1,0.7c1.4,0.4,2.6,0.9,3.5,1.4
				c0.9,0.5,1.7,1.2,2.1,1.9c0.5,0.7,0.7,1.7,0.7,2.8c0,0.5-0.1,1.1-0.3,1.8c-0.2,0.6-0.5,1.3-1,1.8c-0.5,0.6-1.3,1.1-2.2,1.4
				C970.5,291.2,969.2,291.3,967.6,291.3z"/>
		</g>
	</g>
	<g>
		<g>
			<g>
				<circle class="st1" cx="653.1" cy="282.7" r="8.6"/>
			</g>
			<g>
				<rect x="326.2" y="282.3" class="st1" width="327" height="0.9"/>
			</g>
		</g>
	</g>
	<g>
		<g>
			<path class="st0" d="M680,368.6v-19.2h6.8c1.5,0,2.7,0.2,3.7,0.7s1.8,1.1,2.3,2c0.5,0.9,0.8,2.1,0.8,3.5c0,1.4-0.3,2.6-0.8,3.6
				c-0.5,0.9-1.3,1.6-2.3,2.1c-1,0.5-2.2,0.7-3.7,0.7h-3.4v6.7H680z M683.5,359h3c1.2,0,2.1-0.3,2.7-0.8s0.9-1.4,0.9-2.5
				c0-1.2-0.3-2-0.9-2.5c-0.6-0.5-1.5-0.8-2.8-0.8h-2.9V359z"/>
			<path class="st0" d="M696.3,368.6v-19.2h7c1.3,0,2.5,0.2,3.5,0.6c1,0.4,1.8,1.1,2.3,1.9c0.5,0.9,0.8,2,0.8,3.3
				c0,1.4-0.3,2.5-0.9,3.4c-0.6,0.8-1.4,1.5-2.4,2l4.3,8.1h-3.9l-3.7-7.1c0,0-0.1,0-0.1,0s0,0-0.1,0h-3.4v7.1H696.3z M699.9,358.5
				h2.6c1.4,0,2.5-0.3,3-0.9c0.6-0.6,0.9-1.3,0.9-2.2c0-1-0.3-1.7-0.8-2.3c-0.6-0.5-1.5-0.8-2.9-0.8h-2.7V358.5z"/>
			<path class="st0" d="M721.9,369c-1.8,0-3.5-0.4-4.9-1.2c-1.4-0.8-2.6-2-3.4-3.5c-0.8-1.5-1.2-3.3-1.2-5.3c0-2,0.4-3.8,1.2-5.3
				c0.8-1.5,1.9-2.7,3.4-3.5c1.4-0.8,3.1-1.2,4.9-1.2c1.8,0,3.5,0.4,4.9,1.2c1.4,0.8,2.6,2,3.4,3.5c0.8,1.5,1.2,3.3,1.2,5.3
				c0,2-0.4,3.8-1.2,5.3c-0.8,1.5-1.9,2.7-3.4,3.5C725.3,368.5,723.7,369,721.9,369z M721.9,365.6c1.3,0,2.4-0.3,3.2-0.9
				c0.9-0.6,1.5-1.3,1.9-2.3c0.4-1,0.6-2.1,0.6-3.4s-0.2-2.4-0.6-3.4c-0.4-1-1.1-1.8-1.9-2.3c-0.9-0.6-1.9-0.9-3.2-0.9
				c-1.3,0-2.4,0.3-3.2,0.9c-0.9,0.6-1.5,1.3-1.9,2.3c-0.4,1-0.6,2.1-0.6,3.4s0.2,2.4,0.6,3.4c0.4,1,1.1,1.8,1.9,2.3
				C719.5,365.3,720.6,365.6,721.9,365.6z"/>
			<path class="st0" d="M734.4,368.6v-19.2h7.2c1.8,0,3.5,0.4,4.9,1.1c1.4,0.8,2.6,1.9,3.4,3.3c0.8,1.4,1.2,3.2,1.2,5.2
				c0,2-0.4,3.7-1.2,5.2c-0.8,1.4-1.9,2.5-3.4,3.3c-1.4,0.8-3.1,1.1-4.9,1.1H734.4z M737.9,365.4h3.7c1.2,0,2.3-0.3,3.1-0.8
				c0.8-0.5,1.5-1.3,1.9-2.2c0.4-1,0.6-2.1,0.6-3.5c0-1.3-0.2-2.5-0.6-3.5c-0.4-1-1-1.7-1.9-2.2c-0.8-0.5-1.9-0.8-3.1-0.8h-3.7
				V365.4z"/>
			<path class="st0" d="M761.9,369c-1.8,0-3.3-0.4-4.5-1.1c-1.2-0.7-2.1-1.7-2.6-3c-0.6-1.3-0.9-2.8-0.9-4.5v-11h3.5v10.1
				c0,0.9,0.1,1.8,0.2,2.5c0.1,0.8,0.3,1.4,0.7,2c0.3,0.5,0.8,1,1.4,1.3c0.6,0.3,1.3,0.4,2.3,0.4c0.9,0,1.7-0.1,2.3-0.4
				c0.6-0.3,1-0.7,1.4-1.3c0.3-0.5,0.5-1.2,0.7-2c0.1-0.8,0.2-1.6,0.2-2.5v-10.1h3.5v11c0,1.7-0.3,3.3-0.9,4.5
				c-0.6,1.3-1.5,2.3-2.6,3C765.2,368.6,763.7,369,761.9,369z"/>
			<path class="st0" d="M782.6,369c-2,0-3.7-0.4-5.2-1.2c-1.5-0.8-2.6-2-3.5-3.5c-0.8-1.5-1.2-3.3-1.2-5.3c0-2,0.4-3.8,1.3-5.3
				c0.9-1.5,2-2.7,3.5-3.5c1.5-0.8,3.2-1.2,5.2-1.2c1,0,1.9,0.1,2.8,0.3c0.8,0.2,1.6,0.5,2.2,0.8l-0.4,3.4c-0.7-0.3-1.4-0.6-2.2-0.8
				c-0.7-0.2-1.6-0.3-2.5-0.3c-1.3,0-2.5,0.3-3.4,0.9c-0.9,0.6-1.6,1.4-2,2.3c-0.5,1-0.7,2.1-0.7,3.4c0,1.3,0.2,2.4,0.7,3.4
				c0.4,1,1.1,1.8,2,2.3c0.9,0.6,2,0.9,3.3,0.9c0.9,0,1.8-0.1,2.5-0.3c0.7-0.2,1.5-0.5,2.2-0.8l0.4,3.4c-0.7,0.3-1.5,0.6-2.4,0.8
				S783.6,369,782.6,369z"/>
			<path class="st0" d="M794.4,368.6v-15.8h-5.4v-3.4h14.4v3.4h-5.4v15.8H794.4z"/>
			<path class="st0" d="M811.4,369c-0.8,0-1.6-0.1-2.4-0.2c-0.8-0.2-1.6-0.3-2.3-0.5c-0.7-0.2-1.3-0.4-1.7-0.6l0.4-3.7
				c0.6,0.3,1.3,0.6,2,0.9c0.7,0.3,1.4,0.5,2.1,0.6c0.7,0.2,1.5,0.2,2.2,0.2c0.9,0,1.7-0.2,2.3-0.5c0.6-0.4,0.9-0.9,0.9-1.7
				c0-0.6-0.2-1-0.5-1.4c-0.3-0.4-0.8-0.7-1.5-0.9c-0.7-0.3-1.5-0.6-2.5-1c-1-0.4-1.9-0.8-2.8-1.2c-0.8-0.5-1.5-1-1.9-1.7
				c-0.5-0.7-0.7-1.6-0.7-2.7c0-1.1,0.3-2,0.8-2.8c0.5-0.8,1.3-1.5,2.3-2c1-0.5,2.3-0.7,3.9-0.7c1.2,0,2.3,0.1,3.4,0.4
				c1.1,0.3,2,0.5,2.7,0.8l-0.4,3.6c-1.1-0.5-2.1-0.9-3-1.1c-0.9-0.3-1.9-0.4-2.9-0.4c-1,0-1.8,0.2-2.4,0.5
				c-0.6,0.3-0.8,0.8-0.8,1.5c0,0.5,0.2,1,0.5,1.3c0.3,0.3,0.8,0.6,1.3,0.8c0.6,0.2,1.3,0.5,2.1,0.7c1.4,0.4,2.6,0.9,3.5,1.4
				c0.9,0.5,1.7,1.2,2.1,1.9c0.5,0.7,0.7,1.7,0.7,2.8c0,0.5-0.1,1.1-0.3,1.8c-0.2,0.6-0.5,1.3-1,1.8c-0.5,0.6-1.3,1.1-2.2,1.4
				C814.4,368.8,813.1,369,811.4,369z"/>
		</g>
	</g>
	<g>
		<g>
			<g>
				<circle class="st1" cx="653.1" cy="360.3" r="8.6"/>
			</g>
			<g>
				<rect x="367.1" y="359.9" class="st1" width="286.1" height="0.9"/>
			</g>
		</g>
	</g>
	<g>
		<g>
			<path class="st0" d="M679.1,454.6l2.7-19.2h2.9l4.7,8.8l4.7-8.8h2.9l2.7,19.2h-3.7l-1.8-14.5l1,0.2l-5.7,10.2l-5.7-10.2l1-0.2
				l-1.8,14.4H679.1z"/>
			<path class="st0" d="M702.7,454.6v-19.2H715v3.4h-8.7v4.1h6.8v3.4h-6.8v4.9h9v3.4H702.7z"/>
			<path class="st0" d="M722.1,454.6v-15.8h-5.4v-3.4H731v3.4h-5.4v15.8H722.1z"/>
			<path class="st0" d="M738.1,438.8h0.9l-5.6,15.8H730l6.8-19.2h3.3l6.8,19.2h-3.4L738.1,438.8z M742.6,450.1h-8V447h8V450.1z"/>
			<path class="st0" d="M755.4,454.6v-19.2h7.2c1.8,0,3.5,0.4,4.9,1.1c1.4,0.8,2.6,1.9,3.4,3.3c0.8,1.4,1.2,3.2,1.2,5.2
				c0,2-0.4,3.7-1.2,5.2c-0.8,1.4-1.9,2.5-3.4,3.3c-1.4,0.8-3.1,1.1-4.9,1.1H755.4z M758.9,451.5h3.7c1.2,0,2.3-0.3,3.1-0.8
				c0.8-0.5,1.5-1.3,1.9-2.2c0.4-1,0.6-2.1,0.6-3.5c0-1.3-0.2-2.5-0.6-3.5c-0.4-1-1-1.7-1.9-2.2c-0.8-0.5-1.9-0.8-3.1-0.8h-3.7
				V451.5z"/>
			<path class="st0" d="M780.9,438.8h0.9l-5.6,15.8h-3.4l6.8-19.2h3.3l6.8,19.2h-3.4L780.9,438.8z M785.4,450.1h-8V447h8V450.1z"/>
			<path class="st0" d="M794.3,454.6v-15.8h-5.4v-3.4h14.4v3.4h-5.4v15.8H794.3z"/>
			<path class="st0" d="M810.4,438.8h0.9l-5.6,15.8h-3.4l6.8-19.2h3.3l6.8,19.2h-3.4L810.4,438.8z M814.9,450.1h-8V447h8V450.1z"/>
		</g>
	</g>
	<g>
		<g>
			<g>
				<circle class="st1" cx="653.1" cy="446.4" r="8.6"/>
			</g>
			<g>
				<rect x="413.7" y="446" class="st1" width="239.4" height="0.9"/>
			</g>
		</g>
	</g>
	<g>
		<g>
			<path class="st0" d="M680,549.5v-19.2h7.2c1.8,0,3.5,0.4,4.9,1.1c1.4,0.8,2.6,1.9,3.4,3.3c0.8,1.4,1.2,3.2,1.2,5.2
				c0,2-0.4,3.7-1.2,5.2c-0.8,1.4-1.9,2.5-3.4,3.3c-1.4,0.8-3.1,1.1-4.9,1.1H680z M683.5,546.3h3.7c1.2,0,2.3-0.3,3.1-0.8
				c0.8-0.5,1.5-1.3,1.9-2.2c0.4-1,0.6-2.1,0.6-3.5c0-1.3-0.2-2.5-0.6-3.5c-0.4-1-1-1.7-1.9-2.2c-0.8-0.5-1.9-0.8-3.1-0.8h-3.7
				V546.3z"/>
			<path class="st0" d="M705.4,533.7h0.9l-5.6,15.8h-3.4l6.8-19.2h3.3l6.8,19.2H711L705.4,533.7z M709.9,544.9h-8v-3.1h8V544.9z"/>
			<path class="st0" d="M718.9,549.5v-15.8h-5.4v-3.4h14.4v3.4h-5.4v15.8H718.9z"/>
			<path class="st0" d="M734.9,533.7h0.9l-5.6,15.8h-3.4l6.8-19.2h3.3l6.8,19.2h-3.4L734.9,533.7z M739.4,544.9h-8v-3.1h8V544.9z"/>
		</g>
	</g>
	<g>
		<g>
			<g>
				<circle class="st1" cx="653.1" cy="541.2" r="8.6"/>
			</g>
			<g>
				<rect x="470" y="540.8" class="st1" width="183.1" height="0.9"/>
			</g>
		</g>
	</g>
</g>
</svg>
