<svg width="33" height="26" viewBox="0 0 33 26" fill="none" xmlns="http://www.w3.org/2000/svg">
<path d="M14.913 24.4344C14.4863 24.861 13.9077 25.1006 13.3044 25.1006C12.701 25.1006 12.1224 24.861 11.6957 24.4344L1.45681 14.1955C1.03026 13.7688 0.790635 13.1902 0.790635 12.5868C0.790635 11.9835 1.03026 11.4049 1.45682 10.9782L11.6957 0.739292C12.1249 0.324825 12.6996 0.0954878 13.2962 0.100672C13.8928 0.105856 14.4634 0.345148 14.8853 0.76701C15.3072 1.18887 15.5465 1.75955 15.5516 2.35613C15.5568 2.95271 15.3275 3.52746 14.913 3.95659L8.75375 10.3115L30.3692 10.3115C30.9727 10.3115 31.5514 10.5513 31.9781 10.978C32.4048 11.4047 32.6445 11.9834 32.6445 12.5869C32.6445 13.1903 32.4048 13.769 31.9781 14.1957C31.5514 14.6224 30.9727 14.8622 30.3692 14.8622L8.75375 14.8622L14.913 21.2171C15.3396 21.6438 15.5792 22.2224 15.5792 22.8258C15.5792 23.4291 15.3396 24.0077 14.913 24.4344Z" fill="#555555"/>
</svg>
