<svg width="33" height="26" viewBox="0 0 33 26" fill="none" xmlns="http://www.w3.org/2000/svg">
<path d="M17.9581 0.766767C18.3848 0.340211 18.9634 0.100586 19.5667 0.100586C20.1701 0.100586 20.7487 0.340211 21.1754 0.766767L31.4143 11.0057C31.8408 11.4324 32.0805 12.011 32.0805 12.6143C32.0805 13.2177 31.8408 13.7963 31.4143 14.223L21.1754 24.4619C20.7462 24.8763 20.1715 25.1057 19.5749 25.1005C18.9783 25.0953 18.4077 24.856 17.9858 24.4342C17.5639 24.0123 17.3246 23.4416 17.3195 22.845C17.3143 22.2485 17.5436 21.6737 17.9581 21.2446L24.1174 14.8896L2.50188 14.8896C1.89843 14.8896 1.31969 14.6499 0.892986 14.2232C0.466282 13.7965 0.226563 13.2178 0.226563 12.6143C0.226563 12.0109 0.466282 11.4321 0.892986 11.0054C1.31969 10.5787 1.89843 10.339 2.50188 10.339L24.1174 10.339L17.9581 3.98406C17.5315 3.55738 17.2919 2.97874 17.2919 2.37541C17.2919 1.77208 17.5315 1.19345 17.9581 0.766767Z" fill="#555555"/>
</svg>
