<svg width="19" height="21" viewBox="0 0 19 21" fill="none" xmlns="http://www.w3.org/2000/svg">
<path d="M3.64916 1.24281C3.77524 1.09234 3.83729 0.898433 3.822 0.702721C3.80671 0.507009 3.71529 0.325093 3.56738 0.196026C3.41946 0.0669602 3.22684 0.00103301 3.03086 0.0123979C2.83488 0.0237628 2.65117 0.111514 2.51916 0.256813L1.22716 1.73681C0.494542 2.57638 0.0803978 3.64678 0.0571603 4.76081L0.000160348 7.47981C-0.00395051 7.67872 0.0711246 7.87112 0.20887 8.01468C0.346616 8.15824 0.535748 8.2412 0.73466 8.24531C0.933573 8.24942 1.12597 8.17435 1.26953 8.0366C1.41309 7.89886 1.49605 7.70972 1.50016 7.51081L1.55616 4.79281C1.5722 4.03054 1.85574 3.29817 2.35716 2.72381L3.64916 1.24281Z" fill="white"/>
<path fillRule="evenodd" clipRule="evenodd" d="M3.45716 6.5298C3.52432 5.45994 3.99668 4.45588 4.77809 3.72204C5.55949 2.9882 6.5912 2.57973 7.66316 2.5798H8.22016V1.8298C8.22016 1.56459 8.32552 1.31023 8.51306 1.1227C8.70059 0.93516 8.95495 0.829803 9.22016 0.829803C9.48538 0.829803 9.73973 0.93516 9.92727 1.1227C10.1148 1.31023 10.2202 1.56459 10.2202 1.8298V2.5798H10.7772C11.8491 2.57973 12.8808 2.9882 13.6622 3.72204C14.4436 4.45588 14.916 5.45994 14.9832 6.5298L15.2042 10.0638C15.2884 11.4113 15.7408 12.7098 16.5122 13.8178C16.6715 14.0469 16.7689 14.3133 16.7948 14.5911C16.8207 14.869 16.7743 15.1488 16.6601 15.4034C16.5458 15.6579 16.3676 15.8786 16.1428 16.044C15.918 16.2093 15.6542 16.3136 15.3772 16.3468L11.9702 16.7548V17.8298C11.9702 18.5591 11.6804 19.2586 11.1647 19.7743C10.649 20.2901 9.94951 20.5798 9.22016 20.5798C8.49082 20.5798 7.79135 20.2901 7.27562 19.7743C6.7599 19.2586 6.47016 18.5591 6.47016 17.8298V16.7548L3.06316 16.3458C2.78626 16.3125 2.52267 16.2082 2.29801 16.0429C2.07335 15.8777 1.89525 15.6571 1.78102 15.4027C1.66678 15.1482 1.6203 14.8686 1.64609 14.5909C1.67187 14.3132 1.76904 14.0469 1.92816 13.8178C2.69946 12.7097 3.15189 11.4113 3.23616 10.0638L3.45716 6.5308V6.5298ZM7.97016 17.8298C7.97016 18.1613 8.10186 18.4793 8.33628 18.7137C8.5707 18.9481 8.88864 19.0798 9.22016 19.0798C9.55169 19.0798 9.86963 18.9481 10.104 18.7137C10.3385 18.4793 10.4702 18.1613 10.4702 17.8298V17.0798H7.97016V17.8298Z" fill="white"/>
<path d="M14.8632 0.184789C14.7134 0.315563 14.6217 0.50048 14.6082 0.698881C14.5947 0.897283 14.6605 1.09292 14.7912 1.24279L16.0832 2.72279C16.5845 3.29755 16.8677 4.0303 16.8832 4.79279L16.9402 7.50979C16.9423 7.60828 16.9637 7.70541 17.0033 7.79562C17.0428 7.88584 17.0998 7.96738 17.1709 8.03558C17.2419 8.10378 17.3258 8.15732 17.4175 8.19313C17.5093 8.22894 17.6072 8.24632 17.7057 8.24429C17.8042 8.24225 17.9014 8.22084 17.9916 8.18127C18.0818 8.1417 18.1633 8.08474 18.2315 8.01366C18.2997 7.94258 18.3533 7.85875 18.3891 7.76698C18.4249 7.67521 18.4423 7.57728 18.4402 7.47879L18.3832 4.76079C18.36 3.64676 17.9459 2.57636 17.2132 1.73679L15.9212 0.256789C15.7905 0.106977 15.6055 0.0152339 15.4071 0.00173214C15.2087 -0.0117696 15.0131 0.0540753 14.8632 0.184789Z" fill="white"/>
</svg>
