<svg width="10" height="12" viewBox="0 0 10 12" fill="none" xmlns="http://www.w3.org/2000/svg">
<path d="M0.673469 10.6667C0.673469 11.4 1.27959 12 2.02041 12H7.40816C8.14898 12 8.7551 11.4 8.7551 10.6667V4C8.7551 3.26667 8.14898 2.66667 7.40816 2.66667H2.02041C1.27959 2.66667 0.673469 3.26667 0.673469 4V10.6667ZM8.7551 0.666667H7.07143L6.59327 0.193333C6.47204 0.0733333 6.29694 0 6.12184 0H3.30673C3.13163 0 2.95653 0.0733333 2.83531 0.193333L2.35714 0.666667H0.673469C0.303061 0.666667 0 0.966667 0 1.33333C0 1.7 0.303061 2 0.673469 2H8.7551C9.12551 2 9.42857 1.7 9.42857 1.33333C9.42857 0.966667 9.12551 0.666667 8.7551 0.666667Z" fill="#8E8E8E"/>
</svg>
