<svg width="14" height="18" viewBox="0 0 14 18" fill="none" xmlns="http://www.w3.org/2000/svg">
<path fill-rule="evenodd" clip-rule="evenodd" d="M1.74829 5.22368C1.80703 4.28795 2.22017 3.40977 2.90361 2.76792C3.58705 2.12608 4.48941 1.76883 5.42699 1.76889H5.91416V1.11291C5.91416 0.880946 6.00631 0.65848 6.17034 0.494455C6.33436 0.33043 6.55683 0.238281 6.78879 0.238281C7.02076 0.238281 7.24323 0.33043 7.40725 0.494455C7.57128 0.65848 7.66342 0.880946 7.66342 1.11291V1.76889H8.1506C9.08817 1.76883 9.99054 2.12608 10.674 2.76792C11.3574 3.40977 11.7706 4.28795 11.8293 5.22368L12.0226 8.31463C12.0963 9.49316 12.492 10.6289 13.1666 11.598C13.306 11.7983 13.3912 12.0314 13.4138 12.2744C13.4365 12.5174 13.3959 12.7621 13.296 12.9848C13.196 13.2075 13.0402 13.4005 12.8435 13.5451C12.6469 13.6897 12.4162 13.7809 12.1739 13.8099L9.19403 14.1668V15.107C9.19403 15.7449 8.94062 16.3567 8.48955 16.8078C8.03848 17.2589 7.4267 17.5123 6.78879 17.5123C6.15088 17.5123 5.5391 17.2589 5.08803 16.8078C4.63696 16.3567 4.38355 15.7449 4.38355 15.107V14.1668L1.40368 13.8091C1.16149 13.78 0.930951 13.6887 0.734454 13.5442C0.537958 13.3996 0.382187 13.2067 0.282275 12.9842C0.182364 12.7616 0.141709 12.517 0.16426 12.2742C0.186812 12.0313 0.271803 11.7983 0.410976 11.598C1.08558 10.6288 1.48129 9.49316 1.55499 8.31463L1.74829 5.22456V5.22368ZM5.6955 15.107C5.6955 15.397 5.81069 15.6751 6.01572 15.8801C6.22075 16.0851 6.49883 16.2003 6.78879 16.2003C7.07875 16.2003 7.35683 16.0851 7.56187 15.8801C7.7669 15.6751 7.88208 15.397 7.88208 15.107V14.4511H5.6955V15.107Z" fill="#4D91FF"/>
</svg>
