<svg width="19" height="19" viewBox="0 0 19 19" fill="none" xmlns="http://www.w3.org/2000/svg">
<path d="M14.4375 9.0918V0.991797C14.4375 0.753102 14.3427 0.524183 14.1739 0.355401C14.0051 0.186618 13.7762 0.0917969 13.5375 0.0917969H1.8375C1.59881 0.0917969 1.36989 0.186618 1.2011 0.355401C1.03232 0.524183 0.9375 0.753102 0.9375 0.991797V13.5918L4.5375 9.9918H13.5375C13.7762 9.9918 14.0051 9.89698 14.1739 9.72819C14.3427 9.55941 14.4375 9.33049 14.4375 9.0918ZM18.0375 3.6918H16.2375V11.7918H4.5375V13.5918C4.5375 13.8305 4.63232 14.0594 4.8011 14.2282C4.96989 14.397 5.1988 14.4918 5.4375 14.4918H15.3375L18.9375 18.0918V4.5918C18.9375 4.3531 18.8427 4.12418 18.6739 3.9554C18.5051 3.78662 18.2762 3.6918 18.0375 3.6918Z" fill="#4D91FF"/>
</svg>
