<svg width="16" height="16" viewBox="0 0 16 16" fill="none" xmlns="http://www.w3.org/2000/svg">
<path d="M0.948245 14.8506C0.666928 14.5693 0.526269 14.238 0.526269 13.8567C0.526269 13.4754 0.666928 13.1448 0.948245 12.8648L5.91267 7.90039L0.948245 2.93597C0.666928 2.65465 0.52627 2.32336 0.52627 1.94209C0.52627 1.56082 0.666928 1.23019 0.948246 0.950199C1.22956 0.668881 1.56086 0.528223 1.94212 0.528223C2.32339 0.528223 2.65402 0.668881 2.93401 0.950199L7.89844 5.91462L12.8629 0.950199C13.1442 0.668881 13.4755 0.528223 13.8567 0.528223C14.238 0.528223 14.5686 0.668881 14.8486 0.950199C15.1299 1.23152 15.2706 1.56281 15.2706 1.94408C15.2706 2.32534 15.1299 2.65597 14.8486 2.93597L9.88421 7.90039L14.8486 12.8648C15.1299 13.1461 15.2706 13.4774 15.2706 13.8587C15.2706 14.24 15.1299 14.5706 14.8486 14.8506C14.5673 15.1319 14.236 15.2726 13.8548 15.2726C13.4735 15.2726 13.1429 15.1319 12.8629 14.8506L7.89844 9.88616L2.93401 14.8506C2.6527 15.1319 2.3214 15.2726 1.94014 15.2726C1.55887 15.2726 1.22824 15.1319 0.948245 14.8506Z" fill="white"/>
</svg>
