<svg width="11" height="10" viewBox="0 0 11 10" fill="none" xmlns="http://www.w3.org/2000/svg">
<path d="M9.86068 0H3.19401C3.0835 0 2.97752 0.0438988 2.89938 0.122039C2.82124 0.200179 2.77734 0.30616 2.77734 0.416667V2.5H0.69401C0.583504 2.5 0.477523 2.5439 0.399383 2.62204C0.321243 2.70018 0.277344 2.80616 0.277344 2.91667V9.58333C0.277344 9.69384 0.321243 9.79982 0.399383 9.87796C0.477523 9.9561 0.583504 10 0.69401 10H7.36068C7.47118 10 7.57717 9.9561 7.6553 9.87796C7.73345 9.79982 7.77734 9.69384 7.77734 9.58333V7.5H9.86068C9.97118 7.5 10.0772 7.4561 10.1553 7.37796C10.2334 7.29982 10.2773 7.19384 10.2773 7.08333V0.416667C10.2773 0.30616 10.2334 0.200179 10.1553 0.122039C10.0772 0.0438988 9.97118 0 9.86068 0ZM6.94401 9.16667H1.11068V3.33333H6.94401V9.16667ZM9.44401 6.66667H7.77734V2.91667C7.77734 2.80616 7.73345 2.70018 7.6553 2.62204C7.57717 2.5439 7.47118 2.5 7.36068 2.5H3.61068V0.833333H9.44401V6.66667Z" fill="#656565"/>
</svg>
