<svg width="234" height="53" viewBox="0 0 234 53" fill="none" xmlns="http://www.w3.org/2000/svg">
<g clip-path="url(#clip0_15_4)">
<path d="M22.1411 49.8529C20.2582 49.8529 19.2269 48.7072 19.1836 48.6595L2.84257 30.5308C2.15574 29.7511 1.96724 28.6529 2.3594 27.7303C2.89024 26.4827 4.07107 26.4675 4.12091 26.4675H18.1349C21.2419 26.4675 22.9731 28.4775 23.0446 28.562C23.1702 28.7071 35.9189 43.4808 37.7844 45.7962L37.8299 45.8525L37.8559 45.9196C38.2156 46.8185 38.2416 47.6026 37.9296 48.2502C37.5201 49.1014 36.6751 49.3656 36.6404 49.3764L36.5169 49.3959C35.9991 49.4154 23.8181 49.8529 22.1411 49.8529ZM3.25207 28.1093C3.00724 28.6833 3.13507 29.398 3.56624 29.8897L19.9072 48.0184C19.9397 48.0552 20.7111 48.8891 22.1432 48.8891C23.7336 48.8891 35.3404 48.4733 36.4042 48.4364C36.5299 48.3844 36.8831 48.2068 37.0629 47.8235C37.2406 47.4444 37.2146 46.9484 36.9849 46.3463C34.9742 43.8663 22.4379 29.3395 22.3101 29.1901C22.2927 29.1706 20.7804 27.4357 18.1349 27.4357H4.12524C4.07107 27.4357 3.5229 27.4703 3.25207 28.1093Z" fill="#FFBC35"/>
<path d="M2.82946 21.3235C2.45896 22.192 2.66479 23.2186 3.27796 23.9161L21.7856 44.449C21.7856 44.449 22.8148 45.6164 24.7236 45.6164C26.6325 45.6164 40.9801 45.0987 40.9801 45.0987C40.9801 45.0987 43.0363 44.4771 42.0093 41.9105C39.8795 39.2659 25.326 22.4043 25.326 22.4043C25.326 22.4043 23.4908 20.2275 20.1845 20.2275C16.8781 20.2275 4.32013 20.2275 4.32013 20.2275C4.32013 20.2275 3.29529 20.2253 2.82946 21.3235Z" fill="#F65A27"/>
<path d="M34.5258 42.7444C32.0038 42.7444 30.6323 41.2218 30.5738 41.1568L7.97334 16.0819C7.06984 15.0575 6.82284 13.615 7.3385 12.4042C8.02534 10.7884 9.53984 10.7711 9.60484 10.7711H28.9813C33.1933 10.7711 35.5333 13.4872 35.6308 13.602C35.8042 13.8034 53.4365 34.2367 56.0127 37.4336L56.0582 37.4899L56.0842 37.557C56.563 38.7504 56.5977 39.7836 56.1903 40.6326C55.6595 41.7372 54.5653 42.0795 54.5198 42.0925L54.4592 42.1098L54.3963 42.1119C53.6835 42.1401 36.8398 42.7444 34.5258 42.7444ZM9.607 11.7371C9.57234 11.7371 8.66234 11.7674 8.229 12.7833C7.86284 13.641 8.05134 14.7088 8.69484 15.4408L31.2953 40.5157C31.343 40.5698 32.4567 41.7806 34.5237 41.7806C36.7445 41.7806 53.0357 41.1979 54.288 41.1524C54.457 41.0853 55.0355 40.8189 55.3258 40.2059C55.5988 39.6276 55.562 38.8826 55.2153 37.9859C52.4918 34.62 35.0718 14.4359 34.8963 14.2323C34.8725 14.2041 32.7318 11.7414 28.9835 11.7414H9.607V11.7371Z" fill="#A0EDA7"/>
<path d="M9.58959 4.57659C9.03709 5.80249 9.34259 7.24933 10.2613 8.23265L35.1844 34.9428C35.1844 34.9428 36.7206 36.5867 39.5719 36.5867C42.4233 36.5867 65.6803 36.5867 65.6803 36.5867C65.6803 36.5867 68.7526 35.7095 67.2164 32.0902C64.0358 28.3627 43.1924 6.09923 43.1924 6.09923C43.1924 6.09923 40.4494 3.02795 35.5138 3.02795C30.5781 3.02795 11.8191 3.02795 11.8191 3.02795C11.8191 3.02795 10.2873 3.03012 9.58959 4.57659Z" fill="#4D91FF"/>
<path d="M93.5913 11.0765V20.9444C93.1254 20.4982 92.6033 20.1387 92.0248 19.8658C91.0909 19.4261 90.0553 19.2052 88.9243 19.2052C87.3513 19.2052 86.0079 19.5994 84.8921 20.3835C83.7763 21.1697 82.9226 22.2093 82.3354 23.5002C81.7461 24.7911 81.4536 26.1903 81.4536 27.6956C81.4536 29.2464 81.7634 30.6586 82.3853 31.9343C83.0071 33.21 83.8781 34.228 85.0004 34.9926C86.1228 35.7571 87.4314 36.1383 88.9264 36.1383C90.1246 36.1383 91.1906 35.8958 92.1266 35.4128C92.7138 35.1095 93.2338 34.7197 93.6888 34.2453L93.8924 35.8091H97.0428V11.0765H93.5913ZM91.7019 32.5776C91.0368 32.9848 90.2979 33.1884 89.4833 33.1884C88.5364 33.1884 87.7261 32.9458 87.0501 32.4628C86.3741 31.9798 85.8563 31.3235 85.4988 30.4918C85.1413 29.6622 84.9636 28.7309 84.9636 27.6978C84.9636 26.6213 85.1413 25.6683 85.4988 24.8366C85.8563 24.007 86.3719 23.3529 87.0501 22.8743C87.7261 22.3956 88.5364 22.1573 89.4833 22.1573C90.2979 22.1573 91.0368 22.3739 91.7019 22.8093C92.3671 23.2425 92.8958 23.8749 93.2858 24.7045C93.6758 25.534 93.8708 26.5325 93.8708 27.6978C93.8708 28.9172 93.6758 29.9352 93.2858 30.7474C92.8958 31.5618 92.3671 32.1725 91.7019 32.5776Z" fill="#03214C"/>
<path d="M108.799 36.1405C106.854 36.1405 105.226 35.7485 103.918 34.9623C102.609 34.176 101.621 33.1321 100.958 31.8303C100.293 30.5286 99.9592 29.1013 99.9592 27.5526C99.9592 26.0473 100.269 24.6611 100.891 23.3984C101.513 22.1335 102.418 21.1199 103.612 20.3575C104.806 19.5929 106.249 19.2117 107.941 19.2117C109.382 19.2117 110.63 19.5041 111.685 20.0867C112.74 20.6694 113.551 21.4837 114.118 22.5277C114.684 23.5717 114.968 24.7933 114.968 26.1881C114.968 26.474 114.955 26.7708 114.927 27.0783C114.898 27.3859 114.853 27.7108 114.786 28.0508H103.521C103.664 29.3374 104.004 30.3575 104.544 31.1091C105.083 31.8628 105.753 32.3978 106.557 32.7162C107.358 33.0346 108.227 33.1949 109.163 33.1949C110 33.1949 110.823 33.0996 111.638 32.9068C112.452 32.714 113.215 32.4368 113.93 32.0751L114.244 34.8951C113.618 35.1918 112.847 35.4756 111.934 35.7441C111.02 36.0041 109.976 36.1405 108.799 36.1405ZM103.718 25.6856H111.438C111.438 25.038 111.317 24.4467 111.076 23.9139C110.834 23.3811 110.452 22.9544 109.93 22.636C109.408 22.3176 108.734 22.1573 107.909 22.1573C106.7 22.1573 105.762 22.4757 105.096 23.1147C104.431 23.7515 103.972 24.6092 103.718 25.6856Z" fill="#03214C"/>
<path d="M125.407 36.1405C123.558 36.1405 122.005 35.7615 120.746 35.0034C119.487 34.2453 118.538 33.2317 117.901 31.9625C117.264 30.6932 116.944 29.2832 116.944 27.7324C116.944 26.1383 117.258 24.6958 117.884 23.4049C118.51 22.114 119.461 21.0874 120.737 20.3293C122.014 19.5712 123.634 19.1922 125.604 19.1922C126.483 19.1922 127.296 19.2832 128.046 19.4651C128.793 19.647 129.454 19.8853 130.026 20.182L129.614 23.0844C129.053 22.8093 128.444 22.5862 127.783 22.4173C127.123 22.2483 126.442 22.1617 125.738 22.1617C124.033 22.1617 122.729 22.6555 121.821 23.6453C120.913 24.6351 120.46 25.9694 120.46 27.6523C120.46 29.2897 120.906 30.6261 121.797 31.6592C122.687 32.6924 123.985 33.21 125.69 33.21C126.395 33.21 127.079 33.119 127.744 32.9371C128.41 32.7552 129.044 32.5061 129.649 32.1877L130.028 35.0229C129.534 35.3304 128.871 35.5947 128.041 35.8134C127.209 36.03 126.332 36.1405 125.407 36.1405Z" fill="#03214C"/>
<path d="M137.07 36.1405C136.058 36.1405 135.245 35.9477 134.628 35.5644C134.013 35.1788 133.564 34.6763 133.285 34.0547C133.005 33.4331 132.864 32.7703 132.864 32.0686V11.0765H136.311V30.3683C136.311 31.2694 136.37 31.9321 136.485 32.3545C136.6 32.779 136.825 33.0497 137.161 33.171C137.497 33.2923 137.993 33.353 138.654 33.353L138.257 36.1405H137.07Z" fill="#03214C"/>
<path d="M144.723 36.1405C143.776 36.1405 142.935 35.9391 142.198 35.5384C141.462 35.1377 140.881 34.5789 140.459 33.8641C140.036 33.1494 139.824 32.309 139.824 31.3408C139.824 30.4182 140.032 29.6298 140.45 28.9735C140.868 28.3194 141.423 27.7736 142.116 27.3339C142.809 26.8942 143.57 26.5455 144.4 26.2878C145.23 26.03 146.075 25.8394 146.933 25.7181C147.791 25.5968 148.588 25.5318 149.325 25.521C149.314 24.2345 149.039 23.3638 148.499 22.9068C147.96 22.4497 147.141 22.2223 146.042 22.2223C145.381 22.2223 144.705 22.3176 144.014 22.5104C143.321 22.7032 142.541 23.0627 141.672 23.5912L141.275 20.7885C142.066 20.3055 142.952 19.92 143.932 19.6341C144.911 19.3482 145.923 19.2052 146.967 19.2052C148.276 19.2052 149.359 19.437 150.217 19.8983C151.075 20.3596 151.719 21.1242 152.148 22.1898C152.577 23.2555 152.791 24.685 152.791 26.4762V30.2687C152.791 31.0593 152.828 31.6787 152.9 32.1227C152.971 32.5667 153.127 32.883 153.37 33.0714C153.612 33.2598 153.981 33.3508 154.475 33.3508H154.871L154.442 36.1383H153.684C152.869 36.1383 152.213 36.0495 151.712 35.8741C151.212 35.6987 150.807 35.4474 150.501 35.1247C150.193 34.7998 149.933 34.4121 149.725 33.9616C149.143 34.6222 148.419 35.1485 147.557 35.5449C146.688 35.9412 145.745 36.1405 144.723 36.1405ZM145.778 33.4353C146.393 33.4353 147.028 33.2815 147.682 32.9739C148.337 32.6664 148.889 32.2375 149.34 31.6874V27.8624C148.107 27.9187 147.05 28.0638 146.166 28.2999C145.279 28.536 144.599 28.8912 144.12 29.3634C143.641 29.8355 143.403 30.4398 143.403 31.1762C143.403 31.9668 143.611 32.5429 144.029 32.8981C144.447 33.2577 145.03 33.4353 145.778 33.4353Z" fill="#03214C"/>
<path d="M157.125 35.8091V19.5193H160.16L160.407 21.7956C161.068 21.0051 161.774 20.3726 162.526 19.9005C163.28 19.4283 164.095 19.1922 164.974 19.1922C165.239 19.1922 165.486 19.2204 165.718 19.2745L165.421 22.8526C165.234 22.8093 165.044 22.7746 164.851 22.753C164.658 22.7313 164.457 22.7205 164.249 22.7205C163.458 22.7205 162.734 22.9003 162.08 23.2555C161.425 23.6128 160.96 24.0157 160.687 24.4662V35.8113H157.125V35.8091Z" fill="#03214C"/>
<path d="M171.212 36.1405C170.265 36.1405 169.425 35.9391 168.688 35.5384C167.951 35.1377 167.371 34.5789 166.948 33.8641C166.526 33.1494 166.313 32.309 166.313 31.3408C166.313 30.4182 166.521 29.6298 166.939 28.9735C167.358 28.3194 167.912 27.7736 168.606 27.3339C169.299 26.8942 170.059 26.5455 170.889 26.2878C171.719 26.03 172.564 25.8394 173.422 25.7181C174.28 25.5968 175.077 25.5318 175.814 25.521C175.803 24.2345 175.528 23.3638 174.989 22.9068C174.449 22.4497 173.63 22.2223 172.532 22.2223C171.871 22.2223 171.195 22.3176 170.504 22.5104C169.81 22.7032 169.03 23.0627 168.161 23.5912L167.765 20.7885C168.556 20.3055 169.442 19.92 170.421 19.6341C171.401 19.3482 172.41 19.2052 173.457 19.2052C174.765 19.2052 175.849 19.437 176.707 19.8983C177.565 20.3596 178.208 21.1242 178.637 22.1898C179.066 23.2555 179.281 24.685 179.281 26.4762V30.2687C179.281 31.0593 179.315 31.6787 179.389 32.1227C179.461 32.5667 179.617 32.883 179.859 33.0714C180.102 33.2577 180.47 33.3508 180.964 33.3508H181.361L180.932 36.1383H180.173C179.359 36.1383 178.702 36.0495 178.202 35.8741C177.701 35.6987 177.296 35.4474 176.991 35.1247C176.683 34.7998 176.425 34.4121 176.215 33.9616C175.632 34.6222 174.908 35.1485 174.046 35.5449C173.177 35.9412 172.235 36.1405 171.212 36.1405ZM172.267 33.4353C172.883 33.4353 173.517 33.2815 174.172 32.9739C174.826 32.6664 175.379 32.2375 175.829 31.6874V27.8624C174.599 27.9187 173.539 28.0638 172.655 28.2999C171.769 28.536 171.089 28.8912 170.61 29.3634C170.131 29.8355 169.893 30.4398 169.893 31.1762C169.893 31.9668 170.101 32.5429 170.519 32.8981C170.937 33.2577 171.52 33.4353 172.267 33.4353Z" fill="#03214C"/>
<path d="M188.81 36.1405C187.787 36.1405 186.959 35.9434 186.327 35.5471C185.694 35.1507 185.233 34.646 184.942 34.0309C184.65 33.4158 184.505 32.766 184.505 32.0859V22.2743H180.925L181.239 19.5214H184.505V15.6769L187.952 15.313V19.5171H191.943V22.27H187.952V30.3315C187.952 31.278 188.006 31.9603 188.116 32.3848C188.227 32.8072 188.496 33.0736 188.925 33.184C189.354 33.2945 190.036 33.3486 190.97 33.3486H191.893L191.596 36.1362H188.81V36.1405Z" fill="#03214C"/>
<path d="M194.534 35.8091V19.5193H197.981V35.8091H194.534Z" fill="#03214C"/>
<path d="M206.41 35.8091L200.176 19.5193H203.788L208.11 31.7697L212.416 19.5193H216.027L209.809 35.8091H206.41Z" fill="#03214C"/>
<path d="M225.758 36.1405C223.812 36.1405 222.183 35.7485 220.876 34.9623C219.568 34.176 218.58 33.1321 217.915 31.8303C217.249 30.5286 216.918 29.1013 216.918 27.5526C216.918 26.0473 217.228 24.6611 217.85 23.3984C218.471 22.1335 219.377 21.1199 220.571 20.3575C221.765 19.5929 223.208 19.2117 224.9 19.2117C226.341 19.2117 227.589 19.5041 228.644 20.0867C229.699 20.6694 230.509 21.4837 231.077 22.5277C231.643 23.5717 231.926 24.7933 231.926 26.1881C231.926 26.474 231.913 26.7708 231.885 27.0783C231.857 27.3859 231.812 27.7108 231.744 28.0508H220.48C220.623 29.3374 220.963 30.3575 221.503 31.1091C222.042 31.8628 222.712 32.3978 223.515 32.7162C224.317 33.0346 225.186 33.1949 226.122 33.1949C226.958 33.1949 227.782 33.0996 228.596 32.9068C229.411 32.714 230.174 32.4368 230.889 32.0751L231.203 34.8951C230.577 35.1918 229.805 35.4756 228.893 35.7441C227.979 36.0041 226.934 36.1405 225.758 36.1405ZM220.677 25.6856H228.397C228.397 25.038 228.276 24.4467 228.035 23.9139C227.792 23.3811 227.411 22.9544 226.889 22.636C226.367 22.3176 225.693 22.1573 224.867 22.1573C223.658 22.1573 222.72 22.4757 222.055 23.1147C221.39 23.7515 220.931 24.6092 220.677 25.6856Z" fill="#03214C"/>
<path d="M197.988 13.6994H194.541V17.3273H197.988V13.6994Z" fill="#03214C"/>
</g>
<defs>
<clipPath id="clip0_15_4">
<rect width="234" height="53" fill="white"/>
</clipPath>
</defs>
</svg>
