<svg width="24" height="22" viewBox="0 0 24 22" fill="none" xmlns="http://www.w3.org/2000/svg">
<path d="M10.2 14.0716H18C18.34 14.0716 18.6252 13.959 18.8556 13.7339C19.086 13.5087 19.2008 13.2304 19.2 12.899C19.2 12.5667 19.0848 12.288 18.8544 12.0629C18.624 11.8377 18.3392 11.7256 18 11.7263H12.6L10.2 14.0716ZM5.4 14.0716H7.26C7.42 14.0716 7.57 14.0423 7.71 13.9837C7.85 13.925 7.98 13.8371 8.1 13.7198L14.82 7.2117C14.94 7.09443 15 6.94785 15 6.77196C15 6.59606 14.94 6.44949 14.82 6.33222L12.72 4.28011C12.6 4.16285 12.45 4.10422 12.27 4.10422C12.09 4.10422 11.94 4.16285 11.82 4.28011L5.16 10.8469C5.04 10.9641 4.95 11.0912 4.89 11.228C4.83 11.3648 4.8 11.5114 4.8 11.6677V13.4853C4.8 13.6416 4.86 13.7784 4.98 13.8957C5.1 14.013 5.24 14.0716 5.4 14.0716ZM1.9544e-06 20.609V2.34527C1.9544e-06 1.70032 0.235202 1.14801 0.705602 0.688338C1.176 0.228665 1.7408 -0.000779765 2.4 1.99089e-06H21.6C22.26 1.99089e-06 22.8252 0.229838 23.2956 0.68951C23.766 1.14918 24.0008 1.7011 24 2.34527V16.4169C24 17.0618 23.7648 17.6141 23.2944 18.0738C22.824 18.5335 22.2592 18.7629 21.6 18.7621H4.8L2.04 21.4592C1.66 21.8305 1.2248 21.9138 0.734402 21.709C0.244002 21.5041 -0.000798045 21.1375 1.9544e-06 20.609Z" fill="#7FE688"/>
</svg>
