<svg width="56" height="56" viewBox="0 0 56 56" fill="none" xmlns="http://www.w3.org/2000/svg">
<g clip-path="url(#clip0_1424_3253)">
<path d="M30.0684 8.16058C29.4239 7.51685 28.5502 7.15527 27.6392 7.15527C26.7283 7.15527 25.8546 7.51685 25.2101 8.16058L12.2415 21.1222C11.5967 21.7671 11.2344 22.6417 11.2344 23.5537C11.2344 24.4657 11.5967 25.3403 12.2415 25.9852C12.8864 26.63 13.761 26.9923 14.673 26.9923C15.5849 26.9923 16.4596 26.63 17.1044 25.9852L24.2017 18.8902V45.3245C24.2017 46.2362 24.5639 47.1106 25.2085 47.7552C25.8532 48.3999 26.7275 48.762 27.6392 48.762C28.5509 48.762 29.4252 48.3999 30.0699 47.7552C30.7146 47.1106 31.0767 46.2362 31.0767 45.3245V18.8902L38.1717 25.9852C38.491 26.3045 38.8701 26.5578 39.2873 26.7306C39.7045 26.9034 40.1516 26.9923 40.6032 26.9923C41.0547 26.9923 41.5019 26.9034 41.9191 26.7306C42.3363 26.5578 42.7153 26.3045 43.0346 25.9852C43.3539 25.6659 43.6072 25.2868 43.78 24.8696C43.9528 24.4524 44.0418 24.0053 44.0418 23.5537C44.0418 23.1021 43.9528 22.655 43.78 22.2378C43.6072 21.8206 43.3539 21.4416 43.0346 21.1222L30.0684 8.16058Z" fill="#7FE588"/>
</g>
<defs>
<clipPath id="clip0_1424_3253">
<rect width="55" height="55" fill="white" transform="translate(0.140625 0.636719)"/>
</clipPath>
</defs>
</svg>
