<svg width="18" height="14" viewBox="0 0 18 14" fill="none" xmlns="http://www.w3.org/2000/svg">
<path d="M1.28571 0H7.71429C8.05528 0 8.3823 0.144489 8.62342 0.401682C8.86454 0.658875 9 1.0077 9 1.37143C9 1.73515 8.86454 2.08398 8.62342 2.34118C8.3823 2.59837 8.05528 2.74286 7.71429 2.74286H1.28571C0.944722 2.74286 0.617695 2.59837 0.376577 2.34118C0.135459 2.08398 0 1.73515 0 1.37143C0 1.0077 0.135459 0.658875 0.376577 0.401682C0.617695 0.144489 0.944722 0 1.28571 0ZM10.2857 10.9714H16.7143C17.0553 10.9714 17.3823 11.1159 17.6234 11.3731C17.8645 11.6303 18 11.9791 18 12.3429C18 12.7066 17.8645 13.0554 17.6234 13.3126C17.3823 13.5698 17.0553 13.7143 16.7143 13.7143H10.2857C9.94472 13.7143 9.6177 13.5698 9.37658 13.3126C9.13546 13.0554 9 12.7066 9 12.3429C9 11.9791 9.13546 11.6303 9.37658 11.3731C9.6177 11.1159 9.94472 10.9714 10.2857 10.9714ZM1.28571 5.48571H16.7143C17.0553 5.48571 17.3823 5.6302 17.6234 5.8874C17.8645 6.14459 18 6.49342 18 6.85714C18 7.22087 17.8645 7.5697 17.6234 7.82689C17.3823 8.08408 17.0553 8.22857 16.7143 8.22857H1.28571C0.944722 8.22857 0.617695 8.08408 0.376577 7.82689C0.135459 7.5697 0 7.22087 0 6.85714C0 6.49342 0.135459 6.14459 0.376577 5.8874C0.617695 5.6302 0.944722 5.48571 1.28571 5.48571Z" fill="#8E8E8E"/>
</svg>
