<svg width="19" height="14" viewBox="0 0 19 14" fill="none" xmlns="http://www.w3.org/2000/svg">
<path opacity="0.5" d="M13.29 5.46629L11.2528 3.5193C11.0731 3.34758 10.9722 3.11468 10.9722 2.87183C10.9722 2.75158 10.9969 2.63252 11.0451 2.52142C11.0932 2.41033 11.1638 2.30939 11.2528 2.22436C11.3417 2.13934 11.4474 2.07189 11.5636 2.02587C11.6798 1.97986 11.8044 1.95617 11.9302 1.95617C12.1843 1.95617 12.428 2.05265 12.6077 2.22436L13.9627 3.5193L17.3644 0.268189C17.5441 0.0964708 17.7878 0 18.0419 0C18.296 0 18.5397 0.0964708 18.7194 0.268189C18.8991 0.439908 19 0.672809 19 0.915656C19 1.1585 18.8991 1.3914 18.7194 1.56312L14.6449 5.4571C14.2702 5.82446 13.6648 5.82446 13.29 5.46629ZM7.68763 2.44478H0.960954C0.432429 2.44478 0 2.85805 0 3.36317C0 3.86828 0.432429 4.28156 0.960954 4.28156H7.68763C8.21616 4.28156 8.64859 3.86828 8.64859 3.36317C8.64859 2.85805 8.21616 2.44478 7.68763 2.44478ZM17.5758 7.68879C17.4869 7.60366 17.3813 7.53611 17.2651 7.49002C17.1488 7.44394 17.0242 7.42022 16.8984 7.42022C16.7725 7.42022 16.6479 7.44394 16.5317 7.49002C16.4154 7.53611 16.3098 7.60366 16.2209 7.68879L14.4143 9.41537L12.6077 7.68879C12.428 7.51708 12.1843 7.4206 11.9302 7.4206C11.6761 7.4206 11.4324 7.51708 11.2528 7.68879C11.0731 7.86051 10.9722 8.09341 10.9722 8.33626C10.9722 8.57911 11.0731 8.81201 11.2528 8.98373L13.0594 10.7103L11.2528 12.4369C11.1638 12.5219 11.0932 12.6228 11.0451 12.7339C10.9969 12.845 10.9722 12.9641 10.9722 13.0843C10.9722 13.2046 10.9969 13.3237 11.0451 13.4348C11.0932 13.5458 11.1638 13.6468 11.2528 13.7318C11.4324 13.9035 11.6761 14 11.9302 14C12.0561 14 12.1806 13.9763 12.2969 13.9303C12.4131 13.8843 12.5187 13.8168 12.6077 13.7318L14.4143 12.0052L16.2209 13.7318C16.4006 13.9035 16.6443 14 16.8984 14C17.1525 14 17.3962 13.9035 17.5758 13.7318C17.7555 13.5601 17.8565 13.3272 17.8565 13.0843C17.8565 12.8415 17.7555 12.6086 17.5758 12.4369L15.7693 10.7103L17.5758 8.98373C17.6649 8.89876 17.7356 8.79784 17.7838 8.68674C17.8321 8.57564 17.8569 8.45654 17.8569 8.33626C17.8569 8.21598 17.8321 8.09688 17.7838 7.98578C17.7356 7.87468 17.6649 7.77376 17.5758 7.68879ZM7.68763 9.79191H0.960954C0.432429 9.79191 0 10.2052 0 10.7103C0 11.2154 0.432429 11.6287 0.960954 11.6287H7.68763C8.21616 11.6287 8.64859 11.2154 8.64859 10.7103C8.64859 10.2052 8.21616 9.79191 7.68763 9.79191Z" fill="#8E8E8E"/>
</svg>
