<svg width="19" height="19" viewBox="0 0 19 19" fill="none" xmlns="http://www.w3.org/2000/svg">
<path d="M16.8799 0.93457H2.47277C1.48228 0.93457 0.671875 1.83457 0.671875 2.93457V13.9346C0.671875 15.0346 1.48228 15.9346 2.47277 15.9346H5.17411C4.67886 16.4846 4.27366 16.8046 4.27366 17.5246C4.27366 18.3046 4.84094 18.9346 5.54329 18.9346H13.8004C14.5027 18.9346 15.07 18.3046 15.07 17.5246C15.07 16.8046 14.6738 16.4946 14.1696 15.9346H16.8709C17.8614 15.9346 18.6718 15.0346 18.6718 13.9346V2.93457C18.6808 1.83457 17.8704 0.93457 16.8799 0.93457ZM16.8799 13.9346H2.47277V2.93457H16.8799V13.9346Z" fill="#F65A27"/>
</svg>
