<svg width="15" height="25" viewBox="0 0 15 25" fill="none" xmlns="http://www.w3.org/2000/svg">
<path d="M10.2334 13.2392C11.8638 12.691 13.2305 11.5963 14.0796 10.1585C14.9287 8.72066 15.2025 7.03744 14.8502 5.42139C14.3028 2.81924 12.1253 0.705709 9.40048 0.16028C8.35683 -0.0596155 7.27482 -0.0531712 6.23412 0.179139C5.19342 0.411449 4.22053 0.863708 3.38709 1.50262C2.55365 2.14153 1.88088 2.95082 1.41831 3.8709C0.955747 4.79098 0.715167 5.79843 0.714287 6.81905C0.714232 8.22801 1.17204 9.60227 2.02455 10.7522C2.87706 11.9022 4.08225 12.7711 5.47384 13.2392L5.47384 18.1821L3.09407 18.1821C1.78519 18.1821 0.714286 19.2048 0.714286 20.4548C0.714286 21.7047 1.78519 22.7274 3.09407 22.7274L5.47384 22.7274C5.47384 23.9773 6.54475 25 7.85362 25C9.1625 25 10.2334 23.9773 10.2334 22.7274L10.2334 13.2392ZM5.47385 6.81905C5.47385 5.56911 6.54475 4.54643 7.85363 4.54643C9.1625 4.54643 10.2334 5.56911 10.2334 6.81905C10.2334 8.06899 9.1625 9.09167 7.85363 9.09167C6.54475 9.09167 5.47385 8.06899 5.47385 6.81905Z" fill="#F65A27"/>
</svg>
