<svg width="11" height="19" viewBox="0 0 11 19" fill="none" xmlns="http://www.w3.org/2000/svg">
<path d="M8.70002 18.6004L0.275016 10.2004C0.175016 10.1004 0.104016 9.99206 0.0620156 9.87539C0.0200156 9.75872 -0.000651042 9.63372 1.5625e-05 9.50039C1.5625e-05 9.36706 0.0210156 9.24206 0.0630156 9.12539C0.105016 9.00872 0.175682 8.90039 0.275016 8.80039L8.70002 0.375391C8.93335 0.142057 9.22502 0.0253906 9.57502 0.0253906C9.92502 0.0253906 10.225 0.150391 10.475 0.400391C10.725 0.650391 10.85 0.942057 10.85 1.27539C10.85 1.60872 10.725 1.90039 10.475 2.15039L3.12502 9.50039L10.475 16.8504C10.7083 17.0837 10.825 17.3714 10.825 17.7134C10.825 18.0554 10.7 18.3511 10.45 18.6004C10.2 18.8504 9.90835 18.9754 9.57502 18.9754C9.24168 18.9754 8.95002 18.8504 8.70002 18.6004Z" fill="#8E8E8E"/>
</svg>
