<svg width="11" height="19" viewBox="0 0 11 19" fill="none" xmlns="http://www.w3.org/2000/svg">
<path d="M2.29998 18.6004L10.725 10.2004C10.825 10.1004 10.896 9.99206 10.938 9.87539C10.98 9.75872 11.0007 9.63372 11 9.50039C11 9.36706 10.979 9.24206 10.937 9.12539C10.895 9.00872 10.8243 8.90039 10.725 8.80039L2.29998 0.375391C2.06665 0.142057 1.77498 0.0253906 1.42498 0.0253906C1.07498 0.0253906 0.774984 0.150391 0.524984 0.400391C0.274984 0.650391 0.149984 0.942057 0.149984 1.27539C0.149984 1.60872 0.274984 1.90039 0.524984 2.15039L7.87498 9.50039L0.524984 16.8504C0.291651 17.0837 0.174984 17.3714 0.174984 17.7134C0.174984 18.0554 0.299984 18.3511 0.549984 18.6004C0.799984 18.8504 1.09165 18.9754 1.42498 18.9754C1.75832 18.9754 2.04998 18.8504 2.29998 18.6004Z" fill="#8E8E8E"/>
</svg>
