<?xml version="1.0" encoding="utf-8"?>
<!-- Generator: Adobe Illustrator 27.7.0, SVG Export Plug-In . SVG Version: 6.00 Build 0)  -->
<svg version="1.1" id="Layer_1" xmlns="http://www.w3.org/2000/svg" xmlns:xlink="http://www.w3.org/1999/xlink" x="0px" y="0px"
	 viewBox="0 0 1080 1080" style="enable-background:new 0 0 1080 1080;" xml:space="preserve">
<style type="text/css">
	.st0{fill:#221F1F;}
	.st1{fill:#F05C2E;}
</style>
<g>
	<path class="st0" d="M438.7,585.1V445.5h63.4c15.2,0,28.5,2.9,40.1,8.7c11.6,5.8,20.6,13.9,27.1,24.2c6.5,10.4,9.8,22.7,9.8,36.9
		c0,14.1-3.3,26.4-9.8,36.8c-6.5,10.4-15.6,18.6-27.1,24.3c-11.6,5.8-24.9,8.7-40.1,8.7H438.7z M471.1,558.6h29.5
		c9.3,0,17.4-1.8,24.2-5.3c6.8-3.5,12.2-8.5,16-15.1c3.8-6.5,5.7-14.2,5.7-22.9c0-8.9-1.9-16.6-5.7-23c-3.8-6.4-9.1-11.4-16-15
		c-6.9-3.5-14.9-5.3-24.2-5.3h-29.5V558.6z"/>
	<path class="st0" d="M671.3,587.5c-11,0-21.2-1.8-30.6-5.4c-9.4-3.6-17.5-8.6-24.3-15.2c-6.9-6.5-12.2-14.2-16-22.9
		c-3.8-8.8-5.7-18.4-5.7-28.7c0-10.4,1.9-19.9,5.7-28.7c3.8-8.8,9.1-16.4,16.1-22.9c6.9-6.5,15-11.6,24.3-15.2
		c9.3-3.6,19.4-5.4,30.3-5.4c11,0,21.2,1.8,30.4,5.4c9.2,3.6,17.3,8.6,24.1,15.2c6.8,6.5,12.2,14.1,16.1,22.8
		c3.9,8.7,5.8,18.3,5.8,28.8c0,10.4-1.9,20-5.8,28.8c-3.9,8.8-9.2,16.5-16.1,22.9c-6.9,6.5-14.9,11.5-24.1,15.1
		C692.3,585.7,682.2,587.5,671.3,587.5 M671.1,560c6.2,0,12-1.1,17.3-3.2c5.3-2.1,9.9-5.2,13.9-9.2c4-4,7.1-8.7,9.3-14.2
		c2.2-5.5,3.3-11.5,3.3-18.2c0-6.6-1.1-12.7-3.3-18.2c-2.2-5.5-5.3-10.2-9.2-14.2c-3.9-4-8.5-7-13.9-9.2c-5.3-2.1-11.1-3.2-17.4-3.2
		c-6.3,0-12,1.1-17.3,3.2c-5.3,2.1-9.9,5.2-13.9,9.2c-4,4-7.1,8.7-9.3,14.2c-2.2,5.5-3.3,11.5-3.3,18.2c0,6.5,1.1,12.5,3.3,18.1
		c2.2,5.5,5.3,10.3,9.2,14.3c3.9,4,8.5,7,13.9,9.2C659.1,558.9,664.9,560,671.1,560"/>
	<polygon class="st0" points="929.2,585.1 928.8,445.5 902.3,445.5 851.5,531.1 808.5,445.5 771.9,445.5 771.9,585.1 802.2,585.1 
		802.2,503.1 843.1,570.4 857.6,570.4 898.7,501.3 898.9,585.1 	"/>
	<polygon class="st0" points="994.5,559.2 994.5,526.9 1059.3,526.9 1059.3,501.7 994.5,501.7 994.5,471.4 1067.9,471.4 
		1067.9,445.5 962.3,445.5 962.3,585.1 1070.5,585.1 1070.5,559.2 	"/>
	<path class="st1" d="M367.5,528.8l0.1,0.1l-2.9-16.6l-9-38.4l-1-3.4l-38.8-49.2l-2.8-3.3l-56.7-36.6l-4.7-1.6l-57.1-9.2l-3.1,0.4
		l-42.8,11l-13.8,4.4l-53,20.1l-2,1.4L40.1,456l-5.4,8.5l0.1-0.1l-23.4,55.3l-0.1,0l-0.4,2.9l-0.3,62.6l-0.3,1.2l152.4-1.3
		l208.5,1.1L367.5,528.8z M362.3,513.2l-25-49l15.4,8.3L362.3,513.2z M363.8,522.3h-28.6l0.3-56L363.8,522.3z M349.1,467.6
		l-13.5-7.5l0-0.3l-0.5,0l-1.9-3.8v0.1l-6.6-12.8l-6.7-12.8L349.1,467.6z M282.1,521.8l10.6-55.1l38.9,55.5l-21.1-0.2l-28.2-0.2l0,0
		L282.1,521.8z M133.7,519.4l-27,0.5l-33.4,0.7l35.8-57l20.8,46.4l4.2,9.4l-0.4,0L133.7,519.4z M60.5,474l46.1-11.1l-8.9,14.3
		l-26.1,41.6L60.5,474z M69.5,520.7l-39.2-1.3l6.3-9.6l21.9-33.6L69.5,520.7z M293,462.2l-9.2-46.2l47.5,44.1l-9.4,0.5l-28.4,1.7
		l0-0.2L293,462.2z M290.2,460.9l-57.9-38.3l48.4-8.9L290.2,460.9z M236.7,450.9l-5.8-26.2l57.7,38.2l-20.3,3.2l-27.4,4.3
		L236.7,450.9z M238.4,470.3l-23.4-3.8l-32.4-5.2l36.6-29.7l9.1-7.4L238.4,470.3z M230.1,420.5l-0.2-0.8l-0.4,0.3l-18.7-34.6
		l66.5,26.3L230.1,420.5z M226.8,420.4l-65.9-9.3l46.6-26.2L226.8,420.4z M226.1,422.8l-45.9,37.3l-13.5-30l-7.5-16.7L226.1,422.8z
		 M164.8,432l12.8,28.5l-0.2,0l0.2,0.3l-24.2-0.4l-41.3-0.6l23.6-24.3l21-21.6L164.8,432z M109.7,458.8l-0.2-0.5l-0.1,0.1
		l-17.9-35.8l62.2-9.1L109.7,458.8z M107.5,460.1l-45.9,11l23.6-39.7l4.3-7.2L107.5,460.1z M120.9,483.9l-9.7-21.7l14.4,0.2
		l51.6,0.8l-41,54.9L120.9,483.9z M179.5,464.4l11.7,22.5l17.7,34.1l-29.1-0.5l-41.1-1.1L179.5,464.4z M181.9,463.7l32.5,5.3
		l23.6,3.8l-11.4,19.7L211,519.7L181.9,463.7z M240.2,474l24.8,31.4l13,16.4l-64.9-0.7L240.2,474z M242.4,472.7l43.8-6.9l4.3-0.7
		l-10.9,54.2L242.4,472.7z M294.3,464.7l30.2-1.8l8.5-0.5l-0.4,56.9L294.3,464.7z M329.8,455.3l-43.4-40.6l25.3,5.8L329.8,455.3z
		 M306,416.6l-23.1-5.4l-0.1-0.4l-0.5,0.1l-19.6-22.1l-0.4-0.4L306,416.6z M254.4,383.2l6.9,7.8l16,18.2l-63.1-25L254.4,383.2z
		 M241.8,380.9l-28.7,0.8l0,0l-4.3,0.1l-0.2-0.4l-0.4,0.2l-9.4-7.6L241.8,380.9z M193.6,373.2l11,8.7L202,382l0.1,0l-48.7,1.5
		L193.6,373.2z M203.1,384.5L157.7,410l-0.2-0.4l-0.1,0.1l-9.5-16.8l-3.7-6.5L203.1,384.5z M141.8,387l3.2,5.7l10.2,18.1l-22.4,3.3
		l-38.1,5.6l25.2-17.5L141.8,387z M133.1,390l-39.5,27.4l0.3-0.5l-3.9,2.9l-0.3-0.7l-0.1,0.2l-4.4-7l-2.1-3.3L133.1,390z
		 M81.1,410.4l6.8,10.9l-3.4,2.3l0.4-0.1l-31.7,23.8l-7.5,5.6L81.1,410.4z M85.3,426.4L58.8,471l-0.2,0.3l-11.6-7.1l-6.6-4
		L85.3,426.4z M47,467.2l10.2,6.2L49,486.1l-18.7,28.7l8.8-52.5L47,467.2z M35.2,470L27,519.3l-0.6,0l0,0.1l-12.3,0.2L35.2,470z
		 M13.5,522.1l12.9-0.3l-0.3,1.3l-12.9,51.8L13.5,522.1z M13.5,584l14.6-58.5l7.7,28.5L44,584H13.5z M35.8,544.3l-6.1-22.4l39.2,1.3
		l-0.1,0.1l0.4,0l-15.3,37.9l-8.1,20.1L35.8,544.3z M47.5,584l13.9-34.5l9.8-24.4l28.2,58.5L47.5,584z M73,523.2l60.7-1.2l-0.3,0.4
		l0.3,0L101.4,582L73,523.2z M103.6,583.3l32.4-59.8l33.8,59.3L103.6,583.3z M171.5,580.7l-33.3-58.4l41.4,0.6l28.2,0.7L172,581.6
		L171.5,580.7z M174.2,582.8l15-24.1l20.9-33.7l33.8,59.1L174.2,582.8z M239.7,571.9l-27.5-48.1l65.8,0.4l-5.9,10.9L246,582.8
		L239.7,571.9z M248.1,584.1l28.6-52.2l3.4-6.2l12.9,26.2l15.5,31.6L248.1,584.1z M282.1,524.3l0.2,0l0.9,0l0,0l49,0.4l-21.9,56.9
		L282.1,524.3z M312.3,583.5l21.6-56.3l13.2,39.8l5.5,16.7L312.3,583.5z M335.7,524.8l0.7,0l0,0h27.9L354,579.8L335.7,524.8z
		 M365.3,533.2l3.4,50.6l-12.9,0.3L365.3,533.2z"/>
	<path class="st1" d="M179.8,453.8c-4.4,0-8.1,3.6-8.1,8.1c0,4.4,3.6,8.1,8.1,8.1c4.4,0,8.1-3.6,8.1-8.1
		C187.9,457.4,184.3,453.8,179.8,453.8"/>
	<path class="st1" d="M109.5,452.6c-4.4,0-8.1,3.6-8.1,8.1c0,4.4,3.6,8.1,8.1,8.1c4.4,0,8.1-3.6,8.1-8.1
		C117.6,456.2,114,452.6,109.5,452.6"/>
	<path class="st1" d="M136,511.9c-4.4,0-8.1,3.6-8.1,8.1c0,4.4,3.6,8.1,8.1,8.1c4.4,0,8.1-3.6,8.1-8.1
		C144,515.5,140.4,511.9,136,511.9"/>
	<path class="st1" d="M211,513.2c-4.4,0-8.1,3.6-8.1,8.1c0,4.4,3.6,8.1,8.1,8.1c4.4,0,8.1-3.6,8.1-8.1
		C219,516.9,215.4,513.2,211,513.2"/>
	<path class="st1" d="M280.3,514c-4.4,0-8.1,3.6-8.1,8.1c0,4.4,3.6,8.1,8.1,8.1c4.4,0,8.1-3.6,8.1-8.1
		C288.3,517.6,284.7,514,280.3,514"/>
	<path class="st1" d="M333.8,514.2c-4.4,0-8.1,3.6-8.1,8.1c0,4.4,3.6,8.1,8.1,8.1c4.4,0,8.1-3.6,8.1-8.1
		C341.9,517.8,338.3,514.2,333.8,514.2"/>
	<path class="st1" d="M291.7,455.5c-4.4,0-8.1,3.6-8.1,8.1c0,4.4,3.6,8.1,8.1,8.1c4.4,0,8.1-3.6,8.1-8.1
		C299.7,459.1,296.1,455.5,291.7,455.5"/>
	<path class="st1" d="M333.6,453.5c-4.4,0-8.1,3.6-8.1,8.1c0,4.4,3.6,8.1,8.1,8.1c4.4,0,8.1-3.6,8.1-8.1
		C341.7,457.1,338.1,453.5,333.6,453.5"/>
	<path class="st1" d="M229.2,414.4c-4.4,0-8.1,3.6-8.1,8.1c0,4.4,3.6,8.1,8.1,8.1c4.4,0,8.1-3.6,8.1-8.1
		C237.3,418,233.7,414.4,229.2,414.4"/>
	<path class="st1" d="M156.9,403.7c-4.4,0-8.1,3.6-8.1,8.1c0,4.4,3.6,8.1,8.1,8.1c4.4,0,8.1-3.6,8.1-8.1
		C164.9,407.3,161.3,403.7,156.9,403.7"/>
	<path class="st1" d="M89.8,413.9c-4.4,0-8.1,3.6-8.1,8.1c0,4.4,3.6,8.1,8.1,8.1c4.4,0,8.1-3.6,8.1-8.1
		C97.9,417.5,94.2,413.9,89.8,413.9"/>
	<path class="st1" d="M59.1,464.4c-4.4,0-8.1,3.6-8.1,8.1c0,4.4,3.6,8.1,8.1,8.1c4.4,0,8.1-3.6,8.1-8.1
		C67.2,468,63.6,464.4,59.1,464.4"/>
	<path class="st1" d="M29,512.2c-4.4,0-8.1,3.6-8.1,8.1c0,4.4,3.6,8.1,8.1,8.1c4.4,0,8.1-3.6,8.1-8.1
		C37.1,515.8,33.4,512.2,29,512.2"/>
	<path class="st1" d="M281.6,404.3c-4.4,0-8.1,3.6-8.1,8.1c0,4.4,3.6,8.1,8.1,8.1c4.4,0,8.1-3.6,8.1-8.1
		C289.7,407.9,286.1,404.3,281.6,404.3"/>
	<path class="st1" d="M208.1,376c-4.4,0-8.1,3.6-8.1,8.1c0,4.4,3.6,8.1,8.1,8.1c4.4,0,8.1-3.6,8.1-8.1
		C216.1,379.7,212.5,376,208.1,376"/>
	<path class="st1" d="M71.2,513.3c-4.4,0-8.1,3.6-8.1,8.1c0,4.4,3.6,8.1,8.1,8.1c4.4,0,8.1-3.6,8.1-8.1
		C79.3,516.9,75.6,513.3,71.2,513.3"/>
	<path class="st1" d="M240,463.5c-4.4,0-8.1,3.6-8.1,8.1c0,4.4,3.6,8.1,8.1,8.1c4.4,0,8.1-3.6,8.1-8.1
		C248.1,467.1,244.5,463.5,240,463.5"/>
	<g>
		<path d="M10.3,695.3v-48.7h20.5c5.2,0,9.8,1,13.7,3.1c4,2,7.1,4.9,9.3,8.6c2.2,3.7,3.3,7.9,3.3,12.7c0,4.8-1.1,9.1-3.3,12.7
			c-2.2,3.7-5.3,6.5-9.3,8.6c-4,2-8.5,3.1-13.7,3.1H10.3z M17.3,689.3h13.2c4,0,7.5-0.8,10.5-2.3c2.9-1.5,5.2-3.7,6.9-6.4
			c1.6-2.8,2.4-5.9,2.4-9.6c0-3.7-0.8-6.9-2.4-9.6c-1.6-2.7-3.9-4.9-6.9-6.4c-2.9-1.5-6.4-2.3-10.5-2.3H17.3V689.3z"/>
		<path d="M77.6,695.7c-2.7,0-5.1-0.5-7.2-1.4c-2.1-0.9-3.7-2.2-4.8-3.9c-1.1-1.6-1.7-3.5-1.7-5.6c0-2,0.5-3.8,1.4-5.4
			c0.9-1.6,2.5-2.9,4.7-3.9c2.2-1,5.1-1.5,8.7-1.5h11.7v4.8H79.1c-3.3,0-5.6,0.6-6.8,1.7c-1.2,1.1-1.7,2.5-1.7,4
			c0,1.8,0.7,3.3,2.2,4.3c1.4,1.1,3.4,1.6,6,1.6c2.5,0,4.7-0.6,6.6-1.7c1.9-1.1,3.2-2.7,4.1-4.9l1.3,4.6c-0.9,2.2-2.4,3.9-4.7,5.2
			C83.8,695.1,81,695.7,77.6,695.7z M89.7,695.3v-7.8l-0.3-1.5v-13.3c0-2.8-0.8-5-2.5-6.6c-1.6-1.6-4.1-2.3-7.4-2.3
			c-2.2,0-4.3,0.4-6.4,1.1c-2.1,0.7-3.9,1.7-5.3,2.9l-2.8-5c1.9-1.5,4.2-2.7,6.9-3.5c2.7-0.8,5.5-1.2,8.4-1.2c5.1,0,9,1.2,11.7,3.7
			c2.7,2.5,4.1,6.2,4.1,11.3v22.3H89.7z"/>
		<path d="M103.2,663.9v-5.5h23.5v5.5H103.2z M121.1,695.7c-3.7,0-6.6-1-8.6-3c-2-2-3.1-4.8-3.1-8.6v-33.8h6.7v33.5
			c0,2,0.5,3.5,1.5,4.6c1,1.1,2.4,1.6,4.3,1.6c2.1,0,3.8-0.6,5.2-1.7l2.1,4.8c-1,0.9-2.2,1.5-3.7,1.9
			C124.1,695.5,122.6,695.7,121.1,695.7z"/>
		<path d="M148,695.7c-2.7,0-5.1-0.5-7.2-1.4c-2.1-0.9-3.7-2.2-4.8-3.9c-1.1-1.6-1.7-3.5-1.7-5.6c0-2,0.5-3.8,1.4-5.4
			c0.9-1.6,2.5-2.9,4.7-3.9c2.2-1,5.1-1.5,8.7-1.5h11.7v4.8h-11.4c-3.3,0-5.6,0.6-6.8,1.7c-1.2,1.1-1.7,2.5-1.7,4
			c0,1.8,0.7,3.3,2.2,4.3c1.4,1.1,3.4,1.6,6,1.6c2.5,0,4.7-0.6,6.6-1.7c1.9-1.1,3.2-2.7,4.1-4.9l1.3,4.6c-0.9,2.2-2.4,3.9-4.7,5.2
			C154.2,695.1,151.4,695.7,148,695.7z M160.1,695.3v-7.8l-0.3-1.5v-13.3c0-2.8-0.8-5-2.5-6.6c-1.6-1.6-4.1-2.3-7.4-2.3
			c-2.2,0-4.3,0.4-6.4,1.1c-2.1,0.7-3.9,1.7-5.3,2.9l-2.8-5c1.9-1.5,4.2-2.7,6.9-3.5c2.7-0.8,5.5-1.2,8.4-1.2c5.1,0,9,1.2,11.7,3.7
			c2.7,2.5,4.1,6.2,4.1,11.3v22.3H160.1z"/>
		<path d="M198.6,695.3v-48.7h5.7l21.9,36.8h-3.1l21.6-36.8h5.7l0.1,48.7h-6.7l-0.1-38.2h1.6L226,689.4h-3.2l-19.3-32.3h1.7v38.2
			H198.6z"/>
		<path d="M274.8,695.7c-2.7,0-5.1-0.5-7.2-1.4c-2.1-0.9-3.7-2.2-4.8-3.9c-1.1-1.6-1.7-3.5-1.7-5.6c0-2,0.5-3.8,1.4-5.4
			c0.9-1.6,2.5-2.9,4.7-3.9c2.2-1,5.1-1.5,8.7-1.5h11.7v4.8h-11.4c-3.3,0-5.6,0.6-6.8,1.7c-1.2,1.1-1.7,2.5-1.7,4
			c0,1.8,0.7,3.3,2.2,4.3c1.4,1.1,3.4,1.6,6,1.6c2.5,0,4.7-0.6,6.6-1.7c1.9-1.1,3.2-2.7,4.1-4.9l1.3,4.6c-0.9,2.2-2.4,3.9-4.7,5.2
			C281,695.1,278.2,695.7,274.8,695.7z M286.9,695.3v-7.8l-0.3-1.5v-13.3c0-2.8-0.8-5-2.5-6.6c-1.6-1.6-4.1-2.3-7.4-2.3
			c-2.2,0-4.3,0.4-6.4,1.1c-2.1,0.7-3.9,1.7-5.3,2.9l-2.8-5c1.9-1.5,4.2-2.7,6.9-3.5c2.7-0.8,5.5-1.2,8.4-1.2c5.1,0,9,1.2,11.7,3.7
			c2.7,2.5,4.1,6.2,4.1,11.3v22.3H286.9z"/>
		<path d="M325.3,658.1c3,0,5.7,0.6,8,1.7c2.3,1.2,4.1,2.9,5.4,5.3c1.3,2.4,1.9,5.4,1.9,9v21.2H334v-20.5c0-3.6-0.9-6.3-2.6-8.1
			c-1.7-1.8-4.2-2.7-7.3-2.7c-2.4,0-4.4,0.5-6.2,1.4c-1.8,0.9-3.1,2.3-4.1,4.1c-1,1.8-1.4,4.1-1.4,6.8v19h-6.7v-36.9h6.4v10l-1-2.6
			c1.2-2.4,3.1-4.3,5.6-5.6C319.1,658.8,322,658.1,325.3,658.1z"/>
		<path d="M363.8,695.7c-2.7,0-5.1-0.5-7.2-1.4c-2.1-0.9-3.7-2.2-4.8-3.9c-1.1-1.6-1.7-3.5-1.7-5.6c0-2,0.5-3.8,1.4-5.4
			c0.9-1.6,2.5-2.9,4.7-3.9c2.2-1,5.1-1.5,8.7-1.5h11.7v4.8h-11.4c-3.3,0-5.6,0.6-6.8,1.7c-1.2,1.1-1.7,2.5-1.7,4
			c0,1.8,0.7,3.3,2.2,4.3c1.4,1.1,3.4,1.6,6,1.6c2.5,0,4.7-0.6,6.6-1.7c1.9-1.1,3.2-2.7,4.1-4.9l1.3,4.6c-0.9,2.2-2.4,3.9-4.7,5.2
			C370,695.1,367.2,695.7,363.8,695.7z M375.9,695.3v-7.8l-0.3-1.5v-13.3c0-2.8-0.8-5-2.5-6.6c-1.6-1.6-4.1-2.3-7.4-2.3
			c-2.2,0-4.3,0.4-6.4,1.1c-2.1,0.7-3.9,1.7-5.3,2.9l-2.8-5c1.9-1.5,4.2-2.7,6.9-3.5c2.7-0.8,5.5-1.2,8.4-1.2c5.1,0,9,1.2,11.7,3.7
			c2.7,2.5,4.1,6.2,4.1,11.3v22.3H375.9z"/>
		<path d="M410,693.8c-3.6,0-6.8-0.8-9.6-2.3c-2.8-1.5-5-3.6-6.7-6.3c-1.6-2.7-2.5-5.8-2.5-9.3c0-3.6,0.8-6.7,2.5-9.4
			c1.6-2.7,3.9-4.7,6.7-6.2c2.8-1.5,6-2.2,9.6-2.2c3.2,0,6,0.6,8.6,1.9c2.6,1.3,4.7,3.2,6.2,5.9c1.6,2.6,2.3,6,2.3,10
			c0,4-0.8,7.3-2.3,10c-1.6,2.6-3.6,4.6-6.2,5.9C416,693.1,413.1,693.8,410,693.8z M410.8,709.2c-3.4,0-6.7-0.5-9.8-1.4
			c-3.2-1-5.8-2.3-7.8-4.1l3.2-5.1c1.7,1.5,3.8,2.7,6.3,3.5c2.5,0.9,5.1,1.3,7.9,1.3c4.4,0,7.6-1,9.6-3.1c2-2,3.1-5.1,3.1-9.3v-7.8
			l0.7-7.3l-0.3-7.4v-10.1h6.3v31.9c0,6.5-1.6,11.3-4.9,14.3C421.8,707.7,417.1,709.2,410.8,709.2z M410.7,687.9
			c2.5,0,4.6-0.5,6.5-1.5c1.9-1,3.4-2.4,4.5-4.2c1.1-1.8,1.6-3.9,1.6-6.3c0-2.4-0.5-4.5-1.6-6.3c-1.1-1.8-2.6-3.2-4.5-4.2
			c-1.9-1-4.1-1.5-6.5-1.5c-2.5,0-4.7,0.5-6.6,1.5c-1.9,1-3.4,2.4-4.5,4.2c-1.1,1.8-1.6,3.9-1.6,6.3c0,2.4,0.5,4.5,1.6,6.3
			c1.1,1.8,2.6,3.2,4.5,4.2C406.1,687.4,408.3,687.9,410.7,687.9z"/>
		<path d="M459.1,695.7c-3.9,0-7.4-0.8-10.4-2.4c-3-1.6-5.3-3.9-7-6.7c-1.6-2.8-2.5-6.1-2.5-9.7c0-3.7,0.8-6.9,2.4-9.7
			c1.6-2.8,3.8-5,6.6-6.6c2.8-1.6,6-2.4,9.5-2.4c3.6,0,6.7,0.8,9.5,2.4c2.7,1.6,4.9,3.8,6.4,6.6c1.6,2.9,2.3,6.2,2.3,10
			c0,0.3,0,0.6,0,1c0,0.4-0.1,0.7-0.1,1h-31.4v-4.8h27.9l-2.7,1.7c0-2.4-0.4-4.5-1.5-6.3c-1-1.9-2.4-3.3-4.2-4.3
			c-1.8-1-3.9-1.6-6.2-1.6c-2.3,0-4.4,0.5-6.2,1.6c-1.8,1-3.2,2.5-4.2,4.4c-1,1.9-1.5,4-1.5,6.4v1.1c0,2.5,0.6,4.7,1.7,6.6
			c1.1,1.9,2.7,3.4,4.8,4.5c2,1.1,4.4,1.6,7,1.6c2.2,0,4.2-0.4,5.9-1.1c1.8-0.7,3.4-1.9,4.7-3.3l3.7,4.3c-1.7,1.9-3.7,3.4-6.2,4.5
			C464.9,695.2,462.2,695.7,459.1,695.7z"/>
		<path d="M531.4,658.1c3,0,5.6,0.6,7.9,1.7c2.3,1.2,4,2.9,5.3,5.3c1.3,2.4,1.9,5.4,1.9,9v21.2h-6.7v-20.5c0-3.6-0.8-6.3-2.5-8.1
			c-1.7-1.8-4-2.7-7-2.7c-2.2,0-4.2,0.5-5.8,1.4c-1.7,0.9-3,2.3-3.9,4.1c-0.9,1.8-1.4,4.1-1.4,6.8v19h-6.7v-20.5
			c0-3.6-0.8-6.3-2.5-8.1c-1.6-1.8-4-2.7-7.1-2.7c-2.2,0-4.1,0.5-5.8,1.4c-1.7,0.9-3,2.3-3.9,4.1c-0.9,1.8-1.4,4.1-1.4,6.8v19h-6.7
			v-36.9h6.4v9.8l-1-2.5c1.2-2.4,2.9-4.3,5.4-5.6c2.4-1.3,5.2-2,8.4-2c3.5,0,6.6,0.9,9.1,2.6c2.6,1.7,4.2,4.4,5,7.9l-2.7-1.1
			c1.1-2.8,3.1-5.1,5.8-6.8S527.7,658.1,531.4,658.1z"/>
		<path d="M575.2,695.7c-3.9,0-7.4-0.8-10.4-2.4c-3-1.6-5.3-3.9-7-6.7c-1.6-2.8-2.5-6.1-2.5-9.7c0-3.7,0.8-6.9,2.4-9.7
			c1.6-2.8,3.8-5,6.6-6.6c2.8-1.6,6-2.4,9.5-2.4c3.6,0,6.7,0.8,9.5,2.4c2.7,1.6,4.9,3.8,6.4,6.6c1.6,2.9,2.3,6.2,2.3,10
			c0,0.3,0,0.6,0,1c0,0.4-0.1,0.7-0.1,1h-31.4v-4.8h27.9l-2.7,1.7c0-2.4-0.4-4.5-1.5-6.3c-1-1.9-2.4-3.3-4.2-4.3
			c-1.8-1-3.9-1.6-6.2-1.6c-2.3,0-4.4,0.5-6.2,1.6s-3.2,2.5-4.2,4.4c-1,1.9-1.5,4-1.5,6.4v1.1c0,2.5,0.6,4.7,1.7,6.6
			c1.1,1.9,2.7,3.4,4.8,4.5c2,1.1,4.4,1.6,7,1.6c2.2,0,4.2-0.4,5.9-1.1c1.8-0.7,3.4-1.9,4.7-3.3l3.7,4.3c-1.7,1.9-3.7,3.4-6.2,4.5
			C581.1,695.2,578.3,695.7,575.2,695.7z"/>
		<path d="M621.1,658.1c3,0,5.7,0.6,8,1.7c2.3,1.2,4.1,2.9,5.4,5.3c1.3,2.4,1.9,5.4,1.9,9v21.2h-6.7v-20.5c0-3.6-0.9-6.3-2.6-8.1
			c-1.7-1.8-4.2-2.7-7.3-2.7c-2.4,0-4.4,0.5-6.2,1.4c-1.8,0.9-3.1,2.3-4.1,4.1c-1,1.8-1.4,4.1-1.4,6.8v19h-6.7v-36.9h6.4v10l-1-2.6
			c1.2-2.4,3.1-4.3,5.6-5.6C614.8,658.8,617.8,658.1,621.1,658.1z"/>
		<path d="M643.5,663.9v-5.5H667v5.5H643.5z M661.5,695.7c-3.7,0-6.6-1-8.6-3c-2-2-3.1-4.8-3.1-8.6v-33.8h6.7v33.5
			c0,2,0.5,3.5,1.5,4.6c1,1.1,2.4,1.6,4.3,1.6c2.1,0,3.8-0.6,5.2-1.7l2.1,4.8c-1,0.9-2.2,1.5-3.7,1.9
			C664.5,695.5,663,695.7,661.5,695.7z"/>
		<path d="M742.5,658.1c3,0,5.6,0.6,7.9,1.7c2.3,1.2,4,2.9,5.3,5.3c1.3,2.4,1.9,5.4,1.9,9v21.2h-6.7v-20.5c0-3.6-0.8-6.3-2.5-8.1
			c-1.7-1.8-4-2.7-7-2.7c-2.2,0-4.2,0.5-5.8,1.4c-1.7,0.9-3,2.3-3.9,4.1c-0.9,1.8-1.4,4.1-1.4,6.8v19h-6.7v-20.5
			c0-3.6-0.8-6.3-2.5-8.1c-1.6-1.8-4-2.7-7.1-2.7c-2.2,0-4.1,0.5-5.8,1.4c-1.7,0.9-3,2.3-3.9,4.1c-0.9,1.8-1.4,4.1-1.4,6.8v19h-6.7
			v-36.9h6.4v9.8l-1-2.5c1.2-2.4,2.9-4.3,5.4-5.6c2.4-1.3,5.2-2,8.4-2c3.5,0,6.6,0.9,9.1,2.6c2.6,1.7,4.2,4.4,5,7.9l-2.7-1.1
			c1.1-2.8,3.1-5.1,5.8-6.8S738.7,658.1,742.5,658.1z"/>
		<path d="M780.7,695.7c-2.7,0-5.1-0.5-7.2-1.4c-2.1-0.9-3.7-2.2-4.8-3.9c-1.1-1.6-1.7-3.5-1.7-5.6c0-2,0.5-3.8,1.4-5.4
			c1-1.6,2.5-2.9,4.7-3.9c2.2-1,5.1-1.5,8.7-1.5h11.7v4.8h-11.4c-3.3,0-5.6,0.6-6.8,1.7c-1.2,1.1-1.7,2.5-1.7,4
			c0,1.8,0.7,3.3,2.2,4.3c1.4,1.1,3.4,1.6,6,1.6c2.5,0,4.7-0.6,6.6-1.7c1.9-1.1,3.2-2.7,4.1-4.9l1.3,4.6c-0.9,2.2-2.4,3.9-4.7,5.2
			C786.8,695.1,784,695.7,780.7,695.7z M792.8,695.3v-7.8l-0.3-1.5v-13.3c0-2.8-0.8-5-2.5-6.6c-1.6-1.6-4.1-2.3-7.4-2.3
			c-2.2,0-4.3,0.4-6.4,1.1c-2.1,0.7-3.9,1.7-5.3,2.9l-2.8-5c1.9-1.5,4.2-2.7,6.9-3.5c2.7-0.8,5.5-1.2,8.4-1.2c5.1,0,9,1.2,11.7,3.7
			c2.7,2.5,4.1,6.2,4.1,11.3v22.3H792.8z"/>
		<path d="M826.7,695.7c-3.6,0-6.8-0.8-9.6-2.4c-2.8-1.6-5-3.8-6.6-6.6c-1.6-2.8-2.4-6.1-2.4-9.9s0.8-7,2.4-9.8
			c1.6-2.8,3.8-5,6.6-6.6c2.8-1.6,6-2.4,9.6-2.4c3.1,0,5.9,0.7,8.4,2.1c2.5,1.4,4.5,3.5,6,6.3c1.5,2.8,2.3,6.3,2.3,10.4
			c0,4.2-0.7,7.7-2.2,10.4c-1.5,2.8-3.4,4.9-5.9,6.3C832.8,695,829.9,695.7,826.7,695.7z M827.3,689.9c2.3,0,4.4-0.5,6.3-1.6
			c1.9-1.1,3.4-2.6,4.5-4.6c1.1-2,1.6-4.3,1.6-6.9c0-2.6-0.5-4.9-1.6-6.9c-1.1-1.9-2.6-3.4-4.5-4.5c-1.9-1.1-4-1.6-6.3-1.6
			c-2.4,0-4.5,0.5-6.3,1.6c-1.9,1.1-3.3,2.6-4.5,4.5c-1.1,1.9-1.7,4.2-1.7,6.9c0,2.6,0.6,4.9,1.7,6.9c1.1,2,2.6,3.5,4.5,4.6
			C822.8,689.4,824.9,689.9,827.3,689.9z M839.9,695.3v-10l0.4-8.6l-0.7-8.6v-24.6h6.7v51.6H839.9z"/>
		<path d="M875.4,695.7c-3.9,0-7.4-0.8-10.4-2.4c-3-1.6-5.3-3.9-7-6.7c-1.6-2.8-2.5-6.1-2.5-9.7c0-3.7,0.8-6.9,2.4-9.7
			c1.6-2.8,3.8-5,6.6-6.6c2.8-1.6,6-2.4,9.5-2.4c3.6,0,6.7,0.8,9.5,2.4c2.7,1.6,4.9,3.8,6.4,6.6c1.6,2.9,2.3,6.2,2.3,10
			c0,0.3,0,0.6,0,1c0,0.4-0.1,0.7-0.1,1h-31.4v-4.8h27.9l-2.7,1.7c0-2.4-0.4-4.5-1.5-6.3c-1-1.9-2.4-3.3-4.2-4.3s-3.9-1.6-6.2-1.6
			c-2.3,0-4.4,0.5-6.2,1.6s-3.2,2.5-4.2,4.4c-1,1.9-1.5,4-1.5,6.4v1.1c0,2.5,0.6,4.7,1.7,6.6c1.1,1.9,2.7,3.4,4.8,4.5
			c2,1.1,4.4,1.6,7,1.6c2.2,0,4.2-0.4,5.9-1.1c1.8-0.7,3.4-1.9,4.7-3.3l3.7,4.3c-1.7,1.9-3.7,3.4-6.2,4.5
			C881.2,695.2,878.4,695.7,875.4,695.7z"/>
		<path d="M936.7,695.7c-3.9,0-7.4-0.8-10.4-2.4c-3-1.6-5.3-3.9-7-6.7c-1.6-2.8-2.5-6.1-2.5-9.7c0-3.7,0.8-6.9,2.4-9.7
			c1.6-2.8,3.8-5,6.6-6.6c2.8-1.6,6-2.4,9.5-2.4c3.6,0,6.7,0.8,9.5,2.4c2.7,1.6,4.9,3.8,6.4,6.6c1.6,2.9,2.3,6.2,2.3,10
			c0,0.3,0,0.6,0,1c0,0.4-0.1,0.7-0.1,1h-31.4v-4.8H950l-2.7,1.7c0-2.4-0.4-4.5-1.5-6.3c-1-1.9-2.4-3.3-4.2-4.3s-3.9-1.6-6.2-1.6
			c-2.3,0-4.4,0.5-6.2,1.6s-3.2,2.5-4.2,4.4c-1,1.9-1.5,4-1.5,6.4v1.1c0,2.5,0.6,4.7,1.7,6.6c1.1,1.9,2.7,3.4,4.8,4.5
			c2,1.1,4.4,1.6,7,1.6c2.2,0,4.2-0.4,5.9-1.1c1.8-0.7,3.4-1.9,4.7-3.3l3.7,4.3c-1.7,1.9-3.7,3.4-6.2,4.5
			C942.5,695.2,939.7,695.7,936.7,695.7z"/>
		<path d="M972.6,695.7c-2.7,0-5.1-0.5-7.2-1.4c-2.1-0.9-3.7-2.2-4.8-3.9c-1.1-1.6-1.7-3.5-1.7-5.6c0-2,0.5-3.8,1.4-5.4
			c1-1.6,2.5-2.9,4.7-3.9c2.2-1,5.1-1.5,8.7-1.5h11.7v4.8H974c-3.3,0-5.6,0.6-6.8,1.7c-1.2,1.1-1.7,2.5-1.7,4c0,1.8,0.7,3.3,2.2,4.3
			c1.4,1.1,3.4,1.6,6,1.6c2.5,0,4.7-0.6,6.6-1.7c1.9-1.1,3.2-2.7,4.1-4.9l1.3,4.6c-0.9,2.2-2.4,3.9-4.7,5.2
			C978.8,695.1,976,695.7,972.6,695.7z M984.7,695.3v-7.8l-0.3-1.5v-13.3c0-2.8-0.8-5-2.5-6.6c-1.6-1.6-4.1-2.3-7.4-2.3
			c-2.2,0-4.3,0.4-6.4,1.1c-2.1,0.7-3.9,1.7-5.3,2.9l-2.8-5c1.9-1.5,4.2-2.7,6.9-3.5c2.7-0.8,5.5-1.2,8.4-1.2c5.1,0,9,1.2,11.7,3.7
			c2.7,2.5,4.1,6.2,4.1,11.3v22.3H984.7z"/>
		<path d="M1014,695.7c-3.1,0-6-0.4-8.7-1.3c-2.8-0.8-4.9-1.9-6.5-3.1l2.8-5.3c1.6,1.1,3.5,2,5.8,2.7c2.3,0.7,4.7,1.1,7.1,1.1
			c3.1,0,5.3-0.4,6.7-1.3c1.4-0.9,2.1-2.1,2.1-3.7c0-1.2-0.4-2.1-1.3-2.7c-0.8-0.6-1.9-1.1-3.3-1.5c-1.4-0.3-2.9-0.6-4.6-0.9
			c-1.7-0.3-3.3-0.6-5-1c-1.7-0.4-3.2-1-4.6-1.7c-1.4-0.7-2.5-1.7-3.3-3c-0.8-1.3-1.3-3-1.3-5.1c0-2.2,0.6-4.2,1.9-5.8
			c1.3-1.7,3-3,5.3-3.9c2.3-0.9,5-1.4,8.2-1.4c2.4,0,4.9,0.3,7.3,0.9c2.5,0.6,4.5,1.4,6.1,2.5l-2.9,5.3c-1.7-1.1-3.4-1.9-5.2-2.3
			c-1.8-0.4-3.6-0.6-5.4-0.6c-2.9,0-5.1,0.5-6.5,1.4c-1.4,1-2.2,2.2-2.2,3.7c0,1.3,0.4,2.2,1.3,2.9c0.9,0.7,2,1.2,3.3,1.6
			c1.4,0.4,2.9,0.7,4.6,0.9c1.7,0.3,3.3,0.6,5,1c1.7,0.4,3.2,0.9,4.6,1.6c1.4,0.7,2.5,1.7,3.3,2.9c0.9,1.3,1.3,2.9,1.3,5
			c0,2.2-0.6,4.2-1.9,5.8c-1.3,1.6-3.1,2.9-5.5,3.8C1020.1,695.3,1017.3,695.7,1014,695.7z"/>
		<path d="M1039.2,709.2c-1.8,0-3.5-0.3-5.1-0.9c-1.7-0.6-3.1-1.4-4.3-2.5l2.9-5c0.9,0.9,1.9,1.6,3.1,2c1.1,0.5,2.3,0.7,3.5,0.7
			c1.6,0,3-0.4,4-1.3c1.1-0.8,2.1-2.3,3-4.5l2.3-5.1l0.7-0.8l14.5-33.5h6.5l-17.9,40.6c-1.1,2.6-2.3,4.6-3.6,6.1
			c-1.3,1.5-2.8,2.5-4.3,3.2C1042.8,708.9,1041.1,709.2,1039.2,709.2z M1047.9,696.5l-16.8-38.1h7l14.3,32.8L1047.9,696.5z"/>
	</g>
	<g>
		<path class="st1" d="M1070.2,621H9.8c-1.3,0-2.4-1.1-2.4-2.4c0-1.3,1.1-2.4,2.4-2.4h1060.4c1.3,0,2.4,1.1,2.4,2.4
			C1072.6,620,1071.5,621,1070.2,621z"/>
	</g>
</g>
</svg>
