<svg width="1066" height="340" viewBox="0 0 1066 340" fill="none" xmlns="http://www.w3.org/2000/svg">
<path d="M431.701 215.1V75.5H495.101C510.301 75.5 523.601 78.4 535.201 84.2C546.801 90 555.801 98.1 562.301 108.4C568.801 118.8 572.101 131.1 572.101 145.3C572.101 159.4 568.801 171.7 562.301 182.1C555.801 192.5 546.701 200.7 535.201 206.4C523.601 212.2 510.301 215.1 495.101 215.1H431.701ZM464.101 188.6H493.601C502.901 188.6 511.001 186.8 517.801 183.3C524.601 179.8 530.001 174.8 533.801 168.2C537.601 161.7 539.501 154 539.501 145.3C539.501 136.4 537.601 128.7 533.801 122.3C530.001 115.9 524.701 110.9 517.801 107.3C510.901 103.8 502.901 102 493.601 102H464.101V188.6Z" fill="#221F1F"/>
<path d="M664.301 217.5C653.301 217.5 643.101 215.7 633.701 212.1C624.301 208.5 616.201 203.5 609.401 196.9C602.501 190.4 597.201 182.7 593.401 174C589.601 165.2 587.701 155.6 587.701 145.3C587.701 134.9 589.601 125.4 593.401 116.6C597.201 107.8 602.501 100.2 609.501 93.6996C616.401 87.1996 624.501 82.0996 633.801 78.4996C643.101 74.8996 653.201 73.0996 664.101 73.0996C675.101 73.0996 685.301 74.8996 694.501 78.4996C703.701 82.0996 711.801 87.0996 718.601 93.6996C725.401 100.2 730.801 107.8 734.701 116.5C738.601 125.2 740.501 134.8 740.501 145.3C740.501 155.7 738.601 165.3 734.701 174.1C730.801 182.9 725.501 190.6 718.601 197C711.701 203.5 703.701 208.5 694.501 212.1C685.301 215.7 675.201 217.5 664.301 217.5ZM664.101 190C670.301 190 676.101 188.9 681.401 186.8C686.701 184.7 691.301 181.6 695.301 177.6C699.301 173.6 702.401 168.9 704.601 163.4C706.801 157.9 707.901 151.9 707.901 145.2C707.901 138.6 706.801 132.5 704.601 127C702.401 121.5 699.301 116.8 695.401 112.8C691.501 108.8 686.901 105.8 681.501 103.6C676.201 101.5 670.401 100.4 664.101 100.4C657.801 100.4 652.101 101.5 646.801 103.6C641.501 105.7 636.901 108.8 632.901 112.8C628.901 116.8 625.801 121.5 623.601 127C621.401 132.5 620.301 138.5 620.301 145.2C620.301 151.7 621.401 157.7 623.601 163.3C625.801 168.8 628.901 173.6 632.801 177.6C636.701 181.6 641.301 184.6 646.701 186.8C652.101 188.9 657.901 190 664.101 190Z" fill="#221F1F"/>
<path d="M922.2 215.1L921.8 75.5H895.3L844.5 161.1L801.5 75.5H764.9V215.1H795.2V133.1L836.1 200.4H850.6L891.7 131.3L891.9 215.1H922.2Z" fill="#221F1F"/>
<path d="M987.501 189.2V156.9H1052.3V131.7H987.501V101.4H1060.9V75.5H955.301V215.1H1063.5V189.2H987.501Z" fill="#221F1F"/>
<path d="M360.501 158.8L360.601 158.9L357.701 142.3L348.701 103.9L347.701 100.5L308.901 51.2996L306.101 47.9996L249.401 11.3996L244.701 9.79959L187.601 0.599609L184.501 0.999603L141.701 11.9996L127.901 16.3996L74.9008 36.4996L72.9008 37.8996L33.1008 85.9996L27.7008 94.4996L27.8008 94.3996L4.40078 149.7H4.30078L3.90078 152.6L3.60078 215.2L3.30078 216.4L155.701 215.1L364.201 216.2L360.501 158.8ZM355.301 143.2L330.301 94.1996L345.701 102.5L355.301 143.2ZM356.801 152.3H328.201L328.501 96.2996L356.801 152.3ZM342.101 97.5996L328.601 90.0996V89.7996H328.101L326.201 85.9996V86.0996L319.601 73.2996L312.901 60.4996L342.101 97.5996ZM275.101 151.8L285.701 96.6996L324.601 152.2L303.501 152L275.301 151.8H275.101ZM126.701 149.4L99.7008 149.9L66.3008 150.6L102.101 93.5996L122.901 140L127.101 149.4H126.701ZM53.5008 104L99.6008 92.8996L90.7008 107.2L64.6008 148.8L53.5008 104ZM62.5008 150.7L23.3008 149.4L29.6008 139.8L51.5008 106.2L62.5008 150.7ZM286.001 92.1996L276.801 45.9996L324.301 90.0996L314.901 90.5996L286.501 92.2996V92.0996L286.001 92.1996ZM283.201 90.8996L225.301 52.5996L273.701 43.6996L283.201 90.8996ZM229.701 80.8996L223.901 54.6996L281.601 92.8996L261.301 96.0996L233.901 100.4L229.701 80.8996ZM231.401 100.3L208.001 96.4996L175.601 91.2996L212.201 61.5996L221.301 54.1996L231.401 100.3ZM223.101 50.4996L222.901 49.6996L222.501 49.9996L203.801 15.3996L270.301 41.6996L223.101 50.4996ZM219.801 50.3996L153.901 41.0996L200.501 14.8996L219.801 50.3996ZM219.101 52.7996L173.201 90.0996L159.701 60.0996L152.201 43.3996L219.101 52.7996ZM157.801 61.9996L170.601 90.4996H170.401L170.601 90.7996L146.401 90.3996L105.101 89.7996L128.701 65.4996L149.701 43.8996L157.801 61.9996ZM102.701 88.7996L102.501 88.2996L102.401 88.3996L84.5008 52.5996L146.701 43.4996L102.701 88.7996ZM100.501 90.0996L54.6008 101.1L78.2008 61.3996L82.5008 54.1996L100.501 90.0996ZM113.901 113.9L104.201 92.1996L118.601 92.3996L170.201 93.1996L129.201 148.1L113.901 113.9ZM172.501 94.3996L184.201 116.9L201.901 151L172.801 150.5L131.701 149.4L172.501 94.3996ZM174.901 93.6996L207.401 98.9996L231.001 102.8L219.601 122.5L204.001 149.7L174.901 93.6996ZM233.201 104L258.001 135.4L271.001 151.8L206.101 151.1L233.201 104ZM235.401 102.7L279.201 95.7996L283.501 95.0996L272.601 149.3L235.401 102.7ZM287.301 94.6996L317.501 92.8996L326.001 92.3996L325.601 149.3L287.301 94.6996ZM322.801 85.2996L279.401 44.6996L304.701 50.4996L322.801 85.2996ZM299.001 46.5996L275.901 41.1996L275.801 40.7996L275.301 40.8996L255.701 18.7996L255.301 18.3996L299.001 46.5996ZM247.401 13.1996L254.301 20.9996L270.301 39.1996L207.201 14.1996L247.401 13.1996ZM234.801 10.8996L206.101 11.6996L201.801 11.7996L201.601 11.3996L201.201 11.5996L191.801 3.9996L234.801 10.8996ZM186.601 3.19962L197.601 11.8996L195.001 11.9996H195.101L146.401 13.4996L186.601 3.19962ZM196.101 14.4996L150.701 39.9996L150.501 39.5996L150.401 39.6996L140.901 22.8996L137.201 16.3996L196.101 14.4996ZM134.801 16.9996L138.001 22.6996L148.201 40.7996L125.801 44.0996L87.7008 49.6996L112.901 32.1996L134.801 16.9996ZM126.101 19.9996L86.6008 47.3996L86.9008 46.8996L83.0008 49.7996L82.7008 49.0996L82.6008 49.2996L78.2008 42.2996L76.1008 38.9996L126.101 19.9996ZM74.1008 40.3996L80.9008 51.2996L77.5008 53.5996L77.9008 53.4996L46.2008 77.2996L38.7008 82.8996L74.1008 40.3996ZM78.3008 56.3996L51.8008 101L51.6008 101.3L40.0008 94.1996L33.4008 90.1996L78.3008 56.3996ZM40.0008 97.1996L50.2008 103.4L42.0008 116.1L23.3008 144.8L32.1008 92.2996L40.0008 97.1996ZM28.2008 99.9996L20.0008 149.3H19.4008V149.4L7.10078 149.6L28.2008 99.9996ZM6.50078 152.1L19.4008 151.8L19.1008 153.1L6.20078 204.9L6.50078 152.1ZM6.50078 214L21.1008 155.5L28.8008 184L37.0008 214H6.50078ZM28.8008 174.3L22.7008 151.9L61.9008 153.2L61.8008 153.3H62.2008L46.9008 191.2L38.8008 211.3L28.8008 174.3ZM40.5008 214L54.4008 179.5L64.2008 155.1L92.4008 213.6L40.5008 214ZM66.0008 153.2L126.701 152L126.401 152.4H126.701L94.4008 212L66.0008 153.2ZM96.6008 213.3L129.001 153.5L162.801 212.8L96.6008 213.3ZM164.501 210.7L131.201 152.3L172.601 152.9L200.801 153.6L165.001 211.6L164.501 210.7ZM167.201 212.8L182.201 188.7L203.101 155L236.901 214.1L167.201 212.8ZM232.701 201.9L205.201 153.8L271.001 154.2L265.101 165.1L239.001 212.8L232.701 201.9ZM241.101 214.1L269.701 161.9L273.101 155.7L286.001 181.9L301.501 213.5L241.101 214.1ZM275.101 154.3H275.301H276.201L325.201 154.7L303.301 211.6L275.101 154.3ZM305.301 213.5L326.901 157.2L340.101 197L345.601 213.7L305.301 213.5ZM328.701 154.8H329.401H357.301L347.001 209.8L328.701 154.8ZM358.301 163.2L361.701 213.8L348.801 214.1L358.301 163.2Z" fill="#F05C2E"/>
<path d="M172.801 83.7998C168.401 83.7998 164.701 87.3998 164.701 91.8998C164.701 96.2998 168.301 99.9998 172.801 99.9998C177.201 99.9998 180.901 96.3998 180.901 91.8998C180.901 87.3998 177.301 83.7998 172.801 83.7998Z" fill="#F05C2E"/>
<path d="M102.5 82.5996C98.1004 82.5996 94.4004 86.1996 94.4004 90.6996C94.4004 95.0996 98.0004 98.7996 102.5 98.7996C106.9 98.7996 110.6 95.1996 110.6 90.6996C110.6 86.1996 107 82.5996 102.5 82.5996Z" fill="#F05C2E"/>
<path d="M129 141.899C124.6 141.899 120.9 145.499 120.9 149.999C120.9 154.399 124.5 158.099 129 158.099C133.4 158.099 137.1 154.499 137.1 149.999C137 145.499 133.4 141.899 129 141.899Z" fill="#F05C2E"/>
<path d="M204 143.199C199.6 143.199 195.9 146.799 195.9 151.299C195.9 155.699 199.5 159.399 204 159.399C208.4 159.399 212.1 155.799 212.1 151.299C212 146.899 208.4 143.199 204 143.199Z" fill="#F05C2E"/>
<path d="M273.301 144C268.901 144 265.201 147.6 265.201 152.1C265.201 156.5 268.801 160.2 273.301 160.2C277.701 160.2 281.401 156.6 281.401 152.1C281.301 147.6 277.701 144 273.301 144Z" fill="#F05C2E"/>
<path d="M326.801 144.199C322.401 144.199 318.701 147.799 318.701 152.299C318.701 156.699 322.301 160.399 326.801 160.399C331.201 160.399 334.901 156.799 334.901 152.299C334.901 147.799 331.301 144.199 326.801 144.199Z" fill="#F05C2E"/>
<path d="M284.7 85.5C280.3 85.5 276.6 89.1 276.6 93.6C276.6 98 280.2 101.7 284.7 101.7C289.1 101.7 292.8 98.1 292.8 93.6C292.7 89.1 289.1 85.5 284.7 85.5Z" fill="#F05C2E"/>
<path d="M326.6 83.5C322.2 83.5 318.5 87.1 318.5 91.6C318.5 96 322.1 99.7 326.6 99.7C331 99.7 334.7 96.1 334.7 91.6C334.7 87.1 331.1 83.5 326.6 83.5Z" fill="#F05C2E"/>
<path d="M222.2 44.3994C217.8 44.3994 214.1 47.9994 214.1 52.4994C214.1 56.8994 217.7 60.5994 222.2 60.5994C226.6 60.5994 230.3 56.9994 230.3 52.4994C230.3 47.9994 226.7 44.3994 222.2 44.3994Z" fill="#F05C2E"/>
<path d="M149.901 33.6992C145.501 33.6992 141.801 37.2992 141.801 41.7992C141.801 46.1992 145.401 49.8992 149.901 49.8992C154.301 49.8992 158.001 46.2992 158.001 41.7992C157.901 37.2992 154.301 33.6992 149.901 33.6992Z" fill="#F05C2E"/>
<path d="M82.8012 43.8994C78.4012 43.8994 74.7012 47.4994 74.7012 51.9994C74.7012 56.3994 78.3012 60.0994 82.8012 60.0994C87.2012 60.0994 90.9012 56.4994 90.9012 51.9994C90.9012 47.4994 87.2012 43.8994 82.8012 43.8994Z" fill="#F05C2E"/>
<path d="M52.1 94.3994C47.7 94.3994 44 97.9994 44 102.499C44 106.899 47.6 110.599 52.1 110.599C56.5 110.599 60.2 106.999 60.2 102.499C60.2 97.9994 56.6 94.3994 52.1 94.3994Z" fill="#F05C2E"/>
<path d="M22.0004 142.199C17.6004 142.199 13.9004 145.799 13.9004 150.299C13.9004 154.699 17.5004 158.399 22.0004 158.399C26.4004 158.399 30.1004 154.799 30.1004 150.299C30.1004 145.799 26.4004 142.199 22.0004 142.199Z" fill="#F05C2E"/>
<path d="M274.6 34.2998C270.2 34.2998 266.5 37.8998 266.5 42.3998C266.5 46.7998 270.1 50.4998 274.6 50.4998C279 50.4998 282.7 46.8998 282.7 42.3998C282.7 37.8998 279.1 34.2998 274.6 34.2998Z" fill="#F05C2E"/>
<path d="M201.1 6C196.7 6 193 9.60001 193 14.1C193 18.5 196.6 22.2 201.1 22.2C205.5 22.2 209.2 18.6 209.2 14.1C209.1 9.70001 205.5 6 201.1 6Z" fill="#F05C2E"/>
<path d="M64.1996 143.3C59.7996 143.3 56.0996 146.9 56.0996 151.4C56.0996 155.8 59.6996 159.5 64.1996 159.5C68.5996 159.5 72.2996 155.9 72.2996 151.4C72.2996 146.9 68.5996 143.3 64.1996 143.3Z" fill="#F05C2E"/>
<path d="M233 93.5C228.6 93.5 224.9 97.1 224.9 101.6C224.9 106 228.5 109.7 233 109.7C237.4 109.7 241.1 106.1 241.1 101.6C241.1 97.1 237.5 93.5 233 93.5Z" fill="#F05C2E"/>
<path d="M3.30078 325.3V276.6H23.8008C29.0008 276.6 33.6008 277.6 37.5008 279.7C41.5008 281.7 44.6008 284.6 46.8008 288.3C49.0008 292 50.1008 296.2 50.1008 301C50.1008 305.8 49.0008 310.1 46.8008 313.7C44.6008 317.4 41.5008 320.2 37.5008 322.3C33.5008 324.3 29.0008 325.4 23.8008 325.4H3.30078V325.3ZM10.3008 319.3H23.5008C27.5008 319.3 31.0008 318.5 34.0008 317C36.9008 315.5 39.2008 313.3 40.9008 310.6C42.5008 307.8 43.3008 304.7 43.3008 301C43.3008 297.3 42.5008 294.1 40.9008 291.4C39.3008 288.7 37.0008 286.5 34.0008 285C31.1008 283.5 27.6008 282.7 23.5008 282.7H10.3008V319.3Z" fill="black"/>
<path d="M70.6004 325.7C67.9004 325.7 65.5004 325.2 63.4004 324.3C61.3004 323.4 59.7004 322.1 58.6004 320.4C57.5004 318.8 56.9004 316.9 56.9004 314.8C56.9004 312.8 57.4004 311 58.3004 309.4C59.2004 307.8 60.8004 306.5 63.0004 305.5C65.2004 304.5 68.1004 304 71.7004 304H83.4004V308.8H72.1004C68.8004 308.8 66.5004 309.4 65.3004 310.5C64.1004 311.6 63.6004 313 63.6004 314.5C63.6004 316.3 64.3004 317.8 65.8004 318.8C67.2004 319.9 69.2004 320.4 71.8004 320.4C74.3004 320.4 76.5004 319.8 78.4004 318.7C80.3004 317.6 81.6004 316 82.5004 313.8L83.8004 318.4C82.9004 320.6 81.4004 322.3 79.1004 323.6C76.8004 325.1 74.0004 325.7 70.6004 325.7ZM82.7004 325.3V317.5L82.4004 316V302.7C82.4004 299.9 81.6004 297.7 79.9004 296.1C78.3004 294.5 75.8004 293.8 72.5004 293.8C70.3004 293.8 68.2004 294.2 66.1004 294.9C64.0004 295.6 62.2004 296.6 60.8004 297.8L58.0004 292.8C59.9004 291.3 62.2004 290.1 64.9004 289.3C67.6004 288.5 70.4004 288.1 73.3004 288.1C78.4004 288.1 82.3004 289.3 85.0004 291.8C87.7004 294.3 89.1004 298 89.1004 303.1V325.4H82.7004V325.3Z" fill="black"/>
<path d="M96.2012 293.9V288.4H119.701V293.9H96.2012ZM114.101 325.7C110.401 325.7 107.501 324.7 105.501 322.7C103.501 320.7 102.401 317.9 102.401 314.1V280.3H109.101V313.8C109.101 315.8 109.601 317.3 110.601 318.4C111.601 319.5 113.001 320 114.901 320C117.001 320 118.701 319.4 120.101 318.3L122.201 323.1C121.201 324 120.001 324.6 118.501 325C117.101 325.5 115.601 325.7 114.101 325.7Z" fill="black"/>
<path d="M141.001 325.7C138.301 325.7 135.901 325.2 133.801 324.3C131.701 323.4 130.101 322.1 129.001 320.4C127.901 318.8 127.301 316.9 127.301 314.8C127.301 312.8 127.801 311 128.701 309.4C129.601 307.8 131.201 306.5 133.401 305.5C135.601 304.5 138.501 304 142.101 304H153.801V308.8H142.401C139.101 308.8 136.801 309.4 135.601 310.5C134.401 311.6 133.901 313 133.901 314.5C133.901 316.3 134.601 317.8 136.101 318.8C137.501 319.9 139.501 320.4 142.101 320.4C144.601 320.4 146.801 319.8 148.701 318.7C150.601 317.6 151.901 316 152.801 313.8L154.101 318.4C153.201 320.6 151.701 322.3 149.401 323.6C147.201 325.1 144.401 325.7 141.001 325.7ZM153.101 325.3V317.5L152.801 316V302.7C152.801 299.9 152.001 297.7 150.301 296.1C148.701 294.5 146.201 293.8 142.901 293.8C140.701 293.8 138.601 294.2 136.501 294.9C134.401 295.6 132.601 296.6 131.201 297.8L128.401 292.8C130.301 291.3 132.601 290.1 135.301 289.3C138.001 288.5 140.801 288.1 143.701 288.1C148.801 288.1 152.701 289.3 155.401 291.8C158.101 294.3 159.501 298 159.501 303.1V325.4H153.101V325.3Z" fill="black"/>
<path d="M191.602 325.3V276.6H197.302L219.202 313.4H216.102L237.702 276.6H243.402L243.502 325.3H236.802L236.702 287.1H238.302L219.002 319.4H215.802L196.502 287.1H198.202V325.3H191.602Z" fill="black"/>
<path d="M267.802 325.7C265.102 325.7 262.702 325.2 260.602 324.3C258.502 323.4 256.902 322.1 255.802 320.4C254.702 318.8 254.102 316.9 254.102 314.8C254.102 312.8 254.602 311 255.502 309.4C256.402 307.8 258.002 306.5 260.202 305.5C262.402 304.5 265.302 304 268.902 304H280.602V308.8H269.202C265.902 308.8 263.602 309.4 262.402 310.5C261.202 311.6 260.702 313 260.702 314.5C260.702 316.3 261.402 317.8 262.902 318.8C264.302 319.9 266.302 320.4 268.902 320.4C271.402 320.4 273.602 319.8 275.502 318.7C277.402 317.6 278.702 316 279.602 313.8L280.902 318.4C280.002 320.6 278.502 322.3 276.202 323.6C274.002 325.1 271.202 325.7 267.802 325.7ZM279.902 325.3V317.5L279.602 316V302.7C279.602 299.9 278.802 297.7 277.102 296.1C275.502 294.5 273.002 293.8 269.702 293.8C267.502 293.8 265.402 294.2 263.302 294.9C261.202 295.6 259.402 296.6 258.002 297.8L255.202 292.8C257.102 291.3 259.402 290.1 262.102 289.3C264.802 288.5 267.602 288.1 270.502 288.1C275.602 288.1 279.502 289.3 282.202 291.8C284.902 294.3 286.302 298 286.302 303.1V325.4H279.902V325.3Z" fill="black"/>
<path d="M318.301 288.1C321.301 288.1 324.001 288.7 326.301 289.8C328.601 291 330.401 292.7 331.701 295.1C333.001 297.5 333.601 300.5 333.601 304.1V325.3H327.001V304.8C327.001 301.2 326.101 298.5 324.401 296.7C322.701 294.9 320.201 294 317.101 294C314.701 294 312.701 294.5 310.901 295.4C309.101 296.3 307.801 297.7 306.801 299.5C305.801 301.3 305.401 303.6 305.401 306.3V325.3H298.701V288.4H305.101V298.4L304.101 295.8C305.301 293.4 307.201 291.5 309.701 290.2C312.101 288.8 315.001 288.1 318.301 288.1Z" fill="black"/>
<path d="M356.802 325.7C354.102 325.7 351.702 325.2 349.602 324.3C347.502 323.4 345.902 322.1 344.802 320.4C343.702 318.8 343.102 316.9 343.102 314.8C343.102 312.8 343.602 311 344.502 309.4C345.402 307.8 347.002 306.5 349.202 305.5C351.402 304.5 354.302 304 357.902 304H369.602V308.8H358.202C354.902 308.8 352.602 309.4 351.402 310.5C350.202 311.6 349.702 313 349.702 314.5C349.702 316.3 350.402 317.8 351.902 318.8C353.302 319.9 355.302 320.4 357.902 320.4C360.402 320.4 362.602 319.8 364.502 318.7C366.402 317.6 367.702 316 368.602 313.8L369.902 318.4C369.002 320.6 367.502 322.3 365.202 323.6C363.002 325.1 360.202 325.7 356.802 325.7ZM368.902 325.3V317.5L368.602 316V302.7C368.602 299.9 367.802 297.7 366.102 296.1C364.502 294.5 362.002 293.8 358.702 293.8C356.502 293.8 354.402 294.2 352.302 294.9C350.202 295.6 348.402 296.6 347.002 297.8L344.202 292.8C346.102 291.3 348.402 290.1 351.102 289.3C353.802 288.5 356.602 288.1 359.502 288.1C364.602 288.1 368.502 289.3 371.202 291.8C373.902 294.3 375.302 298 375.302 303.1V325.4H368.902V325.3Z" fill="black"/>
<path d="M403.001 323.8C399.401 323.8 396.201 323 393.401 321.5C390.601 320 388.401 317.9 386.701 315.2C385.101 312.5 384.201 309.4 384.201 305.9C384.201 302.3 385.001 299.2 386.701 296.5C388.301 293.8 390.601 291.8 393.401 290.3C396.201 288.8 399.401 288.1 403.001 288.1C406.201 288.1 409.001 288.7 411.601 290C414.201 291.3 416.301 293.2 417.801 295.9C419.401 298.5 420.101 301.9 420.101 305.9C420.101 309.9 419.301 313.2 417.801 315.9C416.201 318.5 414.201 320.5 411.601 321.8C409.001 323.1 406.101 323.8 403.001 323.8ZM403.801 339.2C400.401 339.2 397.101 338.7 394.001 337.8C390.801 336.8 388.201 335.5 386.201 333.7L389.401 328.6C391.101 330.1 393.201 331.3 395.701 332.1C398.201 333 400.801 333.4 403.601 333.4C408.001 333.4 411.201 332.4 413.201 330.3C415.201 328.3 416.301 325.2 416.301 321V313.2L417.001 305.9L416.701 298.5V288.4H423.001V320.3C423.001 326.8 421.401 331.6 418.101 334.6C414.801 337.7 410.101 339.2 403.801 339.2ZM403.701 317.9C406.201 317.9 408.301 317.4 410.201 316.4C412.101 315.4 413.601 314 414.701 312.2C415.801 310.4 416.301 308.3 416.301 305.9C416.301 303.5 415.801 301.4 414.701 299.6C413.601 297.8 412.101 296.4 410.201 295.4C408.301 294.4 406.101 293.9 403.701 293.9C401.201 293.9 399.001 294.4 397.101 295.4C395.201 296.4 393.701 297.8 392.601 299.6C391.501 301.4 391.001 303.5 391.001 305.9C391.001 308.3 391.501 310.4 392.601 312.2C393.701 314 395.201 315.4 397.101 316.4C399.101 317.4 401.301 317.9 403.701 317.9Z" fill="black"/>
<path d="M452.101 325.7C448.201 325.7 444.701 324.9 441.701 323.3C438.701 321.7 436.401 319.4 434.701 316.6C433.101 313.8 432.201 310.5 432.201 306.9C432.201 303.2 433.001 300 434.601 297.2C436.201 294.4 438.401 292.2 441.201 290.6C444.001 289 447.201 288.2 450.701 288.2C454.301 288.2 457.401 289 460.201 290.6C462.901 292.2 465.101 294.4 466.601 297.2C468.201 300.1 468.901 303.4 468.901 307.2C468.901 307.5 468.901 307.8 468.901 308.2C468.901 308.6 468.801 308.9 468.801 309.2H437.401V304.4H465.301L462.601 306.1C462.601 303.7 462.201 301.6 461.101 299.8C460.101 297.9 458.701 296.5 456.901 295.5C455.101 294.5 453.001 293.9 450.701 293.9C448.401 293.9 446.301 294.4 444.501 295.5C442.701 296.5 441.301 298 440.301 299.9C439.301 301.8 438.801 303.9 438.801 306.3V307.4C438.801 309.9 439.401 312.1 440.501 314C441.601 315.9 443.201 317.4 445.301 318.5C447.301 319.6 449.701 320.1 452.301 320.1C454.501 320.1 456.501 319.7 458.201 319C460.001 318.3 461.601 317.1 462.901 315.7L466.601 320C464.901 321.9 462.901 323.4 460.401 324.5C457.901 325.2 455.201 325.7 452.101 325.7Z" fill="black"/>
<path d="M524.402 288.1C527.402 288.1 530.002 288.7 532.302 289.8C534.602 291 536.302 292.7 537.602 295.1C538.902 297.5 539.502 300.5 539.502 304.1V325.3H532.802V304.8C532.802 301.2 532.002 298.5 530.302 296.7C528.602 294.9 526.302 294 523.302 294C521.102 294 519.102 294.5 517.502 295.4C515.802 296.3 514.502 297.7 513.602 299.5C512.702 301.3 512.202 303.6 512.202 306.3V325.3H505.502V304.8C505.502 301.2 504.702 298.5 503.002 296.7C501.402 294.9 499.002 294 495.902 294C493.702 294 491.802 294.5 490.102 295.4C488.402 296.3 487.102 297.7 486.202 299.5C485.302 301.3 484.802 303.6 484.802 306.3V325.3H478.102V288.4H484.502V298.2L483.502 295.7C484.702 293.3 486.402 291.4 488.902 290.1C491.302 288.8 494.102 288.1 497.302 288.1C500.802 288.1 503.902 289 506.402 290.7C509.002 292.4 510.602 295.1 511.402 298.6L508.702 297.5C509.802 294.7 511.802 292.4 514.502 290.7C517.202 289 520.702 288.1 524.402 288.1Z" fill="black"/>
<path d="M568.201 325.7C564.301 325.7 560.801 324.9 557.801 323.3C554.801 321.7 552.501 319.4 550.801 316.6C549.201 313.8 548.301 310.5 548.301 306.9C548.301 303.2 549.101 300 550.701 297.2C552.301 294.4 554.501 292.2 557.301 290.6C560.101 289 563.301 288.2 566.801 288.2C570.401 288.2 573.501 289 576.301 290.6C579.001 292.2 581.201 294.4 582.701 297.2C584.301 300.1 585.001 303.4 585.001 307.2C585.001 307.5 585.001 307.8 585.001 308.2C585.001 308.6 584.901 308.9 584.901 309.2H553.501V304.4H581.401L578.701 306.1C578.701 303.7 578.301 301.6 577.201 299.8C576.201 297.9 574.801 296.5 573.001 295.5C571.201 294.5 569.101 293.9 566.801 293.9C564.501 293.9 562.401 294.4 560.601 295.5C558.801 296.6 557.401 298 556.401 299.9C555.401 301.8 554.901 303.9 554.901 306.3V307.4C554.901 309.9 555.501 312.1 556.601 314C557.701 315.9 559.301 317.4 561.401 318.5C563.401 319.6 565.801 320.1 568.401 320.1C570.601 320.1 572.601 319.7 574.301 319C576.101 318.3 577.701 317.1 579.001 315.7L582.701 320C581.001 321.9 579.001 323.4 576.501 324.5C574.101 325.2 571.301 325.7 568.201 325.7Z" fill="black"/>
<path d="M614.1 288.1C617.1 288.1 619.8 288.7 622.1 289.8C624.4 291 626.2 292.7 627.5 295.1C628.8 297.5 629.4 300.5 629.4 304.1V325.3H622.7V304.8C622.7 301.2 621.8 298.5 620.1 296.7C618.4 294.9 615.9 294 612.8 294C610.4 294 608.4 294.5 606.6 295.4C604.8 296.3 603.5 297.7 602.5 299.5C601.5 301.3 601.1 303.6 601.1 306.3V325.3H594.4V288.4H600.8V298.4L599.8 295.8C601 293.4 602.9 291.5 605.4 290.2C607.8 288.8 610.8 288.1 614.1 288.1Z" fill="black"/>
<path d="M636.5 293.9V288.4H660V293.9H636.5ZM654.5 325.7C650.8 325.7 647.9 324.7 645.9 322.7C643.9 320.7 642.8 317.9 642.8 314.1V280.3H649.5V313.8C649.5 315.8 650 317.3 651 318.4C652 319.5 653.4 320 655.3 320C657.4 320 659.1 319.4 660.5 318.3L662.6 323.1C661.6 324 660.4 324.6 658.9 325C657.5 325.5 656 325.7 654.5 325.7Z" fill="black"/>
<path d="M735.501 288.1C738.501 288.1 741.101 288.7 743.401 289.8C745.701 291 747.401 292.7 748.701 295.1C750.001 297.5 750.601 300.5 750.601 304.1V325.3H743.901V304.8C743.901 301.2 743.101 298.5 741.401 296.7C739.701 294.9 737.401 294 734.401 294C732.201 294 730.201 294.5 728.601 295.4C726.901 296.3 725.601 297.7 724.701 299.5C723.801 301.3 723.301 303.6 723.301 306.3V325.3H716.601V304.8C716.601 301.2 715.801 298.5 714.101 296.7C712.501 294.9 710.101 294 707.001 294C704.801 294 702.901 294.5 701.201 295.4C699.501 296.3 698.201 297.7 697.301 299.5C696.401 301.3 695.901 303.6 695.901 306.3V325.3H689.201V288.4H695.601V298.2L694.601 295.7C695.801 293.3 697.501 291.4 700.001 290.1C702.401 288.8 705.201 288.1 708.401 288.1C711.901 288.1 715.001 289 717.501 290.7C720.101 292.4 721.701 295.1 722.501 298.6L719.801 297.5C720.901 294.7 722.901 292.4 725.601 290.7C728.301 289 731.701 288.1 735.501 288.1Z" fill="black"/>
<path d="M773.7 325.7C771 325.7 768.6 325.2 766.5 324.3C764.4 323.4 762.8 322.1 761.7 320.4C760.6 318.8 760 316.9 760 314.8C760 312.8 760.5 311 761.4 309.4C762.4 307.8 763.9 306.5 766.1 305.5C768.3 304.5 771.2 304 774.8 304H786.5V308.8H775.1C771.8 308.8 769.5 309.4 768.3 310.5C767.1 311.6 766.6 313 766.6 314.5C766.6 316.3 767.3 317.8 768.8 318.8C770.2 319.9 772.2 320.4 774.8 320.4C777.3 320.4 779.5 319.8 781.4 318.7C783.3 317.6 784.6 316 785.5 313.8L786.8 318.4C785.9 320.6 784.4 322.3 782.1 323.6C779.8 325.1 777 325.7 773.7 325.7ZM785.8 325.3V317.5L785.5 316V302.7C785.5 299.9 784.7 297.7 783 296.1C781.4 294.5 778.9 293.8 775.6 293.8C773.4 293.8 771.3 294.2 769.2 294.9C767.1 295.6 765.3 296.6 763.9 297.8L761.1 292.8C763 291.3 765.3 290.1 768 289.3C770.7 288.5 773.5 288.1 776.4 288.1C781.5 288.1 785.4 289.3 788.1 291.8C790.8 294.3 792.2 298 792.2 303.1V325.4H785.8V325.3Z" fill="black"/>
<path d="M819.702 325.7C816.102 325.7 812.902 324.9 810.102 323.3C807.302 321.7 805.102 319.5 803.502 316.7C801.902 313.9 801.102 310.6 801.102 306.8C801.102 303 801.902 299.8 803.502 297C805.102 294.2 807.302 292 810.102 290.4C812.902 288.8 816.102 288 819.702 288C822.802 288 825.602 288.7 828.102 290.1C830.602 291.5 832.602 293.6 834.102 296.4C835.602 299.2 836.402 302.7 836.402 306.8C836.402 311 835.702 314.5 834.202 317.2C832.702 320 830.802 322.1 828.302 323.5C825.802 325 822.902 325.7 819.702 325.7ZM820.302 319.9C822.602 319.9 824.702 319.4 826.602 318.3C828.502 317.2 830.002 315.7 831.102 313.7C832.202 311.7 832.702 309.4 832.702 306.8C832.702 304.2 832.202 301.9 831.102 299.9C830.002 298 828.502 296.5 826.602 295.4C824.702 294.3 822.602 293.8 820.302 293.8C817.902 293.8 815.802 294.3 814.002 295.4C812.102 296.5 810.702 298 809.502 299.9C808.402 301.8 807.802 304.1 807.802 306.8C807.802 309.4 808.402 311.7 809.502 313.7C810.602 315.7 812.102 317.2 814.002 318.3C815.802 319.4 817.902 319.9 820.302 319.9ZM832.902 325.3V315.3L833.302 306.7L832.602 298.1V273.5H839.302V325.1H832.902V325.3Z" fill="black"/>
<path d="M868.4 325.7C864.5 325.7 861 324.9 858 323.3C855 321.7 852.7 319.4 851 316.6C849.4 313.8 848.5 310.5 848.5 306.9C848.5 303.2 849.3 300 850.9 297.2C852.5 294.4 854.7 292.2 857.5 290.6C860.3 289 863.5 288.2 867 288.2C870.6 288.2 873.7 289 876.5 290.6C879.2 292.2 881.4 294.4 882.9 297.2C884.5 300.1 885.2 303.4 885.2 307.2C885.2 307.5 885.2 307.8 885.2 308.2C885.2 308.6 885.1 308.9 885.1 309.2H853.7V304.4H881.6L878.9 306.1C878.9 303.7 878.5 301.6 877.4 299.8C876.4 297.9 875 296.5 873.2 295.5C871.4 294.5 869.3 293.9 867 293.9C864.7 293.9 862.6 294.4 860.8 295.5C859 296.6 857.6 298 856.6 299.9C855.6 301.8 855.1 303.9 855.1 306.3V307.4C855.1 309.9 855.7 312.1 856.8 314C857.9 315.9 859.5 317.4 861.6 318.5C863.6 319.6 866 320.1 868.6 320.1C870.8 320.1 872.8 319.7 874.5 319C876.3 318.3 877.9 317.1 879.2 315.7L882.9 320C881.2 321.9 879.2 323.4 876.7 324.5C874.2 325.2 871.4 325.7 868.4 325.7Z" fill="black"/>
<path d="M929.701 325.7C925.801 325.7 922.301 324.9 919.301 323.3C916.301 321.7 914.001 319.4 912.301 316.6C910.701 313.8 909.801 310.5 909.801 306.9C909.801 303.2 910.601 300 912.201 297.2C913.801 294.4 916.001 292.2 918.801 290.6C921.601 289 924.801 288.2 928.301 288.2C931.901 288.2 935.001 289 937.801 290.6C940.501 292.2 942.701 294.4 944.201 297.2C945.801 300.1 946.501 303.4 946.501 307.2C946.501 307.5 946.501 307.8 946.501 308.2C946.501 308.6 946.401 308.9 946.401 309.2H915.001V304.4H943.001L940.301 306.1C940.301 303.7 939.901 301.6 938.801 299.8C937.801 297.9 936.401 296.5 934.601 295.5C932.801 294.5 930.701 293.9 928.401 293.9C926.101 293.9 924.001 294.4 922.201 295.5C920.401 296.6 919.001 298 918.001 299.9C917.001 301.8 916.501 303.9 916.501 306.3V307.4C916.501 309.9 917.101 312.1 918.201 314C919.301 315.9 920.901 317.4 923.001 318.5C925.001 319.6 927.401 320.1 930.001 320.1C932.201 320.1 934.201 319.7 935.901 319C937.701 318.3 939.301 317.1 940.601 315.7L944.301 320C942.601 321.9 940.601 323.4 938.101 324.5C935.501 325.2 932.701 325.7 929.701 325.7Z" fill="black"/>
<path d="M965.6 325.7C962.9 325.7 960.5 325.2 958.4 324.3C956.3 323.4 954.7 322.1 953.6 320.4C952.5 318.8 951.9 316.9 951.9 314.8C951.9 312.8 952.4 311 953.3 309.4C954.3 307.8 955.8 306.5 958 305.5C960.2 304.5 963.1 304 966.7 304H978.4V308.8H967C963.7 308.8 961.4 309.4 960.2 310.5C959 311.6 958.5 313 958.5 314.5C958.5 316.3 959.2 317.8 960.7 318.8C962.1 319.9 964.1 320.4 966.7 320.4C969.2 320.4 971.4 319.8 973.3 318.7C975.2 317.6 976.5 316 977.4 313.8L978.7 318.4C977.8 320.6 976.3 322.3 974 323.6C971.8 325.1 969 325.7 965.6 325.7ZM977.7 325.3V317.5L977.4 316V302.7C977.4 299.9 976.6 297.7 974.9 296.1C973.3 294.5 970.8 293.8 967.5 293.8C965.3 293.8 963.2 294.2 961.1 294.9C959 295.6 957.2 296.6 955.8 297.8L953 292.8C954.9 291.3 957.2 290.1 959.9 289.3C962.6 288.5 965.4 288.1 968.3 288.1C973.4 288.1 977.3 289.3 980 291.8C982.7 294.3 984.1 298 984.1 303.1V325.4H977.7V325.3Z" fill="black"/>
<path d="M1007 325.7C1003.9 325.7 1001 325.3 998.301 324.4C995.501 323.6 993.401 322.5 991.801 321.3L994.601 316C996.201 317.1 998.101 318 1000.4 318.7C1002.7 319.4 1005.1 319.8 1007.5 319.8C1010.6 319.8 1012.8 319.4 1014.2 318.5C1015.6 317.6 1016.3 316.4 1016.3 314.8C1016.3 313.6 1015.9 312.7 1015 312.1C1014.2 311.5 1013.1 311 1011.7 310.6C1010.3 310.3 1008.8 310 1007.1 309.7C1005.4 309.4 1003.8 309.1 1002.1 308.7C1000.4 308.3 998.901 307.7 997.501 307C996.101 306.3 995.001 305.3 994.201 304C993.401 302.7 992.901 301 992.901 298.9C992.901 296.7 993.501 294.7 994.801 293.1C996.101 291.4 997.801 290.1 1000.1 289.2C1002.4 288.3 1005.1 287.8 1008.3 287.8C1010.7 287.8 1013.2 288.1 1015.6 288.7C1018.1 289.3 1020.1 290.1 1021.7 291.2L1018.8 296.5C1017.1 295.4 1015.4 294.6 1013.6 294.2C1011.8 293.8 1010 293.6 1008.2 293.6C1005.3 293.6 1003.1 294.1 1001.7 295C1000.3 296 999.501 297.2 999.501 298.7C999.501 300 999.901 300.9 1000.8 301.6C1001.7 302.3 1002.8 302.8 1004.1 303.2C1005.5 303.6 1007 303.9 1008.7 304.1C1010.4 304.4 1012 304.7 1013.7 305.1C1015.4 305.5 1016.9 306 1018.3 306.7C1019.7 307.4 1020.8 308.4 1021.6 309.6C1022.5 310.9 1022.9 312.5 1022.9 314.6C1022.9 316.8 1022.3 318.8 1021 320.4C1019.7 322 1017.9 323.3 1015.5 324.2C1013.1 325.3 1010.3 325.7 1007 325.7Z" fill="black"/>
<path d="M1032.2 339.2C1030.4 339.2 1028.7 338.9 1027.1 338.3C1025.4 337.7 1024 336.9 1022.8 335.8L1025.7 330.8C1026.6 331.7 1027.6 332.4 1028.8 332.8C1029.9 333.3 1031.1 333.5 1032.3 333.5C1033.9 333.5 1035.3 333.1 1036.3 332.2C1037.4 331.4 1038.4 329.9 1039.3 327.7L1041.6 322.6L1042.3 321.8L1056.8 288.3H1063.3L1045.4 328.9C1044.3 331.5 1043.1 333.5 1041.8 335C1040.5 336.5 1039 337.5 1037.5 338.2C1035.8 338.9 1034.1 339.2 1032.2 339.2ZM1040.9 326.5L1024.1 288.4H1031.1L1045.4 321.2L1040.9 326.5Z" fill="black"/>
<path d="M1063.2 250.999H2.80039C1.50039 250.999 0.400391 249.899 0.400391 248.599C0.400391 247.299 1.50039 246.199 2.80039 246.199H1063.2C1064.5 246.199 1065.6 247.299 1065.6 248.599C1065.6 249.999 1064.5 250.999 1063.2 250.999Z" fill="#F05C2E"/>
</svg>
