<svg width="24" height="24" viewBox="0 0 24 24" fill="none" xmlns="http://www.w3.org/2000/svg">
<path d="M2.18182 15.2727H0V2.18182C0 1.60316 0.22987 1.04821 0.63904 0.63904C1.04821 0.22987 1.60316 0 2.18182 0H19.6364V2.18182H2.18182V15.2727ZM12 24C11.7107 24 11.4332 23.8851 11.2286 23.6805C11.024 23.4759 10.9091 23.1984 10.9091 22.9091V19.6364H6.54545C5.9668 19.6364 5.41185 19.4065 5.00268 18.9973C4.59351 18.5882 4.36364 18.0332 4.36364 17.4545V6.54545C4.36364 5.9668 4.59351 5.41185 5.00268 5.00268C5.41185 4.59351 5.9668 4.36364 6.54545 4.36364H21.8182C22.3968 4.36364 22.9518 4.59351 23.361 5.00268C23.7701 5.41185 24 5.9668 24 6.54545V17.4545C24 18.0332 23.7701 18.5882 23.361 18.9973C22.9518 19.4065 22.3968 19.6364 21.8182 19.6364H17.3455L13.3091 23.6836C13.0909 23.88 12.8291 24 12.5455 24H12ZM8.72727 8.72727V10.9091H19.6364V8.72727H8.72727ZM8.72727 13.0909V15.2727H17.4545V13.0909H8.72727Z" fill="#03214C"/>
</svg>
