<svg width="18" height="18" viewBox="0 0 18 18" fill="none" xmlns="http://www.w3.org/2000/svg">
<path d="M9 18C8.63571 18 8.33014 17.8766 8.08329 17.6297C7.83643 17.3829 7.71343 17.0777 7.71429 16.7143V10.2857H1.28572C0.921433 10.2857 0.615862 10.1623 0.369004 9.91543C0.122147 9.66857 -0.000852694 9.36343 4.44883e-06 9C4.44883e-06 8.63571 0.123433 8.33014 0.37029 8.08329C0.617147 7.83643 0.92229 7.71343 1.28572 7.71429H7.71429V1.28572C7.71429 0.921433 7.83772 0.615862 8.08457 0.369004C8.33143 0.122147 8.63657 -0.000852694 9 4.44883e-06C9.36429 4.44883e-06 9.66986 0.123433 9.91671 0.37029C10.1636 0.617147 10.2866 0.92229 10.2857 1.28572V7.71429H16.7143C17.0786 7.71429 17.3841 7.83772 17.631 8.08457C17.8779 8.33143 18.0009 8.63657 18 9C18 9.36429 17.8766 9.66986 17.6297 9.91671C17.3829 10.1636 17.0777 10.2866 16.7143 10.2857H10.2857V16.7143C10.2857 17.0786 10.1623 17.3841 9.91543 17.631C9.66857 17.8779 9.36343 18.0009 9 18Z" fill="#F65A27"/>
</svg>
