<svg width="17" height="19" viewBox="0 0 17 19" fill="none" xmlns="http://www.w3.org/2000/svg">
<path fill-rule="evenodd" clip-rule="evenodd" d="M3.27109 2.42305C3.27109 1.94566 3.46074 1.48782 3.7983 1.15025C4.13587 0.812689 4.5937 0.623047 5.07109 0.623047L12.4523 0.623047L16.4711 3.30145V14.423C16.4711 14.9004 16.2815 15.3583 15.9439 15.6958C15.6063 16.0334 15.1485 16.223 14.6711 16.223H14.0711V16.823C14.0711 17.3004 13.8815 17.7583 13.5439 18.0958C13.2063 18.4334 12.7485 18.623 12.2711 18.623H2.67109C2.1937 18.623 1.73587 18.4334 1.3983 18.0958C1.06074 17.7583 0.871094 17.3004 0.871094 16.823V4.82305C0.871094 4.34566 1.06074 3.88782 1.3983 3.55025C1.73587 3.21269 2.1937 3.02305 2.67109 3.02305H3.27109V2.42305ZM3.27109 4.22305H2.67109C2.51196 4.22305 2.35935 4.28626 2.24683 4.39878C2.13431 4.5113 2.07109 4.66392 2.07109 4.82305V16.823C2.07109 16.9822 2.13431 17.1348 2.24683 17.2473C2.35935 17.3598 2.51196 17.423 2.67109 17.423H12.2711C12.4302 17.423 12.5828 17.3598 12.6954 17.2473C12.8079 17.1348 12.8711 16.9822 12.8711 16.823V16.223H5.07109C4.5937 16.223 4.13587 16.0334 3.7983 15.6958C3.46074 15.3583 3.27109 14.9004 3.27109 14.423V4.22305Z" fill="#F65A27"/>
</svg>
