<svg width="18" height="18" viewBox="0 0 18 18" fill="none" xmlns="http://www.w3.org/2000/svg">
<path d="M4.50005 0H0.900011C0.661313 0 0.432392 0.0948222 0.263607 0.263607C0.0948222 0.432392 0 0.661313 0 0.900011V17.1002C0 17.3389 0.0948222 17.5678 0.263607 17.7366C0.432392 17.9054 0.661313 18.0002 0.900011 18.0002H4.50005C4.73875 18.0002 4.96767 17.9054 5.13646 17.7366C5.30524 17.5678 5.40006 17.3389 5.40006 17.1002V0.900011C5.40006 0.661313 5.30524 0.432392 5.13646 0.263607C4.96767 0.0948222 4.73875 0 4.50005 0ZM2.70003 17.1002C2.34402 17.1002 1.99601 16.9946 1.69999 16.7968C1.40398 16.5991 1.17327 16.3179 1.03703 15.989C0.90079 15.6601 0.865143 15.2982 0.934598 14.949C1.00405 14.5998 1.17549 14.2791 1.42722 14.0274C1.67896 13.7756 1.9997 13.6042 2.34887 13.5347C2.69804 13.4653 3.05996 13.5009 3.38887 13.6372C3.71778 13.7734 3.99891 14.0041 4.19669 14.3001C4.39448 14.5962 4.50005 14.9442 4.50005 15.3002C4.50005 15.7776 4.31041 16.2354 3.97284 16.573C3.63527 16.9106 3.17743 17.1002 2.70003 17.1002ZM4.50005 9.00011H0.900011V0.900011H4.50005V9.00011Z" fill="#F65A27"/>
<path d="M2.7086 16.2092C3.20567 16.2092 3.60861 15.8063 3.60861 15.3092C3.60861 14.8121 3.20567 14.4092 2.7086 14.4092C2.21154 14.4092 1.80859 14.8121 1.80859 15.3092C1.80859 15.8063 2.21154 16.2092 2.7086 16.2092Z" fill="#F65A27"/>
<path d="M7.20898 0V8.1091H11.709V0H7.20898ZM13.5001 0V8.1091H18.0001V0H13.5001ZM7.20898 9.90012V18.0002H11.709V9.90012H7.20898ZM13.5001 9.90012V18.0002H18.0001V9.90012H13.5001Z" fill="#F65A27"/>
</svg>
