<svg width="14" height="14" viewBox="0 0 14 14" fill="none" xmlns="http://www.w3.org/2000/svg">
<path d="M3.73825 0.210208C3.87284 0.344845 3.94845 0.527427 3.94845 0.717803C3.94845 0.908179 3.87284 1.09076 3.73825 1.2254L2.45095 2.51269H8.07686C9.21284 2.51269 10.3233 2.84955 11.2679 3.48067C12.2124 4.11179 12.9486 5.00883 13.3833 6.05835C13.818 7.10786 13.9318 8.26272 13.7101 9.37688C13.4885 10.491 12.9415 11.5145 12.1382 12.3177C11.335 13.121 10.3115 13.668 9.19739 13.8896C8.08323 14.1113 6.92837 13.9975 5.87886 13.5628C4.82934 13.1281 3.93231 12.3919 3.30118 11.4473C2.67006 10.5028 2.3332 9.39233 2.3332 8.25635C2.3332 8.06593 2.40885 7.88332 2.54349 7.74867C2.67813 7.61403 2.86075 7.53839 3.05116 7.53839C3.24158 7.53839 3.42419 7.61403 3.55883 7.74867C3.69348 7.88332 3.76912 8.06593 3.76912 8.25635C3.76912 9.10834 4.02176 9.94119 4.4951 10.6496C4.96844 11.358 5.64122 11.9101 6.42836 12.2362C7.21549 12.5622 8.08163 12.6475 8.91725 12.4813C9.75287 12.3151 10.5204 11.9048 11.1229 11.3024C11.7253 10.6999 12.1356 9.93236 12.3018 9.09674C12.468 8.26112 12.3827 7.39498 12.0567 6.60785C11.7306 5.82071 11.1785 5.14793 10.4701 4.67459C9.7617 4.20125 8.92885 3.94861 8.07686 3.94861H2.45095L3.73825 5.2359C3.86903 5.37131 3.94139 5.55267 3.93976 5.74091C3.93812 5.92916 3.86261 6.10923 3.7295 6.24235C3.59639 6.37546 3.41631 6.45097 3.22807 6.4526C3.03982 6.45424 2.85846 6.38187 2.72306 6.25109L0.210208 3.73825C0.0756118 3.60361 0 3.42103 0 3.23065C0 3.04027 0.0756118 2.85769 0.210208 2.72306L2.72306 0.210208C2.85769 0.0756118 3.04027 0 3.23065 0C3.42103 0 3.60361 0.0756118 3.73825 0.210208Z" fill="#8E8E8E"/>
</svg>
