<svg width="25" height="24" viewBox="0 0 25 24" fill="none" xmlns="http://www.w3.org/2000/svg">
<path d="M0.00109508 11.5766C0.00354592 9.24466 0.931002 7.00891 2.57995 5.35996C4.2289 3.71101 6.46465 2.78355 8.79662 2.7811H20.254L19.8466 2.37489C19.7174 2.2457 19.6149 2.09234 19.545 1.92356C19.4751 1.75477 19.4391 1.57387 19.4391 1.39118C19.4391 1.20848 19.4751 1.02758 19.545 0.858796C19.6149 0.690011 19.7174 0.536649 19.8466 0.407466C19.9758 0.278283 20.1291 0.17581 20.2979 0.105897C20.4667 0.0359838 20.6476 0 20.8303 0C21.013 0 21.1939 0.0359838 21.3627 0.105897C21.5315 0.17581 21.6848 0.278283 21.814 0.407466L24.5915 3.185C24.721 3.31402 24.8237 3.46733 24.8938 3.63614C24.9639 3.80495 25 3.98593 25 4.16871C25 4.35149 24.9639 4.53247 24.8938 4.70128C24.8237 4.87009 24.721 5.0234 24.5915 5.15242L21.814 7.92996C21.5531 8.19085 21.1993 8.33742 20.8303 8.33742C20.4613 8.33742 20.1075 8.19085 19.8466 7.92996C19.5857 7.66906 19.4391 7.31521 19.4391 6.94625C19.4391 6.57728 19.5857 6.22343 19.8466 5.96253L20.254 5.55864H8.79662C7.20111 5.56047 5.67148 6.1951 4.54329 7.32329C3.41509 8.45149 2.78047 9.98112 2.77863 11.5766C2.77863 11.945 2.63231 12.2982 2.37187 12.5586C2.11142 12.8191 1.75819 12.9654 1.38986 12.9654C1.02154 12.9654 0.6683 12.8191 0.407856 12.5586C0.147411 12.2982 0.00109508 11.945 0.00109508 11.5766ZM23.6101 10.1879C23.2418 10.1879 22.8886 10.3342 22.6281 10.5946C22.3677 10.8551 22.2214 11.2083 22.2214 11.5766C22.2195 13.1721 21.5849 14.7018 20.4567 15.83C19.3285 16.9582 17.7989 17.5928 16.2034 17.5946H4.74605L5.15342 17.1884C5.2826 17.0592 5.38508 16.9059 5.45499 16.7371C5.5249 16.5683 5.56089 16.3874 5.56089 16.2047C5.56089 16.022 5.5249 15.8411 5.45499 15.6723C5.38508 15.5035 5.2826 15.3502 5.15342 15.221C5.02424 15.0918 4.87088 14.9893 4.70209 14.9194C4.53331 14.8495 4.3524 14.8135 4.16971 14.8135C3.98702 14.8135 3.80612 14.8495 3.63733 14.9194C3.46855 14.9893 3.31518 15.0918 3.186 15.221L0.408467 17.9985C0.278997 18.1275 0.176269 18.2809 0.106175 18.4497C0.0360813 18.6185 0 18.7994 0 18.9822C0 19.165 0.0360813 19.346 0.106175 19.5148C0.176269 19.6836 0.278997 19.8369 0.408467 19.9659L3.186 22.7435C3.31518 22.8727 3.46855 22.9751 3.63733 23.045C3.80612 23.115 3.98702 23.1509 4.16971 23.1509C4.3524 23.1509 4.53331 23.115 4.70209 23.045C4.87088 22.9751 5.02424 22.8727 5.15342 22.7435C5.2826 22.6143 5.38508 22.4609 5.45499 22.2921C5.5249 22.1234 5.56089 21.9425 5.56089 21.7598C5.56089 21.5771 5.5249 21.3962 5.45499 21.2274C5.38508 21.0586 5.2826 20.9052 5.15342 20.7761L4.74605 20.3722H16.2034C18.5353 20.3697 20.7711 19.4422 22.42 17.7933C24.069 16.1443 24.9965 13.9086 24.9989 11.5766C24.9989 11.2083 24.8526 10.8551 24.5921 10.5946C24.3317 10.3342 23.9785 10.1879 23.6101 10.1879Z" fill="#4D91FF"/>
</svg>
