<svg width="18" height="18" viewBox="0 0 18 18" fill="none" xmlns="http://www.w3.org/2000/svg">
<path d="M10.7316 18H7.26842C7.03755 18 6.83745 17.925 6.66814 17.775C6.49883 17.625 6.39879 17.4375 6.368 17.2125L6.09095 15.12C5.89086 15.045 5.70216 14.955 5.52484 14.85C5.34753 14.745 5.17452 14.6325 5.00583 14.5125L2.9972 15.3225C2.78172 15.3975 2.56623 15.405 2.35075 15.345C2.13526 15.285 1.96595 15.1575 1.84282 14.9625L0.134328 12.06C0.011194 11.865 -0.0272854 11.655 0.0188899 11.43C0.0650653 11.205 0.180504 11.025 0.365205 10.89L2.09678 9.6075C2.08139 9.5025 2.07369 9.4011 2.07369 9.3033V8.6967C2.07369 8.5989 2.08139 8.4975 2.09678 8.3925L0.365205 7.11C0.180504 6.975 0.0650653 6.795 0.0188899 6.57C-0.0272854 6.345 0.011194 6.135 0.134328 5.94L1.84282 3.0375C1.95056 2.8275 2.11587 2.6961 2.33874 2.6433C2.56161 2.5905 2.7811 2.6019 2.9972 2.6775L5.00583 3.4875C5.17514 3.3675 5.35215 3.255 5.53685 3.15C5.72155 3.045 5.90625 2.955 6.09095 2.88L6.368 0.7875C6.39879 0.5625 6.49883 0.375 6.66814 0.225C6.83745 0.075 7.03755 0 7.26842 0H10.7316C10.9625 0 11.1625 0.075 11.3319 0.225C11.5012 0.375 11.6012 0.5625 11.632 0.7875L11.909 2.88C12.1091 2.955 12.2978 3.045 12.4752 3.15C12.6525 3.255 12.8255 3.3675 12.9942 3.4875L15.0028 2.6775C15.2183 2.6025 15.4338 2.595 15.6493 2.655C15.8647 2.715 16.034 2.8425 16.1572 3.0375L17.8657 5.94C17.9888 6.135 18.0273 6.345 17.9811 6.57C17.9349 6.795 17.8195 6.975 17.6348 7.11L15.9032 8.3925C15.9186 8.4975 15.9263 8.5989 15.9263 8.6967V9.3033C15.9263 9.4011 15.9109 9.5025 15.8801 9.6075L17.6117 10.89C17.7964 11.025 17.9118 11.205 17.958 11.43C18.0042 11.655 17.9657 11.865 17.8426 12.06L16.1341 14.94C16.011 15.135 15.8377 15.2664 15.6142 15.3342C15.3907 15.402 15.1715 15.3981 14.9566 15.3225L12.9942 14.5125C12.8249 14.6325 12.6479 14.745 12.4632 14.85C12.2785 14.955 12.0938 15.045 11.909 15.12L11.632 17.2125C11.6012 17.4375 11.5012 17.625 11.3319 17.775C11.1625 17.925 10.9625 18 10.7316 18ZM9.04618 12.15C9.9389 12.15 10.7008 11.8425 11.3319 11.2275C11.9629 10.6125 12.2785 9.87 12.2785 9C12.2785 8.13 11.9629 7.3875 11.3319 6.7725C10.7008 6.1575 9.9389 5.85 9.04618 5.85C8.13806 5.85 7.37216 6.1575 6.74849 6.7725C6.12481 7.3875 5.81328 8.13 5.8139 9C5.8139 9.87 6.12543 10.6125 6.74849 11.2275C7.37155 11.8425 8.13744 12.15 9.04618 12.15Z" fill="#F65A27"/>
</svg>
