<svg width="27" height="14" viewBox="0 0 27 14" fill="none" xmlns="http://www.w3.org/2000/svg">
<path d="M24.0622 4.70198e-07C23.7061 9.2181e-05 23.3553 0.0871446 23.0405 0.253595C22.7256 0.420044 22.4561 0.660857 22.2555 0.955111C22.0549 1.24937 21.9291 1.58816 21.8891 1.94206C21.8492 2.29597 21.8963 2.65427 22.0263 2.98585L17.4233 7.58876C16.9102 7.38678 16.3396 7.38678 15.8265 7.58876L12.5361 4.29831C12.6664 3.96666 12.7137 3.6082 12.6738 3.2541C12.634 2.9 12.5083 2.56099 12.3077 2.26654C12.107 1.9721 11.8374 1.73113 11.5224 1.5646C11.2074 1.39808 10.8564 1.31103 10.5001 1.31103C10.1438 1.31103 9.79284 1.39808 9.47782 1.5646C9.1628 1.73113 8.89323 1.9721 8.69255 2.26654C8.49187 2.56099 8.36617 2.9 8.32636 3.2541C8.28655 3.6082 8.33385 3.96666 8.46415 4.29831L2.98626 9.7762C2.51843 9.59268 2.00169 9.57584 1.5229 9.72851C1.04412 9.88118 0.632508 10.194 0.357269 10.6145C0.0820313 11.035 -0.0400432 11.5374 0.0115721 12.0372C0.0631873 12.5371 0.285344 13.004 0.640689 13.3593C0.996033 13.7147 1.46289 13.9368 1.96277 13.9884C2.46264 14.04 2.96505 13.918 3.3855 13.6427C3.80596 13.3675 4.11882 12.9559 4.27149 12.4771C4.42416 11.9983 4.40732 11.4816 4.2238 11.0137L9.70169 5.53585C10.2148 5.73784 10.7854 5.73784 11.2985 5.53585L14.589 8.82631C14.4587 9.15796 14.4114 9.51642 14.4512 9.87052C14.491 10.2246 14.6167 10.5636 14.8174 10.8581C15.018 11.1525 15.2876 11.3935 15.6026 11.56C15.9177 11.7265 16.2686 11.8136 16.6249 11.8136C16.9813 11.8136 17.3322 11.7265 17.6472 11.56C17.9622 11.3935 18.2318 11.1525 18.4325 10.8581C18.6332 10.5636 18.7589 10.2246 18.7987 9.87052C18.8385 9.51642 18.7912 9.15796 18.6609 8.82631L23.2638 4.22339C23.5633 4.34106 23.8851 4.3912 24.2062 4.37022C24.5274 4.34924 24.8399 4.25767 25.1216 4.10203C25.4032 3.94639 25.6471 3.73052 25.8358 3.46981C26.0244 3.2091 26.1532 2.90997 26.213 2.59376C26.2728 2.27756 26.2621 1.95205 26.1816 1.64047C26.1011 1.32888 25.9529 1.03889 25.7475 0.791165C25.5421 0.543444 25.2845 0.344098 24.9932 0.207342C24.7019 0.0705863 24.384 -0.000210517 24.0622 4.70198e-07Z" fill="#8E8E8E"/>
</svg>
