<svg width="16" height="24" viewBox="0 0 16 24" fill="none" xmlns="http://www.w3.org/2000/svg">
<path d="M14.5387 13.4866C14.3868 13.1252 14.2065 12.7764 13.9995 12.4434V6.41334C14.0004 5.57061 13.8344 4.73604 13.5112 3.95775C13.188 3.17945 12.714 2.47282 12.1165 1.87857C11.5224 1.28103 10.8158 0.807308 10.0373 0.484845C9.25893 0.162383 8.42426 -0.00240586 7.5817 2.65399e-05C6.73864 -0.00199175 5.90353 0.162971 5.12457 0.485396C4.3456 0.807821 3.6382 1.28132 3.04319 1.87857C2.44591 2.47279 1.97236 3.17952 1.64992 3.95789C1.32748 4.73626 1.16254 5.57083 1.16464 6.41334V7.29224H3.73461V6.41334C3.73461 5.39045 4.13282 4.42155 4.86324 3.69488C5.2195 3.33697 5.64319 3.05327 6.10981 2.86019C6.57643 2.6671 7.07671 2.56847 7.5817 2.57C8.60074 2.57178 9.57759 2.97718 10.2984 3.69747C11.0193 4.41777 11.4255 5.39429 11.428 6.41334V9.92521C10.2601 9.22898 8.92494 8.86299 7.5652 8.86632C6.57124 8.86433 5.58671 9.05897 4.66828 9.43903C3.74986 9.81909 2.91568 10.3771 2.21378 11.0808C1.51028 11.7829 0.952526 12.6171 0.572604 13.5355C0.192683 14.4539 -0.00191206 15.4384 1.41613e-05 16.4323C-0.00163103 17.4253 0.193112 18.4089 0.573037 19.3264C0.952963 20.2439 1.51057 21.0772 2.21378 21.7784C2.9158 22.4823 3.74974 23.0408 4.66787 23.4221C5.586 23.8033 6.5703 23.9997 7.56442 24C8.55855 24.0003 9.54298 23.8046 10.4614 23.4241C11.3798 23.0435 12.2141 22.4856 12.9166 21.7822C13.6201 21.0802 14.1778 20.2461 14.5577 19.3279C14.9376 18.4096 15.1323 17.4253 15.1304 16.4315C15.1304 15.4116 14.9317 14.4195 14.5372 13.4858L14.5387 13.4866ZM7.5667 21.4275C4.813 21.4275 2.57149 19.186 2.57149 16.4323C2.57149 13.6786 4.813 11.437 7.5667 11.437C8.89121 11.438 10.1612 11.9646 11.0978 12.9012C12.0343 13.8378 12.5609 15.1078 12.5619 16.4323C12.5601 17.7565 12.0333 19.026 11.0969 19.9624C10.1605 20.8988 8.89097 21.4257 7.5667 21.4275ZM9.71147 16.4555C9.71147 19.279 5.47293 19.279 5.47293 16.4555C5.47293 13.6276 9.71147 13.6276 9.71147 16.4555Z" fill="#8E8E8E"/>
</svg>
