<svg width="16" height="20" viewBox="0 0 16 20" fill="none" xmlns="http://www.w3.org/2000/svg">
<path d="M8 19.7C7.81667 19.7 7.64567 19.6873 7.487 19.662C7.32833 19.6367 7.18267 19.5993 7.05 19.55C4.98333 18.7833 3.29167 17.4167 1.975 15.45C0.658333 13.4833 0 11.3167 0 8.95V4.225C0 3.80833 0.121 3.43333 0.363 3.1C0.605 2.76667 0.917333 2.525 1.3 2.375L7.3 0.125C7.53333 0.0416667 7.76667 0 8 0C8.23333 0 8.46667 0.0416667 8.7 0.125L14.7 2.375C15.0833 2.525 15.396 2.76667 15.638 3.1C15.88 3.43333 16.0007 3.80833 16 4.225V8.95C16 11.3167 15.3417 13.4833 14.025 15.45C12.7083 17.4167 11.0167 18.7833 8.95 19.55C8.81667 19.6 8.671 19.6377 8.513 19.663C8.355 19.6883 8.184 19.7007 8 19.7ZM8 17.75C9.61667 17.25 10.9667 16.2627 12.05 14.788C13.1333 13.3133 13.7667 11.6673 13.95 9.85H8V1.975L2 4.225V9.4C2 9.51667 2.01667 9.66667 2.05 9.85H8V17.75Z" fill="#8E8E8E"/>
</svg>
