<svg width="24" height="18" viewBox="0 0 24 18" fill="none" xmlns="http://www.w3.org/2000/svg">
<path d="M17.1572 4.53407L21.3506 0.340737C21.5868 0.104493 21.8624 -0.00890459 22.1774 0.000545179C22.4924 0.00999495 22.7681 0.133236 23.0043 0.370268C23.2209 0.606512 23.3291 0.88213 23.3291 1.19712C23.3291 1.51212 23.2209 1.78773 23.0043 2.02398L18.0136 7.04417C17.7774 7.28041 17.5018 7.39854 17.1868 7.39854C16.8718 7.39854 16.5962 7.28041 16.3599 7.04417L13.8203 4.50454C13.6037 4.28799 13.4955 4.01237 13.4955 3.67769C13.4955 3.34301 13.6037 3.06739 13.8203 2.85083C14.0369 2.63428 14.3125 2.526 14.6472 2.526C14.9818 2.526 15.2575 2.63428 15.474 2.85083L17.1572 4.53407ZM1.18123 5.50858C0.846546 5.50858 0.566203 5.39518 0.340196 5.16839C0.114189 4.94159 0.000791568 4.66125 4.08727e-06 4.32736C4.08727e-06 3.99268 0.113401 3.71194 0.340196 3.48515C0.566991 3.25835 0.847334 3.14535 1.18123 3.14614H9.44978C9.78446 3.14614 10.0652 3.25954 10.292 3.48633C10.5188 3.71312 10.6318 3.99347 10.631 4.32736C10.631 4.66204 10.5176 4.94278 10.2908 5.16957C10.064 5.39637 9.78367 5.50937 9.44978 5.50858H1.18123ZM17.7183 15.4308L15.474 17.6752C15.2575 17.8917 14.9818 18 14.6472 18C14.3125 18 14.0369 17.8917 13.8203 17.6752C13.6037 17.4586 13.4955 17.183 13.4955 16.8483C13.4955 16.5136 13.6037 16.238 13.8203 16.0215L16.0646 13.7771L13.8203 11.5328C13.6037 11.3163 13.4955 11.0406 13.4955 10.706C13.4955 10.3713 13.6037 10.0957 13.8203 9.8791C14.0369 9.66254 14.3125 9.55427 14.6472 9.55427C14.9818 9.55427 15.2575 9.66254 15.474 9.8791L17.7183 12.1234L19.9626 9.8791C20.1792 9.66254 20.4548 9.55427 20.7895 9.55427C21.1242 9.55427 21.3998 9.66254 21.6164 9.8791C21.8329 10.0957 21.9412 10.3713 21.9412 10.706C21.9412 11.0406 21.8329 11.3163 21.6164 11.5328L19.372 13.7771L21.6164 16.0215C21.8329 16.238 21.9412 16.5136 21.9412 16.8483C21.9412 17.183 21.8329 17.4586 21.6164 17.6752C21.3998 17.8917 21.1242 18 20.7895 18C20.4548 18 20.1792 17.8917 19.9626 17.6752L17.7183 15.4308ZM1.18123 14.9584C0.846546 14.9584 0.565809 14.845 0.339015 14.6182C0.11222 14.3914 -0.000783394 14.111 4.08727e-06 13.7771C4.08727e-06 13.4425 0.113401 13.1617 0.340196 12.9349C0.566991 12.7081 0.847334 12.5951 1.18123 12.5959H9.44978C9.78446 12.5959 10.0652 12.7093 10.292 12.9361C10.5188 13.1629 10.6318 13.4432 10.631 13.7771C10.631 14.1118 10.5176 14.3925 10.2908 14.6193C10.064 14.8461 9.78367 14.9591 9.44978 14.9584H1.18123Z" fill="#8E8E8E"/>
</svg>
