<svg width="18" height="23" viewBox="0 0 18 23" fill="none" xmlns="http://www.w3.org/2000/svg">
<path d="M5.625 11.25C5.30625 11.25 5.03888 11.142 4.82288 10.926C4.60688 10.71 4.49925 10.443 4.5 10.125C4.5 9.80625 4.608 9.53887 4.824 9.32288C5.04 9.10687 5.307 8.99925 5.625 9H12.375C12.6937 9 12.9611 9.108 13.1771 9.324C13.3931 9.54 13.5007 9.807 13.5 10.125C13.5 10.4438 13.392 10.7111 13.176 10.9271C12.96 11.1431 12.693 11.2507 12.375 11.25H5.625ZM5.625 6.75C5.30625 6.75 5.03888 6.642 4.82288 6.426C4.60688 6.21 4.49925 5.943 4.5 5.625C4.5 5.30625 4.608 5.03888 4.824 4.82288C5.04 4.60688 5.307 4.49925 5.625 4.5H12.375C12.6937 4.5 12.9611 4.608 13.1771 4.824C13.3931 5.04 13.5007 5.307 13.5 5.625C13.5 5.94375 13.392 6.21113 13.176 6.42713C12.96 6.64313 12.693 6.75075 12.375 6.75H5.625ZM2.25 13.5H10.6875C11.2312 13.5 11.7375 13.6174 12.2063 13.8521C12.675 14.0869 13.0687 14.4195 13.3875 14.85L15.75 17.9437V2.25H2.25V13.5ZM2.25 20.25H14.6812L11.6156 16.2281C11.5031 16.0781 11.3674 15.9607 11.2084 15.876C11.0494 15.7912 10.8757 15.7492 10.6875 15.75H2.25V20.25ZM15.75 22.5H2.25C1.63125 22.5 1.10138 22.2795 0.660377 21.8385C0.219377 21.3975 -0.00074809 20.868 1.91002e-06 20.25V2.25C1.91002e-06 1.63125 0.220502 1.10138 0.661502 0.660377C1.1025 0.219377 1.632 -0.00074809 2.25 1.91002e-06H15.75C16.3687 1.91002e-06 16.8986 0.220502 17.3396 0.661502C17.7806 1.1025 18.0007 1.632 18 2.25V20.25C18 20.8687 17.7795 21.3986 17.3385 21.8396C16.8975 22.2806 16.368 22.5007 15.75 22.5Z" fill="#8E8E8E"/>
</svg>
