<svg width="36" height="27" viewBox="0 0 36 27" fill="none" xmlns="http://www.w3.org/2000/svg">
<g filter="url(#filter0_d_1464_3225)">
<path d="M31.8754 2.38278V9.84096C31.8754 10.2118 31.7281 10.5675 31.4658 10.8298C31.2036 11.092 30.8479 11.2394 30.477 11.2394C30.1061 11.2394 29.7504 11.092 29.4882 10.8298C29.2259 10.5675 29.0786 10.2118 29.0786 9.84096V5.76227L20.2791 14.5629C20.1492 14.6933 19.9948 14.7967 19.8249 14.8673C19.6549 14.9379 19.4726 14.9742 19.2886 14.9742C19.1045 14.9742 18.9223 14.9379 18.7523 14.8673C18.5823 14.7967 18.428 14.6933 18.298 14.5629L14.6284 10.8898L7.22731 18.2885C6.9646 18.5512 6.6083 18.6988 6.23677 18.6988C5.86525 18.6988 5.50894 18.5512 5.24623 18.2885C4.98353 18.0258 4.83594 17.6695 4.83594 17.298C4.83594 16.9265 4.98352 16.5701 5.24623 16.3074L13.6367 7.91699C13.7666 7.78662 13.921 7.68318 14.091 7.6126C14.2609 7.54202 14.4432 7.50568 14.6272 7.50568C14.8113 7.50568 14.9935 7.54202 15.1635 7.6126C15.3335 7.68318 15.4878 7.78662 15.6178 7.91699L19.2897 11.589L27.0975 3.78119H23.0188C22.648 3.78119 22.2923 3.63386 22.03 3.37161C21.7678 3.10936 21.6204 2.75366 21.6204 2.38278C21.6204 2.0119 21.7678 1.65621 22.03 1.39396C22.2923 1.13171 22.648 0.984375 23.0188 0.984375H30.477C30.8479 0.984375 31.2036 1.13171 31.4658 1.39396C31.7281 1.65621 31.8754 2.0119 31.8754 2.38278Z" fill="#7FE588"/>
</g>
<defs>
<filter id="filter0_d_1464_3225" x="0.835938" y="0.984375" width="35.0391" height="25.7148" filterUnits="userSpaceOnUse" color-interpolation-filters="sRGB">
<feFlood flood-opacity="0" result="BackgroundImageFix"/>
<feColorMatrix in="SourceAlpha" type="matrix" values="0 0 0 0 0 0 0 0 0 0 0 0 0 0 0 0 0 0 127 0" result="hardAlpha"/>
<feOffset dy="4"/>
<feGaussianBlur stdDeviation="2"/>
<feComposite in2="hardAlpha" operator="out"/>
<feColorMatrix type="matrix" values="0 0 0 0 0 0 0 0 0 0 0 0 0 0 0 0 0 0 0.25 0"/>
<feBlend mode="normal" in2="BackgroundImageFix" result="effect1_dropShadow_1464_3225"/>
<feBlend mode="normal" in="SourceGraphic" in2="effect1_dropShadow_1464_3225" result="shape"/>
</filter>
</defs>
</svg>
