<svg width="28" height="9" viewBox="0 0 28 9" fill="none" xmlns="http://www.w3.org/2000/svg">
<path d="M24.468 5.83477H10.293C10.0096 5.83477 9.77197 5.73877 9.57997 5.54677C9.38797 5.35477 9.29231 5.11743 9.29297 4.83477C9.29297 4.55143 9.38897 4.31377 9.58097 4.12177C9.77297 3.92977 10.0103 3.8341 10.293 3.83477H24.468L23.068 2.43477C22.8846 2.25143 22.7973 2.0221 22.806 1.74677C22.8146 1.47143 22.9186 1.2341 23.118 1.03477C23.3013 0.851432 23.5346 0.759766 23.818 0.759766C24.1013 0.759766 24.3346 0.851432 24.518 1.03477L27.593 4.13477C27.693 4.23477 27.768 4.3431 27.818 4.45977C27.868 4.57643 27.8846 4.70143 27.868 4.83477C27.868 4.9681 27.847 5.0931 27.805 5.20977C27.763 5.32643 27.6923 5.43477 27.593 5.53477L24.493 8.63477C24.293 8.83477 24.0553 8.93077 23.78 8.92276C23.5046 8.91476 23.2756 8.81877 23.093 8.63477C22.893 8.43477 22.793 8.1971 22.793 7.92177C22.793 7.64643 22.8846 7.41743 23.068 7.23477L24.468 5.83477Z" fill="#FFBC35"/>
<path d="M3.40703 3.84785L17.582 3.84785C17.8654 3.84785 18.103 3.94385 18.295 4.13585C18.487 4.32785 18.5827 4.56519 18.582 4.84785C18.582 5.13119 18.486 5.36885 18.294 5.56085C18.102 5.75285 17.8647 5.84852 17.582 5.84785L3.40703 5.84785L4.80703 7.24785C4.99036 7.43118 5.07769 7.66052 5.06903 7.93585C5.06036 8.21118 4.95636 8.44852 4.75703 8.64785C4.57369 8.83118 4.34036 8.92285 4.05703 8.92285C3.77369 8.92285 3.54036 8.83118 3.35703 8.64785L0.282028 5.54785C0.182028 5.44785 0.107027 5.33952 0.0570281 5.22285C0.00702891 5.10618 -0.0096394 4.98118 0.00702703 4.84785C0.00702704 4.71452 0.0280289 4.58952 0.0700287 4.47285C0.112029 4.35618 0.182696 4.24785 0.282029 4.14785L3.38203 1.04785C3.58203 0.84785 3.8197 0.751851 4.09503 0.759851C4.37036 0.767852 4.59936 0.86385 4.78203 1.04785C4.98203 1.24785 5.08203 1.48552 5.08203 1.76085C5.08203 2.03618 4.99036 2.26518 4.80703 2.44785L3.40703 3.84785Z" fill="#FFBC35"/>
</svg>
