<svg width="28" height="19" viewBox="0 0 28 19" fill="none" xmlns="http://www.w3.org/2000/svg">
<path d="M27.0395 17.3008V9.84263C27.0395 9.47175 26.8922 9.11606 26.6299 8.85381C26.3676 8.59156 26.012 8.44422 25.6411 8.44422C25.2702 8.44422 24.9145 8.59156 24.6523 8.85381C24.39 9.11606 24.2427 9.47175 24.2427 9.84263V13.9213L15.4432 5.12067C15.3133 4.9903 15.1589 4.88686 14.9889 4.81628C14.8189 4.7457 14.6367 4.70937 14.4526 4.70937C14.2686 4.70937 14.0864 4.7457 13.9164 4.81628C13.7464 4.88686 13.592 4.9903 13.4621 5.12067L9.79245 8.79382L2.39137 1.39508C2.12867 1.13237 1.77236 0.984783 1.40083 0.984783C1.02931 0.984783 0.673002 1.13237 0.410295 1.39508C0.147588 1.65778 5.53614e-09 2.01409 0 2.38562C-5.53614e-09 2.75714 0.147587 3.11345 0.410295 3.37616L8.80075 11.7666C8.93066 11.897 9.08504 12.0004 9.25502 12.071C9.42499 12.1416 9.60723 12.1779 9.79128 12.1779C9.97533 12.1779 10.1576 12.1416 10.3276 12.071C10.4975 12.0004 10.6519 11.897 10.7818 11.7666L14.4538 8.09462L22.2616 15.9024H18.1829C17.812 15.9024 17.4563 16.0497 17.1941 16.312C16.9318 16.5742 16.7845 16.9299 16.7845 17.3008C16.7845 17.6717 16.9318 18.0274 17.1941 18.2896C17.4563 18.5519 17.812 18.6992 18.1829 18.6992H25.6411C26.012 18.6992 26.3676 18.5519 26.6299 18.2896C26.8922 18.0274 27.0395 17.6717 27.0395 17.3008Z" fill="#F65A27"/>
</svg>
