<svg width="21" height="21" viewBox="0 0 21 21" fill="none" xmlns="http://www.w3.org/2000/svg">
<path d="M10.1384 0.5C4.61844 0.5 0.148438 4.98 0.148438 10.5C0.148438 16.02 4.61844 20.5 10.1384 20.5C15.6684 20.5 20.1484 16.02 20.1484 10.5C20.1484 4.98 15.6684 0.5 10.1384 0.5ZM14.1484 14.5C14.0559 14.5927 13.946 14.6663 13.8251 14.7164C13.7041 14.7666 13.5744 14.7924 13.4434 14.7924C13.3125 14.7924 13.1828 14.7666 13.0618 14.7164C12.9408 14.6663 12.831 14.5927 12.7384 14.5L9.44844 11.21C9.35395 11.1174 9.27878 11.0069 9.22728 10.8851C9.17579 10.7632 9.14899 10.6323 9.14844 10.5V6.5C9.14844 5.95 9.59844 5.5 10.1484 5.5C10.6984 5.5 11.1484 5.95 11.1484 6.5V10.09L14.1484 13.09C14.5384 13.48 14.5384 14.11 14.1484 14.5Z" fill="black"/>
</svg>
