<?xml version="1.0" encoding="utf-8"?>
<!-- Generator: Adobe Illustrator 27.8.0, SVG Export Plug-In . SVG Version: 6.00 Build 0)  -->
<svg version="1.1" id="Layer_1" xmlns="http://www.w3.org/2000/svg" xmlns:xlink="http://www.w3.org/1999/xlink" x="0px" y="0px"
	 viewBox="0 0 1000 1000" style="enable-background:new 0 0 1000 1000;" xml:space="preserve">
<style type="text/css">
	.st0{fill:#EDEDED;}
	.st1{fill:#DADADA;}
	.st2{fill:#F65A27;}
	.st3{fill:#221F1F;}
	.st4{fill:#F05C2E;}
	.st5{fill:#4D91FE;}
	.st6{fill:url(#SVGID_1_);stroke:#DADADA;stroke-width:2.5042;}
	.st7{fill:#C23F20;}
	.st8{fill:#3963A1;}
	.st9{fill:#103B66;}
	.st10{fill:#183251;}
	.st11{fill:#010B1E;}
	.st12{fill:#022D54;}
	.st13{fill:#FFFFFF;}
</style>
<g>
	<polygon class="st0" points="5.1,8.9 5.1,51 5.1,59.5 5.1,84.8 260.1,84.8 260.1,59.5 260.1,51 260.1,8.9 	"/>
	<path class="st1" d="M261.6,86.2H3.6V7.4h258V86.2z M6.6,83.3h252.1v-73H6.6V83.3z"/>
	<polygon class="st2" points="13.5,65.2 13.5,28.4 31.9,46.8 	"/>
	<path class="st3" d="M127.1,55.2V29.1H139c2.8,0,5.3,0.5,7.5,1.6c2.2,1.1,3.9,2.6,5.1,4.5c1.2,1.9,1.8,4.2,1.8,6.9
		c0,2.6-0.6,4.9-1.8,6.9c-1.2,2-2.9,3.5-5.1,4.5c-2.2,1.1-4.7,1.6-7.5,1.6H127.1z M133.2,50.3h5.5c1.7,0,3.2-0.3,4.5-1
		c1.3-0.7,2.3-1.6,3-2.8c0.7-1.2,1.1-2.6,1.1-4.3c0-1.7-0.4-3.1-1.1-4.3c-0.7-1.2-1.7-2.1-3-2.8c-1.3-0.7-2.8-1-4.5-1h-5.5V50.3z"/>
	<path class="st3" d="M170.6,55.7c-2.1,0-4-0.3-5.7-1c-1.8-0.7-3.3-1.6-4.5-2.8c-1.3-1.2-2.3-2.6-3-4.3c-0.7-1.6-1.1-3.4-1.1-5.4
		c0-1.9,0.4-3.7,1.1-5.4c0.7-1.6,1.7-3.1,3-4.3c1.3-1.2,2.8-2.2,4.5-2.8c1.7-0.7,3.6-1,5.7-1c2.1,0,4,0.3,5.7,1
		c1.7,0.7,3.2,1.6,4.5,2.8c1.3,1.2,2.3,2.6,3,4.3c0.7,1.6,1.1,3.4,1.1,5.4c0,1.9-0.4,3.7-1.1,5.4c-0.7,1.7-1.7,3.1-3,4.3
		c-1.3,1.2-2.8,2.1-4.5,2.8C174.5,55.4,172.6,55.7,170.6,55.7 M170.6,50.6c1.2,0,2.2-0.2,3.2-0.6c1-0.4,1.8-1,2.6-1.7
		c0.7-0.7,1.3-1.6,1.7-2.6c0.4-1,0.6-2.1,0.6-3.4c0-1.2-0.2-2.4-0.6-3.4c-0.4-1-1-1.9-1.7-2.6c-0.7-0.7-1.6-1.3-2.6-1.7
		c-1-0.4-2.1-0.6-3.2-0.6c-1.2,0-2.2,0.2-3.2,0.6c-1,0.4-1.8,1-2.6,1.7c-0.7,0.7-1.3,1.6-1.7,2.6c-0.4,1-0.6,2.2-0.6,3.4
		c0,1.2,0.2,2.3,0.6,3.4c0.4,1,1,1.9,1.7,2.7c0.7,0.7,1.6,1.3,2.6,1.7C168.3,50.4,169.4,50.6,170.6,50.6"/>
	<polygon class="st3" points="218.8,55.2 218.7,29.1 213.8,29.1 204.3,45.2 196.2,29.1 189.4,29.1 189.4,55.2 195,55.2 195,39.9 
		202.7,52.5 205.4,52.5 213.1,39.6 213.1,55.2 	"/>
	<polygon class="st3" points="231,50.4 231,44.4 243.1,44.4 243.1,39.7 231,39.7 231,34 244.7,34 244.7,29.1 225,29.1 225,55.2 
		245.2,55.2 245.2,50.4 	"/>
	<path class="st4" d="M113.8,44.7L113.8,44.7l-0.5-3.1l-1.7-7.2l-0.2-0.6l-7.3-9.2l-0.5-0.6L93,17.2l-0.9-0.3l-10.7-1.7l-0.6,0.1
		l-8,2.1l-2.6,0.8l-9.9,3.8L60,22.2l-7.4,8.9l-1,1.6l0,0L47.2,43l0,0l-0.1,0.5l-0.1,11.7L47,55.5l28.5-0.2l39,0.2L113.8,44.7z
		 M112.8,41.8l-4.7-9.2l2.9,1.6L112.8,41.8z M113.1,43.5h-5.3l0.1-10.5L113.1,43.5z M110.3,33.3l-2.5-1.4l0-0.1l-0.1,0l-0.4-0.7v0
		l-1.2-2.4l-1.2-2.4L110.3,33.3z M97.8,43.4l2-10.3l7.3,10.4l-3.9,0L97.8,43.4L97.8,43.4L97.8,43.4z M70.1,43l-5,0.1l-6.2,0.1
		l6.7-10.7l3.9,8.7L70.1,43L70.1,43L70.1,43z M56.4,34.5l8.6-2.1l-1.7,2.7l-4.9,7.8L56.4,34.5z M58.1,43.2L50.8,43l1.2-1.8l4.1-6.3
		L58.1,43.2z M99.9,32.3l-1.7-8.6l8.9,8.2l-1.7,0.1l-5.3,0.3l0,0L99.9,32.3z M99.3,32l-10.8-7.2l9-1.7L99.3,32z M89.3,30.2l-1.1-4.9
		l10.8,7.1L95.3,33l-5.1,0.8L89.3,30.2z M89.7,33.8l-4.4-0.7l-6.1-1l6.8-5.5l1.7-1.4L89.7,33.8z M88.1,24.5l0-0.1L88,24.4l-3.5-6.5
		l12.4,4.9L88.1,24.5z M87.5,24.5l-12.3-1.7l8.7-4.9L87.5,24.5z M87.4,24.9l-8.6,7l-2.5-5.6l-1.4-3.1L87.4,24.9z M75.9,26.6l2.4,5.3
		l0,0l0,0.1l-4.5-0.1l-7.7-0.1l4.4-4.5l3.9-4L75.9,26.6z M65.6,31.6L65.6,31.6L65.6,31.6l-3.4-6.8l11.6-1.7L65.6,31.6z M65.2,31.9
		l-8.6,2.1l4.4-7.4l0.8-1.3L65.2,31.9z M67.7,36.3l-1.8-4.1l2.7,0l9.7,0.1l-7.7,10.3L67.7,36.3z M78.6,32.7l2.2,4.2l3.3,6.4
		l-5.4-0.1L71,43L78.6,32.7z M79.1,32.5l6.1,1l4.4,0.7l-2.1,3.7L84.5,43L79.1,32.5z M90,34.5l4.6,5.9l2.4,3.1l-12.1-0.1L90,34.5z
		 M90.4,34.2l8.2-1.3l0.8-0.1l-2,10.1L90.4,34.2z M100.1,32.7l5.6-0.3l1.6-0.1L107.3,43L100.1,32.7z M106.8,31l-8.1-7.6l4.7,1.1
		L106.8,31z M102.3,23.7l-4.3-1l0-0.1l-0.1,0l-3.7-4.1l-0.1-0.1L102.3,23.7z M92.6,17.5l1.3,1.5l3,3.4l-11.8-4.7L92.6,17.5z
		 M90.3,17.1l-5.4,0.1l0,0l-0.8,0l0-0.1l-0.1,0l-1.8-1.4L90.3,17.1z M81.3,15.6l2.1,1.6l-0.5,0l0,0l-9.1,0.3L81.3,15.6z M83.1,17.7
		l-8.5,4.8l0-0.1l0,0l-1.8-3.1l-0.7-1.2L83.1,17.7z M71.6,18.2l0.6,1.1l1.9,3.4l-4.2,0.6l-7.1,1l4.7-3.3L71.6,18.2z M70,18.8
		l-7.4,5.1l0.1-0.1l-0.7,0.5l-0.1-0.1l0,0L61,22.9l-0.4-0.6L70,18.8z M60.3,22.6l1.3,2l-0.6,0.4l0.1,0l-5.9,4.5l-1.4,1.1L60.3,22.6z
		 M61,25.6l-5,8.3l0,0.1l-2.2-1.3l-1.2-0.8L61,25.6z M53.9,33.2l1.9,1.2l-1.5,2.4l-3.5,5.4l1.6-9.8L53.9,33.2z M51.7,33.7l-1.5,9.2
		l-0.1,0l0,0l-2.3,0L51.7,33.7z M47.6,43.5l2.4,0L50,43.7l-2.4,9.7L47.6,43.5z M47.6,55l2.7-10.9l1.4,5.3l1.5,5.6H47.6z M51.8,47.6
		l-1.1-4.2l7.3,0.2l0,0l0.1,0l-2.9,7.1l-1.5,3.8L51.8,47.6z M54,55l2.6-6.5l1.8-4.6L63.7,55L54,55z M58.7,43.7l11.3-0.2L70,43.5
		l0.1,0l-6,11.2L58.7,43.7z M64.5,54.9l6.1-11.2l6.3,11.1L64.5,54.9z M77.2,54.4l-6.2-10.9l7.7,0.1l5.3,0.1l-6.7,10.8L77.2,54.4z
		 M77.7,54.8l2.8-4.5l3.9-6.3l6.3,11L77.7,54.8z M89.9,52.8l-5.1-9l12.3,0.1l-1.1,2l-4.9,8.9L89.9,52.8z M91.5,55.1l5.3-9.8l0.6-1.2
		l2.4,4.9l2.9,5.9L91.5,55.1z M97.8,43.9L97.8,43.9l0.2,0l0,0l9.2,0.1l-4.1,10.6L97.8,43.9z M103.5,55l4-10.5l2.5,7.4l1,3.1
		L103.5,55z M107.8,44l0.1,0l0,0h5.2l-1.9,10.3L107.8,44z M113.4,45.6L114,55l-2.4,0L113.4,45.6z"/>
	<path class="st4" d="M78.7,30.7c-0.8,0-1.5,0.7-1.5,1.5c0,0.8,0.7,1.5,1.5,1.5c0.8,0,1.5-0.7,1.5-1.5
		C80.2,31.4,79.5,30.7,78.7,30.7"/>
	<path class="st4" d="M65.6,30.5c-0.8,0-1.5,0.7-1.5,1.5c0,0.8,0.7,1.5,1.5,1.5c0.8,0,1.5-0.7,1.5-1.5
		C67.1,31.2,66.4,30.5,65.6,30.5"/>
	<path class="st4" d="M70.5,41.6c-0.8,0-1.5,0.7-1.5,1.5c0,0.8,0.7,1.5,1.5,1.5c0.8,0,1.5-0.7,1.5-1.5C72,42.2,71.3,41.6,70.5,41.6"
		/>
	<path class="st4" d="M84.5,41.8c-0.8,0-1.5,0.7-1.5,1.5c0,0.8,0.7,1.5,1.5,1.5c0.8,0,1.5-0.7,1.5-1.5C86,42.5,85.4,41.8,84.5,41.8"
		/>
	<path class="st4" d="M97.5,42c-0.8,0-1.5,0.7-1.5,1.5c0,0.8,0.7,1.5,1.5,1.5c0.8,0,1.5-0.7,1.5-1.5C99,42.6,98.3,42,97.5,42"/>
	<path class="st4" d="M107.5,42c-0.8,0-1.5,0.7-1.5,1.5c0,0.8,0.7,1.5,1.5,1.5c0.8,0,1.5-0.7,1.5-1.5C109,42.7,108.3,42,107.5,42"/>
	<path class="st4" d="M99.6,31c-0.8,0-1.5,0.7-1.5,1.5c0,0.8,0.7,1.5,1.5,1.5c0.8,0,1.5-0.7,1.5-1.5C101.1,31.7,100.4,31,99.6,31"/>
	<path class="st4" d="M107.5,30.6c-0.8,0-1.5,0.7-1.5,1.5c0,0.8,0.7,1.5,1.5,1.5c0.8,0,1.5-0.7,1.5-1.5
		C109,31.3,108.3,30.6,107.5,30.6"/>
	<path class="st4" d="M87.9,23.3c-0.8,0-1.5,0.7-1.5,1.5c0,0.8,0.7,1.5,1.5,1.5c0.8,0,1.5-0.7,1.5-1.5C89.4,24,88.8,23.3,87.9,23.3"
		/>
	<path class="st4" d="M74.4,21.3c-0.8,0-1.5,0.7-1.5,1.5c0,0.8,0.7,1.5,1.5,1.5c0.8,0,1.5-0.7,1.5-1.5C75.9,22,75.3,21.3,74.4,21.3"
		/>
	<path class="st4" d="M61.9,23.2c-0.8,0-1.5,0.7-1.5,1.5c0,0.8,0.7,1.5,1.5,1.5c0.8,0,1.5-0.7,1.5-1.5
		C63.4,23.9,62.7,23.2,61.9,23.2"/>
	<path class="st4" d="M56.1,32.7c-0.8,0-1.5,0.7-1.5,1.5c0,0.8,0.7,1.5,1.5,1.5c0.8,0,1.5-0.7,1.5-1.5C57.7,33.3,57,32.7,56.1,32.7"
		/>
	<path class="st4" d="M50.5,41.6c-0.8,0-1.5,0.7-1.5,1.5c0,0.8,0.7,1.5,1.5,1.5c0.8,0,1.5-0.7,1.5-1.5C52,42.3,51.3,41.6,50.5,41.6"
		/>
	<path class="st4" d="M97.7,21.5c-0.8,0-1.5,0.7-1.5,1.5c0,0.8,0.7,1.5,1.5,1.5c0.8,0,1.5-0.7,1.5-1.5
		C99.2,22.1,98.6,21.5,97.7,21.5"/>
	<path class="st4" d="M84,16.2c-0.8,0-1.5,0.7-1.5,1.5c0,0.8,0.7,1.5,1.5,1.5c0.8,0,1.5-0.7,1.5-1.5C85.5,16.8,84.8,16.2,84,16.2"/>
	<path class="st4" d="M58.4,41.8c-0.8,0-1.5,0.7-1.5,1.5c0,0.8,0.7,1.5,1.5,1.5c0.8,0,1.5-0.7,1.5-1.5
		C59.9,42.5,59.2,41.8,58.4,41.8"/>
	<path class="st4" d="M90,32.5c-0.8,0-1.5,0.7-1.5,1.5c0,0.8,0.7,1.5,1.5,1.5c0.8,0,1.5-0.7,1.5-1.5C91.5,33.2,90.8,32.5,90,32.5"/>
	<g>
		<path d="M47,75.8v-9.1h3.8c1,0,1.8,0.2,2.6,0.6c0.7,0.4,1.3,0.9,1.7,1.6c0.4,0.7,0.6,1.5,0.6,2.4c0,0.9-0.2,1.7-0.6,2.4
			c-0.4,0.7-1,1.2-1.7,1.6c-0.7,0.4-1.6,0.6-2.6,0.6H47z M48.3,74.7h2.5c0.8,0,1.4-0.1,2-0.4c0.6-0.3,1-0.7,1.3-1.2
			c0.3-0.5,0.5-1.1,0.5-1.8c0-0.7-0.2-1.3-0.5-1.8c-0.3-0.5-0.7-0.9-1.3-1.2c-0.6-0.3-1.2-0.4-2-0.4h-2.5V74.7z"/>
		<path d="M59.6,75.9c-0.5,0-1-0.1-1.3-0.3c-0.4-0.2-0.7-0.4-0.9-0.7c-0.2-0.3-0.3-0.7-0.3-1c0-0.4,0.1-0.7,0.3-1
			c0.2-0.3,0.5-0.5,0.9-0.7c0.4-0.2,0.9-0.3,1.6-0.3H62v0.9h-2.1c-0.6,0-1,0.1-1.3,0.3c-0.2,0.2-0.3,0.5-0.3,0.8
			c0,0.3,0.1,0.6,0.4,0.8c0.3,0.2,0.6,0.3,1.1,0.3c0.5,0,0.9-0.1,1.2-0.3c0.4-0.2,0.6-0.5,0.8-0.9l0.2,0.9c-0.2,0.4-0.5,0.7-0.9,1
			C60.8,75.8,60.2,75.9,59.6,75.9z M61.9,75.8v-1.5l-0.1-0.3v-2.5c0-0.5-0.2-0.9-0.5-1.2C61,70.1,60.6,70,60,70
			c-0.4,0-0.8,0.1-1.2,0.2c-0.4,0.1-0.7,0.3-1,0.5l-0.5-0.9c0.4-0.3,0.8-0.5,1.3-0.7c0.5-0.2,1-0.2,1.6-0.2c0.9,0,1.7,0.2,2.2,0.7
			c0.5,0.5,0.8,1.2,0.8,2.1v4.2H61.9z"/>
		<path d="M64.4,70v-1h4.4v1H64.4z M67.7,75.9c-0.7,0-1.2-0.2-1.6-0.6c-0.4-0.4-0.6-0.9-0.6-1.6v-6.3h1.2v6.3c0,0.4,0.1,0.7,0.3,0.9
			c0.2,0.2,0.5,0.3,0.8,0.3c0.4,0,0.7-0.1,1-0.3l0.4,0.9c-0.2,0.2-0.4,0.3-0.7,0.4C68.3,75.9,68,75.9,67.7,75.9z"/>
		<path d="M72.8,75.9c-0.5,0-1-0.1-1.3-0.3c-0.4-0.2-0.7-0.4-0.9-0.7c-0.2-0.3-0.3-0.7-0.3-1c0-0.4,0.1-0.7,0.3-1
			c0.2-0.3,0.5-0.5,0.9-0.7c0.4-0.2,0.9-0.3,1.6-0.3h2.2v0.9H73c-0.6,0-1,0.1-1.3,0.3c-0.2,0.2-0.3,0.5-0.3,0.8
			c0,0.3,0.1,0.6,0.4,0.8c0.3,0.2,0.6,0.3,1.1,0.3c0.5,0,0.9-0.1,1.2-0.3c0.4-0.2,0.6-0.5,0.8-0.9l0.2,0.9c-0.2,0.4-0.5,0.7-0.9,1
			C73.9,75.8,73.4,75.9,72.8,75.9z M75,75.8v-1.5L75,74.1v-2.5c0-0.5-0.2-0.9-0.5-1.2c-0.3-0.3-0.8-0.4-1.4-0.4
			c-0.4,0-0.8,0.1-1.2,0.2c-0.4,0.1-0.7,0.3-1,0.5l-0.5-0.9c0.4-0.3,0.8-0.5,1.3-0.7c0.5-0.2,1-0.2,1.6-0.2c0.9,0,1.7,0.2,2.2,0.7
			c0.5,0.5,0.8,1.2,0.8,2.1v4.2H75z"/>
		<path d="M82.2,75.8v-9.1h1.1l4.1,6.9h-0.6l4-6.9h1.1l0,9.1h-1.2l0-7.1h0.3l-3.6,6h-0.6l-3.6-6h0.3v7.1H82.2z"/>
		<path d="M96.5,75.9c-0.5,0-1-0.1-1.3-0.3c-0.4-0.2-0.7-0.4-0.9-0.7c-0.2-0.3-0.3-0.7-0.3-1c0-0.4,0.1-0.7,0.3-1
			c0.2-0.3,0.5-0.5,0.9-0.7c0.4-0.2,0.9-0.3,1.6-0.3h2.2v0.9h-2.1c-0.6,0-1,0.1-1.3,0.3c-0.2,0.2-0.3,0.5-0.3,0.8
			c0,0.3,0.1,0.6,0.4,0.8c0.3,0.2,0.6,0.3,1.1,0.3c0.5,0,0.9-0.1,1.2-0.3c0.4-0.2,0.6-0.5,0.8-0.9l0.2,0.9c-0.2,0.4-0.5,0.7-0.9,1
			C97.6,75.8,97.1,75.9,96.5,75.9z M98.7,75.8v-1.5l-0.1-0.3v-2.5c0-0.5-0.2-0.9-0.5-1.2c-0.3-0.3-0.8-0.4-1.4-0.4
			c-0.4,0-0.8,0.1-1.2,0.2c-0.4,0.1-0.7,0.3-1,0.5l-0.5-0.9c0.4-0.3,0.8-0.5,1.3-0.7c0.5-0.2,1-0.2,1.6-0.2c0.9,0,1.7,0.2,2.2,0.7
			c0.5,0.5,0.8,1.2,0.8,2.1v4.2H98.7z"/>
		<path d="M105.9,68.9c0.6,0,1.1,0.1,1.5,0.3c0.4,0.2,0.8,0.5,1,1c0.2,0.4,0.4,1,0.4,1.7v4h-1.2V72c0-0.7-0.2-1.2-0.5-1.5
			c-0.3-0.3-0.8-0.5-1.4-0.5c-0.4,0-0.8,0.1-1.2,0.3c-0.3,0.2-0.6,0.4-0.8,0.8c-0.2,0.3-0.3,0.8-0.3,1.3v3.6h-1.2V69h1.2v1.9
			l-0.2-0.5c0.2-0.5,0.6-0.8,1-1.1C104.7,69,105.3,68.9,105.9,68.9z"/>
		<path d="M113.1,75.9c-0.5,0-1-0.1-1.3-0.3c-0.4-0.2-0.7-0.4-0.9-0.7c-0.2-0.3-0.3-0.7-0.3-1c0-0.4,0.1-0.7,0.3-1
			c0.2-0.3,0.5-0.5,0.9-0.7c0.4-0.2,0.9-0.3,1.6-0.3h2.2v0.9h-2.1c-0.6,0-1,0.1-1.3,0.3c-0.2,0.2-0.3,0.5-0.3,0.8
			c0,0.3,0.1,0.6,0.4,0.8c0.3,0.2,0.6,0.3,1.1,0.3c0.5,0,0.9-0.1,1.2-0.3c0.4-0.2,0.6-0.5,0.8-0.9l0.2,0.9c-0.2,0.4-0.5,0.7-0.9,1
			C114.3,75.8,113.7,75.9,113.1,75.9z M115.4,75.8v-1.5l-0.1-0.3v-2.5c0-0.5-0.2-0.9-0.5-1.2c-0.3-0.3-0.8-0.4-1.4-0.4
			c-0.4,0-0.8,0.1-1.2,0.2c-0.4,0.1-0.7,0.3-1,0.5l-0.5-0.9c0.4-0.3,0.8-0.5,1.3-0.7c0.5-0.2,1-0.2,1.6-0.2c0.9,0,1.7,0.2,2.2,0.7
			c0.5,0.5,0.8,1.2,0.8,2.1v4.2H115.4z"/>
		<path d="M121.7,75.6c-0.7,0-1.3-0.1-1.8-0.4c-0.5-0.3-0.9-0.7-1.2-1.2c-0.3-0.5-0.5-1.1-0.5-1.7c0-0.7,0.2-1.3,0.5-1.7
			c0.3-0.5,0.7-0.9,1.2-1.2c0.5-0.3,1.1-0.4,1.8-0.4c0.6,0,1.1,0.1,1.6,0.4c0.5,0.2,0.9,0.6,1.2,1.1c0.3,0.5,0.4,1.1,0.4,1.9
			c0,0.7-0.1,1.4-0.4,1.9c-0.3,0.5-0.7,0.9-1.2,1.1C122.9,75.4,122.3,75.6,121.7,75.6z M121.9,78.4c-0.6,0-1.2-0.1-1.8-0.3
			c-0.6-0.2-1.1-0.4-1.5-0.8l0.6-1c0.3,0.3,0.7,0.5,1.2,0.7c0.5,0.2,1,0.2,1.5,0.2c0.8,0,1.4-0.2,1.8-0.6c0.4-0.4,0.6-1,0.6-1.7
			v-1.5l0.1-1.4l-0.1-1.4V69h1.2v6c0,1.2-0.3,2.1-0.9,2.7C123.9,78.2,123.1,78.4,121.9,78.4z M121.9,74.5c0.5,0,0.9-0.1,1.2-0.3
			c0.4-0.2,0.6-0.5,0.8-0.8c0.2-0.3,0.3-0.7,0.3-1.2c0-0.4-0.1-0.8-0.3-1.2c-0.2-0.3-0.5-0.6-0.8-0.8c-0.4-0.2-0.8-0.3-1.2-0.3
			c-0.5,0-0.9,0.1-1.2,0.3c-0.4,0.2-0.6,0.4-0.8,0.8c-0.2,0.3-0.3,0.7-0.3,1.2c0,0.4,0.1,0.8,0.3,1.2c0.2,0.3,0.5,0.6,0.8,0.8
			C121,74.4,121.4,74.5,121.9,74.5z"/>
		<path d="M130.9,75.9c-0.7,0-1.4-0.2-1.9-0.5c-0.6-0.3-1-0.7-1.3-1.2c-0.3-0.5-0.5-1.1-0.5-1.8c0-0.7,0.1-1.3,0.4-1.8
			c0.3-0.5,0.7-0.9,1.2-1.2c0.5-0.3,1.1-0.4,1.8-0.4c0.7,0,1.3,0.1,1.8,0.4c0.5,0.3,0.9,0.7,1.2,1.2c0.3,0.5,0.4,1.2,0.4,1.9
			c0,0.1,0,0.1,0,0.2c0,0.1,0,0.1,0,0.2h-5.9v-0.9h5.2l-0.5,0.3c0-0.4-0.1-0.8-0.3-1.2c-0.2-0.3-0.5-0.6-0.8-0.8
			c-0.3-0.2-0.7-0.3-1.2-0.3c-0.4,0-0.8,0.1-1.2,0.3c-0.3,0.2-0.6,0.5-0.8,0.8c-0.2,0.4-0.3,0.8-0.3,1.2v0.2c0,0.5,0.1,0.9,0.3,1.2
			c0.2,0.4,0.5,0.6,0.9,0.8c0.4,0.2,0.8,0.3,1.3,0.3c0.4,0,0.8-0.1,1.1-0.2c0.3-0.1,0.6-0.3,0.9-0.6l0.7,0.8
			c-0.3,0.4-0.7,0.6-1.2,0.8C132,75.8,131.5,75.9,130.9,75.9z"/>
		<path d="M144.4,68.9c0.6,0,1,0.1,1.5,0.3c0.4,0.2,0.8,0.5,1,1c0.2,0.4,0.4,1,0.4,1.7v4H146V72c0-0.7-0.2-1.2-0.5-1.5
			c-0.3-0.3-0.8-0.5-1.3-0.5c-0.4,0-0.8,0.1-1.1,0.3c-0.3,0.2-0.6,0.4-0.7,0.8c-0.2,0.3-0.3,0.8-0.3,1.3v3.6h-1.2V72
			c0-0.7-0.2-1.2-0.5-1.5c-0.3-0.3-0.7-0.5-1.3-0.5c-0.4,0-0.8,0.1-1.1,0.3c-0.3,0.2-0.6,0.4-0.7,0.8c-0.2,0.3-0.3,0.8-0.3,1.3v3.6
			h-1.2V69h1.2v1.8l-0.2-0.5c0.2-0.5,0.6-0.8,1-1.1c0.5-0.3,1-0.4,1.6-0.4c0.7,0,1.2,0.2,1.7,0.5c0.5,0.3,0.8,0.8,0.9,1.5l-0.5-0.2
			c0.2-0.5,0.6-1,1.1-1.3S143.7,68.9,144.4,68.9z"/>
		<path d="M152.6,75.9c-0.7,0-1.4-0.2-1.9-0.5c-0.6-0.3-1-0.7-1.3-1.2c-0.3-0.5-0.5-1.1-0.5-1.8c0-0.7,0.1-1.3,0.4-1.8
			c0.3-0.5,0.7-0.9,1.2-1.2c0.5-0.3,1.1-0.4,1.8-0.4c0.7,0,1.3,0.1,1.8,0.4c0.5,0.3,0.9,0.7,1.2,1.2c0.3,0.5,0.4,1.2,0.4,1.9
			c0,0.1,0,0.1,0,0.2c0,0.1,0,0.1,0,0.2h-5.9v-0.9h5.2l-0.5,0.3c0-0.4-0.1-0.8-0.3-1.2c-0.2-0.3-0.5-0.6-0.8-0.8
			c-0.3-0.2-0.7-0.3-1.2-0.3c-0.4,0-0.8,0.1-1.2,0.3c-0.3,0.2-0.6,0.5-0.8,0.8c-0.2,0.4-0.3,0.8-0.3,1.2v0.2c0,0.5,0.1,0.9,0.3,1.2
			c0.2,0.4,0.5,0.6,0.9,0.8c0.4,0.2,0.8,0.3,1.3,0.3c0.4,0,0.8-0.1,1.1-0.2c0.3-0.1,0.6-0.3,0.9-0.6l0.7,0.8
			c-0.3,0.4-0.7,0.6-1.2,0.8C153.7,75.8,153.2,75.9,152.6,75.9z"/>
		<path d="M161.2,68.9c0.6,0,1.1,0.1,1.5,0.3c0.4,0.2,0.8,0.5,1,1c0.2,0.4,0.4,1,0.4,1.7v4h-1.2V72c0-0.7-0.2-1.2-0.5-1.5
			S161.5,70,161,70c-0.4,0-0.8,0.1-1.2,0.3c-0.3,0.2-0.6,0.4-0.8,0.8c-0.2,0.3-0.3,0.8-0.3,1.3v3.6h-1.2V69h1.2v1.9l-0.2-0.5
			c0.2-0.5,0.6-0.8,1-1.1C160,69,160.6,68.9,161.2,68.9z"/>
		<path d="M165.4,70v-1h4.4v1H165.4z M168.7,75.9c-0.7,0-1.2-0.2-1.6-0.6c-0.4-0.4-0.6-0.9-0.6-1.6v-6.3h1.2v6.3
			c0,0.4,0.1,0.7,0.3,0.9c0.2,0.2,0.5,0.3,0.8,0.3c0.4,0,0.7-0.1,1-0.3l0.4,0.9c-0.2,0.2-0.4,0.3-0.7,0.4
			C169.3,75.9,169,75.9,168.7,75.9z"/>
		<path d="M183.9,68.9c0.6,0,1,0.1,1.5,0.3c0.4,0.2,0.8,0.5,1,1s0.4,1,0.4,1.7v4h-1.2V72c0-0.7-0.2-1.2-0.5-1.5s-0.8-0.5-1.3-0.5
			c-0.4,0-0.8,0.1-1.1,0.3c-0.3,0.2-0.6,0.4-0.7,0.8c-0.2,0.3-0.3,0.8-0.3,1.3v3.6h-1.2V72c0-0.7-0.2-1.2-0.5-1.5s-0.7-0.5-1.3-0.5
			c-0.4,0-0.8,0.1-1.1,0.3c-0.3,0.2-0.6,0.4-0.7,0.8c-0.2,0.3-0.3,0.8-0.3,1.3v3.6h-1.2V69h1.2v1.8l-0.2-0.5c0.2-0.5,0.6-0.8,1-1.1
			c0.5-0.3,1-0.4,1.6-0.4c0.7,0,1.2,0.2,1.7,0.5c0.5,0.3,0.8,0.8,0.9,1.5l-0.5-0.2c0.2-0.5,0.6-1,1.1-1.3
			C182.6,69,183.2,68.9,183.9,68.9z"/>
		<path d="M191,75.9c-0.5,0-1-0.1-1.3-0.3c-0.4-0.2-0.7-0.4-0.9-0.7c-0.2-0.3-0.3-0.7-0.3-1c0-0.4,0.1-0.7,0.3-1
			c0.2-0.3,0.5-0.5,0.9-0.7c0.4-0.2,0.9-0.3,1.6-0.3h2.2v0.9h-2.1c-0.6,0-1,0.1-1.3,0.3c-0.2,0.2-0.3,0.5-0.3,0.8
			c0,0.3,0.1,0.6,0.4,0.8c0.3,0.2,0.6,0.3,1.1,0.3c0.5,0,0.9-0.1,1.2-0.3c0.4-0.2,0.6-0.5,0.8-0.9l0.2,0.9c-0.2,0.4-0.5,0.7-0.9,1
			C192.2,75.8,191.7,75.9,191,75.9z M193.3,75.8v-1.5l-0.1-0.3v-2.5c0-0.5-0.2-0.9-0.5-1.2c-0.3-0.3-0.8-0.4-1.4-0.4
			c-0.4,0-0.8,0.1-1.2,0.2c-0.4,0.1-0.7,0.3-1,0.5l-0.5-0.9c0.4-0.3,0.8-0.5,1.3-0.7c0.5-0.2,1-0.2,1.6-0.2c0.9,0,1.7,0.2,2.2,0.7
			c0.5,0.5,0.8,1.2,0.8,2.1v4.2H193.3z"/>
		<path d="M199.6,75.9c-0.7,0-1.3-0.1-1.8-0.4c-0.5-0.3-0.9-0.7-1.2-1.2c-0.3-0.5-0.5-1.1-0.5-1.8s0.2-1.3,0.5-1.8
			c0.3-0.5,0.7-0.9,1.2-1.2c0.5-0.3,1.1-0.4,1.8-0.4c0.6,0,1.1,0.1,1.6,0.4c0.5,0.3,0.8,0.7,1.1,1.2c0.3,0.5,0.4,1.2,0.4,2
			c0,0.8-0.1,1.4-0.4,2c-0.3,0.5-0.6,0.9-1.1,1.2C200.8,75.8,200.2,75.9,199.6,75.9z M199.7,74.8c0.4,0,0.8-0.1,1.2-0.3
			c0.4-0.2,0.6-0.5,0.8-0.9c0.2-0.4,0.3-0.8,0.3-1.3c0-0.5-0.1-0.9-0.3-1.3c-0.2-0.4-0.5-0.6-0.8-0.8c-0.4-0.2-0.7-0.3-1.2-0.3
			c-0.4,0-0.8,0.1-1.2,0.3c-0.3,0.2-0.6,0.5-0.8,0.8c-0.2,0.4-0.3,0.8-0.3,1.3c0,0.5,0.1,0.9,0.3,1.3c0.2,0.4,0.5,0.7,0.8,0.9
			C198.9,74.7,199.3,74.8,199.7,74.8z M202.1,75.8V74l0.1-1.6l-0.1-1.6v-4.6h1.2v9.7H202.1z"/>
		<path d="M208.7,75.9c-0.7,0-1.4-0.2-1.9-0.5c-0.6-0.3-1-0.7-1.3-1.2c-0.3-0.5-0.5-1.1-0.5-1.8c0-0.7,0.1-1.3,0.4-1.8
			c0.3-0.5,0.7-0.9,1.2-1.2c0.5-0.3,1.1-0.4,1.8-0.4c0.7,0,1.3,0.1,1.8,0.4c0.5,0.3,0.9,0.7,1.2,1.2c0.3,0.5,0.4,1.2,0.4,1.9
			c0,0.1,0,0.1,0,0.2c0,0.1,0,0.1,0,0.2H206v-0.9h5.2l-0.5,0.3c0-0.4-0.1-0.8-0.3-1.2c-0.2-0.3-0.5-0.6-0.8-0.8
			c-0.3-0.2-0.7-0.3-1.2-0.3c-0.4,0-0.8,0.1-1.2,0.3c-0.3,0.2-0.6,0.5-0.8,0.8c-0.2,0.4-0.3,0.8-0.3,1.2v0.2c0,0.5,0.1,0.9,0.3,1.2
			c0.2,0.4,0.5,0.6,0.9,0.8c0.4,0.2,0.8,0.3,1.3,0.3c0.4,0,0.8-0.1,1.1-0.2c0.3-0.1,0.6-0.3,0.9-0.6l0.7,0.8
			c-0.3,0.4-0.7,0.6-1.2,0.8C209.8,75.8,209.3,75.9,208.7,75.9z"/>
		<path d="M220.2,75.9c-0.7,0-1.4-0.2-1.9-0.5c-0.6-0.3-1-0.7-1.3-1.2c-0.3-0.5-0.5-1.1-0.5-1.8c0-0.7,0.1-1.3,0.4-1.8
			c0.3-0.5,0.7-0.9,1.2-1.2c0.5-0.3,1.1-0.4,1.8-0.4c0.7,0,1.3,0.1,1.8,0.4c0.5,0.3,0.9,0.7,1.2,1.2c0.3,0.5,0.4,1.2,0.4,1.9
			c0,0.1,0,0.1,0,0.2c0,0.1,0,0.1,0,0.2h-5.9v-0.9h5.2l-0.5,0.3c0-0.4-0.1-0.8-0.3-1.2c-0.2-0.3-0.5-0.6-0.8-0.8
			c-0.3-0.2-0.7-0.3-1.2-0.3c-0.4,0-0.8,0.1-1.2,0.3c-0.3,0.2-0.6,0.5-0.8,0.8c-0.2,0.4-0.3,0.8-0.3,1.2v0.2c0,0.5,0.1,0.9,0.3,1.2
			c0.2,0.4,0.5,0.6,0.9,0.8c0.4,0.2,0.8,0.3,1.3,0.3c0.4,0,0.8-0.1,1.1-0.2c0.3-0.1,0.6-0.3,0.9-0.6l0.7,0.8
			c-0.3,0.4-0.7,0.6-1.2,0.8C221.3,75.8,220.8,75.9,220.2,75.9z"/>
		<path d="M226.9,75.9c-0.5,0-1-0.1-1.3-0.3c-0.4-0.2-0.7-0.4-0.9-0.7c-0.2-0.3-0.3-0.7-0.3-1c0-0.4,0.1-0.7,0.3-1
			c0.2-0.3,0.5-0.5,0.9-0.7c0.4-0.2,0.9-0.3,1.6-0.3h2.2v0.9h-2.1c-0.6,0-1,0.1-1.3,0.3c-0.2,0.2-0.3,0.5-0.3,0.8
			c0,0.3,0.1,0.6,0.4,0.8c0.3,0.2,0.6,0.3,1.1,0.3c0.5,0,0.9-0.1,1.2-0.3c0.4-0.2,0.6-0.5,0.8-0.9l0.2,0.9c-0.2,0.4-0.5,0.7-0.9,1
			C228.1,75.8,227.5,75.9,226.9,75.9z M229.2,75.8v-1.5l-0.1-0.3v-2.5c0-0.5-0.2-0.9-0.5-1.2c-0.3-0.3-0.8-0.4-1.4-0.4
			c-0.4,0-0.8,0.1-1.2,0.2c-0.4,0.1-0.7,0.3-1,0.5l-0.5-0.9c0.4-0.3,0.8-0.5,1.3-0.7c0.5-0.2,1-0.2,1.6-0.2c0.9,0,1.7,0.2,2.2,0.7
			c0.5,0.5,0.8,1.2,0.8,2.1v4.2H229.2z"/>
		<path d="M234.6,75.9c-0.6,0-1.1-0.1-1.6-0.2c-0.5-0.2-0.9-0.3-1.2-0.6l0.5-1c0.3,0.2,0.7,0.4,1.1,0.5c0.4,0.1,0.9,0.2,1.3,0.2
			c0.6,0,1-0.1,1.3-0.2c0.3-0.2,0.4-0.4,0.4-0.7c0-0.2-0.1-0.4-0.2-0.5c-0.2-0.1-0.4-0.2-0.6-0.3c-0.3-0.1-0.5-0.1-0.9-0.2
			c-0.3,0-0.6-0.1-0.9-0.2s-0.6-0.2-0.9-0.3c-0.3-0.1-0.5-0.3-0.6-0.6c-0.2-0.2-0.2-0.6-0.2-1c0-0.4,0.1-0.8,0.4-1.1
			c0.2-0.3,0.6-0.6,1-0.7c0.4-0.2,0.9-0.3,1.5-0.3c0.5,0,0.9,0.1,1.4,0.2c0.5,0.1,0.8,0.3,1.1,0.5l-0.5,1c-0.3-0.2-0.6-0.4-1-0.4
			c-0.3-0.1-0.7-0.1-1-0.1c-0.5,0-1,0.1-1.2,0.3c-0.3,0.2-0.4,0.4-0.4,0.7c0,0.2,0.1,0.4,0.2,0.5c0.2,0.1,0.4,0.2,0.6,0.3
			c0.3,0.1,0.5,0.1,0.9,0.2c0.3,0,0.6,0.1,0.9,0.2c0.3,0.1,0.6,0.2,0.9,0.3c0.3,0.1,0.5,0.3,0.6,0.5c0.2,0.2,0.2,0.5,0.2,0.9
			c0,0.4-0.1,0.8-0.4,1.1c-0.2,0.3-0.6,0.5-1,0.7C235.8,75.8,235.3,75.9,234.6,75.9z"/>
		<path d="M239.4,78.4c-0.3,0-0.7-0.1-1-0.2c-0.3-0.1-0.6-0.3-0.8-0.5l0.5-0.9c0.2,0.2,0.4,0.3,0.6,0.4c0.2,0.1,0.4,0.1,0.7,0.1
			c0.3,0,0.6-0.1,0.8-0.2c0.2-0.2,0.4-0.4,0.6-0.8l0.4-0.9l0.1-0.2l2.7-6.3h1.2l-3.3,7.6c-0.2,0.5-0.4,0.9-0.7,1.1
			c-0.2,0.3-0.5,0.5-0.8,0.6C240,78.4,239.7,78.4,239.4,78.4z M241,76.1l-3.1-7.1h1.3l2.7,6.1L241,76.1z"/>
	</g>
	<g>
		<path class="st4" d="M245.2,62H46.9c-0.2,0-0.4-0.2-0.4-0.4s0.2-0.4,0.4-0.4h198.2c0.2,0,0.4,0.2,0.4,0.4S245.4,62,245.2,62z"/>
	</g>
</g>
<g>
	<polygon class="st0" points="739.9,8.9 739.9,51 739.9,59.5 739.9,84.8 994.9,84.8 994.9,59.5 994.9,51 994.9,8.9 	"/>
	<path class="st1" d="M996.4,86.2h-258V7.4h258V86.2z M741.3,83.3h252.1v-73H741.3V83.3z"/>
	<polygon class="st5" points="748.3,65.2 748.3,28.4 766.7,46.8 	"/>
	<path d="M787.9,40c-1.2,0-2.3-0.3-3.2-0.8c-0.9-0.5-1.7-1.3-2.2-2.3c-0.5-1-0.8-2.1-0.8-3.4c0-1.3,0.3-2.5,0.8-3.4
		c0.5-1,1.3-1.7,2.3-2.3c1-0.5,2.1-0.8,3.3-0.8c0.6,0,1.2,0.1,1.8,0.2c0.6,0.1,1.1,0.3,1.5,0.5l-0.2,1.6c-0.4-0.2-0.9-0.4-1.5-0.5
		c-0.5-0.1-1.1-0.2-1.7-0.2c-1,0-1.8,0.2-2.5,0.7c-0.7,0.4-1.2,1-1.5,1.8c-0.3,0.7-0.5,1.6-0.5,2.5c0,0.9,0.2,1.8,0.5,2.5
		c0.3,0.7,0.8,1.3,1.5,1.8c0.7,0.4,1.5,0.7,2.5,0.7c0.6,0,1.2-0.1,1.7-0.2c0.5-0.1,1-0.3,1.5-0.5l0.2,1.6c-0.4,0.2-0.9,0.4-1.5,0.5
		C789.3,39.9,788.7,40,787.9,40z"/>
	<path d="M796.6,39.9c-0.9,0-1.7-0.2-2.3-0.6c-0.6-0.4-1.1-1-1.5-1.6c-0.3-0.7-0.5-1.5-0.5-2.3c0-0.8,0.2-1.6,0.5-2.3
		c0.3-0.7,0.8-1.2,1.5-1.6c0.6-0.4,1.4-0.6,2.3-0.6c0.9,0,1.7,0.2,2.3,0.6c0.6,0.4,1.1,1,1.5,1.6c0.3,0.7,0.5,1.5,0.5,2.3
		c0,0.8-0.2,1.6-0.5,2.3c-0.3,0.7-0.8,1.2-1.5,1.6C798.3,39.7,797.5,39.9,796.6,39.9z M796.6,38.5c0.9,0,1.5-0.3,2-0.8
		c0.5-0.5,0.7-1.3,0.7-2.3c0-1-0.2-1.7-0.7-2.3c-0.5-0.5-1.1-0.8-2-0.8c-0.9,0-1.5,0.3-2,0.8c-0.5,0.5-0.7,1.3-0.7,2.3
		c0,1,0.2,1.7,0.7,2.3C795.1,38.2,795.7,38.5,796.6,38.5z"/>
	<path d="M804.8,39.7l-3.3-8.7h1.8l2.4,7l2.4-7h1.8l-3.3,8.7H804.8z"/>
	<path d="M815.2,39.9c-1,0-1.9-0.2-2.6-0.6c-0.7-0.4-1.2-1-1.6-1.7c-0.4-0.7-0.5-1.5-0.5-2.3c0-0.8,0.2-1.6,0.5-2.2
		c0.3-0.7,0.8-1.2,1.5-1.6c0.6-0.4,1.4-0.6,2.3-0.6c0.7,0,1.4,0.1,1.9,0.4c0.6,0.3,1,0.7,1.3,1.3c0.3,0.5,0.5,1.2,0.5,2
		c0,0.1,0,0.3,0,0.4c0,0.1,0,0.3-0.1,0.4h-6.3c0.1,0.8,0.3,1.4,0.6,1.9s0.7,0.8,1.2,1c0.5,0.2,1,0.3,1.5,0.3c0.4,0,0.8,0,1.3-0.1
		c0.4-0.1,0.9-0.2,1.2-0.4l0.2,1.3c-0.3,0.1-0.8,0.3-1.2,0.5C816.4,39.8,815.8,39.9,815.2,39.9z M812.3,34.3h4.6
		c0-0.4-0.1-0.8-0.2-1.1c-0.2-0.3-0.4-0.5-0.7-0.7c-0.3-0.2-0.7-0.2-1.2-0.2c-0.7,0-1.3,0.2-1.6,0.5
		C812.7,33.1,812.4,33.6,812.3,34.3z"/>
	<path d="M820.1,39.7V31h1.3l0.2,1.4c0.4-0.6,0.9-1,1.3-1.2c0.4-0.3,0.8-0.4,1.3-0.4c0.1,0,0.3,0,0.4,0.1l-0.2,1.8
		c-0.1,0-0.2,0-0.2,0c-0.1,0-0.2,0-0.3,0c-0.5,0-0.9,0.1-1.3,0.3c-0.4,0.2-0.7,0.4-0.8,0.7v6.2H820.1z"/>
	<path d="M829.7,39.9c-1,0-1.9-0.2-2.6-0.6c-0.7-0.4-1.2-1-1.6-1.7c-0.4-0.7-0.5-1.5-0.5-2.3c0-0.8,0.2-1.6,0.5-2.2
		c0.3-0.7,0.8-1.2,1.5-1.6c0.6-0.4,1.4-0.6,2.3-0.6c0.7,0,1.4,0.1,1.9,0.4c0.6,0.3,1,0.7,1.3,1.3c0.3,0.5,0.5,1.2,0.5,2
		c0,0.1,0,0.3,0,0.4c0,0.1,0,0.3-0.1,0.4h-6.3c0.1,0.8,0.3,1.4,0.6,1.9s0.7,0.8,1.2,1c0.5,0.2,1,0.3,1.5,0.3c0.4,0,0.8,0,1.3-0.1
		c0.4-0.1,0.9-0.2,1.2-0.4l0.2,1.3c-0.3,0.1-0.8,0.3-1.2,0.5C830.9,39.8,830.4,39.9,829.7,39.9z M826.8,34.3h4.6
		c0-0.4-0.1-0.8-0.2-1.1c-0.2-0.3-0.4-0.5-0.7-0.7c-0.3-0.2-0.7-0.2-1.2-0.2c-0.7,0-1.3,0.2-1.6,0.5C827.2,33.1,827,33.6,826.8,34.3
		z"/>
	<path d="M838.1,39.9c-0.7,0-1.4-0.2-2-0.6c-0.6-0.4-1.1-0.9-1.4-1.6c-0.4-0.7-0.5-1.4-0.5-2.3c0-0.8,0.2-1.6,0.5-2.2
		c0.3-0.7,0.8-1.3,1.4-1.7s1.3-0.6,2.1-0.6c0.6,0,1.1,0.1,1.7,0.4c0.5,0.3,1,0.7,1.3,1.3l-0.3,0.2v-6.3h1.6v13.4H841l-0.3-1.9
		l0.4,0.3c-0.3,0.6-0.7,1-1.2,1.3C839.3,39.8,838.8,39.9,838.1,39.9z M838.4,38.5c0.4,0,0.8-0.1,1.2-0.3c0.4-0.2,0.7-0.5,1-1
		c0.3-0.5,0.4-1.1,0.4-1.8c0-0.7-0.1-1.3-0.4-1.7c-0.3-0.5-0.6-0.8-1-1.1c-0.4-0.2-0.8-0.4-1.2-0.4c-0.5,0-1,0.1-1.4,0.4
		c-0.4,0.3-0.7,0.6-0.9,1.1c-0.2,0.5-0.3,1-0.3,1.6c0,0.6,0.1,1.1,0.3,1.6c0.2,0.5,0.5,0.8,0.9,1.1
		C837.4,38.4,837.9,38.5,838.4,38.5z"/>
	<path d="M852.9,39.9c-0.6,0-1.2-0.1-1.8-0.4c-0.6-0.3-1-0.7-1.2-1.3l0.4-0.3l-0.3,1.9h-1.4V26.4h1.6v6.3l-0.3-0.2
		c0.3-0.5,0.7-0.9,1.3-1.2c0.6-0.3,1.1-0.5,1.8-0.5c0.8,0,1.5,0.2,2.1,0.6c0.6,0.4,1,1,1.4,1.7c0.3,0.7,0.5,1.4,0.5,2.2
		c0,0.8-0.2,1.6-0.5,2.3c-0.4,0.7-0.8,1.2-1.4,1.6C854.3,39.7,853.6,39.9,852.9,39.9z M852.7,38.5c0.5,0,1-0.1,1.3-0.4
		c0.4-0.3,0.7-0.7,0.9-1.1c0.2-0.5,0.3-1,0.3-1.6c0-0.6-0.1-1.1-0.3-1.6c-0.2-0.5-0.5-0.8-0.9-1.1s-0.8-0.4-1.3-0.4
		c-0.5,0-0.9,0.1-1.3,0.3c-0.4,0.2-0.7,0.6-1,1c-0.2,0.5-0.4,1-0.4,1.7c0,0.7,0.1,1.3,0.4,1.8c0.2,0.5,0.6,0.8,1,1
		C851.8,38.4,852.2,38.5,852.7,38.5z"/>
	<path d="M858.9,44.1l2-4.7l-3.6-8.3h1.8l2.7,6.5l2.5-6.5h1.8l-5.3,13H858.9z"/>
	<path d="M874.1,39.7V28.8h-3.6v-1.5h9v1.5h-3.6v10.9H874.1z"/>
	<path d="M883.6,39.9c-1,0-1.9-0.2-2.6-0.6c-0.7-0.4-1.2-1-1.6-1.7c-0.4-0.7-0.5-1.5-0.5-2.3c0-0.8,0.2-1.6,0.5-2.2
		c0.3-0.7,0.8-1.2,1.5-1.6c0.6-0.4,1.4-0.6,2.3-0.6c0.7,0,1.4,0.1,1.9,0.4c0.6,0.3,1,0.7,1.3,1.3c0.3,0.5,0.5,1.2,0.5,2
		c0,0.1,0,0.3,0,0.4c0,0.1,0,0.3-0.1,0.4h-6.3c0.1,0.8,0.3,1.4,0.6,1.9s0.7,0.8,1.2,1c0.5,0.2,1,0.3,1.5,0.3c0.4,0,0.8,0,1.3-0.1
		c0.4-0.1,0.9-0.2,1.2-0.4l0.2,1.3c-0.3,0.1-0.8,0.3-1.2,0.5C884.7,39.8,884.2,39.9,883.6,39.9z M880.6,34.3h4.6
		c0-0.4-0.1-0.8-0.2-1.1c-0.2-0.3-0.4-0.5-0.7-0.7c-0.3-0.2-0.7-0.2-1.2-0.2c-0.7,0-1.3,0.2-1.6,0.5C881,33.1,880.8,33.6,880.6,34.3
		z"/>
	<path d="M892.5,39.9c-1,0-1.8-0.2-2.5-0.6c-0.7-0.4-1.2-0.9-1.5-1.6c-0.3-0.7-0.5-1.4-0.5-2.3c0-0.9,0.2-1.6,0.5-2.3
		c0.3-0.7,0.8-1.2,1.5-1.6c0.7-0.4,1.6-0.6,2.6-0.6c0.5,0,0.9,0,1.3,0.1c0.4,0.1,0.8,0.2,1.1,0.4l-0.2,1.4c-0.3-0.2-0.7-0.3-1-0.4
		c-0.4-0.1-0.7-0.1-1.1-0.1c-1,0-1.7,0.3-2.2,0.8c-0.5,0.5-0.8,1.3-0.8,2.3c0,1,0.2,1.7,0.7,2.3c0.5,0.6,1.2,0.9,2.2,0.9
		c0.4,0,0.8,0,1.2-0.1c0.4-0.1,0.7-0.2,1.1-0.4l0.2,1.3c-0.2,0.2-0.6,0.3-1,0.5C893.5,39.9,893,39.9,892.5,39.9z"/>
	<path d="M896.6,39.7V26.4h1.6v6.1l-0.6,0c0.4-0.5,0.9-0.9,1.3-1.2c0.5-0.3,1.1-0.4,1.8-0.4c0.8,0,1.4,0.2,1.9,0.5
		c0.5,0.3,0.9,0.8,1.1,1.4c0.3,0.6,0.4,1.3,0.4,2.1v4.9h-1.6v-4.7c0-1-0.2-1.7-0.5-2.1c-0.4-0.5-0.9-0.7-1.6-0.7
		c-0.6,0-1,0.1-1.5,0.4c-0.4,0.3-0.8,0.7-1,1.2l0.3-1v6.8H896.6z"/>
	<path d="M906.2,39.7V31h1.2l0.3,1.7l-0.6-0.3c0.6-0.7,1.2-1.1,1.7-1.3c0.6-0.2,1.1-0.3,1.6-0.3c1.3,0,2.2,0.4,2.7,1.1
		c0.5,0.7,0.8,1.7,0.8,3v4.8h-1.6v-4.8c0-0.9-0.2-1.6-0.5-2c-0.3-0.4-0.9-0.6-1.8-0.6c-0.6,0-1.1,0.1-1.6,0.4
		c-0.5,0.3-0.8,0.7-1,1.2l0.2-1v6.8H906.2z"/>
	<path d="M920,39.9c-0.9,0-1.7-0.2-2.3-0.6c-0.6-0.4-1.1-1-1.5-1.6c-0.3-0.7-0.5-1.5-0.5-2.3c0-0.8,0.2-1.6,0.5-2.3
		c0.3-0.7,0.8-1.2,1.5-1.6c0.6-0.4,1.4-0.6,2.3-0.6c0.9,0,1.7,0.2,2.3,0.6c0.6,0.4,1.1,1,1.5,1.6c0.3,0.7,0.5,1.5,0.5,2.3
		c0,0.8-0.2,1.6-0.5,2.3c-0.3,0.7-0.8,1.2-1.5,1.6C921.7,39.7,920.9,39.9,920,39.9z M920,38.5c0.9,0,1.5-0.3,2-0.8
		c0.5-0.5,0.7-1.3,0.7-2.3c0-1-0.2-1.7-0.7-2.3c-0.5-0.5-1.1-0.8-2-0.8c-0.9,0-1.5,0.3-2,0.8c-0.5,0.5-0.7,1.3-0.7,2.3
		c0,1,0.2,1.7,0.7,2.3C918.5,38.2,919.2,38.5,920,38.5z"/>
	<path d="M928.2,39.9c-0.6,0-1-0.1-1.3-0.3s-0.6-0.5-0.7-0.8c-0.1-0.3-0.2-0.7-0.2-1V26.4h1.6v10.5c0,0.5,0,0.9,0.1,1.1
		c0.1,0.2,0.2,0.4,0.4,0.5c0.2,0.1,0.5,0.1,0.9,0.1l-0.2,1.3H928.2z"/>
	<path d="M933.9,39.9c-0.9,0-1.7-0.2-2.3-0.6c-0.6-0.4-1.1-1-1.5-1.6c-0.3-0.7-0.5-1.5-0.5-2.3c0-0.8,0.2-1.6,0.5-2.3
		c0.3-0.7,0.8-1.2,1.5-1.6c0.6-0.4,1.4-0.6,2.3-0.6c0.9,0,1.7,0.2,2.3,0.6c0.6,0.4,1.1,1,1.5,1.6c0.3,0.7,0.5,1.5,0.5,2.3
		c0,0.8-0.2,1.6-0.5,2.3c-0.3,0.7-0.8,1.2-1.5,1.6C935.6,39.7,934.8,39.9,933.9,39.9z M933.9,38.5c0.9,0,1.5-0.3,2-0.8
		c0.5-0.5,0.7-1.3,0.7-2.3c0-1-0.2-1.7-0.7-2.3c-0.5-0.5-1.1-0.8-2-0.8c-0.9,0-1.5,0.3-2,0.8c-0.5,0.5-0.7,1.3-0.7,2.3
		c0,1,0.2,1.7,0.7,2.3C932.4,38.2,933.1,38.5,933.9,38.5z"/>
	<path d="M943.4,44.2c-0.8,0-1.5-0.1-2.1-0.3c-0.6-0.2-1.1-0.5-1.5-0.9c-0.4-0.4-0.5-0.9-0.5-1.4c0-0.5,0.1-0.9,0.4-1.2
		c0.3-0.3,0.6-0.6,1.1-0.8c-0.3-0.1-0.5-0.3-0.6-0.5s-0.2-0.4-0.2-0.6c0-0.3,0.1-0.5,0.2-0.7c0.2-0.2,0.4-0.4,0.8-0.5
		c-0.5-0.3-0.9-0.7-1.1-1.2s-0.4-1.1-0.4-1.7c0-0.6,0.1-1.2,0.4-1.7c0.3-0.5,0.7-0.9,1.2-1.2c0.5-0.3,1.2-0.5,1.9-0.5
		c0.4,0,0.8,0.1,1.1,0.2c0.4,0.1,0.7,0.3,1,0.5c0.3-0.2,0.6-0.3,0.9-0.4c0.4-0.1,0.8-0.2,1.2-0.2c0,0,0.1,0,0.1,0s0,0,0.1,0
		l-0.2,1.1c-0.1,0-0.1,0-0.2,0s-0.1,0-0.2,0c-0.1,0-0.2,0-0.4,0c-0.2,0-0.4,0.1-0.6,0.1c0.2,0.3,0.4,0.6,0.6,1
		c0.1,0.4,0.2,0.7,0.2,1.1c0,0.7-0.1,1.3-0.4,1.8c-0.3,0.5-0.7,0.9-1.2,1.2c-0.5,0.3-1.2,0.5-1.9,0.5c-0.2,0-0.4,0-0.6,0
		c-0.2,0-0.4-0.1-0.6-0.1c-0.3,0.1-0.4,0.2-0.4,0.5c0,0.1,0.1,0.2,0.2,0.3c0.2,0.1,0.4,0.2,0.7,0.2l2.3,0.4c0.9,0.1,1.7,0.4,2.2,0.8
		c0.5,0.4,0.8,1,0.8,1.7c0,0.6-0.2,1.1-0.5,1.5c-0.4,0.4-0.9,0.7-1.5,0.9C945.1,44.1,944.3,44.2,943.4,44.2z M943.6,42.8
		c0.8,0,1.4-0.1,1.9-0.3c0.4-0.2,0.7-0.5,0.7-0.9c0-0.3-0.1-0.6-0.4-0.8c-0.3-0.2-0.7-0.3-1.2-0.4l-2.5-0.4
		c-0.3,0.1-0.6,0.3-0.9,0.6c-0.2,0.2-0.4,0.5-0.4,0.8c0,0.5,0.3,0.9,0.8,1.1C942.1,42.7,942.8,42.8,943.6,42.8z M943.1,36.4
		c0.7,0,1.2-0.2,1.6-0.6c0.4-0.4,0.5-0.9,0.5-1.6c0-0.6-0.2-1.1-0.5-1.5c-0.4-0.4-0.9-0.6-1.6-0.6c-0.7,0-1.2,0.2-1.5,0.6
		c-0.4,0.4-0.5,0.9-0.5,1.5c0,0.6,0.2,1.2,0.5,1.6C941.9,36.2,942.4,36.4,943.1,36.4z"/>
	<path d="M949.5,44.1l2-4.7l-3.6-8.3h1.8l2.7,6.5l2.5-6.5h1.8l-5.3,13H949.5z"/>
	<path d="M786.3,63c-0.5,0-1,0-1.6-0.1c-0.5-0.1-1-0.2-1.4-0.3c-0.4-0.1-0.8-0.3-1.1-0.4l0.2-1.8c0.3,0.2,0.7,0.3,1.2,0.5
		c0.5,0.2,0.9,0.3,1.5,0.4c0.5,0.1,1.1,0.2,1.6,0.2c0.8,0,1.4-0.1,1.9-0.4c0.5-0.3,0.7-0.8,0.7-1.4c0-0.5-0.1-0.9-0.4-1.2
		c-0.2-0.3-0.6-0.6-1.1-0.8c-0.5-0.2-1.1-0.4-1.8-0.6c-0.7-0.2-1.3-0.4-1.9-0.7c-0.6-0.3-1-0.6-1.4-1.1c-0.3-0.5-0.5-1.1-0.5-1.9
		c0-0.7,0.2-1.2,0.5-1.8c0.3-0.5,0.8-0.9,1.5-1.2s1.5-0.4,2.4-0.4c0.8,0,1.6,0.1,2.3,0.3s1.3,0.4,1.7,0.6l-0.2,1.8
		c-0.7-0.4-1.3-0.7-1.9-0.9c-0.6-0.2-1.3-0.3-1.9-0.3c-0.7,0-1.3,0.1-1.8,0.4c-0.5,0.3-0.7,0.7-0.7,1.3c0,0.4,0.1,0.8,0.3,1
		c0.2,0.3,0.5,0.5,1,0.7c0.4,0.2,0.9,0.4,1.6,0.6c0.9,0.3,1.6,0.6,2.2,0.9c0.6,0.3,1.1,0.7,1.4,1.2c0.3,0.5,0.5,1.1,0.5,1.8
		c0,0.5-0.1,1-0.3,1.4c-0.2,0.4-0.5,0.8-0.9,1.1c-0.4,0.3-0.9,0.5-1.5,0.7C787.8,63,787.1,63,786.3,63z"/>
	<path d="M795.5,63c-0.6,0-1-0.1-1.3-0.3s-0.6-0.5-0.7-0.8c-0.2-0.3-0.2-0.7-0.2-1v-5.6h-1.5l0.1-1.2h1.4v-2.2l1.6-0.2v2.3h2.3v1.2
		h-2.3v4.6c0,0.6,0,1,0.1,1.2c0.1,0.2,0.2,0.4,0.5,0.5c0.3,0.1,0.7,0.1,1.3,0.1h0.4L797,63H795.5z"/>
	<path d="M798.5,62.8v-8.7h1.3l0.2,1.4c0.4-0.6,0.9-1,1.3-1.2c0.4-0.3,0.8-0.4,1.3-0.4c0.1,0,0.3,0,0.4,0.1l-0.2,1.8
		c-0.1,0-0.2,0-0.2,0c-0.1,0-0.2,0-0.3,0c-0.5,0-0.9,0.1-1.3,0.3c-0.4,0.2-0.7,0.4-0.8,0.7v6.2H798.5z"/>
	<path d="M806.1,63c-0.5,0-1-0.1-1.4-0.3c-0.4-0.2-0.7-0.5-0.9-0.9c-0.2-0.4-0.3-0.8-0.3-1.3c0-0.5,0.1-0.9,0.3-1.3
		c0.2-0.4,0.5-0.6,0.9-0.9c0.4-0.2,0.8-0.4,1.2-0.6c0.5-0.1,0.9-0.2,1.4-0.3c0.5-0.1,0.9-0.1,1.4-0.1c0-0.8-0.2-1.4-0.5-1.6
		c-0.3-0.3-0.8-0.4-1.4-0.4c-0.3,0-0.7,0.1-1,0.2c-0.4,0.1-0.8,0.3-1.3,0.6l-0.2-1.3c0.4-0.3,0.8-0.5,1.3-0.7
		c0.5-0.2,1.1-0.3,1.6-0.3c0.7,0,1.3,0.1,1.8,0.4c0.5,0.3,0.8,0.7,1,1.3c0.2,0.6,0.3,1.4,0.3,2.5v1.8c0,0.4,0,0.8,0.1,1
		c0,0.3,0.1,0.5,0.3,0.6c0.1,0.1,0.4,0.2,0.7,0.2h0.2l-0.2,1.3H811c-0.5,0-0.9-0.1-1.2-0.2c-0.3-0.1-0.5-0.2-0.6-0.4
		c-0.1-0.2-0.3-0.4-0.4-0.7c-0.3,0.4-0.7,0.7-1.2,0.9C807.1,62.9,806.6,63,806.1,63z M806.4,61.7c0.4,0,0.8-0.1,1.2-0.3
		c0.4-0.2,0.7-0.5,1-0.9v-2.1c-0.8,0-1.5,0.1-2.1,0.2c-0.5,0.1-0.9,0.3-1.2,0.6c-0.2,0.3-0.4,0.6-0.4,1.1c0,0.5,0.1,0.8,0.4,1
		C805.7,61.6,806,61.7,806.4,61.7z"/>
	<path d="M815.4,63c-0.6,0-1-0.1-1.3-0.3s-0.6-0.5-0.7-0.8c-0.2-0.3-0.2-0.7-0.2-1v-5.6h-1.5l0.1-1.2h1.4v-2.2l1.6-0.2v2.3h2.3v1.2
		h-2.3v4.6c0,0.6,0,1,0.1,1.2c0.1,0.2,0.2,0.4,0.5,0.5c0.3,0.1,0.7,0.1,1.3,0.1h0.4l-0.1,1.3H815.4z"/>
	<path d="M822.5,63c-1,0-1.9-0.2-2.6-0.6c-0.7-0.4-1.2-1-1.6-1.7c-0.4-0.7-0.5-1.5-0.5-2.3c0-0.8,0.2-1.6,0.5-2.2
		c0.3-0.7,0.8-1.2,1.5-1.6c0.6-0.4,1.4-0.6,2.3-0.6c0.7,0,1.4,0.1,1.9,0.4c0.6,0.3,1,0.7,1.3,1.3c0.3,0.5,0.5,1.2,0.5,2
		c0,0.1,0,0.3,0,0.4c0,0.1,0,0.3-0.1,0.4h-6.3c0.1,0.8,0.3,1.4,0.6,1.9c0.3,0.5,0.7,0.8,1.2,1c0.5,0.2,1,0.3,1.5,0.3
		c0.4,0,0.8,0,1.3-0.1c0.4-0.1,0.9-0.2,1.2-0.4l0.2,1.3c-0.3,0.1-0.8,0.3-1.2,0.5C823.7,62.9,823.2,63,822.5,63z M819.6,57.3h4.6
		c0-0.4-0.1-0.8-0.2-1.1c-0.2-0.3-0.4-0.5-0.7-0.7c-0.3-0.2-0.7-0.2-1.2-0.2c-0.7,0-1.3,0.2-1.6,0.5C820,56.2,819.8,56.7,819.6,57.3
		z"/>
	<path d="M831,67.3c-0.8,0-1.5-0.1-2.1-0.3c-0.6-0.2-1.1-0.5-1.5-0.9c-0.4-0.4-0.5-0.9-0.5-1.4c0-0.5,0.1-0.9,0.4-1.2
		c0.3-0.3,0.6-0.6,1.1-0.8c-0.3-0.1-0.5-0.3-0.6-0.5s-0.2-0.4-0.2-0.6c0-0.3,0.1-0.5,0.2-0.7c0.2-0.2,0.4-0.4,0.8-0.5
		c-0.5-0.3-0.9-0.7-1.1-1.2c-0.3-0.5-0.4-1.1-0.4-1.7c0-0.6,0.1-1.2,0.4-1.7c0.3-0.5,0.7-0.9,1.2-1.2c0.5-0.3,1.2-0.5,1.9-0.5
		c0.4,0,0.8,0.1,1.1,0.2c0.4,0.1,0.7,0.3,1,0.5c0.3-0.2,0.6-0.3,0.9-0.4c0.4-0.1,0.8-0.2,1.2-0.2c0,0,0.1,0,0.1,0c0,0,0,0,0.1,0
		l-0.2,1.1c-0.1,0-0.1,0-0.2,0c-0.1,0-0.1,0-0.2,0c-0.1,0-0.2,0-0.4,0c-0.2,0-0.4,0.1-0.6,0.1c0.2,0.3,0.4,0.6,0.6,1
		c0.1,0.4,0.2,0.7,0.2,1.1c0,0.7-0.1,1.3-0.4,1.8c-0.3,0.5-0.7,0.9-1.2,1.2s-1.2,0.5-1.9,0.5c-0.2,0-0.4,0-0.6,0
		c-0.2,0-0.4-0.1-0.6-0.1c-0.3,0.1-0.4,0.2-0.4,0.5c0,0.1,0.1,0.2,0.2,0.3c0.2,0.1,0.4,0.2,0.7,0.2l2.3,0.4c0.9,0.1,1.7,0.4,2.2,0.8
		c0.5,0.4,0.8,1,0.8,1.7c0,0.6-0.2,1.1-0.5,1.5c-0.4,0.4-0.9,0.7-1.5,0.9C832.6,67.2,831.9,67.3,831,67.3z M831.2,65.8
		c0.8,0,1.4-0.1,1.9-0.3c0.4-0.2,0.7-0.5,0.7-0.9c0-0.3-0.1-0.6-0.4-0.8c-0.3-0.2-0.7-0.3-1.2-0.4l-2.5-0.4
		c-0.3,0.1-0.6,0.3-0.9,0.6c-0.2,0.2-0.4,0.5-0.4,0.8c0,0.5,0.3,0.9,0.8,1.1C829.6,65.7,830.3,65.8,831.2,65.8z M830.6,59.5
		c0.7,0,1.2-0.2,1.6-0.6c0.4-0.4,0.5-0.9,0.5-1.6c0-0.6-0.2-1.1-0.5-1.5c-0.4-0.4-0.9-0.6-1.6-0.6c-0.7,0-1.2,0.2-1.5,0.6
		c-0.4,0.4-0.5,0.9-0.5,1.5c0,0.6,0.2,1.2,0.5,1.6C829.4,59.3,830,59.5,830.6,59.5z"/>
	<path d="M837,67.1l2-4.7l-3.6-8.3h1.8l2.7,6.5l2.5-6.5h1.8l-5.3,13H837z"/>
	<path d="M852.9,63.2c-0.8,0-1.6-0.1-2.1-0.4c-0.6-0.3-1-0.7-1.4-1.2c-0.3-0.5-0.5-1.1-0.5-1.7c0-0.5,0.1-0.9,0.2-1.3
		c0.2-0.4,0.4-0.8,0.7-1.2c0.3-0.4,0.8-0.8,1.3-1.1c-0.5-0.6-0.9-1.2-1.1-1.7c-0.2-0.5-0.3-0.9-0.3-1.3c0-0.6,0.1-1.2,0.4-1.6
		c0.3-0.4,0.7-0.8,1.2-1c0.5-0.2,1-0.4,1.6-0.4c1,0,1.8,0.2,2.2,0.7s0.7,1.1,0.7,1.8c0,0.5-0.1,1-0.4,1.4c-0.3,0.4-0.7,0.8-1.1,1.2
		c-0.5,0.4-0.9,0.7-1.5,1.1l3.4,3.5c0.1-0.2,0.2-0.4,0.3-0.7c0.1-0.3,0.2-0.6,0.2-1c0.1-0.3,0.1-0.7,0.1-1s0-0.6,0-0.7h1.4
		c0,0.4,0,0.8-0.1,1.3c-0.1,0.5-0.2,1-0.3,1.6s-0.4,1.1-0.7,1.6l1.6,1.8h-1.6l-0.8-0.8c-0.6,0.5-1.1,0.8-1.6,1
		C854.2,63.1,853.6,63.2,852.9,63.2z M852.9,62c0.6,0,1.2-0.1,1.6-0.3c0.4-0.2,0.8-0.5,1.1-0.8l-3.7-3.7c-0.4,0.3-0.8,0.7-1,1.1
		c-0.3,0.4-0.4,0.9-0.4,1.5c0,0.4,0.1,0.8,0.3,1.1c0.2,0.3,0.4,0.6,0.8,0.8C851.9,61.9,852.4,62,852.9,62z M852.3,55.6
		c0.5-0.3,0.9-0.6,1.2-0.9c0.3-0.3,0.6-0.6,0.8-0.8c0.2-0.3,0.3-0.6,0.3-1c0-0.4-0.1-0.8-0.4-1c-0.3-0.2-0.6-0.3-1.1-0.3
		c-0.4,0-0.8,0.1-1.2,0.4c-0.3,0.3-0.5,0.7-0.5,1.3c0,0.3,0.1,0.6,0.2,1C851.6,54.6,851.9,55.1,852.3,55.6z"/>
	<path d="M864.6,62.8V50.3h1.7v12.5H864.6z"/>
	<path d="M868.6,62.8v-8.7h1.2l0.3,1.7l-0.6-0.3c0.6-0.7,1.2-1.1,1.7-1.3c0.6-0.2,1.1-0.3,1.6-0.3c1.3,0,2.2,0.4,2.7,1.1
		c0.5,0.7,0.8,1.7,0.8,3v4.8h-1.6V58c0-0.9-0.2-1.6-0.5-2c-0.3-0.4-0.9-0.6-1.8-0.6c-0.6,0-1.1,0.1-1.6,0.4c-0.5,0.3-0.8,0.7-1,1.2
		l0.2-1v6.8H868.6z"/>
	<path d="M880.8,62.8l-3.3-8.7h1.8l2.4,7l2.4-7h1.8l-3.3,8.7H880.8z"/>
	<path d="M891.2,63c-1,0-1.9-0.2-2.6-0.6c-0.7-0.4-1.2-1-1.6-1.7c-0.4-0.7-0.5-1.5-0.5-2.3c0-0.8,0.2-1.6,0.5-2.2
		c0.3-0.7,0.8-1.2,1.5-1.6c0.6-0.4,1.4-0.6,2.3-0.6c0.7,0,1.4,0.1,1.9,0.4c0.6,0.3,1,0.7,1.3,1.3c0.3,0.5,0.5,1.2,0.5,2
		c0,0.1,0,0.3,0,0.4c0,0.1,0,0.3-0.1,0.4h-6.3c0.1,0.8,0.3,1.4,0.6,1.9c0.3,0.5,0.7,0.8,1.2,1c0.5,0.2,1,0.3,1.5,0.3
		c0.4,0,0.8,0,1.3-0.1c0.4-0.1,0.9-0.2,1.2-0.4l0.2,1.3c-0.3,0.1-0.8,0.3-1.2,0.5C892.4,62.9,891.8,63,891.2,63z M888.2,57.3h4.6
		c0-0.4-0.1-0.8-0.2-1.1c-0.2-0.3-0.4-0.5-0.7-0.7c-0.3-0.2-0.7-0.2-1.2-0.2c-0.7,0-1.3,0.2-1.6,0.5
		C888.7,56.2,888.4,56.7,888.2,57.3z"/>
	<path d="M898.6,63c-0.8,0-1.4-0.1-1.9-0.3c-0.5-0.2-0.9-0.3-1.1-0.5l0.2-1.6c0.2,0.2,0.5,0.4,1,0.6c0.5,0.2,1.1,0.3,1.7,0.3
		c0.6,0,1-0.1,1.3-0.3c0.3-0.2,0.5-0.5,0.5-0.8c0-0.3-0.1-0.5-0.3-0.7s-0.4-0.3-0.7-0.4c-0.3-0.1-0.5-0.2-0.8-0.3
		c-0.4-0.1-0.8-0.2-1.2-0.4c-0.4-0.2-0.8-0.4-1.1-0.7c-0.3-0.3-0.4-0.8-0.4-1.4c0-0.4,0.1-0.9,0.3-1.3c0.2-0.4,0.6-0.7,1-1
		c0.5-0.2,1.1-0.4,1.9-0.4c0.6,0,1.1,0.1,1.4,0.2s0.7,0.3,0.9,0.4l-0.2,1.5c-0.3-0.2-0.6-0.4-0.9-0.5c-0.3-0.1-0.8-0.2-1.2-0.2
		c-0.5,0-0.9,0.1-1.2,0.3c-0.3,0.2-0.5,0.5-0.5,0.9s0.2,0.7,0.5,0.9c0.3,0.2,0.8,0.4,1.5,0.6c0.2,0.1,0.5,0.1,0.7,0.3
		c0.3,0.1,0.6,0.3,0.8,0.5c0.3,0.2,0.5,0.4,0.7,0.7c0.2,0.3,0.3,0.7,0.3,1.1c0,0.4-0.1,0.8-0.3,1.2c-0.2,0.4-0.5,0.7-1,1
		C900.2,62.8,899.5,63,898.6,63z"/>
	<path d="M906.5,63c-0.6,0-1-0.1-1.3-0.3c-0.3-0.2-0.6-0.5-0.7-0.8c-0.2-0.3-0.2-0.7-0.2-1v-5.6h-1.5l0.1-1.2h1.4v-2.2l1.6-0.2v2.3
		h2.3v1.2h-2.3v4.6c0,0.6,0,1,0.1,1.2c0.1,0.2,0.2,0.4,0.5,0.5c0.3,0.1,0.7,0.1,1.3,0.1h0.4l-0.1,1.3H906.5z"/>
	<path d="M909.5,62.8v-8.7h1.2l0.3,1.7l-0.6-0.3c0.5-0.6,1.1-1,1.6-1.2s1.1-0.3,1.6-0.3c0.4,0,0.8,0.1,1.2,0.2
		c0.4,0.1,0.8,0.4,1.1,0.7c0.3,0.3,0.6,0.8,0.8,1.4l-0.4-0.2c0.3-0.7,0.7-1.2,1.2-1.6c0.5-0.4,1.3-0.6,2.2-0.6
		c0.7,0,1.3,0.1,1.8,0.4c0.5,0.3,0.9,0.7,1.1,1.2c0.3,0.6,0.4,1.3,0.4,2.1v5.2h-1.6v-5.1c0-0.8-0.2-1.4-0.5-1.8
		c-0.3-0.4-0.8-0.6-1.6-0.6c-0.5,0-0.9,0.1-1.2,0.2c-0.3,0.2-0.5,0.4-0.7,0.6c-0.2,0.2-0.3,0.5-0.3,0.8c-0.1,0.3-0.1,0.5-0.1,0.8
		v5.1h-1.6V58c0-0.7-0.1-1.3-0.3-1.6c-0.2-0.4-0.4-0.7-0.7-0.8c-0.3-0.1-0.7-0.2-1.1-0.2c-0.6,0-1.1,0.1-1.6,0.4
		c-0.5,0.3-0.8,0.7-0.9,1.2l0.2-0.9v6.7H909.5z"/>
	<path d="M929.3,63c-1,0-1.9-0.2-2.6-0.6c-0.7-0.4-1.2-1-1.6-1.7c-0.4-0.7-0.5-1.5-0.5-2.3c0-0.8,0.2-1.6,0.5-2.2
		c0.3-0.7,0.8-1.2,1.5-1.6c0.6-0.4,1.4-0.6,2.3-0.6c0.7,0,1.4,0.1,1.9,0.4c0.6,0.3,1,0.7,1.3,1.3c0.3,0.5,0.5,1.2,0.5,2
		c0,0.1,0,0.3,0,0.4c0,0.1,0,0.3-0.1,0.4h-6.3c0.1,0.8,0.3,1.4,0.6,1.9c0.3,0.5,0.7,0.8,1.2,1c0.5,0.2,1,0.3,1.5,0.3
		c0.4,0,0.8,0,1.3-0.1c0.4-0.1,0.9-0.2,1.2-0.4l0.2,1.3c-0.3,0.1-0.8,0.3-1.2,0.5C930.5,62.9,929.9,63,929.3,63z M926.4,57.3h4.6
		c0-0.4-0.1-0.8-0.2-1.1c-0.2-0.3-0.4-0.5-0.7-0.7c-0.3-0.2-0.7-0.2-1.2-0.2c-0.7,0-1.3,0.2-1.6,0.5
		C926.8,56.2,926.5,56.7,926.4,57.3z"/>
	<path d="M934.2,62.8v-8.7h1.2l0.3,1.7l-0.6-0.3c0.6-0.7,1.2-1.1,1.7-1.3c0.6-0.2,1.1-0.3,1.6-0.3c1.3,0,2.2,0.4,2.7,1.1
		c0.5,0.7,0.8,1.7,0.8,3v4.8h-1.6V58c0-0.9-0.2-1.6-0.5-2c-0.3-0.4-0.9-0.6-1.8-0.6c-0.6,0-1.1,0.1-1.6,0.4c-0.5,0.3-0.8,0.7-1,1.2
		l0.2-1v6.8H934.2z"/>
	<path d="M947.1,63c-0.6,0-1-0.1-1.3-0.3s-0.6-0.5-0.7-0.8c-0.2-0.3-0.2-0.7-0.2-1v-5.6h-1.5l0.1-1.2h1.4v-2.2l1.6-0.2v2.3h2.3v1.2
		h-2.3v4.6c0,0.6,0,1,0.1,1.2c0.1,0.2,0.2,0.4,0.5,0.5c0.3,0.1,0.7,0.1,1.3,0.1h0.4l-0.1,1.3H947.1z"/>
	<path d="M952.5,63c-0.8,0-1.4-0.1-1.9-0.3c-0.5-0.2-0.9-0.3-1.1-0.5l0.2-1.6c0.2,0.2,0.5,0.4,1,0.6c0.5,0.2,1.1,0.3,1.7,0.3
		c0.6,0,1-0.1,1.3-0.3c0.3-0.2,0.5-0.5,0.5-0.8c0-0.3-0.1-0.5-0.3-0.7s-0.4-0.3-0.7-0.4c-0.3-0.1-0.5-0.2-0.8-0.3
		c-0.4-0.1-0.8-0.2-1.2-0.4c-0.4-0.2-0.8-0.4-1.1-0.7c-0.3-0.3-0.4-0.8-0.4-1.4c0-0.4,0.1-0.9,0.3-1.3c0.2-0.4,0.6-0.7,1-1
		c0.5-0.2,1.1-0.4,1.9-0.4c0.6,0,1.1,0.1,1.4,0.2s0.7,0.3,0.9,0.4l-0.2,1.5c-0.3-0.2-0.6-0.4-0.9-0.5c-0.3-0.1-0.8-0.2-1.2-0.2
		c-0.5,0-0.9,0.1-1.2,0.3c-0.3,0.2-0.5,0.5-0.5,0.9s0.2,0.7,0.5,0.9c0.3,0.2,0.8,0.4,1.5,0.6c0.2,0.1,0.5,0.1,0.7,0.3
		c0.3,0.1,0.6,0.3,0.8,0.5c0.3,0.2,0.5,0.4,0.7,0.7c0.2,0.3,0.3,0.7,0.3,1.1c0,0.4-0.1,0.8-0.3,1.2c-0.2,0.4-0.5,0.7-1,1
		C954.1,62.8,953.4,63,952.5,63z"/>
</g>
<radialGradient id="SVGID_1_" cx="500.0001" cy="461.5825" r="416.5162" gradientUnits="userSpaceOnUse">
	<stop  offset="0" style="stop-color:#FFFFFF"/>
	<stop  offset="1" style="stop-color:#BCBEC0"/>
</radialGradient>
<path class="st6" d="M101.8,816.6h801.5c42.1-70.4,66.4-152.8,66.4-240.8c0-259.4-210.3-469.7-469.7-469.7S30.3,316.4,30.3,575.8
	c0,88.2,24.3,170.7,66.6,241.2L101.8,816.6z"/>
<g>
	<path class="st7" d="M567.2,237.5H432.8c-3.2,0-5.2-3.5-3.6-6.3l67.3-117.7c0.8-1.4,2.2-2.1,3.6-2.1c1.4,0,2.8,0.7,3.6,2.1
		l67.3,117.7C572.5,234,570.5,237.5,567.2,237.5z"/>
	<path class="st2" d="M567.2,230.3H432.8c-3.2,0-5.2-3.5-3.6-6.3l67.3-117.7c0.8-1.4,2.2-2.1,3.6-2.1c1.4,0,2.8,0.7,3.6,2.1
		L570.9,224C572.5,226.8,570.5,230.3,567.2,230.3z"/>
</g>
<g>
	<path class="st7" d="M650,382.3H350c-3.2,0-5.2-3.5-3.6-6.3l67.3-117.7c2.2-3.9,6.4-6.3,10.8-6.3h151c4.5,0,8.6,2.4,10.8,6.3
		L653.6,376C655.2,378.8,653.2,382.3,650,382.3z"/>
	<path class="st2" d="M650,375.1H350c-3.2,0-5.2-3.5-3.6-6.3L413.7,251c2.2-3.9,6.4-6.3,10.8-6.3h151c4.5,0,8.6,2.4,10.8,6.3
		l67.3,117.7C655.2,371.6,653.2,375.1,650,375.1z"/>
</g>
<g>
	<path class="st7" d="M732.7,527.1H267.3c-3.2,0-5.2-3.5-3.6-6.3l67.3-117.7c2.2-3.9,6.4-6.3,10.8-6.3h316.5c4.5,0,8.6,2.4,10.8,6.3
		l67.3,117.7C737.9,523.6,735.9,527.1,732.7,527.1z"/>
	<path class="st2" d="M732.7,519.8H267.3c-3.2,0-5.2-3.5-3.6-6.3l67.3-117.7c2.2-3.9,6.4-6.3,10.8-6.3h316.5c4.5,0,8.6,2.4,10.8,6.3
		l67.3,117.7C737.9,516.4,735.9,519.8,732.7,519.8z"/>
</g>
<g>
	<path class="st8" d="M815.4,671.9H184.6c-3.2,0-5.2-3.5-3.6-6.3l67.3-117.7c2.2-3.9,6.4-6.3,10.8-6.3H741c4.5,0,8.6,2.4,10.8,6.3
		l67.3,117.7C820.7,668.4,818.7,671.9,815.4,671.9z"/>
	<path class="st5" d="M815.4,664.6H184.6c-3.2,0-5.2-3.5-3.6-6.3l67.3-117.7c2.2-3.9,6.4-6.3,10.8-6.3H741c4.5,0,8.6,2.4,10.8,6.3
		l67.3,117.7C820.7,661.1,818.7,664.6,815.4,664.6z"/>
</g>
<g>
	<path class="st8" d="M898.2,816.6H101.8c-3.2,0-5.2-3.5-3.6-6.3l67.3-117.7c2.2-3.9,6.4-6.3,10.8-6.3h647.4c4.5,0,8.6,2.4,10.8,6.3
		l67.3,117.7C903.4,813.2,901.4,816.6,898.2,816.6z"/>
	<path class="st5" d="M898.2,809.4H101.8c-3.2,0-5.2-3.5-3.6-6.3l67.3-117.7c2.2-3.9,6.4-6.3,10.8-6.3h647.4c4.5,0,8.6,2.4,10.8,6.3
		l67.3,117.7C903.4,805.9,901.4,809.4,898.2,809.4z"/>
</g>
<g>
	<rect x="31.9" y="837.2" class="st9" width="936.1" height="155.4"/>
</g>
<g>
	<path class="st10" d="M375.8,652.5v-16.6h6.2c1.6,0,3,0.3,4.2,1c1.2,0.7,2.2,1.6,2.9,2.9c0.7,1.2,1.1,2.7,1.1,4.5s-0.4,3.2-1.1,4.5
		c-0.7,1.2-1.7,2.2-2.9,2.9c-1.2,0.7-2.6,1-4.2,1H375.8z M378.9,649.8h3.2c1.1,0,2-0.2,2.7-0.7c0.7-0.5,1.3-1.1,1.6-1.9
		c0.4-0.8,0.5-1.8,0.5-3s-0.2-2.2-0.5-3c-0.4-0.8-0.9-1.5-1.6-1.9c-0.7-0.5-1.6-0.7-2.7-0.7h-3.2V649.8z"/>
	<path class="st10" d="M397.9,638.8h0.8l-4.8,13.7h-2.9l5.9-16.6h2.9l5.9,16.6h-2.9L397.9,638.8z M401.7,648.6h-7v-2.7h7V648.6z"/>
	<path class="st10" d="M409.5,652.5v-13.7h-4.7v-2.9h12.5v2.9h-4.7v13.7H409.5z"/>
	<path class="st10" d="M423.4,638.8h0.8l-4.8,13.7h-2.9l5.9-16.6h2.9l5.9,16.6h-2.9L423.4,638.8z M427.2,648.6h-7v-2.7h7V648.6z"/>
	<path class="st10" d="M443.6,638.8h0.8l-4.8,13.7h-2.9l5.9-16.6h2.9l5.9,16.6h-2.9L443.6,638.8z M447.4,648.6h-7v-2.7h7V648.6z"/>
	<path class="st10" d="M453.2,652.5v-16.6h3l7.1,10.7v-10.7h3v16.6h-2.5l-7.6-11.4v11.4H453.2z"/>
	<path class="st10" d="M475.2,638.8h0.8l-4.8,13.7h-2.9l5.9-16.6h2.9l5.9,16.6H480L475.2,638.8z M479.1,648.6h-7v-2.7h7V648.6z"/>
	<path class="st10" d="M484.9,652.5v-16.6h3v13.9h6.8v2.7H484.9z"/>
	<path class="st10" d="M498.2,652.5v-6.7l-5.8-9.9h3.3l4.8,8.4H499l4.8-8.4h3.3l-5.8,9.9v6.7H498.2z"/>
	<path class="st10" d="M512,652.5v-13.7h-4.7v-2.9h12.5v2.9H515v13.7H512z"/>
	<path class="st10" d="M521.9,652.5v-16.6h3v16.6H521.9z"/>
	<path class="st10" d="M536.1,652.8c-1.7,0-3.2-0.4-4.5-1.1s-2.3-1.7-3-3c-0.7-1.3-1.1-2.8-1.1-4.6s0.4-3.3,1.1-4.6
		c0.7-1.3,1.8-2.3,3.1-3c1.3-0.7,2.8-1.1,4.5-1.1c0.9,0,1.7,0.1,2.4,0.3c0.7,0.2,1.4,0.4,1.9,0.7l-0.3,2.9c-0.6-0.3-1.2-0.5-1.9-0.7
		c-0.6-0.2-1.3-0.3-2.1-0.3c-1.2,0-2.1,0.2-2.9,0.7c-0.8,0.5-1.4,1.2-1.8,2c-0.4,0.9-0.6,1.8-0.6,3c0,1.1,0.2,2.1,0.6,3
		c0.4,0.9,1,1.5,1.7,2c0.8,0.5,1.7,0.7,2.9,0.7c0.8,0,1.5-0.1,2.2-0.3c0.6-0.2,1.3-0.4,1.9-0.7l0.3,2.9c-0.6,0.3-1.3,0.5-2.1,0.7
		C537.7,652.7,536.9,652.8,536.1,652.8z"/>
	<path class="st10" d="M547.9,652.8c-0.7,0-1.4-0.1-2.1-0.2c-0.7-0.1-1.4-0.3-2-0.5c-0.6-0.2-1.1-0.4-1.4-0.5l0.4-3.2
		c0.6,0.3,1.1,0.5,1.7,0.7c0.6,0.2,1.2,0.4,1.9,0.6c0.6,0.1,1.3,0.2,1.9,0.2c0.8,0,1.5-0.2,1.9-0.5c0.5-0.3,0.7-0.8,0.7-1.4
		c0-0.5-0.1-0.9-0.4-1.2c-0.3-0.3-0.7-0.6-1.3-0.8c-0.6-0.2-1.3-0.5-2.2-0.8c-0.9-0.3-1.7-0.7-2.4-1.1c-0.7-0.4-1.3-0.9-1.7-1.5
		c-0.4-0.6-0.6-1.4-0.6-2.3c0-0.9,0.2-1.7,0.7-2.5c0.5-0.7,1.1-1.3,2-1.7c0.9-0.4,2-0.6,3.4-0.6c1,0,2,0.1,2.9,0.3
		c0.9,0.2,1.7,0.5,2.4,0.7l-0.3,3.1c-0.9-0.4-1.8-0.7-2.6-1c-0.8-0.2-1.7-0.3-2.5-0.3c-0.9,0-1.6,0.1-2.1,0.4
		c-0.5,0.3-0.7,0.7-0.7,1.3c0,0.5,0.1,0.8,0.4,1.1c0.3,0.3,0.7,0.5,1.2,0.7c0.5,0.2,1.1,0.4,1.8,0.6c1.2,0.4,2.2,0.8,3,1.3
		c0.8,0.5,1.4,1,1.9,1.7c0.4,0.6,0.6,1.4,0.6,2.4c0,0.5-0.1,1-0.2,1.6c-0.2,0.6-0.4,1.1-0.9,1.6c-0.4,0.5-1.1,0.9-1.9,1.2
		C550.4,652.7,549.3,652.8,547.9,652.8z"/>
	<path class="st10" d="M567.4,638.8h0.8l-4.8,13.7h-2.9l5.9-16.6h2.9l5.9,16.6h-2.9L567.4,638.8z M571.3,648.6h-7v-2.7h7V648.6z"/>
	<path class="st10" d="M577,652.5v-16.6h3v16.6H577z"/>
	<path class="st10" d="M584.8,655.4h-1.4l1-2.9h-1.2v-3.2h3.1v2.9L584.8,655.4z"/>
	<path class="st10" d="M593.8,652.5l2.3-16.6h2.5l4.1,7.6l4-7.6h2.5l2.3,16.6h-3.2l-1.6-12.5l0.8,0.2l-4.9,8.8l-4.9-8.8l0.8-0.2
		l-1.6,12.5H593.8z"/>
	<path class="st10" d="M614.3,652.5v-16.6h3v13.9h6.8v2.7H614.3z"/>
</g>
<g>
	<path class="st10" d="M394.9,797.9v-16.6h6.2c1.6,0,3,0.3,4.2,1c1.2,0.7,2.2,1.6,2.9,2.9c0.7,1.2,1.1,2.7,1.1,4.5s-0.4,3.2-1.1,4.5
		c-0.7,1.2-1.7,2.2-2.9,2.9c-1.2,0.7-2.6,1-4.2,1H394.9z M397.9,795.1h3.2c1.1,0,2-0.2,2.7-0.7c0.7-0.5,1.3-1.1,1.6-1.9
		c0.4-0.8,0.5-1.8,0.5-3s-0.2-2.2-0.5-3c-0.4-0.8-0.9-1.5-1.6-1.9c-0.7-0.5-1.6-0.7-2.7-0.7h-3.2V795.1z"/>
	<path class="st10" d="M416.9,784.2h0.8l-4.8,13.7h-2.9l5.9-16.6h2.9l5.9,16.6h-2.9L416.9,784.2z M420.8,793.9h-7v-2.7h7V793.9z"/>
	<path class="st10" d="M428.5,797.9v-13.7h-4.7v-2.9h12.5v2.9h-4.7v13.7H428.5z"/>
	<path class="st10" d="M442.4,784.2h0.8l-4.8,13.7h-2.9l5.9-16.6h2.9l5.9,16.6h-2.9L442.4,784.2z M446.3,793.9h-7v-2.7h7V793.9z"/>
	<path class="st10" d="M457.4,797.9v-16.6H468v2.9h-7.5v3.5h5.8v2.9h-5.8v4.3h7.8v2.9H457.4z"/>
	<path class="st10" d="M470.9,797.9v-16.6h3L481,792v-10.7h3v16.6h-2.5l-7.6-11.4v11.4H470.9z"/>
	<path class="st10" d="M495.1,798.2c-1.8,0-3.3-0.4-4.5-1.1s-2.2-1.7-2.9-3c-0.7-1.3-1-2.8-1-4.6c0-1.7,0.4-3.2,1.1-4.5
		c0.7-1.3,1.8-2.3,3.1-3c1.3-0.7,2.8-1.1,4.5-1.1c0.9,0,1.7,0.1,2.5,0.3c0.8,0.2,1.5,0.4,2.1,0.7l-0.3,2.9c-0.6-0.3-1.2-0.5-2-0.7
		c-0.7-0.2-1.5-0.3-2.3-0.3c-1.2,0-2.2,0.2-3,0.7s-1.4,1.2-1.8,2s-0.6,1.8-0.6,2.9c0,1.1,0.2,2.1,0.6,3c0.4,0.9,1,1.6,1.7,2
		c0.8,0.5,1.7,0.7,2.9,0.7c0.3,0,0.7,0,1.1-0.1c0.4,0,0.8-0.1,1.2-0.2v-3h-2.3v-2.5h5.3v7.4c-0.6,0.3-1.3,0.6-2.3,0.9
		C497.2,798.1,496.2,798.2,495.1,798.2z"/>
	<path class="st10" d="M503.4,797.9v-16.6h3v16.6H503.4z"/>
	<path class="st10" d="M510.1,797.9v-16.6h3l7.1,10.7v-10.7h3v16.6h-2.5l-7.6-11.4v11.4H510.1z"/>
	<path class="st10" d="M526.9,797.9v-16.6h10.6v2.9h-7.5v3.5h5.8v2.9h-5.8v4.3h7.8v2.9H526.9z"/>
	<path class="st10" d="M540.4,797.9v-16.6h10.6v2.9h-7.5v3.5h5.8v2.9h-5.8v4.3h7.8v2.9H540.4z"/>
	<path class="st10" d="M553.9,797.9v-16.6h6.1c1.1,0,2.2,0.2,3,0.5c0.9,0.4,1.5,0.9,2,1.7c0.5,0.7,0.7,1.7,0.7,2.8
		c0,1.2-0.3,2.2-0.8,2.9s-1.2,1.3-2,1.7l3.8,7h-3.4l-3.2-6.2c0,0,0,0-0.1,0c0,0,0,0-0.1,0h-3v6.2H553.9z M557,789.1h2.2
		c1.3,0,2.1-0.3,2.6-0.8c0.5-0.5,0.7-1.2,0.7-1.9c0-0.8-0.2-1.5-0.7-2c-0.5-0.5-1.3-0.7-2.5-0.7H557V789.1z"/>
	<path class="st10" d="M568.8,797.9v-16.6h3v16.6H568.8z"/>
	<path class="st10" d="M575.5,797.9v-16.6h3l7.1,10.7v-10.7h3v16.6h-2.5l-7.6-11.4v11.4H575.5z"/>
	<path class="st10" d="M599.7,798.2c-1.8,0-3.3-0.4-4.5-1.1c-1.3-0.7-2.2-1.7-2.9-3c-0.7-1.3-1-2.8-1-4.6c0-1.7,0.4-3.2,1.1-4.5
		c0.7-1.3,1.8-2.3,3.1-3c1.3-0.7,2.8-1.1,4.5-1.1c0.9,0,1.7,0.1,2.5,0.3c0.8,0.2,1.5,0.4,2.1,0.7l-0.3,2.9c-0.6-0.3-1.2-0.5-2-0.7
		c-0.7-0.2-1.5-0.3-2.3-0.3c-1.2,0-2.2,0.2-3,0.7s-1.4,1.2-1.8,2c-0.4,0.9-0.6,1.8-0.6,2.9c0,1.1,0.2,2.1,0.6,3c0.4,0.9,1,1.6,1.7,2
		c0.8,0.5,1.7,0.7,2.9,0.7c0.3,0,0.7,0,1.1-0.1c0.4,0,0.8-0.1,1.2-0.2v-3h-2.3v-2.5h5.3v7.4c-0.6,0.3-1.3,0.6-2.3,0.9
		C601.9,798.1,600.8,798.2,599.7,798.2z"/>
</g>
<g>
	<path class="st10" d="M760.2,355.8c-1.2-1.1-2.1-2.2-2.5-3.6c-0.5-1.3-0.6-2.7-0.3-4c0.3-1.4,1-2.7,2.1-3.9
		c1.1-1.3,2.3-2.1,3.7-2.6c1.3-0.5,2.7-0.6,4.1-0.3c1.4,0.3,2.7,1,3.9,2c0.6,0.6,1.2,1.1,1.6,1.7c0.4,0.6,0.7,1.2,0.9,1.7l-2.1,1.9
		c-0.3-0.6-0.6-1.1-0.9-1.7c-0.3-0.5-0.8-1-1.4-1.5c-0.8-0.7-1.7-1.2-2.6-1.3c-0.9-0.1-1.7,0-2.5,0.4c-0.8,0.4-1.6,1-2.3,1.8
		c-0.7,0.8-1.2,1.6-1.4,2.5c-0.3,0.9-0.3,1.7,0,2.6c0.2,0.8,0.8,1.6,1.6,2.3c0.6,0.5,1.1,0.9,1.7,1.2c0.6,0.3,1.2,0.5,1.8,0.7
		l-1.6,2.3c-0.6-0.2-1.3-0.4-1.9-0.8C761.4,356.7,760.8,356.3,760.2,355.8z"/>
	<path class="st10" d="M769.5,364.5c-1.1-1.1-1.8-2.2-2.1-3.6c-0.4-1.3-0.3-2.6,0-4c0.4-1.4,1.2-2.6,2.3-3.8c1.2-1.2,2.4-2,3.8-2.4
		c1.3-0.4,2.7-0.4,4-0.1c1.3,0.3,2.5,1,3.6,2.1c1.1,1.1,1.8,2.2,2.1,3.6c0.4,1.3,0.3,2.6,0,4c-0.4,1.4-1.2,2.6-2.3,3.8
		c-1.2,1.2-2.4,2-3.8,2.4s-2.7,0.4-4,0.1C771.8,366.3,770.6,365.6,769.5,364.5z M771.5,362.5c0.8,0.7,1.5,1.2,2.4,1.4
		c0.8,0.2,1.7,0.1,2.5-0.3c0.8-0.3,1.6-0.9,2.3-1.6c0.7-0.7,1.3-1.5,1.6-2.4c0.3-0.8,0.4-1.7,0.2-2.5c-0.2-0.8-0.6-1.6-1.4-2.4
		c-0.8-0.7-1.5-1.2-2.4-1.4c-0.8-0.2-1.7-0.1-2.5,0.3c-0.8,0.3-1.6,0.9-2.3,1.6c-0.7,0.7-1.3,1.5-1.6,2.4c-0.3,0.8-0.4,1.7-0.2,2.5
		C770.3,361,770.7,361.8,771.5,362.5z"/>
	<path class="st10" d="M776.6,371.4l11.8-10.6l1.9,2.2l-9.9,8.9l4.4,4.8l-1.9,1.7L776.6,371.4z"/>
	<path class="st10" d="M783.9,379.6l12.3-10.1l1.8,2.2l-10.3,8.4l4.1,5l-2,1.6L783.9,379.6z"/>
	<path class="st10" d="M804.2,384.3l0.4,0.6l-13.2,4l-1.7-2.3l16.1-4.9l1.6,2.2l-9.4,13.9l-1.7-2.3L804.2,384.3z M799,392.8
		l-3.9-5.3l2-1.5l3.9,5.3L799,392.8z"/>
	<path class="st10" d="M798.8,399.1l13.3-8.6l3.3,5c0.8,1.3,1.2,2.4,1,3.4c-0.1,1-0.7,1.8-1.8,2.5c-0.8,0.5-1.5,0.8-2.3,0.7
		c-0.8,0-1.5-0.3-2.2-0.8l0.5-0.3c0.5,1.2,0.6,2.3,0.3,3.2c-0.3,0.9-0.9,1.7-1.9,2.4c-1.2,0.8-2.4,1-3.5,0.7
		c-1.2-0.3-2.2-1.2-3.1-2.5L798.8,399.1z M802.6,400.1l1.8,2.8c0.4,0.7,0.9,1.1,1.4,1.3c0.5,0.2,1.1,0.1,1.9-0.4
		c0.7-0.5,1.1-1,1.1-1.6c0-0.6-0.2-1.2-0.6-1.8l-1.8-2.8L802.6,400.1z M808.5,396.3l1.4,2.2c0.4,0.6,0.8,1,1.2,1.1
		c0.4,0.1,0.9,0,1.4-0.3c0.6-0.4,0.8-0.8,0.9-1.2c0-0.4-0.1-1-0.5-1.6l-1.4-2.2L808.5,396.3z"/>
	<path class="st10" d="M809.3,416.8c-0.7-1.3-1.1-2.7-1.1-4c0-1.4,0.4-2.6,1.2-3.8c0.7-1.2,1.8-2.2,3.3-3c1.4-0.8,2.9-1.2,4.3-1.2
		c1.4,0,2.7,0.3,3.9,1c1.2,0.7,2.1,1.7,2.9,3c0.7,1.3,1.1,2.7,1.1,4c0,1.4-0.4,2.6-1.2,3.8c-0.7,1.2-1.8,2.2-3.3,3
		c-1.4,0.8-2.9,1.2-4.3,1.2c-1.4,0-2.7-0.3-3.9-1C811,419.1,810.1,418.1,809.3,416.8z M811.8,415.4c0.5,0.9,1.2,1.6,1.9,2
		c0.8,0.4,1.6,0.5,2.5,0.4c0.9-0.1,1.8-0.4,2.7-0.9c0.9-0.5,1.6-1.1,2.2-1.8c0.5-0.7,0.8-1.5,0.9-2.3c0.1-0.8-0.2-1.7-0.7-2.7
		c-0.5-0.9-1.2-1.6-1.9-2c-0.8-0.4-1.6-0.5-2.5-0.4c-0.9,0.1-1.8,0.4-2.7,0.9c-0.9,0.5-1.6,1.1-2.2,1.8c-0.5,0.7-0.8,1.5-0.9,2.3
		C811,413.6,811.3,414.5,811.8,415.4z"/>
	<path class="st10" d="M814.3,425.3l14.3-6.8l2.5,5.2c0.5,1,0.7,1.9,0.8,2.8c0,0.9-0.2,1.7-0.6,2.4c-0.4,0.7-1.2,1.3-2.1,1.8
		c-1,0.5-2,0.7-2.8,0.5c-0.8-0.2-1.6-0.5-2.3-1.1l-4.5,6.1l-1.4-2.9l4-5.3c0,0,0,0,0-0.1c0,0,0,0,0-0.1l-1.2-2.6l-5.3,2.5
		L814.3,425.3z M823,424.3l0.9,1.9c0.5,1.1,1.1,1.7,1.7,1.9c0.6,0.2,1.3,0.2,2-0.2c0.7-0.3,1.2-0.8,1.4-1.4c0.2-0.6,0.1-1.4-0.4-2.4
		l-1-2L823,424.3z"/>
	<path class="st10" d="M834.1,437.3l0.3,0.7l-13.8,0.7l-1.1-2.6l16.8-0.8l1,2.5l-12.6,11.2l-1.1-2.6L834.1,437.3z M826.9,444.3
		l-2.5-6.1l2.3-1l2.5,6.1L826.9,444.3z"/>
	<path class="st10" d="M825.8,452.2l12.3-4.3l-1.5-4.2l2.7-0.9l3.9,11.2l-2.7,0.9l-1.5-4.2l-12.3,4.3L825.8,452.2z"/>
	<path class="st10" d="M828.7,460.9l15.2-4.6l0.8,2.8l-15.2,4.6L828.7,460.9z"/>
	<path class="st10" d="M831.9,473.4c-0.4-1.5-0.4-2.9,0-4.2c0.4-1.3,1.1-2.4,2.1-3.4c1-1,2.4-1.6,4-2c1.6-0.4,3.1-0.4,4.5-0.1
		c1.4,0.3,2.5,1,3.5,2c1,1,1.6,2.2,2,3.7c0.4,1.5,0.4,2.9,0,4.2c-0.4,1.3-1.1,2.4-2.1,3.4c-1,1-2.4,1.6-4,2
		c-1.6,0.4-3.1,0.4-4.5,0.1c-1.4-0.3-2.5-1-3.5-2C833,476.1,832.3,474.8,831.9,473.4z M834.7,472.7c0.3,1,0.7,1.8,1.3,2.4
		c0.6,0.6,1.4,0.9,2.3,1.1c0.9,0.1,1.8,0.1,2.8-0.2c1-0.3,1.9-0.7,2.6-1.2c0.7-0.5,1.2-1.2,1.5-2c0.3-0.8,0.3-1.7,0-2.7
		c-0.3-1-0.7-1.8-1.3-2.4c-0.6-0.6-1.4-0.9-2.3-1.1c-0.9-0.1-1.8-0.1-2.8,0.2c-1,0.3-1.9,0.7-2.6,1.2c-0.7,0.5-1.2,1.2-1.5,2
		C834.4,470.7,834.4,471.7,834.7,472.7z"/>
	<path class="st10" d="M834.5,482.8l15.6-2.8l0.5,2.8l-8.9,8.5l10.1-1.8l0.5,2.9l-15.6,2.8l-0.4-2.3l9.4-9.1l-10.7,1.9L834.5,482.8z
		"/>
</g>
<g>
	<path class="st10" d="M164,477.9l-15-3.6l2.3-9.6l2.7,0.6l-1.6,6.8l3.2,0.8l1.3-5.3l2.7,0.6l-1.3,5.3l3.8,0.9l1.7-7l2.7,0.6
		L164,477.9z"/>
	<path class="st10" d="M166.8,466.2l-14.8-4.5l0.8-2.7l11.4-3.4l-9.5-2.9l0.8-2.7l14.8,4.5l-0.7,2.2l-12.2,3.7l10.1,3.1L166.8,466.2
		z"/>
	<path class="st10" d="M174,445.5c-0.6,1.5-1.4,2.7-2.4,3.6c-1,0.9-2.2,1.4-3.6,1.5c-1.3,0.2-2.8-0.1-4.3-0.6
		c-1.5-0.6-2.7-1.4-3.6-2.4c-0.9-1.1-1.4-2.3-1.6-3.6c-0.2-1.4,0-2.8,0.5-4.3c0.3-0.8,0.6-1.5,1.1-2.1c0.4-0.6,0.8-1.2,1.3-1.6
		l2.4,1.2c-0.4,0.4-0.8,0.9-1.2,1.5c-0.4,0.6-0.7,1.2-1,1.9c-0.4,1.1-0.5,2-0.3,2.9c0.2,0.8,0.6,1.6,1.2,2.2
		c0.6,0.6,1.4,1.1,2.3,1.4c1,0.4,1.9,0.5,2.8,0.5c0.9,0,1.7-0.3,2.3-0.8c0.7-0.5,1.2-1.3,1.6-2.3c0.1-0.3,0.2-0.6,0.3-1
		c0.1-0.3,0.2-0.7,0.2-1.1l-2.6-1l-0.7,2l-2.2-0.8l1.7-4.6l6.4,2.4c0.1,0.6,0.1,1.4,0,2.3C174.6,443.5,174.3,444.5,174,445.5z"/>
	<path class="st10" d="M166.7,429l0.3-0.7l9.8,9.2l-1.1,2.5l-11.9-11.3l1.1-2.4l16.3,1.3l-1.1,2.5L166.7,429z M176.4,429.4l-2.6,5.9
		l-2.3-1l2.6-5.9L176.4,429.4z"/>
	<path class="st10" d="M185.2,420.7c-0.8,1.4-1.7,2.5-2.8,3.3c-1.1,0.7-2.4,1.1-3.7,1.1c-1.4,0-2.8-0.4-4.2-1.1
		c-1.4-0.7-2.5-1.7-3.3-2.9c-0.8-1.2-1.1-2.4-1.2-3.8c0-1.4,0.3-2.8,1-4.2c0.4-0.7,0.8-1.4,1.3-2c0.5-0.6,1-1.1,1.5-1.4l2.2,1.5
		c-0.5,0.4-1,0.8-1.4,1.3c-0.5,0.5-0.9,1.1-1.2,1.8c-0.5,1-0.8,2-0.7,2.8c0.1,0.9,0.4,1.6,0.9,2.3c0.5,0.7,1.3,1.2,2.1,1.7
		c0.9,0.5,1.8,0.8,2.7,0.8c0.9,0.1,1.7-0.1,2.4-0.5c0.7-0.4,1.3-1.1,1.8-2.1c0.1-0.3,0.3-0.6,0.4-0.9c0.1-0.3,0.2-0.7,0.3-1.1
		l-2.4-1.3l-1,1.9l-2.1-1.1l2.3-4.4l6.1,3.2c0,0.6-0.1,1.4-0.3,2.3C186,418.8,185.7,419.8,185.2,420.7z"/>
	<path class="st10" d="M188.4,414.1l-13.3-7.9l5-8.5l2.4,1.4l-3.6,6l2.8,1.7l2.8-4.7l2.4,1.4l-2.8,4.7l3.4,2l3.7-6.2l2.4,1.4
		L188.4,414.1z"/>
	<path class="st10" d="M194.1,404.4l-11.5-10.5l1.3-1.9l7.9,0.9l-3.7-7.1l1.3-1.9l13.9,7l-1.7,2.4l-10.4-5.3l0.6-0.5l4.2,8.4
		l-9.3-0.9l0.3-0.7l8.7,7.8L194.1,404.4z"/>
	<path class="st10" d="M204.7,389.2l-12.1-9.5l6.1-7.8l2.1,1.7l-4.3,5.5l2.6,2l3.4-4.3l2.1,1.7l-3.4,4.3l3.1,2.4l4.5-5.7l2.1,1.7
		L204.7,389.2z"/>
	<path class="st10" d="M212.2,379.8l-11.5-10.2l1.8-2.1l11.8,1.7l-7.5-6.6l1.9-2.1l11.5,10.2l-1.5,1.7l-12.6-1.7l7.9,7L212.2,379.8z
		"/>
	<path class="st10" d="M224.5,366.4l-9-9l-3.1,3.1l-1.9-1.9l8.2-8.2l1.9,1.9l-3.1,3.1l9,9L224.5,366.4z"/>
</g>
<path class="st2" d="M959.8,387.6c-25.1-59.4-61.1-112.8-106.9-158.6C807,183.1,753.7,147.1,694.2,122c-50.6-21.4-104-34.2-158.8-38
	V71.2c0-0.8-0.9-1.3-1.5-0.9l-29,16.6c-0.3,0.2-0.5,0.5-0.5,0.9c0,0.3,0.2,0.7,0.5,0.9l29,16.6c0.7,0.4,1.5-0.1,1.5-0.9V93.4
	c256,18.2,454.2,229.6,454.2,488.4c0,81.6-20.5,162.4-59.3,233.7l-1.9,3.5h10.7l0.7-1.2c17.2-32.1,31-66.1,40.8-101
	C992.8,673,999,627.6,999,581.8C999,514.4,985.8,449.1,959.8,387.6z"/>
<path class="st2" d="M481.2,83.2c-60.7,2.2-119.7,15.3-175.4,38.9c-59.4,25.1-112.8,61.1-158.6,106.9
	c-45.8,45.8-81.8,99.2-106.9,158.6C14.2,449.1,1,514.4,1,581.8c0,45.9,6.2,91.4,18.5,135.2c8.4,30,19.8,59.4,33.8,87.4l-9.5,6.4
	c-0.7,0.4-0.6,1.4,0.1,1.8l29.7,14.8c0.4,0.2,0.7,0.1,1-0.1c0.3-0.2,0.5-0.5,0.4-0.9l-2.3-33.1c-0.1-0.8-0.9-1.2-1.6-0.8l-10,6.7
	c-33.3-67.2-50.8-141.9-50.8-217.3c0-264.4,206.9-479.3,471-489.3l2.3-0.1v-9.4L481.2,83.2z"/>
<g>
	<path class="st10" d="M450.6,219c-0.7,0-1.4-0.1-2.1-0.2c-0.7-0.1-1.4-0.3-2-0.5c-0.6-0.2-1.1-0.4-1.4-0.5l0.4-3.2
		c0.5,0.3,1.1,0.5,1.7,0.7c0.6,0.2,1.2,0.4,1.8,0.6c0.6,0.1,1.3,0.2,1.9,0.2c0.8,0,1.4-0.2,1.9-0.5c0.5-0.3,0.7-0.8,0.7-1.4
		c0-0.5-0.1-0.9-0.4-1.2c-0.3-0.3-0.7-0.6-1.3-0.8c-0.6-0.2-1.3-0.5-2.2-0.8c-0.9-0.3-1.7-0.7-2.4-1c-0.7-0.4-1.2-0.9-1.7-1.5
		c-0.4-0.6-0.6-1.4-0.6-2.3c0-0.9,0.2-1.7,0.7-2.4c0.4-0.7,1.1-1.3,2-1.7c0.9-0.4,2-0.6,3.3-0.6c1,0,2,0.1,2.9,0.3
		c0.9,0.2,1.7,0.5,2.3,0.7l-0.3,3.1c-0.9-0.4-1.8-0.7-2.6-0.9c-0.8-0.2-1.6-0.3-2.5-0.3c-0.9,0-1.6,0.1-2,0.4
		c-0.5,0.3-0.7,0.7-0.7,1.3c0,0.5,0.1,0.8,0.4,1.1c0.3,0.3,0.6,0.5,1.1,0.7c0.5,0.2,1.1,0.4,1.8,0.6c1.2,0.4,2.2,0.8,3,1.2
		c0.8,0.4,1.4,1,1.8,1.6c0.4,0.6,0.6,1.4,0.6,2.4c0,0.5-0.1,1-0.2,1.5c-0.1,0.6-0.4,1.1-0.9,1.6c-0.4,0.5-1.1,0.9-1.9,1.2
		C453.1,218.9,452,219,450.6,219z"/>
	<path class="st10" d="M462.6,218.7v-13.5H458v-2.9h12.3v2.9h-4.6v13.5H462.6z"/>
	<path class="st10" d="M472.4,218.7v-16.4h6c1.1,0,2.1,0.2,3,0.5c0.8,0.4,1.5,0.9,2,1.6c0.5,0.7,0.7,1.7,0.7,2.8
		c0,1.2-0.3,2.2-0.8,2.9c-0.5,0.7-1.2,1.3-2,1.7l3.7,6.9h-3.4l-3.2-6.1c0,0,0,0-0.1,0c0,0,0,0-0.1,0h-2.9v6.1H472.4z M475.4,210.1
		h2.2c1.2,0,2.1-0.3,2.6-0.8s0.7-1.1,0.7-1.9c0-0.8-0.2-1.5-0.7-1.9c-0.5-0.5-1.3-0.7-2.5-0.7h-2.3V210.1z"/>
	<path class="st10" d="M492.3,205.2h0.8l-4.7,13.5h-2.9l5.8-16.4h2.8l5.8,16.4H497L492.3,205.2z M496.1,214.8h-6.9v-2.6h6.9V214.8z"
		/>
	<path class="st10" d="M503.8,218.7v-13.5h-4.6v-2.9h12.3v2.9h-4.6v13.5H503.8z"/>
	<path class="st10" d="M513.6,218.7v-16.4h10.5v2.9h-7.4v3.5h5.8v2.9h-5.8v4.2h7.7v2.9H513.6z"/>
	<path class="st10" d="M534,219c-1.7,0-3.2-0.4-4.5-1.1c-1.2-0.7-2.2-1.7-2.8-3c-0.7-1.3-1-2.8-1-4.5c0-1.7,0.4-3.2,1.1-4.5
		c0.7-1.3,1.7-2.3,3-3c1.3-0.7,2.8-1.1,4.5-1.1c0.9,0,1.7,0.1,2.5,0.3c0.8,0.2,1.5,0.4,2,0.7l-0.3,2.9c-0.6-0.3-1.2-0.5-1.9-0.7
		c-0.7-0.2-1.5-0.3-2.3-0.3c-1.2,0-2.2,0.2-3,0.7c-0.8,0.5-1.4,1.2-1.7,2c-0.4,0.8-0.6,1.8-0.6,2.9c0,1.1,0.2,2.1,0.6,3
		c0.4,0.9,0.9,1.5,1.7,2c0.8,0.5,1.7,0.7,2.8,0.7c0.3,0,0.7,0,1.1-0.1c0.4,0,0.8-0.1,1.2-0.2V213h-2.3v-2.5h5.3v7.3
		c-0.6,0.3-1.3,0.6-2.3,0.9C536.2,218.9,535.1,219,534,219z"/>
	<path class="st10" d="M546.1,218.7v-6.6l-5.8-9.8h3.3l4.7,8.3h-1.4l4.7-8.3h3.3l-5.8,9.8v6.6H546.1z"/>
</g>
<g>
	<path class="st10" d="M365.2,365.1v-15.5h9.6v2.8H368v3.3h5.2v2.8H368v6.7H365.2z"/>
	<path class="st10" d="M376.8,365.1v-15.5h5.7c1.1,0,2,0.2,2.8,0.5c0.8,0.3,1.4,0.9,1.9,1.6c0.4,0.7,0.7,1.6,0.7,2.6
		c0,1.1-0.2,2-0.7,2.7c-0.5,0.7-1.1,1.2-1.9,1.6l3.5,6.5h-3.2l-3-5.8c0,0,0,0-0.1,0s0,0-0.1,0h-2.8v5.8H376.8z M379.7,356.9h2.1
		c1.2,0,2-0.2,2.4-0.7c0.5-0.5,0.7-1.1,0.7-1.8c0-0.8-0.2-1.4-0.7-1.8c-0.5-0.4-1.2-0.7-2.3-0.7h-2.2V356.9z"/>
	<path class="st10" d="M395.6,352.3h0.7l-4.5,12.8h-2.8l5.5-15.5h2.7l5.5,15.5h-2.8L395.6,352.3z M399.2,361.4h-6.5v-2.5h6.5V361.4z
		"/>
	<path class="st10" d="M403.8,365.1l2.2-15.5h2.3l3.8,7.1l3.8-7.1h2.3l2.2,15.5h-3l-1.5-11.7l0.8,0.2l-4.6,8.3l-4.6-8.2l0.8-0.2
		l-1.5,11.7H403.8z"/>
	<path class="st10" d="M423,365.1v-15.5h9.9v2.8h-7v3.3h5.5v2.8h-5.5v4h7.3v2.8H423z"/>
	<path class="st10" d="M438.4,365.1l-4.4-15.5h3l3.1,11l3.5-11h2l3.6,10.7l3-10.7h3l-4.5,15.5H448l-3.5-10.4l-3.4,10.4H438.4z"/>
	<path class="st10" d="M463.5,365.4c-1.5,0-2.8-0.3-4-1c-1.2-0.7-2.1-1.6-2.7-2.8c-0.7-1.2-1-2.6-1-4.3c0-1.6,0.3-3,1-4.3
		c0.7-1.2,1.6-2.1,2.7-2.8c1.2-0.7,2.5-1,4-1c1.5,0,2.8,0.3,4,1c1.2,0.7,2.1,1.6,2.7,2.8c0.7,1.2,1,2.6,1,4.3c0,1.6-0.3,3-1,4.3
		c-0.7,1.2-1.6,2.1-2.7,2.8C466.3,365,465,365.4,463.5,365.4z M463.5,362.6c1,0,1.9-0.2,2.6-0.7c0.7-0.5,1.2-1.1,1.6-1.9
		c0.3-0.8,0.5-1.7,0.5-2.7c0-1-0.2-1.9-0.5-2.7c-0.3-0.8-0.9-1.4-1.6-1.9c-0.7-0.5-1.6-0.7-2.6-0.7c-1,0-1.9,0.2-2.6,0.7
		c-0.7,0.5-1.2,1.1-1.6,1.9c-0.3,0.8-0.5,1.7-0.5,2.7c0,1,0.2,1.9,0.5,2.7c0.3,0.8,0.9,1.4,1.6,1.9
		C461.6,362.4,462.5,362.6,463.5,362.6z"/>
	<path class="st10" d="M473.6,365.1v-15.5h5.7c1.1,0,2,0.2,2.8,0.5c0.8,0.3,1.4,0.9,1.9,1.6c0.4,0.7,0.7,1.6,0.7,2.6
		c0,1.1-0.2,2-0.7,2.7s-1.1,1.2-1.9,1.6l3.5,6.5h-3.2l-3-5.8c0,0,0,0-0.1,0c0,0,0,0-0.1,0h-2.8v5.8H473.6z M476.5,356.9h2.1
		c1.2,0,2-0.2,2.4-0.7c0.5-0.5,0.7-1.1,0.7-1.8c0-0.8-0.2-1.4-0.7-1.8s-1.2-0.7-2.3-0.7h-2.2V356.9z"/>
	<path class="st10" d="M487.5,365.1v-15.5h2.8v15.5H487.5z M496.3,365.1l-5.7-8.2l5.7-7.3h3.3l-5.8,7.3l5.8,8.2H496.3z"/>
	<path class="st10" d="M510.6,365.6c-1.2,0-2.2-0.2-2.9-0.6c-0.8-0.4-1.3-0.9-1.7-1.6c-0.4-0.6-0.5-1.3-0.5-2.1
		c0-0.7,0.1-1.3,0.4-1.8c0.3-0.5,0.6-1,1-1.4c0.4-0.4,0.9-0.8,1.3-1.2c-0.4-0.6-0.8-1.2-1.2-1.8c-0.3-0.6-0.5-1.3-0.5-2
		c0-0.8,0.2-1.4,0.6-2c0.4-0.5,0.9-1,1.6-1.3c0.7-0.3,1.4-0.4,2.1-0.4c1.2,0,2.1,0.3,2.8,0.9c0.6,0.6,1,1.4,1,2.3
		c0,0.7-0.2,1.2-0.5,1.7s-0.7,0.9-1.2,1.3c-0.5,0.4-1,0.8-1.5,1.2l3.1,3.6c0.1-0.3,0.1-0.5,0.1-0.8c0-0.3,0-0.5,0.1-0.8
		c0-0.3,0-0.5,0-0.8c0-0.3,0-0.5,0-0.7h2.6c0,0.4,0,0.9-0.1,1.5c-0.1,0.6-0.2,1.2-0.3,1.8c-0.2,0.6-0.4,1.2-0.7,1.8l2.3,2.7h-3.2
		l-0.7-0.8c-0.5,0.4-1.1,0.7-1.7,0.9C512.3,365.5,511.5,365.6,510.6,365.6z M511,363.5c0.5,0,1-0.1,1.3-0.2c0.4-0.1,0.7-0.3,1-0.5
		l-3.8-4.3c-0.3,0.4-0.6,0.8-0.8,1.2c-0.2,0.4-0.3,0.9-0.3,1.5c0,0.4,0.1,0.8,0.2,1.1c0.1,0.4,0.4,0.7,0.8,0.9
		S510.3,363.5,511,363.5z M510.2,355.5c0.4-0.3,0.7-0.5,1-0.8c0.3-0.3,0.5-0.5,0.7-0.8c0.2-0.3,0.3-0.6,0.3-0.9c0-0.4-0.1-0.8-0.4-1
		c-0.2-0.2-0.6-0.3-1-0.3c-0.4,0-0.8,0.1-1.1,0.4c-0.3,0.3-0.4,0.7-0.4,1.2c0,0.4,0.1,0.7,0.3,1.1
		C509.6,354.7,509.9,355,510.2,355.5z"/>
	<path class="st10" d="M532.4,365.4c-1.6,0-3-0.3-4.2-1c-1.2-0.7-2.1-1.6-2.8-2.8s-1-2.6-1-4.3c0-1.6,0.3-3,1-4.3
		c0.7-1.2,1.6-2.1,2.9-2.8c1.2-0.7,2.6-1,4.2-1c0.8,0,1.6,0.1,2.3,0.3c0.7,0.2,1.3,0.4,1.8,0.6l-0.3,2.7c-0.6-0.3-1.1-0.5-1.7-0.6
		c-0.6-0.2-1.3-0.2-2-0.2c-1.1,0-2,0.2-2.7,0.7c-0.7,0.5-1.3,1.1-1.6,1.9c-0.4,0.8-0.6,1.7-0.6,2.8c0,1,0.2,2,0.5,2.8
		c0.4,0.8,0.9,1.4,1.6,1.9c0.7,0.5,1.6,0.7,2.7,0.7c0.7,0,1.4-0.1,2-0.2c0.6-0.2,1.2-0.4,1.8-0.6l0.3,2.7c-0.6,0.3-1.2,0.5-1.9,0.7
		C533.9,365.3,533.1,365.4,532.4,365.4z"/>
	<path class="st10" d="M545.4,365.4c-1.5,0-2.8-0.3-4-1c-1.2-0.7-2.1-1.6-2.7-2.8c-0.7-1.2-1-2.6-1-4.3c0-1.6,0.3-3,1-4.3
		c0.7-1.2,1.6-2.1,2.7-2.8c1.2-0.7,2.5-1,4-1c1.5,0,2.8,0.3,4,1c1.2,0.7,2.1,1.6,2.7,2.8c0.7,1.2,1,2.6,1,4.3c0,1.6-0.3,3-1,4.3
		c-0.7,1.2-1.6,2.1-2.7,2.8C548.2,365,546.9,365.4,545.4,365.4z M545.4,362.6c1,0,1.9-0.2,2.6-0.7c0.7-0.5,1.2-1.1,1.6-1.9
		c0.3-0.8,0.5-1.7,0.5-2.7c0-1-0.2-1.9-0.5-2.7c-0.3-0.8-0.9-1.4-1.6-1.9c-0.7-0.5-1.6-0.7-2.6-0.7c-1,0-1.9,0.2-2.6,0.7
		c-0.7,0.5-1.2,1.1-1.6,1.9c-0.3,0.8-0.5,1.7-0.5,2.7c0,1,0.2,1.9,0.5,2.7c0.3,0.8,0.9,1.4,1.6,1.9
		C543.5,362.4,544.4,362.6,545.4,362.6z"/>
	<path class="st10" d="M555.5,365.1v-15.5h2.8l6.6,10v-10h2.8v15.5h-2.3l-7.1-10.7v10.7H555.5z"/>
	<path class="st10" d="M574.2,365.1v-12.8h-4.4v-2.8h11.6v2.8h-4.4v12.8H574.2z"/>
	<path class="st10" d="M583.5,365.1v-15.5h5.7c1.1,0,2,0.2,2.8,0.5c0.8,0.3,1.4,0.9,1.9,1.6c0.4,0.7,0.7,1.6,0.7,2.6
		c0,1.1-0.2,2-0.7,2.7c-0.5,0.7-1.1,1.2-1.9,1.6l3.5,6.5h-3.2l-3-5.8c0,0,0,0-0.1,0c0,0,0,0-0.1,0h-2.8v5.8H583.5z M586.4,356.9h2.1
		c1.2,0,2-0.2,2.4-0.7c0.5-0.5,0.7-1.1,0.7-1.8c0-0.8-0.2-1.4-0.7-1.8c-0.5-0.4-1.2-0.7-2.3-0.7h-2.2V356.9z"/>
	<path class="st10" d="M604.1,365.4c-1.5,0-2.8-0.3-4-1c-1.2-0.7-2.1-1.6-2.7-2.8c-0.7-1.2-1-2.6-1-4.3c0-1.6,0.3-3,1-4.3
		c0.7-1.2,1.6-2.1,2.7-2.8c1.2-0.7,2.5-1,4-1c1.5,0,2.8,0.3,4,1c1.2,0.7,2.1,1.6,2.7,2.8c0.7,1.2,1,2.6,1,4.3c0,1.6-0.3,3-1,4.3
		c-0.7,1.2-1.6,2.1-2.7,2.8C606.9,365,605.6,365.4,604.1,365.4z M604.1,362.6c1,0,1.9-0.2,2.6-0.7c0.7-0.5,1.2-1.1,1.6-1.9
		c0.3-0.8,0.5-1.7,0.5-2.7c0-1-0.2-1.9-0.5-2.7c-0.3-0.8-0.9-1.4-1.6-1.9c-0.7-0.5-1.6-0.7-2.6-0.7c-1,0-1.9,0.2-2.6,0.7
		c-0.7,0.5-1.2,1.1-1.6,1.9c-0.3,0.8-0.5,1.7-0.5,2.7c0,1,0.2,1.9,0.5,2.7c0.3,0.8,0.9,1.4,1.6,1.9
		C602.2,362.4,603.1,362.6,604.1,362.6z"/>
	<path class="st10" d="M614.3,365.1v-15.5h2.8v13h6.4v2.5H614.3z"/>
	<path class="st10" d="M629.9,365.4c-0.6,0-1.3-0.1-1.9-0.2c-0.7-0.1-1.3-0.3-1.9-0.4c-0.6-0.2-1-0.3-1.4-0.5l0.3-3
		c0.5,0.3,1.1,0.5,1.6,0.7c0.6,0.2,1.1,0.4,1.7,0.5c0.6,0.1,1.2,0.2,1.8,0.2c0.8,0,1.4-0.1,1.8-0.4c0.5-0.3,0.7-0.7,0.7-1.4
		c0-0.5-0.1-0.8-0.4-1.1s-0.7-0.5-1.2-0.8c-0.5-0.2-1.2-0.5-2-0.8c-0.8-0.3-1.6-0.6-2.2-1c-0.7-0.4-1.2-0.8-1.6-1.4
		c-0.4-0.6-0.6-1.3-0.6-2.2c0-0.9,0.2-1.6,0.6-2.3c0.4-0.7,1.1-1.2,1.9-1.6c0.8-0.4,1.9-0.6,3.1-0.6c0.9,0,1.8,0.1,2.7,0.3
		c0.9,0.2,1.6,0.4,2.2,0.7l-0.3,2.9c-0.9-0.4-1.7-0.7-2.5-0.9c-0.8-0.2-1.5-0.3-2.3-0.3c-0.8,0-1.5,0.1-1.9,0.4
		c-0.5,0.3-0.7,0.7-0.7,1.2c0,0.4,0.1,0.8,0.4,1.1c0.3,0.3,0.6,0.5,1.1,0.7c0.5,0.2,1,0.4,1.7,0.6c1.1,0.4,2.1,0.7,2.8,1.2
		c0.8,0.4,1.3,0.9,1.7,1.5c0.4,0.6,0.6,1.3,0.6,2.2c0,0.4-0.1,0.9-0.2,1.4c-0.1,0.5-0.4,1-0.8,1.5c-0.4,0.5-1,0.8-1.8,1.1
		C632.3,365.2,631.2,365.4,629.9,365.4z"/>
</g>
<g>
	<path class="st10" d="M397.8,508.8v-15.5h5.8c1.5,0,2.8,0.3,4,0.9c1.2,0.6,2.1,1.5,2.7,2.7c0.7,1.2,1,2.6,1,4.2c0,1.6-0.3,3-1,4.2
		c-0.7,1.2-1.6,2-2.7,2.7c-1.2,0.6-2.5,0.9-4,0.9H397.8z M400.7,506.3h3c1,0,1.8-0.2,2.5-0.6c0.7-0.4,1.2-1,1.5-1.8
		c0.3-0.8,0.5-1.7,0.5-2.8c0-1.1-0.2-2-0.5-2.8c-0.3-0.8-0.8-1.4-1.5-1.8c-0.7-0.4-1.5-0.6-2.5-0.6h-3V506.3z"/>
	<path class="st10" d="M418.4,496h0.7l-4.5,12.8h-2.8l5.5-15.5h2.7l5.5,15.5h-2.8L418.4,496z M422,505.1h-6.5v-2.5h6.5V505.1z"/>
	<path class="st10" d="M429.3,508.8V496h-4.4v-2.8h11.6v2.8h-4.4v12.8H429.3z"/>
	<path class="st10" d="M442.2,496h0.7l-4.5,12.8h-2.8l5.5-15.5h2.7l5.5,15.5h-2.8L442.2,496z M445.8,505.1h-6.5v-2.5h6.5V505.1z"/>
	<path class="st10" d="M455.5,508.8l2.2-15.5h2.3l3.8,7.1l3.8-7.1h2.3l2.2,15.5h-3l-1.5-11.7l0.8,0.2l-4.6,8.3l-4.6-8.2l0.8-0.2
		l-1.5,11.7H455.5z"/>
	<path class="st10" d="M479.6,496h0.7l-4.5,12.8h-2.8l5.5-15.5h2.7l5.5,15.5h-2.8L479.6,496z M483.2,505.1h-6.5v-2.5h6.5V505.1z"/>
	<path class="st10" d="M488.6,508.8v-15.5h2.8l6.6,10v-10h2.8v15.5h-2.3l-7.1-10.7v10.7H488.6z"/>
	<path class="st10" d="M509.1,496h0.7l-4.5,12.8h-2.8l5.5-15.5h2.7l5.5,15.5h-2.8L509.1,496z M512.8,505.1h-6.5v-2.5h6.5V505.1z"/>
	<path class="st10" d="M524.8,509.1c-1.6,0-3-0.3-4.2-1c-1.2-0.7-2.1-1.6-2.7-2.8c-0.6-1.2-0.9-2.6-0.9-4.3c0-1.6,0.3-3,1-4.2
		c0.7-1.2,1.6-2.1,2.9-2.8c1.2-0.7,2.6-1,4.2-1c0.8,0,1.6,0.1,2.4,0.3c0.8,0.2,1.4,0.4,1.9,0.7l-0.3,2.7c-0.6-0.3-1.2-0.5-1.8-0.6
		c-0.7-0.2-1.4-0.2-2.1-0.2c-1.2,0-2.1,0.2-2.8,0.7c-0.7,0.5-1.3,1.1-1.6,1.9c-0.4,0.8-0.5,1.7-0.5,2.7c0,1.1,0.2,2,0.5,2.8
		c0.4,0.8,0.9,1.5,1.6,1.9c0.7,0.5,1.6,0.7,2.7,0.7c0.3,0,0.7,0,1-0.1c0.4,0,0.7-0.1,1.1-0.2v-2.8h-2.1V501h5v6.9
		c-0.5,0.3-1.3,0.6-2.1,0.8C526.8,509,525.9,509.1,524.8,509.1z"/>
	<path class="st10" d="M532.6,508.8v-15.5h9.9v2.8h-7v3.3h5.5v2.8h-5.5v4h7.3v2.8H532.6z"/>
	<path class="st10" d="M544.5,508.8l2.2-15.5h2.3l3.8,7.1l3.8-7.1h2.3l2.2,15.5h-3l-1.5-11.7l0.8,0.2l-4.6,8.3l-4.6-8.2l0.8-0.2
		l-1.5,11.7H544.5z"/>
	<path class="st10" d="M563.6,508.8v-15.5h9.9v2.8h-7v3.3h5.5v2.8h-5.5v4h7.3v2.8H563.6z"/>
	<path class="st10" d="M576.2,508.8v-15.5h2.8l6.6,10v-10h2.8v15.5h-2.3l-7.1-10.7v10.7H576.2z"/>
	<path class="st10" d="M594.9,508.8V496h-4.4v-2.8h11.6v2.8h-4.4v12.8H594.9z"/>
</g>
<g>
	<polygon class="st11" points="40.2,984.8 31.9,992.6 968.1,992.6 960.2,984.8 	"/>
</g>
<g>
	<polygon class="st11" points="31.9,837.2 40.2,845.4 40.2,984.8 31.9,992.6 	"/>
	<g>
		<polygon class="st11" points="40.2,984.8 31.9,992.6 968.1,992.6 960.2,984.8 		"/>
	</g>
</g>
<g>
	<g>
		<g>
			<polygon class="st12" points="968.1,992.6 959.8,984.5 959.8,845.1 968.1,837.2 			"/>
		</g>
		<g>
			<polygon class="st12" points="959.8,845.1 968.1,837.2 31.9,837.2 39.8,845.1 			"/>
		</g>
	</g>
</g>
<g>
	<path class="st13" d="M50.9,938.7v-47.2h17.7c4.5,0,8.5,0.9,12,2.8c3.5,1.9,6.3,4.6,8.3,8.1c2,3.5,3,7.8,3,12.7c0,4.9-1,9.2-3,12.7
		c-2,3.5-4.8,6.2-8.3,8.1c-3.5,1.9-7.5,2.8-12,2.8H50.9z M59.5,931h9c3.1,0,5.6-0.6,7.7-1.9c2-1.3,3.6-3.1,4.6-5.5
		c1-2.4,1.6-5.2,1.6-8.5c0-3.3-0.5-6.1-1.6-8.5c-1-2.4-2.6-4.2-4.6-5.5c-2-1.3-4.6-1.9-7.7-1.9h-9V931z"/>
	<path class="st13" d="M113.4,899.9h2.2L102,938.7h-8.4l16.8-47.2h8.2l16.8,47.2h-8.4L113.4,899.9z M124.4,927.5h-19.8V920h19.8
		V927.5z"/>
	<path class="st13" d="M146.4,938.7v-38.9h-13.4v-8.4h35.4v8.4h-13.4v38.9H146.4z"/>
	<path class="st13" d="M185.8,899.9h2.2l-13.6,38.8h-8.4l16.8-47.2h8.2l16.8,47.2h-8.4L185.8,899.9z M196.8,927.5h-19.8V920h19.8
		V927.5z"/>
	<path class="st13" d="M228.4,938.7v-47.2h17.7c4.5,0,8.5,0.9,12,2.8c3.5,1.9,6.3,4.6,8.3,8.1c2,3.5,3,7.8,3,12.7
		c0,4.9-1,9.2-3,12.7c-2,3.5-4.8,6.2-8.3,8.1c-3.5,1.9-7.5,2.8-12,2.8H228.4z M237.1,931h9c3.1,0,5.6-0.6,7.7-1.9
		c2-1.3,3.6-3.1,4.6-5.5c1-2.4,1.6-5.2,1.6-8.5c0-3.3-0.5-6.1-1.6-8.5c-1-2.4-2.6-4.2-4.6-5.5c-2-1.3-4.6-1.9-7.7-1.9h-9V931z"/>
	<path class="st13" d="M277,938.7v-47.2h17.3c3.3,0,6.1,0.5,8.6,1.6c2.4,1,4.3,2.6,5.7,4.7c1.3,2.1,2,4.8,2,8c0,3.5-0.7,6.2-2.2,8.2
		c-1.5,2-3.4,3.6-5.8,4.8l10.7,19.8h-9.6l-9.1-17.5c-0.1,0-0.1,0-0.2,0c0,0-0.1,0-0.2,0h-8.4v17.5H277z M285.6,914h6.3
		c3.6,0,6-0.7,7.4-2.2c1.4-1.5,2.1-3.3,2.1-5.5c0-2.4-0.7-4.2-2.1-5.6c-1.4-1.3-3.7-2-7.1-2h-6.7V914z"/>
	<path class="st13" d="M319.3,938.7v-47.2h8.6v47.2H319.3z"/>
	<path class="st13" d="M349.9,938.7l-16.8-47.2h8.7l13,37.2h-1.8l13.1-37.2h8.7l-16.8,47.2H349.9z"/>
	<path class="st13" d="M380.1,938.7v-47.2h30.2v8.4h-21.4v10.1h16.6v8.4h-16.6v12.1H411v8.4H380.1z"/>
	<path class="st13" d="M418.4,938.7v-47.2h8.5l20.2,30.5v-30.5h8.6v47.2h-7.1L427,906.3v32.4H418.4z"/>
	<path class="st13" d="M501.7,939.7c-4.5,0-8.5-1-12-3.1c-3.5-2-6.3-4.9-8.3-8.6c-2-3.7-3-8-3-12.9c0-4.9,1-9.3,3-12.9
		c2-3.7,4.8-6.5,8.3-8.6c3.5-2,7.5-3.1,12-3.1c4.5,0,8.5,1,12,3.1c3.5,2,6.3,4.9,8.3,8.6c2,3.7,3,8,3,12.9c0,4.9-1,9.3-3,12.9
		c-2,3.7-4.8,6.5-8.3,8.6C510.2,938.6,506.2,939.7,501.7,939.7z M501.7,931.3c3.1,0,5.8-0.7,7.9-2.1c2.1-1.4,3.7-3.3,4.8-5.8
		c1.1-2.4,1.6-5.2,1.6-8.4c0-3.1-0.5-5.9-1.6-8.4c-1.1-2.4-2.6-4.4-4.8-5.8c-2.1-1.4-4.7-2.1-7.9-2.1c-3.1,0-5.8,0.7-7.9,2.1
		c-2.1,1.4-3.7,3.3-4.8,5.8c-1.1,2.4-1.6,5.2-1.6,8.4c0,3.1,0.5,5.9,1.6,8.4c1.1,2.4,2.6,4.4,4.8,5.8
		C495.9,930.6,498.6,931.3,501.7,931.3z"/>
	<path class="st13" d="M532.6,938.7v-47.2h17.3c3.3,0,6.1,0.5,8.6,1.6c2.4,1,4.3,2.6,5.7,4.7c1.3,2.1,2,4.8,2,8
		c0,3.5-0.7,6.2-2.2,8.2c-1.5,2-3.4,3.6-5.8,4.8l10.7,19.8h-9.6l-9.1-17.5c-0.1,0-0.1,0-0.2,0c0,0-0.1,0-0.2,0h-8.4v17.5H532.6z
		 M541.2,914h6.3c3.6,0,6-0.7,7.4-2.2c1.4-1.5,2.1-3.3,2.1-5.5c0-2.4-0.7-4.2-2.1-5.6c-1.4-1.3-3.7-2-7.1-2h-6.7V914z"/>
	<path class="st13" d="M595.8,939.7c-5,0-9.3-1-12.8-3.1c-3.6-2-6.3-4.9-8.2-8.6c-1.9-3.7-2.8-8-2.8-13c0-4.9,1.1-9.2,3.2-12.9
		c2.1-3.7,5-6.5,8.7-8.6c3.7-2,8-3,12.8-3c2.5,0,4.9,0.3,7.2,0.8c2.3,0.5,4.2,1.2,5.9,2l-0.9,8.2c-1.7-0.8-3.5-1.4-5.6-1.9
		c-2-0.5-4.2-0.8-6.5-0.8c-3.5,0-6.4,0.7-8.6,2.1c-2.2,1.4-3.9,3.3-5,5.7c-1.1,2.4-1.6,5.2-1.6,8.2c0,3.2,0.5,6.1,1.6,8.5
		c1.1,2.5,2.7,4.4,4.9,5.8c2.2,1.4,4.9,2.1,8.2,2.1c1,0,2-0.1,3.1-0.2c1.1-0.1,2.2-0.3,3.4-0.5v-8.4h-6.5V915h15.1v21.1
		c-1.6,1-3.8,1.8-6.5,2.5C602,939.3,599,939.7,595.8,939.7z"/>
	<path class="st13" d="M634.4,899.9h2.2L623,938.7h-8.4l16.8-47.2h8.2l16.8,47.2H648L634.4,899.9z M645.4,927.5h-19.8V920h19.8
		V927.5z"/>
	<path class="st13" d="M661.8,938.7v-47.2h8.5l20.2,30.5v-30.5h8.6v47.2H692l-21.6-32.4v32.4H661.8z"/>
	<path class="st13" d="M709.5,938.7v-47.2h8.6v47.2H709.5z"/>
	<path class="st13" d="M723.9,938.7l24.2-42.2l1.5,2.7h-22.6v-7.7h32.9l-24.2,42.2l-1.5-2.7h25.3v7.7H723.9z"/>
	<path class="st13" d="M780.3,899.9h2.2l-13.6,38.8h-8.4l16.8-47.2h8.2l16.8,47.2h-8.4L780.3,899.9z M791.3,927.5h-19.8V920h19.8
		V927.5z"/>
	<path class="st13" d="M813.3,938.7v-38.9h-13.4v-8.4h35.4v8.4h-13.4v38.9H813.3z"/>
	<path class="st13" d="M841.5,938.7v-47.2h8.6v47.2H841.5z"/>
	<path class="st13" d="M881,939.7c-4.5,0-8.5-1-12-3.1c-3.5-2-6.3-4.9-8.3-8.6c-2-3.7-3-8-3-12.9c0-4.9,1-9.3,3-12.9
		c2-3.7,4.8-6.5,8.3-8.6c3.5-2,7.5-3.1,12-3.1c4.5,0,8.5,1,12,3.1c3.5,2,6.3,4.9,8.3,8.6c2,3.7,3,8,3,12.9c0,4.9-1,9.3-3,12.9
		c-2,3.7-4.8,6.5-8.3,8.6C889.5,938.6,885.5,939.7,881,939.7z M881,931.3c3.1,0,5.8-0.7,7.9-2.1c2.1-1.4,3.7-3.3,4.8-5.8
		c1.1-2.4,1.6-5.2,1.6-8.4c0-3.1-0.5-5.9-1.6-8.4c-1.1-2.4-2.6-4.4-4.8-5.8c-2.1-1.4-4.7-2.1-7.9-2.1c-3.1,0-5.8,0.7-7.9,2.1
		c-2.1,1.4-3.7,3.3-4.8,5.8c-1.1,2.4-1.6,5.2-1.6,8.4c0,3.1,0.5,5.9,1.6,8.4c1.1,2.4,2.6,4.4,4.8,5.8
		C875.2,930.6,877.8,931.3,881,931.3z"/>
	<path class="st13" d="M911.8,938.7v-47.2h8.5l20.2,30.5v-30.5h8.6v47.2H942l-21.6-32.4v32.4H911.8z"/>
</g>
</svg>
