<svg width="32" height="32" viewBox="0 0 32 32" fill="none" xmlns="http://www.w3.org/2000/svg">
<path d="M27.7474 0.970215C28.637 0.970215 29.4901 1.3236 30.1191 1.95263C30.7482 2.58166 31.1016 3.4348 31.1016 4.32438V27.8035C31.1016 28.6931 30.7482 29.5463 30.1191 30.1753C29.4901 30.8043 28.637 31.1577 27.7474 31.1577H4.26823C3.37865 31.1577 2.5255 30.8043 1.89648 30.1753C1.26745 29.5463 0.914063 28.6931 0.914062 27.8035V4.32438C0.914062 3.4348 1.26745 2.58166 1.89648 1.95263C2.5255 1.3236 3.37865 0.970215 4.26823 0.970215H27.7474ZM26.9089 26.965V18.0765C26.9089 16.6264 26.3328 15.2358 25.3075 14.2105C24.2822 13.1852 22.8916 12.6092 21.4416 12.6092C20.016 12.6092 18.3557 13.4813 17.5507 14.7894V12.9278H12.8717V26.965H17.5507V18.697C17.5507 17.4056 18.5905 16.3491 19.8819 16.3491C20.5046 16.3491 21.1018 16.5964 21.5421 17.0368C21.9824 17.4771 22.2298 18.0743 22.2298 18.697V26.965H26.9089ZM7.42115 10.2948C8.16839 10.2948 8.88504 9.99796 9.41342 9.46957C9.9418 8.94119 10.2386 8.22455 10.2386 7.4773C10.2386 5.91761 8.98083 4.64303 7.42115 4.64303C6.66945 4.64303 5.94854 4.94164 5.41701 5.47317C4.88548 6.00469 4.58688 6.7256 4.58688 7.4773C4.58688 9.03699 5.86146 10.2948 7.42115 10.2948ZM9.75229 26.965V12.9278H5.10677V26.965H9.75229Z" fill="#0580E8"/>
</svg>
